<?xml version="1.0" encoding="UTF-8"?><svg id="a" xmlns="http://www.w3.org/2000/svg" viewBox="0 0 500 500"><path d="M251.5,69.12c1.52-4.69,4.93-8.45,8.44-11.89-6.68,2.67-13.02,6.39-18.31,11.27-2.37,2.98-3.2,7.58-3.93,10.98-1.59,9.12-1.85,18.52-4.82,27.38-5.11,15.55-14.17,29.49-23.11,43.09-7.87,11.4-18.18,21.17-23.93,33.96-4.82,9.75-12.34,42.27-4.08,50.02,2.91.7,5.91.71,8.91.62-5-8.41-.65-24.79,5.43-31.05,11.43-15.09,25.25-29.17,32.21-47.05,2.74-8.89,4.11-18.25,8.6-26.54,4.07-8.15,9.12-15.83,12.31-24.39,5.34-11.78-.4-24.32,2.28-36.38ZM260.55,317.04c.81-15.17-1.52-30.22-2.33-45.33.04-10.59,1.06-21.43-.8-31.82-3.62,1.12-7.33,1.81-11.26,1.49-1.67-.18-3.33-.5-4.97-.91.98,6.27,1.65,12.59,2.29,18.9,2.14,17.74,2.12,35.69-.75,53.35-3.3,22.65-10.39,44.73-20.04,65.46-9.52,18.82-17.85,30.75,3.58,45.53,2.51,1.62,5,3.05,7.52,4.34-.67-2.18-1.02-4.57-1.01-7.2,1.9-11.57,9.21-21.62,12.35-32.93,4-11.02,5.47-22.66,8.45-33.95,3.4-12.17,6.3-24.39,6.98-36.93ZM391.24,191.68c9.84,20.29-8.78,31.14-27.21,29.29-20.43-1.66-27.72,3.79-37.76,8.84,3.24,11.23,5.59,22.71,7.34,34.27,6.48,46.18,4.48,93.31-3.26,139.2-6.84,31.69-11.15,56.57-50.62,49.28-12.61-2.77-30.87-5.77-40.47-15.51-15.79-6.19-33.32-16.93-32.54-35.64,1.03-9.58,7.23-17.95,10.94-26.56,4.2-8.77,7.59-17.97,10.52-26.82,7.63-23.31,11.84-47.95,10.66-72.49-.75-11.36-1.9-22.71-3.54-33.98-.07-.91-.33-1.94-.5-2.96-5.95-1.9-11.89-3.86-18.17-2.97-5.75,1.28-11.18,4.39-17.21,4.04-.55-.04-1.07-.1-1.57-.2-2.64,2.3-10.18.59-13.12.98-15.99-.12-12.38-21.63-11.58-32.42,2.51-24.73,14.52-40.24,29.71-58.64,10.82-16.14,22.27-32.78,26.27-51.99,2.71-12.07.54-27.9,11.66-36.03,6.82-5.36,14.65-9.23,22.89-11.83,1.62-.28,3.57-1.15,5.51-1.79,5.18-2.47,11.81-2.07,16.57,1.54,9.48,8.67,11.46,22.79,19.26,32.84,15.35,19.2,29.07,39.52,43.04,59.73,12.33,18.39,32.73,30.18,43.2,49.84Z"/><path d="M110.29,306.36c-1.35-14.58-4.16-29.14-4.25-43.79-.07-2.65,3.19-4.55,5.2-2.52.64.72.89,1.34.92,2.09-.46,2.8-.07,6.1.15,8.59,1.23,11.56,2.55,23.12,3.91,34.68.63,3.82-5.36,4.81-5.93.95Z"/><path d="M113.52,283.02c-1.17-2.68,1.5-4.13,3.61-4.93,2.45-1.28,4.7-2.98,6.5-5.08,7.7-9.49-1.78-9.41-9.09-7.68-2.45.21-4.77,3.11-6.99.76-4.13-6.73,9.08-7.16,13.13-7.59,13.89-1.13,14.71,12.09,6.12,19.91-2.87,2.34-10.29,9.51-13.28,4.61Z"/><path d="M113.65,306.11c-.88-1.91.53-3.7,2.28-4.34,3.7-1.98,7.2-4.44,9.96-7.64,3.7-3.87-1.77-8.19-5.83-7.77-3.27-.64-7.22,2.12-9.12-1.29-1.57-5.06,5.42-4.67,8.62-4.71,8.71-.87,17.63,8.7,11.67,16.71-2.44,3.04-14.63,14.93-17.58,9.04Z"/><path d="M144.15,303.28c-1.58-.17-2.9-1.68-2.67-3.3,1.16-8.21,1.77-16.5,2.09-24.73.98-4.13-1.95-18.56,4.57-17.52,1.76.35,2.75,2.45,2.06,4.05-.49,4.5-.39,9.06-.64,13.54-.33,8.46-.92,16.9-2.11,25.28-.22,1.62-1.66,2.86-3.3,2.68ZM147.5,263.65c.23-.02.45-.04.66-.12-.42.11-.86.13-1.31.06.09.02.17.03.26.05h0c.13,0,.26,0,.4.02Z"/><path d="M163.59,301.83c-5.36-13.1-8.54-27.58-16.43-39.41-1.38-2.15.73-5.12,3.2-4.48,4.84,2.6,6.11,9.35,8.49,14,3.7,9.31,7.05,18.76,10.49,28.18,1.15,3.67-4.61,5.47-5.75,1.71Z"/><path d="M156.86,286.61c-3.52-.6-9.69,1.28-11.64-2.29-.64-1.47.02-3.33,1.53-3.96,1.11-.61,2.54.18,3.64.07,2.1.09,4.19.15,6.3.17,3.88-.12,4.06,5.94.18,6Z"/><path d="M183.94,304.1c-10.09-2.53-9.39-16.4-10.53-24.73-1.55-9.97,3.56-31.33,17.14-21.9,3.49,1.19,1.87,6.68-1.72,5.73-1.61-.48-2.86-2.12-4.63-2.06-8.08.96-4.82,42.04,1.78,36.22,1.98-2.41,2.04-8.46,6.41-7.09,3.53,1.56,1.05,5.55-.06,7.98-1.39,3.4-4.45,6.45-8.4,5.85Z"/><path d="M202.14,295.15c-.13-13.08-1.72-25.59-2.39-38.25,1.09-3,5.83-2.17,5.79,1.03,1.6,12.28,2.13,24.67,2.61,37.03.15,3.87-5.91,4.07-6,.18Z"/><path d="M220.71,300.65c-6.58-6.04-20.06-15.06-15.87-25.32,4.71-5.96,9.05-12.65,14.84-17.56,3.42-1.62,6.14,3.65,2.72,5.39-2.52,3.58-13.33,13.62-12.25,17.18,2.86,6.48,9.04,11.09,14.14,15.49,3.12,2.3-.5,7.18-3.58,4.82Z"/><path d="M111.58,325.89c-2.77-.42-3.35-4.56-.75-5.66,5.4-1.13,10.96-1.48,16.46-1.88,5.18-.33,10.36-.44,15.55-.54,1.63-.03,3.08,1.14,3.18,2.82.09,1.58-1.18,3.14-2.82,3.18-10.58,0-21.32.91-31.62,2.09Z"/><path d="M125.99,353.49c-.35-9.37-.4-18.87-2.26-28.09-2.37-3.35,2.93-6.8,5.12-3.39,3.13,9.94,2.52,20.79,3.14,31.12.18,3.9-5.73,4.27-5.99.36Z"/><path d="M152.78,355.65c-8.22-2.4-7.87-12.42-8.45-19.38.26-3.63-2.15-15.48,2.67-15.96,5.98-9.66,16.05-.57,18.47,7.06,3.72,8.83.12,30.35-12.7,28.28ZM154.49,349.87c6.06-1.47,6.77-12.99,6.18-18.15-1.25-3.64-3.14-8.48-7.16-9.61-2.46,1.42-2.42,4.6-3.42,6.9.54,4.79-.85,19.26,4.4,20.87Z"/><path d="M141.3,417.55c-10.59-3.89-13.06-16.86-14.84-26.73-.57-6.27-2.25-14.3.41-20.12,2.17-2.35,6.24.17,5.02,3.12-1.36,8.4,1.5,40.25,13.92,37.73,7.36-3.7,4.86-19.54,5-26.65-.18-3.65-.46-7.26-.83-10.71-.05-1.72-.88-3.65.2-5.19,1.41-2.11,5.08-1.3,5.38,1.25.83,6.93,1.33,13.9,1.49,20.88.65,10.5-.93,29.39-15.75,26.42Z"/><path d="M165.39,411.83c-.47-14.95-.65-30.29-2.52-45.03.39-1.74,2.32-2.79,4-2.14,3.43,1.68,2.44,9.21,3.12,12.63.74,11.42,1.06,22.86,1.39,34.3.11,3.9-5.8,4.17-6,.25Z"/><path d="M169.49,393.84c-4.24.12-4.22-6.28.03-6.02,4.37.52,8.54-1.52,12.02-3.98,13.9-10.33-3.93-13.13-12.66-13.17-2.22.18-5.48.1-5.56-2.86-.16-1.67,1.68-3.35,3.16-3.12,8.5-.03,27.45.95,26,13.08-1.26,9.81-13.81,16.51-23,16.07Z"/><path d="M259.94,57.23c-3.51,3.44-6.92,7.2-8.44,11.89-2.68,12.06,3.07,24.6-2.28,36.38-3.19,8.56-8.23,16.25-12.31,24.39-4.48,8.29-5.86,17.66-8.6,26.54-6.96,17.89-20.78,31.96-32.21,47.05-6.09,6.27-10.43,22.64-5.43,31.05-3,.09-6,.08-8.91-.62-8.26-7.75-.74-40.27,4.08-50.02,5.76-12.79,16.06-22.56,23.93-33.96,8.94-13.6,18-27.54,23.11-43.09,2.96-8.85,3.23-18.25,4.82-27.38.73-3.4,1.56-8,3.93-10.98,5.29-4.88,11.62-8.6,18.31-11.27Z" fill="#fff"/><path d="M258.23,271.71c.81,15.11,3.14,30.16,2.33,45.33-.67,12.55-3.57,24.76-6.98,36.93-2.98,11.29-4.45,22.93-8.45,33.95-3.13,11.31-10.45,21.36-12.35,32.93-.02,2.63.34,5.02,1.01,7.2-2.52-1.29-5.01-2.71-7.52-4.34-21.43-14.78-13.1-26.71-3.58-45.53,9.66-20.73,16.75-42.81,20.04-65.46,2.88-17.66,2.89-35.61.75-53.35-.64-6.31-1.32-12.63-2.29-18.9,1.64.41,3.3.73,4.97.91,3.93.32,7.64-.37,11.26-1.49,1.86,10.39.85,21.23.8,31.82Z" fill="#fff"/></svg>