<?xml version="1.0" encoding="UTF-8"?><svg id="a" xmlns="http://www.w3.org/2000/svg" viewBox="0 0 500 500"><path d="M70.2,166.66s-.05.05-.07.08c0,0,0,0,0,0,.03-.03.05-.05.08-.08Z"/><path d="M69.99,166.89s-.04.05-.07.07c.02-.02.04-.05.07-.07Z"/><path d="M64.93,173.83c-.03.05-.06.1-.09.16.03-.05.06-.1.09-.16Z"/><path d="M115.95,202.99s.08.08.12.12h0s0,0,0,0c-.04-.04-.08-.08-.12-.12Z"/><path d="M111.81,209.3s0,.07-.01.1c0,0,0,.02,0,.03,0-.04,0-.09.01-.13Z"/><path d="M111.8,209.41s0,.02,0,.03c0,0,0,.01,0,.02,0,0,0,0,0,0,0,.04,0,.07-.01.11,0-.05,0-.1.01-.14Z"/><path d="M111.77,209.72s0,0,0,0c0,0,0,0,0-.01,0-.03,0-.07.01-.1,0,.07-.02.15-.02.22,0-.03,0-.07.01-.1Z"/><path d="M88.91,301.07s.05.05.08.07c-.03-.02-.05-.05-.08-.07Z"/><path d="M85.07,318.49c-23.94-11.73-4.67-33-5.68-51.14-1.49-12.03-13.34-17.6-22-24.16-19.11-13.4-19.39-46.42-12.26-66.51,4.89-14.7,16.47-29.01,32.14-32.43,12.13-1.8,27.09,2.56,31.89,14.87,4.36,11.82-2.22,27.06,8.03,36.66,10.64,10.36,2.89,29.8-6.96,38.14-2.67,2.27-7.32.87-6.6-3.07.43-3.92,2.79-7.47,2.6-11.51-.21-7.66-10.5-4.43-12.89-11.16-2.99-4.9-2.81-15.48-10.33-15.26-8.75,2.56-8.87,14.14-9.21,21.69.26,13.35,9.74,23.34,17.86,32.9,8.21,10.1,6.33,23.47,6.98,35.5,2.33,10.02,11.18,8.08,16.25,1.2,2.29-3.76,3.75-8.23,3.75-12.65-.6-8.18-5.71-15.54-5.28-23.87-.04-6.28,5.73-18.61,13.3-13.56,2.75,4.35-.1,10.27,1.71,15.13,2.84,12.26,13.09,22.49,10.8,35.69-1.82,22.33-25.22,39.17-46.74,35.58-2.49-.41-4.95-1.1-7.35-2.09ZM78.8,298.31c-.07.63-.09,1.23-.05,1.87.05.81.26,1.6.5,2.37.49,1.56,1.23,3.04,2.1,4.42.96,1.51,2.19,2.81,3.67,3.81,1.56,1.05,3.25,1.92,4.99,2.62,1.5.6,3.02,1.09,4.6,1.42.27.06.55.11.82.15.27.05.55.09.82.12.37.05.75.09,1.13.12.4.04.81,0,1.21-.03.47-.03.95-.08,1.42-.16.44-.07.81-.14,1.23-.28.81-.26,1.61-.92,1.94-1.71.44-1.07.41-2.31-.31-3.25-.4-.52-.92-.95-1.53-1.19-.47-.19-.94-.36-1.41-.54-1.21-.49-2.37-1.07-3.52-1.69,0,0-.02,0-.03-.01-1.66-.93-3.28-1.94-4.82-3.05-.86-.64-1.7-1.32-2.49-2.06-.79-.76-1.53-1.56-2.25-2.38-.47-.54-1.11-.86-1.78-.95-.23-1.4-1.58-2.51-2.98-2.56-.82-.03-1.64.27-2.24.83-.62.58-.91,1.31-.99,2.13.01-.13.03-.26.04-.38.03-.13.07-.27.1-.4-.09.25-.15.52-.18.78ZM112.67,202.3c-.63.24-1.17.68-1.53,1.25-.76,1.19-.6,2.76.35,3.8.05.06.1.1.15.15h0s0,0,0,0c.02.03.03.06.05.09.02.04.03.08.05.13.02.07.03.14.05.21.02.18.04.35.05.53,0,.37-.01.74-.05,1.1-.06.45-.13.91-.22,1.36-.34,1.67.89,3.33,2.54,3.62,0,0,.02,0,.02,0,1.7.28,3.26-.88,3.6-2.54.12-.56.2-1.13.26-1.71,0,0,0,0,0,0,0,0,0-.01,0-.01,0,0,0,0,0,0,0-.01,0-.03,0-.05,0-.02,0-.03,0-.05.12-1.27.14-2.55-.15-3.8-.31-1.31-.99-2.69-2.06-3.55.03.03.06.06.09.08-.42-.39-.95-.66-1.55-.76h0c.11.03.22.05.33.08-.11-.03-.21-.05-.32-.07-.56-.09-1.11-.07-1.66.14ZM53.83,191.79c-.12,1.57,1.14,2.96,2.63,3.2.12.02.25.03.37.04.82.03,1.64-.27,2.24-.83.62-.57.94-1.34,1-2.17.04-.58.09-1.17.15-1.75.28-2.53.71-5.04,1.3-7.52,0,0,0-.01,0-.02.42-1.7.98-3.37,1.61-5,.54-1.37,1.15-2.71,1.84-4.01.66-1.18,1.37-2.34,2.15-3.44.89-1.19,1.86-2.33,2.87-3.42.02-.02.05-.05.07-.07,0,0,0,0,0,0,0,0,0,0,0,0,0,0,0,0,0-.01,0,0,0,0,0,0h0s0,0,0,0c0,0,0,0,0,0,0,0,0,0,0,0,.91-.94,1.88-1.84,2.89-2.68.77-.61,1.57-1.18,2.4-1.71.56-.34,1.14-.64,1.73-.92.91-.4,1.85-.74,2.8-1.04.49-.14.98-.26,1.48-.36.65-.09,1.3-.16,1.96-.19.75-.01,1.5.01,2.25.08.37.05.74.11,1.1.19.52.14,1.03.3,1.53.49.03.01.06.03.1.04.38.16.75.34,1.11.53.36.2.71.42,1.06.65.1.06.19.14.3.2.77.44,1.56.57,2.43.41,1.68-.31,2.7-2.16,2.33-3.76-.21-.91-.87-1.7-1.7-2.11-.21-.14-.42-.28-.64-.41-.54-.32-1.08-.64-1.65-.9-1.93-.91-4.02-1.48-6.15-1.6-2.11-.12-4.27-.02-6.33.49-1.76.44-3.52,1.09-5.15,1.89-3.1,1.53-5.83,3.79-8.22,6.27.02-.02.04-.04.06-.06-.09.1-.18.19-.28.29.06-.06.13-.13.19-.2-1.09,1.16-2.15,2.35-3.12,3.61-1.03,1.34-1.93,2.76-2.76,4.23-1.95,3.47-3.38,7.24-4.34,11.1.01-.06.03-.12.04-.17-.03.14-.07.27-.1.4.02-.08.04-.15.06-.23-.83,3.45-1.37,6.95-1.63,10.49Z"/><path d="M138.14,232.75c-1.09-.4-1.87-.93-2.41-1.5-.19,0-.37,0-.56-.03-1.05-.18-1.99-.99-1.85-2.37,2.43-15.49-4.95-27.11-10.89-40.58-4.61-11.33-7.74-26.12-1.52-37.38.53-.81,1.16-1.8,1.97-2.43,3.28-5.2,17.98-9,22.73-9.77,9.64-1.9,20.85,1.06,25.62,10.3,4.16,8.1.84,17.15.19,25.62-.61,5.56,3.56,10.38,2.77,15.87-4.17,14.35-18.87,1.53-19.5-7.98-.43-2.96-.02-5.95.06-8.92.04-14.6-14.12-15.18-14.64-.09-.65,11.89,9.27,20.75,11.34,32.08,1.49,7.26,2.49,15.86-1.62,22.42-2.07,3.38-6.12,5.87-10.09,5.21-.54-.09-1.07-.24-1.59-.44ZM129.36,149.53c-.5.1-1,.37-1.41.66-.93.66-1.61,1.61-2.17,2.58-1.36,2.33-2.21,5.01-2.53,7.69-.11.92-.23,1.86-.25,2.78-.03.91-.02,1.81,0,2.72.03,1.03.07,2.12.42,3.1.38,1.07,1.35,1.79,2.42,1.97.53.09,1.09.05,1.61-.15.47-.18.87-.46,1.19-.81,1.45-.22,2.61-1.47,2.67-2.98.04-1.27.13-2.53.25-3.79.19-1.69.49-3.37.88-5.03.24-.97.51-1.94.75-2.92,0,.03-.01.06-.02.09.03-.13.07-.27.1-.4-.02.09-.04.17-.06.26.14-.58.26-1.15.33-1.74,0,.07-.01.14-.02.21.01-.14.03-.28.04-.42,0,.07-.02.14-.02.21.04-.48.06-.95-.06-1.44-.18-.75-.58-1.47-1.19-1.95-.48-.37-1-.6-1.55-.69-.44-.07-.9-.06-1.37.03Z"/><path d="M191.77,158.77h0s-.03.06-.05.09c.02-.03.03-.06.05-.09Z"/><path d="M197.08,160.9s.07.04.11.06c-.03,0-.06,0-.1,0,0-.02,0-.03,0-.05Z"/><path d="M190.19,211.67s0,.05-.01.07c-.04.13-.08.26-.11.4,0,0,0,0,0,0-.06.12-.11.25-.16.37-.07.11-.14.23-.2.34-.08.1-.17.21-.25.31,0,0,0,0,0,0-.03.03-.06.06-.09.09.42-.45.7-.99.82-1.57Z"/><path d="M186.67,159.34s-.02.09-.04.13c.01-.04.02-.08.04-.13Z"/><path d="M185.11,161.93c.08.11.16.21.24.32,0,0,0,0,0,0,0,0,0,0,0,0h0s0,0,0,0c.06.12.13.23.2.35.05.12.1.24.15.36,0,0,0,0,0,0,0,0,0,0,0,0,0,0,0,0,0,0,.01.05.02.09.04.14-.13-.41-.34-.8-.62-1.16Z"/><path d="M184.35,220.1c-7.34-5.03-8.6-11.66-7.67-20.03.46-7.36.33-14.74-.4-22.09-.68-7.48-1.73-15.39,1.15-22.55,3.41-10.09,13.3-17.06,23.35-10.69,6.11,3.84,10.8,9.61,14.33,15.84.8,1.76,2.41,3.51,2.66,5.45.18.36.31.7.41,1.03,1.53.74,1.7,2.99,1.42,4.51-.77,3.81-4.3,6.09-7.84,7.03-4.63,1.45-9.63,1.78-13.96,4.08-5.3,2.72-6.23,9.47-3.13,14.23,1.53,3.12,5.62,5.69,8.02,1.94,1.72-3.13,1.36-6.85,2.07-10.25,1.19-4.48,5.87-10.73,11.04-7.88,2.45,1.5,2.66,4.75,1.9,7.26-.83,3.34-1.52,6.71-2.11,10.1-.99,5.6-1.71,11.62-5.26,16.27-4.4,5.78-12.46,9.55-19.68,8.35-2.22-.37-4.36-1.21-6.29-2.61ZM185.12,208.67c-.74.66-1.18,1.6-1.11,2.6.08,1.13.7,1.98,1.56,2.65.71.56,1.62.92,2.46,1.27.74.31,1.5.54,2.29.67.16.03.32.05.48.07.98.11,1.98.04,2.95-.1,1.58-.22,3.14-.73,4.56-1.45,1.52-.77,2.21-2.62,1.45-4.18-.73-1.51-2.65-2.22-4.18-1.45-.24.12-.48.23-.72.34-.38.15-.77.27-1.16.38-.36.09-.73.16-1.1.21-.27.03-.54.04-.81.05-.16,0-.33-.02-.49-.03-.1-.02-.2-.04-.3-.07-.36-.12-.71-.26-1.06-.41-.14-.06-.27-.13-.4-.19,0,0,0,0-.01-.01-.48-.57-1.16-.93-1.88-1.04-.88-.15-1.83.07-2.53.7ZM180.36,165.99c.44.59,1.09.93,1.78,1.04.92.15,1.92-.09,2.63-.69.63-.54,1.02-1.31,1.09-2.13.02-.21.01-.42-.02-.62.02-.28.05-.57.09-.85.18-1.18.45-2.34.77-3.49.01-.04.02-.08.03-.12.24-.82.26-1.64-.12-2.43-.35-.73-.99-1.3-1.75-1.58-.79-.29-1.67-.24-2.43.12-.7.34-1.35.99-1.58,1.75-.38,1.29-.73,2.6-.96,3.93-.11.65-.22,1.3-.27,1.95-.03.38-.06.76-.03,1.14.05.75.32,1.37.77,1.97-.08-.11-.16-.21-.24-.32.08.11.16.21.24.32ZM193.12,154.69c-.73.33-1.19,1.12-1.24,1.9-.03.43.05.86.06,1.3,0,.12-.01.24-.02.37-.01.09-.03.18-.05.26-.02.07-.04.13-.07.2-.03.05-.05.11-.08.16-.4.65-.8,1.29-1.01,2.03-.15.55-.23,1.1-.2,1.68.03.65.19,1.28.42,1.87,0,0,0,.01,0,.02,0,0,0,0,0,0,0,0,0,.02.01.03,0,.01,0,.02.01.03,0,0,0,0,0,0,.26.59.62,1.16,1.06,1.64.27.29.55.58.89.78.18.1.36.2.55.29.43.21.87.39,1.32.54.66.23,1.35.44,2.05.56.01,0,.03,0,.05,0,.08.02.15.03.22.04.26.03.53.06.79.07.26,0,.51-.01.77-.03.23-.03.47-.07.69-.12.2-.05.39-.11.58-.18.18-.07.35-.15.52-.24.1-.06.2-.12.3-.18,0,0,0,0,.01,0,.33-.19.66-.4.94-.66.18-.17.34-.35.51-.53-.03.03-.06.06-.1.09,0,0,0,0,0,0-.02.02-.04.03-.07.05.39-.29.59-.8.42-1.29-.04-.12-.1-.24-.18-.34.05-.09.09-.18.12-.28.23-.64.15-1.29-.03-1.93-.25-.92-.8-1.75-1.49-2.4-.34-.32-.73-.59-1.14-.81-.34-.18-.71-.32-1.07-.47-.16-.07-.32-.15-.47-.23-.06-.04-.12-.08-.18-.12-.04-.03-.08-.07-.11-.1-.04-.04-.08-.09-.12-.14-.04-.06-.09-.13-.13-.2-.17-.32-.3-.67-.45-1.01-.19-.41-.4-.81-.66-1.17-.54-.75-1.35-1.49-2.26-1.64-.38-.06-.77-.03-1.18.15Z"/><path d="M274.32,160.71s.05,0,.07.01c-.02,0-.05,0-.07-.01Z"/><path d="M234.46,169.29c0,.09,0,.18,0,.27-.01.08-.03.17-.04.25,0,0,0,0,0,0,.02-.17.04-.35.04-.52Z"/><path d="M258.78,228.24c-6.16-2.88-2.51-20.67-10.67-14.89-4.02,2.69-7.53,6.53-12.39,7.69-6.78,1.49-14.1-3.14-16.56-9.46-2.58-6.64-2.3-14.09-1.44-21.05,1.5-13.25,3.99-26.59,12.36-37.25,8-10.29,22.5-8.71,29.17,2.15,3.55-2.54,8.74-1.6,11.37,1.83.19.27.36.55.51.83-1.68-.17-3.36-.32-5.06-.35-1.06-.02-2.13.01-3.19.11-.95.09-1.92.19-2.82.51.01,0,.03-.01.04-.01-.02,0-.04.01-.06.02,0,0,.01,0,.02,0-.56.21-1.07.53-1.53.92-.45.38-.87.79-1.24,1.25-.71.9-1.12,1.99-1.37,3.09-.18.76-.27,1.52-.29,2.3-.02.62,0,1.24.04,1.86.09,1.06.3,2.09.65,3.09.35.96.83,1.83,1.44,2.65,1.03,1.38,2.37,2.48,3.75,3.5.82.61,1.67,1.2,2.55,1.73.92.55,1.89,1.08,2.9,1.44.32.11.65.22.97.32-1.75,6.03-2.56,12.32-2.57,18.61,0,5.13.2,10.25.39,15.38.28,4.38.49,15.14-5.71,14.1-.4-.07-.82-.18-1.27-.35ZM238.73,175.99c-2.93,6.18-8.11,20.17-.78,24.71,3.87-1.23,7.72-3.11,11.96-2.93-1.32-6.13,4.91-22.44-.44-25.15-.73-.34-1.52-.58-2.32-.71-3.37-.56-7.08.69-8.41,4.07ZM237.2,154.66c-1.29.8-2.45,1.79-3.42,2.97-1.45,1.76-2.55,3.77-3.52,5.83-.47.99-.91,2-1.3,3.03-.38,1-.75,1.99-.75,3.07,0,1.48,1.26,2.67,2.65,2.91.22.04.43.05.65.04.81-.05,1.59-.42,2.14-1.02.43-.48.67-1.04.76-1.64,0,0,0,0,0,0,0,.02,0,.05-.01.07,0-.04.02-.09.03-.13.28-.89.64-1.77,1.01-2.63.59-1.32,1.24-2.63,1.98-3.88.31-.49.63-.96.98-1.42.24-.29.5-.58.76-.85.22-.2.44-.39.67-.57.26-.18.52-.36.79-.52,1.45-.89,1.82-2.93.91-4.33-.5-.76-1.26-1.22-2.08-1.35-.75-.13-1.56.02-2.25.44Z"/><path d="M328.22,172.73v.13s0-.08,0-.13Z"/><path d="M330.36,178.18c-.34-.14-.68-.29-1.02-.44.38-.6.74-1.24.94-1.92.24-.8.27-1.65.25-2.48-.04-1.25-.1-2.55-.64-3.7-.47-1-1.19-1.85-2.08-2.5-.68-.5-1.44-.9-2.21-1.24-.74-.33-1.53-.56-2.32-.77-.44-.12-.88-.23-1.33-.33-.49-.11-.98-.18-1.47-.28.03,0,.07.01.11.02-.04,0-.08-.02-.12-.02,0,0-.01,0-.02,0,0,0,0,0,0,0,0,0,0,0,0,0-.68-.14-1.36-.31-2.04-.44.19-7.07,3.97-13.7,9.91-17.53,11.71-6.95,26.21-4.01,27.43,11.33.14,5.5-.78,11.66-4.89,15.67-4.39,4.33-10.8,6.71-16.86,5.7-1.23-.21-2.44-.55-3.62-1.04ZM330.62,162.46c.41.07.84.06,1.26-.04,1.17-.27,2.31-.96,3.25-1.7,1.17-.93,2.16-2.01,2.99-3.25.58-.87,1.07-1.83,1.42-2.82.27-.75.48-1.49.5-2.29.04-1.1-.32-2.28-1.12-3.05-.71-.69-1.59-1.13-2.57-1.26-1.01-.14-1.97.08-2.86.54-.9.46-1.73,1.07-2.5,1.72.01,0,.02-.02.03-.03-.04.03-.08.06-.11.09.03-.02.05-.04.08-.06-1.17,1-2.22,2.14-3.12,3.4-.8,1.12-1.53,2.29-2.01,3.59.01-.04.03-.08.04-.12,0,0,0,0,0,0,0,0,0,0,0,0,0,0,0,0,0,0,0,0,0,.01,0,.02-.06.14-.1.25-.13.37,0,0,0,0,0,0h0c-.03.12-.06.24-.09.4-.28,1.68,1.01,3.3,2.66,3.53.17.02.34.03.5.03.47.5,1.1.83,1.78.94Z"/><path d="M287.93,137.79s0-.07,0-.1c0,.04.01.07.02.1,0,0,0,0-.01,0Z"/><path d="M286.26,188.61c0-.06-.01-.12-.02-.18,0,0,0,.02,0,.03,0,0,0,.02,0,.03,0,.01,0,.03,0,.04,0,0,0,0,0,.01h0s0-.01,0-.01c0-.01,0-.03,0-.04v.05s0,0,0,0c0,0,0,0,0,0,0,0,0,0,0,0,0,0,0,0,0,0,0,0,0,0,0,0,0,0,0,0,0,0,0,.02,0,.05,0,.07,0,0,0,0,0,0Z"/><path d="M280.04,189.22s.01.09.02.14c0,.01,0,.02,0,.03,0-.06-.01-.11-.02-.17Z"/><path d="M274.56,229.11c1.84-4,3.56-8.14,4.28-12.51.74-5.16-1.23-10.14-2.16-15.14-1.1-5.7-1.87-11.53-1.57-17.35.09-1.47.28-2.93.55-4.37-1.05-.09-2.1-.17-3.15-.28-.12-.09-.26-.16-.4-.2-1.28-.35-2.58-.66-3.86-1.06-.43-.14-.85-.29-1.26-.48-.75-.36-1.48-.76-2.18-1.21-1.13-.72-2.22-1.51-3.25-2.37.04.03.08.06.11.09-.51-.42-1-.87-1.45-1.36-.27-.3-.53-.62-.77-.95-.19-.27-.37-.56-.53-.85-.16-.32-.3-.65-.43-.98-.13-.37-.24-.75-.33-1.13-.1-.45-.16-.9-.2-1.35-.05-.65-.05-1.31-.03-1.96.02-.32.05-.64.1-.97.08-.45.2-.89.33-1.32.09-.25.18-.5.29-.75.07-.13.14-.26.21-.38.1-.15.21-.3.32-.44.14-.16.28-.31.44-.46.22-.2.44-.39.68-.56.1-.07.21-.14.31-.2.08-.04.15-.07.23-.1.15-.05.31-.09.47-.13.65-.14,1.32-.21,1.99-.27,1.27-.1,2.55-.11,3.82-.04-.05,0-.1,0-.15,0,.41.02.82.04,1.23.07,1.06.07,2.11.16,3.16.28.52.06,1.03.11,1.55.16.51.05,1.03.1,1.54.19.14.03.28.06.42.09.32.07.63,0,.89-.15,1.64.17,3.28.34,4.91.41.42-2.15,0-6.94.92-9.65.32-7.21-1.89-16.31,4.2-21.61,8.11-5.15,20.17-4.6,27.35,1.94,5.38,6.4,2.07,16.42-2.04,23.11.11.4.1.84-.07,1.29-1.77,2.49-4,5.08-4.73,8.15,2.16.51,4.38.8,6.6,1.1.66.09,1.32.18,1.97.27.01.01.03.02.04.03.27.16.56.17.86.12-.05.01-.09.02-.14.03h0s-.1,0-.15,0c0,0,0,0,0,0-.05,0-.1,0-.14-.01.16.01.32.04.47.07.07.01.14.03.22.04.28.04.56.09.84.14.45.08.91.15,1.36.24.5.1.99.22,1.49.33.48.11.97.19,1.46.28.94.19,1.89.44,2.8.75,0,0-.01,0-.02,0,0,0,.02,0,.03.01.04.01.07.02.11.04-.03-.01-.06-.02-.1-.03.4.14.78.3,1.15.49-.02-.01-.04-.02-.06-.03.03.01.05.03.08.04,0,0,.02,0,.02.01,0,0,0,0-.01,0,0,0,.02,0,.02.01.34.17.68.36,1,.57.23.16.45.33.66.51.13.12.26.25.38.39.12.14.23.29.33.44.08.13.16.27.23.41.07.15.13.3.18.46.05.17.09.34.12.51.07.45.1.9.13,1.35.03.49.04.99,0,1.48-.02.19-.04.37-.07.55-.04.17-.09.34-.14.51-.02.04-.03.08-.05.12,0,0,0,0,0-.01,0,.02-.01.03-.02.05,0,.02-.02.03-.03.05,0,0,0,0,0,0-.2.39-.41.76-.65,1.13-.02-.01-.04-.02-.06-.03-.45.8-1.1,1.53-1.95,2.14-4.82,3.83-11.03,4.88-16.9,6.06-7.1,2.2-11.25,9.35-13.09,16.15-2.86,10.99-2.24,23.66-10.58,32.4-3.03,2.76-6.09,7.58-10.65,7.11-5.25-1.86-.93-8.17.51-11.45ZM283.34,184.77c-1.62-.13-3.33,1.17-3.36,2.87,0,.24-.02.47-.02.71,0,.35.06.71.11,1.07.02.23.05.46.09.69.06.48.11.96.16,1.44.09.83.4,1.57,1.02,2.14.44.4,1,.67,1.59.76.23.04.46.05.69.04,1.64-.09,3.12-1.61,2.94-3.3-.06-.58-.13-1.16-.2-1.73,0,0,0,.01,0,.02,0-.02,0-.04,0-.06,0,0,0-.01,0-.02,0,0,0-.01,0-.02,0-.02,0-.03,0-.05,0,.02,0,.03,0,.05,0-.02,0-.04,0-.06,0,0,0,0,0,0h0s0,0,0,0c0,0,0,0,0,0,0,0,0,0,0,0,0-.06-.01-.11-.02-.17-.01-.08-.02-.17-.03-.25,0-.09-.02-.17-.03-.26,0,0,0,0,0,0h0s0-.03,0-.04c0-.01,0-.03,0-.04,0,0,0,0,0,0,0,0,0,0,0,0,0,0,0,0,0,0,0,0,0,0,0,0h0s0,0,0,0c0-.03,0-.05-.01-.08,0,0,0-.02,0-.03,0-.09-.02-.17-.02-.26,0-.01,0-.02,0-.03.01-.84-.18-1.62-.74-2.28-.48-.56-1.15-.93-1.87-1.05-.09-.01-.18-.03-.26-.03ZM264.18,165.76c-.68.45-1.17,1.16-1.34,1.95-.35,1.6.71,3.44,2.39,3.72.84.14,1.65.03,2.38-.44.68-.45,1.17-1.16,1.34-1.95.35-1.6-.71-3.44-2.39-3.72-.84-.14-1.65-.03-2.38.44ZM291.24,134.08c-.69-.05-1.38.12-1.96.5-.47.3-.78.71-1.07,1.18-.14.24-.24.57-.29.84-.26,1.33-.25,2.69-.29,4.04-.04,1.58-.07,3.16-.11,4.73-.07,3.05-.24,6.09-.47,9.13-.13,1.61,1.04,3.07,2.61,3.33.09.01.18.02.26.03,1.7.13,3.23-1.17,3.36-2.87.23-2.91.4-5.83.46-8.76.04-1.51.06-3.02.1-4.53.03-1.21,0-2.45.15-3.66.05-.19.09-.39.1-.6.01-.24.01-.6-.05-.84-.17-.67-.45-1.25-.97-1.73-.44-.4-1-.67-1.59-.76-.09-.01-.18-.03-.27-.03Z"/><path d="M323.45,190.77s.03,0,.04,0c-.03,0-.07,0-.1-.01.02,0,.04,0,.06,0Z"/><path d="M320.6,196.03s-.03-.04-.05-.06c.03.03.05.06.08.09,0,0-.02-.02-.03-.03Z"/><path d="M307.17,226.18c1.21-3.84,2.11-7.79,2.44-11.8.53-6.72-1.22-13.87,1.82-20.19,3.13-6.06,9.07-10.87,15.56-12.86,4.55-1.35,9.5-2.35,14.11-.73,5.79,1.76,8.95,5.71,6.61,11.78-2.97,6.84-11.06,9.66-13.98,16.65-5.51,9.25-6.42,31.92-20.98,29.57-5.64-1.15-7.95-7.47-5.6-12.43ZM319.94,192.51c-.25.41-.45.86-.63,1.31-.36.88-.67,1.77-.96,2.67-.6,1.85-1.02,3.74-1.42,5.65-.16.77.12,1.66.58,2.28.48.65,1.21,1.1,2,1.24.03,0,.06,0,.08.01.8.11,1.63-.1,2.28-.57.7-.51,1.07-1.24,1.25-2.07,0,.02-.01.05-.02.07-.01.06-.03.13-.04.19.01-.06.03-.13.04-.19.41-1.94.89-3.86,1.54-5.74.14-.39.28-.78.45-1.17.17-.15.32-.32.49-.5.55-.6.76-1.54.66-2.32-.1-.81-.51-1.56-1.15-2.07-.65-.52-1.5-.76-2.32-.66-.31.04-.6.12-.86.24-.81.27-1.5.88-1.96,1.63Z"/><path d="M361,194.64s-.03.02-.04.03h0s-.03,0-.05,0c.03-.01.06-.02.09-.04Z"/><path d="M342.99,252.89c-.41-.3-.72-.69-.88-1.16-2.5-.54-2.65-4.04-3.38-6.08-1.19-10.41,10.53-16.8,10.9-27.02,1.24-9.52-2.48-29.95,8-34.3,11.84-5.23,23.09-1.67,20.63,13.13-.33,4.49-2.34,8.49-4.2,12.49-2.52,7.4-5.62,14.56-10.07,21.03,3.32-2.73,5.06-6.78,7.18-10.41,2.81-4.94,6.45-9.35,10.21-13.59,4.2-4.22,6.96-11.23,13.55-11.84,10.95.69,15.11,15.39,9.38,23.62-6.39,10.08-16.47,17.19-25.9,24.24-8.36,6.04-19.14,13.59-29.74,11.82-1.91-.32-3.81-.94-5.69-1.92ZM357.65,189.5c-.67.63-.89,1.44-1.05,2.3-.15.82-.21,1.65-.27,2.48-.06.85-.09,1.69-.07,2.54.03,1.3.16,2.6.23,3.9.13,2.67.13,5.35-.04,8.01-.13,1.58-.38,3.13-.69,4.69-.13.59-.26,1.18-.4,1.76-.4,1.65.5,3.38,2.18,3.85.1.03.2.05.3.07,1.52.25,3.17-.7,3.55-2.25.37-1.5.68-3.02.94-4.54.25-1.51.37-3.04.45-4.57.08-1.69.09-3.38.05-5.07-.04-1.72-.17-3.42-.28-5.14-.05-1.06-.03-2.11.05-3.17.04-.53.1-1.06.19-1.58.2-.57.23-1.19.08-1.78-.21-.82-.73-1.46-1.43-1.92-.32-.21-.68-.34-1.05-.4-.97-.16-2.01.16-2.72.83Z"/><path d="M403.99,244.14c-.04.06-.09.12-.13.18.04-.06.09-.12.13-.18Z"/><path d="M402.69,244.43s.01.03.02.05c0,0,0,.02,0,.02,0-.02-.01-.05-.02-.07Z"/><path d="M431.64,284.83c.3-.57.61-1.13.92-1.69-.27.59-.56,1.17-.86,1.74,0,.01-.02.03-.02.04-.01-.03-.03-.06-.04-.09Z"/><path d="M399.3,337.56s-.09.1-.14.15c-.02.02-.04.04-.06.07.07-.07.13-.14.2-.21Z"/><path d="M380.93,354.2s.01,0,.02,0c-.03.03-.06.05-.09.08.02-.02.05-.05.07-.07Z"/><path d="M358.25,372.8c-16.59-4.78-34.98-17.56-36.39-36.13-.67-12.31,7.21-22.61,13.63-32.39,4.48-6.62,9.19-13.08,14.18-19.32,20.77-24.44,39.54-52.23,66.95-69.68,7.41-4,16.37-8.1,24.76-4.79,11.49,5.41,17.39,18.07,17.6,30.35,1.02,12.32-2.63,24.32-6.03,35.97-.38,1.25-.74,2.51-1.09,3.76-.25.65-.51,1.3-.77,1.95,0,0,0,0,0,0-.01.04-.03.07-.04.1,0,0,0,.02-.01.03,0,0,0,0,0,0,0,0,0,0,0,0,0,0,0,0,0,0,0,0,0,0,0,0h0s0,.01,0,.02c0,0,0,0,0-.01,0,0,0,.01,0,.01h0s0,0,0,0c0,0,0,0,0,0-.01.02-.02.05-.03.07,0,0,0,.02-.01.03,0,0,0,0,0-.02-.31.75-.62,1.49-.94,2.23-.39.86-.79,1.72-1.2,2.58-.05.11-.08.22-.1.34-.12.26-.24.52-.36.77-.12.1-.25.19-.38.26-.03.27-.08.54-.15.83-.42.86-.87,1.72-1.33,2.55-.12.22-.15.46-.1.7-1.14,1.98-2.61,3.94-3.39,5.36-5.9,9.33-18.38,12-26.07,3.22-5-5.03-5.38-12.54-8.72-18.51-7.52-12.53-21.82-10.53-29.79.55-9.98,13.29-20.62,28.2-21.7,45.29-1.53,17.06,16.29,21.1,26.17,9.1,4.24-6,7.53-13.34,14.57-16.59,6.6-3.99,19.03-1.97,14.49,8-2.03,3.91-6.16,6.25-8.18,10.23-3.76,6.41-5.75,13.74-9.87,19.96-7.04,10.02-19.85,15.12-31.91,13.8-.64-.07-1.27-.16-1.9-.26-.64-.11-1.27-.23-1.9-.37ZM338.77,346.01c-.79.19-1.48.68-1.92,1.37-.42.66-.63,1.58-.41,2.36.14.66.49,1.25.86,1.82.38.59.8,1.14,1.24,1.68,1.49,1.81,3.51,3.14,5.54,4.28,4.13,2.31,8.71,4.03,13.42,4.82,3.51.59,7.09.65,10.6.06.82-.14,1.54-.46,2.08-1.11.54-.64.79-1.49.71-2.33-.08-.8-.49-1.56-1.11-2.08-.61-.51-1.52-.84-2.32-.71-1.12.19-2.25.32-3.39.37-1.19.03-2.37-.01-3.55-.12-1.35-.15-2.69-.37-4.02-.67-1.6-.39-3.17-.89-4.71-1.47-1.39-.55-2.73-1.18-4.04-1.88-1.01-.56-2-1.16-2.93-1.82-.3-.23-.59-.47-.87-.72-.23-.23-.45-.47-.66-.71-.3-.38-.58-.76-.84-1.16-.01-.02-.02-.04-.03-.06-.25-.61-.63-1.14-1.22-1.51-.35-.22-.75-.37-1.16-.44-.41-.07-.83-.06-1.24.04ZM380.06,355.6c-.02.07-.04.15-.06.23-.01.05-.02.1-.03.15-.18,1.09.24,2.21,1.08,2.92.43.36.94.58,1.48.67.41.07.84.06,1.25-.03,1.13-.25,1.83-1.17,2.5-2.03,1.05-1.35.94-3.29-.4-4.4-1.28-1.06-3.36-.94-4.4.4-.26.33-.52.67-.81.98.02-.02.03-.04.05-.06-.29.33-.51.71-.64,1.14,0,0,0-.01,0-.02,0,.02,0,.03-.01.05ZM391.47,337.7c-.35.83-.64,1.75-.62,2.66,0,.79.12,1.65.64,2.29.34.42.75.85,1.27,1.05.27.11.55.19.83.24.53.09,1.06.05,1.6-.15.76-.29,1.39-.87,1.73-1.61.26-.56.33-1.21.23-1.83,0-.01.01-.03.01-.04.04-.09.08-.17.12-.26.12-.21.25-.41.39-.6.45-.59.94-1.14,1.45-1.68,1.11-1.15,2.26-2.26,3.49-3.28.25-.2.49-.39.74-.58,1.36-1.02,1.74-2.95.73-4.36-.97-1.36-3-1.75-4.36-.73-1.9,1.43-3.63,3.07-5.26,4.79.09-.1.18-.19.28-.29-1.24,1.31-2.54,2.7-3.26,4.39ZM439.43,265.35c-.75-.07-1.52.24-2.17.56-1.49.74-2.6,2.1-3.58,3.41-1.85,2.47-3.4,5.16-4.93,7.83-.71,1.23-1.39,2.47-2.06,3.72-.56,1.04-1.18,2.08-1.59,3.19-.32.86-.15,1.79.32,2.55-.03.22-.04.43-.05.65-.03,1.13.23,2.35.83,3.33.23.38.47.77.8,1.08.42.4.86.72,1.38.96.4.19.84.36,1.28.43.02,0,.04,0,.06,0,.79.12,1.53.02,2.28-.22,1.65-.53,2.93-1.64,3.95-3,1.64-2.31,2.74-5.01,3.79-7.63.75-1.88,1.47-3.78,2.09-5.71.61-1.9,1.2-3.81,1.39-5.8.12-1.28-.07-2.69-.83-3.76-.38-.54-.86-.95-1.44-1.25-.31-.16-.63-.25-.96-.3-.18-.03-.36-.05-.54-.07ZM425.17,243.23c-2.85,2.75-6.86,4.5-8.25,8.48-1.58,5.18,3.04,10.28,6.99,13.07,5.39-4.78,10.54-10.57,11.02-18.12.17-3.62.87-8.63-2.03-11.28-3.64.86-4.78,5.72-7.73,7.84ZM424.37,218.31c-2.73,1.11-5.22,2.71-7.52,4.53-2.38,1.89-4.63,3.93-6.86,5.99-1.39,1.28-2.75,2.59-4.1,3.9-1.41,1.36-2.74,2.78-4.04,4.24-1.21,1.36-2.35,2.74-3.41,4.22-.44.61-.87,1.24-1.24,1.9-.34.62-.65,1.27-.65,1.99,0,.89.29,1.59.84,2.26.48.51,1.11.84,1.78.95.79.13,1.64-.03,2.33-.53.57-.41.97-.99,1.16-1.63.36-.61.77-1.19,1.18-1.77,1.39-1.88,2.97-3.63,4.56-5.33,1.86-1.92,3.82-3.76,5.79-5.58,1.91-1.76,3.84-3.51,5.85-5.17,1.15-.93,2.34-1.81,3.59-2.61.75-.46,1.52-.88,2.31-1.25.22-.1.44-.19.65-.28,1.58-.64,2.43-2.42,1.81-4.04-.4-1.05-1.38-1.8-2.45-1.98-.52-.09-1.07-.04-1.58.17Z"/><path d="M257.67,232.28c.51,1.7.63,3.59-.04,5.26-.42,1.06-1.17,1.93-2.13,2.55-.99.64-2.25.9-3.42.88-.43,0-.87-.05-1.29-.12-1.52-.25-2.97-.88-4.28-1.68-1.63-.99-3.07-2.26-4.3-3.71-.05-.06-.11-.11-.15-.17-.27-.34-.54-.68-.79-1.04h0c-.05-.07-.1-.14-.15-.21-.05-.07-.09-.13-.13-.19-.02-.03-.04-.07-.06-.1-.16-.24-.31-.48-.45-.73-.04-.06-.08-.12-.11-.18-.06-.09-.1-.18-.14-.27-.65-1.2-1.14-2.49-1.38-3.85-.39-2.22.12-4.81,2.03-6.22,2.73-2.03,6.38-1.15,9.1.41,1.97,1.13,3.71,2.7,5.1,4.48,1.13,1.46,2.07,3.11,2.6,4.89Z"/><path d="M269.17,265.67s.03.02.05.02h0s.07.06.11.09h0s0,0,0,0c0,0,.01.02.02.03,0,0,0,0,0,0-.06-.06-.12-.11-.18-.15Z"/><path d="M255.06,314.97c-11.25-5.68-9.96-20.47-7.68-30.93,3.17-15.09,10.4-31.8,23.46-40.78,8.27-6.36,24.44-1.95,21.86,10.28-1.5,7.25-9.61,12.06-9.45,19.75.49.78.41,1.94-.26,2.64,3.12,5.92-10.22,4.79-13.3,6.45-3.7,1.32-8.12,4.87-6.66,9.26.71,1.67,1.61,3.75,3.56,4.17,4.58-10.7,16.22-7.2,14.76,4.12-1.94,9.29-12.71,17.92-22.4,16.31-1.33-.22-2.63-.64-3.9-1.27ZM282.96,272.9c-.19-.22-.42-.41-.69-.53.26.14.5.32.69.53ZM267.89,267.53c.13.34.42.62.79.72.22.06.44.1.66.14.37.06.75.09,1.13.07.75-.04,1.53-.24,2.11-.73.4-.34.7-.77.94-1.24.43-.86.69-1.8.9-2.74.26-1.14.51-2.31.59-3.48.04-.63.03-1.33-.25-1.9-.35-.7-1.16-1.04-1.89-.7-.26.12-.49.3-.7.5.02-.02.04-.04.06-.05-.04.03-.07.07-.11.1.02-.02.03-.03.05-.05-.21.2-.41.41-.59.63-.8.96-1.48,2.03-2.08,3.12-.43.78-.83,1.57-1.2,2.38-.18.4-.36.81-.53,1.22-.07.18-.14.37-.21.55-.17.31-.2.68-.04,1,.05.1.11.19.18.27,0,0-.02-.02-.02-.03.01.02.03.03.04.04.02.02.04.04.06.06-.01-.01-.02-.03-.04-.04.05.05.1.1.16.13ZM279.66,251.09s.03.03.04.04c.03.05.07.1.1.15.05.1.1.2.15.3.07.17.13.33.18.51.06.21.1.42.14.63.03.22.05.44.06.66,0,.2,0,.4-.02.59,0,.05-.01.11-.02.16-.25,1.69.84,3.32,2.55,3.61,0,0,.01,0,.01,0,1.64.27,3.35-.88,3.6-2.56.04-.28.07-.56.1-.84.15-1.61-.1-3.35-.7-4.85-.38-.97-.89-1.92-1.62-2.67-.39-.4-.83-.8-1.32-1.07-.3-.17-.61-.31-.92-.44-.07-.04-.14-.08-.21-.11-.75-.35-1.62-.39-2.39-.11-.8.29-1.38.87-1.77,1.61-.64,1.2-.26,2.9.8,3.73.34.27.7.44,1.08.6,0,0,0,0,0,0,.06.02.12.05.18.07Z"/><path d="M152.85,242.15h0c-.02-.13-.03-.26-.05-.4,0,0,0,0,0,.02,0-.14,0-.28,0-.43h0c.01-.08.02-.16.03-.24-.05.39-.04.77.03,1.14,0-.03-.02-.07-.03-.1Z"/><path d="M143.34,324.35c-2.31-3.08,4.62-2.98,5.45-10.22.17-1.02.17-2.05.12-3.07-4.08-11.33,12.78-23.08.38-53.96-4.16-9.46.13-19.12,4.36-27.68.56-.98.64-2.21.83-3.37-.06-.15-.09-.32-.08-.52.21-3.69,2.03-6.98,3.02-10.48.8-3.23.68-6.4-.11-9.53.09-.62.64-.93,1.17-.91.54-.42,1.38-.47,1.84.4,5.03,4.63,11.11,12.69,6.37,19.42-3.32,3.25.82,5.79,1.39,9.14,1.12,5.01-2.4,9.52-3,14.35-.61,3.4.48,7.29,3.12,9.58.33.21.49.49.53.78,0,0,.01,0,.01,0,2.49-.11,4.12-2.3,6.32-3.19.24-.1.5-.15.75-.16,2.19-.93,5.26-1.2,6.74-1.33,12.3,1.23,24.66,12.6,23.61,25.52-1.97,18.2-17.45,30.73-34.76,32.14-.1.12-.23.23-.41.31-1.31.61-2.59.89-3.62,1.91-2.25,2.57-3.95,5.44-7.76,5.57-1.52.13-3.1-.13-4.55.46-3.22,1.33-6.53,5.99-10.23,5.38-.49-.08-.99-.26-1.5-.55ZM159.24,290.21c-.96.46-1.5,1.34-1.84,2.31-.65,1.84-1.02,3.78-1.28,5.71-.12.93-.2,1.86-.24,2.79-.04,1.12-.08,2.29.18,3.39.19.8.6,1.5,1.29,1.98.38.26.82.44,1.27.51.36.06.74.06,1.11-.01,1.61-.31,2.88-2.01,2.48-3.66-.03-.12-.05-.23-.07-.35-.03-.34-.03-.68-.03-1.02.02-1.09.11-2.17.26-3.25.17-1.09.38-2.17.67-3.23.08-.26.16-.52.25-.77.5-.87.59-1.98.13-2.94-.46-.94-1.34-1.55-2.31-1.71-.62-.1-1.27-.03-1.86.26ZM177.55,273.71c.78,3.58-.25,7.27-1.45,10.65-.58,2.03-2.24,4.11-1.71,6.28,4.59-.06,13.75-4.57,13.71-9.79-.67-3.72-4.32-6.43-8.03-7.05-.85-.14-1.7-.17-2.53-.08ZM156.16,238.42c-.69-.05-1.38.12-1.96.5-.35.23-.61.51-.87.84-.41.52-.56,1.25-.7,1.89-.08.36-.15.73-.21,1.09-.17.97-.31,1.94-.44,2.91-.27,1.92-.49,3.84-.22,5.77.18,1.32,1.33,2.28,2.59,2.49.35.06.72.06,1.07,0,.8-.15,1.51-.62,1.98-1.29.46-.66.6-1.4.53-2.18,0,0,0,.02,0,.03-.04-.32-.06-.65-.06-.97,0-.02,0-.03,0-.04.03-.85.13-1.69.24-2.53.06-.43.12-.87.18-1.3,0-.05.01-.1.02-.15.05-.28.09-.57.14-.87.09-.53.17-1.06.28-1.59.12-.24.21-.5.25-.77.06-.38.08-.46.07-.85,0,.14,0,.28,0,.43,0-.57-.04-1.13-.31-1.65-.47-.91-1.3-1.56-2.31-1.73-.09-.01-.18-.03-.27-.03Z"/><path d="M214.26,234.36s-.03-.02-.04-.03c.03.02.05.04.08.05-.01,0-.02-.01-.03-.02Z"/><path d="M204.93,306.58c-2.6-.97-.83-4.66-.62-6.65.62-2.76,3.31-4.29,4.4-6.8.91-2.83-.65-5.77-.25-8.67.18-2.78,1.26-5.39,1.77-8.12-.06-.32.01-.61.17-.85.17-1.48.25-2.92.04-4.25-.75-7.92-6.05-14.55-11.46-20.02-3.75-3.27-8.26-6.16-9.97-11.09-2.04-4.65-.27-9.77,3.38-13.02,0,0,0,0,0,0,1.28-1.41,4.03-1.49,5.81-1.3,1.15.19,2.25.57,3.28,1.09,2.26-2.06,4.99-3.61,8.04-3.93,5.78-.28,11.82,1.81,15.76,6.15,3.8,4.13,6.03,10.05,4.62,15.63-.84,4.23-5.93,6.89-9.51,3.98-2.32-1.74-3.57-4.7-6.26-5.99,3.37,10.38,10.23,20.36,9.47,31.63.13.14.23.33.28.58.63,7.2-1.52,14.69-6.64,19.91-1.47,1.7-3.73,2.29-5.38,3.76-2.48,1.91-3.32,8.58-6.86,7.99-.02,0-.05,0-.07-.01ZM197.57,232.23c-1.53-.05-2.78.88-3.45,2.21-.65,1.28-.51,2.68-.14,4.01.26.85.6,1.67,1.06,2.44.25.42.5.83.78,1.22.17.24.35.48.54.71.17.22.34.44.52.65.22.27.45.53.68.79.49.54,1.13.87,1.81.98.91.15,1.88-.09,2.61-.74,1.26-1.14,1.38-3.15.24-4.42-.29-.32-.58-.65-.85-.99-.03-.03-.05-.07-.08-.1-.27-.36-.53-.73-.77-1.11-.13-.24-.26-.47-.37-.72-.02-.04-.03-.08-.05-.12.29-.45.47-.97.49-1.54.06-1.56-1.09-2.96-2.6-3.21-.13-.02-.26-.03-.4-.04ZM215.36,235.38c.59.59,1.15,1.2,1.68,1.85.32.43.63.86.91,1.32.46.72,1.21,1.16,2.02,1.29.8.13,1.66-.03,2.33-.49.69-.47,1.17-1.22,1.31-2.05.14-.82-.07-1.61-.51-2.3-.8-1.26-1.75-2.42-2.78-3.49-.55-.57-1.13-1.11-1.72-1.63-.18-.16-.36-.32-.55-.47-.35-.29-.69-.47-1.09-.63.1.04.21.08.32.12-.28-.12-.5-.2-.8-.25-1.68-.28-3.32.87-3.61,2.55-.2,1.14.28,2.27,1.13,2.96-.02-.01-.04-.03-.06-.04.5.39.97.82,1.42,1.26Z"/><path d="M239.14,248.66s0-.05-.01-.08c.01.06.03.13.04.19-.01-.04-.02-.08-.03-.11Z"/><path d="M239.25,249.03h0s0,0,0,0h0s-.02-.08-.03-.12c.01.05.03.09.05.14,0,0,0-.01-.01-.02Z"/><path d="M222.88,310.46c-.64-.78-.61-1.82-.54-2.77-.03-2.75,1.59-4.95,2.64-7.35.8-4.6.4-9.72,2.89-13.85t0,0c.52-1.92,1.11-3.74,1.49-5.23,1.9-5.89,3.95-11.75,4.93-17.88.82-5.01,1.46-10.11,1.08-15.19.19-2.4-2.14-6.71.58-7.98,1.3-2.85,5.56-2.13,7.91-1.07,6.37,2.86,8.84,10.33,8.71,16.87-.08,7.42-2.81,14.44-5.13,21.38-1.88,4.66-4.51,14.63-9.09,19.72-1.82,3.43-5.02,8.28-7.96,7.84-1.97,1.29-3.6,6.57-6.23,6.13-.4-.07-.83-.27-1.28-.63ZM238.6,260.97c-.1.82.03,1.61.51,2.3.47.69,1.22,1.17,2.05,1.31,0,0,.01,0,.02,0,1.61.27,3.4-.87,3.6-2.56.11-.91.21-1.82.31-2.73.25-2.34.45-4.67.46-7.03,0-1,0-2.01-.07-3.02-.07-1.18-.11-2.44-.94-3.38-1.19-1.35-3.56-1.4-4.7.06-.02.02-.04.05-.05.07-.61.68-.8,1.61-.65,2.48.09.7.12,1.41.15,2.11.06,2.47-.08,4.92-.33,7.37,0-.03,0-.06.01-.1,0,.04,0,.07-.01.11,0,0,0-.01,0-.02,0,0,0,.01,0,.02,0,0,0,0,0,.01,0,.03,0,.05,0,.08,0-.01,0-.03,0-.04,0,.08-.02.16-.02.24,0-.07.01-.13.02-.2-.1.97-.21,1.93-.32,2.9Z"/><path d="M306.35,266.83s.05-.06.08-.09c-.04.05-.08.09-.12.14.01-.02.03-.04.04-.06Z"/><path d="M306.81,357.85c-1.68-2.08-3.87-3.72-5.31-5.98-2.08-2.95-.05-6-2.7-8.4-2.79-3.26-4.74-7.12-6.08-11.21-2.19-4.47-2.95-9.88-2.66-14.72.02-1.84.24-3.72.54-5.59.28-2.93.75-5.84,1.37-8.71.04-.4.07-.79.09-1.18,1.24-6.39-1.95-9.28-7.07-12.22-2.47-1.56-3.5-4.93-1.78-7.42,2.94-3.79,8.64-3.94,12.91-2.71,1.36-9.86,6.72-19.59,15.85-24.16,7.45-4.09,18.59-7.02,24.98.33,5.67,6.8,5.07,16.83.43,24.02-2.05,2.56-2.37,5.79-4.07,8.52-.65,1.12-1.91,1.19-3.08,1.07-1.15-.03-2.29-.2-3.41-.5-.32-.09-.64-.18-.95-.29-.07-.02-.13-.05-.2-.07-.08-.03-.15-.05-.23-.08-.17-.06-.33-.13-.5-.19-.09-.03-.17-.07-.26-.11-.13-.06-.26-.11-.39-.17-.06-.03-.12-.06-.19-.09-.07-.03-.14-.07-.22-.1-.14,0-.3-.05-.46-.12-3.36-1.65-4.88-3.31-5.06-5.42-.3-1.24.09-2.5.7-3.68.3-.77.68-1.59,1.14-2.47,1.39-2.68,3.22-5.1,5.17-7.39.04-.04.08-.07.12-.11-1.97,1.2-3.77,2.68-5.37,4.34-.04.03-.07.06-.11.09-.12.1-.23.19-.34.29-.13.11-.25.23-.37.34,0,0,0,0,0,0-.16.16-.32.31-.48.47h0s0,0,0,0c0,0,0,0-.01.01,0,0-.01,0-.01.01,0,0-.01,0-.02.02-.01.01-.02.02-.03.04-.35.36-.72.72-1.05,1.09-.22.24-.43.49-.62.74-.07.08-.13.17-.2.25,0,0,0,0,0,0,0,0-.01.01-.01.02-.04.05-.08.1-.11.15-.18.25-.36.5-.53.75-.07.1-.14.2-.21.3-.09.13-.17.25-.26.38,0-.02,0-.04-.01-.06-3.36,5.03-.32,11.34,4.04,14.64,2.52,2.29,4.57,7.24.65,9.22-6.09,3.01-16.06-.88-14.86,9.81.29,6.74,1.61,13.38,2.4,20.07.2,1.27.45,2.84.5,4.33,1.63,3.5,4.94,7.88.92,10.42-.54.35-1.46.22-1.59.99-.58,3.06,2.91,7.94,1.83,10.77-.35.47-.84.59-1.33.51-.56-.09-1.12-.46-1.48-.87ZM316.14,258.27c-.96.41-1.88.87-2.74,1.47-1.49,1.03-2.83,2.33-4.11,3.61-.63.64-1.26,1.29-1.84,1.98-.43.51-.8,1.06-1.19,1.6-.31.39-.53.87-.61,1.39-.11.68,0,1.39.33,2,.38.71,1.05,1.29,1.83,1.51.13.04.25.06.38.09.83.14,1.65-.05,2.36-.53.54-.36.84-.91,1.2-1.43.44-.57.92-1.11,1.41-1.64,1.02-1.06,2.1-2.08,3.24-3.03.27-.21.55-.42.84-.61.28-.16.57-.31.86-.45.09-.04.17-.07.26-.11.76-.32,1.38-.85,1.73-1.61.35-.76.38-1.65.09-2.43-.4-1.04-1.38-1.81-2.46-1.99-.52-.09-1.06-.04-1.57.18Z"/><path d="M95.56,158.7c.38,1.6-.65,3.45-2.33,3.76-.87.16-1.66.03-2.43-.41-.1-.06-.2-.13-.3-.2-.35-.22-.7-.44-1.05-.64-.36-.19-.73-.37-1.11-.53-.03-.01-.07-.03-.1-.04-.5-.19-1.01-.36-1.53-.49-.37-.08-.73-.15-1.1-.19-.75-.07-1.5-.09-2.25-.08-.65.03-1.31.1-1.96.19-.5.1-.99.22-1.48.36-.95.31-1.89.65-2.8,1.05-.59.28-1.17.58-1.73.92-.83.53-1.63,1.1-2.4,1.71-1,.83-1.95,1.71-2.86,2.64h0s-.02.03-.03.04h0s0,0,0,0c0,0,0,0,0,0s0,0,0,0,0,0,0,0c-.02.03-.05.05-.07.07h-.01c-1.01,1.1-1.97,2.23-2.86,3.42-.78,1.1-1.49,2.26-2.15,3.44l-.05.1c-.67,1.26-1.26,2.58-1.79,3.91-.63,1.63-1.19,3.3-1.61,5,0,0,0,.01,0,.02-.58,2.48-1.02,4.99-1.3,7.52-.06.58-.11,1.17-.15,1.75-.06.84-.38,1.6-1,2.17-.6.56-1.42.87-2.24.83-.13,0-.25-.02-.37-.04-1.5-.25-2.75-1.63-2.63-3.2.26-3.54.8-7.04,1.63-10.49.96-3.86,2.39-7.63,4.34-11.1.83-1.47,1.74-2.89,2.76-4.23.97-1.26,2.02-2.45,3.12-3.61l-.19.2c.09-.1.18-.19.28-.29-.02.02-.04.04-.06.06,2.39-2.48,5.11-4.74,8.22-6.27,1.63-.8,3.39-1.45,5.15-1.89,2.06-.51,4.22-.62,6.33-.49,2.13.13,4.22.69,6.15,1.6.57.27,1.12.58,1.65.9.22.13.42.28.64.41.84.42,1.49,1.21,1.7,2.11Z" fill="#fff"/><path d="M102.88,309.78c.72.95.75,2.19.31,3.25-.33.8-1.13,1.45-1.94,1.72-.42.14-.8.21-1.23.28-.47.08-.94.12-1.42.16-.4.03-.81.07-1.21.03-.38-.04-.75-.08-1.13-.12-.28-.03-.55-.08-.83-.12s-.55-.1-.82-.15c-1.58-.33-3.1-.82-4.6-1.42-1.74-.7-3.44-1.57-4.99-2.62-1.48-1-2.72-2.3-3.67-3.81-.87-1.38-1.61-2.86-2.1-4.42-.25-.77-.45-1.56-.5-2.37-.04-.64-.02-1.24.05-1.87.03-.27.09-.53.18-.78-.03.13-.07.26-.1.4-.01.13-.03.25-.04.38.09-.83.37-1.56.99-2.14.6-.56,1.42-.86,2.24-.83,1.4.06,2.75,1.17,2.98,2.56.67.1,1.31.42,1.78.96.72.83,1.46,1.63,2.25,2.39.79.73,1.63,1.41,2.49,2.06,1.54,1.12,3.16,2.12,4.82,3.05,0,0,.02.01.03.02,1.14.62,2.31,1.2,3.52,1.69.47.18.95.35,1.41.53.61.25,1.13.67,1.53,1.19Z" fill="#fff"/><path d="M111.8,209.44s0,0,0-.01c0,0,0,0,0,0h0ZM116.07,203.11s0,0,0,0c-.04-.04-.08-.08-.12-.11.04.04.08.08.12.12ZM117.85,206.38c.29,1.25.27,2.54.15,3.8,0,.02,0,.03,0,.05,0,.02,0,.03,0,.05,0,0,0,0,0,0v.02h0c-.06.58-.15,1.14-.26,1.71-.34,1.66-1.89,2.83-3.6,2.54,0,0-.02,0-.03,0-1.64-.29-2.88-1.95-2.54-3.62.09-.45.17-.9.22-1.35.03-.37.05-.73.05-1.1-.01-.18-.03-.35-.05-.53-.02-.07-.03-.14-.05-.21-.02-.04-.03-.09-.05-.13-.02-.03-.03-.06-.05-.1h0s-.1-.1-.15-.15c-.95-1.04-1.11-2.61-.35-3.8.36-.56.9-1.01,1.53-1.24.55-.21,1.1-.23,1.66-.14.11.02.22.04.32.07-.11-.03-.22-.06-.33-.08.6.1,1.13.38,1.55.76-.03-.03-.06-.06-.09-.08,1.07.85,1.76,2.23,2.06,3.55Z" fill="#fff"/><path d="M133.47,152.14c.11.48.1.96.06,1.44-.07.59-.19,1.16-.33,1.74-.01.05-.02.1-.04.14-.24.94-.49,1.88-.73,2.82-.4,1.66-.69,3.33-.89,5.03-.13,1.26-.21,2.53-.25,3.79-.05,1.51-1.22,2.75-2.67,2.97-.31.35-.71.63-1.19.81-.52.2-1.08.24-1.61.15-1.07-.18-2.05-.9-2.43-1.97-.34-.98-.38-2.07-.42-3.1-.03-.91-.03-1.81,0-2.72.03-.93.15-1.87.25-2.78.32-2.67,1.17-5.36,2.53-7.69.57-.97,1.24-1.93,2.17-2.58.41-.29.91-.56,1.41-.66.47-.09.93-.1,1.37-.03.55.09,1.07.32,1.55.69.61.48,1.01,1.2,1.19,1.95Z" fill="#fff"/><path d="M152.85,242.15s.02.07.03.1c-.07-.37-.08-.75-.03-1.14-.01.08-.02.16-.04.24,0,.14,0,.27,0,.41.02.13.03.26.05.39ZM158.73,240.18c.27.52.32,1.08.31,1.65,0,.12-.03.23-.06.42-.05.28-.13.53-.25.77-.12.53-.2,1.06-.29,1.59-.05.29-.09.58-.14.87,0,.05-.01.1-.02.15-.06.43-.12.87-.18,1.3-.11.84-.21,1.68-.24,2.53v.05c0,.33.02.65.06.98.07.76-.08,1.5-.53,2.15-.46.66-1.18,1.13-1.98,1.28-.35.07-.71.07-1.07.01-1.26-.21-2.42-1.17-2.59-2.49-.27-1.94-.05-3.85.22-5.77.14-.97.28-1.95.44-2.91.07-.36.13-.73.21-1.09.14-.64.29-1.37.7-1.89.26-.33.52-.61.87-.84.58-.38,1.27-.55,1.96-.5.09,0,.18.02.27.03,1.01.17,1.83.82,2.31,1.73Z" fill="#fff"/><path d="M163.41,291.66c.46.95.38,2.06-.13,2.94-.09.25-.17.51-.25.78-.29,1.06-.51,2.14-.67,3.23-.15,1.08-.24,2.16-.26,3.25,0,.34,0,.68.03,1.02.02.12.04.23.07.35.4,1.66-.87,3.35-2.48,3.66-.36.07-.74.07-1.1.01-.45-.08-.89-.25-1.27-.51-.68-.48-1.09-1.18-1.29-1.98-.26-1.09-.22-2.27-.18-3.39.03-.94.11-1.87.24-2.8.26-1.93.62-3.87,1.28-5.7.34-.97.88-1.85,1.84-2.31.6-.29,1.25-.36,1.86-.26.97.16,1.86.77,2.32,1.71Z" fill="#fff"/><path d="M185.73,163.09l-.04-.14s0,0,0,0c-.05-.12-.1-.24-.15-.36-.07-.12-.13-.23-.19-.34,0,0,0,0,0,0-.08-.1-.16-.21-.24-.31.27.36.49.75.62,1.16ZM186.61,156.69c.38.79.37,1.61.13,2.43-.01.04-.02.08-.04.12l-.03.11c-.31,1.11-.56,2.24-.74,3.39-.04.28-.07.57-.09.85.03.2.03.41.02.62-.07.82-.46,1.6-1.09,2.13-.7.6-1.71.85-2.63.69-.69-.12-1.34-.46-1.78-1.04h0c-.45-.6-.72-1.22-.77-1.97-.03-.38,0-.76.03-1.14.06-.65.16-1.31.28-1.95.23-1.33.57-2.64.96-3.93.23-.76.88-1.41,1.58-1.75.75-.36,1.64-.41,2.43-.12.76.27,1.4.85,1.75,1.58Z" fill="#fff"/><path d="M190.18,211.75s0-.05.01-.08c-.02.07-.03.14-.05.21-.14.5-.4.96-.77,1.35.03-.03.06-.06.09-.09.08-.1.16-.2.24-.3.07-.11.14-.22.21-.34.06-.13.11-.25.16-.37.03-.09.05-.17.07-.26.02-.05.03-.09.04-.14ZM199.76,210.21c.75,1.56.06,3.41-1.45,4.18-1.42.72-2.98,1.23-4.56,1.45-.98.14-1.97.21-2.95.1-.16-.02-.32-.04-.48-.07-.79-.13-1.55-.36-2.29-.67-.83-.34-1.74-.7-2.46-1.27-.86-.67-1.48-1.52-1.56-2.65-.07-1.01.38-1.94,1.11-2.6.7-.63,1.64-.85,2.53-.7.71.12,1.39.48,1.88,1.04,0,0,0,0,.01.01.13.07.27.13.41.19.35.15.7.29,1.06.41.1.02.2.05.31.07.16.02.32.03.48.04.27,0,.54-.02.81-.05.37-.05.74-.13,1.1-.21.39-.11.78-.24,1.16-.38.24-.11.48-.22.72-.34,1.52-.77,3.44-.06,4.18,1.45Z" fill="#fff"/><path d="M202.21,240.06c1.14,1.26,1.03,3.28-.24,4.42-.73.65-1.7.9-2.61.74-.67-.11-1.32-.44-1.81-.98-.23-.26-.46-.52-.68-.79-.18-.21-.35-.43-.52-.64-.19-.23-.36-.47-.54-.71-.28-.39-.53-.81-.78-1.22-.46-.77-.8-1.59-1.06-2.44-.37-1.33-.51-2.72.14-4.01.67-1.33,1.92-2.25,3.45-2.21.14,0,.27.02.4.04,1.51.25,2.67,1.65,2.61,3.21-.02.57-.2,1.09-.49,1.54.02.04.03.08.05.12.12.24.24.48.37.72.24.38.5.75.77,1.11.03.03.06.07.08.1.28.34.56.67.85.99Z" fill="#fff"/><path d="M214.26,234.36s.02.01.04.02c-.03-.02-.06-.04-.08-.05.02.01.03.02.05.03ZM223.11,235c.44.69.65,1.48.5,2.3-.14.83-.62,1.57-1.31,2.05-.68.46-1.54.62-2.34.49-.81-.14-1.56-.57-2.01-1.29-.29-.45-.59-.89-.92-1.32-.53-.65-1.09-1.26-1.68-1.85-.46-.44-.93-.88-1.42-1.26.02.02.04.03.06.04-.85-.69-1.32-1.82-1.13-2.96.29-1.69,1.93-2.83,3.61-2.55.3.05.52.13.8.25-.11-.04-.21-.08-.32-.12.41.16.75.35,1.09.63.19.15.37.31.55.47.59.52,1.17,1.06,1.72,1.63,1.04,1.07,1.99,2.23,2.79,3.49Z" fill="#fff"/><path d="M234.46,169.55c0-.09,0-.18,0-.27,0,.17-.02.34-.04.51.01-.08.03-.16.04-.24ZM241.53,155.56c.92,1.4.54,3.44-.91,4.33-.27.17-.53.34-.79.52-.23.18-.45.37-.67.57-.26.27-.52.55-.76.85-.35.46-.68.93-.98,1.42-.74,1.25-1.39,2.56-1.98,3.88-.37.86-.73,1.73-1.01,2.63,0,.02-.01.04-.02.06,0,0,0,0,0,0-.09.6-.32,1.16-.76,1.64-.55.6-1.32.98-2.14,1.02-.22.01-.44,0-.65-.04-1.39-.23-2.65-1.43-2.65-2.91,0-1.07.37-2.07.75-3.07.39-1.03.83-2.04,1.3-3.03.97-2.05,2.07-4.07,3.52-5.83.97-1.17,2.12-2.17,3.42-2.97.69-.43,1.5-.57,2.25-.44.82.14,1.58.59,2.08,1.35Z" fill="#fff"/><path d="M266.55,165.32c1.68.28,2.74,2.12,2.39,3.72-.17.8-.66,1.51-1.34,1.95-.72.47-1.54.58-2.38.44-1.68-.28-2.74-2.12-2.39-3.72.18-.8.66-1.5,1.35-1.95.72-.47,1.54-.58,2.38-.44Z" fill="#fff"/><path d="M287.93,137.79s0,0,.01,0c0-.03-.02-.07-.02-.1,0,.03,0,.07,0,.1ZM294.07,136.6c.06.24.06.6.05.84-.01.21-.05.41-.1.6-.15,1.21-.13,2.45-.16,3.66-.04,1.51-.07,3.02-.1,4.53-.07,2.92-.24,5.84-.47,8.76-.13,1.7-1.66,3-3.36,2.87-.09,0-.18-.02-.27-.03-1.57-.26-2.73-1.72-2.61-3.33.24-3.04.4-6.08.47-9.13.04-1.58.07-3.16.11-4.74.04-1.35.03-2.71.29-4.04.05-.27.15-.6.3-.84.28-.47.6-.87,1.07-1.18.58-.38,1.27-.55,1.96-.5.09,0,.18.02.27.03.59.1,1.14.36,1.59.76.52.47.8,1.06.97,1.73Z" fill="#fff"/><path d="M286.56,191.19c.18,1.69-1.3,3.21-2.94,3.3-.23.01-.46,0-.69-.04-.59-.1-1.14-.36-1.59-.76-.62-.57-.94-1.31-1.02-2.14-.05-.48-.1-.96-.16-1.44-.03-.23-.07-.46-.09-.69,0,0,0-.01,0-.02,0-.01,0-.02,0-.03,0,.01,0,.02,0,.03-.05-.35-.1-.7-.11-1.05,0-.24.01-.47.02-.71.03-1.71,1.74-3,3.36-2.87.09,0,.18.02.26.03.72.12,1.39.49,1.87,1.05.56.65.75,1.43.74,2.28v.03c0,.09.01.18.02.26h0s0,.04,0,.06c0,.02,0,.03,0,.04h0s0,0,0,0h0s0,0,0,0c0,0,0,0,0,0h0s0,.03,0,.05c0,0,0,.01,0,.02,0,0,0,.02,0,.02h0s0,0,0,0c.01.09.03.17.03.26.01.08.02.17.03.25,0,.06.02.12.02.17t0,0s0,.02,0,.04c0,.01,0,.02,0,.03,0,0,0,.01,0,.02v.02s0,.04,0,.06c.07.57.14,1.14.2,1.72Z" fill="#fff"/><path d="M239.18,248.77l-.05-.19s0,.05.01.08c.01.04.02.07.03.11ZM239.27,249.05s-.03-.09-.05-.14c.01.04.02.08.03.12h0s0,.02.01.02ZM245.46,249.25c.06,1,.07,2.01.07,3.02,0,2.35-.2,4.69-.45,7.03-.1.91-.2,1.82-.31,2.73-.2,1.69-1.99,2.82-3.6,2.56,0,0-.01,0-.02,0-.82-.14-1.57-.62-2.05-1.31-.48-.69-.6-1.48-.51-2.3.11-.94.22-1.89.32-2.83,0-.02,0-.04,0-.07v-.08s0-.01.01-.02h0s0-.08.01-.11c.24-2.42.37-4.84.32-7.27-.02-.7-.06-1.41-.15-2.11-.15-.87.04-1.79.65-2.48.02-.02.04-.05.05-.07,1.15-1.46,3.51-1.41,4.7-.06.83.94.86,2.19.94,3.38Z" fill="#fff"/><path d="M285.84,249.49c.6,1.5.85,3.24.7,4.85-.03.28-.06.56-.1.84-.24,1.68-1.95,2.83-3.6,2.56,0,0-.01,0-.01,0-1.71-.29-2.8-1.93-2.56-3.61,0-.05.02-.11.02-.16.02-.2.02-.39.02-.59-.01-.22-.03-.44-.06-.66-.04-.21-.09-.42-.14-.63-.05-.17-.11-.34-.18-.51-.05-.1-.1-.2-.15-.3-.04-.05-.07-.1-.1-.15-.02-.02-.03-.03-.04-.04-.06-.03-.11-.05-.17-.07-.38-.15-.74-.32-1.08-.6-1.06-.83-1.44-2.53-.8-3.73.39-.74.97-1.32,1.77-1.61.78-.28,1.64-.24,2.39.11.07.03.14.07.21.11.31.13.62.27.92.44.49.28.93.67,1.32,1.08.73.75,1.24,1.71,1.62,2.67Z" fill="#fff"/><path d="M269.36,265.82s-.01-.02-.02-.03c0,0,0,0,0,0-.04-.03-.08-.06-.11-.09-.02,0-.04-.02-.05-.02.07.04.13.1.18.15,0,0,0,0,0,0ZM274.76,258.37c.29.57.3,1.28.25,1.9-.08,1.17-.33,2.34-.59,3.48-.21.94-.46,1.88-.9,2.74-.24.47-.53.9-.94,1.23-.59.5-1.36.69-2.11.73-.38.02-.75-.01-1.13-.07-.22-.04-.44-.09-.66-.14-.38-.09-.66-.37-.79-.72-.06-.04-.11-.08-.16-.13-.01,0-.02-.02-.03-.03,0,0-.01-.01-.02-.02-.07-.08-.13-.17-.18-.28-.17-.32-.13-.69.04-1,.08-.18.14-.37.22-.55.17-.41.34-.82.53-1.22.37-.81.77-1.6,1.2-2.38.6-1.1,1.28-2.16,2.08-3.12.19-.22.38-.43.59-.63.21-.2.43-.37.7-.5.73-.34,1.54,0,1.89.7Z" fill="#fff"/><path d="M320.63,196.06s-.05-.06-.08-.09c.02.02.04.04.05.06.01,0,.02.02.03.03ZM323.39,190.77s.07.01.1.01c-.01,0-.03,0-.04,0-.02,0-.04,0-.06,0ZM326.24,193.38c.09.79-.12,1.72-.66,2.32-.16.18-.32.35-.49.5-.16.38-.31.78-.44,1.17-.65,1.88-1.13,3.8-1.54,5.74-.19.8-.55,1.49-1.23,1.99-.65.48-1.48.68-2.28.57-.03,0-.06,0-.09-.01-.8-.13-1.52-.58-2-1.23-.45-.62-.73-1.51-.57-2.28.39-1.9.82-3.79,1.42-5.65.29-.9.6-1.8.96-2.67.18-.45.38-.89.63-1.31.46-.76,1.15-1.36,1.96-1.63.27-.12.55-.2.86-.24.83-.1,1.67.15,2.33.66.64.51,1.05,1.26,1.15,2.07Z" fill="#fff"/><path d="M338.92,149.31c.81.78,1.16,1.96,1.12,3.05-.03.8-.24,1.54-.51,2.28-.36.99-.84,1.95-1.42,2.82-.83,1.25-1.82,2.33-2.99,3.26-.93.74-2.08,1.42-3.25,1.7-.42.1-.85.11-1.26.04-.68-.11-1.31-.44-1.78-.94-.16,0-.33,0-.5-.03-1.65-.23-2.94-1.85-2.66-3.53.03-.16.05-.28.09-.4.03-.12.07-.23.13-.37-.01.03-.02.07-.04.1.48-1.29,1.2-2.47,2.01-3.59.9-1.25,1.95-2.39,3.12-3.4.78-.64,1.6-1.26,2.5-1.72.9-.45,1.86-.67,2.86-.54.99.14,1.86.57,2.57,1.26Z" fill="#fff"/><path d="M360.95,194.67s.03-.02.04-.03c-.03.01-.06.03-.09.04.02,0,.03,0,.05,0h0ZM362.85,191c.15.59.12,1.21-.08,1.78-.09.52-.15,1.05-.19,1.58-.07,1.06-.1,2.11-.05,3.17.1,1.71.24,3.42.28,5.14.04,1.69.03,3.38-.05,5.07-.07,1.53-.2,3.06-.45,4.57-.25,1.52-.57,3.04-.94,4.54-.38,1.55-2.02,2.5-3.55,2.24-.1-.02-.2-.04-.3-.07-1.68-.47-2.58-2.19-2.18-3.85.14-.58.28-1.17.4-1.76.31-1.55.56-3.11.69-4.69.18-2.66.18-5.34.05-8.01-.08-1.3-.21-2.6-.24-3.9-.02-.85.02-1.69.07-2.54.06-.83.12-1.66.27-2.48.16-.86.39-1.67,1.05-2.3.71-.67,1.76-.99,2.72-.83.37.06.73.2,1.05.41.7.46,1.22,1.1,1.43,1.92Z" fill="#fff"/><path d="M320.18,260.08c.3.78.27,1.67-.09,2.43-.35.75-.97,1.29-1.73,1.61-.09.04-.17.07-.26.11-.29.14-.58.29-.86.45-.29.19-.57.39-.84.61-1.14.94-2.22,1.97-3.24,3.03-.49.52-.97,1.07-1.41,1.64-.36.52-.66,1.07-1.2,1.43-.72.48-1.53.66-2.37.53-.13-.02-.25-.05-.38-.09-.78-.22-1.45-.81-1.83-1.51-.33-.61-.44-1.32-.33-2,.09-.52.3-.99.61-1.38.01-.01.02-.03.03-.04.04-.05.08-.1.13-.15-.03.03-.06.06-.08.09-.02.02-.03.04-.04.06.37-.53.73-1.06,1.16-1.56.58-.69,1.2-1.34,1.83-1.98,1.28-1.28,2.62-2.59,4.11-3.61.86-.59,1.78-1.06,2.74-1.47.51-.22,1.05-.26,1.57-.18,1.08.18,2.06.94,2.46,1.99Z" fill="#fff"/><path d="M402.71,244.51s0-.02,0-.03c0-.02-.01-.03-.02-.05,0,.03.01.05.02.08ZM428.41,220.12c.62,1.62-.24,3.39-1.81,4.04-.22.09-.44.18-.65.28-.79.37-1.56.79-2.32,1.25-1.25.8-2.43,1.68-3.59,2.6-2.01,1.66-3.94,3.41-5.85,5.17-1.97,1.81-3.93,3.65-5.79,5.58-1.6,1.7-3.18,3.45-4.56,5.33-.42.57-.83,1.15-1.19,1.77-.19.64-.59,1.22-1.16,1.63-.69.5-1.54.66-2.33.53-.67-.11-1.3-.43-1.78-.95-.55-.67-.84-1.37-.84-2.26,0-.72.32-1.38.65-1.99.36-.66.8-1.29,1.24-1.9,1.06-1.47,2.2-2.86,3.41-4.22,1.3-1.46,2.64-2.88,4.04-4.24,1.36-1.31,2.72-2.62,4.1-3.9,2.23-2.06,4.49-4.1,6.86-5.99,2.3-1.83,4.8-3.43,7.52-4.53.51-.21,1.06-.26,1.58-.17,1.08.18,2.05.93,2.45,1.98Z" fill="#fff"/><path d="M431.7,284.88c.3-.57.59-1.15.86-1.74-.31.56-.62,1.12-.92,1.7.01.03.03.06.04.09,0-.02.02-.03.02-.04ZM442.37,266.96c.76,1.07.95,2.48.83,3.76-.19,1.99-.78,3.91-1.38,5.8-.62,1.93-1.33,3.83-2.09,5.71-1.05,2.62-2.15,5.31-3.79,7.63-1.02,1.36-2.3,2.47-3.96,3-.75.24-1.49.33-2.28.22-.02,0-.04,0-.06-.01-.44-.08-.88-.24-1.28-.43-.53-.24-.96-.56-1.38-.96-.33-.31-.57-.7-.8-1.08-.59-.98-.85-2.19-.83-3.33,0-.22.02-.43.05-.65-.47-.75-.64-1.68-.32-2.55.41-1.11,1.04-2.15,1.6-3.19.67-1.25,1.35-2.49,2.06-3.72,1.53-2.67,3.08-5.36,4.93-7.84.98-1.31,2.1-2.67,3.58-3.41.65-.33,1.42-.63,2.17-.56.18.02.36.04.54.07.33.06.65.14.96.3.59.3,1.06.71,1.44,1.25Z" fill="#fff"/><path d="M370.89,358.96c.09.83-.17,1.68-.71,2.33-.54.65-1.26.97-2.08,1.11-3.51.59-7.1.52-10.6-.06-4.71-.79-9.29-2.51-13.42-4.82-2.03-1.14-4.05-2.46-5.54-4.28-.44-.54-.87-1.09-1.25-1.68-.36-.57-.71-1.16-.86-1.82-.22-.77,0-1.7.41-2.36.43-.68,1.13-1.18,1.92-1.37.41-.1.83-.11,1.24-.04.41.07.81.22,1.16.44.59.37.97.89,1.22,1.5.01.02.02.04.04.06.26.4.54.79.84,1.16.21.25.43.48.66.71.28.25.57.49.87.72.94.67,1.93,1.26,2.93,1.82,1.31.7,2.66,1.33,4.05,1.88,1.54.58,3.11,1.08,4.71,1.47,1.33.3,2.66.53,4.02.67,1.18.11,2.37.15,3.55.12,1.14-.05,2.27-.18,3.39-.37.81-.14,1.71.2,2.33.71.62.52,1.03,1.28,1.11,2.08Z" fill="#fff"/><path d="M380.86,354.27s.06-.05.09-.08c0,0-.01,0-.02.01-.02.03-.05.05-.07.07ZM385.88,353.1c1.34,1.12,1.45,3.06.4,4.4-.67.86-1.37,1.78-2.5,2.03-.42.09-.84.1-1.25.04-.54-.09-1.05-.32-1.48-.67-.85-.7-1.26-1.83-1.08-2.92,0-.05.02-.1.03-.15.02-.08.04-.15.06-.23,0-.01,0-.02.01-.03.13-.43.35-.82.64-1.14-.02.02-.04.04-.05.06.29-.31.55-.65.81-.99,1.05-1.34,3.13-1.46,4.4-.4Z" fill="#fff"/><path d="M404.08,329.54c1.01,1.41.63,3.34-.73,4.36-.25.19-.5.38-.74.58-1.23,1.02-2.39,2.13-3.49,3.28-.51.54-1,1.09-1.45,1.68-.14.2-.27.4-.39.6-.04.09-.09.17-.12.26,0,.02-.01.03-.02.04.1.62.03,1.26-.23,1.83-.34.73-.97,1.32-1.73,1.61-.53.2-1.07.24-1.6.15-.28-.05-.56-.13-.83-.24-.52-.21-.93-.63-1.27-1.05-.51-.64-.63-1.5-.64-2.28-.01-.91.27-1.83.62-2.66.67-1.56,1.83-2.87,2.99-4.1.02-.02.03-.03.04-.05,1.62-1.71,3.34-3.33,5.22-4.75,1.36-1.03,3.39-.63,4.36.73Z" fill="#fff"/></svg>