<?xml version="1.0" encoding="UTF-8"?><svg id="a" xmlns="http://www.w3.org/2000/svg" viewBox="0 0 1201.37 519.69"><path d="M1025.05,440.44c-18.49,9.64-37.03,12.95-57.2,6.16-3.83-1.29-13.17-7.21-14.23-7.38-1.94-.3-4,2.7-6.21,3.39-14.08,4.42-34.82,4.81-49.66,3.63-6.87-.55-15.94-4.43-21.54-4.39-10.67.08-24.26,3.09-37.42,2.96-18.65-.19-42.71,1.63-60.32-.07-6.14-.59-16.35-5.54-20.12-5.61-3.4-.06-12.08,3.68-17.3,4.16-13.63,1.25-31.32.58-44.48-2.92-2.73-.72-5.2-3.61-7.23-3.71-3.61-.17-15.34,4.73-21.54,5.26-30.62,2.63-66.48-1.08-97.58-.95-22.12.1-49.29,4.55-70.54,2.18-5.35-.59-15.73-5.51-18.85-5.52s-5.02,3.03-7.6,3.81c-26.09,7.89-48.75,5.85-68.78-13.87-12.2,9.98-28.39,17.62-44.32,18.65-16.49,1.07-31.17-.44-49.09,1.24-12.75,1.19-22.19-4.32-31.35-4.04-14.15.44-26.93,5.66-44.76,4.24-5.6-.44-16.11-4.32-19.88-3.95-2.56.25-9.6,3.73-13.84,4.64-18.86,4.04-34.31,1.3-50.32-9.36-3.77,15.44-4.43,47.49-15.06,59.03-20.55,22.3-63.01,27.5-89.91,15.05C-23.89,480.76,1.45,360.03,21.42,303.05c18.5-52.79,54.78-105.45,118.5-92.64,1.62-5.6,6.26-9.68,8.34-14.93,8.29-20.94,18.79-104.98,19.83-129.75.64-15.24-2.04-12.31-5.66-23.08-6.4-19.05,4.98-39.08,25.11-40.89,25.23-2.28,71.99-3.98,94.71,5.89,8.32,3.61,14.99,11.34,22.97,15.56C321.83,6.13,346.18-1.96,369.94.46c5.88.6,13.65,4.13,18.87,4.14s15.01-3.27,21.81-3.77c13.33-.98,49.46-1.07,60.43,3.49,4.12,1.71,8.27,6.78,10.1,7.27,3.76,1.01,10.75-2.59,15.35-2.52,6.68.11,13.45,3.34,18.8,7.04,5.36-9.6,15.32-13.36,25.93-14.38,39.17-3.78,82.97,1.28,122.27,1.48s94.39-12.86,125.04,21.5l12.91,17.29c19.56-36.98,51.87-47.97,91.65-37.02,2.95.81,6.59,3.96,9.03,3.87s4.17-2.86,6.45-3.55c18.84-5.76,73.18-5.45,94.23-3.64,28.28,2.43,32.03,23.33,36.22,47.19,1.94,11.01,5.04,25.8,1.12,36.3-1.43,3.82-5.73,7.02-6.42,10.85-1.35,7.46,3.05,20.22,2.92,28.71-.31,20.98-11,29.28-30.39,33.21-1.53,7.82,5.29,12.85,8.01,19.26,5.13,12.12,3.59,22.24-3.6,33.08,15.33-1.53,34.2-2.72,49.66-1.48,5.89.47,14.99,4.46,18.49,4.33,3.96-.14,10.61-3.72,15.98-4.27,11.9-1.21,35.33-1.77,47.37-1.51,16.44.37,30.53,12.8,31.07,29.53.28,8.77-4.01,17.86-4.26,26.06-.12,4.18.88,13.78,1.3,18.52,6.02,67.22,24.21,136.98,31.09,204.54-1.86,31.49-34.51,31.62-58.96,29.04-8.08-.85-19.2-8.05-20.31-8.05-1,0-12.32,6.14-18.7,6.77-12.44,1.23-55.92,1.45-65.9-3.08-9.62-4.37-17.99-18.63-17.72-29.04.12-4.35,5.27-15.12,5.27-16.05v-25.17ZM168.1,220.36h45.29c.53,0,2.19-1.87,3.6-1.45-9.19-26.14.27-55.04,3.07-81.77,13.69-2.22,26.81-1.76,40.04-6.69,28.85-10.75,42.93-49.75,29.8-77.25-17.94-37.56-67.86-19.2-100.23-24.14.93,6.72,6.09,10.96,7.06,18.1,3.01,22.19-6.56,73.08-10.36,97.27-2.65,16.88-5.47,41.89-10.06,57.54-2.2,7.5-7.66,11.15-8.21,18.4ZM350.36,29.43c-56,8.09-77.22,137.61-20.32,160.54,90.35,36.4,122.65-175.32,20.32-160.54ZM458.54,29.06h-52.48l-2.04,3.44c6.95,8.69,11.44,18.05,14.44,28.74,11.62,41.38,15.7,87.12,28.52,128.26l21.48.51,22.43-73.23,17.22,71.97c1.7,2.27,19.41,2.28,21.64,0,2.46-2.51,8.78-27.3,10.33-32.81,8.99-31.88,14.98-65.05,25.91-96.34,3.14-8.98,6.06-19.72,13.3-26.23.43,4.31,3.82,6.23,4.4,10.72,3.52,27.45-1.82,63.69,1.43,92.19-2.82,13.81.08,26.63-4.3,40.29-1.52,4.75-5.09,8.68-5.83,13.59h86.27l8.63-50.33c-6.9,1.57-8.9,7.64-15.35,11.24-8.31,4.64-24.84,7.21-34.33,6.08-2.09-.25-3.69-.17-4.96-2.23v-37.4c3.76-3.22,14.35-2.84,19.32-2.07,6.45,1.01,10.58,7.1,16.63,8.54v-38.84l-2.13.02c-1.73.43-5.42,4.29-5.78,4.29h-25.88l-2.16-2.16v-27.33l2.16-2.16h24.44c.69,0,10.49,5.53,12.13,6.56,3.46,2.17,5.02,7.39,10.15,6.38-3.35-12.92,1.3-29.03-6.46-40.27h-118.62c13.66,29.6-10.27,59.87-14.39,89.18l-30.16-81.98c-10.14,22.33-14.3,47.02-23,69.79-1.69,4.43-3.31,11.1-7.2,13.64-1.26-22.9-20.64-58.84-12.22-80.53.87-2.24,7.64-10.49,6.45-11.52ZM857.91,29.43c-62.59,9.16-53.63,168.84,19.71,165.04,80.08-4.15,60.66-176.8-19.71-165.04ZM743.95,30.5c-22.23-2.76-49.79,2.06-72.61,0,1.92,7.8,7.6,11.65,8.63,20.85,3.58,31.87-1.07,68.61,2.59,100.7-1.78,7.43-.62,14.21-2.38,21.79-1.47,6.35-5.4,10.49-7.4,16.32,1.83,2.06,40.08,1.85,45.59,1.06,7.15-1.01-.2-9.78-1.46-14.29-3.85-13.83-2.2-27.96-2.37-42.2-.05-4.04-3.97-9.78,2.07-10.75l32.37,66.18h40.26l-38.88-69.86.25-1.85c40.01-13.85,35.49-82.72-6.67-87.96ZM1004.2,30.5h-82.67c.82,5.38,5.22,8.69,6.81,14.04,6.79,22.81,19.75,115.09,14.36,135.87-1.31,5.05-8.12,10.58,1.11,11.32,2.7.22,5.3-1.1,7.44-1.04,9.87.31,24.9,2.52,34.27.91,1.68-.29,2.56-.79,3.56-2.17-15.8-18.98-13.05-47.82-15.79-71.21,12.75-1.03,24.57,1.92,34.5,10.08.35-5.31-2.58-39.97-6.45-40.24-9.77,7.52-20.65,6.14-31.79,2.99l-4.89-30.36c9.8,1.23,21.22-2.31,30.55.39,7.48,2.17,11.6,8.37,18.34,11.11-.65-6.14-4.63-40.29-9.34-41.71ZM273.01,157.12l-28.63,5.78c-.3,15.93-6.59,32.89-.15,48.24,13.82-2.92,28.38-2.8,42.55-2.33,5.71.19,13.15,4.23,17.88-.66-16.54-12.02-28.77-30.56-31.65-51.02ZM392.41,210.28c7.46,1.5,14.33-1.15,22.18,1.55,5.9,2.03,8.59,9.49,15.19,2.04.34-1.44-8.11-8.12-9.67-11.88-1.89-4.56-2.1-11.21-3.28-16.15-7.08,9.9-15.4,16.54-24.43,24.43ZM830.94,208.84c-1.87-1.61-12.97-13-14.37-11.49l-2.88,11.5h17.25ZM961.4,233.65c-28.41,4.8-31.99,55.5-31.24,78.04,1.18,35.56,16.8,117.68,66.5,109.71,49.52-7.95,31.08-107.64,19.81-139.95-8.72-24.99-24.33-52.99-55.07-47.79ZM209.45,235.13c-25.91,3.74-40.94,46.35-46.69,68.35-8.15,31.18-25.58,125.87,30.38,118.13,45.37-6.27,57.54-115.22,52.59-150.17-2.99-21.1-11.57-39.88-36.28-36.31ZM450.97,235.08c-18.8,3.84-31.18,37.67-35.14,54.03-6.93,28.67-16.79,122.98,26.14,128.35,61.13,7.64,63.7-109.72,53.25-148.2-6.1-22.45-18.3-39.48-44.25-34.18ZM153.72,239.07c-10.49,4.99-19.23-2.5-29.7-2.78-12.7-.33-26.34,4.55-36.31,12.24-43.29,33.37-70.36,155.76-55.19,206.01,11.57,38.33,50.44,48.3,81.6,24.67l15.17-68.96c-2.71-.59-3.49,1.34-4.92,2.98-4.78,5.47-8.59,14.28-14.28,19.52-14.84,13.64-34.57,9.84-36.88-11.71-3.2-29.83,10.46-101.32,27.57-126.35,6.27-9.18,19.13-19.24,29.33-9.68,7.94,7.45,5.9,20.49,10.35,28.46.91,1.63-.08,2.44,3.2,1.84l10.07-76.23ZM403.91,239.06c-8.6,3.28-15.4-2.13-23.96-2.32-33.63-.78-46.09,41.5-38.61,68.52,5.86,21.16,33.16,39.82,31.71,61.89-1.05,16-18.43,21.24-28.88,10.08-4.27-4.56-4.54-10.81-7.47-15.49-.93-1.49.08-2.51-3.23-1.84l-7.1,55.3,3.13,1.96c8.26-3.31,16.73.22,24.76.37,38.65.7,52.36-41.55,48.09-74.04-3.48-26.48-36.33-35.42-31.43-66.21.87-5.43,4.99-9.75,10.66-9.54,12.38.45,14.1,17.61,19.09,25.61.94,1.5-.09,2.5,3.24,1.84v-56.1ZM1173.14,486.47l-31.61-206.43c.87-9.41-1.32-21.02.07-30.1.48-3.14,4.61-9.52,4.13-11.49-1.09-4.47-10.11-.88-13.51-.77-12.69.41-25.48-.44-38.16-.05,14.3,18.65,17.68,41.45,21.37,64.19,3.17,19.56,4.99,39.81,6.66,59.51l-60.39-123.72h-45.29c.78,5.58,5.6,9.42,7.9,14.39,11.65,25.16,19.59,102.22,23.52,133.25,3.09,24.38,8.64,57.69,5.8,81.63-.63,5.33-2.83,10.17-5.4,14.79l1.96,3.35h52.48c-5.84-11.17-12.69-21.63-15.39-34.23l-14.09-100.97,69.02,136.64h30.91ZM287.44,237.63h-33.07c7.5,15.44,4.39,36.86,2.69,53.76-2.59,25.86-10.49,91.24-19.25,113.08-2.2,5.48-5.8,9.22-7.89,14.4h35.23c4.39,0-.47-16.18-.7-19.44-1.72-25.25,5.68-54.82,9.32-79.82l20.1,97.86c1.89,2.51,22.22,1.89,23.56-.24,2.43-44.84,5.27-91.1,11.91-135.52,1.39-9.31,2.67-22.99,5.92-31.48,1.85-4.85,5.76-7.74,6.82-12.6h-33.79c-3.46,2.5,1.37,6.12,2.03,10.92,3.09,22.66-5.22,51-6.34,73.97l-16.53-84.88ZM544.81,237.63h-40.26c6.14,17.55,6.23,36.86,5.81,55.44-.45,19.96-3.26,40.34-4.43,60.29-.96,16.29,1.7,32.12-3.51,48.27-1.57,4.87-5.27,7.93-5.05,12.92l68.94-1.51c1.48-17.13,6.14-34.61,5.11-51.7-7.18,13.29-19.72,17.89-34.37,18.8-1.17-.3-1.66-4.25-1.88-5.51-3.19-18.66.09-101.5,4.29-120.05,1.33-5.89,4.78-10.99,5.35-16.94ZM619.58,237.63h-43.13c2.59,7.86,6.08,15.52,7.01,23.91,1.59,14.28.27,28.89.12,42.92-.28,26.71,1.17,60.43-1.39,86.35-.84,8.55-4.94,14.51-7.18,22.31h44.57c-8.23-16.39-8.75-34.36-8.61-52.49.15-19.92,1.67-40.29,1.49-60.5-.16-17.46-3.72-33.36,1.78-51.3,1.38-4.48,4.44-6.94,5.34-11.2ZM623.89,413.11h48.17c7.12,0,25.62-15.63,29.76-22.01,19.46-30.02,21.59-124.51-10.44-146.91-1.73-1.21-12.42-6.56-13.57-6.56h-52.48c2.37,7.7,5.15,13.94,5.8,22.24,3.11,39.47-1.73,83.72-1.55,123.81.01,3.07,1.52,5.88,1.52,8.59-.02,7.44-6.51,13.59-7.2,20.84ZM779.18,237.63h-44.57c.08,5.2,2.98,9.87,2.99,15.11.05,30.95-12.57,107.68-22.45,137.31-1.69,5.06-8.66,17.07-9.06,19.81-.27,1.81.43,4.7,1.92,4.7h36.66c-5.83-11.85-7.64-22.82-4.31-35.96h30.91c2.47,2.61,3.27,8.51,3.56,12.25.69,8.92-3.61,18.25.75,25.15h35.95l2.04-3.44c-10.1-12.26-12.88-28.68-16.73-43.72-7.1-27.79-23.89-98.89-20.46-124.65.35-2.64,1.78-4.3,2.8-6.55ZM865.45,237.63h-71.17c-2.06,1.26-1.98,2.87-2.23,4.96-1.47,12.39,3.61,28.03,1.52,41.07,9.11-6.29,10.67-17.42,24.41-14.37,3.84,25.96,2.85,52.24,4.34,78.36.85,14.86,5.43,32.63,4.12,47.31-.3,3.39-5.19,19.96-4.12,21.02,13.61-1.68,27.27,2.21,40.97-.03,1.69-.28,2.75.87,2.18-2.14-.51-2.71-5.72-7.96-7.29-12.85-1.25-3.87-2.07-9.12-2.61-13.21-4.97-37.36-3.83-76.06-8.85-113.43l1.66-6.31c6.7-1.53,10.84,2.45,14.93,6.99,1.36,1.51,7.25,12.31,9.32,10.08l-7.18-47.46ZM918.65,237.63h-43.13c1.82,6.38,6.03,10.49,7.93,17.24,5.97,21.15,4.6,50.43,6.46,72.65,1.38,16.46,4.94,34.07,5.8,50.3.67,12.62,1.05,25.81-4.29,37.35.9,3.72,17.89,2.15,22.18,2.28,7.02.2,15.51,3.44,22.27-2.17-5.72-6.34-8.05-15.19-9.67-23.38-6.32-31.94-10.7-79.04-11.93-111.77-.53-14.17-1.47-29.37,4.37-42.49ZM126.09,338.61c-.34-.58-10.45-8.17-11.18-7.49-6.35,20.16-10.28,40.86-12.94,61.85,7.27-6.75,14.14-11.15,24.44-11.52-5.44-8.23,2.92-37.29-.32-42.84Z"/><path d="M458.54,29.06c1.19,1.03-5.58,9.29-6.45,11.52-8.42,21.7,10.96,57.63,12.22,80.53,3.89-2.54,5.51-9.21,7.2-13.64,8.7-22.77,12.86-47.46,23-69.79l30.16,81.98c4.13-29.31,28.06-59.58,14.39-89.18h118.62c7.76,11.23,3.12,27.35,6.46,40.27-5.13,1.01-6.69-4.2-10.15-6.38-1.64-1.03-11.44-6.56-12.13-6.56h-24.44l-2.16,2.16v27.33l2.16,2.16h25.88c.36,0,4.05-3.87,5.78-4.29l2.13-.02v38.84c-6.05-1.44-10.18-7.53-16.63-8.54-4.97-.78-15.56-1.15-19.32,2.07v37.4c1.26,2.06,2.87,1.98,4.96,2.23,9.49,1.13,26.01-1.44,34.33-6.08,6.45-3.6,8.45-9.67,15.35-11.24l-8.63,50.33h-86.27c.73-4.91,4.31-8.84,5.83-13.59,4.37-13.66,1.48-26.48,4.3-40.29-3.25-28.49,2.09-64.73-1.43-92.19-.58-4.49-3.97-6.41-4.4-10.72-7.24,6.51-10.17,17.25-13.3,26.23-10.93,31.29-16.92,64.46-25.91,96.34-1.55,5.51-7.88,30.31-10.33,32.81-2.23,2.27-19.95,2.26-21.64,0l-17.22-71.97-22.43,73.23-21.48-.51c-12.81-41.13-16.89-86.87-28.52-128.26-3-10.7-7.49-20.05-14.44-28.74l2.04-3.44h52.48ZM434.09,49.22l-7.17-2.9.96,4.33,5.49,1.44.73-2.87ZM495.92,79.41h-4.3s0,2.85,0,2.85l4.3,1.46v-4.31Z" fill="#fff"/><path d="M1173.14,486.47h-30.91l-69.02-136.64,14.09,100.97c2.7,12.6,9.54,23.06,15.39,34.23h-52.48l-1.96-3.35c2.56-4.62,4.76-9.46,5.4-14.79,2.85-23.94-2.7-57.24-5.8-81.63-3.94-31.04-11.87-108.1-23.52-133.25-2.3-4.97-7.13-8.81-7.9-14.39h45.29l60.39,123.72c-1.68-19.71-3.49-39.96-6.66-59.51-3.69-22.74-7.08-45.54-21.37-64.19,12.68-.39,25.48.46,38.16.05,3.4-.11,12.42-3.7,13.51.77.48,1.97-3.65,8.35-4.13,11.49-1.4,9.08.8,20.68-.07,30.1l31.61,206.43ZM1102.68,346.95l-3.65,1.42.8,5.76h1.4s1.45-7.18,1.45-7.18ZM1111.31,358.46l-4.11.2-1.64,4.09,5.75,1.45v-5.74ZM1150.15,395.85l-.7-2.85-4.85,1.61-.21,9.87-5.1-4.16-6.23,1.47-.15,5.58c-7.55-1.78-5.54,6.67-13.78,8.62l.85,5.75c4.22-.75,5.46-4.51,10.04-1.43-4.28-11.54,10.73-14.86,20.14-14.4l-4.32-10.04,4.33-.02ZM1127.13,401.63c-3.92-1.28-8.55-3.08-8.61,2.85,2.97-.66,9.79,2.27,8.61-2.85ZM1145.82,454.83c-1.23-1.68-9.87,0-8.61,4.31,2.83-.85,4.61-1.3,6.46,1.41,1.84-.9,3.04-4.5,2.15-5.72ZM1158.32,471.07c-1.47-1.77-8.28-6.86-11.06-6.16l5.73,6.49-4.17,2.27-.12,4.17h11.49c.17-2.39-.3-4.87-1.87-6.76ZM1073.92,476.39c.7-.67-3.26-10.62-6.44-10.05-4.32.77,2.05,12.69,6.44,10.05Z" fill="#fff"/><path d="M153.72,239.07l-10.07,76.23c-3.28.6-2.29-.21-3.2-1.84-4.45-7.96-2.41-21.01-10.35-28.46-10.2-9.56-23.06.49-29.33,9.68-17.1,25.03-30.77,96.52-27.57,126.35,2.31,21.55,22.04,25.35,36.88,11.71,5.69-5.23,9.5-14.04,14.28-19.52,1.43-1.63,2.21-3.56,4.92-2.98l-15.17,68.96c-31.16,23.63-70.03,13.66-81.6-24.67-15.17-50.25,11.9-172.64,55.19-206.01,9.98-7.69,23.61-12.58,36.31-12.24,10.47.28,19.21,7.77,29.7,2.78ZM78.96,273.58v7.21s2.88,0,2.88,0v-7.21s-2.88,0-2.88,0ZM81.85,296.6l2.8-2.24v-2.72s-2.11-2.22-2.11-2.22h-2.13s1.45,7.18,1.45,7.18ZM67.45,334.01h-2.13s-2,2.34-2,2.34l1.28,4.84h2.85s0-7.18,0-7.18ZM61.7,342.64c-2.62-.47-4.76,1.58-4.3,4.3h4.3s0-4.3,0-4.3ZM53.08,349.83h-7.19c.03,3.03,1.16,6.41-2.86,5.77v1.4c7.64,1.1,4.19,11.17,7.06,15.24,2.16,3.06,12.02,5.07,14.48,10.67-.71-3.62,1.79-10.15.06-13.28-1.74-3.16-6.97-.7-5.81-5.41l5.76-.02c-2.07-4.64,2.89-6.24,2.95-6.64.54-3.6-2.9-9.07-7.26-7.72,3.32,7.9-2.11,9.1-7.96,4.37l.78-4.38ZM50.23,390.08c6.69-3.95.21-5.73-4.33-5.73l4.33,5.73ZM58.8,401.63l-2.84,2.11,7.16,3.62-4.32-5.72ZM57.06,412.02l-2.19,2.19,5.74,5.74,2.19-2.19-5.74-5.74ZM64.57,430.36c.61-3.46-3.24-4.49-5.73-5.75-.67,4.49,1.38,6.4,5.73,5.75ZM66,441.88c.19-6.99-8.17-3.27-7.17,2.87l4.23-3.55,2.94.68ZM57.39,439.02h-7.18s0,2.12,0,2.12l3.58,3.59,3.59-5.71ZM81.83,449.08h-2.86v4.3h2.86v-4.3ZM99.54,451.4c-.9-.63.24-3.66-1.91-1.63-3.63,5.94-5.03,12.94-5.79,19.86,2.89,4.11,9.36,2.15,10.83,6.77,4.71-3.45,1.4-8.9,2.73-12.97s6.82-7.7,5.17-14.35c-4.35,2.64-5.94,5.89-11.03,2.33ZM84.7,462.02c-4.39-.2-9.71,1.85-8.59,7.15l4.27,1.47-1.42-5.74,5.74-2.88ZM73.76,470.1c-.6-.6-.64-1.5-.58-2.31l-2.82,2.14,3.57,3.57,2.14-2.82c-.81.06-1.71.02-2.31-.58ZM90.95,476.14c-.53-1.35,2.35-5.95-3.29-5.44l-5.83,10h11.5c.53-3.3-2.27-4.29-2.38-4.56Z" fill="#fff"/><path d="M743.95,30.5c42.15,5.24,46.67,74.11,6.67,87.96l-.25,1.85,38.88,69.86h-40.26l-32.37-66.18c-6.05.96-2.12,6.7-2.07,10.75.17,14.24-1.48,28.38,2.37,42.2,1.26,4.51,8.61,13.27,1.46,14.29-5.52.78-43.76.99-45.59-1.06,2-5.83,5.93-9.97,7.4-16.32,1.76-7.58.6-14.36,2.38-21.79-3.66-32.09.99-68.82-2.59-100.7-1.03-9.2-6.71-13.05-8.63-20.85,22.82,2.06,50.38-2.76,72.61,0ZM725.97,47.75c.17-2.69.41-6.32-2.85-7.18-1.3,3.99-2.44,7.17,2.85,7.18ZM735.32,59.26h-22.29v38.12c0,4.53,6.86,5.13,10.37,4.73,22.64-2.62,28.63-28.83,11.92-42.84ZM698.65,72.21c.58-4.25-4.41-4.3-7.16-5.76l-1.45,5.75h8.61ZM764.81,76.54l.71-8.63c-3.11,6.26-10.02,7.77-12.23,14.36l14.39-2.87-.02-4.32-2.85,1.46ZM750.41,98.1l-4.06,3.8,3.36,6.24.7-10.04ZM737.47,109.61h-2.86v4.3h2.86v-4.3ZM744.68,125.45c-5.16.86-5.23-3.71-8.63-5.77l-4.33,12.93,11.33-1.58,1.62-5.58ZM748.97,136.94c-3.46-.52-5.17,3.5-5.67,6.37,2.79,2.37,6.03,3.54,5.67,8l-9.34-8.59c-6.99,4.86,7.19,8.69,8.67,11.44,2.97,5.53-2.2,8.88-2.18,9.4.03.79,8.79,7.1,6.75,13.29l5.39,6.08c9.7-4.71,3.19-6.29,1.11-11.07-3.88-8.9-4.25-17.95-6.08-26.73-.12-.56-6.05-3.86-4.33-8.18Z" fill="#fff"/><path d="M350.36,29.43c102.33-14.78,70.04,196.94-20.32,160.54-56.9-22.92-35.69-152.45,20.32-160.54ZM353.16,56.7c-3.94.91-7.82,5.39-10,8.69-12.45,18.87-18.52,67.52-7.63,87.45,5.75,10.51,18.36,13.44,28.02,6.32,8.98-6.62,13.9-25.64,15.51-36.27,2.79-18.39,5.39-73.38-25.91-66.18ZM320.5,96.65c.46-2.72-1.68-4.78-4.31-4.29l1.45,4.3h2.85Z" fill="#fff"/><path d="M168.1,220.36c.55-7.25,6.01-10.89,8.21-18.4,4.59-15.65,7.41-40.66,10.06-57.54,3.8-24.19,13.37-75.07,10.36-97.27-.97-7.13-6.12-11.38-7.06-18.1,32.37,4.94,82.29-13.42,100.23,24.14,13.13,27.5-.95,66.49-29.8,77.25-13.23,4.93-26.36,4.47-40.04,6.69-2.8,26.74-12.25,55.63-3.07,81.77-1.41-.42-3.07,1.45-3.6,1.45h-45.29ZM228.5,41.99c4.14,1.93,7.58.46,3.6-2.82l-3.6,1.42v1.4ZM267.31,47.77c-3.04.8-11.25-2.48-10.06,2.85l10.06-2.85ZM219.86,50.64c-2.68-.37-4.97,0-5.74,2.85h5.74s0-2.85,0-2.85ZM211.22,63.58l.8-5.77-3.65-1.42v7.18s2.86.01,2.86.01ZM229.94,57.84l-7.09,50.84c1.61,5.17,18.01,1.73,22.43-.26,15.81-7.14,22.87-38.95,6.1-48.32-6.53-3.65-14.33-1.96-21.44-2.26ZM273.06,99.55h-2.86s1.45,5.74,1.45,5.74h1.41s0-5.74,0-5.74ZM215.54,118.23c-.02-5.27-4.28-5.27-4.3,0h4.3Z" fill="#fff"/><path d="M961.4,233.65c30.74-5.2,46.35,22.81,55.07,47.79,11.27,32.31,29.71,132-19.81,139.95-49.7,7.98-65.32-74.14-66.5-109.71-.75-22.53,2.83-73.23,31.24-78.04ZM968.56,265.24c-3.19.96-5.9,5.92-6.86,8.98-6.72,21.43.16,86.27,12.75,105.37,6.25,9.48,16.48,14.13,22.41,1.72,7.82-16.38,1.01-57.59-2.98-75.82-2.33-10.64-9.68-44.94-25.31-40.25ZM950.28,315.31l-7.18.7,3.59,2.24,3.59-2.94ZM1017.85,367.09h-5.74s2.89,3.57,2.89,3.57c-2.01,2.81-1.91,5.51-5.75,3.62l7.9,11.5c2.35-3.19-2.72-5.94-2.24-9.26.12-.81,2.53-.6,2.86-1.72s-.98-5.69.09-7.71Z" fill="#fff"/><path d="M287.44,237.63l16.53,84.88c1.12-22.96,9.44-51.31,6.34-73.97-.65-4.8-5.49-8.42-2.03-10.92h33.79c-1.06,4.85-4.97,7.75-6.82,12.6-3.24,8.49-4.53,22.17-5.92,31.48-6.64,44.42-9.48,90.68-11.91,135.52-1.33,2.13-21.66,2.75-23.56.24l-20.1-97.86c-3.64,25.01-11.04,54.57-9.32,79.82.22,3.26,5.08,19.44.7,19.44h-35.23c2.08-5.19,5.69-8.93,7.89-14.4,8.76-21.83,16.66-87.22,19.25-113.08,1.69-16.9,4.81-38.31-2.69-53.76h33.07ZM277.37,295.17l-3.59-1.42-2.14,2.15v2.13s5.73,0,5.73,0v-2.86Z" fill="#fff"/><path d="M857.91,29.43c80.38-11.76,99.8,160.88,19.71,165.04-73.34,3.8-82.31-155.87-19.71-165.04ZM865.1,56.66c-11.73,2.02-15.29,20.95-16.74,30.82-2.75,18.8-1.07,69.36,21.65,75.82,27.93,7.95,27.01-40.97,25.61-57.27-1.29-15.04-9.98-52.92-30.52-49.38ZM885.58,180.1l-5.74.7,3.57,2.16,2.18-2.86Z" fill="#fff"/><path d="M623.89,413.11c.69-7.25,7.19-13.4,7.2-20.84,0-2.71-1.5-5.52-1.52-8.59-.18-40.09,4.67-84.35,1.55-123.81-.66-8.3-3.43-14.54-5.8-22.24h52.48c1.15,0,11.84,5.36,13.57,6.56,32.03,22.39,29.89,116.88,10.44,146.91-4.14,6.39-22.63,22.01-29.76,22.01h-48.17ZM659.84,264.96v112.91c0,4.15,10.5-.45,12.56-1.82,19.29-12.83,16.63-82.27,6.69-100.86-4.48-8.37-9.62-11.02-19.24-10.24ZM695.78,277.89v-5.75s-5.72,3.6-5.72,3.6c.65,1.74,4.78,3.09,5.72,2.15ZM697.2,280.78c-3.06-2.87-6.3,7.73-2.11,8.62,4.48.95,3.63-7.2,2.11-8.62ZM648.33,318.18l-5.36,3.17-.47,1.8c.84,2.31,5.76,10.64,8.71,7.97.5-.45-4.57-10.34-2.88-12.94ZM644.01,369.97h-4.3v2.86h4.3v-2.86ZM647.9,379.02c-.45-.65-7.41-5.6-8.18-4.73-.91,12.48,8.59,19.39,15.06,28.89l6.35-.28-.09-5.4c-1.57-.47-3.52-.47-4.86-1.53-5.45-4.35-5.98-13.57-8.29-16.94Z" fill="#fff"/><path d="M450.97,235.08c25.95-5.3,38.15,11.73,44.25,34.18,10.46,38.48,7.89,155.84-53.25,148.2-42.93-5.37-33.07-99.68-26.14-128.35,3.96-16.37,16.33-50.19,35.14-54.03ZM451.85,269.77c-13.3,12.77-17.95,86.4-12.46,104.24,3.45,11.19,12.31,14.04,20.64,5.36,13.99-14.57,15.75-83.9,8.84-102.45-3.18-8.52-8.53-15.3-17.02-7.15ZM432.65,384.35h-2.86s0,5.75,0,5.75c2.86-.77,3.23-3.06,2.85-5.75ZM464.28,395.85l-.7-5.75-2.16,3.57,2.85,2.18ZM438.41,398.73v4.32h5.75v-4.32h-5.75Z" fill="#fff"/><path d="M209.45,235.13c24.71-3.57,33.29,15.21,36.28,36.31,4.95,34.95-7.22,143.9-52.59,150.17-55.96,7.74-38.53-86.95-30.38-118.13,5.75-22,20.78-64.61,46.69-68.35ZM206.51,268.12c-2.52.76-5.61,5.07-7.05,7.35-10.71,16.92-20.73,78.02-18.04,97.72,1.65,12.12,9.1,21.21,19.83,10.51,13.75-13.71,22.37-88.45,17.64-106.97-1.65-6.44-5.15-10.79-12.37-8.61ZM173.85,344.05l-2.8-2.12-5.82,2.84,8.62-.73ZM170.99,390.1l2.85-2.18-2.16-3.57-.7,5.75ZM179.6,392.98h-2.86v4.3h2.86v-4.3Z" fill="#fff"/><path d="M779.18,237.63c-1.02,2.25-2.44,3.91-2.8,6.55-3.43,25.76,13.36,96.86,20.46,124.65,3.84,15.04,6.63,31.46,16.73,43.72l-2.04,3.44h-35.95c-4.36-6.9-.06-16.24-.75-25.15-.29-3.73-1.09-9.63-3.56-12.25h-30.91c-3.33,13.14-1.51,24.11,4.31,35.96h-36.66c-1.49,0-2.19-2.89-1.92-4.7.4-2.74,7.37-14.75,9.06-19.81,9.89-29.62,22.5-106.35,22.45-137.31,0-5.24-2.9-9.91-2.99-15.11h44.57ZM766.24,352.7c-2.72-16.21-5.03-34.39-9.59-50.1-.65-2.23-.48-5.34-3.34-5.99.61,12.47-10.48,43.21-7,53.74,1.49,4.52,15.69,1.52,19.93,2.35Z" fill="#fff"/><path d="M403.91,239.06v56.1c-3.33.66-2.31-.34-3.24-1.84-4.99-7.99-6.71-25.16-19.09-25.61-5.67-.21-9.79,4.11-10.66,9.54-4.9,30.79,27.95,39.72,31.43,66.21,4.26,32.5-9.45,74.75-48.09,74.04-8.02-.15-16.5-3.68-24.76-.37l-3.13-1.96,7.1-55.3c3.31-.67,2.3.35,3.23,1.84,2.93,4.68,3.2,10.93,7.47,15.49,10.45,11.16,27.83,5.92,28.88-10.08,1.45-22.06-25.85-40.73-31.71-61.89-7.48-27.02,4.98-69.29,38.61-68.52,8.56.2,15.36,5.61,23.96,2.32ZM360.66,396.85l-7.12,1.69.7,2.94,7.12-1.69-.7-2.94ZM366.52,404.47c-.02-5.27-4.28-5.27-4.3,0h4.3Z" fill="#fff"/><path d="M1004.2,30.5c4.71,1.42,8.69,35.57,9.34,41.71-6.74-2.75-10.86-8.94-18.34-11.11-9.33-2.7-20.74.84-30.55-.39l4.89,30.36c11.14,3.14,22.02,4.52,31.79-2.99,3.86.27,6.79,34.93,6.45,40.24-9.93-8.15-21.75-11.11-34.5-10.08,2.74,23.39,0,52.23,15.79,71.21-1,1.38-1.87,1.88-3.56,2.17-9.37,1.61-24.4-.6-34.27-.91-2.15-.07-4.75,1.25-7.44,1.04-9.23-.74-2.42-6.27-1.11-11.32,5.4-20.78-7.57-113.06-14.36-135.87-1.59-5.36-5.99-8.66-6.81-14.04h82.67ZM979.03,43.45c-8.34,4.45-9.64-3.58-17.24-2.87,3.61,7.71,8.13,12.23,16.25,7.18l.99-4.31ZM958.9,168.59c-2.18-1.07-7.11,4.08-5.73,5.75,2.49-1.26,6.34-2.28,5.73-5.75Z" fill="#fff"/><path d="M865.45,237.63l7.18,47.46c-2.07,2.24-7.97-8.57-9.32-10.08-4.09-4.54-8.23-8.53-14.93-6.99l-1.66,6.31c5.02,37.37,3.88,76.07,8.85,113.43.54,4.09,1.37,9.34,2.61,13.21,1.58,4.89,6.78,10.14,7.29,12.85.57,3.01-.49,1.86-2.18,2.14-13.7,2.24-27.36-1.65-40.97.03-1.06-1.06,3.82-17.63,4.12-21.02,1.31-14.68-3.27-32.45-4.12-47.31-1.49-26.12-.5-52.4-4.34-78.36-13.74-3.05-15.3,8.08-24.41,14.37,2.08-13.04-3-28.68-1.52-41.07.25-2.09.17-3.7,2.23-4.96h71.17ZM852.5,246.26c-7.01.18-13.43,7.44-12.92,14.37,2.69.38,3.97-.16,5.8-2.09.76-.81,7.63-11.79,7.12-12.28ZM830.58,248.17c-11.88-6.34-3.13,18.7,7.55,13.89v-4.29c-10.46-.42-1.29-3.28-.7-4.25,1.11-1.85.7-3.84.69-5.83l-5.05,2.95c-2.15.97-1.96-2.2-2.48-2.47ZM838.11,289.41l-6.95,9.68c-1.03,4.92,1.75,15.18,6.28,9.05.56-.76,1.5-16.37.66-18.73ZM835.25,319.61c1.46-1.45-2.81-5.77-4.3-4.3s2.81,5.77,4.3,4.3Z" fill="#fff"/><path d="M544.81,237.63c-.57,5.95-4.02,11.05-5.35,16.94-4.21,18.55-7.48,101.39-4.29,120.05.22,1.27.71,5.21,1.88,5.51,14.65-.91,27.19-5.51,34.37-18.8,1.03,17.09-3.63,34.57-5.11,51.7l-68.94,1.51c-.22-4.99,3.48-8.05,5.05-12.92,5.21-16.15,2.56-31.98,3.51-48.27,1.17-19.95,3.98-40.33,4.43-60.29.42-18.58.33-37.89-5.81-55.44h40.26Z" fill="#fff"/><path d="M918.65,237.63c-5.84,13.12-4.91,28.32-4.37,42.49,1.23,32.73,5.61,79.83,11.93,111.77,1.62,8.19,3.95,17.04,9.67,23.38-6.77,5.61-15.26,2.37-22.27,2.17-4.29-.12-21.28,1.45-22.18-2.28,5.34-11.55,4.96-24.74,4.29-37.35-.86-16.23-4.42-33.84-5.8-50.3-1.86-22.22-.49-51.5-6.46-72.65-1.91-6.75-6.11-10.85-7.93-17.24h43.13ZM914.33,380.01c-1.07-1.83-1.7-6.52-3.65-7.12-7.39-2.26-4.48,9.57,3.65,7.12Z" fill="#fff"/><path d="M619.58,237.63c-.9,4.26-3.96,6.72-5.34,11.2-5.51,17.95-1.94,33.84-1.78,51.3.18,20.21-1.34,40.58-1.49,60.5-.13,18.12.38,36.1,8.61,52.49h-44.57c2.23-7.8,6.33-13.76,7.18-22.31,2.56-25.92,1.11-59.64,1.39-86.35.15-14.02,1.47-28.63-.12-42.92-.94-8.39-4.42-16.05-7.01-23.91h43.13ZM595.11,296.61c-5.47-1.14-1.69,6.18-1.44,9.36.54,6.8.77,13.22.4,20.53-.12,2.34,1.25,4.78,1.05,6.75-.28,2.81-3.37,3.58-2.85,6.5,11.72,1.13,9.11-12.24,9.43-20.37.06-1.51,1.57-3.27,1.51-4.81-.08-2.19-8.67-13.12-8.1-17.97ZM602.32,342.64h-2.86v4.3h2.86v-4.3ZM598.01,352.7l-4.3-1.44v8.62s4.3-7.18,4.3-7.18Z" fill="#fff"/><polygon points="434.09 49.22 433.36 52.09 427.87 50.65 426.92 46.32 434.09 49.22"/><polygon points="495.92 79.41 495.91 83.72 491.62 82.26 491.62 79.41 495.92 79.41"/><path d="M1150.15,395.85l-4.33.02,4.32,10.04c-9.42-.46-24.42,2.85-20.14,14.4-4.58-3.08-5.82.68-10.04,1.43l-.85-5.75c8.25-1.95,6.23-10.4,13.78-8.62l.15-5.58,6.23-1.47,5.1,4.16.21-9.87,4.85-1.61.7,2.85Z"/><path d="M1158.32,471.07c1.56,1.89,2.04,4.37,1.87,6.77h-11.49s.12-4.18.12-4.18l4.17-2.27-5.73-6.49c2.78-.69,9.59,4.4,11.06,6.16Z"/><path d="M1073.92,476.39c-4.39,2.64-10.76-9.28-6.44-10.05,3.18-.57,7.15,9.38,6.44,10.05Z"/><path d="M1145.82,454.83c.89,1.22-.31,4.81-2.15,5.72-1.85-2.71-3.62-2.26-6.46-1.41-1.26-4.31,7.38-5.99,8.61-4.31Z"/><path d="M1127.13,401.63c1.17,5.11-5.64,2.19-8.61,2.85.07-5.93,4.7-4.13,8.61-2.85Z"/><polygon points="1111.31 358.46 1111.31 364.2 1105.56 362.75 1107.2 358.66 1111.31 358.46"/><polygon points="1102.68 346.95 1101.23 354.13 1099.83 354.13 1099.03 348.37 1102.68 346.95"/><path d="M53.08,349.83l-.78,4.38c5.85,4.73,11.28,3.53,7.96-4.37,4.36-1.35,7.8,4.12,7.26,7.72-.06.4-5.03,2-2.95,6.64l-5.76.02c-1.16,4.71,4.07,2.26,5.81,5.41,1.73,3.13-.78,9.66-.06,13.28-2.46-5.6-12.32-7.61-14.48-10.67-2.87-4.07.58-14.14-7.06-15.24v-1.4c4.03.64,2.9-2.74,2.87-5.77h7.19Z"/><path d="M99.54,451.4c5.09,3.56,6.68.32,11.03-2.33,1.65,6.66-3.89,10.43-5.17,14.35s1.98,9.52-2.73,12.97c-1.48-4.62-7.94-2.66-10.83-6.77.77-6.92,2.17-13.92,5.79-19.86,2.15-2.03,1.01,1,1.91,1.63Z"/><path d="M90.95,476.14c.11.27,2.91,1.27,2.38,4.57h-11.5s5.83-10.01,5.83-10.01c5.64-.51,2.77,4.09,3.29,5.44Z"/><path d="M84.7,462.02l-5.74,2.88,1.42,5.74-4.27-1.47c-1.12-5.3,4.2-7.35,8.59-7.15Z"/><polygon points="57.39 439.02 53.8 444.73 50.21 441.14 50.21 439.01 57.39 439.02"/><path d="M66,441.88l-2.94-.68-4.23,3.55c-1-6.14,7.36-9.85,7.17-2.87Z"/><polygon points="67.45 334.01 67.45 341.18 64.6 341.19 63.32 336.34 65.32 334.01 67.45 334.01"/><path d="M50.23,390.08l-4.33-5.73c4.55,0,11.03,1.79,4.33,5.73Z"/><path d="M64.57,430.36c-4.35.65-6.4-1.25-5.73-5.75,2.49,1.26,6.34,2.28,5.73,5.75Z"/><polygon points="81.85 296.6 80.4 289.42 82.53 289.42 84.65 291.64 84.64 294.36 81.85 296.6"/><rect x="57.28" y="411.93" width="3.1" height="8.11" transform="translate(-276.87 163.37) rotate(-44.99)"/><rect x="76.79" y="275.74" width="7.21" height="2.88" transform="translate(-196.88 357.26) rotate(-89.93)"/><polygon points="58.8 401.63 63.13 407.36 55.97 403.74 58.8 401.63"/><path d="M61.7,342.64v4.3s-4.3,0-4.3,0c-.46-2.72,1.68-4.77,4.3-4.3Z"/><path d="M73.76,470.1c.6.6,1.5.64,2.31.58l-2.14,2.82-3.57-3.57,2.82-2.14c-.06.81-.02,1.71.58,2.31Z"/><rect x="78.96" y="449.08" width="2.86" height="4.3"/><path d="M735.32,59.26c16.72,14.01,10.72,40.22-11.92,42.84-3.51.41-10.37-.19-10.37-4.73v-38.12h22.29Z"/><path d="M748.97,136.94c-1.72,4.33,4.21,7.62,4.33,8.18,1.83,8.78,2.2,17.83,6.08,26.73,2.08,4.78,8.6,6.36-1.11,11.07l-5.39-6.08c2.03-6.19-6.72-12.5-6.75-13.29-.02-.52,5.14-3.87,2.18-9.4-1.48-2.75-15.66-6.58-8.67-11.44l9.34,8.59c.36-4.46-2.89-5.63-5.67-8,.5-2.87,2.2-6.89,5.67-6.37Z"/><path d="M764.81,76.54l2.85-1.46.02,4.32-14.39,2.87c2.2-6.59,9.12-8.1,12.23-14.36l-.71,8.63Z"/><path d="M744.68,125.45l-1.62,5.58-11.33,1.58,4.33-12.93c3.4,2.06,3.47,6.63,8.63,5.77Z"/><polygon points="750.41 98.1 749.7 108.14 746.34 101.9 750.41 98.1"/><path d="M698.65,72.21h-8.61s1.45-5.76,1.45-5.76c2.75,1.46,7.74,1.51,7.16,5.76Z"/><path d="M725.97,47.75c-5.29,0-4.15-3.19-2.85-7.18,3.26.87,3.02,4.5,2.85,7.18Z"/><rect x="734.61" y="109.61" width="2.86" height="4.3"/><path d="M353.16,56.7c31.3-7.2,28.69,47.79,25.91,66.18-1.61,10.63-6.53,29.65-15.51,36.27-9.66,7.12-22.28,4.19-28.02-6.32-10.9-19.93-4.83-68.58,7.63-87.45,2.17-3.29,6.06-7.78,10-8.69Z"/><path d="M320.5,96.65h-2.85s-1.45-4.29-1.45-4.29c2.62-.49,4.76,1.58,4.31,4.29Z"/><path d="M229.94,57.84c7.11.31,14.91-1.38,21.44,2.26,16.77,9.37,9.71,41.18-6.1,48.32-4.41,1.99-20.82,5.44-22.43.26l7.09-50.84Z"/><path d="M267.31,47.77l-10.06,2.85c-1.19-5.34,7.02-2.06,10.06-2.85Z"/><polygon points="211.22 63.58 208.37 63.57 208.37 56.39 212.02 57.82 211.22 63.58"/><path d="M215.54,118.23h-4.3c.02-5.27,4.28-5.27,4.3,0Z"/><path d="M219.86,50.64v2.86s-5.74,0-5.74,0c.77-2.86,3.06-3.23,5.74-2.85Z"/><path d="M228.5,41.99v-1.4l3.6-1.42c3.98,3.28.54,4.75-3.6,2.82Z"/><polygon points="273.06 99.55 273.05 105.29 271.64 105.28 270.19 99.55 273.06 99.55"/><path d="M968.56,265.24c15.63-4.69,22.98,29.61,25.31,40.25,3.99,18.23,10.81,59.44,2.98,75.82-5.93,12.41-16.16,7.76-22.41-1.72-12.59-19.1-19.46-83.94-12.75-105.37.96-3.06,3.67-8.02,6.86-8.98Z"/><path d="M1017.85,367.09c-1.07,2.02.23,6.62-.09,7.71s-2.75.91-2.86,1.72c-.47,3.32,4.59,6.06,2.24,9.26l-7.9-11.5c3.85,1.89,3.75-.82,5.75-3.62l-2.89-3.56h5.74Z"/><polygon points="950.28 315.31 946.68 318.25 943.1 316.01 950.28 315.31"/><polygon points="277.37 295.17 277.37 298.03 271.63 298.03 271.64 295.9 273.78 293.75 277.37 295.17"/><path d="M865.1,56.66c20.54-3.54,29.23,34.34,30.52,49.38,1.4,16.3,2.32,65.21-25.61,57.27-22.72-6.47-24.4-57.02-21.65-75.82,1.44-9.87,5.01-28.8,16.74-30.82Z"/><polygon points="885.58 180.1 883.4 182.96 879.83 180.8 885.58 180.1"/><path d="M659.84,264.96c9.62-.78,14.76,1.87,19.24,10.24,9.95,18.59,12.61,88.03-6.69,100.86-2.06,1.37-12.56,5.97-12.56,1.82v-112.91Z"/><path d="M647.9,379.02c2.32,3.38,2.84,12.59,8.29,16.94,1.34,1.07,3.28,1.06,4.86,1.53l.09,5.4-6.35.28c-6.48-9.5-15.97-16.41-15.06-28.89.77-.86,7.74,4.08,8.18,4.73Z"/><path d="M648.33,318.18c-1.7,2.59,3.37,12.49,2.88,12.94-2.95,2.68-7.87-5.65-8.71-7.97l.47-1.8,5.36-3.17Z"/><path d="M697.2,280.78c1.52,1.42,2.36,9.57-2.11,8.62-4.18-.89-.95-11.48,2.11-8.62Z"/><path d="M695.78,277.89c-.94.94-5.06-.41-5.72-2.15l5.71-3.6v5.75Z"/><rect x="639.72" y="369.97" width="4.3" height="2.86"/><path d="M451.85,269.77c8.49-8.15,13.84-1.37,17.02,7.15,6.92,18.56,5.15,87.88-8.84,102.45-8.33,8.68-17.19,5.83-20.64-5.36-5.49-17.84-.84-91.47,12.46-104.24Z"/><rect x="438.41" y="398.73" width="5.75" height="4.32"/><path d="M432.65,384.35c.37,2.68,0,4.98-2.85,5.75v-5.75s2.85,0,2.85,0Z"/><polygon points="464.28 395.85 461.43 393.67 463.58 390.1 464.28 395.85"/><path d="M206.51,268.12c7.23-2.18,10.73,2.17,12.37,8.61,4.73,18.52-3.89,93.26-17.64,106.97-10.73,10.7-18.18,1.61-19.83-10.51-2.69-19.7,7.33-80.8,18.04-97.72,1.44-2.28,4.54-6.59,7.05-7.35Z"/><polygon points="173.85 344.05 165.23 344.78 171.05 341.93 173.85 344.05"/><rect x="176.74" y="392.98" width="2.86" height="4.3"/><polygon points="170.99 390.1 171.69 384.35 173.85 387.92 170.99 390.1"/><path d="M766.24,352.7c-4.24-.83-18.43,2.17-19.93-2.35-3.48-10.53,7.6-41.28,7-53.74,2.86.65,2.7,3.77,3.34,5.99,4.56,15.71,6.87,33.89,9.59,50.1Z"/><rect x="353.79" y="397.66" width="7.32" height="3.02" transform="translate(-82.66 93.54) rotate(-13.38)"/><path d="M366.52,404.47h-4.3c.02-5.27,4.28-5.27,4.3,0Z"/><path d="M979.03,43.45l-.99,4.31c-8.13,5.05-12.65.53-16.25-7.18,7.6-.71,8.9,7.32,17.24,2.87Z"/><path d="M958.9,168.59c.61,3.46-3.24,4.49-5.73,5.75-1.38-1.67,3.55-6.82,5.73-5.75Z"/><path d="M830.58,248.17c.52.28.34,3.45,2.48,2.47l5.05-2.95c.01,1.98.42,3.98-.69,5.83-.58.97-9.75,3.83.71,4.25v4.29c-10.68,4.81-19.43-20.23-7.55-13.89Z"/><path d="M838.11,289.41c.83,2.36-.1,17.97-.66,18.73-4.54,6.13-7.31-4.13-6.28-9.05l6.95-9.68Z"/><path d="M852.5,246.26c.51.49-6.36,11.47-7.12,12.28-1.83,1.93-3.11,2.47-5.8,2.09-.51-6.93,5.92-14.19,12.92-14.37Z"/><path d="M835.25,319.61c-1.49,1.47-5.76-2.86-4.3-4.3s5.76,2.86,4.3,4.3Z"/><path d="M914.33,380.01c-8.14,2.45-11.04-9.38-3.65-7.12,1.96.6,2.58,5.29,3.65,7.12Z"/><path d="M595.11,296.61c-.57,4.84,8.02,15.78,8.1,17.97.05,1.54-1.45,3.3-1.51,4.81-.32,8.12,2.29,21.49-9.43,20.37-.52-2.92,2.57-3.69,2.85-6.5.2-1.97-1.16-4.41-1.05-6.75.37-7.32.14-13.73-.4-20.53-.25-3.17-4.03-10.5,1.44-9.36Z"/><polygon points="598.01 352.7 593.71 359.89 593.71 351.26 598.01 352.7"/><rect x="599.46" y="342.64" width="2.86" height="4.3"/></svg>