<?xml version="1.0" encoding="UTF-8"?><svg id="a" xmlns="http://www.w3.org/2000/svg" viewBox="0 0 500 500"><path d="M425.5,321.3c0,.67,0,1.33,0,2,0,8.31-.45,16.61-1.46,24.86-.98,8-2.66,15.95-5.38,23.55-1.37,3.84-3.01,7.55-4.93,11.15-.12.22-.24.44-.36.66-.12.22-.24.44-.37.65-.11.19-.22.38-.33.57-.03.04-.05.09-.08.13-.1.16-.19.32-.29.48-.04.07-.09.14-.13.2-.11.18-.21.35-.32.52,0,.01-.02.03-.02.04-.13.2-.26.41-.39.61-.26.4-.53.8-.8,1.19-.17.24-.34.49-.51.73h0c-1,1.4-2.06,2.76-3.16,4.07-2.67,3.17-5.88,5.91-9.28,8.26-2.54,1.75-5.35,3.09-8.21,4.23-.9.36-1.8.7-2.7,1.03-1.03.37-2.09.7-3.04.97-1.97.54-3.95,1.07-5.98,1.35-1.19.17-2.39.3-3.58.42-.84.08-1.68.16-2.53.22-1,.08-2,.16-3.01.23-2.81.21-5.62.42-8.44.63-7.86.6-15.71,1.22-23.58,1.77-8.14.57-16.28,1.2-24.42,1.77-8.08.56-16.16,1.1-24.24,1.65-16.02,1.11-32.05,2.19-48.04,3.65-15.78,1.44-31.51,3.48-47.33,4.42-8.01.48-16.02.87-24.04,1.13-3.99.13-7.98.26-11.97.31-1.09.01-2.19.02-3.28.02-3.14,0-6.28-.05-9.43-.13-7.88-.21-15.74-.9-23.55-1.97-2.52-.34-5.03-.72-7.53-1.17-.34-.06-.69-.13-1.03-.19-.23-.04-.46-.09-.69-.13-.3-.06-.59-.12-.89-.18l-.09-.02c-.48-.1-.94-.19-1.42-.3-.41-.09-.82-.18-1.23-.28-.14-.03-.27-.06-.4-.1-3.4-.81-6.74-1.8-10.03-2.98-3.59-1.29-7.09-2.84-10.49-4.57-3.55-1.82-6.83-4.09-9.5-7.07-2.54-2.83-4.39-6.28-5.85-9.77-1.48-3.54-2.2-7.31-2.83-11.08-1.24-7.36-1.84-14.81-2.39-22.24-.58-7.69-1.1-15.39-1.54-23.1-.86-15.19-1.26-30.41-1.75-45.62-.52-15.69-1.04-31.38-1.92-47.06-.9-15.9-2.22-31.77-3.49-47.64-1.29-16.17-2.65-32.34-3.57-48.54-.44-7.78-.79-15.57-.91-23.36-.13-8.04-.04-16.1.82-24.1.43-4,.99-7.99,2.05-11.88,1.1-4,2.37-7.98,4.03-11.78,1.56-3.58,3.48-6.99,5.88-10.08,1.27-1.64,2.65-3.14,4.17-4.56,1.39-1.3,3.01-2.37,4.65-3.34,1.64-.97,3.34-1.86,5.08-2.63,1.83-.81,3.71-1.57,5.66-2.05,3.7-.92,7.51-1.39,11.29-1.9,7.67-1.03,15.36-1.92,23.07-2.6.29-.03.59-.05.89-.08.06,0,.12,0,.18-.02.85-.07,1.7-.14,2.55-.2.07,0,.14,0,.2-.01,0,0,.02,0,.03,0,.85-.06,1.69-.12,2.54-.18,0,.27,0,.54.01.81,0,.16,0,.32,0,.48v.09c0,.4.02.8.02,1.2,0,.53.02,1.06.03,1.59,0,.34.02.69.03,1.04,0,.1,0,.2,0,.31-1.83.12-3.67.26-5.5.41-.26.02-.52.05-.78.07-.64.06-1.28.12-1.93.18-6.89.65-13.77,1.45-20.27,2.31-3.72.5-7.48.96-11.13,1.86-1.34.4-2.64.86-3.93,1.39-1.66.74-3.27,1.55-4.87,2.43-1.14.68-2.23,1.4-3.29,2.19-.55.47-1.1.95-1.63,1.44-1.06,1.09-2.05,2.23-2.99,3.43-.99,1.36-1.9,2.76-2.76,4.2-.87,1.59-1.66,3.21-2.39,4.87-1.26,3.13-2.34,6.32-3.29,9.56-.37,1.36-.73,2.72-1,4.09-.3,1.53-.55,3.06-.78,4.59-.85,6.88-1.2,13.79-1.25,20.71.05,15.75,1.02,31.48,2.15,47.18,1.16,16.18,2.54,32.34,3.81,48.51.62,7.92,1.24,15.84,1.72,23.77.48,7.79.88,15.59,1.21,23.38.66,15.74,1.12,31.5,1.65,47.25.25,7.54.53,15.08.9,22.61.37,7.53.86,15.05,1.38,22.57.54,7.71,1.09,15.44,2.09,23.11.51,3.72,1.08,7.46,2.03,11.1.34,1.18.75,2.32,1.21,3.45.68,1.55,1.44,3.05,2.28,4.52.52.84,1.06,1.65,1.65,2.45.54.67,1.1,1.31,1.69,1.93.66.64,1.34,1.24,2.05,1.81,1,.74,2.03,1.41,3.09,2.06,2.49,1.4,5.07,2.62,7.69,3.75,1.69.7,3.39,1.38,5.13,1.98,1.85.63,3.71,1.2,5.59,1.73.28.08.56.15.85.21.09.03.18.05.28.07,1.87.47,3.76.88,5.64,1.24.35.07.71.14,1.06.2.36.07.71.13,1.07.19s.71.13,1.07.18c.66.12,1.32.22,1.99.33,1.12.18,2.24.35,3.37.51,5.11.67,10.22,1.24,15.36,1.57,5.39.34,10.79.49,16.11.52,8.18,0,16.35-.32,24.52-.68,8.02-.36,16.04-.74,24.04-1.38,7.87-.63,15.71-1.47,23.56-2.3,7.8-.82,15.6-1.57,23.41-2.24,8.13-.69,16.28-1.26,24.42-1.85,8.03-.57,16.06-1.13,24.09-1.66,16.08-1.08,32.16-2.26,48.23-3.45,5.2-.39,10.4-.79,15.61-1.17,2.55-.19,5.11-.38,7.66-.58.32-.02.63-.05.95-.07,1.84-.14,3.69-.27,5.52-.45.45-.04.9-.09,1.34-.14,1.77-.26,3.51-.6,5.25-1.02.38-.1.75-.2,1.13-.31,1.13-.35,2.24-.71,3.34-1.11h0c.95-.34,1.89-.7,2.82-1.08.13-.05.26-.11.39-.16,1.63-.74,3.2-1.53,4.75-2.41,1.16-.73,2.27-1.5,3.37-2.32,1.43-1.16,2.79-2.37,4.12-3.65,1.32-1.38,2.56-2.81,3.75-4.32,1.23-1.67,2.36-3.39,3.44-5.16.71-1.25,1.39-2.5,2.03-3.78.62-1.24,1.18-2.5,1.73-3.76.7-1.74,1.37-3.48,2-5.24.65-1.82,1.19-3.68,1.72-5.54.68-2.63,1.29-5.27,1.81-7.94.47-2.41.83-4.84,1.17-7.26.49-4.07.86-8.13,1.13-12.22.27-4.15.35-8.31.38-12.46,0-7.85-.15-15.71-.68-23.55-.54-8.15-1.39-16.27-2.44-24.38v-.07c-.02-.09-.03-.17-.04-.25,0,0,0-.02,0-.02-2.17-16.3-4.62-32.57-6.9-48.86-1.67-11.94-3.29-23.88-4.86-35.83-.02-.11-.04-.22-.05-.34h0c-.07-.54-.14-1.07-.21-1.61,0-.06-.02-.13-.03-.19,0,0,0,0,0,0l-.02-.17c-.09-.7-.18-1.38-.24-1.84-.22-1.71-.45-3.42-.67-5.13-.13-1.01-.26-2.02-.4-3.03-.02-.13-.03-.26-.05-.39-.14-.61-.17-1.27-.25-1.89-2.11-15.79-4.53-31.54-7.06-47.26-2.46-15.25-4.85-30.53-8.12-45.63-1.51-6.98-3.19-13.92-4.99-20.66-.78-2.87-1.48-5.8-2.57-8.58-.3-.68-.63-1.33-1-1.98-.45-.73-.93-1.44-1.44-2.13-.6-.76-1.23-1.49-1.91-2.18-.73-.7-1.49-1.35-2.29-1.98-.85-.62-1.73-1.21-2.64-1.75-.79-.44-1.59-.84-2.42-1.21-.95-.38-1.92-.7-2.9-.99-.22-.06-.45-.11-.67-.16-.22-.06-.45-.11-.67-.15-.45-.1-.89-.19-1.34-.27,0,0-.01,0-.02,0-.73-.14-1.46-.26-2.2-.37-2.93-.36-5.85-.53-8.8-.57-5.35.02-10.68.37-16.01.85-.37.03-.74.07-1.1.1-1.52.14-3.03.29-4.54.44-.69.07-1.37.14-2.05.2-.02,0-.04,0-.06,0-1.35.14-2.71.28-4.07.42-1.83.19-3.65.38-5.48.58-.09-.56-.18-1.13-.28-1.69-.19-.88-.38-1.76-.58-2.64-.08-.36-.17-.72-.25-1.07.65-.07,1.3-.14,1.95-.21,1.21-.13,2.42-.26,3.63-.39,2.3-.25,4.6-.49,6.91-.72.79-.08,1.57-.16,2.36-.23l.72-.07c.87-.08,1.73-.16,2.6-.23,2.49-.22,4.98-.41,7.47-.56,6.75-.41,13.67-.54,20.35.67,1.08.19,2.15.42,3.21.69,3.92.99,7.49,2.86,10.67,5.34,1.53,1.19,2.91,2.56,4.15,4.05h0s.01.02.02.03c1.22,1.48,2.34,3.11,3.18,4.85.76,1.56,1.3,3.19,1.79,4.85.49,1.7.96,3.4,1.43,5.11.93,3.41,1.79,6.83,2.64,10.26,3.63,14.75,6.27,29.7,8.73,44.69,2.6,15.83,5.13,31.67,7.41,47.54.67,4.67,1.29,9.35,1.86,13.65.4,3.01.79,6.01,1.19,9.02.09.64.17,1.28.22,1.65.02.15.04.29.06.44.08.63.16,1.25.24,1.86.52,3.94,1.05,7.87,1.58,11.8,1.11,8.22,2.23,16.44,3.38,24.66.18,1.28.36,2.56.54,3.84s.36,2.56.55,3.84c.36,2.53.73,5.05,1.09,7.58,0,.03,0,.06.01.08h0c1.62,11.17,3.25,22.32,4.7,33.5,1.04,8.09,1.92,16.19,2.46,24.33.04.65.08,1.3.12,1.95,0,0,0,.01,0,.02.05.9.1,1.79.15,2.69.04.82.08,1.63.11,2.45,0,.17.02.34.02.51.03.82.06,1.64.09,2.46,0,.09,0,.18,0,.27.03.74.05,1.49.07,2.23v.37c.03.81.05,1.62.06,2.42,0,.1,0,.2,0,.29.03,1.55.05,3.09.06,4.64,0,.14,0,.27,0,.41,0,.46,0,.92,0,1.37Z"/><path d="M246.65,274.79s.04-.05.06-.07c-.02.03-.04.05-.07.08,0,0,0,0,0,0Z"/><path d="M227.91,274.72s.04.05.06.07c0,0,0,0,0,0-.02-.03-.04-.05-.07-.08Z"/><path d="M232.04,274.38s0,0-.01-.01h0s0,0,.01.01h0Z"/><path d="M247.06,274.32s-.03.03-.04.05c.01-.02.03-.03.04-.05Z"/><path d="M232.03,274.37s0,0,0,0t0,0s0,0,0,0h0Z"/><path d="M227.57,274.32s.03.03.04.05c-.01-.02-.03-.03-.04-.05Z"/><path d="M232.03,274.36s0,0,0,0c0,0,0,0,0,0h0Z"/><path d="M232.03,274.36s0,0,0,0h0,0Z"/><path d="M247.11,274.26s-.03.04-.05.06c.02-.02.03-.04.05-.06Z"/><path d="M227.52,274.26s.03.04.05.06c-.02-.02-.03-.04-.05-.06Z"/><path d="M247.18,274.17s0,0,0,0c0,0,0,0,0,0Z"/><path d="M227.44,274.17s0,0,0,0c0,0,0,0,0,0Z"/><path d="M247.29,274.04s-.07.09-.11.13c.04-.04.07-.09.11-.13Z"/><path d="M227.33,274.04s.07.09.11.13c-.04-.04-.07-.09-.11-.13Z"/><path d="M227.18,273.87s0,0,.01.01c0,0,.01.02.02.03-.01-.01-.02-.03-.03-.04Z"/><path d="M226.98,273.62s.08.09.12.14c-.04-.05-.08-.09-.12-.14Z"/><path d="M247.58,273.7s.05-.05.07-.08c-.03.03-.05.06-.08.1h.01Z"/><path d="M243.93,272.81s-.07.08-.11.13c.04-.04.07-.08.11-.13Z"/><path d="M230.7,272.81s.07.08.11.13c-.04-.04-.07-.08-.11-.13Z"/><path d="M230.4,272.46s.02.02.03.03c0,0-.02-.02-.03-.03-.01-.01-.02-.03-.03-.04,0,0,0,0,.01.01-.02-.02-.04-.05-.06-.07,0-.01-.02-.02-.03-.03.05.06.1.12.15.18-.01-.01-.03-.03-.04-.05Z"/><path d="M244.71,271.9s0,.01-.01.02c-.01.02-.03.03-.04.05.02-.02.04-.04.05-.06Z"/><path d="M244.82,271.76s0,0-.01.01h0s0,0,.01-.01Z"/><path d="M229.82,271.78s0,0-.01-.01c0,0,0,0,.01.01h0Z"/><path d="M249.58,271.37s.01-.02.02-.02c-.02.03-.05.05-.07.08.02-.02.03-.04.05-.06Z"/><path d="M225.03,271.35s.01.02.02.02c.02.02.03.04.05.06-.02-.03-.05-.06-.07-.08Z"/><path d="M249.67,271.25s-.05.06-.08.09c.03-.03.05-.06.08-.09Z"/><path d="M224.95,271.25s.05.06.08.09c-.03-.03-.05-.06-.08-.09Z"/><path d="M245.87,270.54s-.01.01-.02.02c0,0,0,0,0,0,0,0,.01-.02.02-.02Z"/><path d="M228.78,270.56s-.01-.01-.02-.02c0,0,.01.02.02.02,0,0,0,0,0,0Z"/><path d="M228.68,270.44c-.05-.06-.1-.12-.15-.17.08.09.15.18.23.26-.03-.03-.05-.06-.08-.09Z"/><path d="M245.95,270.44h0s0,0,0,0c0,0,0,0,0,0Z"/><path d="M228.68,270.44s0,0,0,0c0,0,0,0,0,0,0,0,0,0,0,0Z"/><path d="M248.09,267.94c-.05.05-.09.11-.14.16,0,0,0,0-.01.01.05-.06.1-.12.15-.18Z"/><path d="M255.45,264.5s-.07.08-.11.13c.04-.04.07-.08.11-.13Z"/><path d="M254.13,260.87s.02-.03.04-.04c-.01.01-.02.03-.03.04.02-.02.04-.05.06-.07-.02.03-.05.06-.07.08,0,0,0,0,0,0,0,0,0,0,0,0-.01.01-.02.02-.03.04.01-.02.03-.03.04-.05Z"/><path d="M220.5,260.88s0,0,0,0c0,0,0,0,0,0-.02-.03-.05-.06-.07-.08.02.02.04.05.06.07-.01-.01-.02-.03-.03-.04.01.01.03.03.04.04.01.02.03.03.04.05l-.03-.03Z"/><path d="M254.86,260.02s-.06.07-.08.1c.03-.03.06-.07.08-.1Z"/><path d="M219.77,260.02s.06.07.08.1c-.03-.03-.06-.07-.08-.1Z"/><path d="M259.82,259.38s.05-.05.07-.08c-.07.08-.13.16-.2.23.04-.05.09-.1.13-.15Z"/><path d="M214.86,259.45s.04.05.06.07c0,0,0,0,0,0-.02-.03-.05-.05-.07-.08Z"/><path d="M214.74,259.31s.04.05.06.07c.02.02.04.04.05.06-.04-.05-.08-.09-.12-.14Z"/><path d="M259.82,259.38s0,0,0,0c0,0,0,0,0,0,0,0,0,0,0,0Z"/><path d="M214.81,259.38s0,0,0,0c0,0,0,0,0,0,0,0,0,0,0,0Z"/><path d="M214.66,259.22s.05.06.08.09c-.03-.03-.05-.06-.08-.09Z"/><path d="M259.96,259.22s-.05.06-.08.09c.03-.03.05-.06.08-.09Z"/><path d="M255.91,258.79s0,0,0,0c0,0,0,0,0-.01,0,0,.01-.01.02-.02-.03.03-.05.06-.08.09.02-.02.04-.04.05-.06Z"/><path d="M218.7,258.77s.01.01.02.02c0,0,0,0,0,.01,0,0,0,0,0,0,.02.02.04.04.05.06-.03-.03-.05-.06-.08-.09Z"/><path d="M257.56,256.85s-.02.03-.03.04c.01-.01.02-.03.03-.04Z"/><path d="M217.06,256.85s.02.03.03.04c-.01-.01-.02-.03-.03-.04Z"/><path d="M261.91,251.76s0,0,0,.01c-.03.03-.05.06-.08.09.03-.03.06-.07.09-.1Z"/><path d="M212.72,251.77s0,0,0-.01c.03.03.06.07.09.1-.03-.03-.05-.06-.08-.09Z"/><path d="M270.27,247.15s.01-.02.02-.02c-.02.02-.04.05-.06.07.01-.02.03-.03.04-.05Z"/><path d="M204.33,247.12s.01.01.02.02c.01.02.03.03.04.05-.02-.02-.04-.05-.06-.07Z"/><path d="M273.5,243.37s-.08.09-.12.14c.04-.05.08-.09.12-.14Z"/><path d="M201.12,243.37s.08.09.12.14c-.04-.05-.08-.09-.12-.14Z"/><path d="M275.23,241.35s-.05.06-.08.09c.03-.03.05-.06.08-.09Z"/><path d="M199.4,241.35s.05.06.08.09c-.03-.03-.05-.06-.08-.09Z"/><path d="M286.01,228.73s.01-.01.02-.02c0,0,0,0,0,0,0,0,0,0,0,.01,0,0-.01.01-.02.02,0,0,.01-.01.02-.02Z"/><path d="M188.62,228.73s0,0-.01-.01c0,0,0,0,0,0,0,0,.01.01.02.02,0,0,.01.01.02.02,0,0-.01-.01-.02-.02Z"/><path d="M286.03,228.71s.01-.02.02-.02c0,0,0,0,0,0,0,0-.02.02-.02.03,0,0,0,0,0,0Z"/><path d="M188.58,228.69s0,0,0,0c0,0,.01.02.02.02,0,0,0,0,0,0,0,0-.02-.02-.02-.03Z"/><path d="M286.03,228.71s0,0,0,0h0s0,0,0,0Z"/><path d="M188.6,228.71s0,0,0,0c0,0,0,0,0,0h0Z"/><path d="M286.05,228.69h0s0,0,0,0c0,0,0,0,0,0Z"/><path d="M188.58,228.69h0s0,0,0,0c0,0,0,0,0,0Z"/><path d="M286.05,228.69s0,0,0,0t0,0Z"/><path d="M188.58,228.69s0,0,0,0c0,0,0,0,0,0Z"/><path d="M286.05,228.69s.02-.03.03-.04c0,0,.01-.01.02-.02,0-.01.02-.02.02-.02,0,0-.02.02-.02.03,0,0,0,0,0,0,0,0-.01.01-.02.02,0,0,0,0,0,0-.01.01-.02.02-.03.04h0Z"/><path d="M188.55,228.65s0,0,0,0c0,0-.01-.01-.02-.02,0,0,0,0,0,0,0,0-.02-.02,0,0,0-.01-.02-.02-.03-.03,0,0,.02.02.03.03,0,0,.01.01.02.02.01.01.02.03.03.04-.01-.01-.02-.02-.03-.04Z"/><path d="M286.08,228.65s0,0,0,0l-.03.03s.02-.02.03-.04Z"/><path d="M188.55,228.66s0,0,0,0c0,.01.02.02.03.04l-.03-.03Z"/><path d="M286.08,228.66s0,0,.01-.01c-.01.01-.02.03-.03.04,0,0,.02-.02.02-.03Z"/><path d="M188.54,228.64s0,0,.01.01c0,0,.02.02.02.03-.01-.01-.02-.03-.03-.04Z"/><path d="M286.09,228.63s.02-.02.03-.03c.02-.03.05-.06.07-.09-.04.04-.07.09-.11.13,0,0,0,0,0-.01Z"/><path d="M188.43,228.52s.05.06.07.09c0,.01.02.02.03.03,0,0,0,0,0,.01-.04-.04-.07-.09-.11-.13Z"/><path d="M336.18,42.6c.2,7.3.13,15.26-.02,22.12-.01.58-.03,1.15-.04,1.71,0,.38-.02.75-.03,1.12,0,.36-.02.73-.03,1.08h0c0,.36-.02.71-.03,1.06h0c0,.35-.02.7-.03,1.03,0,.17,0,.34-.02.51,0,.33-.02.66-.03.98h0c-.02.49-.03.95-.05,1.41h0c0,.31-.02.61-.03.9,0,.15,0,.29-.02.44,0,.28-.02.56-.03.83h0c-.02.41-.03.8-.04,1.18-.02.63-.05,1.21-.07,1.74,0,.21-.02.41-.02.61,0,.19-.02.38-.02.56,0,.26-.02.51-.03.74,0,.15,0,.29-.02.42-.01.33-.02.59-.03.8-.83,16.49-1.98,32.97-2.52,49.47-1.09,14,.33,29.96-7.78,42.1-5.55,6.08-13.68,7.12-21.46,7.61-5.54.58-11.08,1.12-16.62,1.65-13.15,1.26-26.38,2.42-39.55,3.28-3.75.14-7.5.35-11.25.61-.83.06-1.66.12-2.5.18-2.54.19-5.08.41-7.61.64-.76.07-1.51.14-2.27.21-.08,0-.16.01-.23.02-.72.07-1.44.14-2.16.21-.95.09-1.91.18-2.86.28-.74.07-1.48.15-2.23.22-.55.05-1.09.11-1.64.17-.66.07-1.33.14-1.99.2-.58.06-1.17.12-1.76.18-1.91.19-3.81.38-5.72.57-1.03.1-2.07.2-3.1.3-.64.06-1.29.12-1.94.18-.17.02-.33.03-.49.05-.63.06-1.26.12-1.9.18-1.02.09-2.05.18-3.07.27-.65.06-1.3.11-1.95.17l-.61.05c-.66.05-1.32.11-1.98.16-.14,0-.28.02-.42.03-8.8.67-17.59,1.07-26.37.9-.23,0-.47,0-.7-.01s-.47,0-.7-.02c-.44-.01-.87-.02-1.31-.04-.44-.01-.88-.03-1.31-.05-.52-.02-1.05-.05-1.57-.07-.64-.03-1.27-.07-1.91-.11-.39-.02-.77-.05-1.16-.07-.39-.03-.77-.05-1.16-.08-.29-.02-.58-.04-.87-.07-.52-.04-1.03-.09-1.55-.13-.37-.03-.74-.07-1.11-.1-.37-.03-.74-.07-1.11-.11-22.28-3.78-20.3-18.12-20.91-36.29-.6-13.67-1.97-27.29-3.25-40.91-1.7-16.65-3.91-33.27-4.35-50.02-.04-1.42-.08-2.84-.13-4.26,0-.34-.02-.69-.03-1.04,0-.19,0-.38-.01-.56-.04-1.51-.08-3.02-.1-4.52,0-.33,0-.65-.01-.98.06,0,.12,0,.18-.02.85-.07,1.7-.14,2.55-.2.07,0,.14,0,.2-.01,0,0,.02,0,.03,0,.85-.06,1.69-.12,2.54-.18,0,.27,0,.54.01.81,0,.16,0,.32,0,.48,0,.03,0,.07,0,.1,0,.39.01.79.02,1.19,0,.53.02,1.06.03,1.59,0,.34.02.69.02,1.04v.31c.01.27.02.55.03.83.01.68.03,1.35.05,2.03.02.66.04,1.32.06,1.98.04,1.21.08,2.41.13,3.61.02.39.03.79.05,1.18.1,2.37.22,4.71.36,6.97,2.01,27.34,6.11,54.51,7.17,81.93.58,6.67-.24,13.56,1.56,20.06.07.15.15.3.23.45.08.15.15.29.23.43.06.11.12.21.18.31.05.08.09.16.14.23.14.23.29.46.44.68.08.12.17.24.26.36.11.16.23.31.35.47.08.1.15.19.23.28.2.24.41.48.62.7.1.1.19.2.29.3.1.11.21.21.31.31.97.93,2.04,1.71,3.2,2.36.13.07.26.14.39.21.07.04.13.07.19.11l.2.1c.11.06.21.11.32.16.31.15.63.3.95.43.24.1.48.19.73.29.04.01.07.03.11.04.12.04.24.09.36.13.49.18.98.33,1.49.48.23.07.46.13.7.19.24.06.49.12.73.18.81.19,1.64.35,2.48.48.24.04.48.07.72.11,1.29.18,2.6.3,3.92.38.2.01.41.03.62.04.05,0,.1,0,.15,0,.27.02.54.03.82.04.29.01.58.02.87.03,1.86.06,3.72.06,5.53.05,2.35-.01,4.63-.04,6.72.02,24.98-.79,49.9-4.36,74.68-5.64,1.03-.07,1.72-.12,2.65-.18,17.45-1.18,34.81-2.77,52.2-4.52.28-.03.56-.06.85-.09.14-.02.27-.03.41-.04.14-.01.28-.03.43-.04.14-.01.29-.03.43-.04,1.45-.13,2.97-.24,4.5-.39.28-.03.56-.06.85-.09.07,0,.15-.01.22-.02.1,0,.21-.02.31-.03.15-.02.31-.03.46-.05.16-.02.31-.04.46-.06.15-.02.3-.04.46-.06.46-.06.91-.13,1.37-.2.15-.02.3-.05.46-.08.49-.08.97-.18,1.45-.28.25-.06.51-.11.76-.17.18-.05.36-.09.53-.14l.18-.05.18-.05c.29-.08.57-.16.85-.25.11-.03.21-.07.31-.1.31-.11.62-.21.93-.34.14-.05.27-.11.4-.16.12-.05.24-.1.37-.16.07-.03.14-.06.21-.1.1-.05.2-.09.29-.14.57-.28,1.11-.58,1.63-.92.09-.06.17-.11.25-.17.51-.35.99-.74,1.44-1.17.08-.07.15-.14.22-.21.08-.08.15-.15.22-.23.34-.36.66-.75.96-1.17.78-1.09,1.4-2.38,1.82-3.9,3.82-11.98,3.5-24.76,4.14-37.19.16-4.43.36-8.86.59-13.29,0,0,0,0,0-.01.07-1.5.15-3,.23-4.49.12-2.29.25-4.58.38-6.87.3-5.41.62-10.82.91-16.23.07-1.19.13-2.38.19-3.57.09-1.62.17-3.24.24-4.86.42-7.99.61-16.14.54-24.26,0-.59,0-1.18-.02-1.76,0-.3,0-.6-.01-.9-.01-.78-.03-1.55-.04-2.32-.02-.84-.04-1.68-.06-2.52,0-.14,0-.28-.01-.41-.02-.81-.05-1.61-.08-2.41-.03-.82-.06-1.63-.1-2.44-.08-1.84-.18-3.68-.29-5.51.79-.08,1.58-.16,2.36-.23l.72-.07c.87-.08,1.73-.16,2.6-.23.01.2.02.4.03.59.09,1.58.17,3.22.22,4.9,0,.14,0,.28.01.42.01.4.02.8.04,1.2Z"/><path d="M163.58,190.77c0,.31.02.62.05.95-1.87-.03-3.73-.1-5.59-.19-.16-1.77-.31-3.54-.45-5.31,1.86.06,3.72.06,5.53.05.18,1.5.36,3,.47,4.5Z"/><path d="M328.33,115.02c.3,15.25.55,31.08-.42,46.21-.74,3.21.9,10.95-3.85,10.69-4.34-.71-1.24-8.04-1.62-11.17,1.26-20.8.45-41.65,0-62.47-.68-19.09-.71-38.38-3.9-57.24-.27-1.24-.54-2.48-.84-3.71.65-.07,1.3-.14,1.95-.21,1.21-.13,2.42-.26,3.63-.39,5.1,23.47,4.51,71.1,5.04,78.29Z"/><path d="M125.94,56.02c0,.34.02.69.03,1.04-1.85.21-3.74-.07-4.05-2.36-.12-1.12.47-2.13,1.38-2.65.86-.07,1.71-.13,2.57-.18.01.85.03,1.71.04,2.57,0,.53.02,1.06.03,1.59Z"/><path d="M328.68,40.32c.05.49-.05.97-.25,1.4-.02.05-.05.11-.08.16v.02s-.06.09-.09.14c-.03.05-.06.1-.1.15,0,.01-.02.02-.02.03-.05.07-.11.14-.16.2-.03.03-.05.06-.09.09-.07.07-.14.14-.21.19-.02.02-.05.04-.07.06-.03.03-.07.05-.1.08-.09.06-.18.12-.27.17-.05.03-.11.06-.16.08-.27.12-.57.2-.88.22-.56.04-1.13.08-1.69.12-1.84.13-3.67.26-5.51.39-3.57.26-7.13.53-10.7.8-1.78.14-3.57.27-5.35.41-1.78.14-3.56.27-5.35.4-11.26.84-22.53,1.67-33.79,2.51-11.31.85-22.63,1.65-33.94,2.52-11.41.89-22.84,1.7-34.25,2.55-10.93.81-21.86,1.64-32.79,2.44-11.07.81-22.14,1.65-33.21,2.47-1.21.09-2.41.18-3.62.27-1.03.08-2.06.15-3.1.23-.5.04-1,.09-1.51.09-.31,0-.61-.06-.9-.17-.09-.04-.17-.08-.25-.12-.06-.03-.11-.06-.17-.1-.06-.03-.11-.07-.16-.11h0s-.06-.05-.08-.07c-.04-.03-.09-.07-.13-.11-.6-.54-.98-1.35-.95-2.18.05-1.13.75-2.01,1.62-2.41.28-.13.57-.2.87-.22.37-.03.73-.06,1.1-.1,1.18-.1,2.35-.19,3.53-.27,2.16-.16,4.32-.3,6.48-.46,5.57-.42,11.13-.83,16.7-1.24,10.92-.81,21.83-1.62,32.75-2.43,11.35-.85,22.69-1.69,34.04-2.53,11.39-.84,22.79-1.69,34.18-2.54,11.19-.84,22.39-1.66,33.58-2.5,10.85-.81,21.7-1.6,32.55-2.42.6-.05,1.2-.09,1.8-.14,1.86-.14,3.73-.28,5.59-.42.71-.05,1.43-.1,2.14-.15,1.49-.1,2.85.97,2.99,2.49Z"/><path d="M254.75,165.59c0,.13,0,.26-.02.39-1.8.14-3.61.26-5.41.39-.04-.16-.06-.32-.06-.49-.17-7.94-.3-15.89-.46-23.83-.2-10.34-.4-20.68-.59-31.01-.21-11.03-.43-22.07-.64-33.1-.11-5.72-.17-11.44-.33-17.16,0-.12,0-.23.01-.35,1.79-.19,3.59-.37,5.38-.55.06.19.09.4.1.61.13,4.63.18,9.27.26,13.9.11,5.61.22,11.21.32,16.82.2,10.6.41,21.19.61,31.78.19,10.05.39,20.1.58,30.15.08,4.05.15,8.11.23,12.16,0,.05,0,.11,0,.16v.13Z"/><path d="M310.94,53.99v5.42c-.06.01-.13.02-.19.03-.75.11-1.51.15-2.26.22-1.3.14-2.6.27-3.9.4-4.53.46-9.06.93-13.58,1.4-9.88,1.01-19.75,2.03-29.63,3.05-4.66.49-9.33.95-14,1.43-.03-1.72-.07-3.45-.12-5.17,0-.12,0-.23.01-.35,7.55-.79,15.11-1.54,22.66-2.32,9.87-1.01,19.74-2.02,29.6-3.05,2.39-.25,4.78-.49,7.17-.74.73-.08,1.45-.15,2.18-.22.51-.05,1.03-.15,1.54-.16h.02c.17,0,.34.02.5.05Z"/><path d="M310.94,155.05v6.05c-1.83.09-3.67.2-5.5.31V54.45l1.25-.13c.73-.08,1.45-.15,2.18-.22.51-.05,1.03-.15,1.54-.16h.02c.17,0,.34.02.5.05v101.06Z"/><path d="M310.94,155.61v5.49c-16.42.83-32.78,2.66-49.13,4.29-4.16.4-8.32.7-12.49.99-.04-.16-.06-.32-.06-.49-.03-1.66-.07-3.33-.1-5,7.5-.51,14.99-1.19,22.47-2.02,13.08-1.26,26.18-2.68,39.31-3.25Z"/><path d="M337.05,221.4c.29.21.58.43.88.64-.89.05-1.78.09-2.67.14-.85.06-1.69.13-2.54.19-1.1.08-2.2.17-3.31.26-.81.06-1.61.13-2.41.19-11.26.91-22.56,1.93-33.79,2.68-1.05.07-2.1.13-3.14.19-.9.05-1.79.11-2.68.16-1.2.07-2.41.14-3.61.2-.68.04-1.37.07-2.05.11-.4.02-.8.04-1.19.06-1.02.05-2.03.1-3.05.15-1.03.05-2.06.1-3.08.14-1.07.05-2.14.1-3.21.14-.73.03-1.47.06-2.2.09-3.46.14-6.93.27-10.39.39-1.05.04-2.1.07-3.15.11-.94.03-1.89.06-2.84.09h-.31c-1.66.06-3.32.11-4.98.16-1.49.05-2.98.09-4.47.13-1.05.03-2.1.06-3.15.09-3.15.09-6.3.18-9.45.27l-5.45.16c-.41.01-.81.02-1.22.04-1.49.04-2.97.09-4.46.14-1.54.05-3.08.1-4.62.15-.9.03-1.79.06-2.69.09-1.28.04-2.56.09-3.85.14-2.82.1-5.63.21-8.45.33-1.06.04-2.11.09-3.17.13-1.29.06-2.59.12-3.88.18-.55.03-1.09.07-1.64.09-.78.04-1.56.08-2.33.12-1.56.07-3.12.13-4.68.18-.58.02-1.16.04-1.73.05s-1.16.03-1.74.05c-.66.02-1.32.03-1.99.05-1.2.03-2.41.05-3.61.07-.06,0-.13,0-.19,0-.85.02-1.7.03-2.55.04-.48,0-.96.02-1.44.02-.66,0-1.33.02-1.99.03-1,.01-1.99.03-2.99.05-.66,0-1.33.02-1.99.03-.33,0-.66.01-1,.02l-1.89.04c-.7.02-1.4.03-2.09.05-.27,0-.54.01-.82.02-1.42.04-2.85.09-4.27.14-.96.04-1.92.08-2.87.12-.84.04-1.68.08-2.51.13-.26.02-.52.03-.78.05-1.89.11-3.77.24-5.64.4-.33.03-.66.06-.99.09-.99.09-1.98.18-2.97.29l-.94.1c-.52.06-1.04.12-1.56.18-.28.03-.57.07-.85.11-.76.09-1.53.19-2.29.3-.27.04-.54.08-.81.12-.81.12-1.62.24-2.43.37-.28.06-.55.12-.82.18-.58.13-1.14.26-1.68.4-.22.06-.45.12-.66.18-.19.05-.39.1-.57.16-.23.07-.47.13-.7.2-.23.07-.45.14-.67.21-.18.06-.35.11-.53.17-.15.05-.29.1-.43.14-.21.07-.41.15-.61.22-.22.08-.43.16-.64.24-.21.08-.42.16-.63.25-.2.08-.39.16-.59.24-.22.1-.44.19-.65.29-.18.08-.36.16-.53.25-.19.09-.37.18-.55.27-.12.06-.23.12-.35.18-.11.05-.21.11-.31.17-.31.17-.61.34-.9.52-.17.1-.33.2-.49.3-.16.1-.32.2-.47.31-.97.64-1.83,1.33-2.6,2.06-.09.08-.18.17-.27.26-.11.1-.21.2-.31.31-.27.28-.53.57-.78.86-.08.09-.16.19-.23.28-.09.11-.17.21-.25.32-.17.22-.33.44-.49.66-.06.09-.12.18-.18.27-.07.1-.13.19-.19.29-.08.13-.16.25-.23.38h0c-.08.13-.15.26-.22.39-.09.15-.17.29-.24.44-.07.14-.14.27-.21.42-.07.14-.14.28-.2.42-.15.32-.29.65-.42.98-.04.12-.09.23-.13.34h0c-.04.12-.08.23-.12.35-.02.05-.04.1-.05.15-.04.12-.08.23-.11.35-.04.12-.08.24-.11.37-.04.12-.07.23-.1.35-.05.17-.09.34-.14.52-.03.12-.06.24-.09.36-.06.26-.12.52-.17.79l-.07.38c-.03.16-.06.32-.08.48-.03.18-.06.35-.08.53-.02.15-.04.29-.06.44-.01.07-.02.15-.03.22-.02.13-.03.26-.05.39-.02.22-.05.45-.07.68,0,.11-.02.22-.03.33-.01.16-.03.32-.04.48-.03.48-.06.97-.07,1.46,0,.24-.01.49-.02.73-.01.7,0,1.42,0,2.14,0,.23,0,.46.02.69,0,.07,0,.13,0,.2.02.47.04.95.06,1.43,0,.16.02.31.03.47.19,3.38.56,6.94.86,10.63.02.25.04.5.06.75.1,1.26.18,2.53.24,3.81.01.25.03.51.04.77.02.43.04.87.05,1.3.04,1.27.06,2.55.03,3.83.07,1.4.13,2.8.19,4.21.27,6.12.52,12.25.72,18.37h0c.05,1.32.09,2.65.13,3.97.08,2.46.14,4.93.2,7.39,0,.48.02.95.03,1.43.02.98.04,1.95.06,2.93.02,1.05.04,2.09.05,3.14.01.65.02,1.3.03,1.95,0,.55.01,1.11.02,1.66,0,.7.02,1.4.02,2.1,0,1.12.02,2.24.02,3.36,0,1.27,0,2.53,0,3.8,0,4.52-.04,9.04-.13,13.56-.02,2.02-.03,4.06-.04,6.09-.06,13.33.14,26.87.74,40.19.04,1.04.09,2.08.15,3.12,0,.05,0,.1,0,.15.04.79.08,1.57.13,2.35.13,2.43.27,4.86.44,7.27.09,1.31.18,2.63.28,3.94.01.17.03.33.04.5.07.91.14,1.82.22,2.72.16,1.91.32,3.81.49,5.71-.34-.06-.69-.13-1.03-.19-.23-.04-.46-.09-.69-.13-.3-.06-.59-.12-.89-.18l-.09-.02c-.47-.1-.94-.19-1.42-.3-.41-.09-.82-.18-1.23-.28-.14-.03-.27-.06-.4-.1-.14-1.92-.27-3.84-.4-5.76l-.09-1.42c-.05-.7-.09-1.39-.13-2.09-.1-1.69-.2-3.39-.28-5.09-.04-.8-.08-1.6-.12-2.39-.04-.74-.07-1.49-.11-2.23-.08-1.74-.15-3.47-.22-5.21-.05-1.37-.11-2.74-.15-4.11-.14-4.01-.24-8.03-.33-12.04-.02-.77-.04-1.54-.05-2.31-.03-1.54-.06-3.08-.09-4.62,0-.56-.02-1.13-.03-1.69-.02-.98-.03-1.96-.04-2.93-.02-1.08-.03-2.15-.04-3.23,0-.8-.02-1.6-.03-2.4,0-.8-.02-1.6-.03-2.4-.08-8.11-.12-16.22-.17-24.33,0-1.28-.02-2.57-.03-3.86,0-.43,0-.86,0-1.28,0-1.37-.02-2.74-.03-4.11,0-.82-.01-1.64-.02-2.45-.02-1.5-.03-2.99-.05-4.48,0-.77-.02-1.54-.03-2.31,0-.77-.02-1.54-.03-2.31,0-.77-.02-1.54-.03-2.31,0-.77-.02-1.54-.04-2.31-.02-1.54-.05-3.08-.08-4.62-.02-.77-.03-1.54-.05-2.31-.01-.78-.03-1.56-.05-2.34-.02-.76-.04-1.52-.06-2.28,0-.38-.02-.76-.03-1.14-.02-.8-.04-1.6-.07-2.4-.02-.56-.03-1.13-.05-1.69-.02-.57-.03-1.14-.05-1.7-.07-2.07-.14-4.14-.22-6.21-.03-.75-.06-1.49-.09-2.24-.04-.85-.07-1.71-.11-2.56-.03-.59-.05-1.19-.08-1.78-.02-.36-.03-.71-.05-1.07-.04-.77-.08-1.54-.12-2.31s-.08-1.54-.13-2.31c-.08-1.51-.17-3.01-.26-4.52-.05-.8-.1-1.6-.16-2.39-7.79-44.07,32.36-41.15,63.69-42.09,52.03-2.1,104.33-2.32,156.17-6.96.33-.03.65-.06.98-.09.83-.07,1.66-.15,2.48-.23.68-.06,1.35-.12,2.02-.18.31-.03.62-.05.92-.08.24-.02.49-.04.73-.06s.48-.04.72-.06c.15-.01.29-.02.44-.03.83.6,1.65,1.21,2.48,1.81.87.63,1.73,1.26,2.6,1.89.32.23.65.47.97.71Z"/><path d="M374.95,282.12c.63,34.49.83,68.99-.14,103.47-.1,3.89-.2,7.79-.3,11.69-.04,1.46-.08,2.92-.12,4.38-.02.59-.03,1.19-.05,1.79-.05,1.84-.1,3.69-.16,5.53-.84.08-1.68.16-2.53.22-1,.08-2,.16-3.01.23.06-1.84.12-3.69.17-5.53.04-1.14.07-2.29.1-3.43.1-3.39.19-6.78.28-10.18.04-1.4.07-2.8.11-4.2.01-.48.02-.96.04-1.44.03-1.26.06-2.53.09-3.79.03-1.2.06-2.4.08-3.6.04-1.78.08-3.55.11-5.33.07-3.55.14-7.1.19-10.66.32-23.17.26-46.35-.23-69.52-.31-12.93.1-25.97-.86-38.88-.04-.51-.08-1.02-.12-1.53-.11-1.34-.24-2.68-.39-4.02-.12-1.13-.25-2.25-.4-3.38,1.1.81,2.2,1.62,3.3,2.42.28.2.55.41.83.61.7.52,1.4,1.03,2.1,1.54h0c.03.39.06.77.09,1.15,0,.02,0,.05,0,.07,0,.11.01.21.02.32.02.35.05.7.07,1.05.08,1.25.15,2.49.2,3.74,0,.2.02.4.03.6,0,.07,0,.13,0,.2,0,.12,0,.23.02.35,0,.2.01.41.02.61.03.98.06,1.95.09,2.92,0,.39.02.78.03,1.17,0,.17,0,.34,0,.5,0,.38.01.76.02,1.13,0,.75.02,1.5.03,2.24,0,.62.01,1.23.02,1.83,0,.75,0,1.48.01,2.21,0,.38,0,.76,0,1.13,0,.79,0,1.56,0,2.32,0,.68,0,1.35.01,2.01,0,.61,0,1.21.02,1.8,0,.33,0,.65.01.96,0,.64.02,1.26.04,1.86,0,.3.02.6.03.9.03.89.06,1.73.11,2.54Z"/><path d="M432.81,327.8c3.19,19.93-1.8,40.65-12.83,57.48-6.29,9.72-16.74,16.47-27.74,19.16-.8.19-1.78.52-2.76.76-2.09.51-4.23.6-4.87-1.88-.18-.94.15-1.84.78-2.46h0c.16-.16.33-.29.53-.41.06-.04.12-.07.18-.1.05-.03.09-.05.14-.07.05-.03.1-.05.16-.07t0,0c.06-.02.12-.04.18-.06.07-.02.14-.04.2-.05.21-.05.43-.09.64-.14l.49-.11.3-.07c2.97-.69,5.97-1.54,8.75-2.63,4.89-1.95,9.33-4.93,13.17-8.51h0c.06-.06.12-.11.18-.17,10.46-10.97,15.33-26.15,17.73-40.84.99-10.24-1.18-20.45-1.65-30.67-.21-2.95-.47-5.89-.75-8.82-.06-.59-.11-1.17-.18-1.76-.06-.58-.12-1.17-.18-1.76-.12-1.14-.24-2.28-.37-3.42,0,0,0-.01,0-.02-1.52-13.47-3.57-26.82-5.33-40.24-.72-6.49-1.35-13-1.94-19.52h0c-.29-3.2-.57-6.38-.85-9.57-.11-1.2-.21-2.39-.32-3.59-.38-4.39-.77-8.78-1.18-13.16-.14-1.46-.27-2.92-.41-4.39-.19-1.97-.38-3.93-.58-5.89-.09-.91-.19-1.82-.28-2.73-.07-.68-.14-1.36-.21-2.03-.01-.1-.02-.2-.03-.29-.06-.54-.12-1.08-.18-1.62-.27-2.49-.56-4.98-.87-7.47-.11-.85-.21-1.7-.32-2.54-.1-.76-.19-1.52-.3-2.28-.09-.67-.18-1.35-.27-2.02-.07-.51-.14-1.01-.21-1.52-.1-.72-.2-1.45-.31-2.17-.08-.54-.16-1.08-.24-1.62-.04-.3-.09-.59-.14-.89-.09-.57-.17-1.14-.26-1.71,0-.08-.02-.15-.03-.23-.11-.67-.21-1.34-.32-2-.12-.74-.24-1.48-.37-2.22-2.02-13.5-2.44-27.61-4.11-41.05-2.25-17.73-5.13-35.36-8.69-52.87-.07-.47-.15-.93-.22-1.39l-.11-.66c-.15-.9-.3-1.77-.46-2.63-.08-.45-.17-.89-.25-1.32-.01-.06-.02-.12-.04-.18-.05-.23-.09-.46-.14-.69-.05-.23-.09-.46-.14-.68-.07-.3-.13-.6-.2-.9-.09-.4-.18-.79-.27-1.18,0,0,0,0,0,0-.05-.22-.11-.45-.16-.67-.11-.44-.22-.88-.34-1.3-.06-.21-.11-.43-.17-.63-.06-.21-.12-.42-.18-.62-.06-.21-.12-.41-.18-.62-.05-.18-.11-.37-.17-.55-.07-.22-.14-.43-.2-.65-.06-.19-.12-.39-.19-.58-.07-.19-.13-.39-.19-.57-.06-.19-.13-.38-.2-.56-.13-.37-.26-.73-.4-1.09,0,0,0,0,0-.01-.07-.18-.14-.36-.21-.54-.07-.18-.14-.35-.21-.53-.07-.18-.14-.35-.22-.52-.17-.4-.34-.79-.52-1.16-.2-.44-.41-.87-.63-1.28-.16-.31-.32-.61-.49-.91,0,0,0,0,0,0-.08-.14-.16-.27-.23-.41-.09-.16-.18-.31-.27-.47-.08-.15-.17-.29-.26-.43-.09-.14-.18-.28-.26-.42-.18-.28-.36-.55-.54-.81-.18-.26-.37-.53-.56-.78-.1-.13-.19-.26-.29-.39-.19-.24-.39-.49-.59-.72-.19-.22-.38-.45-.58-.66-.22-.24-.44-.47-.66-.7-.1-.11-.2-.21-.31-.31-.13-.12-.25-.24-.37-.35-.21-.2-.43-.39-.65-.58-.09-.08-.19-.16-.28-.23-.52-.43-1.05-.84-1.6-1.22-.08-.06-.17-.12-.25-.17-.2-.14-.4-.27-.6-.39-.19-.12-.39-.24-.58-.35h0c-4.76-2.79-10.81-4.13-18.58-4.58,0,0-.01,0-.02,0-.12,0-.23-.01-.35-.02-.31-.02-.63-.03-.94-.05-.38-.02-.77-.04-1.16-.05-.06,0-.12,0-.18,0-1.11-.04-2.25-.06-3.43-.07-.63,0-1.27,0-1.92,0-.44,0-.89,0-1.34,0s-.91,0-1.37.02c-.69.01-1.39.03-2.1.05-3.27,0-6.54.11-9.8.3-1.09-.02-2.46.22-3.71.19-.07,0-.13,0-.19,0-.17,0-.34-.03-.5-.05-.4-.06-.78-.16-1.12-.32-.65-.32-1.15-.9-1.37-1.88-.23-1.98.82-2.79,2.25-3.12,1.54-.36,3.53-.18,4.91-.33,4.63-.26,9.26-.3,13.89-.24,3.18-.09,6.18-.07,8.98.09,23.54,1.28,34.17,11.61,38.4,38.44,3.93,19.61,7.25,39.32,9.63,59.18,1.28,12.09,1.81,24.9,3.57,36.79,4.92,29.72,6.48,60.02,9.68,89.9,3.14,22.57,6.32,45.15,7.83,67.91Z"/><path d="M89.83,396.01c-3.13-.96-11.16,1.47-9.76-4.16-.73-5.13-.67-10.4-.89-15.59-.58-3.48,1.75-7.02,5.52-6.65,3.75.35,9.35-1.41,11.82,2.15,2.54,5.89,1.25,12.69,1.56,18.94.75,4.75-4.53,6.16-8.26,5.3ZM92.59,390.69c-.05-5.17.34-10.42-.57-15.53,0,0,0,0,0,0-2.45-.1-4.94-.19-7.39-.03.13,5.02.27,10.04.68,15.04,2.44-.02,4.84.49,7.27.53ZM80.64,389.25c.36-.4.82-.69,1.27-.83-.49.16-.94.43-1.27.83Z"/><path d="M395.64,379.62c-16.32-.47-13.09,2.68-15.1-16.62-.45-3.04.48-6.8,3.99-7.35,4.78-1.03,9.73-1.21,14.61-1.32,7.55.53,4.45,10.51,4.67,15.52.17,6.62-.33,10.54-8.17,9.77ZM391.62,374.04c1.78.02,3.55.1,5.32.12.42,0,.85,0,1.27-.02-.02-5.06.6-9.55.43-14.31-4.24.11-8.5.3-12.67,1.12.09,4.39.53,8.71,1.16,13.03,1.5.03,3,.05,4.49.06Z"/><path d="M398.64,359.83c.17,4.77-.45,9.25-.43,14.31-.42.02-.85.03-1.27.02-1.77-.03-3.55-.1-5.32-.12-1.5-.02-3-.04-4.5-.07-.62-4.32-1.07-8.64-1.16-13.03,4.16-.82,8.43-1,12.67-1.12Z" fill="#404040"/><path d="M92.02,375.16c.92,5.11.53,10.36.57,15.53-2.43-.04-4.84-.54-7.27-.53-.41-5-.55-10.02-.68-15.04,2.45-.16,4.93-.07,7.38.03Z" fill="#404040"/><path d="M330.48,41.52c.54,12.26.41,24.83-.22,37.03-.57,12.02-1.35,24.01-1.96,36.03-.44-7.75-.09-46.83-3.8-71.15.56-.04,1.13-.08,1.69-.12,1-.07,1.83-.73,2.23-1.59.68-.07,1.37-.14,2.05-.2Z" fill="#404040"/><path d="M417.65,241.42c-.74-5.12-1.48-10.23-2.2-15.35-1.15-8.21-2.27-16.43-3.38-24.66-.53-3.93-1.05-7.87-1.58-11.8-.08-.6-.16-1.23-.24-1.86-.02-.15-.04-.29-.06-.44-.05-.37-.13-1.01-.22-1.65-.39-3.01-.79-6.01-1.19-9.02-.57-4.3-1.19-8.98-1.86-13.65-2.28-15.87-4.81-31.71-7.41-47.54-2.46-14.98-5.1-29.93-8.73-44.69-.84-3.43-1.71-6.85-2.64-10.26-.47-1.71-.93-3.41-1.43-5.11-.48-1.66-1.03-3.29-1.79-4.85-.84-1.73-1.96-3.37-3.18-4.85,0,0-.02-.02-.02-.03,8.42,4.94,12.79,14.46,15.42,31.86,3.56,17.51,6.45,35.14,8.69,52.87,1.67,13.44,2.08,27.56,4.11,41.05,3.87,23.1,5.56,46.57,7.69,69.97Z" fill="#c2caae"/><path d="M426.41,316.96c.48,10.22,2.64,20.43,1.65,30.67-2.41,14.68-7.27,29.86-17.73,40.84-.06.06-.12.11-.18.17,1.32-1.85,2.53-3.78,3.6-5.78,1.92-3.6,3.56-7.31,4.93-11.15,2.72-7.6,4.4-15.55,5.38-23.55,1.01-8.24,1.45-16.55,1.46-24.86,0-7.38-.15-14.76-.59-22.12.59,5.24,1.1,10.49,1.49,15.78Z" fill="#c2caae"/><path d="M110.02,300.64v.96s-.02.49-.02.49l-.02.5-.02.5-.02.5-.03.51v.05c-.2-6.13-.45-12.25-.72-18.38l.02.18.04.49.05.51.04.5.04.5.04.5.04.51.04.51.04.52.04.51.04.51.03.52.04.52.03.54.03.54.03.55.03.55.03.56.03.56.03.56.03.56.02.55.02.54.02.54.02.52v.52s.02.52.02.52v.5s0,.5,0,.5Z" fill="#e4d09b"/><path d="M111.67,388.96v.42s0,.44,0,.44v.46s-.03.48-.03.48l-.03.49-.04.5-.05.51-.05.51-.06.52-.07.53-.07.53-.08.52-.08.5-.06.36c-.6-13.32-.79-26.87-.74-40.19v.21s.02.51.02.51l.02.51v.49s.03.48.03.48l.02.46.02.45.02.45.02.46.02.45.02.44.02.44.02.43.02.43.02.43.02.42.02.41.02.4.03.39.02.39.02.4.03.38.02.38.02.37.02.38.02.39.02.4.02.41.02.41v.43s.03.45.03.45v.48s.02.49.02.49v.51s.02.52.02.52v.53s.02.54.02.54v.55s.03.56.03.56l.02.55.02.54.02.53.02.52.02.5.02.49.02.47.02.45.02.42.02.41.02.4.02.38.02.37.02.36.02.35.02.35.02.34v.35s.03.34.03.34v.34s.02.33.02.33v.33s.02.33.02.33v.33s.02.33.02.33v.32s.02.31.02.31v.31s.02.31.02.31v.32s.02.32.02.32v.31s.03.32.03.32v.32s.03.33.03.33l.02.34.02.34.02.34.02.36v.37s.03.38.03.38v.4s.01.41.01.41Z" fill="#e4d09b"/><path d="M207.98,228.69l-.34.02-.81.04-.84.04-.86.04-.86.04-.86.04-.85.04-.84.04-.85.05-.84.05-.55.03.05-.11c2.81-.12,5.63-.23,8.45-.33Z" fill="#e4d09b"/><path d="M190.89,325.57c.02,2.88.03,5.77.05,8.65l-.11-.34-.2-.79-.16-.82-.11-.87-.07-.9-.02-.9.03-.9.08-.89.15-.89.22-.91.15-.46Z" fill="#e4d09b"/><path d="M363.79,248.46c.22-.06.44-.12.65-.17-6.97-5.12-13.95-10.24-20.94-15.34-3.6-2.63-7.19-5.27-10.78-7.9l-.48-.35c-.72,3.48-1.43,6.96-2.18,10.43-.17.78-.34,1.55-.51,2.33-.36,3.44-2.18,8.66-.21,11.69,3.52,2.53,7.8,3.45,12.36,3.45.26,0,.53,0,.8,0,.33,0,.66-.02,1-.04.19,0,.38-.02.57-.03.16,0,.31-.02.47-.03.01,0,.03,0,.05,0,.23-.02.47-.04.7-.06.2-.02.41-.04.61-.06.49-.05.98-.11,1.47-.18.03,0,.07,0,.1-.01.24-.03.49-.07.73-.1.24-.04.49-.07.73-.11.24-.04.49-.08.73-.12.74-.13,1.47-.26,2.21-.41.48-.1.96-.2,1.44-.3.74-.16,1.47-.33,2.2-.51.23-.06.47-.11.7-.17,1.52-.37,3.02-.77,4.48-1.15.35-.09.69-.18,1.03-.28.71-.19,1.4-.37,2.09-.55ZM369.57,291.74c.5,23.17.55,46.35.23,69.52-.24,14.21-.55,28.42-.99,42.63-.32.02-.63.05-.95.07-2.56.2-5.11.39-7.66.58-5.2.39-10.4.79-15.61,1.17-16.07,1.2-32.15,2.38-48.23,3.45-8.03.54-16.06,1.09-24.09,1.66-8.14.58-16.28,1.15-24.42,1.85-7.81.67-15.61,1.41-23.41,2.24-7.85.83-15.69,1.67-23.56,2.3-8,.64-16.02,1.03-24.04,1.38-8.17.37-16.34.68-24.52.68-5.33-.03-10.72-.18-16.11-.52-5.14-.32-10.25-.89-15.36-1.57-.36-.05-.72-.1-1.07-.16-.36-.05-.72-.11-1.07-.16-.06,0-.12-.02-.18-.03-.35-.05-.7-.11-1.04-.17-.13-.02-.25-.04-.38-.06-.54-.09-1.07-.18-1.61-.27-.36-.06-.71-.12-1.07-.18s-.71-.13-1.07-.19c-.35-.06-.71-.13-1.06-.2-.08-.9-.15-1.81-.22-2.72-.01-.17-.03-.33-.04-.5l1.77,2.8v-.33s0-.56,0-.56v-.72s.01-.8.01-.8l.02-.84.03-.86.05-.89.07-.93.1-.96.14-.98.19-1,.23-1.01.29-1.01.33-1,.37-.98.4-.93.42-.88.44-.82.45-.76.47-.71.49-.66.49-.59.49-.54.49-.48.5-.43.51-.39.54-.35.54-.3.57-.27.59-.24.61-.21.66-.19.7-.18.72-.16.75-.15.77-.14.79-.12.83-.11.84-.1.83-.08.81-.07.79-.05.77-.04.78-.02h.78s.75.02.75.02l.73.03.73.05.73.06.76.08.79.08.79.08.81.07.82.05.84.03h.88s.89-.01.89-.01l.88-.04.87-.06.85-.08.82-.09.81-.11.77-.11.72-.11.67-.11.62-.11.58-.1.54-.1.51-.1.47-.09.44-.09.41-.09.38-.1.36-.1.35-.11.34-.12.33-.14.32-.15.31-.18.32-.2.31-.23.3-.25.3-.27.29-.29.28-.31.27-.32.26-.33.25-.33.23-.32.21-.32.2-.31.18-.31.18-.3.16-.3.15-.29.13-.28.11-.28.09-.28.07-.28.05-.28.03-.28v-.28s-.02-.28-.02-.28l-.05-.29-.08-.29-.11-.29-.13-.29-.16-.3-.18-.3-.2-.31-.23-.32-.24-.33-.26-.33-.28-.35-.3-.35-.31-.37-.33-.39-.34-.4-.35-.42-.36-.43-.37-.45-.38-.47-.39-.49-.39-.5-.39-.5-.38-.51-.38-.51-.37-.52-.37-.52-.34-.51-.32-.5-.3-.49-.28-.48-.26-.48-.23-.48-.21-.48-.18-.48-.16-.48-.13-.49-.1-.52-.06-.54v-.55s.03-.57.03-.57l.1-.58.15-.58.22-.6.28-.6.33-.59.37-.57.41-.55.44-.53.48-.52.51-.5.52-.47.52-.44.53-.41.54-.39.56-.37.56-.34.55-.32.56-.29.56-.27.55-.24.57-.22.59-.2.6-.17.62-.15.65-.12.68-.09.74-.07.81-.04.87-.02h.92s.97,0,.97,0h1.03s1.08,0,1.08,0h1.11s1.1-.04,1.1-.04l1.08-.04,1.06-.06,1.03-.08,1.02-.09.99-.11.94-.12.89-.13.84-.14.81-.15.8-.17.79-.18.77-.2.38-.11c6.51,5.89,13.01,11.78,19.53,17.67,5.79,5.23,11.58,10.47,17.36,15.71,1.36,1.23,2.72,2.46,4.08,3.69,1.21-1.38,2.41-2.76,3.62-4.14h0c4.1-4.68,8.19-9.37,12.28-14.05,4.76-5.45,9.53-10.9,14.29-16.35,1.09-1.25,2.19-2.5,3.28-3.76.54-.61,1.07-1.23,1.61-1.84,3.15-3.6,6.3-7.21,9.46-10.81.61-.7,1.22-1.4,1.83-2.09,1-1.15,2-2.29,3-3.43.73-.84,1.45-1.71,2.21-2.54-.66.05-1.31.11-1.97.17-1.98.18-3.96.36-5.94.54-.8.07-1.59.14-2.39.21-2.72.24-5.45.49-8.17.73-.1-5.43-.19-10.86-.29-16.29-.18-10.18-.36-20.36-.55-30.53-.12-6.56-.26-13.12-.38-19.68-.03-1.83-.06-3.67-.09-5.5-1.83.1-3.66.21-5.48.31h0c-1.59.09-3.17.18-4.75.27l-.13-.23-.16-.3-.15-.31-.14-.31-.13-.3-.11-.3-.1-.31-.08-.33-.06-.35-.03-.36v-.36s.05-.37.05-.37l.09-.38.14-.38.2-.39.26-.4.31-.39.36-.39.42-.39.47-.38.53-.39.56-.38.59-.37.61-.37.63-.36.63-.35.65-.36.65-.35.62-.34.59-.32.55-.3.51-.28.47-.26.44-.25.4-.23.37-.22.34-.2.31-.19.29-.18.26-.18.24-.18.22-.18.2-.19.18-.2.16-.21.14-.22.12-.24.09-.24.07-.25.04-.26v-.27s0-.28,0-.28l-.05-.29-.08-.29-.11-.28-.13-.28-.16-.27-.17-.26-.18-.24-.18-.23-.18-.21-.18-.19-.18-.18-.17-.17-.17-.16-.16-.15-.15-.15-.15-.14-.15-.13-.14-.13-.14-.13-.13-.13-.13-.14-.12-.15-.11-.16-.09-.17-.06-.17-.04-.17v-.17s0-.17,0-.17l.05-.16.07-.15.1-.15.12-.13.13-.12.15-.11.17-.1.18-.09.19-.08.21-.07.22-.07.24-.06.25-.06.27-.06.28-.06.29-.07.31-.08.31-.09.32-.1.33-.11.33-.13.32-.14.31-.15.3-.16.28-.17.27-.18.25-.17.23-.18.21-.18.2-.19.18-.19.16-.2.14-.2.12-.2.09-.19.08-.2.05-.19.04-.19.02-.18v-.18s0-.18,0-.18l-.02-.17-.04-.17-.05-.17-.06-.17-.06-.17-.07-.16-.08-.16-.08-.16-.09-.16-.09-.15-.09-.15-.1-.15-.1-.14-.1-.14-.11-.14-.11-.14-.11-.13-.1-.12-.1-.12-.1-.12-.1-.11-.1-.11-.11-.11-.1-.11-.1-.11-.11-.11-.11-.11-.11-.11-.12-.11-.12-.11-.12-.11-.12-.11-.12-.12-.12-.11-.13-.12-.13-.12-.13-.12-.12-.12-.12-.12-.12-.12-.12-.12-.12-.11-.11-.11-.11-.11-.11-.11-.11-.11-.1-.11-.1-.1-.1-.1-.1-.1-.09-.1-.09-.1-.09-.09-.09-.09-.08-.09-.08-.08-.08-.08-.08-.08-.08-.08-.08-.07-.07-.07-.08-.07-.07-.07-.07-.07-.07-.07-.07-.06-.07-.06-.07-.06-.07-.06-.07-.06-.07-.06-.07-.06-.07-.06-.07-.06-.08-.06-.09-.06-.09-.06-.1-.06-.11-.07-.11-.06-.12-.07-.13-.06-.13-.06-.14-.06-.14-.06-.15-.05-.15-.05-.15-.05-.16-.04-.17-.04-.17-.04-.17-.04-.17-.03-.18-.03-.18-.03-.18-.03-.18-.02h-.03c.95-.03,1.9-.06,2.84-.1,1.05-.03,2.1-.07,3.15-.11,3.46-.12,6.93-.24,10.39-.39.73-.03,1.47-.06,2.2-.09,1.07-.04,2.14-.09,3.21-.14,1.03-.05,2.06-.09,3.08-.14,1.01-.05,2.03-.1,3.05-.15.4-.02.79-.04,1.19-.06.68-.04,1.37-.07,2.05-.11,1.2-.06,2.41-.13,3.61-.2.9-.05,1.79-.11,2.68-.16,1.05-.06,2.1-.13,3.14-.19,11.23-.75,22.53-1.77,33.79-2.68.8-.06,1.61-.13,2.41-.19,1.1-.09,2.2-.18,3.31-.26.85-.07,1.69-.13,2.54-.19.89-.05,1.77-.09,2.67-.14h0c1.63,1.2,3.26,2.39,4.89,3.59,1.93,1.41,3.85,2.82,5.78,4.23,6.4,4.69,12.8,9.38,19.2,14.07,0,0,0,.02,0,.03.15,1.11.28,2.23.4,3.35.15,1.34.27,2.68.39,4.02.04.51.08,1.02.12,1.53.96,12.91.55,25.95.86,38.88Z" fill="#e4d09b"/><path d="M254.67,90.46v.6s0,.32,0,.32v.34s-.02.35-.02.35l-.02.38-.02.39-.02.4-.02.39-.03.39-.03.39-.03.4-.03.4-.03.39-.03.38-.03.37-.03.36-.03.36-.03.36-.03.35-.03.36-.03.35-.03.36-.03.37-.03.38-.03.38-.02.39-.02.4-.02.4-.02.41-.02.43-.02.42-.02.43-.02.42-.02.42-.02.42-.02.42-.02.4-.02.39-.02.37-.02.36-.02.35-.02.33-.02.32v.31s-.03.3-.03.3l-.02.3-.02.31v.08c-.12-5.72-.22-11.44-.33-17.16-.09-4.64-.18-9.27-.27-13.91v.11s.05.37.05.37l.04.36.04.34.04.33.04.32.04.32.04.32.04.32.04.32.04.31.04.31.04.31.04.32.04.32.04.31.04.3.04.3.04.28.04.27.04.27.04.26.04.24.04.23.03.23.04.22.04.22.04.21.04.21.04.21.04.21.04.21.04.21.04.21.03.22.04.22.03.22.03.23.03.23.03.23.02.24.02.23.02.23.02.24v.24s.03.25.03.25v.25s.02.26.02.26v.27s0,.28,0,.28Z" fill="#848a77"/><path d="M289.17,61.65l-.45.1-.58.12-.56.11-.53.1-.51.09-.51.08-.49.07-.48.06-.46.05-.46.05-.46.04-.46.04-.46.03-.46.02-.45.02-.44.02h-.45s-.45.02-.45.02h-.46s-.44.01-.44.01h-.44c3.33-.34,6.65-.68,9.97-1.02Z" fill="#848a77"/><path d="M305.44,150.99v4.9c-11.29.68-22.56,1.88-33.81,2.97-2.14.24-4.28.47-6.42.68l.26-.16.26-.16.26-.16.25-.16.25-.16.25-.16.24-.16.24-.16.23-.16.22-.15.21-.15.21-.15.21-.16.2-.15.2-.15.2-.16.2-.16.2-.16.2-.17.2-.18.2-.19.2-.19.2-.2.2-.22.2-.23.19-.23.19-.23.18-.23.17-.23.17-.23.16-.23.15-.22.14-.21.13-.2.12-.19.12-.18.11-.17.1-.17.09-.16.09-.15.08-.14.08-.14.08-.14.07-.13.07-.13.07-.13.06-.13.07-.13.06-.14.07-.14.06-.14.06-.14.07-.15.06-.15.07-.15.06-.16.06-.16.06-.16.06-.16.06-.17.05-.17.05-.17.04-.17.04-.17.03-.18.02-.18.02-.19v-.19s0-.2,0-.2l-.02-.21-.03-.22-.05-.24-.07-.26-.08-.27-.1-.28-.12-.3-.13-.31-.15-.33-.16-.33-.16-.33-.16-.32-.16-.31-.15-.29-.15-.28-.15-.26-.14-.25-.13-.23-.12-.21-.12-.2-.11-.19-.1-.18-.1-.17-.09-.16-.09-.15-.08-.14-.08-.13-.07-.12-.07-.11-.06-.1-.05-.09-.04-.08-.03-.07-.02-.06v-.11s.05-.04.05-.04l.06-.04.07-.04.1-.04.12-.04.14-.04.16-.04.18-.05.2-.05.21-.06.23-.06.24-.07.24-.07.25-.08.25-.08.26-.08.26-.09.26-.09.26-.09.26-.09.26-.09.26-.1.26-.1.26-.1.25-.1.25-.11.25-.11.25-.12.25-.13.24-.13.24-.14.23-.14.22-.15.21-.15.2-.16.19-.16.18-.16.17-.16.17-.16.16-.18.16-.18.14-.19.13-.2.12-.2.11-.21.1-.22.09-.22.07-.23.06-.23.05-.23.03-.23.02-.23v-.23s0-.23,0-.23l-.02-.23-.03-.23-.05-.23-.06-.22-.08-.23-.1-.23-.11-.22-.13-.23-.14-.22-.17-.23-.18-.23-.2-.23-.21-.23-.23-.23-.24-.23-.26-.24-.27-.24-.27-.24-.28-.23-.29-.23-.3-.23-.31-.23-.32-.23-.32-.22-.32-.22-.33-.21-.34-.21-.35-.21-.36-.2-.37-.2-.37-.19-.37-.19-.38-.2-.39-.2-.39-.21-.39-.21-.38-.21-.37-.21-.36-.21-.35-.22-.34-.21-.31-.21-.3-.2-.28-.19-.26-.18-.24-.18-.23-.17-.21-.16-.2-.15-.18-.14-.18-.14-.16-.13-.15-.12-.14-.11-.13-.11-.12-.11-.11-.12-.09-.12-.07-.13-.04-.14v-.14s.03-.16.03-.16l.08-.18.13-.19.18-.21.23-.24.28-.27.34-.31.39-.34.43-.37.45-.39.47-.41.49-.43.51-.45.51-.45.51-.45.5-.44.48-.43.47-.41.46-.41.45-.39.43-.37.4-.35.38-.33.36-.32.36-.31.35-.3.34-.3.34-.29.33-.29.33-.3.34-.31.35-.33.34-.33.34-.34.33-.35.32-.35.31-.37.3-.37.28-.37.26-.36.24-.36.22-.36.19-.37.17-.36.14-.36.11-.36.08-.36.05-.36.02-.36v-.37s-.05-.36-.05-.36l-.07-.36-.09-.36-.12-.36-.15-.36-.17-.36-.18-.35-.18-.35-.18-.34-.19-.32-.18-.31-.18-.3-.17-.28-.16-.26-.15-.24-.14-.23-.13-.21-.12-.2-.11-.19-.11-.18-.1-.17-.09-.16-.08-.16-.07-.15-.06-.16-.04-.17v-.17s0-.18,0-.18l.05-.2.09-.21.14-.24.19-.25.24-.27.28-.29.33-.3.37-.3.41-.31.45-.33.49-.33.51-.34.53-.34.54-.34.56-.35.58-.37.59-.39.58-.39.56-.4.54-.4.51-.4.49-.4.45-.4.41-.38.37-.36.34-.35.31-.34.28-.33.25-.33.23-.32.2-.32.18-.31.15-.31.13-.3.11-.29.08-.28.07-.27.05-.27.03-.26v-.26s0-.25,0-.25l-.02-.25-.03-.25-.04-.25-.05-.26-.06-.27-.07-.28-.08-.28-.07-.29-.07-.28-.07-.28-.07-.27-.06-.26-.06-.24-.05-.23-.05-.22-.04-.2-.04-.19-.03-.18-.03-.18-.03-.16-.02-.16-.02-.16v-.17s0-.18,0-.18l.02-.2.05-.21.07-.22.1-.24.13-.25.17-.27.2-.29.24-.31.28-.33.32-.35.37-.37.4-.4.41-.4.42-.4.42-.4.42-.39.41-.39.4-.37.37-.34.33-.31.3-.29.28-.27.26-.24.24-.23.22-.21.2-.2.19-.19.18-.18.17-.18.17-.18.16-.19.15-.18.15-.19.14-.18.13-.18.13-.18.12-.18.12-.18.11-.17.1-.17.1-.17.1-.17.09-.17.09-.16.09-.16.08-.16.08-.16.08-.16.08-.15.08-.15.08-.15.08-.15.08-.15.09-.15.09-.15.1-.15.1-.15.11-.16.12-.15.13-.16.14-.15.14-.15.14-.15.14-.14.14-.13.14-.13.14-.12.13-.12.13-.11.13-.1.12-.1.12-.09.12-.09.11-.08.1-.08.1-.08.1-.07.1-.07.09-.07.09-.07.09-.06.08-.06.08-.06.08-.06.08-.06.08-.06.08-.06.08-.06.08-.06.08-.07.09-.08.09-.08.09-.09.1-.09.1-.1.1-.11.1-.12.1-.12.1-.12.1-.13.1-.13.09-.13.09-.13.05-.07v90.04Z" fill="#848a77"/><path d="M305.44,59.97v.98l-.05.07-.09.13-.09.13-.1.13-.1.13-.1.12-.1.12-.1.12-.1.11-.1.1-.1.09-.09.09-.09.08-.09.08-.08.07-.08.06-.08.06-.08.06-.08.06-.08.06-.08.06-.08.06-.08.06-.09.06-.09.07-.09.07-.1.07-.1.07-.1.08-.1.08-.11.08-.12.09-.12.09-.12.1-.13.1-.13.11-.13.12-.14.12-.14.13-.14.13-.14.14-.14.15-.14.15-.14.15-.13.16-.12.15-.11.16-.1.15-.1.15-.09.15-.09.15-.08.15-.08.15-.08.15-.08.15-.08.15-.08.16-.08.16-.08.16-.09.16-.09.16-.09.17-.1.17-.1.17-.1.17-.11.17-.12.18-.12.18-.13.18-.13.18-.14.18-.15.19-.15.18-.16.19-.17.18-.17.18-.18.18-.19.19-.2.2-.22.21-.24.23-.26.24-.28.27-.3.29-.33.31-.37.34-.4.37-.41.39-.42.39-.42.4-.42.4-.41.4-.4.4-.37.37-.32.35-.28.33-.24.31-.2.29-.17.27-.13.25-.1.24-.07.22-.05.21-.02.2v.18s0,.17,0,.17l.02.16.02.16.03.16.03.18.03.18.04.19.04.2.05.22.05.23.06.24.06.26.07.27.07.28.07.28.07.29.08.28.07.28.06.27.05.26.04.25.03.25.02.25v.25s0,.26,0,.26l-.03.26-.05.27-.07.27-.08.28-.11.29-.13.3-.15.31-.18.31-.2.32-.23.32-.25.33-.28.33-.31.34-.34.35-.37.36-.41.38-.45.4-.49.4-.51.4-.54.4-.56.4-.58.39-.59.39-.58.37-.56.35-.54.34-.53.34-.51.34-.49.33-.45.33-.41.31-.37.3-.33.3-.28.29-.24.27-.19.25-.14.24-.09.21-.05.2-.02.18v.17s.05.17.05.17l.06.16.07.15.08.16.09.16.1.17.11.18.11.19.12.2.13.21.14.23.15.24.16.26.17.28.18.3.18.31.19.32.18.34.18.35.18.35.17.36.15.36.12.36.09.36.07.36.04.36v.37s0,.36,0,.36l-.05.36-.08.36-.11.36-.14.36-.17.36-.19.37-.22.36-.24.36-.26.36-.28.37-.3.37-.31.37-.32.35-.33.35-.34.34-.34.33-.35.33-.34.31-.33.3-.33.29-.34.29-.34.3-.35.3-.36.31-.36.32-.38.33-.4.35-.43.37-.45.39-.46.41-.47.41-.48.43-.5.44-.51.45-.51.45-.51.45-.49.43-.47.41-.45.39-.43.37-.39.34-.34.31-.28.27-.23.24-.18.21-.13.19-.08.18-.03.16v.14s.05.14.05.14l.07.13.09.12.11.12.12.11.13.11.14.11.15.12.16.13.18.14.18.14.2.15.21.16.23.17.24.18.26.18.28.19.3.2.31.21.34.21.35.22.36.21.37.21.38.21.39.21.39.21.39.2.38.2.37.19.37.19.37.2.36.2.35.21.34.21.33.21.32.22.32.22.32.23.31.23.3.23.29.23.28.23.27.24.27.24.26.24.24.23.23.23.21.23.2.23.18.23.17.23.14.22.13.23.11.22.1.23.08.23.06.22.05.23.03.23.02.23v.23s0,.23,0,.23l-.02.23-.03.23-.05.23-.06.23-.07.23-.09.22-.1.22-.11.21-.12.2-.13.2-.14.19-.16.18-.16.18-.17.16-.17.16-.18.16-.19.16-.2.16-.21.15-.22.15-.23.14-.24.14-.24.13-.25.13-.25.12-.25.11-.25.11-.25.1-.26.1-.26.1-.26.1-.26.09-.26.09-.26.09-.26.09-.26.09-.26.08-.25.08-.25.08-.24.07-.24.07-.23.06-.21.06-.2.05-.18.05-.16.04-.14.04-.12.04-.1.04-.07.04-.06.04-.04.04v.05s-.01.06-.01.06l.02.06.03.07.04.08.05.09.06.1.07.11.07.12.08.13.08.14.09.15.09.16.1.17.1.18.11.19.12.2.12.21.13.23.14.25.15.26.15.28.15.29.16.31.16.32.16.33.16.33.15.33.13.31.12.3.1.28.08.27.07.26.05.24.03.22.02.21v.2s0,.19,0,.19l-.02.19-.02.18-.03.18-.04.17-.04.17-.05.17-.05.17-.06.17-.06.16-.06.16-.06.16-.06.16-.07.15-.06.15-.07.15-.06.14-.06.14-.07.14-.06.14-.07.13-.06.13-.07.13-.07.13-.07.13-.08.14-.08.14-.08.14-.09.15-.09.16-.1.17-.11.17-.12.18-.12.19-.13.2-.14.21-.15.22-.16.23-.17.23-.17.23-.18.23-.19.23-.19.23-.2.23-.2.22-.2.2-.2.19-.2.19-.2.18-.2.17-.2.16-.2.16-.2.16-.2.15-.2.15-.21.16-.21.15-.21.15-.22.15-.23.16-.24.16-.24.16-.25.16-.25.16-.25.16-.26.16-.26.16-.26.16c-3.52.35-7.04.66-10.56.94-.05-2.45-.09-4.89-.14-7.34-.19-10.05-.39-20.1-.58-30.15-.1-4.87-.19-9.75-.28-14.62h0s0-.09,0-.09l.02-.31.02-.3.02-.3v-.31s.03-.32.03-.32l.02-.33.02-.35.02-.36.02-.37.02-.39.02-.4.02-.42.02-.42.02-.42.02-.42.02-.43.02-.42.02-.43.02-.41.02-.4.02-.4.02-.39.03-.38.03-.38.03-.37.03-.36.03-.35.03-.36.03-.35.03-.36.03-.36.03-.36.03-.37.03-.38.03-.39.03-.4.03-.4.03-.39.03-.39.02-.39.02-.4.02-.39.02-.38v-.35s.02-.34.02-.34v-.32s0-.31,0-.31v-.57s0-.27,0-.27v-.26s-.02-.25-.02-.25v-.25s-.03-.24-.03-.24l-.02-.24-.02-.23-.02-.23-.02-.24-.03-.23-.03-.23-.03-.23-.03-.22-.04-.22-.03-.22-.04-.21-.04-.21-.04-.21-.04-.21-.04-.21-.04-.21-.04-.21-.04-.22-.04-.22-.03-.23-.04-.23-.04-.24-.04-.26-.04-.27-.04-.27-.04-.28-.04-.3-.04-.3-.04-.31-.04-.32-.04-.32-.04-.31-.04-.31-.04-.31-.04-.32-.04-.32-.04-.32-.04-.32-.04-.32-.04-.33-.04-.34-.04-.36-.04-.37v-.11c-.03-.97-.05-1.94-.07-2.91-.06-3-.1-6-.15-9,2.84-.29,5.68-.58,8.52-.87,5.95-.61,11.88-1.23,17.83-1.84h.45s.44-.01.44-.01h.46s.45-.02.45-.02h.45s.44-.03.44-.03l.45-.02.46-.02.46-.03.46-.04.46-.04.46-.05.46-.05.48-.06.49-.07.51-.08.51-.09.53-.1.56-.11.58-.12.45-.1h.01l1.81-.19c4.53-.47,9.06-.94,13.58-1.4l.86-.09Z" fill="#6b7060"/><path d="M374.47,255.64c-.26-.19-.52-.38-.78-.57-1.2-.88-2.39-1.76-3.59-2.63-1.14-.83-2.27-1.66-3.41-2.5-.75-.55-1.51-1.11-2.26-1.66-6.97-5.12-13.95-10.24-20.94-15.34-3.6-2.63-7.19-5.27-10.78-7.9l-.48-.35c-1.63-1.19-3.27-2.38-4.9-3.57-1.55-1.13-3.1-2.26-4.63-3.41.33-.03.65-.06.98-.09.83-.07,1.66-.15,2.48-.23.68-.06,1.35-.12,2.02-.18.94-.08,1.88-.16,2.81-.23.83.6,1.65,1.21,2.48,1.81.18.13.36.26.54.39.57.42,1.15.84,1.72,1.26.11.08.22.16.33.24h0c.32.23.64.47.97.71.29.21.58.43.88.64,1.63,1.2,3.27,2.39,4.9,3.59,1.93,1.41,3.85,2.82,5.78,4.23,6.42,4.7,12.84,9.41,19.26,14.12,1.08.79,2.16,1.59,3.24,2.38.07.05.15.11.22.16.2.15.41.3.61.45.7.52,1.4,1.03,2.1,1.54h0s0,0,0,0c.07.86.14,1.73.19,2.59.04.62.08,1.25.11,1.87s.06,1.25.09,1.87c.02.27.03.53.04.8Z"/><path d="M374.04,248.51c.07.86.14,1.73.19,2.59-5.37,1.82-10.83,3.36-16.37,4.58-6.6,1.24-13.32,3.09-20.08,2.24-20.2-2.84-14.91-14.12-11.96-29.23.8-3.82,1.47-7.66,2.36-11.46.94-.08,1.88-.16,2.81-.23.83.6,1.65,1.21,2.48,1.81-1.34,6.21-2.55,12.44-3.94,18.65-.36,3.44-2.18,8.66-.21,11.69,10.31,7.42,27.14.95,38.46-1.7,1.12-.33,2.22-.7,3.31-1.08.28.2.55.41.83.61.7.52,1.4,1.03,2.1,1.54,0-.02,0-.05,0-.07,0,.02,0,.05,0,.07Z"/><path d="M68.63,284.74v.6s-.01.29-.01.29l-.02.29-.02.28-.03.29-.03.29-.04.3-.04.31-.05.33-.05.35-.05.38-.05.4-.05.42-.05.45-.04.48-.03.29c-.16-5.01-.33-10.01-.52-15.02l.09.42.09.43.09.44.09.46.09.47.08.47.07.46.07.46.06.47.06.46.05.45.04.43.03.4.03.39.03.38.02.37.02.36.02.35v.34s.03.32.03.32v.32s.02.31.02.31v.31Z" fill="#848a77"/><path d="M343.5,232.94c6.99,5.11,13.96,10.22,20.94,15.34-11.1,2.91-25.77,7.57-35.1.86-1.97-3.03-.14-8.25.21-11.69.95-4.24,1.81-8.5,2.7-12.76l.48.35c3.59,2.63,7.18,5.27,10.78,7.9Z" fill="#ffeeb6"/><path d="M125.95,123.73l-.18-.6-.17-.58-.17-.56-.16-.55-.15-.54-.15-.55-.14-.55-.13-.54-.12-.53-.11-.53-.11-.52-.1-.53-.1-.52-.09-.51-.08-.5-.08-.49-.08-.49-.08-.5-.08-.51-.08-.51-.08-.51-.08-.51-.08-.52-.08-.54-.08-.55-.07-.55-.07-.54-.06-.53-.05-.52-.05-.52-.04-.5-.03-.48-.02-.46-.02-.44v-.42s-.02-.4-.02-.4v-.39s0-.37,0-.37v-.71s0-.34,0-.34v-.35s-.02-.36-.02-.36v-.36s-.03-.37-.03-.37l-.02-.39-.03-.41-.03-.43-.04-.46-.05-.47-.04-.48-.05-.5-.04-.51-.03-.53-.03-.55-.02-.54v-.54s0-.54,0-.54l.02-.54.02-.54.03-.53.04-.52.02-.24-.18.1-.2.11-.19.11-.2.11-.19.1-.18.1-.18.09-.18.09-.18.08-.18.08-.17.08-.18.07-.18.07-.18.07-.18.06-.19.06-.2.06-.21.06-.21.05-.22.05-.25.05-.27.05-.28.05-.3.05-.32.06-.34.05-.36.06-.39.07-.4.07-.41.08-.42.09-.42.09-.43.11-.43.11-.41.12-.39.12-.37.12-.35.12-.33.12-.31.12-.28.11-.26.11-.24.1-.22.1-.2.09-.18.09-.18.08-.17.08-.15.08-.15.08-.14.08-.14.09-.14.1-.14.11-.14.11-.14.12-.15.13-.15.14-.15.15-.15.16-.15.16-.16.17-.16.18-.16.18-.16.19-.17.19-.17.19-.17.19-.17.2-.18.21-.18.21-.18.21-.19.21-.19.22-.19.22-.2.23-.2.23-.21.23-.21.24-.21.24-.22.25-.22.25-.22.26-.22.26-.21.27-.21.27-.21.28-.2.28-.19.28-.19.28-.18.29-.17.3-.16.3-.14.31-.13.31-.11.31-.09.32-.08.32-.06.33-.05.34-.03.34-.02.34v.34s0,.34,0,.34l.02.35.03.37.03.37.04.37.05.38.06.39.06.4.07.41.07.41.07.41.08.4.07.4.08.4.07.4.07.38.06.37.06.36.05.35.04.35.04.35.02.35v.35s0,.36,0,.36l-.02.36-.04.38-.07.39-.08.39-.11.39-.13.38-.14.37-.16.36-.17.35-.18.34-.18.32-.19.3-.18.29-.19.27-.19.26-.19.24-.18.23-.19.22-.18.21-.19.2-.19.19-.19.18-.18.17-.18.16-.19.15-.19.15-.2.14-.2.14-.21.13-.21.13-.22.13-.23.13-.24.13-.25.13-.25.13-.26.14-.27.14-.29.15-.3.16-.31.17-.31.18-.31.18-.32.19-.32.21-.32.22-.31.22-.3.23-.29.23-.27.24-.27.24-.26.26-.25.26-.24.27-.22.26-.21.27-.2.28-.2.28-.18.28-.18.28-.18.29-.17.29-.17.3-.17.31-.16.32-.16.33-.15.34-.15.35-.15.37-.15.39-.15.39-.14.4-.14.4-.14.41-.14.43-.14.44-.14.45-.14.46-.14.46-.13.47-.13.5-.13.52-.13.52-.12.52-.12.53-.11.53-.1.54-.09.55-.08.55-.07.55-.06.54-.05.54-.04.54-.03.54v.52s-.01.51-.01.51v.49s.03.48.03.48l.04.47.05.46.07.44.08.42.09.41.1.39.11.39.13.39.13.39.14.38.14.39.14.4.14.43.13.47.11.49.09.52.06.54.03.56v.58s-.04.6-.04.6l-.07.59-.09.58-.1.56-.12.55-.14.56-.15.55-.16.53-.16.52-.17.51-.17.51-.18.53-.19.53-.19.53-.19.53-.18.54-.18.55-.17.56-.16.57-.15.56-.13.54-.11.53-.09.53-.07.52-.06.52-.03.5-.02.49v.48s0,.46,0,.46l.03.47.04.47.05.45.06.44.06.43.07.42.08.43.08.42.09.42.09.41.09.41.09.41.1.42.09.43.09.43.08.44.07.46.05.48.03.52v.56s-.02.59-.02.59l-.06.61-.09.63-.12.65-.15.68-.17.69-.18.67-.19.66-.2.64-.21.62-.21.62-.22.61-.22.59-.21.58-.22.58-.23.59-.24.61-.25.63-.26.64-.26.64-.26.65-.26.64-.26.64-.26.63-.24.59-.22.56-.2.52-.18.49-.16.47-.14.45-.11.42-.08.4-.05.39v.39s.02.39.02.39l.07.4.12.4.16.4.21.42.25.42.29.44.32.45.34.45.36.46.36.46.37.47.37.5.37.52.36.53.34.54.32.56.3.58.27.61.25.63.22.62.19.62.16.61.14.6.11.6.09.59.07.58.05.56.03.56v.56s0,.57,0,.57l-.03.57-.04.57-.07.58-.09.61-.12.64-.15.69-.18.74-.2.76-.22.77-.23.78-.24.77-.25.78-.25.78-.24.74-.23.71-.21.68-.2.66-.19.65-.18.63-.17.6-.15.59-.14.58-.14.59-.13.62-.14.65-.13.66-.13.67-.13.68-.13.69-.13.71-.13.72-.12.7-.11.69-.1.67-.09.66-.08.66-.07.65-.06.63-.05.61-.04.6-.03.59-.02.6-.02.61v.6s-.02.61-.02.61v.63s-.02.65-.02.65l-.02.68-.03.69-.03.68-.04.68-.05.68-.06.68-.07.69-.08.69-.08.68-.09.67-.09.65-.09.65-.1.66-.1.66-.11.66-.11.66-.12.67-.12.68-.13.7-.14.7-.14.69-.13.66-.12.64-.12.61-.11.6-.1.58-.09.55-.07.52-.06.49-.05.46-.03.44-.02.42v.4s0,.38,0,.38l.03.36.04.34.06.33.08.32.09.31.1.3.12.29.13.29.15.29.16.3.17.3.18.3.18.31.18.32.19.35.18.37.18.39.17.41.17.43.15.44.14.47.13.48.12.49.1.5.09.5.08.5.07.51.05.51.05.5.04.49.03.48.02.48.02.48v.48s0,.46,0,.46v.89s0,.43,0,.43v.43s-.03.43-.03.43v.41s-.03.4-.03.4l-.02.39-.02.38-.03.39-.04.4-.04.41-.06.43-.07.44-.09.48-.11.52-.13.54-.15.56-.17.58-.18.59-.19.6-.21.61-.22.62-.23.6-.23.58-.24.57-.25.55-.26.54-.27.53-.27.5-.27.47-.26.44-.26.41-.26.39-.25.36-.24.33-.23.3-.22.28-.21.25-.2.23-.2.22-.19.2-.18.18-.18.17-.18.16-.19.16-.19.15-.19.14-.18.13-.18.13-.17.12-.16.11-.15.1-.14.1-.14.09-.13.08-.13.08-.13.07-.15.07-.16.05-.18.03h-.19l-.2-.04-.21-.09-.21-.14-.21-.18-.2-.23-.19-.27-.18-.31-.17-.35-.16-.38-.15-.4-.13-.41-.12-.42-.11-.43-.1-.46-.1-.48-.09-.48-.08-.49-.08-.49-.07-.51-.07-.53-.02-.15c-.08-2.45-.16-4.9-.24-7.35l.03-.29.04-.48.05-.45.05-.42.05-.4.05-.38.05-.35.05-.33.04-.31.04-.3.03-.29.03-.29.02-.28.02-.29v-.29s.01-.3.01-.3v-.61s-.01-.31-.01-.31v-.32s-.02-.32-.02-.32v-.34s-.03-.35-.03-.35l-.02-.36-.02-.37-.03-.38-.03-.39-.03-.4-.04-.43-.05-.45-.06-.46-.06-.47-.07-.46-.07-.46-.08-.47-.09-.47-.09-.46-.09-.44-.09-.43-.09-.42c-.14-3.85-.29-7.7-.45-11.55-.33-7.8-.73-15.59-1.21-23.38-.49-7.93-1.1-15.85-1.72-23.77-1.27-16.17-2.65-32.33-3.81-48.51-1.13-15.7-2.1-31.43-2.15-47.18.05-6.92.4-13.83,1.25-20.71.22-1.54.48-3.07.78-4.59.27-1.37.63-2.73,1-4.09.95-3.24,2.02-6.42,3.29-9.56.73-1.66,1.52-3.27,2.39-4.87.86-1.44,1.78-2.83,2.76-4.2.94-1.2,1.92-2.33,2.99-3.43.54-.5,1.08-.97,1.63-1.44,1.06-.8,2.15-1.51,3.29-2.19,1.59-.88,3.21-1.69,4.87-2.43,1.29-.53,2.59-.99,3.93-1.39,3.65-.89,7.41-1.35,11.13-1.86,6.49-.86,13.37-1.66,20.27-2.31.64-.06,1.29-.12,1.93-.18.04.04.09.08.13.11.03.02.05.04.08.06h0c.05.04.11.08.16.11.05.04.11.07.17.1.08.04.17.08.25.12,0,.35.02.69.03,1.04.04,1.42.09,2.84.13,4.26.24,9.37,1.05,18.7,2,28.02.04.44.09.88.14,1.32.72,6.89,1.51,13.78,2.21,20.67.31,3.36.63,6.71.95,10.07Z" fill="#a3aa92"/><path d="M262.72,236.47v.18s0,.18,0,.18l-.02.18-.04.19-.05.19-.08.2-.09.19-.12.2-.14.2-.16.2-.18.19-.2.19-.21.18-.23.18-.25.17-.27.18-.28.17-.3.16-.31.15-.32.14-.33.13-.33.11-.32.1-.31.09-.31.08-.29.07-.28.06-.27.06-.25.06-.24.06-.22.07-.21.07-.19.08-.18.09-.17.1-.15.11-.13.12-.12.13-.1.15-.07.15-.05.16-.02.17v.17s.05.17.05.17l.06.17.09.17.11.16.12.15.13.14.13.13.14.13.14.13.15.13.15.14.15.15.16.15.17.16.17.17.18.18.18.19.18.21.18.23.18.24.17.26.16.27.13.28.11.28.08.29.05.29.02.28v.27s-.05.26-.05.26l-.07.25-.09.24-.12.24-.14.22-.16.21-.18.2-.2.19-.22.18-.24.18-.26.18-.29.18-.31.19-.34.2-.37.22-.4.23-.44.25-.47.26-.51.28-.55.3-.59.32-.62.34-.65.35-.65.36-.63.35-.63.36-.61.37-.59.37-.56.38-.53.39-.47.38-.42.39-.36.39-.31.39-.26.4-.2.39-.14.38-.09.38-.04.37v.36s.02.36.02.36l.06.35.08.33.1.31.11.3.13.3.14.31.15.31.16.3.13.23c-2.85.17-5.7.33-8.56.49-6,.34-12,.68-17.99,1.02-4.85.27-9.69.55-14.54.83-2.87.16-5.73.32-8.6.48l-5.49.31c0,1.59,0,3.19,0,4.78,0,.24,0,.49,0,.73.02,2.65.03,5.29.04,7.94.06,9.97.11,19.96.17,29.93.03,5.35.06,10.69.09,16.04l-.15.46-.22.91-.15.89-.08.89-.03.9.02.9.07.9.11.87.16.82.2.79.11.34c0,1.53.02,3.06.03,4.59,0,.53,0,1.07,0,1.6-4.67.42-9.34.84-14.01,1.26-1.69.15-3.39.3-5.08.46-.07,0-.13,0-.2.02h0c-.72.06-1.44.13-2.16.19h0s-.01,0-.02,0c.57.52,1.15,1.02,1.71,1.53,1.24,1.12,2.47,2.24,3.71,3.36.05.05.1.09.15.14,2.27,2.05,4.54,4.11,6.82,6.17.45.4.9.81,1.34,1.22l-.38.11-.77.2-.79.18-.8.17-.81.15-.84.14-.89.13-.94.12-.99.11-1.02.09-1.03.08-1.06.06-1.08.04-1.1.03h-1.11s-1.08,0-1.08,0h-1.03s-.97,0-.97,0h-.92s-.87.02-.87.02l-.81.04-.74.07-.68.09-.65.12-.62.15-.6.17-.59.2-.57.22-.55.24-.56.27-.56.29-.55.32-.56.34-.56.37-.54.39-.53.41-.52.44-.52.47-.51.5-.48.52-.44.53-.41.55-.37.57-.33.59-.28.6-.22.6-.15.58-.1.58-.04.57v.55s.07.54.07.54l.1.52.13.49.16.48.18.48.21.48.23.48.26.48.28.48.3.49.32.5.34.51.37.52.37.52.38.51.38.51.39.5.39.5.39.49.38.47.37.45.36.43.35.42.34.4.33.39.31.37.3.35.28.35.26.33.24.33.23.32.2.31.18.3.16.3.13.29.11.29.08.29.05.29.02.28v.28s-.03.28-.03.28l-.05.28-.07.28-.09.28-.11.28-.13.28-.15.29-.16.3-.18.3-.18.31-.2.31-.21.32-.23.32-.25.33-.26.33-.27.32-.28.31-.29.29-.3.27-.3.25-.31.23-.32.2-.31.18-.32.15-.33.14-.34.12-.35.11-.36.1-.38.1-.41.09-.44.09-.47.09-.51.1-.54.1-.58.1-.62.11-.67.11-.72.11-.77.11-.81.11-.82.09-.85.08-.87.06-.88.04-.89.02h-.88s-.84-.04-.84-.04l-.82-.05-.81-.07-.79-.08-.79-.08-.76-.08-.73-.06-.73-.05-.73-.03-.75-.02h-.78s-.78.01-.78.01l-.77.04-.79.05-.81.07-.83.08-.84.1-.83.11-.79.12-.77.14-.75.15-.72.16-.7.18-.66.19-.61.21-.59.24-.57.27-.54.3-.54.35-.51.39-.5.43-.49.48-.49.54-.49.59-.49.66-.47.71-.45.76-.44.82-.42.88-.4.93-.37.98-.33,1-.29,1.01-.23,1.01-.19,1-.14.98-.1.96-.07.93-.05.89-.03.86-.02.84v.8s-.01.72-.01.72v.85s0,.04,0,.04l-1.77-2.8c-.1-1.31-.19-2.63-.28-3.94-.16-2.41-.31-4.84-.44-7.27-.04-.78-.09-1.57-.13-2.35,0-.05,0-.1,0-.15-.05-1.04-.1-2.08-.15-3.12l.06-.36.08-.5.08-.52.07-.53.07-.53.06-.52.05-.51.05-.51.04-.5.03-.49.02-.48v-.46s.02-.44.02-.44v-.42s0-.41,0-.41v-.4s-.02-.38-.02-.38v-.37s-.03-.36-.03-.36l-.02-.34-.02-.34-.02-.34-.02-.33v-.32s-.03-.32-.03-.32v-.31s-.03-.32-.03-.32v-.32s-.02-.31-.02-.31v-.31s-.02-.31-.02-.31v-.32s-.02-.33-.02-.33v-.33s-.02-.33-.02-.33v-.33s-.02-.33-.02-.33v-.34s-.03-.34-.03-.34v-.35s-.03-.34-.03-.34l-.02-.35-.02-.35-.02-.36-.02-.37-.02-.38-.02-.4-.02-.41-.02-.42-.02-.45-.02-.47-.02-.49-.02-.5-.02-.52-.02-.53-.02-.54-.02-.55v-.56s-.03-.55-.03-.55v-.54s-.02-.53-.02-.53v-.52s-.02-.51-.02-.51v-.49s-.02-.48-.02-.48v-.45s-.03-.43-.03-.43l-.02-.41-.02-.41-.02-.4-.02-.39-.02-.38-.02-.37-.02-.38-.03-.38-.02-.4-.02-.39-.03-.39-.02-.4-.02-.41-.02-.42-.02-.43-.02-.43-.02-.43-.02-.44-.02-.44-.02-.45-.02-.46-.02-.45-.02-.45-.02-.46-.02-.48v-.49s-.03-.51-.03-.51l-.02-.51v-.21c0-2.04.02-4.07.04-6.09.09-4.52.13-9.04.13-13.56,0-1.27,0-2.53,0-3.8,0-1.12-.01-2.24-.02-3.36,0-.7-.01-1.4-.02-2.1,0-.55-.01-1.11-.02-1.66,0-.65-.02-1.3-.03-1.95-.02-1.05-.03-2.09-.05-3.14-.02-.98-.04-1.95-.06-2.93,0-.48-.02-.95-.03-1.43-.06-2.46-.12-4.93-.2-7.39-.04-1.32-.08-2.65-.13-3.97h0s0-.05,0-.05l.03-.51.02-.5.02-.5.02-.5v-.49s.02-.48.02-.48v-1.48s-.01-.52-.01-.52v-.52s-.03-.52-.03-.52l-.02-.54-.02-.54-.02-.55-.03-.56-.03-.56-.03-.56-.03-.56-.03-.55-.03-.55-.03-.54-.03-.54-.04-.52-.03-.52-.04-.51-.04-.51-.04-.52-.04-.51-.04-.51-.04-.5-.04-.5-.04-.5-.05-.51-.04-.49-.02-.18c-.06-1.4-.13-2.8-.19-4.21.02-1.28,0-2.57-.03-3.83,0-.44-.03-.87-.05-1.3,0-.26-.02-.52-.04-.77-.06-1.28-.15-2.55-.24-3.81-.02-.25-.04-.5-.06-.75-.29-3.68-.67-7.24-.86-10.63,0-.16-.02-.31-.03-.47-.03-.48-.05-.96-.06-1.43,0-.07,0-.13,0-.2,0-.23-.01-.46-.02-.69-.02-.72-.02-1.44,0-2.14,0-.24,0-.49.02-.73.01-.5.04-.98.07-1.46,0-.16.02-.32.04-.48,0-.11.02-.22.03-.33.02-.23.04-.46.07-.68.02-.13.03-.26.05-.39,0-.07.02-.15.03-.22.02-.15.04-.29.06-.44.02-.18.05-.35.08-.53.03-.16.05-.32.08-.48l.07-.38c.05-.26.11-.53.17-.79.03-.12.06-.24.09-.36.04-.18.09-.35.14-.52.03-.12.07-.23.1-.35.03-.13.07-.25.11-.37.04-.12.07-.23.11-.35.02-.05.03-.1.05-.15.04-.12.08-.23.12-.35h0c.05-.12.09-.23.13-.35.13-.33.27-.66.42-.98.06-.14.13-.28.2-.42.07-.14.14-.28.21-.42.08-.15.16-.3.24-.44.07-.13.15-.26.22-.39h0c.08-.13.16-.26.23-.38.06-.1.13-.19.19-.29.06-.09.12-.18.18-.27.16-.22.32-.44.49-.66.08-.11.17-.21.25-.32.08-.1.16-.19.23-.28.24-.29.5-.58.78-.86.1-.11.2-.21.31-.31.09-.09.18-.18.27-.26.77-.73,1.63-1.41,2.6-2.06.16-.11.31-.21.47-.31.16-.1.32-.2.49-.3.29-.18.59-.35.9-.52.1-.06.21-.11.31-.17.12-.06.23-.12.35-.18.18-.09.37-.18.55-.27.18-.09.35-.17.53-.25.21-.1.43-.19.65-.29.19-.08.39-.17.59-.24.2-.09.42-.17.63-.25.21-.08.43-.16.64-.24.2-.07.41-.15.61-.22.14-.05.28-.1.43-.14.17-.06.35-.12.53-.17.22-.07.45-.14.67-.21.23-.07.46-.14.7-.2.19-.06.38-.11.57-.16.22-.06.44-.12.66-.18.54-.14,1.11-.27,1.68-.4.27-.06.54-.12.82-.18.81-.13,1.62-.25,2.43-.37.27-.04.54-.08.81-.12.76-.11,1.52-.21,2.29-.3.28-.04.57-.07.85-.11.52-.06,1.04-.12,1.56-.18l.94-.1c.99-.11,1.98-.2,2.97-.29.33-.03.66-.06.99-.09,1.88-.16,3.76-.29,5.64-.4.26-.02.52-.03.78-.05.84-.05,1.67-.09,2.51-.13.96-.04,1.92-.09,2.87-.12,1.42-.05,2.85-.1,4.27-.14.27,0,.54-.02.82-.02.7-.02,1.4-.04,2.09-.05l1.89-.04c.33,0,.66-.01,1-.02.67,0,1.33-.02,1.99-.03,1-.02,1.99-.04,2.99-.05.66,0,1.33-.02,1.99-.03.48,0,.96-.01,1.44-.02.85-.01,1.7-.03,2.55-.04.06,0,.13,0,.19,0,1.2-.02,2.41-.04,3.61-.07.66-.01,1.32-.03,1.99-.05.58-.01,1.16-.03,1.74-.05s1.16-.04,1.73-.05c1.56-.05,3.12-.11,4.68-.18.78-.04,1.56-.08,2.33-.12.55-.03,1.09-.06,1.64-.09,1.29-.06,2.59-.12,3.88-.18,1.06-.05,2.11-.09,3.17-.13l-.05.11.55-.03.84-.05.85-.05.84-.04.85-.04.86-.04.86-.04.86-.04.84-.04.81-.04.34-.02c1.28-.05,2.57-.09,3.85-.14.9-.03,1.79-.06,2.69-.09,1.54-.05,3.08-.1,4.62-.15,1.49-.05,2.97-.09,4.46-.14.41-.01.81-.02,1.22-.04l5.45-.16c3.15-.09,6.3-.18,9.45-.27,1.05-.03,2.1-.06,3.15-.09,1.49-.04,2.98-.09,4.47-.13,1.66-.05,3.32-.1,4.98-.15h.31s.03,0,.03,0l.18.02.18.03.18.03.18.03.17.03.17.04.17.04.17.04.16.04.15.05.15.05.15.05.14.06.14.06.13.06.13.06.12.07.11.06.11.07.1.06.09.06.09.06.08.06.07.06.07.06.07.06.07.06.07.06.07.06.07.06.07.06.07.06.07.07.07.07.07.07.08.07.07.07.08.07.08.08.08.08.08.08.08.08.08.09.09.09.09.09.09.1.09.1.1.1.1.1.1.1.1.11.11.11.11.11.11.11.11.11.12.11.12.12.12.12.12.12.12.12.13.12.13.12.13.12.12.11.12.12.12.11.12.11.12.11.12.11.11.11.11.11.11.11.1.11.1.11.11.11.1.11.1.11.1.12.1.12.1.12.11.13.11.14.11.14.1.14.1.14.1.15.09.15.09.15.09.16.08.16.08.16.07.16.06.17.06.17.05.17.04.17.02.17Z" fill="#e5dabb"/><path d="M371.28,246.38l.05.14c-.07-.05-.15-.11-.22-.16-1.08-.79-2.16-1.59-3.24-2.38l.24.06.27.06.25.05.23.04.21.03.19.03.17.03.16.02.15.02.12.02.11.02.1.02.09.02.08.02.07.02.06.02.06.02.05.03.05.03.04.03.04.04.04.04.03.05.03.05.03.06.03.07.03.07.03.08.03.09.04.1.04.11.04.12.04.13.05.14.05.15.05.17.05.18.06.19Z" fill="#848a77"/><path d="M376,403.25l-.33.05c-.45.05-.9.1-1.34.14.02-.59.03-1.19.05-1.79,0-.06,0-.13,0-.19l.08.12.14.18.13.16.13.15.12.13.12.13.12.13.12.12.12.12.12.12.12.12.12.12.13.12.08.07Z" fill="#848a77"/><path d="M89.83,396.01c3.72.86,9.01-.55,8.26-5.3-.32-6.25.97-13.06-1.57-18.94-2.47-3.56-8.07-1.8-11.82-2.15-3.77-.37-6.1,3.16-5.52,6.65.21,5.19.16,10.46.89,15.59-1.4,5.63,6.63,3.2,9.76,4.16ZM395.64,379.62c7.83.77,8.34-3.15,8.17-9.77-.22-5.01,2.88-14.99-4.67-15.52-4.88.11-9.83.29-14.61,1.32-3.51.54-4.44,4.3-3.99,7.35,2,19.3-1.23,16.15,15.1,16.62ZM420.02,323.57c-.04,4.15-.11,8.31-.38,12.46-.26,4.09-.64,8.15-1.13,12.22-.34,2.43-.7,4.86-1.17,7.26-.52,2.67-1.13,5.31-1.81,7.94-.53,1.86-1.07,3.72-1.72,5.54-.63,1.76-1.29,3.5-2,5.24-.55,1.26-1.12,2.52-1.73,3.76-.64,1.28-1.32,2.54-2.03,3.78-1.08,1.77-2.22,3.48-3.44,5.16-1.19,1.5-2.43,2.94-3.75,4.32-1.32,1.28-2.69,2.49-4.12,3.65-1.1.82-2.21,1.59-3.37,2.32-1.55.88-3.12,1.67-4.75,2.41-.13.05-.26.11-.39.16l-.3.07-.49.11c-.21.05-.43.1-.64.14-.07.02-.14.03-.2.05-.06.02-.12.04-.18.06t0,0c-.05.02-.11.04-.16.07-.05.02-.1.04-.14.07-.06.03-.12.06-.18.1-.19.11-.37.25-.53.41h0c-1.1.4-2.22.76-3.34,1.11-.38.1-.75.2-1.13.31-.32.08-.64.15-.95.22s-.64.14-.95.21h0s.07-.13.07-.13l.07-.13.07-.14.08-.15.08-.16.08-.17.08-.18.09-.2.09-.21.1-.23.1-.24.1-.26.1-.27.11-.28.11-.29.11-.3.1-.3.09-.29.09-.29.08-.28.07-.26.06-.26.05-.23.04-.21.03-.19.03-.18.02-.16.02-.15.02-.14.02-.13.02-.13v-.13s.03-.13.03-.13l.02-.14.02-.14.02-.15.02-.15.02-.16.02-.17.02-.17.02-.17v-.17s.03-.17.03-.17v-.16s.02-.16.02-.16v-.16s.02-.15.02-.15v-.14s0-.13,0-.13v-.13s0-.12,0-.12v-.12s0-.12,0-.12v-1.28s0-.19,0-.19v-.62s0-.23,0-.23v-.24s0-.25,0-.25v-.26s0-.26,0-.26v-.27s0-.28,0-.28v-.28s0-.29,0-.29v-.29s0-.29,0-.29v-.9s0-.31,0-.31v-.31s-.01-.31-.01-.31v-.31s-.02-.31-.02-.31v-.31s-.03-.31-.03-.31l-.02-.32-.02-.32-.02-.32-.03-.32-.03-.32-.03-.32-.03-.32-.04-.32-.03-.31-.04-.31-.04-.31-.04-.31-.04-.31-.04-.3-.04-.29-.03-.28-.03-.28-.03-.28-.03-.27-.02-.27-.02-.27-.02-.27v-.27s-.03-.28-.03-.28v-.29s-.02-.29-.02-.29v-.29s-.02-.3-.02-.3v-.31s0-.31,0-.31v-.32s0-.33,0-.33v-.33s0-.32,0-.32v-.32s0-.32,0-.32v-1.52s0-.28,0-.28v-.28s0-.26,0-.26v-.26s0-.25,0-.25v-.25s0-.25,0-.25v-.75s0-.24,0-.24v-.24s0-.24,0-.24v-.24s0-.24,0-.24v-.47s0-.23,0-.23v-.24s0-.24,0-.24v-.24s0-.24,0-.24v-.24s0-.24,0-.24v-.25s-.02-.25-.02-.25v-.25s-.02-.25-.02-.25v-.25s-.02-.25-.02-.25v-.25s-.03-.26-.03-.26l-.02-.25-.02-.25-.02-.25-.02-.25-.02-.26-.02-.26-.02-.26-.02-.26-.02-.26-.03-.27-.03-.28-.03-.29-.03-.29-.03-.29-.04-.3-.04-.3-.04-.3-.04-.3-.04-.3-.04-.29-.04-.28-.04-.28-.03-.26-.03-.26-.02-.25-.02-.24-.02-.23v-.22s-.02-.21-.02-.21v-.2s0-.2,0-.2v-.19s.01-.19.01-.19v-.19s.02-.18.02-.18l.02-.19v-.19s.03-.19.03-.19l.02-.19.02-.2.02-.21.02-.22.02-.22.02-.23.02-.24.03-.25.03-.27.03-.28.03-.29.03-.3.03-.32.04-.33.04-.35.04-.37.04-.38.04-.38.04-.4.04-.41.05-.43.04-.45.04-.46.04-.46.04-.48.03-.49.03-.51.03-.52.02-.51v-.5s.02-.49.02-.49v-.49s-.01-.48-.01-.48l-.02-.49-.02-.48-.03-.47-.04-.47-.04-.48-.05-.5-.06-.52-.06-.52-.06-.52-.07-.54-.07-.54-.07-.54-.07-.55-.06-.54-.06-.53-.05-.51-.05-.5-.04-.48-.04-.47-.03-.44-.03-.41-.03-.38-.03-.36-.02-.34-.02-.32-.02-.3-.02-.28-.02-.27-.02-.25-.02-.24v-.23s-.03-.22-.03-.22v-.22s-.02-.21-.02-.21v-.21s-.01-.21-.01-.21v-.65s.02-.22.02-.22v-.23s.03-.23.03-.23l.02-.25.03-.25.03-.26.03-.27.04-.29.04-.3.04-.32.04-.33.04-.33.05-.35.04-.36.04-.37.05-.39.04-.4.04-.4.04-.41.04-.43.03-.44.03-.45.03-.45.02-.45.02-.45.02-.45.02-.44.02-.45.02-.44.02-.43.02-.44.02-.45.02-.46.03-.48.03-.49.03-.5.04-.51.03-.52.04-.53.04-.54.03-.54.03-.53.03-.53.03-.53.02-.52.02-.5v-.49s0-.46,0-.46v-.43s-.02-.41-.02-.41v-.38s-.03-.36-.03-.36l-.02-.34-.03-.31-.02-.29-.03-.27-.03-.27-.02-.26-.03-.24-.02-.24-.02-.23-.02-.22v-.22s-.03-.22-.03-.22v-.21s0-.2,0-.2v-.4s.01-.2.01-.2v-.21s.03-.21.03-.21l.02-.21.02-.22.03-.24.03-.25.03-.27.04-.28.04-.29.04-.31.05-.33.05-.35.06-.37.06-.38.06-.39.06-.4.07-.41.07-.42.07-.43.07-.43.07-.43.07-.43.07-.44.07-.45.07-.46.07-.45.07-.44.07-.44.06-.45.06-.45.06-.46.06-.46.06-.44.05-.44.05-.44.05-.44.05-.43.04-.42.03-.4.03-.4.03-.39.02-.39.02-.39v-.37s.01-.36.01-.36v-.36s0-.35,0-.35l-.02-.34-.02-.33-.03-.32-.03-.29-.03-.27-.03-.25-.03-.24-.03-.22-.03-.21-.03-.19-.02-.18-.02-.18-.02-.18v-.18s-.02-.19-.02-.19v-.19s-.01-.21-.01-.21v-.45s0-.25,0-.25v-.25s0-.27,0-.27v-.28s.02-.29.02-.29l.02-.31.02-.32.02-.32.03-.32.03-.32.04-.31.05-.32.05-.31.05-.31.06-.3.06-.3.06-.3.07-.3.07-.31.07-.31.07-.31.07-.31.08-.32.08-.33.09-.33.09-.33.08-.33.09-.33.09-.33.09-.32.08-.32.08-.31.08-.29.07-.28.07-.27.07-.27.06-.26.06-.26.06-.25.05-.25.05-.25.05-.25.05-.26.05-.25.04-.25.04-.25.04-.24.04-.24.04-.24.04-.23.04-.23.04-.23.03-.23.04-.23.04-.24.03-.24.04-.24.03-.25.04-.26.04-.27.03-.28.04-.29.03-.29.03-.3.03-.31.03-.33.03-.33.03-.34.03-.33.02-.33.02-.32v-.31s.02-.3.02-.3v-.28s.01-.25.01-.25v-.24s0-.23,0-.23v-.22s.01-.22.01-.22v-.22s.01-.22.01-.22v-.22s0-.23,0-.23v-.74s-.02-.27-.02-.27l-.02-.29-.02-.3-.03-.33-.04-.35-.05-.36-.07-.37-.09-.38-.11-.39-.13-.4-.16-.4-.18-.4-.2-.38-.21-.37-.23-.36-.24-.35-.25-.35-.24-.34-.24-.33-.23-.34-.23-.34-.22-.34-.2-.34-.18-.33-.16-.32-.15-.32-.14-.32-.13-.32-.12-.32-.11-.31-.11-.31-.12-.3-.12-.3-.13-.3-.14-.3-.15-.28-.16-.27-.17-.25-.18-.23-.2-.22-.21-.19-.22-.18-.22-.15-.23-.13-.24-.11-.25-.09-.25-.08-.25-.06-.25-.05-.25-.04-.25-.03-.25-.03-.26-.02-.26-.02-.26-.02-.27-.02-.27-.02-.27-.02-.28-.03-.28-.03-.28-.04-.28-.04-.28-.05-.29-.06-.29-.08-.28-.09-.27-.11-.25-.13-.23-.15-.21-.17-.18-.18-.15-.19-.11-.2-.07-.2-.04-.2v-.21s0-.21,0-.21l.03-.21.05-.21.06-.22.08-.23.08-.24.09-.26.1-.27.11-.29.11-.31.12-.33.13-.36.13-.37.12-.38.11-.38.1-.38.08-.38.06-.37.04-.35v-.32s0-.3,0-.3l-.03-.27-.06-.25-.07-.22-.09-.2-.11-.18-.12-.16-.14-.14-.15-.13-.17-.11-.18-.1-.2-.08-.21-.06-.22-.04-.23-.03-.24-.02h-.26s-.26,0-.26,0h-.28s-.29.02-.29.02l-.31.02-.33.02-.34.02-.35.02-.35.02-.35.02-.35.02h-.34s-.32.01-.32.01h-.3s-.27-.03-.27-.03l-.25-.03-.23-.05-.2-.06-.18-.07-.15-.08-.13-.08-.1-.09-.08-.09-.06-.1-.05-.1-.03-.1-.02-.09v-.1s0-.09,0-.09v-.09s.03-.09.03-.09l.03-.09.03-.08.03-.08.04-.08.04-.08.04-.07.04-.07.05-.07.05-.08.05-.08.05-.08.05-.08.06-.08.06-.08.06-.09.06-.09.06-.09.07-.09.07-.09.07-.09.07-.1.07-.09.07-.09.07-.1.07-.1.07-.09.07-.1.07-.1.07-.1.07-.1.06-.1.06-.1.06-.1.05-.1.05-.1.05-.1.04-.09.03-.09.02-.08.02-.08v-.07s.02-.07.02-.07v-.07s-.01-.07-.01-.07l-.02-.06-.02-.06-.03-.06-.04-.06-.05-.05-.06-.05-.07-.05-.07-.04-.08-.04-.09-.04-.1-.05-.1-.05-.11-.05-.12-.05-.13-.05-.14-.05-.15-.05-.16-.06-.17-.06-.18-.06-.19-.06-.21-.07-.23-.07-.24-.07-.26-.07-.28-.07-.3-.07-.31-.06-.32-.06-.34-.05-.35-.05-.37-.05-.37-.05-.37-.05-.38-.05-.38-.05-.38-.05-.38-.05-.37-.05-.35-.05-.34-.05-.33-.05-.32-.05-.31-.06-.29-.06-.27-.06-.27-.06-.26-.06-.25-.06-.25-.07-.24-.07-.23-.07-.23-.07-.22-.07-.22-.08-.22-.08-.21-.08-.21-.08-.21-.08-.21-.08-.21-.08-.21-.09-.22-.08-.22-.08-.22-.08-.23-.08-.24-.09-.26-.09-.26-.09-.27-.09-.27-.1-.28-.1-.29-.1-.3-.11-.3-.11-.29-.11-.29-.11-.28-.11-.28-.12-.27-.11-.26-.11-.24-.11-.23-.11-.22-.1-.2-.09-.2-.09-.18-.09-.17-.08-.16-.07-.16-.07-.15-.06-.14-.06-.14-.05-.13-.05-.13-.04-.13-.04-.13-.03-.13-.03-.12-.02-.12-.02h-.12s-.12-.02-.12-.02h-.12s-.12,0-.12,0h-.12s-.12,0-.12,0h-.12s-.12.02-.12.02h-.13s-.13.03-.13.03h-.14s-.14.03-.14.03l-.15.02-.16.02-.17.03-.18.03-.18.03-.2.04-.21.04-.22.04-.24.05-.26.06-.28.06-.31.07-.34.07-.37.08-.4.09-.44.1-.47.1-.5.1-.53.1-.55.09-.58.09-.61.08-.16.02c-.87-.63-1.73-1.26-2.6-1.89-.83-.6-1.66-1.21-2.48-1.81-.15,0-.29.02-.44.03-.24.02-.48.04-.72.06s-.48.04-.73.06c-.31.03-.62.05-.92.08-.67.06-1.34.12-2.02.18-.83.08-1.65.16-2.48.23-.33.03-.65.06-.98.09-51.84,4.64-104.14,4.86-156.17,6.96-31.33.94-71.48-1.98-63.69,42.09.05.8.11,1.6.16,2.39.09,1.51.18,3.02.26,4.52.04.77.09,1.54.13,2.31s.08,1.54.12,2.31c.02.35.04.71.05,1.07.03.59.06,1.19.08,1.78.04.85.08,1.71.11,2.56.03.74.06,1.49.09,2.24.08,2.07.16,4.14.22,6.21.02.57.04,1.14.05,1.7.02.56.03,1.13.05,1.69.02.8.05,1.6.07,2.4,0,.38.02.76.03,1.14.02.76.04,1.52.06,2.28.02.78.04,1.57.05,2.34.02.77.03,1.54.05,2.31.03,1.54.06,3.08.08,4.62.01.77.03,1.54.04,2.31.01.77.02,1.54.03,2.31,0,.77.02,1.54.03,2.31,0,.77.02,1.54.03,2.31.02,1.49.03,2.99.05,4.48,0,.82.01,1.63.02,2.45,0,1.37.02,2.74.03,4.11,0,.43,0,.85,0,1.28,0,1.29.02,2.58.03,3.86.05,8.11.09,16.22.17,24.33,0,.8.02,1.6.03,2.4,0,.8.02,1.6.03,2.4.01,1.08.03,2.15.04,3.23.01.98.03,1.96.04,2.93,0,.56.02,1.13.03,1.69.02,1.54.05,3.08.09,4.62.01.77.03,1.54.05,2.31.09,4.01.2,8.03.33,12.04.05,1.37.1,2.74.15,4.11.07,1.74.14,3.47.22,5.21.03.75.07,1.49.11,2.23.04.8.08,1.6.12,2.39.09,1.7.18,3.4.28,5.09.04.7.08,1.39.13,2.09l.09,1.42c-.09-.02-.18-.04-.28-.07-.28-.07-.57-.14-.85-.21-1.88-.54-3.74-1.1-5.59-1.73-1.73-.59-3.43-1.27-5.13-1.98-2.62-1.14-5.2-2.35-7.69-3.75-1.06-.65-2.09-1.32-3.09-2.06-.71-.57-1.4-1.18-2.05-1.81-.59-.62-1.15-1.26-1.69-1.93-.59-.79-1.14-1.61-1.65-2.45-.84-1.47-1.6-2.98-2.28-4.52-.46-1.13-.87-2.28-1.21-3.45-.94-3.64-1.52-7.38-2.03-11.1-1-7.67-1.54-15.39-2.09-23.11-.53-7.52-1.02-15.04-1.38-22.57-.37-7.53-.64-15.07-.9-22.61-.15-4.44-.29-8.89-.44-13.33l.02.14.07.53.07.51.08.49.08.49.09.48.1.48.1.46.11.43.12.42.13.41.15.4.16.38.17.35.18.31.19.27.2.23.21.18.21.14.21.09.2.04h.19l.18-.03.16-.05.15-.07.13-.07.13-.08.13-.08.14-.09.14-.1.15-.1.16-.11.17-.12.18-.13.18-.13.19-.14.19-.15.19-.16.18-.16.18-.17.18-.18.19-.2.2-.22.2-.23.21-.25.22-.28.23-.3.24-.33.25-.36.26-.39.26-.41.26-.44.27-.47.27-.5.27-.53.26-.54.25-.55.24-.57.23-.58.23-.6.22-.62.21-.61.19-.6.18-.59.17-.58.15-.56.13-.54.11-.52.09-.48.07-.44.06-.43.04-.41.04-.4.03-.39.02-.38.02-.39.02-.4v-.41s.03-.43.03-.43v-.43s.02-.43.02-.43v-.44s0-.45,0-.45v-.46s0-.48,0-.48l-.02-.48-.02-.48-.03-.48-.04-.49-.05-.5-.05-.51-.07-.51-.08-.5-.09-.5-.1-.5-.12-.49-.13-.48-.14-.47-.15-.44-.17-.43-.17-.41-.18-.39-.18-.37-.19-.35-.18-.32-.18-.31-.18-.3-.17-.3-.16-.3-.15-.29-.13-.29-.12-.29-.1-.3-.09-.31-.08-.32-.06-.33-.04-.34-.03-.36v-.38s0-.4,0-.4l.02-.42.03-.44.05-.46.06-.49.07-.52.09-.55.1-.58.11-.6.12-.61.12-.64.13-.66.14-.69.14-.7.13-.7.12-.68.12-.67.11-.66.11-.66.1-.66.1-.66.09-.65.09-.65.09-.67.08-.68.08-.69.07-.69.06-.68.05-.68.04-.68.03-.68.03-.69.02-.68v-.65s.02-.63.02-.63v-.61s.02-.6.02-.6l.02-.61.02-.6.03-.59.04-.6.05-.61.06-.63.07-.65.08-.66.09-.66.1-.67.11-.69.12-.7.13-.72.13-.71.13-.69.13-.68.13-.67.13-.66.14-.65.13-.62.14-.59.14-.58.15-.59.17-.6.18-.63.19-.65.2-.66.21-.68.23-.71.24-.74.25-.78.25-.78.24-.77.23-.78.22-.77.2-.76.18-.74.15-.69.12-.64.09-.61.07-.58.04-.57.03-.57v-.57s0-.56,0-.56l-.03-.56-.05-.56-.07-.58-.09-.59-.11-.6-.14-.6-.16-.61-.19-.62-.22-.62-.25-.63-.27-.61-.3-.58-.32-.56-.34-.54-.36-.53-.37-.52-.37-.5-.37-.47-.36-.46-.36-.46-.34-.45-.32-.45-.29-.44-.25-.42-.21-.42-.16-.4-.12-.4-.07-.4-.03-.39v-.39s.06-.39.06-.39l.08-.4.11-.42.14-.45.16-.47.18-.49.2-.52.22-.56.24-.59.26-.63.26-.64.26-.64.26-.65.26-.64.26-.64.25-.63.24-.61.23-.59.22-.58.21-.58.22-.59.22-.61.21-.62.21-.62.2-.64.19-.66.18-.67.17-.69.15-.68.12-.65.09-.63.06-.61.02-.59v-.56s-.03-.52-.03-.52l-.05-.48-.07-.46-.08-.44-.09-.43-.09-.43-.1-.42-.09-.41-.09-.41-.09-.41-.09-.42-.08-.42-.08-.43-.07-.42-.06-.43-.06-.44-.05-.45-.04-.47-.03-.47v-.46s0-.48,0-.48l.02-.49.03-.5.06-.52.07-.52.09-.53.11-.53.13-.54.15-.56.16-.57.17-.56.18-.55.18-.54.19-.53.19-.53.19-.53.18-.53.17-.51.17-.51.16-.52.16-.53.15-.55.14-.56.12-.55.1-.56.09-.58.07-.59.04-.6v-.58s-.02-.56-.02-.56l-.06-.54-.09-.52-.11-.49-.13-.47-.14-.43-.14-.4-.14-.39-.14-.38-.13-.39-.13-.39-.11-.39-.1-.39-.09-.41-.08-.42-.07-.44-.05-.46-.04-.47-.02-.48v-.49s0-.51,0-.51v-.52s.04-.54.04-.54l.04-.54.05-.54.06-.54.07-.55.08-.55.09-.55.1-.54.11-.53.12-.53.12-.52.13-.52.13-.52.13-.5.13-.47.14-.46.14-.46.14-.45.14-.44.14-.43.14-.41.14-.4.14-.4.15-.39.15-.39.15-.37.15-.35.15-.34.16-.33.16-.32.17-.31.17-.3.17-.29.18-.29.18-.28.18-.28.2-.28.2-.28.21-.27.22-.26.24-.27.25-.26.26-.26.27-.24.27-.24.29-.23.3-.23.31-.22.32-.22.32-.21.32-.19.31-.18.31-.18.31-.17.3-.16.29-.15.27-.14.26-.14.25-.13.25-.13.24-.13.23-.13.22-.13.21-.13.21-.13.2-.14.2-.14.19-.15.19-.15.18-.16.18-.17.19-.18.19-.19.19-.2.18-.21.19-.22.18-.23.19-.24.19-.26.19-.27.18-.29.19-.3.18-.32.18-.34.17-.35.16-.36.14-.37.13-.38.11-.39.08-.39.07-.39.04-.38.02-.36v-.36s0-.35,0-.35l-.02-.35-.04-.35-.04-.35-.05-.35-.06-.36-.06-.37-.07-.38-.07-.4-.08-.4-.07-.4-.08-.4-.07-.41-.07-.41-.07-.41-.06-.4-.06-.39-.05-.38-.04-.37-.03-.37-.03-.37-.02-.35v-.34s0-.34,0-.34l.02-.34.03-.34.05-.34.06-.33.08-.32.09-.32.11-.31.13-.31.14-.31.16-.3.17-.3.18-.29.19-.28.19-.28.2-.28.21-.28.21-.27.21-.27.22-.26.22-.26.22-.25.22-.25.21-.24.21-.24.21-.23.2-.23.2-.23.19-.22.19-.22.19-.21.18-.21.18-.21.18-.21.17-.2.17-.19.17-.19.17-.19.16-.19.16-.18.16-.18.16-.17.15-.16.15-.16.15-.15.15-.14.15-.13.14-.12.14-.11.14-.11.14-.1.14-.09.14-.08.15-.08.15-.08.17-.08.18-.08.18-.09.2-.09.22-.1.24-.1.26-.11.28-.11.31-.12.33-.12.35-.12.37-.12.39-.12.41-.12.43-.11.43-.11.42-.09.42-.09.41-.08.4-.07.39-.07.36-.06.34-.05.32-.06.3-.05.28-.05.27-.05.25-.05.22-.05.21-.05.21-.06.2-.06.19-.06.18-.06.18-.07.18-.07.18-.07.17-.08.18-.08.18-.08.18-.09.18-.09.18-.1.19-.1.2-.11.19-.11.2-.11.18-.1-.02.24-.04.52-.03.53-.02.54-.02.54v.54s0,.54,0,.54l.02.54.03.55.03.53.04.51.05.5.04.48.05.47.04.46.03.43.03.41.02.39.02.37v.36s.02.36.02.36v.35s0,.34,0,.34v.35s0,.36,0,.36v.37s0,.39,0,.39v.4s.02.42.02.42l.02.44.02.46.03.48.04.5.05.52.05.52.06.53.07.54.07.55.08.55.08.54.08.52.08.51.08.51.08.51.08.51.08.5.08.49.08.49.08.5.09.51.1.52.1.53.11.52.11.53.12.53.13.54.14.55.15.55.15.54.16.55.17.56.17.58.18.6c.96,10.27,1.85,20.54,2.3,30.83.62,18.17-1.36,32.51,20.91,36.29.37.04.74.08,1.11.11.37.04.74.07,1.11.1.52.05,1.03.09,1.55.13.29.02.58.05.87.07.39.03.77.06,1.16.08.39.03.77.05,1.16.07.64.04,1.27.07,1.91.11.52.02,1.05.05,1.57.07.44.02.88.04,1.31.05.44.02.88.03,1.31.04.23,0,.47,0,.7.02s.47,0,.7.01c8.79.18,17.58-.23,26.37-.9.14-.01.28-.02.42-.03.66-.05,1.32-.1,1.98-.16l.61-.05c.65-.05,1.3-.11,1.95-.17,1.02-.09,2.05-.18,3.07-.27.63-.06,1.26-.12,1.9-.18.17-.01.33-.03.49-.05.64-.06,1.29-.12,1.94-.18,1.03-.1,2.07-.2,3.1-.3,1.91-.19,3.81-.38,5.72-.57.59-.06,1.17-.12,1.76-.18.66-.07,1.33-.14,1.99-.2.55-.06,1.09-.11,1.64-.17.74-.07,1.48-.15,2.23-.22.95-.1,1.91-.19,2.86-.28.72-.07,1.44-.14,2.16-.21.08,0,.16-.02.23-.02.76-.07,1.51-.14,2.27-.21,2.54-.23,5.08-.45,7.61-.64.83-.06,1.66-.13,2.5-.18,3.75-.26,7.5-.48,11.25-.61,13.17-.86,26.41-2.02,39.55-3.28,5.54-.53,11.08-1.07,16.62-1.65,7.78-.48,15.9-1.53,21.46-7.61,8.11-12.14,6.68-28.11,7.78-42.1.54-16.5,1.69-32.98,2.52-49.47,0-.2.02-.47.03-.8,0-.13.01-.27.02-.42,0-.22.02-.47.03-.74,0-.18.02-.36.02-.56s.02-.4.02-.61c.02-.53.04-1.11.07-1.74.02-.37.03-.77.04-1.17h0c0-.27.02-.55.03-.84,0-.15,0-.29.02-.44,0-.29.02-.59.03-.89h0c.02-.46.03-.93.05-1.41h0c0-.32.02-.65.03-.98,0-.17,0-.34.02-.51,0-.34.02-.68.03-1.03h0c0-.35.02-.7.03-1.06h0c0-.36.02-.72.03-1.09,0-.37.02-.75.03-1.12.02-.56.03-1.13.04-1.71.15-6.86.22-14.82.02-22.12,0-.4-.02-.8-.04-1.2.17.02.33.04.5.05.06,0,.13,0,.19,0,1.24.03,2.62-.21,3.71-.19,3.26-.19,6.53-.3,9.8-.3.71-.02,1.41-.03,2.1-.05.46,0,.92-.01,1.37-.02.45,0,.9,0,1.34,0,.65,0,1.29,0,1.92,0,1.18,0,2.32.03,3.43.07.06,0,.12,0,.18,0,.39.02.78.03,1.16.05.32.01.63.03.94.05.12,0,.23.01.35.02,0,0,.01,0,.02,0,.45.08.9.18,1.34.27.22.05.45.1.67.15.22.05.45.11.67.16.98.29,1.95.61,2.9.99.83.37,1.62.77,2.42,1.21.91.54,1.78,1.12,2.64,1.75.79.62,1.56,1.28,2.29,1.98.67.7,1.3,1.42,1.91,2.18.51.69.99,1.4,1.44,2.13.36.64.69,1.3,1,1.98,1.09,2.77,1.79,5.71,2.57,8.58,1.81,6.74,3.48,13.68,4.99,20.66,3.27,15.1,5.66,30.38,8.12,45.63,2.54,15.73,4.95,31.48,7.06,47.26.08.62.11,1.27.25,1.89.01.13.03.26.05.39.14,1.01.27,2.02.4,3.03.22,1.71.45,3.42.67,5.13.06.46.15,1.14.24,1.84l.02.17s0,0,0,0c0,.07.02.13.03.19.07.53.14,1.06.21,1.6h0c0,.12.02.23.05.35,1.58,11.95,3.19,23.89,4.86,35.83,2.28,16.29,4.73,32.55,6.9,48.86,0,0,0,.01,0,.02.01.09.02.17.03.25v.07c1.06,8.11,1.9,16.22,2.44,24.38.53,7.83.67,15.7.68,23.55Z" fill="#848a77"/><path d="M385.72,256.28v.46s0,.22,0,.22v.22s-.01.22-.01.22v.22s-.01.22-.01.22v.23s0,.24,0,.24v.25s-.01.28-.01.28v.3s-.02.31-.02.31l-.02.32-.02.33-.03.33-.03.34-.03.33-.03.33-.03.31-.03.3-.03.29-.04.29-.03.28-.04.27-.04.26-.03.25-.04.24-.03.24-.04.24-.04.23-.03.23-.04.23-.04.23-.04.23-.04.24-.04.24-.04.24-.04.25-.04.25-.05.25-.05.26-.05.25-.05.25-.05.25-.06.25-.06.26-.06.26-.07.27-.07.27-.07.28-.08.29-.08.31-.08.32-.09.32-.09.33-.09.33-.08.33-.09.33-.09.33-.08.33-.08.32-.07.31-.07.31-.07.31-.07.31-.07.3-.06.3-.06.3-.06.3-.05.31-.05.31-.05.32-.04.31-.03.32-.03.32-.02.32-.02.32-.02.31v.29s-.02.28-.02.28v.27s0,.25,0,.25v.25s0,.23,0,.23v.43s.01.19.01.19v.19s.02.18.02.18l.02.18.02.18.02.18.03.19.03.21.03.22.03.24.03.25.03.27.03.29.03.32.02.33.02.34v.35s0,.36,0,.36v.36s-.01.37-.01.37l-.02.39-.02.39-.03.39-.03.4-.03.4-.04.42-.05.43-.05.44-.05.44-.05.44-.06.44-.06.46-.06.46-.06.45-.06.45-.07.44-.07.44-.07.45-.07.46-.07.45-.07.44-.07.43-.07.43-.07.43-.07.43-.07.42-.07.41-.06.4-.06.39-.06.38-.06.37-.05.35-.05.33-.04.31-.04.29-.04.28-.03.27-.03.25-.03.24-.02.22-.02.21-.02.21v.21s-.02.2-.02.2v.2s0,.2,0,.2v.2s0,.21,0,.21v.22s.03.22.03.22l.02.22.02.23.02.24.03.24.02.26.03.27.03.27.02.29.03.31.02.34.02.36v.38s.02.41.02.41v.43s0,.46,0,.46v.49s-.02.5-.02.5l-.02.52-.03.53-.03.53-.03.53-.03.54-.04.54-.04.53-.03.52-.04.51-.03.5-.03.49-.03.48-.02.46-.02.45-.02.44-.02.43-.02.44-.02.45-.02.44-.02.45-.02.45-.02.45-.03.45-.03.45-.03.44-.04.43-.04.41-.04.4-.04.4-.05.39-.04.37-.04.36-.05.35-.04.33-.04.33-.04.32-.04.3-.04.29-.03.27-.03.26-.03.25-.02.25-.02.23v.23s-.02.22-.02.22v.21s0,.21,0,.21v.43s.01.21.01.21v.21s.02.22.02.22v.22s.03.23.03.23l.02.24.02.25.02.27.02.28.02.3.02.32.02.34.03.36.03.38.03.41.03.44.04.47.04.48.05.5.05.51.06.53.06.54.07.55.07.54.07.54.07.54.06.52.06.52.06.52.05.5.04.48.04.47.03.47.02.48.02.49v.48s.01.49.01.49v.49s-.02.5-.02.5l-.02.51-.03.52-.03.51-.03.49-.04.48-.04.46-.04.46-.04.45-.05.43-.04.41-.04.4-.04.38-.04.38-.04.37-.04.35-.04.33-.03.32-.03.3-.03.29-.03.28-.03.27-.03.25-.02.24-.02.23-.02.22-.02.22-.02.21-.02.2-.02.19-.02.19v.19s-.03.19-.03.19v.18s-.02.19-.02.19v.19s-.01.19-.01.19v.2s0,.2,0,.2v.21s.02.22.02.22l.02.23.02.24.02.25.03.26.03.26.04.28.04.28.04.29.04.3.04.3.04.3.04.3.04.3.03.29.03.29.03.29.03.28.03.27.02.26.02.26.02.26.02.26.02.26.02.25.02.25.02.25.02.25.02.26v.25s.03.25.03.25v.25s.02.25.02.25v.25s.02.25.02.25v.25s.01.24.01.24v.24s0,.24,0,.24v.24s0,.24,0,.24v.24s0,.23,0,.23v.23s0,.23,0,.23v.24s0,.24,0,.24v.49s0,.24,0,.24v.24s0,.25,0,.25v.76s0,.25,0,.25v.26s0,.26,0,.26v.28s0,.28,0,.28v.29s0,.3,0,.3v1.58s0,.32,0,.32v.33s0,.33,0,.33v.32s.01.31.01.31v.31s.01.3.01.3v.29s.02.29.02.29v.29s.03.28.03.28v.27s.03.27.03.27l.02.27.02.27.03.27.03.28.03.28.03.28.04.29.04.3.04.31.04.31.04.31.04.31.03.31.04.32.03.32.03.32.03.32.03.32.02.32.02.32.02.32.02.31v.31s.03.31.03.31v.31s.02.31.02.31v.31s0,.31,0,.31v.3s0,.3,0,.3v.59s0,.29,0,.29v.29s0,.28,0,.28v.28s0,.27,0,.27v.26s0,.26,0,.26v.25s0,.24,0,.24v.44s0,.21,0,.21v.39s0,.18,0,.18v1.35s0,.12,0,.12v.13s0,.13,0,.13v.14s-.02.15-.02.15v.16s-.02.16-.02.16v.16s-.03.17-.03.17v.17s-.03.17-.03.17l-.02.17-.02.17-.02.16-.02.15-.02.15-.02.14-.02.14-.02.13v.13s-.03.13-.03.13l-.02.13-.02.14-.02.15-.02.16-.03.18-.03.19-.04.21-.05.23-.06.26-.07.26-.08.28-.09.29-.09.29-.1.3-.11.3-.11.29-.11.28-.1.27-.1.26-.1.24-.1.23-.09.21-.09.2-.08.18-.08.17-.08.16-.08.15-.07.14-.07.13-.07.12h0c-1,.21-2,.4-3.01.55h0l-.08-.07-.13-.12-.12-.12-.12-.12-.12-.12-.12-.12-.12-.12-.12-.13-.12-.13-.12-.13-.13-.15-.13-.16-.14-.18-.08-.12c.04-1.4.07-2.79.11-4.19.1-3.9.2-7.79.3-11.69.97-34.48.77-68.98.14-103.47-.05-.81-.08-1.65-.11-2.54,0-.29-.02-.59-.03-.9-.02-.6-.03-1.23-.04-1.86,0-.32,0-.64-.01-.96,0-.59-.02-1.19-.02-1.8,0-.66,0-1.33-.01-2.01,0-.76,0-1.53,0-2.32,0-.38,0-.75,0-1.13,0-.73,0-1.47-.01-2.21,0-.6,0-1.22-.02-1.83,0-.74-.01-1.49-.03-2.24,0-.38-.01-.75-.02-1.13,0-.17,0-.33,0-.5,0-.39-.02-.78-.03-1.17-.02-.97-.05-1.94-.09-2.92,0-.2-.02-.41-.02-.61,0-.12,0-.23-.01-.35,0-.26-.02-.53-.04-.8-.03-.62-.06-1.25-.09-1.87s-.07-1.25-.11-1.87c-.06-.87-.12-1.73-.19-2.59,0,0,0-.02,0-.03v.03c-.7-.51-1.4-1.02-2.1-1.54-.2-.15-.41-.3-.61-.45l-.05-.14-.06-.19-.05-.18-.05-.17-.05-.15-.05-.14-.04-.13-.04-.12-.04-.11-.04-.1-.03-.09-.03-.08-.03-.07-.03-.07-.03-.06-.03-.05-.03-.05-.04-.04-.04-.04-.04-.03-.05-.03-.05-.03-.06-.02-.06-.02-.07-.02-.08-.02-.09-.02-.1-.02-.11-.02-.12-.02-.15-.02-.16-.02-.17-.03-.19-.03-.21-.03-.23-.04-.25-.05-.27-.06-.24-.06c-6.42-4.71-12.84-9.42-19.26-14.12-1.93-1.41-3.85-2.82-5.78-4.23-1.63-1.2-3.26-2.39-4.89-3.59h0c-.29-.21-.58-.43-.88-.64-.32-.23-.64-.47-.97-.71l.16-.02.61-.08.58-.09.55-.09.53-.1.5-.1.47-.1.44-.1.4-.09.37-.08.34-.07.31-.07.28-.06.26-.06.24-.05.22-.04.21-.04.2-.04.18-.03.18-.03.17-.03.16-.02.15-.02.14-.02h.14s.13-.03.13-.03h.13s.12-.02.12-.02h.12s.12,0,.12,0h.12s.12,0,.12,0h.12s.12.02.12.02h.12s.12.03.12.03l.12.02.13.03.13.03.13.04.13.04.13.05.14.05.14.06.15.06.16.07.16.07.17.08.18.09.2.09.2.09.22.1.23.11.24.11.26.11.27.11.28.12.28.11.29.11.29.11.3.11.3.11.29.1.28.1.27.1.27.09.26.09.26.09.24.09.23.08.22.08.22.08.22.08.21.09.21.08.21.08.21.08.21.08.21.08.22.08.22.08.22.07.23.07.23.07.24.07.25.07.25.06.26.06.27.06.27.06.29.06.31.06.32.05.33.05.34.05.35.05.37.05.38.05.38.05.38.05.38.05.37.05.37.05.37.05.35.05.34.05.32.06.31.06.3.07.28.07.26.07.24.07.23.07.21.07.19.06.18.06.17.06.16.06.15.05.14.05.13.05.12.05.11.05.1.05.1.05.09.04.08.04.07.04.07.05.06.05.05.05.04.06.03.06.02.06.02.06v.07s.01.07.01.07v.07s-.02.07-.02.07l-.02.08-.02.08-.03.09-.04.09-.05.1-.05.1-.05.1-.06.1-.06.1-.06.1-.07.1-.07.1-.07.1-.07.1-.07.09-.07.1-.07.1-.07.09-.07.09-.07.1-.07.09-.07.09-.07.09-.06.09-.06.09-.06.09-.06.08-.06.08-.05.08-.05.08-.05.08-.05.08-.05.07-.04.07-.04.07-.04.08-.04.08-.03.08-.03.08-.03.09-.02.09v.09s-.01.09-.01.09v.1s.03.09.03.09l.03.1.05.1.06.1.08.09.1.09.13.08.15.08.18.07.2.06.23.05.25.03.27.02h.3s.32,0,.32,0h.34s.35-.03.35-.03l.35-.02.35-.02.35-.02.34-.02.33-.02.31-.02h.29s.28-.02.28-.02h.26s.26,0,.26,0l.24.02.23.03.22.04.21.06.2.08.18.1.17.11.15.13.14.14.12.16.11.18.09.2.07.22.06.25.03.27v.3s0,.32,0,.32l-.04.35-.06.37-.08.38-.1.38-.11.38-.12.38-.13.37-.13.36-.12.33-.11.31-.11.29-.1.27-.09.26-.08.24-.08.23-.06.22-.05.21-.03.21v.21s0,.21,0,.21l.04.2.07.2.11.2.15.19.18.18.21.17.23.15.25.13.27.11.28.09.29.08.29.06.28.05.28.04.28.04.28.03.28.03.27.02.27.02.27.02.26.02.26.02.26.02.25.03.25.03.25.04.25.05.25.06.25.08.25.09.24.11.23.13.22.15.22.18.21.19.2.22.18.23.17.25.16.27.15.28.14.3.13.3.12.3.12.3.11.31.11.31.12.32.13.32.14.32.15.32.16.32.18.33.2.34.22.34.23.34.23.34.24.33.24.34.25.35.24.35.23.36.21.37.2.38.18.4.16.4.13.4.11.39.09.38.07.37.05.36.04.35.03.33.02.3.02.29v.27s.02.26.02.26v.24Z" fill="#6b7060"/><path d="M310.94,161.09V53.99c-.16-.03-.33-.05-.5-.05h-.02c-.51,0-1.03.1-1.54.16-.73.08-1.46.15-2.18.22l-1.25.13c-1.98.2-3.95.4-5.92.61-9.87,1.02-19.73,2.04-29.6,3.05-5.76.59-11.52,1.17-17.28,1.76-1.79.18-3.59.37-5.38.55-.01.11-.02.23-.01.35.02.86.05,1.72.07,2.59.02.84.04,1.67.06,2.51v.07c.08,4,.13,7.99.21,11.99.21,11.03.43,22.07.64,33.1.19,10.34.4,20.68.59,31.01.12,6.28.23,12.55.36,18.83.03,1.66.07,3.33.1,5,0,.17.02.33.06.49.52-.04,1.04-.07,1.56-.11,1.28-.09,2.57-.18,3.85-.28,2.36-.18,4.72-.37,7.08-.6,14.53-1.45,29.06-3.06,43.64-3.97.91-.06,1.83-.11,2.75-.17.91-.05,1.83-.1,2.75-.15ZM322.45,98.29c.44,20.82,1.25,41.67,0,62.47.24,1.97-.9,5.6-.7,8.2-4.63,6.48-14.88,6.13-22.39,7-17.39,1.75-34.75,3.35-52.2,4.52-.92.06-1.61.11-2.65.18-20.4,1.05-40.9,3.66-61.45,4.98l.23-.12.22-.13.2-.13.17-.13.15-.13.14-.13.12-.12.1-.12.09-.12.09-.12.08-.13.08-.13.08-.14.08-.15.08-.16.08-.17.09-.18.09-.19.1-.2.1-.22.11-.24.12-.25.12-.27.13-.29.13-.31.13-.32.13-.34.13-.34.12-.35.11-.35.1-.33.09-.32.09-.3.07-.28.07-.26.07-.25.06-.23.06-.21.06-.21.06-.2.07-.2.07-.2.07-.19.08-.19.08-.19.09-.19.1-.18.1-.18.11-.18.11-.17.11-.17.11-.17.12-.17.12-.17.12-.18.12-.18.12-.19.13-.2.13-.21.14-.24.14-.25.14-.27.14-.29.15-.32.14-.34.14-.36.12-.38.1-.39.08-.41.06-.42.03-.42v-.42s-.05-.4-.05-.4l-.08-.37-.11-.34-.15-.32-.18-.29-.2-.26-.23-.24-.25-.22-.28-.2-.3-.19-.31-.18-.34-.18-.35-.17-.35-.16-.36-.16-.37-.17-.38-.17-.38-.18-.36-.18-.33-.18-.3-.18-.27-.18-.24-.19-.2-.19-.16-.19-.12-.2-.08-.2-.04-.2v-.2l.03-.19.06-.19.09-.19.11-.18.13-.18.15-.18.16-.18.17-.18.18-.19.2-.21.21-.22.23-.24.25-.25.26-.26.27-.28.28-.29.29-.3.29-.31.29-.32.28-.32.26-.32.25-.31.23-.31.2-.3.19-.3.16-.28.13-.26.11-.25.08-.24.05-.22.03-.2v-.19s-.03-.17-.03-.17l-.05-.15-.08-.13-.1-.11-.11-.1-.12-.08-.13-.07-.13-.07-.13-.06-.13-.07-.13-.07-.13-.08-.14-.09-.15-.1-.16-.1-.17-.12-.18-.13-.17-.14-.17-.16-.16-.18-.14-.2-.12-.22-.1-.24-.06-.25-.02-.26v-.27s.06-.28.06-.28l.08-.28.12-.29.14-.29.17-.29.19-.3.21-.31.23-.32.25-.34.27-.35.28-.35.3-.35.31-.34.32-.34.34-.34.34-.33.35-.32.36-.32.37-.33.39-.34.4-.35.41-.36.42-.37.43-.39.44-.41.46-.43.47-.46.47-.47.44-.48.43-.5.41-.51.39-.52.36-.54.31-.54.26-.52.2-.52.14-.5.09-.48.03-.46-.02-.42-.07-.37-.11-.34-.15-.31-.18-.28-.22-.26-.25-.23-.28-.2-.31-.18-.33-.17-.36-.15-.39-.14-.42-.13-.44-.12-.47-.11-.51-.12-.54-.12-.59-.12-.61-.12-.63-.12-.65-.12-.67-.13-.68-.15-.68-.16-.65-.18-.6-.2-.55-.22-.49-.25-.42-.28-.34-.31-.24-.32-.15-.33-.07-.32v-.31s.05-.3.05-.3l.09-.29.12-.28.15-.28.17-.29.18-.3.2-.32.21-.34.23-.35.24-.37.26-.38.27-.4.28-.41.3-.42.3-.43.29-.42.3-.42.3-.43.3-.44.31-.46.31-.46.3-.46.29-.47.29-.48.28-.49.27-.51.25-.51.21-.5.18-.5.14-.49.09-.48.03-.46-.02-.43-.08-.38-.13-.34-.16-.29-.19-.26-.22-.22-.24-.2-.25-.17-.27-.16-.28-.15-.3-.15-.32-.14-.33-.14-.34-.14-.35-.14-.36-.15-.38-.15-.38-.16-.38-.15-.38-.16-.38-.16-.38-.16-.39-.17-.39-.17-.39-.17-.38-.18-.37-.18-.37-.19-.36-.2-.36-.22-.34-.23-.32-.24-.29-.25-.26-.27-.23-.27-.2-.28-.17-.29-.13-.28-.09-.29-.06-.29-.02-.29v-.29s.06-.28.06-.28l.07-.28.1-.28.12-.28.15-.29.17-.3.19-.31.21-.31.23-.33.25-.35.28-.37.31-.4.34-.41.36-.42.39-.43.42-.45.45-.45.48-.46.49-.45.5-.43.51-.42.51-.41.53-.4.53-.4.53-.39.52-.37.52-.37.52-.38.53-.38.54-.39.53-.39.52-.39.52-.4.53-.41.54-.43.54-.44.53-.44.51-.44.5-.45.49-.45.48-.46.46-.47.43-.46.38-.45.35-.45.31-.44.27-.43.23-.43.18-.42.13-.41.08-.39.03-.38v-.36s-.07-.36-.07-.36l-.09-.33-.13-.32-.16-.3-.19-.28-.22-.27-.25-.26-.27-.25-.3-.24-.34-.24-.36-.24-.4-.24-.44-.25-.47-.24-.5-.24-.54-.24-.58-.24-.63-.25-.68-.24-.72-.23-.74-.22-.78-.21-.82-.2-.86-.19-.9-.18-.91-.15-.9-.11-.91-.09-.92-.07-.93-.05-.95-.04-.94-.03-.91-.02-.91-.02h-.91s-.9-.03-.9-.03l-.9-.02-.87-.04-.81-.05-.78-.06-.73-.08-.67-.11-.61-.13-.53-.16-.43-.19-.34-.22-.26-.25-.18-.27-.11-.28-.05-.28v-.27s.05-.25.05-.25l.07-.24.09-.23.11-.23.12-.23.13-.23.14-.24.15-.24.16-.24.17-.25.18-.24.18-.23.19-.23.2-.22.21-.22.23-.21.24-.21.26-.21.28-.21.31-.22.34-.22.38-.24.41-.24.45-.25.49-.27.54-.28.59-.29.64-.31.68-.3.69-.3.72-.3.74-.29.75-.29.76-.29.74-.27.7-.26.66-.25.65-.26.62-.26.6-.27.57-.27.53-.27.5-.28.48-.29.46-.3.44-.32.4-.32.37-.33.34-.34.31-.35.29-.36.26-.37.23-.38.19-.38.17-.39.14-.4.11-.4.08-.4.06-.4.04-.39v-.38s0-.37,0-.37l-.02-.36-.05-.36-.07-.33-.08-.31-.1-.28-.11-.26-.13-.24-.14-.23-.15-.2-.16-.19-.18-.17-.18-.16-.2-.14-.21-.13-.23-.11-.25-.09-.27-.08-.29-.07-.32-.05-.35-.04-.38-.03h-.41s-.45-.02-.45-.02h-1.05s-.61.03-.61.03l-.66.03-.72.05-.76.07-.81.08-.85.1-.89.11-.89.11-.87.1-.87.1-.87.09-.85.07-.85.06-.82.04-.78.02h-.76s-.75.01-.75.01h-.75s-.77-.02-.77-.02h-.77s-.76-.03-.76-.03h-.77s-.79-.03-.79-.03h-.8s-.82,0-.82,0h-.8s-.77.02-.77.02l-.76.02-.76.02-.76.02-.77.02-.77.02h-.76s-.76,0-.76,0h-.76s-.22-.02-.22-.02c1.1-.08,2.19-.16,3.29-.24,10.93-.8,21.86-1.63,32.79-2.44,11.42-.85,22.84-1.66,34.25-2.55,11.31-.88,22.63-1.68,33.94-2.52,11.27-.84,22.53-1.67,33.79-2.51,7.13-.54,14.26-1.09,21.39-1.61,2.75,17.98,2.81,36.31,3.45,54.46Z" fill="#e2ddce"/><path d="M200.29,85.51v.36s-.02.38-.02.38l-.08.39-.13.41-.18.42-.23.43-.27.43-.31.44-.35.45-.38.45-.43.46-.46.47-.48.46-.49.45-.5.45-.51.44-.53.44-.54.44-.54.43-.53.41-.52.4-.52.39-.53.39-.54.39-.53.38-.52.38-.52.37-.52.37-.53.39-.53.4-.53.4-.51.41-.51.42-.5.43-.49.45-.48.46-.45.45-.42.45-.39.43-.36.42-.34.41-.31.4-.28.37-.25.35-.23.33-.21.31-.19.31-.17.3-.15.29-.12.28-.1.28-.07.28-.04.28v.29s0,.29,0,.29l.06.29.09.29.13.28.17.29.2.28.23.27.26.27.29.25.32.24.34.23.36.22.36.2.37.19.37.18.38.18.39.17.39.17.39.17.38.16.38.16.38.16.38.15.38.16.38.15.36.15.35.14.34.14.33.14.32.14.3.15.28.15.27.16.25.17.24.2.22.22.19.26.16.29.13.34.08.38.02.43-.03.46-.09.48-.14.49-.18.5-.21.5-.25.51-.27.51-.28.49-.29.48-.29.47-.3.46-.31.46-.31.46-.3.44-.3.43-.3.42-.29.42-.3.43-.3.42-.28.41-.27.4-.26.38-.24.37-.23.35-.21.34-.2.32-.18.3-.17.29-.15.28-.12.28-.09.29-.05.3v.31s.07.32.07.32l.15.33.24.32.34.31.42.28.49.25.55.22.6.2.65.18.68.16.68.15.67.13.65.12.63.12.61.12.59.12.54.12.51.12.47.11.44.12.42.13.39.14.36.15.33.17.31.18.28.2.25.23.22.26.18.28.15.31.11.34.07.37.02.42-.03.46-.09.48-.14.5-.2.52-.26.52-.31.54-.36.54-.39.52-.41.51-.43.5-.44.48-.47.47-.47.46-.46.43-.44.41-.43.39-.42.37-.41.36-.4.35-.39.34-.37.33-.36.32-.35.32-.34.33-.34.34-.32.34-.31.34-.3.35-.28.35-.27.35-.25.34-.23.32-.21.31-.19.3-.17.29-.14.29-.12.29-.08.28-.05.28v.27s0,.26,0,.26l.06.25.1.24.12.22.14.2.16.18.17.16.17.14.18.13.17.12.16.1.15.1.14.09.13.08.13.07.13.07.13.06.13.07.13.07.12.08.11.1.1.11.08.13.05.15.03.17v.19s-.02.2-.02.2l-.05.22-.08.24-.11.25-.13.26-.16.28-.19.3-.2.3-.23.31-.25.31-.26.32-.28.32-.29.32-.29.31-.29.3-.28.29-.27.28-.26.26-.25.25-.23.24-.21.22-.2.21-.18.19-.17.18-.16.18-.15.18-.13.18-.11.18-.09.19-.06.19-.03.19v.2l.04.2.08.2.12.2.16.19.2.19.24.19.27.18.3.18.33.18.36.18.38.18.38.17.37.17.36.16.35.16.35.17.34.18.31.18.3.19.28.2.25.22.23.24.2.26.18.29.15.32.11.34.08.37.04.4v.42s-.02.42-.02.42l-.06.42-.08.41-.1.39-.12.38-.14.36-.14.34-.15.32-.14.29-.14.27-.14.25-.14.24-.13.21-.13.2-.12.19-.12.18-.12.18-.12.17-.12.17-.11.17-.11.17-.11.17-.11.18-.1.18-.1.18-.09.19-.08.19-.08.19-.07.19-.07.2-.07.2-.06.2-.06.21-.06.21-.06.23-.07.25-.07.26-.07.28-.09.3-.09.32-.1.33-.11.35-.12.35-.13.34-.13.34-.13.32-.13.31-.13.29-.12.27-.12.25-.11.24-.1.22-.1.2-.09.19-.09.18-.08.17-.08.16-.08.15-.08.14-.08.13-.08.13-.09.12-.09.12-.1.12-.12.12-.14.13-.15.13-.17.13-.2.13-.22.13-.23.12c-4.41.29-8.82.52-13.23.65-2.09-.06-4.37-.04-6.72-.02-1.81,0-3.67,0-5.53-.05-9.03-.27-18.13-1.88-22.21-10.27-1.8-6.5-.98-13.39-1.56-20.06-.86-22.25-3.72-44.33-5.85-66.47-.49-5.15-.95-10.3-1.33-15.46-.31-4.97-.51-10.29-.63-15.57h0c0-.07,0-.13,0-.2,1.21-.09,2.42-.18,3.62-.27,1.73-.13,3.47-.26,5.2-.39h.02c.94-.07,1.89-.14,2.83-.21,7.29-.54,14.58-1.09,21.86-1.63h.23s.76.02.76.02h1.52s.77-.02.77-.02l.77-.02.76-.02.76-.02.76-.02h.77s.8-.02.8-.02h1.62s.79.02.79.02h.77s.76.03.76.03h.77s.77.02.77.02h.75s.75,0,.75,0h.76s.78-.04.78-.04l.82-.04.85-.06.85-.07.87-.09.87-.1.87-.1.89-.11.89-.11.85-.1.81-.08.76-.07.72-.05.66-.03.61-.02h.55s.5,0,.5,0h.45s.41.02.41.02l.38.03.35.04.32.05.29.07.27.08.25.09.23.11.21.13.2.14.18.16.18.17.16.19.15.2.14.23.13.24.11.26.1.28.08.31.07.33.05.36.02.36v.37s0,.38,0,.38l-.04.39-.06.4-.08.4-.11.4-.14.4-.17.39-.19.38-.23.38-.26.37-.29.36-.31.35-.34.34-.37.33-.4.32-.44.32-.46.3-.48.29-.5.28-.53.27-.57.27-.6.27-.62.26-.65.26-.66.25-.7.26-.74.27-.76.29-.75.29-.74.29-.72.3-.69.3-.68.3-.64.31-.59.29-.54.28-.49.27-.45.25-.41.24-.38.24-.34.22-.31.22-.28.21-.26.21-.24.21-.23.21-.21.22-.2.22-.19.23-.18.23-.18.24-.17.25-.16.24-.15.24-.14.24-.13.23-.12.23-.11.23-.09.23-.07.24-.04.25v.27s.04.28.04.28l.11.28.18.27.26.25.34.22.43.19.53.16.61.13.67.11.73.08.78.06.81.05.87.04.9.02.9.02h.91s.91.03.91.03l.91.02.94.03.95.04.93.05.92.07.91.09.9.11.91.15.9.18.86.19.82.2.78.21.74.22.72.23.68.24.63.25.58.24.54.24.5.24.47.24.44.25.4.24.36.24.34.24.3.24.27.25.25.26.22.27.19.28.16.3.13.32.09.33.06.36Z" fill="#f5f0e0"/><path d="M273.8,332.96c.65-.06,1.31-.11,1.97-.17-.76.83-1.48,1.7-2.21,2.54-1,1.15-2,2.29-3,3.43-.61.7-1.22,1.4-1.83,2.09-3.15,3.6-6.3,7.21-9.46,10.81-.54.61-1.07,1.23-1.61,1.84-1.1,1.25-2.19,2.5-3.28,3.76-4.77,5.45-9.54,10.9-14.29,16.35-4.09,4.68-8.18,9.37-12.28,14.05h0c-1.21,1.38-2.41,2.76-3.62,4.14-1.36-1.23-2.72-2.46-4.08-3.69-5.79-5.24-11.57-10.48-17.36-15.71-6.51-5.89-13.02-11.78-19.53-17.67-.45-.41-.9-.81-1.34-1.22-2.27-2.05-4.54-4.12-6.82-6.17-.05-.05-.1-.09-.15-.14-1.24-1.12-2.47-2.24-3.71-3.36-.56-.51-1.14-1.01-1.71-1.53h.03c.72-.07,1.44-.13,2.16-.19h0c.07,0,.14-.02.2-.02,1.69-.15,3.39-.3,5.08-.46,4.67-.42,9.34-.84,14.01-1.26,0-.53,0-1.07,0-1.6,0-1.53-.02-3.06-.03-4.59-.02-2.88-.03-5.77-.05-8.65-.03-5.35-.06-10.69-.09-16.04-.06-9.97-.11-19.96-.17-29.93-.02-2.64-.03-5.29-.04-7.94,0-.24,0-.49,0-.73,0-1.59,0-3.19,0-4.78l5.49-.31c2.87-.16,5.73-.32,8.6-.48,4.85-.28,9.69-.55,14.54-.83,5.99-.34,11.99-.68,17.99-1.02,2.85-.16,5.7-.32,8.56-.49,1.59-.09,3.17-.18,4.75-.27h0c1.83-.11,3.65-.21,5.48-.31.03,1.83.06,3.67.09,5.5.12,6.56.26,13.12.38,19.68.19,10.18.36,20.36.55,30.53.1,5.43.19,10.86.29,16.29,2.72-.24,5.45-.49,8.17-.73.8-.07,1.6-.15,2.39-.21,1.98-.18,3.96-.36,5.94-.54Z"/><path d="M271.19,272.35c.03,2.2.07,4.4.1,6.61-2.67-1.73-5.33-3.44-8-5.17-4.8-3.11-9.61-6.21-14.41-9.31-.77-.5-1.55-1-2.33-1.5,1.32-.07,2.64-.15,3.96-.22h0c1.78-.1,3.57-.21,5.36-.31,1.51.97,3.02,1.94,4.52,2.92,3.6,2.33,7.2,4.66,10.81,6.98Z"/><path d="M272.2,337.04s-.05-.04-.08-.05c-.52.59-1.04,1.19-1.56,1.79-.61.7-1.22,1.4-1.83,2.09-.64.74-1.29,1.48-1.93,2.21-.03-1.81-.06-3.62-.09-5.43-.17-10.74-.33-21.48-.5-32.23-.17-10.25-.32-20.51-.48-30.76-.03-1.97-.06-3.93-.09-5.9,1.85,1.2,3.7,2.39,5.56,3.59.08,5,.16,10,.23,15,.17,10.47.32,20.94.49,31.41.1,6.09.19,12.18.29,18.27Z"/><path d="M272.49,354.55c.03,1.56.06,3.11.06,4.67s-1.18,2.77-2.7,2.8c-.02,0-.04,0-.05,0-1.18,0-2.22-.78-2.6-1.86.18-.19.37-.39.55-.59,1.58-1.67,3.16-3.35,4.74-5.03Z"/><path d="M290.83,343.08c-1.27,1.35-2.54,2.7-3.81,4.05-.44-.29-.87-.59-1.3-.89-.44-.24-.85-.58-1.26-.85-.79-.54-1.58-1.08-2.37-1.62-1.7-1.15-3.39-2.31-5.09-3.46-3.45-2.36-6.9-4.71-10.36-7.06-.04-2.24-.07-4.48-.1-6.72,1.21.82,2.41,1.65,3.62,2.47,2.36,1.61,4.73,3.22,7.09,4.83,3.44,2.34,6.89,4.69,10.33,7.04.36.25.73.5.79.56.84.51,1.64,1.08,2.45,1.64Z"/><path d="M239.05,398.07c-1.26,1.34-2.53,2.68-3.79,4.01-.55-.52-1.09-1.04-1.64-1.55-1.74-1.61-3.49-3.21-5.23-4.82-4.38-4.02-8.75-8.06-13.12-12.08-5.15-4.75-10.31-9.49-15.46-14.24-1.67-1.54-3.37-3.05-5-4.61-1.08-1.03-1.27-2.72-.25-3.88.98-1.11,2.77-1.25,3.88-.25.03.02.05.05.08.07l.04.04c1.54,1.47,3.13,2.88,4.69,4.32,2.59,2.38,5.18,4.77,7.76,7.15,4.82,4.44,9.63,8.87,14.45,13.31,3.88,3.58,7.77,7.16,11.66,10.73.64.6,1.29,1.19,1.94,1.78Z"/><path d="M290.83,343.08c-1.8,1.91-3.6,3.82-5.4,5.73-7.15,7.6-14.31,15.21-21.47,22.81-7.56,8.02-15.11,16.05-22.67,24.08-2.01,2.13-4.02,4.26-6.03,6.39-.55-.52-1.09-1.04-1.64-1.55l-2.38-2.19c1.03-1.09,2.07-2.19,3.1-3.28,3.79-4.03,7.6-8.07,11.39-12.1,7.34-7.8,14.68-15.6,22.03-23.39,6.17-6.54,12.32-13.08,18.48-19.63.45.31.9.61,1.35.92.36.25.73.5.79.56.84.51,1.64,1.08,2.45,1.64Z"/><path d="M335.1,237.31c.17-3.58,5.59-3.39,5.49.2-.17,3.58-5.59,3.39-5.49-.2Z"/><path d="M344.04,224.93c.17-3.58,5.59-3.39,5.49.2-.17,3.58-5.59,3.39-5.49-.2Z"/><path d="M355.08,233.35c.17-3.58,5.59-3.39,5.49.2-.17,3.58-5.59,3.39-5.49-.2Z"/><path d="M352.37,225.45c.17-3.58,5.59-3.39,5.49.2-.17,3.58-5.59,3.39-5.49-.2Z"/><path d="M363.02,223c.17-3.58,5.59-3.39,5.49.2-.17,3.58-5.59,3.39-5.49-.2Z"/><path d="M369.59,241.06c.17-3.58,5.59-3.39,5.49.2-.17,3.58-5.59,3.39-5.49-.2Z"/><path d="M85.07,383.51c-4.01-.11-3.5-6.08.4-5.51,3.14.46,9-2.44,9.99,2.01.3,4.48-7.41,2.98-10.4,3.5Z"/><path d="M404.25,361.74c0,1.78-.21,3.64-.35,5.31-.05.01-.1.02-.15.03-5.71.74-11.54,1.26-17.2,1.11-2.57.12-7.13.12-6.16-3.69.5-1.32,1.8-2.16,3.19-1.86,2.54.11,5.08.08,7.63.06,3.71-.12,7.39-.57,11.09-.98.65-.18,1.34-.17,1.95.03Z"/></svg>