<?xml version="1.0" encoding="UTF-8"?><svg id="a" xmlns="http://www.w3.org/2000/svg" viewBox="0 0 500 500"><path d="M140.16,259.46c-4.09-.13-8.17-.64-12.15-1.64-3.66-.92-7.23-2.36-10.41-4.41-3.35-2.17-6.16-5.04-8.17-8.51-4.31-7.44-3.96-16.7-1.78-24.75,1.55-5.7,3.91-11.11,6.68-16.25.04-.07.08-.14.11-.21,0-.01.02-.03.02-.03,2.42-4.43,5.15-8.69,8.12-12.78.18-.25.36-.5.52-.71.05-.07.1-.14.12-.17.04-.05.08-.11.11-.16.02-.02.03-.04.04-.05,4.45-6.09,9.41-11.78,14.55-17.2,6.03-6.35,12.49-12.31,19.22-17.9,6.91-5.75,14.09-11.14,21.51-16.2,7.34-5.01,14.96-9.63,22.75-13.92,5.39-2.97,10.91-5.74,16.45-8.26,8.15-3.72,16.5-7.02,25.07-9.68,8.75-2.72,17.72-4.82,26.84-5.79,8.51-.91,17.34-.8,25.61,1.6.03,0,.05,0,.06.01,0,0,.02,0,.03,0,.03,0,.06.01.09.02.66.14,1.3.4,1.93.63.96.34,1.91.72,2.84,1.14,1.92.87,3.75,1.93,5.45,3.18.09.06.18.13.26.19.04.03.09.07.13.1.09.07.18.14.26.21,2.98,2.34,5.39,5.35,6.98,8.79,1.73,3.74,2.45,7.87,2.44,11.98,0,4.17-.81,8.32-1.96,12.32-1.16,4.04-2.79,7.95-4.64,11.72-.52,1.06-1.06,2.1-1.49,2.89-3.93,7.28-8.71,14.07-13.92,20.48-5.42,6.67-11.35,12.91-17.58,18.82-4.52,4.29-9.22,8.39-13.97,12.25l-.27.22c-6.91,5.63-14.13,10.87-21.55,15.8-2.26,1.5-4.55,2.97-6.8,4.36-.38.24-.76.47-1.1.68-7.64,4.73-15.53,9.06-23.61,12.96-1.65.79-3.3,1.58-4.96,2.33-.16.08-.33.15-.35.16-7.99,3.64-16.18,6.87-24.56,9.47-8.51,2.64-17.2,4.68-26.06,5.73-3.39.4-6.81.61-10.22.61-.89,0-1.77-.01-2.66-.04ZM276.07,104.68c-4.4.21-8.76.71-13.11,1.44-6.04,1.08-12,2.53-17.86,4.32,0,0-.01,0-.02,0l-.13.04c-8.46,2.64-16.72,5.83-24.6,9.39-.08.04-.17.08-.21.09-.02,0-.03.01-.04.02-.18.08-.36.16-.52.24-7.79,3.58-15.4,7.55-22.8,11.88-1.98,1.16-3.94,2.34-5.89,3.54-7.5,4.67-14.79,9.66-21.83,15.01-2.19,1.66-4.34,3.36-6.45,5.06-6.81,5.54-13.36,11.41-19.52,17.67-.64.65-1.28,1.31-1.92,1.98-.2.21-.41.43-.54.57-4.97,5.24-9.63,10.75-13.9,16.48-.11.15-.22.3-.28.38-.04.05-.08.11-.12.16-.02.02-.03.04-.03.04l-.23.31c-2.87,3.94-5.49,8.06-7.77,12.18-.03.06-.06.11-.09.17-.01.03-.03.05-.09.18-1.68,3.1-3.15,6.3-4.45,9.58-.91,2.42-1.69,4.88-2.29,7.4-.38,1.71-.67,3.43-.86,5.17-.13,1.45-.18,2.89-.15,4.34.06,1.21.17,2.4.36,3.59.18.97.41,1.92.69,2.87.26.79.55,1.57.88,2.33.36.76.74,1.5,1.18,2.22.43.68.89,1.33,1.39,1.96.55.67,1.14,1.3,1.76,1.91.69.65,1.42,1.25,2.18,1.82.95.67,1.93,1.29,2.95,1.85,1.11.58,2.25,1.09,3.41,1.54,1.59.59,3.21,1.08,4.85,1.47,2.21.5,4.44.84,6.7,1.06,3.06.27,6.13.3,9.2.19,4.4-.21,8.76-.71,13.1-1.44,6.1-1.08,12.1-2.58,17.91-4.34.06-.02.11-.04.17-.05h.04c8.3-2.6,16.39-5.75,24.11-9.21.2-.09.4-.18.59-.27l.48-.22c8.08-3.72,15.96-7.86,23.63-12.36,1.47-.87,2.94-1.75,4.16-2.5.42-.26.83-.51,1.14-.7.06-.04.13-.08.19-.12h.02c7.49-4.71,14.78-9.69,21.81-15.06,2.01-1.54,4-3.1,5.75-4.52.18-.15.37-.3.55-.45,6.68-5.49,13.14-11.25,19.21-17.41.85-.86,1.68-1.73,2.52-2.6,5.08-5.38,9.88-11,14.25-16.97,3.03-4.21,5.86-8.55,8.29-13l.12-.22c1.62-3.02,3.06-6.13,4.31-9.33.88-2.37,1.65-4.77,2.24-7.22.43-1.89.76-3.8.95-5.74.11-1.38.15-2.75.11-4.13-.05-1.07-.16-2.13-.33-3.19-.18-1.03-.43-2.05-.72-3.06-.27-.84-.58-1.66-.94-2.47-.33-.71-.7-1.4-1.1-2.07-.45-.72-.94-1.41-1.47-2.07-.55-.67-1.14-1.3-1.77-1.9-.66-.61-1.36-1.19-2.08-1.73-.94-.66-1.92-1.27-2.93-1.83-1.1-.57-2.23-1.08-3.38-1.53-1.51-.56-3.03-1.02-4.59-1.42-2.29-.52-4.59-.89-6.93-1.13-2.16-.18-4.32-.26-6.48-.26-.92,0-1.85.02-2.77.04Z"/><path d="M335.34,131.31c-13.2-23.15-35.79-29.7-61.08-27.18-6.06.51-11.92,1.41-17.77,2.93-2.75.25-7.08,2.87-9.42,1.56-.91-.77-.97-2.1-.24-3.01,13.91-5.26,29.77-6.9,44.67-5.83,15.55.91,30.54,7.24,40.43,19.56,1.7,2.48,10.22,10.6,6.28,12.9-.3.15-.62.23-.93.23-.78,0-1.54-.44-1.93-1.17Z"/><path d="M122.46,283.07c-6.38-9.01-14.84-16.95-18.79-27.43-5.96-16.27,5.04-40.59,12.69-55.19,2.6-4.53,5.65-8.77,8.74-12.96,1.2-1.7,3.17-4.98,5.46-2.92.99.97.74,2.74-.49,3.38-1.04,1.31-1.97,2.7-2.98,4.04-3.27,4.37-6.46,9.23-8.89,13.98-6.08,12.69-11.93,26.57-12.1,40.78.45,8.86,5.84,16.05,11.18,22.65,2.83,3.7,5.67,7.4,8.54,11.07,1.25,1.57-.26,3.44-1.81,3.44-.56,0-1.13-.24-1.57-.83Z"/><path d="M133.99,284.73c-2.91-.46-9.86.61-9.55-3.17.19-1.15,1.3-1.95,2.45-1.77,6.23,1.02,12.44.72,18.63.23,14.38-1.38,28.63-4.98,41.92-10.59,58.8-24.34,110.29-57.15,141.91-114.03,2.53-5.14,5.33-10.37,6.1-16.12.65-2.57-.64-7.35,1.14-9.11,2.48-1.32,3.86.82,3.4,3.46.09,5.43-.78,10.83-3.09,15.79-7.98,18.38-20.78,34.18-33.59,49.4-26.1,29.57-60.84,50.14-96.25,66.68-22.22,10.65-46.1,19.25-71,19.25-.69,0-1.38,0-2.07-.02Z"/><path d="M297.75,105.36c-2.2-3.84,5.56-5.41,7.75-7.35,13.31-7.76,26.57-15.62,40.23-22.74,2.35-1.41,4.6,2.28,2.18,3.67-6.99,3.73-13.94,7.53-20.84,11.42-7.47,4.28-14.81,8.78-22.33,12.98-1.69.54-3.6,2.78-5.39,2.78-.55,0-1.09-.21-1.61-.75Z"/><path d="M48.8,289.5c-3.52-2.53,10.5-11.44,12.45-14.06,2.07-1.83,4.01-3.52,6.03-5.31-.02.02-.03.03-.05.04.83-.73,1.51-1.33,2.29-2.02-.02.01-.04.03-.06.04,7.36-6.46,14.54-12.95,21.88-19.39,2.75-1.6,15.07-16.24,15.65-8.05-11.85,10.71-24.86,21.7-36.94,32.61-2,1.76-4.02,3.54-5.98,5.26-2.65,1.5-10.82,11.37-14.23,11.37-.43,0-.78-.16-1.04-.5Z"/><path d="M447.88,123.13c-30.73-17.2-63.18-30.93-96.31-42.76-1.7-.91-4.67-1.1-4.83-3.45,0-1.16.97-2.13,2.13-2.13,23.83,8.89,47.9,17.65,70.78,28.93,10.24,5.03,20.39,10.24,30.39,15.72,2.01,1.15.79,4-1.08,4-.34,0-.7-.1-1.07-.32Z"/><path d="M143.38,363.33c-2.39-3.01,9.45-8.83,11.35-11.17,3.54-2.73,7.05-5.48,10.59-8.2,29.25-22.41,59.72-43.18,89.6-64.74,65.65-48.51,128.14-101.25,190.06-154.39,1.67-1.22,3.33-3.82,5.58-2.58,1.25.8,1.38,2.79.07,3.63-2.44,1.38-4.32,3.67-6.55,5.39-80.49,69.66-163.23,136.79-250.88,197.25-11.98,8.68-23.82,17.6-35.47,26.7-2.76,1.38-9.56,8.89-12.94,8.89-.59,0-1.08-.24-1.42-.78Z"/><path d="M142.76,365.48c-11.07-1.52-22.21-13.23-31.67-19.32-21.98-16.11-41.52-35.31-60.56-54.72-1.7-1.46-2.78-5.07.44-5.29,1.96.06,2.31,2.42,3.64,3.5,24.42,25,50.39,48.52,79.59,67.87,7.12,5.01,9.49,3.81,11.22,2.62,1.15-.8,2.03-1.59,3.84-.54,2.34,3.32-3.38,5.89-6.25,5.89-.08,0-.16,0-.24,0Z"/><path d="M139.34,327.06c-3.88-2.8,3.55-6.95,5.12-9.32,4.69-4.51,9.49-8.9,14.37-13.2.73.81,1.94,1.64,3.4,2.7-4.39,3.88-8.74,7.82-13.02,11.82-2.3,1.46-6.49,8.17-9.18,8.17-.24,0-.47-.05-.69-.17Z"/><path d="M164.44,299.64c2.53-2.18,5.07-4.35,7.62-6.51,2.68-1.39,7.87-9,10.59-6.13,2.5,3.08-6.96,7.83-8.81,10.2-1.93,1.63-3.84,3.27-5.75,4.92-1.29-.82-2.54-1.66-3.65-2.49Z"/><path d="M182.49,291.28c-.81-.78-1.57-1.61-2.41-2.36-1.62-1.6.44-4.44,2.46-3.4,1.25.79,2.01,1.88,3.07,2.85,1.45,1.52-.03,3.6-1.65,3.6-.51,0-1.02-.2-1.47-.68Z"/><path d="M139.39,332.71c-5.1-3.89.4-8.94,2.25-3.71,7.02-7.25,14.53-13.98,22.14-20.6.22.17.44.34.66.52.94.68,1.88,1.35,2.83,2.03-4.62,4.1-9.17,8.27-13.74,12.42-2.71,2.48-5.36,5.04-7.92,7.67-1,1.3-2.56,2.34-4.16,2.34-.69,0-1.4-.2-2.05-.67Z"/><path d="M169.79,303.2c4.61-3.98,9.23-7.95,13.76-12.01,1.84-1.82,4.83.93,3.12,2.91-4.15,4.01-8.66,7.64-13.07,11.36-1.18-.69-2.49-1.45-3.81-2.26Z"/><path d="M183.57,293c-1.9-1.55-6.38-5.22-2.03-6.65,2.03-.25,3.18,2.42,4.75,3.35,1.71,1.4.3,3.81-1.41,3.81-.43,0-.88-.15-1.3-.51Z"/><path d="M181.61,286.32s-.05.01-.07.02c-.13.02-.26.04-.4.09.41-.12.21-.06.48-.11Z"/><path d="M178.18,308.25c-2.27-1.96-24.55-12.69-15.84-15.25,2.8.55,4.78,3.63,7.15,4.96,2.21,2.32,14,6.18,11.63,9.62-.39.63-1.13,1.01-1.85,1.01-.38,0-.76-.11-1.09-.33Z"/><path d="M172.08,319.31c-4.58-3.44-19.01-10.97-18.46-16.85.17-2.22,1.62-3.98,3.28-5.33,1.84-1.41,3.34-3.51,5.62-4.06,2.79-.23,3.43,4.19.52,4.43-.16.13-.32.25-.47.38-.04.03-.08.06-.12.1-7.86,5.68-3.8,6.26,2,10.94,3.25,2.33,6.48,4.69,9.9,6.78,1.97,1.2.68,3.97-1.15,3.97-.36,0-.74-.11-1.12-.35Z"/><path d="M173.82,318.17c-.43-2.08,1.55-2.39,2.92-3.08,1.62-1.11,5.31-2.81,2.35-4.61-1.38-1.36-4.11-3.36-2.15-5.37.82-.77,2.07-.73,2.92-.04,1.71,2.36,5.13,3.93,4.75,7.28.13,2.49-5.31,7.43-8.59,7.43-1.01,0-1.81-.47-2.19-1.61Z"/><path d="M169.55,314.59c-2.7-2.71,5.74-7.74,7.84-8.91,2.27-1.03,4.17,2.19,2.33,3.64-1.39.73-2.83,1.46-4,2.56-1.43.91-2.96,3.37-4.68,3.37-.48,0-.98-.19-1.49-.66Z"/><path d="M448.24,208.83c-.27-28.19-.55-56.63-1.29-84.68.79-2.38,4.36-1.68,4.22.84.66,16.68.64,33.4,1.02,50.09.03,11.18.2,22.36.31,33.53.07,1.42-1.07,2.18-2.19,2.18-1.02,0-2.03-.63-2.08-1.96Z"/><path d="M150.81,410.24c-2.7-15.92-7.06-31.74-8.57-47.79.56-2.75,4.88-1.96,4.3.83,1.84,15.49,5.79,30.8,8.48,46.2.29,1.53-.96,2.46-2.18,2.46-.91,0-1.81-.52-2.02-1.7Z"/><path d="M60.17,360.27c-5.34-23.71-11.19-47.63-12.8-71.92.32-2.65,4.5-2.25,4.24.45.88,14.95,4.23,29.73,6.82,44.44,1.82,8.66,3.89,17.26,5.85,25.89.45,1.6-.89,2.66-2.18,2.66-.84,0-1.66-.46-1.94-1.52Z"/><path d="M179.37,422.28c-3.83-2.84,21.99-18.33,24.78-21.25,27.39-18.94,54.8-37.85,81.87-57.25,56.83-38.84,111.33-81.18,158.93-131.04,2-1.56,4.94-5.56,7.33-2.63,1.44,2.7-2.07,3.3-3.39,4.83-48.95,51.15-104.9,94.53-163.28,134.36-26.97,19.43-54.49,38.09-81.71,57.16-3.77,1.64-19.33,16.42-23.57,16.42-.48,0-.81-.19-.97-.61Z"/><path d="M161.8,431.02c-6.53-1.39-6.92-9.18-9.33-14.23-.65-2.8-3.69-6.28-1.85-8.91.06-.06.14-.13.19-.17-.01.01-.03.02-.04.03h0c2.45-1.66,3.48.82,3.91,2.84,2.14,3.91,4.14,15.87,8.25,16.3,5.59.25,10.76-3.02,15.17-6.14.94-.69,2.27-.57,3,.37,2.94,3.96-12.13,10.16-17.75,10.16-.65,0-1.18-.08-1.53-.26Z"/><path d="M157.71,431.9c-11.01-5.13-20.72-12.76-31.2-18.88-11.88-7.49-23.91-14.9-34.67-23.95-9.7-8.99-21.19-16.21-29.78-26.31-4.37-4.79,2.81-8.37,3.01-3.15,3.84,5.44,9.46,9.25,14.49,13.5,15.1,13.26,30.8,25.39,48.05,35.56,9.48,5.82,18.73,12.04,28.29,17.72,1.15.59,2.32,1.14,3.53,1.61,2.22.93,1.17,4.11-.83,4.11-.28,0-.58-.06-.89-.2Z"/><path d="M277.03,100.76c-2.12-2.94,2.73-4.66,4.34-6.44,7.94-6.24,16.37-12.62,25-17.72,15.16-8.54,18.3-12.14,35.08-4.56,14.49,5.49,28.92,11.16,43.16,17.25,1.91,1.18,5.96.48,5.62,3.62-1.54,4.07-7.4-.13-10.13-.88-16.83-7.05-33.67-13.92-50.9-19.81-8.27-1.52-23.39,10.06-30.63,14.52-4.95,3.5-9.83,7.19-14.58,10.94-1.68.92-3.47,3.72-5.42,3.72-.51,0-1.02-.19-1.55-.64Z"/><path d="M224.75,375.74c-.94-.04-1.67-.67-1.92-1.41-.12-.3-.18-.66-.25-.98-.1-.42-.21-.84-.31-1.26-.21-.87-.43-1.73-.64-2.6-.42-1.71-.84-3.42-1.26-5.13-1.75-7.11-3.49-14.23-5.24-21.34-.6-2.45-1.2-4.9-1.8-7.35-.5-2.04-1.03-4.07-1.5-6.11-.26-1.13.5-2.3,1.62-2.55,1.09-.24,2.13.41,2.48,1.42h0c.02.07.04.14.06.2,0,.01,0,.03,0,.04,0,0,0,0,0,.01,0,0,0,0,0,0,.79,3.37,1.66,6.74,2.48,10.1.94,3.81,1.88,7.62,2.81,11.43,1.38,5.62,2.76,11.23,4.14,16.85.27,1.1.54,2.19.81,3.28.22.89.48,1.79.66,2.69.06.21.07.42.07.64,0,1.13-1.04,2.05-2.14,2.05-.03,0-.05,0-.08,0Z"/><path d="M234.29,370.06c-1.02,0-1.98-.79-2.12-1.81-.03-.11-.06-.23-.08-.34-.34-1.4-.61-2.81-.91-4.21-.46-2.07-.9-4.14-1.36-6.21-1.43-6.53-2.85-13.07-4.27-19.6-.65-2.99-1.3-5.98-1.96-8.97-.31-1.41-.62-2.82-.92-4.23-.14-.63-.33-1.28-.42-1.92-.16-1.15.6-2.26,1.76-2.45,1.13-.18,2.28.61,2.45,1.76.04.31.13.62.2.92.17.76.33,1.53.5,2.29.43,1.96.86,3.92,1.28,5.88.86,3.94,1.72,7.88,2.58,11.82,1.24,5.68,2.48,11.35,3.72,17.03.52,2.39,1.09,4.78,1.55,7.13,0,.03,0,.05.01.06.01.07.03.14.04.21.03.14.06.28.06.43,0,1.16-.88,2.16-2.07,2.2h-.07Z"/><path d="M243.21,361.08c-1.03,0-1.99-.8-2.12-1.83-.16-.68-.28-1.36-.41-2.03-.16-.78-.33-1.57-.48-2.35-.46-2.27-.93-4.54-1.4-6.82-1.53-7.41-3.05-14.83-4.57-22.24-.43-2.08-.86-4.17-1.29-6.26-.28-1.36-.61-2.73-.84-4.11-.19-1.15.63-2.26,1.77-2.45,1.16-.18,2.25.63,2.45,1.77.21,1.23.5,2.45.75,3.67.4,1.94.8,3.89,1.2,5.83.79,3.82,1.57,7.64,2.35,11.46,1.24,6.01,2.48,12.03,3.7,18.04.32,1.59.66,3.18.98,4.77.03.11.04.21.04.34,0,1.16-.88,2.16-2.07,2.2h-.06Z"/><path d="M62.61,299.65c-3.6-2.55,13.14-13.24,15.13-15.51,9.96-7.57,19.33-15.87,29.01-23.73,2.78-1.44,4.63,2.9,1.72,3.98-8.04,6.87-16.3,13.93-24.63,20.37-4.06,3.21-8.05,6.33-12,9.65-2.25,1.16-5.03,5.83-7.7,5.83-.51,0-1.03-.17-1.53-.58Z"/><path d="M71.78,369.73c-3.62-15.74-6.26-31.71-8.3-47.72-.3-8.02-2.75-16.67-.94-24.47,1.46-2.26,5.03-.08,3.63,2.25.19,12.53,1.83,25.19,3.78,37.52,1.68,10.55,3.5,21.09,5.99,31.48.37,1.56-.92,2.55-2.17,2.55-.88,0-1.74-.49-1.99-1.62Z"/><path d="M415.71,233.43c-2.56-2.75,7.65-8.64,9.39-11.07,4.68-4.36,9.29-8.09,13.58-12.57,3.32-5.65.14-16.56.44-23.31-.68-10.55-.94-21.3-1.88-31.81-.17-2.53-.62-5.07-.86-7.56.9-3.41,4.83-1.64,4.49,1.43,1.2,9.48,1.48,18.81,1.98,28.31.39,7.33.91,14.66,1.29,22,.07,3.74.87,7.64-.68,11.19-3.72,6.31-10.48,10.33-15.56,15.53-2.25,1.33-7.79,8.55-10.87,8.55-.52,0-.98-.21-1.33-.69Z"/><path d="M393.62,185.99c-2-2.86,2.61-4.82,4.14-6.71,4.39-3.97,8.82-7.89,13.29-11.78,5.18-4.45,10.12-9.17,15.38-13.54,2.84-2.36,5.68-4.7,8.83-6.64.74-.45,1.51-1.03,2.43-.82,1.77.29,2.35,2.9.78,3.86-6.8,4.13-12.24,9.45-18.13,14.63-5.69,5.11-11.52,10.04-17.19,15.17-2.1,1.92-4.26,3.77-6.29,5.76-.39.52-1.01.78-1.63.78s-1.21-.24-1.61-.71Z"/><path d="M429.38,163.8c-.11-2.79,4.09-2.98,4.26-.21.06,1.45-1.04,2.19-2.14,2.19-1.02,0-2.04-.65-2.13-1.99Z"/><path d="M431.05,176.27c-.11-2.79,4.09-2.98,4.26-.21.06,1.45-1.04,2.19-2.14,2.19-1.02,0-2.04-.65-2.12-1.99Z"/><path d="M433.19,188.51c-.11-2.79,4.09-2.98,4.26-.21.06,1.44-1.04,2.19-2.14,2.19-1.02,0-2.04-.65-2.13-1.98Z"/><path d="M434.68,198.84c-.11-2.79,4.09-2.98,4.26-.21.06,1.45-1.04,2.19-2.14,2.19-1.02,0-2.04-.65-2.13-1.99Z"/><path d="M420.31,169.59c-.11-2.79,4.09-2.98,4.26-.21.06,1.44-1.04,2.19-2.14,2.19-1.02,0-2.04-.65-2.13-1.98Z"/><path d="M422.46,180.53c-.11-2.79,4.09-2.98,4.26-.21.06,1.45-1.04,2.19-2.14,2.19-1.02,0-2.04-.65-2.13-1.98Z"/><path d="M425.04,190c-.11-2.79,4.09-2.98,4.26-.21.06,1.45-1.04,2.19-2.14,2.19-1.02,0-2.04-.65-2.12-1.98Z"/><path d="M427.13,199.43c-.11-2.79,4.09-2.98,4.26-.21.06,1.44-1.04,2.19-2.14,2.19-1.02,0-2.04-.65-2.13-1.98Z"/><path d="M428.55,208.82c-.11-2.79,4.09-2.98,4.26-.21.06,1.45-1.04,2.19-2.14,2.19-1.02,0-2.04-.65-2.13-1.98Z"/><path d="M412.18,178.58c-.11-2.79,4.09-2.98,4.26-.21.06,1.45-1.04,2.19-2.14,2.19-1.02,0-2.04-.65-2.13-1.98Z"/><path d="M415.32,190.21c-.11-2.79,4.09-2.98,4.26-.21.06,1.45-1.04,2.19-2.14,2.19-1.02,0-2.04-.65-2.12-1.99Z"/><path d="M417.88,199.47c-.11-2.79,4.09-2.98,4.26-.21.06,1.45-1.04,2.19-2.14,2.19-1.02,0-2.04-.65-2.13-1.99Z"/><path d="M421.78,208.96c-.11-2.79,4.09-2.98,4.26-.21.06,1.45-1.04,2.19-2.14,2.19-1.02,0-2.04-.65-2.13-1.99Z"/><path d="M421.58,220.16c-.11-2.79,4.09-2.98,4.26-.21.06,1.45-1.04,2.19-2.14,2.19-1.02,0-2.04-.65-2.13-1.99Z"/><path d="M405.01,183.28c-.11-2.79,4.09-2.98,4.26-.21.06,1.45-1.04,2.19-2.14,2.19-1.02,0-2.04-.65-2.13-1.99Z"/><path d="M407.67,195.29c-.11-2.79,4.09-2.98,4.26-.21.06,1.45-1.04,2.19-2.14,2.19-1.02,0-2.04-.65-2.12-1.99Z"/><path d="M410.92,206.42c-.11-2.79,4.09-2.98,4.26-.21.06,1.45-1.04,2.19-2.14,2.19-1.02,0-2.04-.65-2.13-1.99Z"/><path d="M414.43,216.03c-1.48-2.37,2.09-4.66,3.62-2.32,1.03,1.67-.43,3.3-1.92,3.3h0c-.62,0-1.25-.29-1.7-.98Z"/><path d="M162.91,426.89c-.53-.06-1.01-.3-1.47-.69l.29-.04.5-.08.49-.09.49-.1.48-.11.48-.12.47-.13.48-.14.48-.14.48-.16.47-.16.46-.16.44-.17.43-.18.4-.18.38-.18.35-.18.33-.18.31-.18.29-.17.28-.17.27-.18.26-.17.25-.17.25-.17.25-.17.25-.18.26-.18.26-.18.26-.18.26-.18.26-.18.26-.18.26-.18.26-.18.26-.17.26-.17.25-.17.25-.16.26-.17.25-.17.25-.17.26-.17.26-.18.27-.19.28-.2.29-.21.3-.22.32-.23.34-.24.36-.26.38-.28.39-.29.41-.3.44-.33.46-.34.48-.36.51-.38.53-.39.54-.4.54-.4.55-.4.55-.4.54-.4.52-.39.51-.38.49-.37.48-.36.48-.37.49-.38.49-.38.49-.39.49-.4.49-.4.49-.41.5-.42.51-.42.5-.43.51-.43.52-.44.52-.44.53-.44.52-.43.5-.42.5-.41.49-.4.48-.39.46-.37.43-.36.41-.33.41-.33.4-.33.4-.33.41-.33.41-.34.42-.34.43-.35.44-.36.46-.37.48-.39.5-.39.5-.4.53-.41.54-.43.56-.44.58-.46.58-.46.57-.46.58-.46.59-.47.59-.48.6-.49.61-.5.6-.49.61-.51.62-.51.64-.52.65-.53.66-.54.67-.54.69-.55.72-.56.75-.58.76-.59.76-.58.75-.56.75-.55.76-.55.77-.55.77-.54.75-.52.72-.49.71-.49.7-.48.69-.48.7-.48.69-.48.68-.48.68-.48.69-.49.69-.5.71-.51.71-.52.72-.53.74-.54.76-.56.8-.58.84-.59.87-.61.89-.61.93-.62.97-.63,1.01-.64,1.05-.64,1.06-.63,1.05-.6,1.08-.6,1.1-.6,1.13-.6,1.16-.61,1.16-.59,1.15-.58,1.18-.59,1.2-.6,1.22-.61,1.25-.62,1.26-.61,1.25-.6,1.24-.59,1.22-.57,1.2-.55,1.18-.53,1.11-.49,1.03-.44.98-.41.92-.38.55-.23c-20.3,14.31-40.73,28.41-61.15,42.53-2.38,2.49-21.6,14.18-24.73,19.29-.46,0-.93.14-1.33.44-4.25,3-9.21,6.15-14.56,6.15-.2,0-.4,0-.61-.01Z" fill="#f5c833"/><path d="M437.38,157.19l-.2-.19-.21-.19-.22-.19-.22-.19-.23-.18-.23-.18-.23-.17-.24-.16-.23-.15-.23-.14-.22-.13-.22-.11-.21-.1-.2-.08-.19-.07-.18-.06-.17-.04-.17-.03-.17-.02-.16-.02h-.16s-.15,0-.15,0h-.15s-.16.01-.16.01h-.16s-.16.03-.16.03l-.17.02-.09.02c1.56-1.22,3.17-2.39,4.85-3.49.14,1.1.26,2.2.34,3.3.08.86.15,1.73.22,2.6l-.08-.08Z" fill="#f5c833"/><path d="M174.13,393.54h-.37s-.35-.04-.35-.04l-.35-.04-.34-.05-.34-.06-.33-.07-.34-.08-.33-.08-.33-.09-.33-.09-.33-.1-.34-.1-.34-.11-.34-.11-.34-.11-.34-.11-.34-.12-.35-.12-.36-.13-.36-.13-.35-.14-.35-.14-.35-.14-.36-.15-.36-.15-.35-.16-.34-.16-.33-.16-.33-.16-.32-.17-.32-.17-.31-.17-.31-.18-.31-.18-.31-.19-.3-.19-.29-.19-.29-.2-.28-.2-.28-.21-.28-.21-.28-.22-.27-.22-.27-.23-.26-.23-.26-.23-.26-.23-.26-.24-.26-.24-.25-.24-.24-.23-.24-.24-.24-.24-.24-.24-.24-.24-.24-.24-.23-.24-.23-.24-.23-.24-.23-.24-.23-.24-.23-.24-.24-.24-.24-.24-.24-.24-.24-.24-.25-.25-.25-.24-.25-.25-.26-.25-.27-.26-.27-.26-.27-.26-.28-.26-.28-.26-.28-.26-.28-.26-.28-.26-.28-.26-.28-.25-.28-.25-.28-.24-.27-.23-.26-.22-.25-.22-.25-.21-.24-.19-.19-.16c-.75-4.12-1.41-8.24-1.94-12.38,1.51-.69,2.83-1.74,3.07-3,3.03-2.32,6.27-5.51,7.98-6.36,11.65-9.1,23.49-18.02,35.47-26.7,87.64-60.46,170.39-127.59,250.88-197.25,1.03-.8,2-1.73,2.97-2.62.65,26.59.91,53.5,1.17,80.18.01.36.1.67.23.93-1.28.83-2.51,2.22-3.51,2.99-39.43,41.3-83.59,77.43-129.88,110.7l.09-.09.26-.25.25-.24.25-.25.26-.25.25-.25.26-.26.26-.26.25-.25.25-.26.25-.26.25-.26.26-.27.26-.27.26-.27.26-.27.26-.28.26-.28.26-.28.26-.28.25-.26.25-.27.23-.25.22-.24.22-.24.21-.23.21-.23.21-.23.21-.23.21-.24.22-.24.22-.25.22-.25.23-.26.23-.26.24-.27.24-.28.25-.28.25-.29.26-.3.26-.3.27-.31.28-.31.27-.31.26-.3.26-.3.26-.29.26-.29.25-.29.24-.28.24-.27.23-.26.22-.25.22-.25.22-.25.22-.25.22-.24.22-.25.22-.25.22-.26.23-.26.22-.25.22-.25.22-.25.22-.25.22-.24.21-.24.21-.23.2-.23.2-.22.2-.22.19-.21.19-.21.18-.2.17-.19.17-.18.16-.17.16-.16.15-.15.15-.14.15-.14.15-.14.14-.13.14-.12.14-.12.14-.11.14-.11.13-.11.13-.1.13-.1.13-.1.13-.09.13-.09.13-.09.13-.09.13-.09.13-.09.13-.09.14-.09.14-.09.14-.09.14-.09.14-.09.15-.09.15-.09.16-.09.16-.1.16-.1.16-.1.17-.1.17-.1.17-.1.17-.1.17-.1.17-.1.17-.1.17-.09.16-.09.16-.09.16-.09.15-.08.14-.08.14-.08.14-.07.13-.07.13-.07.13-.07.13-.07.13-.07.13-.07.14-.07.14-.07.14-.07.14-.08.15-.08.15-.08.16-.08.16-.08.16-.09.16-.09.17-.09.18-.09.18-.1.18-.1.19-.1.19-.11.2-.11.21-.11.21-.12.21-.12.22-.13.23-.13.24-.14.24-.14.24-.15.24-.15.25-.16.26-.17.26-.17.27-.18.28-.19.29-.2.3-.21.31-.22.32-.23.33-.24.33-.25.33-.25.33-.26.33-.26.33-.27.33-.27.33-.27.32-.26.31-.27.31-.26.31-.27.31-.27.3-.27.29-.26.29-.26.28-.26.28-.26.28-.26.27-.26.27-.25.26-.25.26-.25.26-.26.28-.27.28-.27.28-.28.29-.29.3-.3.32-.32.33-.33.34-.34.35-.35.36-.37.38-.38.38-.38.39-.39.39-.38.39-.38.39-.38.39-.38.4-.38.41-.38.42-.38.42-.37.43-.38.45-.39.47-.4.49-.41.51-.42.53-.43.56-.44.58-.46.61-.47.64-.49.66-.5.68-.51.69-.51.69-.52.69-.52.69-.53.66-.51.64-.5.62-.5.61-.5.59-.5.58-.5.56-.49.55-.49.56-.49.57-.51.59-.53.62-.55.64-.57.66-.59.68-.61.71-.64.75-.67.78-.71.8-.73.82-.76.85-.8.88-.83.91-.88.94-.93.95-.95.94-.97.95-1,.96-1.03.97-1.06.98-1.09.97-1.09.94-1.07.94-1.07.94-1.06.94-1.05.95-1.03.93-.98.91-.91.9-.87.89-.82.89-.78.89-.74.86-.67.83-.61.82-.57.81-.53.81-.51.81-.49.79-.46.78-.44.78-.44.79-.44.8-.44.82-.45.83-.46.82-.46.14-.08c1.37.05,3.25-1.4,5.12-3.12,2.3-2.13,4.57-4.69,5.82-5.43,1.64-1.68,3.45-3.23,5.28-4.77,3.84-3.26,7.76-6.48,10.28-10.76,1.55-3.55.74-7.45.68-11.19-.38-7.33-.89-14.66-1.29-22-.5-9.51-.78-18.83-1.98-28.31.32-2.92-3.19-4.66-4.32-1.92-.45.17-.88.46-1.29.71-3.14,1.94-5.99,4.28-8.83,6.64-5.25,4.37-10.19,9.09-15.38,13.54-4.47,3.88-8.9,7.8-13.29,11.78-1.53,1.89-6.14,3.85-4.14,6.71.82.95,2.48.96,3.25-.07,2.03-1.99,4.19-3.84,6.29-5.76,3.14-2.84,6.32-5.61,9.5-8.39l-.04.05-.11.13-.1.13-.1.13-.1.13-.1.13-.11.13-.1.14-.11.14-.11.14-.11.14-.11.13-.11.14-.11.13-.11.14-.11.14-.11.14-.11.14-.11.14-.12.14-.12.14-.12.14-.12.14-.12.14-.12.14-.12.14-.13.14-.13.15-.13.15-.13.15-.14.16-.14.16-.14.17-.15.18-.16.18-.16.19-.17.19-.18.2-.18.21-.19.22-.19.23-.2.23-.21.24-.21.25-.22.26-.23.27-.23.28-.23.28-.24.29-.25.3-.25.31-.25.31-.25.31-.24.31-.24.31-.23.3-.22.29-.22.29-.21.29-.19.26-.18.25-.18.24-.17.23-.16.21-.16.2-.15.19-.15.18-.15.18-.16.19-.17.19-.17.19-.18.2-.19.21-.2.21-.21.22-.22.23-.23.23-.23.23-.24.24-.26.25-.27.26-.28.26-.28.26-.29.25-.29.25-.3.25-.31.25-.31.25-.3.23-.29.22-.3.22-.3.22-.3.21-.3.21-.29.19-.28.18-.27.17-.26.16-.26.15-.25.14-.24.13-.23.12-.23.11-.22.1-.23.1-.22.09-.22.09-.22.08-.22.08-.23.08-.23.08-.23.08-.23.07-.23.07-.22.06-.22.06-.22.06-.21.05-.21.05-.2.05-.19.05-.2.05-.19.05-.19.05-.19.05-.18.05-.18.05-.18.06-.18.06-.17.06-.17.06-.16.07-.16.07-.15.08-.15.08-.15.09-.14.09-.15.1-.15.1-.15.11-.15.12-.15.12-.16.13-.16.14-.16.15-.16.15-.17.16-.17.17-.17.18-.18.19-.18.2-.18.21-.19.22-.19.23-.19.24-.18.25-.19.26-.19.28-.19.29-.2.31-.2.32-.19.32-.2.34-.2.35-.2.36-.19.38-.19.38-.18.37-.16.36-.14.34-.13.33-.12.33-.11.33-.1.32-.09.32-.09.32-.09.33-.09.34-.09.35-.09.35-.09.37-.09.39-.09.39-.09.4-.09.41-.09.41-.08.42-.08.42-.07.41-.07.4-.06.39-.05.38-.05.37-.04.37-.04.37-.04.37-.04.37-.03.37-.03.39-.03.39-.03.41-.03.42-.03.43-.03.43-.03.43-.02.43-.02.43-.02.44-.02.44-.02.44-.02.45-.02.46-.02.47-.02.48-.03.49-.03.48-.03.48-.03.48-.03.46-.03.46-.03.45-.04.42-.04.41-.04.4-.05.39-.05.38-.06.37-.06.36-.07.35-.07.34-.08.34-.08.34-.09.33-.09.33-.1.33-.1.33-.11.33-.11.34-.12.34-.13.34-.13.35-.14.36-.14.36-.15.36-.16.36-.16.35-.17.34-.18.33-.18.32-.18.3-.18.28-.18.25-.18.23-.18.22-.18.21-.19.21-.19.21-.2.21-.21.22-.22.23-.23.24-.25.25-.26.26-.28.28-.29.29-.31.31-.32.31-.34.32-.34.32-.34.31-.34.3-.33.28-.31.26-.29.24-.26.21-.24.19-.22.18-.2.16-.18.15-.18.14-.17.14-.17.14-.17.15-.18.16-.19.16-.19.17-.19.17-.2.18-.2.18-.21.19-.22.19-.22.2-.22.2-.23.2-.23.21-.23.21-.23.21-.24.22-.24.23-.24.23-.25.24-.26.26-.28.28-.29.29-.31.31-.33.33-.34.35-.36.38-.39.4-.41.43-.43.45-.44.48-.46.5-.48.53-.51.55-.53.57-.54.59-.55.59-.57.61-.59.61-.6.62-.62.62-.62.61-.6.58-.59.55-.58.51-.57.49-.58.48-.56.45-.54.41-.55.41-.56.41-.59.42-.63.43-.66.45-.7.46-.74.48-.78.51-.83.53-.87.55-.9.56-.91.57-.95.59-.99.61-1.02.63-1.04.65-1.03.66-.99.65-.98.65-.92.64-.84.6-.78.59-.71.56-.65.52-.61.5-.58.49-.55.49-.55.49-.55.5-.55.51-.57.53-.59.56-.62.59-.66.63-.68.65-.69.67-.74.71-.78.74-.83.78-.88.82-.91.83-.93.84-.96.84-.99.85-1.02.86-1.05.87-1.04.84-.99.78-.97.75-.93.71-.88.67-.84.62-.78.57-.72.51-.67.47-.63.43-.61.4-.58.38-.55.35-.52.32-.51.31-.51.3-.51.3-.51.31-.52.31-.52.32-.53.33-.55.35-.58.38-.6.41-.63.43-.65.46-.69.5-.73.54-.76.58-.79.61-.79.63-.77.63-.76.63-.74.62-.71.61-.68.58-.64.54-.59.5-.56.47-.53.44-.52.43-.52.43-.51.41-.5.41-.51.42-.53.43-.54.45-.56.46-.56.46-.57.46-.58.46-.58.46-.58.46-.59.45-.59.44-.58.42-.57.4-.56.38-.54.36-.54.35-.51.33-.48.3-.45.28-.42.26-.41.24-.38.23-.35.21-.33.19-.33.19-.32.19-.33.19-.33.19-.34.2-.36.21-.38.22-.4.23-.42.24-.44.26-.46.26-.47.26-.49.27-.51.27-.52.27-.54.27-.55.27-.55.26-.56.26-.57.26-.58.25-.58.25-.56.24-.55.23-.53.22-.51.21-.49.2-.46.19-.43.18-.38.16-.35.15-.32.14-.29.14-.27.13-.25.13-.24.13-.24.13-.23.14-.24.14-.25.15-.25.15-.25.16-.26.17-.28.18-.29.19-.3.2-.31.21-.33.22-.34.24-.36.25-.38.27-.4.28-.41.29-.43.3-.44.31-.46.33-.46.33-.48.34-.46.33-.45.31-.44.3-.43.29-.4.27-.38.26-.35.24-.33.22-.31.21-.29.21-.28.2-.25.2-.23.19-.2.18-.18.18-.16.17-.14.17-.13.16-.11.16-.11.16-.11.17-.12.18-.12.18-.12.19-.13.2-.13.21-.14.22-.14.23-.15.24-.16.25-.17.26-.18.28-.19.29-.2.3-.04.05c-.09-.44-.18-.88-.27-1.31-.78-3.82-1.56-7.64-2.35-11.46-.4-1.94-.8-3.89-1.2-5.83-.25-1.22-.55-2.44-.75-3.67-.18-1.04-1.09-1.8-2.12-1.8-.11,0-.22,0-.33.03-1.14.18-1.96,1.3-1.77,2.45.23,1.37.56,2.74.84,4.11.43,2.08.86,4.17,1.29,6.26,1.02,4.96,2.03,9.92,3.05,14.88h-.02s-.22.02-.22.02l-.2-.02-.18-.04-.16-.06-.14-.07-.13-.08-.12-.08-.11-.08-.1-.08-.1-.08-.09-.08-.1-.08-.09-.08-.09-.07-.09-.07-.09-.07-.09-.07-.09-.07-.09-.06-.09-.06-.09-.06-.09-.05-.1-.05-.09-.04-.1-.03-.1-.02h-.09s-.09-.01-.09-.01h-.09s-.09.04-.09.04l-.09.04-.09.05-.08.07-.08.08-.07.1-.06.11-.05.12-.05.12-.04.13-.03.12-.03.13-.03.13-.03.13-.03.14-.03.14-.03.14-.03.15-.03.15-.03.15-.03.16-.03.16-.03.16-.03.16-.03.16-.03.16-.03.17-.03.17-.03.17-.03.18-.04.18-.04.18-.04.19-.04.18-.05.19-.05.19-.05.19-.06.19-.06.18-.06.19-.07.19-.08.19-.08.2-.09.2-.09.2-.1.21-.04.08c-.23-1.06-.46-2.12-.69-3.18-.86-3.94-1.72-7.88-2.58-11.82-.43-1.96-.86-3.92-1.28-5.88-.16-.76-.33-1.53-.5-2.29-.07-.3-.16-.61-.2-.92-.15-1.04-1.11-1.79-2.12-1.79-.11,0-.22,0-.33.03-1.16.19-1.93,1.3-1.76,2.45.09.64.28,1.29.42,1.92.31,1.41.61,2.82.92,4.23.65,2.99,1.3,5.98,1.96,8.97.78,3.56,1.55,7.12,2.33,10.68l-.06-.04-.14-.13-.13-.13-.12-.13-.11-.13-.11-.13-.11-.14-.12-.14-.12-.14-.13-.15-.13-.15-.13-.15-.13-.16-.14-.16-.14-.16-.14-.17-.14-.17-.15-.17-.15-.18-.16-.18-.16-.17-.16-.17-.17-.17-.17-.17-.16-.16-.17-.14-.17-.14-.17-.14-.17-.12-.17-.11-.17-.11-.17-.09-.17-.08-.17-.08-.18-.07-.17-.06-.17-.04-.16-.03-.16-.02h-.16s-.15,0-.15,0h-.14s-.14.04-.14.04l-.14.03-.13.04-.12.05-.12.06-.11.07-.09.07-.09.08-.08.08-.08.09-.07.09-.06.09-.05.1-.04.1-.04.1-.03.11-.03.11-.02.11-.02.12-.02.12v.13s-.02.13-.02.13v.13s-.01.13-.01.13v.03c-.58-2.34-1.15-4.67-1.73-7.01-.83-3.37-1.7-6.73-2.48-10.11,0,0,0,0,0,0s0,0,0-.01c0-.01,0-.02,0-.04-.02-.07-.04-.13-.06-.19h0c-.31-.88-1.12-1.48-2.03-1.48-.15,0-.3.01-.46.05-1.12.25-1.89,1.41-1.62,2.55.48,2.04,1,4.07,1.5,6.11.6,2.45,1.2,4.9,1.8,7.35.84,3.42,1.68,6.84,2.52,10.26l-.09.06-.14.08-.14.07-.14.06-.14.04-.14.03-.14.02h-.13s-.13,0-.13,0h-.13s-.13-.03-.13-.03l-.13-.02-.13-.03-.13-.03-.13-.04-.13-.04-.13-.05-.13-.05-.13-.06-.12-.06-.12-.06-.12-.06-.12-.06-.12-.07-.12-.07-.12-.07-.12-.07-.12-.08-.12-.08-.12-.08-.12-.08-.12-.08-.12-.09-.12-.09-.13-.09-.13-.09-.13-.09-.13-.1-.13-.1-.13-.1-.13-.11-.12-.11-.12-.11-.12-.11-.12-.11-.12-.11-.12-.11-.12-.11-.12-.12-.12-.12-.12-.12-.12-.12-.12-.12-.12-.12-.12-.12-.12-.12-.12-.12-.12-.12-.12-.12-.12-.12-.12-.12-.11-.12-.11-.11-.11-.11-.11-.11-.11-.11-.11-.11-.11-.11-.11-.1-.11-.1-.11-.1-.11-.1-.11-.1-.11-.1-.12-.1-.12-.1-.12-.1-.12-.1-.13-.1-.13-.1-.13-.1-.13-.09-.13-.09-.14-.09-.13-.08-.14-.08-.14-.07-.14-.06-.13-.05-.13-.04-.12-.03-.12-.02h-.11s-.1,0-.1,0l-.09.02-.08.03-.07.04-.06.06-.06.07-.05.08-.04.09-.03.09-.03.1-.02.11v.11s0,.12,0,.12v.12s.03.12.03.12l.02.12.03.12.03.11.03.11.03.11.03.11.03.1.03.11.04.1.03.11.04.11.04.11.04.11.04.11.04.11.04.11.04.11.04.11.04.1.04.11.04.11.04.11.04.11.04.11.04.11.04.11.04.11.04.11.04.12.04.12.04.12.04.12.04.12.04.12.04.12.04.13.04.13.04.13.04.13.04.13.04.13.04.13.04.13.04.13.05.13.04.13.05.14.04.14.05.14.05.14.05.15.05.15.05.16.05.16.05.16.05.16.05.17.05.17.05.17.05.17.04.17.04.17.04.17.04.17.04.17.04.17.04.18.04.18.04.18.04.19.04.19.04.2.04.2.04.21.04.21.04.21.04.21.04.22.04.22.04.23.04.23.04.23.04.23.04.23.04.23.04.23.04.23.04.23.04.23.04.23.04.23.03.23.03.23.03.23.03.23.03.23.02.24.03.24.02.24.02.24v.24s.02.23.02.23v.23s0,.22,0,.22v.22s-.03.21-.03.21l-.02.21-.03.21-.03.2-.03.19-.04.18-.05.18-.05.17-.06.16-.06.15-.07.14-.08.13-.08.12-.09.11-.09.11-.09.1-.1.09-.11.09-.11.08-.11.07-.11.06-.11.05-.12.05-.12.04-.11.03-.12.02-.11.02h-.11s-.11.01-.11.01h-.23s-.11-.01-.11-.01h-.11s-.11-.02-.11-.02h-.11s-.11-.03-.11-.03h-.11s-.11-.03-.11-.03h-.11s-.11-.03-.11-.03l-.11-.02h-.11s-.11-.03-.11-.03h-.11s-.11-.03-.11-.03h-.11s-.11-.03-.11-.03h-.11s-.11-.03-.11-.03h-.11s-.11-.02-.11-.02h-.11s-.11-.02-.11-.02h-.11s-.11-.02-.11-.02h-.11s-.11-.01-.11-.01h-.11s-.11-.01-.11-.01h-.11s-.11,0-.11,0h-.35s-.12,0-.12,0h-.12s-.12.01-.12.01h-.12s-.11.02-.11.02h-.12s-.11.03-.11.03l-.11.02-.11.02-.11.03-.11.03-.11.03-.11.04-.11.04-.11.05-.11.05-.11.06-.11.06-.11.07-.11.07-.11.08-.11.08-.12.09-.12.1-.12.11-.13.11-.13.12-.13.13-.13.14-.14.14-.14.15-.14.16-.15.17-.15.18-.16.19-.16.2-.17.21-.18.22-.18.24-.19.25-.2.26-.21.28-.22.29-.23.3-.24.32-.25.34-.26.36-.27.37-.28.39-.28.4-.28.41-.28.41-.29.42-.29.41-.28.4-.27.39-.27.38-.26.36-.25.34-.24.33-.23.3-.22.27-.2.25-.19.24-.19.23-.18.21-.18.2-.17.19-.17.19-.17.19-.18.2-.18.2-.18.2-.18.19-.18.2-.19.2-.19.21-.19.21-.2.22-.2.21-.21.22-.21.23-.23.24-.23.24-.23.24-.23.24-.23.24-.23.25-.24.25-.24.25-.24.26-.25.26-.26.26-.27.28-.28.28-.28.29-.29.29-.3.3-.32.31-.33.32-.34.32-.35.33-.36.33-.36.33-.38.33-.39.33-.39.33-.41.33-.41.33-.42.31-.43.31-.44.29-.44.28-.45.26-.45.24-.44.21-.44.18-.43.15-.43.13-.41.11-.41.08-.39.05-.38.03-.37.02h-.37Z" fill="#f5c833"/><path d="M125.07,384.67l-.33-.05-.31-.07-.28-.09-.26-.1-.25-.12-.24-.13-.23-.14-.22-.14-.22-.15-.21-.16-.21-.16-.21-.17-.21-.18-.21-.19-.21-.19-.2-.2-.2-.21-.2-.22-.2-.22-.2-.23-.19-.24-.19-.24-.18-.24-.18-.25-.18-.26-.18-.26-.17-.26-.17-.26-.16-.27-.17-.27-.16-.28-.17-.28-.16-.28-.16-.28-.16-.29-.17-.3-.17-.3-.17-.3-.17-.3-.17-.3-.17-.31-.17-.31-.17-.31-.16-.29-.15-.29-.14-.29-.14-.29-.14-.3-.13-.31-.13-.31-.12-.32-.12-.32-.12-.34-.12-.35-.12-.36-.11-.37-.11-.37-.11-.38-.11-.39-.11-.4-.11-.4-.11-.39-.1-.39-.11-.39-.11-.39-.11-.39-.13-.39-.13-.37-.14-.36-.16-.35-.17-.35-.19-.34-.21-.32-.23-.3-.26-.27-.28-.24-.31-.21-.33-.18-.36-.15-.38-.11-.39-.06-.41-.03h-.42s-.43.05-.43.05l-.44.06-.45.09-.45.1-.47.11-.49.12-.53.13-.55.14-.58.15-.6.16-.63.17-.66.17-.68.17-.7.17-.71.16-.69.14-.68.12-.68.1-.66.08-.63.05-.59.03h-.54s-.51-.02-.51-.02l-.47-.04-.43-.05-.39-.06-.35-.06-.31-.06-.29-.06-.27-.06-.26-.06-.25-.07-.24-.07-.23-.08-.23-.08-.24-.09-.24-.09-.25-.1-.26-.11-.27-.12-.28-.13-.29-.14-.31-.15-.32-.16-.34-.18-.35-.19-.36-.2-.38-.22-.39-.24-.41-.25-.41-.27-.41-.29-.41-.31-.41-.33-.4-.34-.4-.36-.38-.37-.35-.38-.34-.39-.33-.41-.31-.41-.3-.42-.29-.42-.27-.42-.26-.42-.26-.43-.26-.44-.27-.44-.26-.44-.26-.43-.26-.44-.27-.44-.28-.44-.28-.44-.29-.43-.29-.42-.29-.41-.3-.41-.31-.41-.32-.41-.33-.39-.33-.37-.34-.36-.35-.35-.36-.33-.36-.31-.37-.29-.38-.26-.38-.23-.39-.19-.4-.16-.41-.13-.41-.09-.41-.05h-.41s-.41.03-.41.03l-.4.08h-.02c-.56-3.24-1.09-6.49-1.61-9.75-1.56-9.84-2.92-19.89-3.5-29.92,14.09,13.81,28.73,27.1,44.64,38.76,9.4,6.05,20.45,17.66,31.46,19.29.36,3.12.82,6.22,1.34,9.32h-.13s-.14,0-.14,0h-.15s-.15.01-.15.01h-.15s-.15.01-.15.01h-.14s-.14.02-.14.02h-.14s-.14.02-.14.02h-.13s-.13.02-.13.02h-.13s-.13.02-.13.02h-.12s-.12.03-.12.03h-.12s-.12.03-.12.03h-.12s-.12.03-.12.03h-.12s-.12.03-.12.03l-.13.02-.13.02-.13.02-.13.02-.13.02-.13.02-.13.02-.13.02-.13.03-.13.03-.12.03-.12.03-.12.03-.12.03-.11.04-.11.04-.11.04-.11.04-.11.04-.11.04-.11.04-.11.05-.11.05-.1.05-.1.06-.1.06-.1.06-.1.06-.1.06-.1.06-.1.07-.11.07-.11.07-.11.08-.11.08-.1.08-.11.08-.1.08-.1.08-.1.09-.1.09-.11.09-.11.09-.11.1-.11.1-.11.1-.11.11-.12.11-.12.12-.13.12-.13.13-.13.13-.13.13-.14.14-.14.15-.15.15-.16.16-.16.17-.17.18-.18.18-.19.19-.2.2-.21.21-.23.22-.24.23-.25.24-.27.25-.29.26-.3.27-.32.28-.33.28-.36.29-.37.3-.39.3-.41.29-.41.27-.42.25-.42.23-.42.2-.43.18-.43.15-.41.11-.4.07-.39.04h-.37s-.35-.02-.35-.02Z" fill="#f5c833"/><path d="M155.9,426.38c-.81-.48-1.62-.97-2.43-1.46l.47.21.75.29.75.26.4.12c.12.25.24.49.37.73-.1-.05-.2-.1-.31-.16Z" fill="#f5c833"/><path d="M65.06,359.6c-.05-1.34-.56-2.1-1.22-2.41-1.83-7.98-3.72-15.94-5.41-23.94-2.35-13.39-5.34-26.83-6.52-40.4,3.31,3.36,6.63,6.72,9.98,10.05-.18,6.29,1.35,12.9,1.59,19.12,1.88,14.74,4.27,29.45,7.46,43.97-2.17-1.93-4.19-4-5.88-6.39Z" fill="#f5c833"/><path d="M54.61,289.65c-.46-.38-.81-.92-1.15-1.46,3.82-2.92,8.69-8.47,10.62-9.56,1.95-1.72,3.98-3.5,5.98-5.26,10.39-9.38,21.47-18.82,31.91-28.09.01,3.68.53,7.18,1.7,10.37.69,1.83,1.52,3.59,2.45,5.28-9.46,7.71-18.64,15.82-28.38,23.22-1.63,1.87-13.16,9.37-15.29,13.42-2.63-2.62-5.24-5.26-7.84-7.91Z" fill="#f5d97e"/><path d="M134.21,357.53c-24.63-16.32-46.96-35.61-68-56.25-.01-.49-.02-.99-.03-1.48.1-.16.17-.32.22-.48,1.93-1.42,3.82-4.08,5.44-4.91,3.95-3.32,7.94-6.44,12-9.65,8.27-6.4,16.48-13.4,24.47-20.22,4.24,6.48,9.7,12.25,14.16,18.54.79,1.05,1.97,1,2.82.43,1.9,1.41,6.49.87,8.71,1.22,25.64.5,50.23-8.29,73.07-19.23,35.41-16.55,70.15-37.11,96.25-66.68,12.81-15.22,25.61-31.02,33.59-49.4,2.31-4.95,3.18-10.35,3.09-15.79.25-1.43-.04-2.71-.75-3.37-.24-3.34-5.94-8.91-7.3-10.9-6.67-8.32-15.66-13.9-25.58-16.93,6.96-3.94,13.79-8.11,20.73-12.08,6.87-3.87,13.78-7.66,20.74-11.37,10.83,4.14,21.56,8.56,32.29,13.06,2.09.58,6,3.17,8.42,2.54,20.08,8.34,39.76,17.62,58.77,28.23-.8.63-1.56,1.46-2.31,2.01-61.93,53.14-124.41,105.88-190.06,154.39-29.87,21.56-60.34,42.33-89.6,64.74-3.54,2.72-7.05,5.48-10.59,8.2-1.46,1.8-8.73,5.62-10.99,8.67-.26.06-.5.18-.72.34-.19.02-.39.04-.59.04-1.73,0-4.23-.86-8.22-3.67ZM160.69,293.89s0,0,0,0c-1.35.9-2.48,2.24-3.79,3.23-1.66,1.35-3.11,3.11-3.28,5.33-.14,1.52.72,3.15,2.15,4.8-3.83,3.43-7.6,6.91-11.31,10.48-1.52,2.3-8.53,6.26-5.46,9.05-1.75.34-2.94,3.38.39,5.92,2.16,1.53,4.78.19,6.21-1.68,2.57-2.63,5.21-5.19,7.92-7.67,3.47-3.15,6.92-6.31,10.41-9.44,3.23,2.18,6.4,4.08,8.14,5.39.87.56,1.73.39,2.35-.11,2.6,2.53,10.33-3.89,10.17-6.85.28-2.48-1.53-3.99-3.18-5.56.15-1.45-1.83-2.94-4.23-4.34,3.24-2.7,6.45-5.43,9.48-8.35.62-.72.62-1.54.28-2.21.24-.73.1-1.56-.67-2.19-.03-.02-.06-.04-.09-.06-.03-.43-.2-.87-.59-1.27-1.06-.96-1.83-2.06-3.07-2.85-1.24-.64-2.49.19-2.9,1.29-2.62,1.35-5.71,5.35-7.59,6.32-1.41,1.2-2.83,2.4-4.24,3.61-1.1-.94-2.18-2.05-3.37-2.83-.4-.53-1.02-.89-1.84-.85-.09-.02-.18-.04-.27-.06-.79.23-1.33.54-1.65.89Z" fill="#f5d97e"/><path d="M291.51,99.8c-3.19-.23-6.43-.34-9.69-.31.75-.7,1.47-1.42,2.18-1.81,4.75-3.75,9.63-7.44,14.58-10.94,7.24-4.47,22.36-16.04,30.63-14.52,4.45,1.52,8.88,3.11,13.29,4.75-12.52,6.66-24.74,13.88-36.99,21.03-1.07.95-3.46,1.8-5.38,2.88-2.83-.55-5.72-.91-8.62-1.08Z" fill="#f5d97e"/><path d="M126.88,279.8c-.49-.08-.96.02-1.37.25-2.76-3.54-5.49-7.09-8.22-10.65-5.34-6.6-10.73-13.79-11.18-22.65.02-1.83.14-3.66.34-5.48.18-.17.37-.33.55-.5-.04-.6-.15-1.08-.31-1.44.05-.34.1-.69.15-1.03.54,2.3,1.38,4.53,2.59,6.61,2,3.46,4.81,6.34,8.17,8.51,3.18,2.05,6.75,3.49,10.41,4.41,3.98,1,8.05,1.51,12.15,1.64.88.03,1.77.04,2.66.04,3.42,0,6.83-.21,10.22-.61,8.86-1.04,17.55-3.08,26.06-5.73,8.39-2.6,16.58-5.83,24.56-9.47.02,0,.19-.08.35-.16,1.66-.75,3.31-1.53,4.96-2.33,8.08-3.91,15.97-8.24,23.61-12.96.34-.21.72-.44,1.1-.68,2.25-1.39,4.54-2.86,6.8-4.36,7.42-4.93,14.64-10.18,21.55-15.8l.27-.22c4.75-3.85,9.45-7.96,13.97-12.25,6.23-5.91,12.16-12.16,17.58-18.82,5.21-6.41,9.99-13.21,13.92-20.48.43-.79.97-1.83,1.49-2.89,1.86-3.76,3.48-7.68,4.64-11.72,1.15-4,1.95-8.15,1.96-12.32,0-4.11-.71-8.24-2.44-11.98-1.59-3.44-4-6.45-6.98-8.79-.09-.07-.18-.14-.26-.21-.04-.04-.08-.07-.13-.1-.09-.06-.18-.13-.26-.19-.55-.41-1.11-.79-1.69-1.15,12.72,3.71,23.57,11.56,31.25,25.03.11.21.26.4.42.56-.46,2.21.18,5.45-.32,7.42-.76,5.75-3.56,10.97-6.1,16.12-31.62,56.89-83.11,89.7-141.91,114.03-13.29,5.61-27.54,9.21-41.92,10.59-3.17.25-6.34.46-9.52.46s-6.07-.18-9.11-.68Z" fill="#ffeab2"/><path d="M139.56,255.16c-.4-.02-.79-.04-1.19-.06-.55-.03-1.1-.08-1.66-.12-1.41-.13-2.81-.32-4.2-.56-.21-.04-.42-.07-.63-.11-.62-.12-1.25-.24-1.87-.38-.31-.08-.62-.15-.92-.23-.31-.08-.61-.17-.92-.25-.41-.12-.81-.24-1.21-.37-.4-.13-.8-.26-1.2-.4-.2-.07-.4-.14-.6-.21-.07-.03-.13-.05-.2-.08-.23-.09-.45-.18-.67-.27-.86-.36-1.71-.75-2.54-1.19-.26-.14-.51-.28-.76-.43-.19-.11-.39-.23-.58-.35-.12-.07-.24-.15-.36-.23-.18-.11-.36-.23-.53-.34-.24-.16-.48-.33-.72-.49-.76-.57-1.48-1.17-2.18-1.82-.62-.61-1.2-1.25-1.76-1.91-.49-.63-.96-1.28-1.39-1.96-.43-.72-.82-1.46-1.18-2.22-.33-.76-.63-1.54-.88-2.33-.28-.95-.51-1.9-.69-2.87-.19-1.2-.3-2.39-.36-3.59-.01-.58-.01-1.16,0-1.74.02-.87.07-1.73.15-2.6.02-.22.05-.43.08-.65.06-.43.11-.87.18-1.3.16-1.08.37-2.15.61-3.22.13-.54.27-1.08.41-1.61.05-.18.1-.36.15-.53s.1-.36.15-.53.11-.36.16-.53c.11-.36.22-.71.33-1.06,1.73-4.31,3.66-8.51,5.62-12.6,2.43-4.74,5.61-9.61,8.89-13.98.31-.41.61-.83.91-1.24.02-.03.04-.05.06-.08.36-.47.72-.94,1.08-1.4l.03-.03c.37-.48.75-.95,1.13-1.42.31-.22.54-.52.69-.85.38-.47.76-.95,1.15-1.41.39-.47.78-.94,1.17-1.4.04-.04.07-.09.11-.13.36-.42.71-.84,1.07-1.26.36-.42.71-.83,1.08-1.24.06-.08.13-.16.21-.23.29-.33.58-.66.88-.99.54-.61,1.09-1.22,1.64-1.82.32-.35.64-.7.96-1.05.46-.49.91-.98,1.37-1.46.13-.14.34-.35.54-.57.64-.66,1.28-1.32,1.92-1.98,6.16-6.26,12.71-12.13,19.52-17.67,2.1-1.7,4.26-3.4,6.45-5.06,2.64-2.01,5.31-3.96,8.02-5.87,1.35-.95,2.72-1.89,4.09-2.82,1.37-.93,2.75-1.85,4.14-2.75,1.85-1.21,3.71-2.4,5.59-3.56.49-.3.98-.6,1.46-.9,1.47-.89,2.94-1.78,4.43-2.65,7.4-4.33,15.01-8.3,22.8-11.88.16-.08.34-.16.52-.24.02,0,.03-.01.04-.02.04-.02.12-.06.21-.09.49-.22.99-.44,1.48-.66.99-.44,1.99-.87,2.99-1.3,2.5-1.07,5.04-2.1,7.61-3.08,4.11-1.57,8.29-3.03,12.52-4.35l.13-.04s.01,0,.02,0c5.86-1.79,11.82-3.24,17.86-4.32,4.34-.73,8.71-1.23,13.11-1.44.93-.03,1.85-.04,2.77-.04,2.16,0,4.32.08,6.48.26,2.34.24,4.64.61,6.93,1.13.98.25,1.94.53,2.89.83.38.12.76.25,1.14.38.19.07.38.14.57.21.58.23,1.15.47,1.71.72.28.13.56.26.84.39.28.14.56.27.83.42.76.41,1.5.86,2.22,1.34.24.16.48.32.71.49.18.13.36.27.54.41.35.28.7.57,1.04.86.17.15.34.3.5.46.16.15.31.3.46.46.15.15.3.31.45.47s.29.32.44.48c.14.16.28.33.42.49.13.16.26.33.39.5.13.17.25.34.37.51.24.34.48.7.71,1.06.4.67.77,1.36,1.1,2.07.36.81.67,1.63.94,2.47.3,1.01.54,2.03.72,3.06.16,1.06.28,2.12.33,3.19.04,1.38,0,2.76-.11,4.13-.19,1.93-.52,3.84-.95,5.74-.59,2.46-1.36,4.86-2.24,7.22-1.25,3.19-2.68,6.31-4.31,9.33l-.12.22c-2.43,4.45-5.26,8.79-8.29,13-4.37,5.97-9.18,11.59-14.25,16.97-.83.87-1.67,1.74-2.52,2.6-.76.77-1.52,1.53-2.29,2.29-.77.76-1.55,1.51-2.33,2.26-1.56,1.49-3.15,2.96-4.75,4.41-.8.73-1.61,1.44-2.42,2.16-2.43,2.14-4.91,4.24-7.42,6.3-.18.15-.37.3-.55.45-1.75,1.42-3.74,2.98-5.75,4.52-7.02,5.37-14.32,10.36-21.81,15.05h-.02c-.06.05-.13.09-.19.13-.31.19-.73.44-1.14.7-1.22.75-2.68,1.63-4.16,2.5-7.67,4.51-15.55,8.65-23.63,12.36l-.48.22c-.19.09-.39.18-.59.27-7.72,3.46-15.81,6.61-24.11,9.2h-.04c-.06.03-.11.04-.17.06-5.81,1.76-11.82,3.26-17.91,4.34-1.9.32-3.8.59-5.71.82-.54.06-1.09.13-1.64.18-.54.06-1.09.11-1.64.16-.54.05-1.09.09-1.64.13-.82.06-1.65.11-2.47.15-.26,0-.52.02-.78.02-.77.02-1.54.03-2.32.03-1.09,0-2.17-.02-3.26-.07ZM271.04,110.7c-.09,0-.18,0-.27.02-.03,0-.05,0-.07,0-.09,0-.17.01-.25.03-.58.08-1.15.21-1.68.41,0,0,0,0,0,0-.54.2-1.04.47-1.51.8-.22.02-.44.04-.66.06-.21.02-.41.04-.61.06-.22.02-.44.05-.65.07-.43.05-.85.11-1.28.17-.15.02-.31.04-.46.07-.16.02-.33.05-.49.08-.32.05-.64.1-.95.16-.44.08-.87.16-1.3.24-.2.04-.39.08-.59.11-.42.09-.84.18-1.26.27s-.83.19-1.25.29c-.42.11-.83.21-1.25.32-.86.23-1.73.47-2.58.72-.17.05-.34.1-.51.16-.21.06-.41.13-.61.19-.21.06-.41.13-.61.19-1.05.34-2.1.7-3.14,1.07-.17.06-.34.12-.51.18-.2.08-.4.15-.6.23-.2.07-.4.15-.6.23-.2.07-.4.15-.6.23-.6.23-1.2.47-1.8.72-.4.16-.79.32-1.19.49-.6.25-1.19.5-1.78.76-.59.26-1.18.52-1.77.79-.2.09-.39.18-.59.27-.39.18-.78.36-1.17.54-.59.27-1.17.54-1.75.83-.19.09-.39.18-.58.28-.39.19-.78.37-1.16.56-.19.09-.39.19-.58.28-.19.09-.38.19-.58.28-.19.09-.38.19-.58.29-.19.09-.38.19-.58.29-.38.19-.77.38-1.15.57s-.77.38-1.15.58c-.2.1-.4.21-.61.31-.37.19-.74.38-1.11.56-.21.11-.42.21-.63.31s-.42.21-.63.31c-.42.21-.84.42-1.26.63-.21.1-.42.21-.63.31-.14.07-.28.14-.42.21-.14.07-.28.14-.43.21-.14.07-.28.14-.42.21-.21.11-.42.22-.63.32-.63.32-1.26.65-1.89.98-.42.22-.84.44-1.26.66-.21.11-.42.22-.63.33-.42.23-.83.45-1.25.68-1.04.57-2.08,1.15-3.1,1.74-.41.23-.82.47-1.23.72-.21.12-.41.24-.61.36-.2.12-.41.24-.61.37-.41.24-.81.49-1.21.74-.2.13-.4.25-.6.38s-.4.26-.6.38c-.4.26-.79.51-1.18.77-.19.13-.39.26-.59.39s-.39.27-.59.4l-.58.4c-.37.26-.74.52-1.11.79-.78.56-1.55,1.14-2.3,1.73-.37.29-.74.58-1.1.88-.18.14-.36.29-.54.45-.36.3-.72.6-1.08.91-.18.16-.36.31-.53.47s-.35.31-.53.47c-.18.16-.35.31-.52.48-.17.16-.34.32-.51.48-.34.32-.68.65-1.01.98h0c-.07.07-.13.14-.2.21-.17.17-.34.34-.51.51-.42.44-.84.88-1.25,1.33-.16.18-.32.35-.48.53-.16.18-.31.36-.47.53-.16.18-.31.36-.46.54-.15.18-.31.36-.46.55-.14.17-.29.35-.42.52-.01.02-.03.03-.04.05-.15.18-.29.36-.43.54-.14.19-.29.38-.43.57-.13.17-.26.34-.38.51-.16.21-.31.43-.47.65-1.49,2.36-4.51,6.12-4.36,9.16,0,.05,0,.11.01.16h0c0,.06.01.13.02.19,0,.06.01.12.03.18.01.06.02.12.04.18.03.12.06.24.1.35.02.06.04.11.06.17h0c.02.06.04.11.07.17,0,.02.02.04.03.06.04.08.08.15.12.22.04.08.09.15.13.22.04.05.07.11.11.16.08.11.16.21.26.31.25.27.55.53.92.76.07.05.14.09.21.13.6.19,1.27.26,2,.24h.02c.16,0,.33-.01.5-.03.26-.02.53-.06.81-.11.09-.01.19-.03.28-.05.47-.09.95-.21,1.46-.36.19-.05.38-.11.57-.18.01,0,.03,0,.04-.01.25-.08.51-.17.77-.27.07-.02.13-.05.2-.08.46-.17.93-.36,1.41-.58t0,0c.24-.1.48-.21.73-.33.07-.03.14-.06.21-.1.67-.32,1.36-.66,2.06-1.04.13-.07.26-.14.39-.21.39-.21.79-.43,1.19-.66.14-.08.27-.15.41-.23.41-.23.82-.47,1.23-.72.96-.57,1.95-1.18,2.95-1.82,1-.64,2.03-1.3,3.06-1.99.3-.19.59-.39.89-.59.59-.4,1.2-.8,1.8-1.21.45-.31.9-.62,1.36-.93.3-.21.61-.42.91-.63,1.06-.73,2.13-1.48,3.2-2.22,1.1-.76,2.2-1.53,3.3-2.28.28-.19.55-.38.83-.57,1.68-1.15,3.35-2.28,4.98-3.36.15-.1.3-.19.45-.29.44-.29.89-.58,1.33-.86.36-.23.73-.46,1.09-.69.15-.09.29-.18.44-.28.22-.13.43-.27.65-.4.14-.09.29-.18.43-.26.29-.18.57-.34.85-.51.23-.14.45-.27.67-.4.2-.11.39-.23.59-.34.42-.24.83-.47,1.24-.7.14-.08.27-.15.41-.23.27-.15.54-.29.81-.43.37-.19.73-.38,1.09-.56.03-.01.06-.03.1-.05.23-.11.46-.23.69-.34.03-.01.06-.03.08-.04.26-.12.51-.24.76-.35.13-.06.25-.11.38-.17.37-.16.74-.32,1.1-.46.12-.05.24-.09.36-.14s.24-.09.36-.13l.35-.13c.12-.04.23-.08.35-.12.23-.08.45-.15.67-.21.23-.07.45-.13.68-.19.36-.14.73-.29,1.11-.43,1.11-.42,2.25-.8,3.41-1.16h0c3.09-.96,6.32-1.71,9.55-2.26,1.61-.28,3.23-.5,4.83-.68.22-.04.45-.08.68-.11.12-.02.23-.03.35-.05.23-.03.46-.06.7-.09s.47-.05.71-.08h0c1.2-.12,2.45-.2,3.71-.28h0c.63-.04,1.27-.08,1.9-.13h0c.51-.04,1.02-.08,1.52-.13,1.01-.1,2.02-.22,3-.39.23-.04.46-.08.68-.13.11-.02.23-.05.34-.07.23-.05.45-.1.67-.16.33-.08.66-.18.98-.28.22-.07.43-.14.64-.21.32-.11.63-.23.93-.37s.6-.28.89-.43c.36-.19.72-.4,1.06-.63.07-.05.14-.1.22-.15.07-.05.14-.1.21-.16.38-.28.74-.59,1.08-.93.09-.08.17-.17.25-.26.42-.44.8-.93,1.16-1.47.47-1.11.64-2.23.56-3.33,0-.06,0-.11-.02-.17,0-.05,0-.1-.01-.14,0-.09-.02-.18-.04-.27-.01-.09-.03-.18-.04-.27-.02-.09-.03-.18-.06-.27-.03-.11-.05-.23-.08-.34-.04-.15-.09-.31-.14-.46-.09-.26-.19-.53-.3-.79-.03-.08-.06-.15-.1-.22-.08-.18-.18-.36-.28-.54-.04-.07-.08-.14-.12-.22-.15-.27-.32-.53-.5-.79-.05-.08-.1-.15-.15-.22-.17-.24-.35-.47-.55-.7-.06-.08-.13-.15-.19-.23-.13-.15-.26-.3-.41-.44-.07-.07-.14-.14-.21-.22h0c-.07-.08-.14-.15-.22-.21-.22-.21-.44-.42-.68-.62-.16-.14-.31-.27-.48-.39-.16-.12-.33-.25-.49-.37h0l-.25-.18h0c-.25-.18-.51-.35-.78-.51-.18-.11-.35-.21-.53-.31-.09-.05-.18-.1-.27-.15-.36-.19-.73-.38-1.1-.54h0c-.09-.04-.19-.08-.28-.12-.19-.08-.38-.16-.58-.23-.09-.03-.18-.07-.27-.1-.09-.04-.19-.07-.28-.1h0c-.09-.03-.19-.06-.29-.09-.09-.03-.19-.06-.29-.08-.1-.03-.19-.05-.29-.08-.1-.03-.19-.05-.29-.07-.19-.05-.38-.09-.57-.12-.28-.05-.55-.09-.82-.12-.02,0-.05,0-.07,0-.18-.02-.36-.04-.53-.04-.08,0-.16-.01-.23-.01-.04,0-.09,0-.14,0-.08,0-.16,0-.24,0-.19,0-.37,0-.55.02Z" fill="#eb7865"/><path d="M166.27,310.22c-.2-.14-.41-.29-.61-.44l-1.22-.88c-.22-.18-.44-.35-.66-.52-.54-.42-1.06-.8-1.55-1.16-.47-.34-.92-.66-1.33-.97-.14-.11-.28-.21-.42-.31-.3-.23-.58-.44-.83-.65-.06-.05-.13-.1-.18-.16-.12-.11-.23-.21-.34-.31-.09-.09-.17-.17-.25-.26-.02-.02-.03-.03-.05-.05-1.5-1.66-.97-3.24,3.59-6.53,1.83,1.68,4.63,3.53,7.37,5.2.39.24.78.48,1.17.71.24.15.49.29.73.43.02.01.04.03.06.04.36.21.73.43,1.08.63.26.16.52.31.78.45.76.44,1.47.85,2.1,1.22-2.22,1.38-5.5,3.67-6.43,5.68-1.01-.7-2-1.41-3-2.13Z" fill="#d0e4e9"/><path d="M174.34,315.69c-.57-.35-1.14-.71-1.7-1.07,1.09-.79,2.1-2.12,3.07-2.73.84-.79,1.81-1.39,2.81-1.93.2.18.39.36.56.53,2.96,1.79-.73,3.49-2.35,4.61-.63.32-1.4.56-1.99.92-.12-.12-.25-.23-.41-.32Z" fill="#d0e4e9"/><path d="M140.47,327.17c2.69-.65,6.56-6.74,8.74-8.12,3.19-2.99,6.41-5.93,9.67-8.85.48.39.98.79,1.48,1.17-6.43,5.66-12.75,11.45-18.72,17.61-.31-.88-.73-1.47-1.18-1.82Z" fill="#d0e4e9"/><path d="M171.38,299.3c.82-.7,1.64-1.4,2.46-2.09,1.14-1.47,5.19-3.84,7.53-6.18.37.39.77.75,1.15,1.08-3.09,2.75-6.21,5.46-9.34,8.17-.64-.34-1.26-.67-1.8-.98Z" fill="#d0e4e9"/><path d="M154.81,410.86c.22-.38.31-.84.2-1.38-1.9-10.85-4.42-21.66-6.38-32.52l.19.16.24.19.25.21.25.22.26.22.27.23.28.24.28.25.28.25.28.26.28.26.28.26.28.26.28.26.28.26.27.26.27.26.27.26.26.25.25.25.25.24.25.25.24.24.24.24.24.24.24.24.23.24.23.24.23.24.23.24.23.24.23.24.24.24.24.24.24.24.24.24.24.24.24.23.25.24.26.24.26.24.26.23.26.23.26.23.27.23.27.22.28.22.28.21.28.21.28.2.29.2.29.19.3.19.31.19.31.18.31.18.31.17.32.17.32.17.33.16.33.16.34.16.35.16.36.15.36.15.35.14.35.14.35.14.36.13.36.13.35.12.34.12.34.11.34.11.34.11.34.11.34.1.33.1.33.09.33.09.33.08.34.08.33.07.34.06.34.05.35.04.35.03h.37s.37.01.37.01l.37-.02.38-.03.39-.05.41-.08.41-.11.43-.13.43-.15.44-.18.44-.21.45-.24.45-.26.44-.28.44-.29.43-.31.42-.31.41-.33.41-.33.39-.33.39-.33.38-.33.36-.33.36-.33.35-.33.34-.32.33-.32.32-.31.3-.3.29-.29.28-.29.28-.28.27-.28.26-.26.25-.26.24-.26.24-.25.24-.25.23-.25.23-.24.23-.24.23-.24.23-.24.23-.24.21-.23.21-.22.2-.21.2-.22.19-.21.19-.21.19-.2.18-.2.18-.19.18-.2.18-.2.18-.2.17-.19.17-.19.17-.19.18-.2.18-.21.19-.23.19-.24.2-.25.22-.27.23-.3.24-.33.25-.34.26-.36.27-.38.27-.39.28-.4.29-.41.29-.42.28-.41.28-.41.28-.4.28-.39.27-.37.26-.36.25-.34.24-.32.23-.3.22-.29.21-.28.2-.26.19-.25.18-.24.18-.22.17-.21.16-.2.16-.19.15-.18.15-.17.14-.16.14-.15.14-.14.13-.14.13-.13.13-.12.13-.11.12-.11.12-.1.12-.09.11-.08.11-.08.11-.07.11-.07.11-.06.11-.06.11-.05.11-.05.11-.04.11-.04.11-.03.11-.03.11-.03.11-.02.11-.02.11-.02h.12s.11-.03.11-.03h.12s.12-.02.12-.02h.12s.12,0,.12,0h.12s.11,0,.11,0h.23s.11,0,.11,0h.11s.11.01.11.01h.11s.11.01.11.01h.11s.11.02.11.02h.11s.11.02.11.02h.11s.11.02.11.02h.11s.11.03.11.03h.11s.11.03.11.03h.11s.11.03.11.03l.11.02h.11s.11.03.11.03l.11.02h.11s.11.03.11.03h.11s.11.03.11.03h.11s.11.02.11.02h.11s.11.02.11.02h.11s.11,0,.11,0h.11s.11-.01.11-.01l.11-.02.12-.02.11-.03.12-.04.12-.05.11-.05.11-.06.11-.07.11-.08.11-.09.1-.09.09-.1.09-.11.09-.11.08-.12.08-.13.07-.14.06-.15.06-.16.05-.17.05-.18.04-.18.03-.19.03-.2.03-.21.02-.21.02-.21v-.22s.01-.22.01-.22v-.23s0-.23,0-.23v-.24s-.03-.24-.03-.24l-.02-.24-.03-.24-.02-.24-.03-.23-.03-.23-.03-.23-.03-.23-.03-.23-.04-.23-.04-.23-.04-.23-.04-.23-.04-.23-.04-.23-.04-.23-.04-.23-.04-.23-.04-.23-.04-.23-.04-.23-.04-.22-.04-.22-.04-.21-.04-.21-.04-.21-.04-.21-.04-.2-.04-.2-.04-.19-.04-.19-.04-.18-.04-.18-.04-.18-.04-.17-.04-.17-.04-.17-.04-.17-.04-.17-.04-.17-.05-.17-.05-.17-.05-.17-.05-.17-.05-.16-.05-.16-.05-.16-.05-.16-.05-.15-.05-.15-.05-.14-.05-.14-.04-.14-.05-.14-.04-.13-.05-.13-.04-.13-.04-.13-.04-.13-.04-.13-.04-.13-.04-.13-.04-.13-.04-.13-.04-.13-.04-.12-.04-.12-.04-.12-.04-.12-.04-.12-.04-.12-.04-.12-.04-.11-.04-.11-.04-.11-.04-.11-.04-.11-.04-.11-.04-.11-.04-.11-.04-.11-.04-.1-.04-.11-.04-.11-.04-.11-.04-.11-.04-.11-.04-.11-.04-.11-.04-.11-.03-.11-.04-.1-.03-.11-.03-.1-.03-.11-.03-.11-.03-.11-.03-.11-.03-.12-.02-.12-.02-.12v-.12s0-.12,0-.12v-.11s.02-.11.02-.11l.03-.1.03-.09.04-.09.05-.08.06-.07.06-.06.07-.04.08-.03.09-.02h.1s.11,0,.11,0l.12.02.12.03.13.04.13.05.14.06.14.07.14.08.13.08.14.09.13.09.13.09.13.1.13.1.13.1.12.1.12.1.12.1.12.1.11.1.11.1.11.1.11.1.11.1.11.1.11.11.11.11.11.11.11.11.11.11.11.11.11.12.12.12.12.12.12.12.12.12.12.12.12.12.12.12.12.12.12.12.12.12.12.12.12.12.12.12.12.11.12.11.12.11.12.11.12.11.12.11.12.11.13.11.13.1.13.1.13.1.13.09.13.09.13.09.12.09.12.09.12.08.12.08.12.08.12.08.12.08.12.07.12.07.12.07.12.07.12.06.12.06.12.06.12.06.13.06.13.05.13.05.13.04.13.04.13.03.13.03.13.02.13.02h.13s.13.01.13.01h.13s.14-.02.14-.02l.14-.03.14-.04.14-.06.14-.07.14-.08.09-.06c.91,3.69,1.81,7.39,2.72,11.08.42,1.71.84,3.42,1.26,5.13.21.87.43,1.73.64,2.6.1.42.21.84.31,1.26.08.32.13.67.25.98.25.74.98,1.37,1.92,1.41h.08c1.1,0,2.14-.91,2.14-2.05,0-.21-.01-.43-.07-.63-.18-.9-.44-1.8-.66-2.7-.27-1.1-.54-2.18-.81-3.28-1.38-5.61-2.77-11.23-4.14-16.85-.36-1.47-.72-2.94-1.08-4.41v-.16s.01-.13.01-.13v-.13s.02-.13.02-.13l.02-.12.02-.12.02-.11.03-.11.03-.11.04-.1.04-.1.05-.1.06-.09.07-.09.08-.09.08-.08.09-.08.09-.07.11-.07.12-.06.12-.05.13-.04.14-.03.14-.02h.14s.15-.02.15-.02h.16s.16.03.16.03l.16.03.17.04.17.06.18.07.17.08.17.08.17.09.17.11.17.11.17.12.17.14.17.14.17.14.16.16.17.17.17.17.16.17.16.17.16.18.15.18.15.17.14.17.14.17.14.16.14.16.13.16.13.15.13.15.13.15.12.14.12.14.11.14.11.13.11.13.12.13.13.13.14.13.06.04c.65,2.97,1.3,5.94,1.95,8.91.46,2.07.9,4.14,1.36,6.21.31,1.4.58,2.81.91,4.21.02.12.05.23.08.35.14,1.02,1.09,1.81,2.12,1.81h.07c1.19-.04,2.07-1.04,2.07-2.2,0-.16-.03-.29-.06-.43-.01-.07-.03-.14-.04-.21,0-.01,0-.04-.01-.06-.47-2.35-1.03-4.74-1.55-7.13-1.01-4.62-2.02-9.24-3.02-13.85l.04-.08.1-.21.09-.2.09-.2.08-.2.08-.19.07-.19.06-.19.06-.18.06-.19.05-.19.05-.19.05-.19.04-.18.04-.19.04-.18.04-.18.03-.18.03-.17.03-.17.03-.17.03-.16.03-.16.03-.16.03-.16.03-.16.03-.16.03-.15.03-.15.03-.15.03-.14.03-.14.03-.14.03-.13.03-.13.03-.13.03-.12.04-.13.05-.12.05-.12.06-.11.07-.1.08-.08.08-.07.09-.05.09-.04.09-.03h.09s.09-.01.09-.01h.09s.1.03.1.03l.1.03.09.04.1.05.09.05.09.06.09.06.09.06.09.07.09.07.09.07.09.07.09.07.09.08.1.08.09.08.1.08.1.08.11.08.12.08.13.08.14.07.16.06.18.04.2.02.22-.02h.02c.5,2.45,1.01,4.91,1.51,7.36.47,2.27.93,4.54,1.4,6.82.16.78.32,1.57.48,2.35.14.68.26,1.36.41,2.04.13,1.03,1.09,1.83,2.12,1.83.02,0,.04,0,.06,0,1.19-.04,2.07-1.03,2.07-2.2,0-.13-.02-.24-.04-.34-.32-1.59-.65-3.18-.98-4.77-1.14-5.58-2.29-11.15-3.44-16.73l.04-.05.2-.3.19-.29.18-.28.17-.26.16-.25.15-.24.14-.23.14-.22.13-.21.13-.2.12-.19.12-.18.12-.18.11-.17.11-.16.11-.16.13-.16.14-.17.16-.17.18-.18.2-.18.23-.19.25-.2.28-.2.29-.21.31-.21.33-.22.35-.24.38-.26.4-.27.43-.29.44-.3.45-.31.46-.33.48-.34.46-.33.46-.33.44-.31.43-.3.41-.29.4-.28.38-.27.36-.25.34-.24.33-.22.31-.21.3-.2.29-.19.28-.18.26-.17.25-.16.25-.15.25-.15.24-.14.23-.14.24-.13.24-.13.25-.13.27-.13.29-.14.32-.14.35-.15.38-.16.43-.18.46-.19.49-.2.51-.21.53-.22.55-.23.56-.24.58-.25.58-.25.57-.26.56-.26.55-.26.55-.27.54-.27.52-.27.51-.27.49-.27.47-.26.46-.26.44-.26.42-.24.4-.23.38-.22.36-.21.34-.2.33-.19.33-.19.32-.19.33-.19.33-.19.35-.21.38-.23.41-.24.42-.26.45-.28.48-.3.51-.33.54-.35.54-.36.56-.38.57-.4.58-.42.59-.44.59-.45.58-.46.58-.46.58-.46.57-.46.56-.46.56-.46.54-.45.53-.43.51-.42.5-.41.51-.41.52-.43.52-.43.53-.44.56-.47.59-.5.64-.54.68-.58.71-.61.74-.62.76-.63.77-.63.79-.63.79-.61.76-.58.73-.54.69-.5.65-.46.63-.43.6-.41.58-.38.55-.35.53-.33.52-.32.52-.31.51-.31.51-.3.51-.3.51-.31.52-.32.55-.35.58-.38.61-.4.63-.43.67-.47.72-.51.78-.57.84-.62.88-.67.93-.71.97-.75.99-.78,1.04-.84,1.05-.87,1.02-.86.99-.85.96-.84.93-.84.91-.83.88-.82.83-.78.78-.74.74-.71.69-.67.68-.65.66-.63.62-.59.59-.56.57-.53.55-.51.55-.5.55-.49.55-.49.58-.49.61-.5.65-.52.71-.56.78-.59.84-.6.92-.64.98-.65.99-.65,1.03-.66,1.04-.65,1.02-.63.99-.61.95-.59.91-.57.9-.56.87-.55.83-.53.78-.51.74-.48.7-.46.66-.45.63-.43.59-.42.56-.41.55-.41.54-.41.56-.45.58-.48.57-.49.58-.51.59-.55.6-.58.62-.61.62-.62.6-.62.59-.61.57-.61.55-.59.54-.59.53-.57.51-.55.48-.53.46-.5.44-.48.43-.45.41-.43.39-.4.36-.38.34-.35.33-.33.31-.31.29-.29.28-.28.26-.26.25-.24.24-.23.24-.23.24-.22.23-.21.23-.21.23-.21.23-.2.22-.2.22-.2.22-.19.21-.19.2-.18.2-.18.19-.17.19-.17.19-.16.18-.16.17-.15.17-.14.17-.14.18-.14.18-.15.2-.16.22-.18.24-.19.26-.21.29-.24.31-.26.33-.28.34-.3.34-.31.34-.32.34-.32.32-.31.31-.31.29-.29.28-.28.26-.26.25-.25.23-.24.22-.23.21-.22.2-.21.19-.21.19-.21.18-.21.18-.22.18-.23.18-.25.18-.28.18-.3.18-.32.18-.33.17-.34.16-.35.16-.36.15-.36.14-.36.14-.36.13-.35.13-.34.12-.34.11-.34.11-.33.1-.33.1-.33.09-.33.09-.33.08-.34.08-.34.07-.34.07-.35.06-.36.06-.37.05-.38.05-.39.04-.4.04-.41.04-.42.03-.45.03-.46.03-.46.03-.48.03-.48.03-.48.03-.49.02-.48.02-.47.02-.46.02-.45.02-.44.02-.44.02-.44.02-.43.02-.43.03-.43.03-.43.03-.43.03-.42.03-.41.03-.39.03-.39.03-.37.04-.37.04-.37.04-.37.04-.37.05-.37.05-.38.06-.39.07-.4.07-.41.08-.42.08-.42.09-.41.09-.41.09-.4.09-.39.09-.39.09-.37.09-.35.09-.35.09-.34.09-.33.09-.32.09-.32.1-.32.11-.33.12-.33.13-.33.14-.34.16-.36.18-.37.19-.38.19-.38.2-.36.2-.35.2-.34.19-.32.2-.32.2-.31.19-.29.19-.28.19-.26.18-.25.19-.24.19-.23.19-.22.18-.21.18-.2.18-.19.17-.18.17-.17.17-.16.16-.15.16-.15.16-.14.16-.13.15-.12.15-.12.15-.11.15-.1.15-.1.14-.09.15-.09.15-.08.15-.08.16-.07.16-.07.17-.06.17-.06.18-.06.18-.06.18-.05.18-.05.19-.05.19-.05.19-.05.2-.05.19-.05.2-.05.21-.05.21-.05.22-.06.22-.06.22-.06.23-.07.23-.07.23-.08.23-.08.23-.08.22-.08.22-.08.22-.09.22-.09.23-.1.22-.1.23-.11.23-.12.24-.13.25-.14.26-.15.26-.16.27-.17.28-.18.29-.19.3-.21.3-.21.3-.22.3-.22.29-.22.3-.23.31-.25.31-.25.3-.25.29-.25.29-.25.28-.26.28-.26.27-.26.26-.25.24-.24.23-.23.23-.23.22-.23.21-.22.2-.21.19-.21.18-.2.17-.19.17-.19.16-.19.15-.18.15-.18.15-.19.16-.2.16-.21.17-.23.18-.24.18-.25.19-.26.21-.29.22-.29.22-.29.23-.3.24-.31.24-.31.25-.31.25-.31.25-.31.25-.3.24-.29.23-.28.23-.28.23-.27.22-.26.21-.25.21-.24.2-.23.19-.23.19-.22.18-.21.18-.2.17-.19.16-.19.16-.18.15-.18.14-.17.14-.16.14-.16.13-.15.13-.15.13-.15.13-.14.12-.14.12-.14.12-.14.12-.14.12-.14.12-.14.12-.14.11-.14.11-.14.11-.14.11-.14.11-.14.11-.13.11-.14.11-.13.11-.14.11-.14.11-.14.1-.14.11-.13.1-.13.1-.13.1-.13.1-.13.11-.13.04-.05c2.57-2.25,5.14-4.49,7.68-6.78,3.93-3.45,7.65-6.97,11.71-10.15l.09-.02.17-.02.16-.02h.16s.16-.02.16-.02h.15s.15,0,.15,0h.16s.16.02.16.02l.17.02.17.03.17.04.18.06.19.07.2.08.21.1.22.11.22.13.23.14.23.15.24.16.23.17.23.18.23.18.22.19.22.19.21.19.2.19.08.08c.77,9.67,1.04,19.52,1.66,29.21-.14,3.15.48,7.22.84,11.22v.09s.01.2.01.2v.19s.02.19.02.19v.18s.03.18.03.18v.18s.03.18.03.18v.17s.03.17.03.17l.02.17.02.17.02.16v.04s0,.03,0,.03c.21,3.75.02,7.28-1.45,9.79-4.29,4.49-8.9,8.21-13.58,12.57-1.74,2.44-11.95,8.32-9.39,11.07.34.46.77.67,1.26.69l-.14.08-.82.46-.83.46-.82.45-.8.44-.79.44-.78.44-.78.44-.79.46-.81.49-.81.51-.81.53-.82.57-.83.61-.86.67-.89.74-.89.78-.89.82-.9.87-.91.91-.93.98-.95,1.03-.94,1.05-.94,1.06-.94,1.07-.94,1.07-.97,1.09-.98,1.09-.97,1.06-.96,1.03-.95,1-.94.97-.95.95-.94.93-.91.88-.88.83-.85.8-.82.76-.8.73-.78.71-.75.67-.71.64-.68.61-.66.59-.64.57-.62.55-.59.53-.57.51-.56.49-.55.49-.56.49-.58.5-.59.5-.61.5-.62.5-.64.5-.66.51-.69.53-.69.52-.69.52-.69.51-.68.51-.66.5-.64.49-.61.47-.58.46-.56.44-.53.43-.51.42-.49.41-.47.4-.45.39-.43.38-.42.37-.42.38-.41.38-.4.38-.39.38-.39.38-.39.38-.39.38-.39.39-.38.38-.38.38-.36.37-.35.35-.34.34-.33.33-.32.32-.3.3-.29.29-.28.28-.28.27-.28.27-.26.26-.26.25-.26.25-.27.25-.27.26-.28.26-.28.26-.28.26-.29.26-.29.26-.3.27-.31.27-.31.27-.31.26-.31.27-.32.26-.33.27-.33.27-.33.27-.33.26-.33.26-.33.25-.33.25-.33.24-.32.23-.31.22-.3.21-.29.2-.28.19-.27.18-.26.17-.26.17-.25.16-.24.15-.24.15-.24.14-.24.14-.23.13-.22.13-.21.12-.21.12-.21.11-.2.11-.19.11-.19.1-.18.1-.18.1-.18.09-.17.09-.16.09-.16.09-.16.08-.16.08-.15.08-.15.08-.14.08-.14.07-.14.07-.14.07-.13.07-.13.07-.13.07-.13.07-.13.07-.13.07-.14.07-.14.08-.14.08-.15.08-.16.09-.16.09-.16.09-.17.09-.17.1-.17.1-.17.1-.17.1-.17.1-.17.1-.17.1-.16.1-.16.1-.16.1-.16.09-.15.09-.15.09-.14.09-.14.09-.14.09-.14.09-.14.09-.13.09-.13.09-.13.09-.13.09-.13.09-.13.09-.13.09-.13.1-.13.1-.13.1-.13.11-.14.11-.14.11-.14.12-.14.12-.14.13-.15.14-.15.14-.15.14-.15.15-.16.16-.16.17-.17.18-.17.19-.18.2-.19.21-.19.21-.2.22-.2.22-.2.23-.21.23-.21.24-.22.24-.22.25-.22.25-.22.25-.22.25-.23.26-.22.26-.22.25-.22.25-.22.24-.22.25-.22.25-.22.25-.22.25-.23.26-.24.27-.24.28-.25.29-.26.29-.26.29-.26.3-.26.3-.27.31-.28.31-.27.31-.26.3-.26.3-.25.29-.25.28-.24.28-.24.27-.23.26-.23.26-.22.25-.22.25-.22.24-.21.24-.21.23-.21.23-.21.23-.21.23-.22.24-.22.24-.23.25-.25.27-.25.26-.26.28-.26.28-.26.28-.26.28-.26.27-.26.27-.26.27-.26.27-.25.26-.25.26-.25.26-.25.25-.26.26-.26.26-.25.25-.26.25-.25.25-.25.24-.26.25-.09.09c-9.6,6.9-19.29,13.67-29.05,20.34-6.89,4.93-13.8,9.84-20.72,14.71l-.55.23-.92.38-.98.41-1.03.44-1.11.49-1.18.53-1.2.55-1.22.57-1.24.59-1.25.6-1.26.61-1.25.62-1.22.61-1.2.6-1.18.59-1.15.58-1.16.59-1.16.61-1.13.6-1.1.6-1.08.6-1.05.6-1.06.63-1.05.64-1.01.64-.97.63-.93.62-.89.61-.87.61-.84.59-.8.58-.76.56-.74.54-.72.53-.71.52-.71.51-.69.5-.69.49-.68.48-.68.48-.69.48-.7.48-.69.48-.7.48-.71.49-.72.49-.75.52-.77.54-.77.55-.76.55-.75.55-.75.56-.76.58-.76.59-.75.58-.72.56-.69.55-.67.54-.66.54-.65.53-.64.52-.62.51-.61.51-.6.49-.61.5-.6.49-.59.48-.59.47-.58.46-.57.46-.58.46-.58.46-.56.44-.54.43-.53.41-.5.4-.5.39-.48.39-.46.37-.44.36-.43.35-.42.34-.41.34-.41.33-.4.33-.4.33-.41.33-.41.33-.43.36-.46.37-.48.39-.49.4-.5.41-.5.42-.52.43-.53.44-.52.44-.52.44-.51.43-.5.43-.51.42-.5.42-.49.41-.49.4-.49.4-.49.39-.49.38-.49.38-.48.37-.48.36-.49.37-.51.38-.52.39-.54.4-.55.4-.55.4-.54.4-.54.4-.53.39-.51.38-.48.36-.46.34-.44.33-.41.3-.39.29-.38.28-.36.26-.34.24-.32.23-.3.22-.29.21-.28.2-.27.19-.26.18-.26.17-.25.17-.25.17-.26.17-.25.16-.25.17-.26.17-.26.17-.26.18-.26.18-.26.18-.26.18-.26.18-.26.18-.26.18-.26.18-.25.18-.25.17-.25.17-.25.17-.26.17-.27.18-.28.17-.29.17-.31.18-.33.18-.35.18-.38.18-.4.18-.43.18-.44.17-.46.16-.47.16-.48.16-.48.14-.48.14-.47.13-.48.12-.48.11-.49.1-.49.09-.5.08-.29.04c-3.07-2.6-4.82-11.72-6.63-15.34ZM421.58,220.16c.18,2.77,4.37,2.58,4.26-.21-.08-1.34-1.1-1.99-2.13-1.99-1.1,0-2.19.75-2.14,2.19ZM414.43,216.04c1.53,2.35,5.08.05,3.62-2.32-.45-.69-1.09-.98-1.71-.98-1.49,0-2.95,1.63-1.91,3.3ZM421.78,208.96c.18,2.77,4.37,2.58,4.26-.21-.08-1.34-1.11-1.99-2.13-1.99-1.1,0-2.2.75-2.14,2.19ZM428.56,208.82c.17,2.77,4.37,2.58,4.26-.21-.09-1.34-1.11-1.99-2.13-1.99-1.1,0-2.2.75-2.14,2.19ZM410.92,206.42c.17,2.77,4.37,2.58,4.26-.21-.09-1.34-1.11-1.99-2.13-1.99-1.1,0-2.2.75-2.14,2.19ZM417.88,199.47c.18,2.77,4.37,2.58,4.26-.21-.08-1.34-1.1-1.99-2.13-1.99-1.1,0-2.2.75-2.14,2.19ZM427.13,199.43c.17,2.77,4.37,2.58,4.26-.21-.09-1.34-1.11-1.98-2.13-1.98-1.1,0-2.2.75-2.14,2.19ZM434.68,198.85c.18,2.77,4.37,2.58,4.26-.21-.08-1.34-1.1-1.99-2.13-1.99-1.1,0-2.2.75-2.14,2.19ZM407.67,195.29c.17,2.77,4.37,2.58,4.26-.21-.08-1.34-1.1-1.99-2.13-1.99-1.1,0-2.2.75-2.14,2.19ZM415.32,190.21c.17,2.77,4.37,2.58,4.26-.21-.08-1.34-1.11-1.98-2.13-1.98-1.1,0-2.2.75-2.14,2.19ZM425.04,190c.17,2.77,4.37,2.58,4.26-.21-.09-1.34-1.11-1.99-2.13-1.99-1.1,0-2.2.75-2.14,2.19ZM433.19,188.51c.18,2.77,4.37,2.58,4.26-.21-.08-1.34-1.1-1.99-2.13-1.99-1.1,0-2.19.75-2.14,2.19ZM405.01,183.29c.17,2.77,4.37,2.58,4.26-.21-.09-1.34-1.11-1.99-2.13-1.99-1.1,0-2.2.75-2.14,2.19ZM422.46,180.53c.18,2.77,4.37,2.58,4.26-.21-.08-1.34-1.1-1.99-2.13-1.99-1.1,0-2.2.75-2.14,2.19ZM412.18,178.58c.18,2.77,4.37,2.58,4.26-.21-.09-1.34-1.11-1.99-2.13-1.99-1.1,0-2.2.75-2.14,2.19ZM431.05,176.27c.17,2.77,4.37,2.58,4.26-.21-.08-1.34-1.1-1.99-2.13-1.99-1.1,0-2.2.75-2.14,2.19ZM420.31,169.59c.18,2.77,4.37,2.58,4.26-.21-.08-1.34-1.1-1.98-2.13-1.98-1.1,0-2.2.74-2.14,2.19ZM429.38,163.8c.18,2.77,4.37,2.58,4.26-.21-.09-1.34-1.11-1.99-2.13-1.99-1.1,0-2.2.75-2.14,2.19Z" fill="#e0b72e"/><path d="M155.44,425.69l-.75-.26-.75-.29-.47-.21c-8.7-5.28-17.18-10.93-25.86-16.26-17.25-10.17-32.95-22.3-48.05-35.56-1.21-1.02-2.45-2.02-3.7-3.02.16-.36.2-.79.09-1.28-1.72-7.19-3.12-14.44-4.38-21.73h.02s.4-.08.4-.08l.41-.04h.41s.41.06.41.06l.41.09.41.13.4.16.39.19.38.23.38.26.37.29.36.31.36.33.35.35.34.36.33.37.33.39.32.41.31.41.3.41.29.41.29.42.29.43.28.44.28.44.27.44.26.44.26.43.26.44.27.44.26.44.26.43.26.42.27.42.29.42.3.42.31.41.33.41.34.39.35.38.38.37.4.36.4.34.41.33.41.31.41.29.41.27.41.25.39.24.38.22.36.2.35.19.34.18.32.16.31.15.29.14.28.13.27.12.26.11.25.1.24.09.24.09.23.08.23.08.24.07.25.07.26.06.27.06.29.06.31.06.35.06.39.06.43.05.47.04.51.02h.54s.59-.02.59-.02l.63-.05.66-.08.68-.1.68-.12.69-.14.71-.16.7-.17.68-.17.66-.17.63-.17.6-.16.58-.15.55-.14.53-.13.49-.12.47-.11.45-.1.45-.09.44-.06.43-.04h.42s.41.01.41.01l.39.06.38.11.36.15.33.18.31.21.28.24.26.27.23.3.21.32.19.34.17.35.16.35.14.36.13.37.13.39.11.39.11.39.11.39.1.39.11.39.11.4.11.4.11.39.11.38.11.37.11.37.12.36.12.35.12.34.12.32.12.32.13.31.13.31.14.3.14.29.14.29.15.29.16.29.17.31.17.31.17.31.17.3.17.3.17.3.17.3.17.3.16.29.16.28.16.28.17.28.16.28.17.27.16.27.17.26.17.26.18.26.18.26.18.25.18.24.19.24.19.24.2.23.2.22.2.22.2.21.2.2.21.19.21.19.21.18.21.17.21.16.21.16.22.15.22.14.23.14.24.13.25.12.26.1.28.09.31.07.33.05.35.03h.37s.39-.04.39-.04l.4-.07.41-.11.43-.15.43-.18.42-.2.42-.23.42-.25.41-.27.41-.29.39-.3.37-.3.36-.29.33-.28.32-.28.3-.27.29-.26.27-.25.25-.24.24-.23.23-.22.21-.21.2-.2.19-.19.18-.18.17-.18.16-.17.16-.16.15-.15.14-.15.14-.14.13-.13.13-.13.13-.13.13-.12.12-.12.12-.11.11-.11.11-.1.11-.1.11-.1.11-.09.11-.09.1-.09.1-.09.1-.08.1-.08.11-.08.1-.08.11-.08.11-.08.11-.07.11-.07.1-.07.1-.06.1-.06.1-.06.1-.06.1-.06.1-.06.1-.05.11-.05.11-.05.11-.04.11-.04.11-.04.11-.04.11-.04.11-.04.11-.04.12-.03.12-.03.12-.03.12-.03.13-.03.13-.03.13-.02.13-.02.13-.02.13-.02.13-.02.13-.02.13-.02.13-.02.12-.02h.12s.12-.03.12-.03h.12s.12-.03.12-.03h.12s.12-.02.12-.02h.12s.13-.03.13-.03h.13s.13-.02.13-.02h.13s.14-.02.14-.02h.14s.14-.02.14-.02h.14s.15-.01.15-.01h.15s.15-.01.15-.01h.15s.14,0,.14,0h.13c1.87,11.16,4.57,22.24,6.56,33.38-1.46,2.59,1.4,5.94,2.02,8.64,1.29,2.68,2,6.15,3.37,9.01l-.4-.12Z" fill="#e0b72e"/><path d="M140.12,271.04c-11.55-.94-24.62-4.47-31.18-14.76-2.52-3.74-8.47-19.04-3.12-21.44,1.71-.45,3.21,1.65,2.3,3.11-.54,17.49,12.82,26.9,28.93,28.51,11.76,1.44,23.52-1.95,34.57-5.51,1.1-.38,2.33.22,2.71,1.32,2.59,4.47-24.98,8.89-32.6,8.89-.74,0-1.29-.04-1.61-.13Z"/><path d="M167.57,262.99c.03-1.13.94-2,1.92-2.07,1.54-.18,3.08-.4,4.34-.61,5.03-.86,9.99-2.09,14.61-3.48l.21-.06c7-2.13,13.84-4.79,20.28-7.66,7.66-3.44,15.11-7.32,22.37-11.54.88-.51,1.75-1.03,2.62-1.55.44-.26.87-.53,1.31-.79.38-.23.76-.51,1.17-.71.07-.05.14-.09.22-.14,6.75-4.15,13.32-8.6,19.68-13.31,3.43-2.54,6.8-5.15,9.91-7.68l.21-.17c6.24-5.08,12.27-10.43,18.04-16.05,2.33-2.27,4.61-4.59,6.82-6.93.02-.01.03-.03.04-.04l.02-.02c5.12-5.43,9.97-11.11,14.45-17.07.69-.91,1.36-1.82,2.02-2.74l.03-.05c3.39-4.73,6.55-9.66,9.26-14.75h0s.03-.06.04-.09l.03-.06c1.8-3.41,3.4-6.91,4.75-10.53.88-2.43,1.63-4.89,2.22-7.41.39-1.8.69-3.6.88-5.43.12-1.41.16-2.83.12-4.25-.05-1.08-.16-2.15-.33-3.22-.17-.93-.38-1.85-.64-2.76-.24-.77-.52-1.52-.84-2.26-.33-.72-.7-1.42-1.11-2.1-.41-.64-.84-1.27-1.32-1.87-.5-.6-1.03-1.17-1.6-1.71-.63-.57-1.28-1.11-1.96-1.61-.72-.5-1.47-.96-2.24-1.38-1.02-.53-2.06-1-3.14-1.41-1.33-.48-2.68-.87-3.89-1.15-.06-.01-.12-.03-.18-.04h-.01c-1.28-.28-2.56-.49-3.86-.66-.04,0-.09-.01-.14-.02-1.15-.16-1.96-1.31-1.78-2.44.18-1.18,1.29-1.93,2.44-1.78.08.01.17.02.25.03.09.01.18.02.26.03.06,0,.11.01.16.03,6.98.98,14.07,3.55,18.71,9.09,2.5,2.99,4.19,6.61,4.92,10.43.71,3.69.71,7.44.22,11.16-.53,4.02-1.6,7.97-2.99,11.78-1.45,4-3.22,7.87-5.22,11.62-.01.02-.03.05-.04.07-2.84,5.32-6.09,10.4-9.44,15.06-4.34,6.06-9.09,11.83-14.11,17.35-5.41,5.95-11.14,11.61-17.1,17-3.64,3.29-7.37,6.48-10.96,9.39-6.1,4.96-12.4,9.69-18.9,14.13-3.49,2.38-7.03,4.69-10.62,6.92-.31.19-.63.42-.97.6-.08.05-.16.1-.24.14-.02.01-.04.03-.06.04-.11.06-.21.13-.32.19-.45.27-.89.54-1.34.81-.91.55-1.83,1.1-2.75,1.64-7.2,4.24-14.62,8.14-22.24,11.58-7.15,3.23-14.46,6.11-21.88,8.35-5.55,1.68-11.19,3.05-16.93,3.92-.6.09-1.2.18-1.8.26-.5.06-1.01.16-1.51.16-1.16,0-2.11-1.05-2.08-2.19Z"/><path d="M325.87,157.82c-1.56-2.21-3.25-4.24-5.09-6.2-.82-.69-.98-1.96-.37-2.84.68-.99,2.05-1.19,2.97-.54,0,0,0,0,0,0,1.58,2.07,8.81,7.92,5.45,10.21-.35.23-.74.34-1.13.34-.7,0-1.39-.35-1.82-.97Z"/><path d="M333.08,150.7c-2.74-1.05-4.38-4.16-6.91-5.74-1.39-.77-2.57-2.44-1.27-3.86,2.74-2.72,7.77,4.41,9.94,6.08,1.21,1.27.12,3.52-1.56,3.52-.07,0-.14,0-.21-.01Z"/><path d="M329.48,153.6c-2.12-2.16-4.83-3.78-6.79-6.06-.7-1.43.43-3.09,1.97-3.07,2.98,1.05,5.17,4.04,7.69,5.97,1.62,1.45.18,3.73-1.5,3.73-.46,0-.93-.17-1.37-.57Z"/><path d="M328.05,155.47c-1.4-1.72-2.88-3.39-4.12-5.24-1.01-1.18-.66-3.2.92-3.66,1.14-.37,2.4.28,2.72,1.43,1.19,1.72,2.43,3.1,3.73,4.7,1.35,1.56-.15,3.53-1.73,3.53-.53,0-1.07-.22-1.52-.76Z"/><path d="M326.75,146.48c-2.17-.95-1.62-4.4.89-4.26,3.48.51,3.2,4.79.75,4.79-.47,0-1.02-.16-1.64-.53Z"/><path d="M190.12,164.39c-.07-.04-.14-.09-.21-.13-.2-.13-.39-.27-.56-.41-.08-.06-.14-.13-.21-.19-.05-.05-.1-.1-.15-.15-.09-.1-.18-.2-.26-.31-.04-.05-.08-.1-.11-.16-.05-.07-.09-.14-.13-.22-.04-.07-.08-.15-.12-.22-.01-.02-.02-.04-.03-.06-.03-.06-.05-.11-.07-.16h0c-.03-.06-.04-.12-.06-.18-.04-.12-.08-.23-.1-.35-.01-.06-.03-.12-.04-.18-.01-.06-.02-.12-.03-.18,0-.06-.02-.12-.02-.18h0c0-.06,0-.11-.01-.16-.14-3.05,2.87-6.81,4.36-9.16.16-.22.31-.44.47-.65.12-.17.25-.34.38-.51.14-.19.29-.38.43-.57.14-.18.28-.36.43-.54.01-.02.03-.03.04-.05.14-.18.28-.35.42-.52.15-.19.3-.37.46-.55.15-.18.3-.36.46-.54.15-.18.31-.36.47-.53.15-.18.31-.35.48-.53.41-.45.83-.89,1.25-1.33.16-.17.33-.34.51-.51.07-.07.13-.14.2-.2h0c.33-.33.67-.66,1.01-.98.17-.16.34-.32.51-.48.17-.16.35-.32.52-.48.18-.16.35-.32.53-.47s.35-.31.53-.47c.09-.08.18-.15.27-.23.27-.23.54-.46.81-.68.18-.15.36-.3.54-.45.36-.3.73-.59,1.1-.88.76-.59,1.52-1.16,2.3-1.73.37-.27.74-.53,1.11-.79l.58-.4c.19-.13.39-.27.59-.4s.39-.26.59-.39c.1-.07.2-.13.29-.19.29-.19.59-.39.89-.58.2-.13.4-.25.6-.38s.4-.25.6-.38c.4-.25.8-.5,1.21-.74.2-.13.41-.25.61-.37.2-.12.41-.24.61-.36.41-.24.82-.48,1.23-.72,1.03-.59,2.06-1.17,3.1-1.74.41-.23.83-.46,1.25-.68.11-.06.21-.11.31-.16.11-.06.21-.11.32-.17.42-.22.84-.44,1.26-.66.63-.33,1.26-.66,1.89-.98.21-.11.42-.22.63-.32.14-.07.28-.14.42-.21.14-.07.28-.14.43-.21.14-.07.28-.14.42-.21.21-.11.42-.21.63-.31.42-.21.84-.42,1.26-.63.21-.1.42-.21.63-.31s.42-.21.63-.31c.37-.19.74-.38,1.11-.56.2-.1.4-.2.61-.31.38-.19.76-.38,1.15-.58.38-.19.77-.38,1.15-.57.19-.1.38-.19.58-.29.19-.1.39-.19.58-.29.19-.09.39-.19.58-.28.19-.09.39-.19.58-.28.39-.19.78-.38,1.16-.56.19-.09.39-.19.58-.28.58-.28,1.17-.56,1.75-.83.39-.18.78-.36,1.17-.54.2-.09.39-.18.59-.27.59-.27,1.18-.53,1.77-.79.59-.26,1.19-.51,1.78-.76.4-.17.79-.33,1.19-.49.6-.25,1.2-.49,1.8-.72.2-.08.4-.16.6-.23.2-.08.4-.16.6-.23.2-.08.4-.15.6-.23.17-.06.34-.12.51-.18,1.04-.38,2.09-.73,3.14-1.07.2-.07.41-.13.61-.19.2-.06.41-.13.61-.19.17-.05.34-.1.51-.16.86-.25,1.72-.49,2.58-.72.21-.06.41-.11.62-.16.21-.05.41-.1.62-.16.21-.05.42-.1.63-.15l.63-.14c.31-.07.61-.14.92-.2.11-.03.22-.05.33-.07.2-.04.39-.08.59-.11.43-.09.87-.17,1.3-.24.32-.06.63-.11.95-.16.16-.03.33-.05.49-.08.15-.03.31-.05.46-.07.43-.06.85-.12,1.28-.17.22-.03.44-.05.65-.07.2-.03.41-.05.61-.06.22-.03.44-.04.66-.06.47-.33.98-.6,1.51-.8,0,0,0,0,0,0,.34-.12.68-.22,1.03-.3.14-.03.29-.06.43-.08.07-.01.14-.02.22-.03.08-.01.17-.02.25-.03.02,0,.04,0,.07,0,.09-.01.18-.02.27-.02.2-.01.4-.02.6-.02.06,0,.13,0,.19,0,.05,0,.09,0,.14,0,.08,0,.16,0,.23.01.18,0,.35.02.53.04.03,0,.05,0,.07,0,.27.03.54.07.82.12.19.04.38.08.57.12.09.02.19.04.29.07.1.03.19.05.29.08.1.02.19.05.29.08.1.03.19.06.29.09h0c.09.03.19.06.28.1.09.03.18.06.27.1.19.08.39.15.58.23.09.04.19.08.28.12h0c.26.11.51.24.76.37.11.06.23.12.34.18.09.05.18.1.27.15.18.1.36.2.53.31.04.03.09.05.13.08.11.07.22.14.33.21.11.07.21.14.32.22h0c.08.06.17.12.25.18h0c.13.09.25.19.37.28.04.03.08.06.12.09.06.05.12.1.18.15.1.08.2.16.29.25.24.2.46.41.68.62.07.07.14.14.22.21h0c.07.08.14.15.21.22.14.15.28.29.41.44.07.08.13.15.19.23.19.23.38.47.55.7.05.07.11.14.15.22.18.26.35.53.5.79.04.07.08.14.12.22.1.18.19.36.28.54.03.07.07.15.1.22.11.26.21.52.3.79.05.15.09.3.14.46.03.12.06.23.08.34.02.09.04.18.06.27.02.09.03.18.04.27.02.09.03.18.04.27,0,.05.01.1.01.14,0,.06.01.11.02.17.08,1.1-.09,2.22-.56,3.33-.35.54-.74,1.03-1.16,1.47-.08.09-.17.18-.25.26-.17.17-.35.33-.53.48s-.36.3-.55.44c-.07.05-.14.11-.21.16l-.22.15c-.15.1-.29.19-.44.28-.2.12-.41.24-.61.35-.29.16-.59.3-.89.43-.31.13-.62.25-.93.37-.21.08-.43.15-.64.21-.33.1-.65.19-.98.28-.22.06-.45.11-.67.16-.11.03-.23.05-.34.07-.23.05-.45.09-.68.13-.98.17-1.99.29-3,.39-.51.04-1.01.09-1.52.13h0c-.64.04-1.27.08-1.9.13h0c-.63.04-1.26.08-1.88.12h0c-.25.02-.49.04-.74.06-.37.03-.73.06-1.1.1h0c-.24.02-.48.05-.71.08s-.47.06-.7.09c-.12.01-.23.03-.35.05-.23.03-.46.07-.68.11-1.6.18-3.22.4-4.83.68-3.23.55-6.46,1.3-9.55,2.26h0c-1.16.36-2.3.74-3.41,1.16-.37.14-.74.28-1.11.43-.22.06-.45.12-.68.19-.22.06-.44.13-.67.21-.12.04-.23.08-.35.12l-.35.13c-.12.04-.24.09-.36.13-.12.04-.24.09-.36.14-.36.14-.73.29-1.1.46-.13.05-.25.11-.38.17-.25.11-.51.23-.76.35-.03.01-.06.03-.08.04-.23.11-.46.22-.69.34-.03.02-.06.03-.1.05-.36.18-.72.36-1.09.56-.27.14-.54.28-.81.43-.14.08-.27.15-.41.23-.41.22-.82.46-1.24.7-.19.11-.39.23-.59.34-.22.13-.45.26-.67.4-.28.17-.57.34-.85.51-.14.09-.29.18-.43.26-.21.13-.43.26-.65.4l-.44.28c-.36.23-.73.46-1.09.69-.44.28-.88.57-1.33.86-.15.09-.3.19-.45.29-1.64,1.08-3.3,2.21-4.98,3.36-.28.19-.55.38-.83.57-1.1.76-2.2,1.52-3.3,2.28-.76.53-1.53,1.06-2.29,1.59-.3.21-.61.42-.91.63-.31.21-.61.42-.91.63-.15.1-.3.21-.45.31-.3.21-.61.41-.91.62-.6.41-1.2.81-1.8,1.21h0c-.3.2-.59.39-.89.59-1.03.69-2.06,1.36-3.06,1.99-.14.09-.29.18-.43.27-.86.54-1.7,1.06-2.52,1.55h0c-.41.24-.82.48-1.23.72-.13.08-.27.16-.41.23-.13.07-.27.15-.4.22-.27.15-.53.29-.79.43-.13.07-.26.14-.39.21-.65.34-1.28.66-1.9.96-.05.03-.11.05-.16.08-.07.03-.14.07-.21.1-.24.11-.49.22-.73.33t0,0c-.12.05-.24.1-.36.15-.36.15-.71.29-1.05.42-.07.03-.13.05-.2.08-.05.02-.1.04-.14.05-.21.08-.42.15-.63.22-.01,0-.03.01-.04.01-.19.06-.38.12-.57.18-.5.15-.99.27-1.46.36-.09.02-.19.03-.28.05-.28.05-.54.08-.81.11-.17.02-.34.03-.5.03h-.02c-.08,0-.17,0-.25,0-.63,0-1.21-.08-1.75-.24Z" fill="#fff"/><path d="M252.91,354.77c-.32-1.29-.58-2.59-.86-3.89-.49-2.19-.98-4.37-1.46-6.56-1.33-5.98-2.67-11.97-4-17.95-1.35-6.05-2.7-12.1-4.05-18.16-.25-1.13.39-2.3,1.54-2.6,1.1-.28,2.34.4,2.6,1.54,1.36,6.11,2.73,12.23,4.09,18.35,1.33,5.96,2.66,11.93,3.99,17.9.48,2.16.96,4.32,1.44,6.48.26,1.18.5,2.37.78,3.54.01.04.03.09.04.13l.03.16c.25,1.14-.38,2.3-1.54,2.6-.17.04-.34.07-.51.07-.95,0-1.84-.65-2.08-1.6Z"/><path d="M254.42,354.78c-.73-2.03.92-2.68,2.4-3.44,2.16-1.53,3.49-3.92,4.68-6.22,3.42-7.03,6.55-14.64,6.02-22.61-.44-4.77-1.83-11.43-7.38-12.42-4.65-.86-9.61-1.31-14.28-.94-1.46.38-3.2-.37-3.17-2.06,0-1.18,1.01-2.17,2.18-2.13,3.14-.3,6.3-.28,9.44.03,6.29.44,12.3,1.32,15.13,7.76,3.8,8.09,2.65,17.51-.35,25.66-2.02,4.95-3.94,10.16-7.44,14.28-1.15,1.24-3.38,3.36-5.24,3.36-.76,0-1.45-.36-1.99-1.27Z"/><path d="M283.53,330.77c-12.51-1.94-16.07-16.23-15.26-27.1-.07-6.71,4.07-14.48,11.38-15.03,6.41-.56,11.79,4.64,15.07,9.61,2.36,3.71,3.75,7.99,4.01,12.38.24,5.52-.34,20.6-8.01,20.33-.25.18-.5.29-.79.36-.6.16-1.2.23-1.81.23-1.54,0-3.1-.43-4.59-.77ZM276.6,294.2c-4.96,4.15-4.46,11.66-3.74,17.4,1.08,9.51,5.61,15.01,15.45,15.68.23,0,.45-.06.66-.13-.07.02-.14.04-.21.06.46-.18.99-.17,1.44,0,4.98-2.07,4.92-16.96,3.38-21.38-1.63-5.23-6.95-12.94-12.89-12.94-1.34,0-2.72.39-4.09,1.3Z"/><path d="M304.25,317.14c-2.75-.72-3.24-4.26-4.73-6.34-1.92-3.59-3.83-7.18-5.75-10.77-1.88-3.53-3.78-7.04-6-10.37-1.78-1.4-1.16-4.42,1.36-4.2,2.41.74,3.17,3.84,4.62,5.69,3.42,5.87,6.43,11.98,9.69,17.94.03-3.92-.22-7.83-.25-11.75-.09-1.28.18-2.85,1.52-3.39,2.24-.91,3.74,1.44,4.62,3.14,1.31,2.28,2.6,4.56,4.01,6.78-.73-7.91-1.66-15.82-2.33-23.74-.26-2.66-.59-5.3-.96-7.95-.16-1.15.68-2.25,1.83-2.4,3.54-.18,2.47,5.24,3.14,7.56.76,9.83,2.27,19.61,2.68,29.45.08,1.91-.81,4.6-3.19,4.18-3.58-1.19-4.89-5.5-6.93-8.36-.35,3.35,1.85,14.52-3.11,14.52-.08,0-.16,0-.24,0Z"/><path d="M320.08,304.64c-1.04-10.42-1.73-20.88-2.79-31.3-.15-1.26-.33-2.51-.54-3.76-.21-1.22-.77-2.75.28-3.76.78-.74,1.95-.83,2.82-.18,1.11.87.82,2.48,1.2,3.7,1.56,11.52,2.03,23.15,3.27,34.71.18,1.52-1.01,2.38-2.18,2.38-.95,0-1.88-.56-2.05-1.8Z"/><path d="M335.27,292.02c-.75-.19-1.18-.8-1.57-1.41-1.9-2.8-3.9-5.53-5.89-8.27-2.9-4.02-5.81-8.04-8.82-11.98-.66-1.21-2.04-2.1-2.13-3.55.08-2.49,3.27-2.82,4.31-.72,3.4,4.56,6.8,9.12,10.1,13.75,2.26,3.1,4.42,6.07,6.41,9.04.91,1.37-.33,3.23-1.84,3.23-.19,0-.38-.03-.57-.09Z"/><path d="M335.44,290.22c-1.4-12.91-1.95-26-4.78-38.69.01-2.66,3.99-2.85,4.26-.2,2.07,8.12,2.54,16.52,3.45,24.83.46,4.49.88,8.99,1.3,13.49.11,1.16-.64,2.24-1.83,2.4-.09.01-.18.02-.27.02-1.03,0-2.03-.78-2.13-1.84Z"/><path d="M345.29,288.59c-2.84-1.47-1.97-6.75-2.68-9.54-1.11-10.2-2.3-20.4-3.78-30.55-.19-2.25-1.11-4.76-.51-6.97.62-1.72,3.3-1.69,3.93,0,1.84,13.93,3.67,27.96,5.19,41.97,1.46-1.16,2.8-2.4,4.22-3.61,1.42-1.16,3.2-3.69,5.11-1.89.8.8.85,2.22,0,3.02-2.42,1.78-7.33,7.72-10.63,7.72-.3,0-.59-.05-.86-.16Z"/><path d="M352.41,237.13c4.23-8.37,11.81-6.99,15.78.81,4.89,8.75,9.21,37.16-5.8,37.64-11.72-.59-9.59-29.73-9.98-38.45ZM358.54,236.14c-3.23,2.3-1.48,6.85-1.75,10.2.41,5.14-.38,24.66,6.38,24.99,7.23-2.25,5.29-16.4,4.28-22.25-.59-3.3-3.31-13.28-7.53-13.28-.44,0-.9.11-1.38.35Z"/><path d="M352.4,237.16s0,0,0,0c0,0,0,0,0,0Z"/><path d="M352.41,237.12h0s0,0,0,0c0,0,0,0,0,0h0s0,0,0,.01c0,0,0,0,0,0h0s0,.01,0,.02c0,0,0,0,0,0,0-.01,0-.02,0-.04ZM352.41,237.12s0,0,0,0c0,0,0,0,0,0Z"/><path d="M374.73,259.04c-.05-11.08-1.02-22.16-.97-33.24.14-1.04,1.05-1.86,2.12-1.86,2.44.08,2.14,2.6,2.12,4.35.22,10.25.91,20.49,1,30.75,0,1.39-1.07,2.09-2.13,2.09s-2.12-.69-2.14-2.09Z"/><path d="M389.88,251.31c-4.38-6.84-8.57-13.79-12.68-20.8-.97-1.98-3.22-4.01-2.82-6.31.81-2.24,3.79-1.77,4.27.45,1.83,3.14,3.83,6.19,5.61,9.36,2.87,5.19,6.22,10.08,9.31,15.14.94,1.66-.49,3.21-1.94,3.21-.65,0-1.3-.31-1.74-1.05Z"/><path d="M377.4,246.71c-2.29-1.15-1.37-4,.97-4.31,1.29-.65,2.53-1.38,3.7-2.17.84-.53,1.64-1.36,2.72-1.19,1.8.18,2.53,2.77,1.01,3.81-.46.31-.92.63-1.34.92-1.89,1-4.02,3.04-6.25,3.04-.27,0-.54-.03-.82-.1Z"/><path d="M393.88,246.33c-3.24-9.16-5.85-18.72-8.97-27.88-.75-2.67-2.48-5.33-2.56-8.1.34-2.53,4.17-2.37,4.25.22,3.63,9.74,6.51,19.74,9.69,29.63.36,2.28,3.23,5.71.38,7.26-.26.11-.54.16-.82.16-.84,0-1.69-.47-1.98-1.3Z"/><path d="M395.21,248c-2.21-2.62,2.27-4.56,3.22-6.8,6.13-8.76,7.42-20.1-3.7-25.25-2.3-1.18-4.71-2.12-7.26-2.61-.89-.19-1.8-.26-2.68-.47-1.6-.39-2.18-2.6-.9-3.67,2.21-1.73,10.69,1.82,13.09,3.12,7.7,3.39,12.08,12.22,9.94,20.38-.41,2.92-6.22,15.83-10.37,15.83-.47,0-.92-.17-1.34-.53Z"/><path d="M310.77,106.51c-9.09-4.09,30.62-21.89,34.13-24.82,2.73-.9,8.58-6.97,10.67-3.51,1.49,3.35-6.23,5.2-8.27,7.05-7.79,4.54-16.11,8.79-23.83,13.24-3.22,1.9-6.3,4.08-9.04,6.2-.92.75-1.65,1.99-2.88,1.99-.24,0-.49-.05-.77-.15Z"/><path d="M66.78,306.14c-.78-.91-.61-2.22.24-3.01,5.96-5.54,12.37-10.54,18.47-15.91,5.77-5.16,11.48-10.38,17.27-15.53,2.32-2.11,4.63-4.23,7.01-6.27.37-.44.89-.73,1.48-.73,1.25-.08,2.36,1.03,2.25,2.29-.11,1.3-1.36,1.97-2.23,2.78-4.67,4.18-9.31,8.39-13.99,12.56-5.84,5.36-11.75,10.63-17.87,15.66-3.26,2.74-6.5,5.51-9.62,8.4-.37.35-.85.51-1.34.51-.63,0-1.26-.27-1.67-.75Z"/><path d="M76.27,375.19c-.45-.38-.68-.88-.76-1.45-.32-2.08-.57-4.17-.83-6.26-.47-3.84-.95-7.67-1.42-11.51-2.21-16.96-4.94-33.96-5.83-51.03.78-2.46,4.31-1.64,4.19.72,1.25,12.12,2.06,24.29,4.07,36.32,1.23,8.1,2.13,16.24,3.15,24.36.29,2.33.56,4.67.91,7,.19,1.31-1.01,2.33-2.2,2.33-.46,0-.91-.15-1.29-.49ZM69.4,307.7c.49.01,1.02-.13,1.4-.46-.39.29-.88.46-1.4.46Z"/><path d="M427.14,125.57c.14-2.77,4.46-2.5,4.26.26-.07,1.32-1.09,1.95-2.11,1.95-1.13,0-2.26-.76-2.15-2.21Z"/><path d="M375.7,99.4c.15-2.77,4.46-2.5,4.26.26-.07,1.32-1.09,1.95-2.11,1.95-1.13,0-2.26-.76-2.15-2.21Z"/><path d="M324.6,75.95c.15-2.77,4.46-2.5,4.26.26-.07,1.32-1.09,1.95-2.11,1.95-1.12,0-2.26-.76-2.16-2.21Z"/><path d="M138.58,351.06c.15-2.77,4.46-2.5,4.26.26-.07,1.32-1.09,1.95-2.11,1.95-1.12,0-2.26-.76-2.16-2.21Z"/><path d="M93.88,318.34c.15-2.77,4.46-2.5,4.26.26-.07,1.32-1.09,1.95-2.11,1.95-1.12,0-2.26-.76-2.16-2.21Z"/><path d="M57.63,288.62c.15-2.77,4.46-2.5,4.26.26-.07,1.32-1.09,1.95-2.11,1.95-1.12,0-2.26-.76-2.16-2.21Z"/></svg>