<?xml version="1.0" encoding="UTF-8"?><svg id="a" xmlns="http://www.w3.org/2000/svg" viewBox="0 0 1024 2048"><rect x="723.05" y="1074.56" width="35.26" height="410.44" fill="#ff4343"/><rect x="699.41" y="1154.58" width="81.94" height="26.42" fill="#ff4343"/><rect x="693" y="1018.91" width="25.3" height="162.16" fill="#ff4343"/><rect x="753.87" y="1076.86" width="25.3" height="97.03" fill="#ff4343"/><rect x="788.17" y="1042.07" width="25.3" height="119.04" fill="#ff4343"/><rect x="331" y="1213.95" width="359.61" height="47.38" fill="#e2e2e2"/><polygon points="604.8 1194.5 476.6 1195.3 476.8 1155.39 605 1154.58 604.8 1194.5" fill="#e2e2e2"/><polygon points="639.82 1163.99 477.47 1164.02 477 1147 639.35 1146.97 639.82 1163.99" fill="#e2e2e2"/><rect x="495" y="1130.52" width="55.3" height="21.86" fill="#e2e2e2"/><polygon points="642.6 1114.47 529.58 1115.04 530.13 1082.3 643.14 1081.72 642.6 1114.47" fill="#e2e2e2"/><polygon points="701.09 1275.04 681.47 1255 511.4 1261.33 341.33 1255 321.71 1275.04 304.5 1289.24 304.5 1714.2 317.54 1715.87 331 1731.73 501.8 1731.73 521 1731.73 691.8 1731.73 705.26 1715.87 718.3 1714.2 718.3 1289.24 701.09 1275.04" fill="#ff4343"/><polygon points="379.34 1782.5 379.34 1935.97 335.47 1935.97 331 1945 321.79 1953.5 313 1962 304.5 1968.68 304.5 2003.72 366.45 2003.72 379.34 2001.87 379.34 2003.72 461.12 2003.72 461.12 1782.5 379.34 1782.5" fill="#ff4343"/><polygon points="646.66 1782.5 646.66 1935.97 690.53 1935.97 695 1945 704.21 1953.5 713 1962 721.5 1968.68 721.5 2003.72 659.55 2003.72 646.66 2001.87 646.66 2003.72 564.88 2003.72 564.88 1782.5 646.66 1782.5" fill="#ff4343"/><path d="M530,1098c.03-5.09-.01-10.22-.04-15.31.2-.66,2.26-1.69,2.54-1.69h16c2.7,1.79,1.67,16.04.36,16.86-6.26.31-12.59.1-18.86.14-.03,5.65.02,11.35,0,17h19.99v30.5l-1.5,1.5h-17.5v-15l-18-1c-.04,5.32.03,10.68,0,16h-18v33.5l-1.5,1.5h-16.5v-35h17v-16h19c.08-10.99-.06-22.02,0-33.01,5.65-.02,11.35.04,17.01,0Z"/><path d="M277,1502h18v222h19c.37,1.08-1,2.19-1,2.5v30.5h18v-17h362c.03,5.65-.04,11.35,0,17-5.65.04-11.35-.03-17,0v18h-327v-16.5l-1.5-1.5h-15.5c-.06,11.32.08,22.68,0,34-12.32-.06-24.68.08-37,0-.04-5.65.03-11.35,0-17h-18v17c5.98.03,12.01-.04,18,0,.08,11.32-.06,22.69,0,34.01-5.97.18-12.04-.26-18.01,0-.05-5.32.04-10.68,0-16h-17v-85h17c.38-73.98-.51-148.02,0-222Z" fill="#ff4343"/><path d="M623,1147c.07-10.67-.45-21.41.47-32.06l18.46-.91c1.67,1.6,1.27,28.47,1.07,32.97-6.65.05-13.35-.04-20,0Z" fill="#fff"/><path d="M623,1147c-.04,5.65.04,11.35,0,17-5.99.04-12.01-.02-18,0,0-5.65,0-11.35,0-17.01,5.99-.02,12.02.04,18.01,0Z" fill="#fff"/><path d="M277,1502c-.51,73.98.38,148.02,0,222h-17v85h17c.04,5.32-.05,10.68,0,16-5.71.24-11.94,1.85-18,1v-17h-16v-86h16v-221h18Z"/><path d="M693,1757c6.32-.05,12.68.03,19,0v-31.5c0-.3-1.27-.77-1-1.5h18v-222h18c-.04-5.65.03-11.35,0-17h-18v-117h17.5l1.33-1.64-.86-17.9,1.04-15.46h-19v-52c-.73-.27-1.2,1-1.5,1h-15.5v-17h-19v17h18l1.01,51.49c-.47,1.5-2.22-.49-2.51-.49h-170.5v15.5c0,.26,1.43,1.34.99,2.49-1.16.43-2.23-.99-2.49-.99h-53.5v-17h-171v-51h16.5l1.5-1.5v-15.5h359.5c.3,0,.77,1.27,1.5,1v-18h20v-34h-19v16.5c-.7,1.21-4.02,1.5-5.5,1.5h-119c-2.65-4.53-1.52-12.4-1.5-18-5.33.05-12.75-1.19-17,1.5v15c-5.54,3.76-13.54-.2-20,1.5v17c-.73.27-1.2-1-1.5-1h-71.5v-34h20v18c.73.27,1.2-1,1.5-1h51.5c-.02-5.65.03-11.35,0-16h-35v-17c-6.32-.04-12.68.03-19,0v-16h-19v16h-126c-.03,5.32.04,10.68,0,16,34.5-.2,69.04.19,103.55-.05l3.45,1.55v16.5h-107.01c.04-5.98-.04-12.01,0-18-6.32.04-12.68-.03-19,0v34h19v16.5c-1.39,2.27-2.15.5-2.5.5h-16.5l.05,16.54-17.05-.54v52h-18v35h18v117h-18c-.03,5.65.04,11.35,0,17h18v222h19c.37,1.08-1,2.19-1,2.5v30.5h18v-17h362c.03,5.65-.04,11.35,0,17ZM333.5,1723c-.31,0-1.42,1.37-2.5,1v-17h-18v-274h18v17h18v18h99.5c2.99-4.69,1.5-12.7.5-18h18v35h15.5l1.5-1.5v-33.5h37v-17h-37v-17h15v-34h23v34l17-1c-.11,23.31.17,46.69,0,70,5.99-.04,12.01.03,18,0v-35h17v18h101v-18h18v-17h18v274h-18l1,16h-360.5Z"/><path d="M692,1214v-16h-87v-16h-18v17c-.73.27-1.2-1-1.5-1h-18.5c-.01,5.32.02,10.68,0,16,41.64-.4,83.36.3,125,0Z"/><path d="M487.45,1484.95c-1.46.17-2.57.12-3.45,1.55v15.5h55c.03-5.65-.04-11.35,0-17-15.56.1-36.84-1.78-51.55-.05Z"/><path d="M495,1198v-16h55v33h-20c-.03-6.32.02-11.68,0-17-11.65-.04-23.35.07-35.01,0Z"/><path d="M295,1791c-5.99-.04-12.02.03-18,0v-17h18c.03,5.65-.04,11.35,0,17,12.32.08,24.68-.06,37,0-.04,5.65.03,11.35,0,17h-19v34h-36c-.04-5.65.06-11.35,0-17,5.97-.25,12.03.18,18.01,0-.07-11.32.07-22.69,0-34.01Z"/><path d="M712,1962c-.08,2.67-.96,4.95-1.04,7.46-.26,8.49.28,17.05.04,25.54h-139v-204h71v154c16.65.07,33.35-.09,50,0-.05-5.98.04-12.02,0-18h-34v-136c10.22-.03,20.49.02,30.72,0,1.04-1.38,2.13-2.73,3.27-4.04-.03-9.98.08-19.99.01-29.96-5.65.04-11.35-.03-17,0v18h-327v-16.5l-1.5-1.5h-15.5c-.06,11.32.08,22.68,0,34,10.98.05,22.02-.04,33,0v136h-35c1.75,5.5,1.01,12.11,1,18,16.98-.1,34.02.07,51,0v-154h70v204h-139v-33h18c0-5.65,0-11.35,0-17-6.32.04-12.68-.03-19,0v17h-17v50h173v-221h88v221h173v-50c-5.65-.03-11.35.04-17,0Z"/><path d="M693,1945c6.32.04,12.69-.02,19.01,0-.13,5.65.17,11.36,0,17.01-6.32-.04-12.69.03-19.01,0-.03-5.65.06-11.35,0-17.01Z"/><path d="M623,1164c-.04,5.65.03,11.35,0,17h-18v-17c5.99-.02,12.01.04,18,0Z"/><path d="M605,1164c-18.65.07-37.35-.05-56,0,.59-2.11-.86-17,1.5-17h53.5v-31.5c-6.24-3.21-15.42-.77-22.5-.73-10.48.06-20.94-.93-31.51-.76.65-4.52-.59-9.7-.58-13.96,0-1.17.07-1.29,1.09-2.04h54.5v17h14.5c.54,0,2.22-1.55,3.5-1v-16h-17v-17h-56l-.76-14.54,1.26-1.46h72.5v17l19.06-.56c1.73,1.2,1.29,13.95-.06,16.56h16.5l1.5,1.5v47.5c-5.65.03-11.35-.04-17,0,.2-4.5.6-31.38-1.07-32.97l-18.46.91c-.92,10.65-.4,21.4-.47,32.06-5.99.04-12.02-.03-18.01,0,0,5.65,0,11.35,0,17.01Z"/><path d="M643,1147c-.03.57-.92,1.99-1.01,3.45-.27,4.49.2,9.07.01,13.56-6.32.02-12.68-.04-19.01,0,.04-5.65-.04-11.35,0-17,6.65-.04,13.35.05,20,0Z"/><path d="M366,1554c-5.65-.04-11.35.03-17,0v-19h-18v-33h18v-17h35v34h-19c.28,9.82-.36,19.73-.04,29.55.07,2.05.96,3.88,1.04,5.45,10.32.07,20.68-.05,31,0v-17.5c-3.18-3-8.85-.93-13-1.5v-15l5.45-1.05c83.51.45,167.05-.43,250.55.05.09-11.32-.06-22.68,0-34h35v18h18v32h-18v19h-16v-35c-6.32-.03-12.68.04-19,0-.04,5.32.03,10.68,0,16.01h-13.01s0,18.99,0,18.99h29.5c2.46,3.61,2.43,12.51,0,16h-45.5v-35h-38v32.5c0,.31-.95.62-.98,1l.98,1.01c.69,1.12,1.14-.51,1.5-.51h35l1.5,1.5v16.5h-199v-17h-46c-.19-5.3.26-10.71,0-16ZM413,1535v35h40.05v-35h-40.05ZM503.5,1535h-34.5v34h34.5c.53,0,1.6,2.66,1.53-.52-.06-2.63-1-5.09-1.08-7.94-.22-7.8-.4-16.38.94-23.97l-1.39-1.58ZM557,1535h-36v34h33.5c.31,0,.62.95,1,.98l1.01-.98c1.12-.69-.51-1.14-.51-1.5v-30c0-.31,1.37-1.42,1-2.5Z"/><path d="M430,1621c-4.65-.03-9.34.03-14-.01l.94-16.52,13.06-.47c.04,5.65-.07,11.35,0,17.01,53.5.4,107.04-.26,160.55-.05l3.45,1.55v15.5h-163.99c-.06-5.65.05-11.35,0-17Z"/><path d="M608,1604v17c-4.74-.66-11.24,1.61-15-1.5v-15.5h15Z"/><rect x="413" y="1535" width="40.05" height="35" fill="#fff"/><path d="M503.5,1535l1.39,1.58c-1.34,7.59-1.15,16.17-.94,23.97.08,2.85,1.02,5.31,1.08,7.94.07,3.18-1,.52-1.53.52h-34.5v-34h34.5Z" fill="#fff"/><path d="M557,1535c.37,1.08-1,2.19-1,2.5v30c0,.36,1.63.81.51,1.5l-1.01.98c-.38-.04-.69-.98-1-.98h-33.5v-34h36Z" fill="#fff"/><rect x="573" y="1535" width="38" height="34" fill="#fff"/><path d="M150.68,258.25v-70.26h70.26v10.04h-50.18v20.07h40.15v10.04h-40.15v20.07h50.18v10.04h-70.26Z" fill="#f3f3f3"/><path d="M230.97,258.25v-70.26h70.26v10.04h-50.18v20.07h40.15v10.04h-40.15v30.11h-20.07Z" fill="#f3f3f3"/><path d="M311.27,258.25v-70.26h70.26v10.04h-50.18v20.07h40.15v10.04h-40.15v30.11h-20.07Z" fill="#f3f3f3"/><path d="M391.56,258.25v-70.26h70.26v10.04h-50.18v20.07h40.15v10.04h-40.15v20.07h50.18v10.04h-70.26Z" fill="#f3f3f3"/><path d="M481.89,258.25v-10.04h-10.04v-50.18h10.04v-10.04h50.18v10.04h10.04v10.04h-20.07v-10.04h-30.11v50.18h30.11v-10.04h20.07v10.04h-10.04v10.04h-50.18Z" fill="#f3f3f3"/><path d="M572.22,258.25v-60.22h-20.07v-10.04h60.22v10.04h-20.07v60.22h-20.07Z" fill="#f3f3f3"/><path d="M652.52,258.25v-70.26h20.07v70.26h-20.07Z" fill="#f3f3f3"/><path d="M742.85,258.25v-10.04h-10.04v-10.04h-10.04v-10.04h-10.04v-40.15h20.07v40.15h10.04v10.04h10.04v-10.04h10.04v-40.15h20.07v40.15h-10.04v10.04h-10.04v10.04h-10.04v10.04h-10.04Z" fill="#f3f3f3"/><path d="M793.03,258.25v-70.26h70.26v10.04h-50.18v20.07h40.15v10.04h-40.15v20.07h50.18v10.04h-70.26Z" fill="#f3f3f3"/><path d="M173.13,369.35v-45.62h13.03v6.52h6.52v6.52h6.52v-6.52h6.52v-6.52h13.03v45.62h-13.03v-26.07h-6.52v6.52h-6.52v-6.52h-6.52v26.07h-13.03Z" fill="#f3f3f3"/><path d="M231.78,369.35v-6.52h-6.52v-39.1h13.03v39.1h19.55v-39.1h13.03v39.1h-6.52v6.52h-32.58Z" fill="#f3f3f3"/><path d="M283.91,369.35v-6.52h-6.52v-6.52h13.03v6.52h19.55v-13.03h-26.07v-6.52h-6.52v-13.03h6.52v-6.52h32.58v6.52h6.52v6.52h-13.03v-6.52h-19.55v13.03h26.07v6.52h6.52v13.03h-6.52v6.52h-32.58Z" fill="#f3f3f3"/><path d="M342.56,369.35v-39.1h-13.03v-6.52h39.1v6.52h-13.03v39.1h-13.03Z" fill="#f3f3f3"/><path d="M433.8,369.35v-45.62h39.1v6.52h6.52v19.55h-6.52v6.52h-26.07v13.03h-13.03ZM466.38,349.8v-19.55h-19.55v19.55h19.55Z" fill="#f3f3f3"/><path d="M485.94,369.35v-45.62h39.1v6.52h6.52v19.55h-6.52v13.03h6.52v6.52h-13.03v-6.52h-6.52v-6.52h-13.03v13.03h-13.03ZM518.52,349.8v-19.55h-19.55v19.55h19.55Z" fill="#f3f3f3"/><path d="M544.59,369.35v-6.52h-6.52v-32.58h6.52v-6.52h32.58v6.52h6.52v32.58h-6.52v6.52h-32.58ZM570.65,362.84v-32.58h-19.55v32.58h19.55Z" fill="#f3f3f3"/><path d="M590.2,369.35v-45.62h39.1v6.52h6.52v32.58h-6.52v6.52h-39.1ZM622.79,362.84v-32.58h-19.55v32.58h19.55Z" fill="#f3f3f3"/><path d="M648.86,369.35v-6.52h-6.52v-39.1h13.03v39.1h19.55v-39.1h13.03v39.1h-6.52v6.52h-32.58Z" fill="#f3f3f3"/><path d="M700.99,369.35v-6.52h-6.52v-32.58h6.52v-6.52h32.58v6.52h6.52v6.52h-13.03v-6.52h-19.55v32.58h19.55v-6.52h13.03v6.52h-6.52v6.52h-32.58Z" fill="#f3f3f3"/><path d="M746.61,369.35v-45.62h45.62v6.52h-32.58v13.03h26.07v6.52h-26.07v13.03h32.58v6.52h-45.62Z" fill="#f3f3f3"/><path d="M75.37,431.91v-6.52h-6.52v-32.58h6.52v-6.52h32.58v6.52h6.52v32.58h-6.52v6.52h-32.58ZM101.44,425.4v-32.58h-19.55v32.58h19.55Z" fill="#f3f3f3"/><path d="M127.51,431.91v-6.52h-6.52v-39.1h13.03v39.1h19.55v-39.1h13.03v39.1h-6.52v6.52h-32.58Z" fill="#f3f3f3"/><path d="M186.16,431.91v-39.1h-13.03v-6.52h39.1v6.52h-13.03v39.1h-13.03Z" fill="#f3f3f3"/><path d="M231.78,431.91v-6.52h-6.52v-6.52h13.03v6.52h19.55v-13.03h-26.07v-6.52h-6.52v-13.03h6.52v-6.52h32.58v6.52h6.52v6.52h-13.03v-6.52h-19.55v13.03h26.07v6.52h6.52v13.03h-6.52v6.52h-32.58Z" fill="#f3f3f3"/><path d="M290.43,431.91v-45.62h13.03v45.62h-13.03Z" fill="#f3f3f3"/><path d="M329.53,431.91v-13.03h6.52v-6.52h6.52v-6.52h6.52v-6.52h6.52v-6.52h-19.55v6.52h-6.52v-13.03h39.1v13.03h-6.52v6.52h-6.52v6.52h-6.52v6.52h-6.52v6.52h19.55v-6.52h6.52v13.03h-39.1Z" fill="#f3f3f3"/><path d="M381.67,431.91v-45.62h45.62v6.52h-32.58v13.03h26.07v6.52h-26.07v13.03h32.58v6.52h-45.62Z" fill="#f3f3f3"/><path d="M433.8,431.91v-45.62h39.1v6.52h6.52v32.58h-6.52v6.52h-39.1ZM466.38,425.4v-32.58h-19.55v32.58h19.55Z" fill="#f3f3f3"/><path d="M538.07,431.91v-45.62h39.1v6.52h6.52v19.55h-6.52v13.03h6.52v6.52h-13.03v-6.52h-6.52v-6.52h-13.03v13.03h-13.03ZM570.65,412.36v-19.55h-19.55v19.55h19.55Z" fill="#f3f3f3"/><path d="M590.2,431.91v-45.62h45.62v6.52h-32.58v13.03h26.07v6.52h-26.07v13.03h32.58v6.52h-45.62Z" fill="#f3f3f3"/><path d="M648.85,431.91v-6.52h-6.52v-6.52h13.03v6.52h19.55v-13.03h-26.07v-6.52h-6.52v-13.03h6.52v-6.52h32.58v6.52h6.52v6.52h-13.03v-6.52h-19.55v13.03h26.07v6.52h6.52v13.03h-6.52v6.52h-32.58Z" fill="#f3f3f3"/><path d="M700.99,431.91v-6.52h-6.52v-39.1h13.03v39.1h19.55v-39.1h13.03v39.1h-6.52v6.52h-32.58Z" fill="#f3f3f3"/><path d="M753.12,431.91v-45.62h13.03v39.1h26.07v6.52h-39.1Z" fill="#f3f3f3"/><path d="M811.77,431.91v-39.1h-13.03v-6.52h39.1v6.52h-13.03v39.1h-13.03Z" fill="#f3f3f3"/><path d="M857.39,431.91v-6.52h-6.52v-6.52h13.03v6.52h19.55v-13.03h-26.07v-6.52h-6.52v-13.03h6.52v-6.52h32.58v6.52h6.52v6.52h-13.03v-6.52h-19.55v13.03h26.07v6.52h6.52v13.03h-6.52v6.52h-32.58Z" fill="#f3f3f3"/><path d="M909.53,431.91v-13.03h13.03v13.03h-13.03Z" fill="#f3f3f3"/><polygon points="670.02 714.48 668.98 714.48 635.02 714.48 633.98 714.48 600.02 714.48 598.98 714.48 597.58 714.48 597.58 562.59 426.18 562.59 426.18 714.48 425.02 714.48 423.98 714.48 390.02 714.48 388.98 714.48 355.02 714.48 320.02 714.48 320.02 748.45 355.02 748.45 355.02 782.42 390.02 782.42 390.02 816.39 425.02 816.39 425.02 850.36 460.02 850.36 460.02 884.33 495.02 884.33 495.02 918.3 528.98 918.3 528.98 884.33 530.02 884.33 563.98 884.33 563.98 850.36 565.02 850.36 598.98 850.36 598.98 816.39 600.02 816.39 633.98 816.39 635.02 816.39 635.02 782.42 664.82 782.42 668.98 782.42 668.98 748.45 670.02 748.45 703.98 748.45 703.98 714.48 670.02 714.48" fill="#f3f3f3"/><rect x="549" y="1098" width="55" height="17.5"/><rect x="531.36" y="1197.5" width="55" height="17.5"/><rect x="750.11" y="1182" width="16.41" height="303.54"/><rect x="711.59" y="1185.06" width="16.41" height="303.54"/><rect x="800.82" y="1031.29" width="16.41" height="130.8"/><rect x="771.99" y="1031.29" width="16.41" height="130.8"/><rect x="683" y="1011.98" width="16.41" height="169.42"/><rect x="711.59" y="1011.98" width="16.41" height="155.82"/><rect x="743.51" y="1069.28" width="16.41" height="95.44"/><rect x="727.5" y="1154" width="16.41" height="72.59" transform="translate(1926 454.59) rotate(90)"/><rect x="773.15" y="1163.56" width="16.41" height="18.71" transform="translate(1954.27 391.57) rotate(90)"/><rect x="767.67" y="1172.74" width="16.41" height="18.71" transform="translate(1957.97 406.22) rotate(90)"/><rect x="786.29" y="1155.36" width="16.41" height="18.71" transform="translate(1959.21 370.23) rotate(90)"/><rect x="771.99" y="1042.07" width="16.41" height="120.02"/><rect x="698.82" y="996.42" width="13.37" height="44.99" transform="translate(1724.41 313.41) rotate(90)"/><rect x="738.27" y="1042.6" width="16.41" height="69.76" transform="translate(1823.95 331.01) rotate(90)"/><rect x="723.98" y="1107.34" width="16.41" height="98.35" transform="translate(1888.69 424.34) rotate(90)"/><rect x="788.59" y="1014.91" width="11.8" height="44.99" transform="translate(1831.9 242.92) rotate(90)"/></svg>