<?xml version="1.0" encoding="UTF-8"?><svg id="a" xmlns="http://www.w3.org/2000/svg" viewBox="0 0 500 500"><path d="M174.54,348.17c-7.76-21.15-11.41-43.68-15.75-65.74-11.46-46,7.6-49.63,48.03-42.31,17.04,2.83,33.98,6.21,50.85,9.86,8.18,2.14,17.31,2.58,24.47,7.41,6.66,4.57,7.51,14.51,1.7,20.14-16.86,15.04-55.12,3.99-75.62.2,3.07,4,15.39,24.1,9.4,27.13-1.4.44-3.05-.36-3.45-1.81-6.32-27.64-24.95-29.08-17.87-33.89,14.59,2.87,86.43,23.6,85.81-2.71-1.01-10.23-46.92-14.25-57.6-17.61-16.36-1.6-48.06-13.03-60.7-.65-8.77,9.18,7.14,61.96,9.42,76.69,1.53,7.85,5.06,15.62,6.42,23.23-.77,2.3-4.34,2.37-5.13.05Z"/><path d="M239.49,368.02c1.06-3.56,5.64-1.69,8.37-2.42,7.92-1.12,15.94-2.2,23.5-4.94,20.5-9.29,29.08-34.39,27.33-55.56-.29-2.58-.73-5.14-1.32-7.67-.68-3.47,4.82-4.48,5.43-.95,6.51,27.79-6.69,65.11-37.05,71.61-6.84,1.48-13.78,2.78-20.77,3.24-2.45.19-6.1.13-5.47-3.35,0,0-.01.04-.01.04Z"/><path d="M181.48,238.74s0,.04.01.06c0,0,0,.01,0,.02,0-.01,0-.02,0-.03,0,0,0,.01,0,.02,0,0,0,0,0,.01-.03-.14-.06-.23-.07-.29,0-.02,0-.04-.01-.06,0,.04.02.08.03.11,0,.02.01.05.02.07,1.22-16.53.3-33.57.55-50.07.63-22.48,1.42-44.97,2.88-67.41.55-7.66.63-15.46,2.67-22.92,4.1-15.01,18.48-15.26,22.94-.27,3.69,12.75,2.52,26.27,2.25,39.37-.75,23.97-1.32,47.49-.46,71.39.11,3.55-5.31,3.87-5.5.24-.66-17.6-.49-35.47-.03-52.99.03-15.83,1.74-31.59.27-47.38-1.02-16.2-11.64-24.94-15.27-3.63-2.71,28.1-3.34,56.47-4.26,84.66-.31,16,.96,32.26-.61,48.18-.02-.18-.03-.35-.08-.52.89,3.46-4.36,4.85-5.3,1.42Z"/><path d="M241.9,249.3c2.41-18.08,7.06-36.45,6.14-54.6-.7-4.64-1.65-14.18-8.4-11.86-5.52,1.34-10.77,3.59-15.76,6.27-4.08,2.21-8.07,4.6-12.2,6.74-2.06,1.6-5.16-.76-4.17-3.2.35-1.05,1.42-1.58,2.24-2,9.05-5,17.98-10.58,28.14-13.05,15.42-4.41,16.52,17.11,15.68,27.53-1.02,14.92-3.99,29.64-6.14,44.38.03-.18.05-.35.08-.53,0,4.28-5.64,4.4-5.61.31Z"/><path d="M217.08,216.7c-2.47-1.25-1.53-5.17,1.16-5.22,3.24-.69,9.68-6.68,11.83-2.45,1.4,4.12-4.66,4.75-7.16,6.4-1.81.71-3.87,2.24-5.83,1.27Z"/><path d="M223.96,243.72c1.12-11.27,1.47-22.62,2.98-33.85.63-2.71-.13-6.38,2.18-8.33,2.77-1.53,5.11,1.37,3.89,4.03-1.87,12.81-2.32,25.75-3.56,38.63-.36,3.55-5.76,3.13-5.49-.48Z"/><path d="M270.88,254.85c2.57-9.03,5.25-18.03,7.73-27.09,2.62-10.25,5.96-20.71,5.17-31.4-.1-4.4-2.69-8.3-7.53-6.63-5.42,1.37-10.55,3.57-15.75,5.58-2.31.92-4.62,1.86-6.82,3.01-.9.67-2.05.97-3.15.38-2.18-1.16-1.73-4.31.48-5.18,6.15-3.08,12.67-5.39,19.12-7.75,6.41-2.6,14.99-3.19,17.93,4.53,4.6,16.27-4.15,36.65-8.04,52.71-1.26,4.35-2.54,8.69-3.78,13.05-.33,1.44-1.83,2.44-3.29,2.09-1.41-.31-2.5-1.84-2.09-3.29ZM253.56,198.39c.27-.18.48-.44.64-.72-.18.28-.4.52-.64.72Z"/><path d="M253.98,250.14c2.23-12.25,3.82-24.66,6.55-36.81.95-3.76,6.57-2.22,5.35,1.5-1.44,5.05-1.94,10.36-2.95,15.51-1.17,7-2.39,13.99-3.57,20.99-.78,3.48-6.08,2.36-5.37-1.2Z"/><path d="M248.12,224.98c-1.47-4.18,4.23-4.45,6.95-5.16,2.72-.29,7.45-2.73,8.44,1.22.55,4.49-7.13,3.47-9.72,4.7-1.91.53-4.62,1.74-5.67-.76Z"/><path d="M293.18,274.94c-2.35-1.31-1.22-3.83-.2-5.64,1.42-3.18,2.54-6.56,2.51-10.08.42-11.42-6.72-19.65,1.31-30.25,11.71-20,25.87-38.32,35.54-59.4,2.01-4.06,11.97-28.35,2.81-26.84-5.33,3.78-8.08,10.24-12.06,15.29-4.6,6.57-9.05,13.34-13.26,20.15-4.56,7.35-9.12,14.74-13.31,22.31-2.07,2.87-5.91,12.26-8.8,12.96-1.79.33-3.33-1.2-3.22-2.95,12.72-23.24,27.2-46.69,43.06-68.32,9.77-11.99,19.56-1.71,16.28,10.8-6.09,25.8-22.9,47.21-36.54,69.32-2.94,5.32-7.13,10.2-8.85,16.06-.51,2.91.53,5.78,1.13,8.6,1.71,7.27,2.32,15.17-.61,22.22-1.13,2.45-2.18,7.37-5.81,5.75Z"/><path d="M296.72,296.06c.51-5.51-.67-11.2-2.59-16.32-.56-1.41-1.05-2.9-2.02-4.1-.89-.81-1.36-2.05-.92-3.22.76-2.2,4-2.47,5.06-.39,4.73,7.02,6.46,16.14,5.95,24.51-.36,3.56-5.76,3.12-5.49-.48Z"/><path d="M195.4,367.4c-7.77-3.81-14.44-9.77-19.29-16.92-1.04-1.96-3.08-4.02-2.47-6.39-.02.08-.05.17-.07.25.77-3.09,5.02-2.68,5.52.36,2.54,4.73,6.21,8.76,10.23,12.27,6.95,5.8,15.68,8.62,24.22,11.19,18.44,6.33,32.46-3.56,37.16-21.68,1.24-3.35,6.37-1.48,5.16,1.92-3.82,13.49-11.46,23.39-25.59,26.75-12.07,1.91-23.92-3.22-34.86-7.74Z"/><path d="M199.75,366.19c.95-3.08,5.66-2.07,5.36,1.05-1.31,8.81-3.62,17.49-6.63,25.87.69.28,1.4.51,2.11.7-.31.15-.61.31-.92.47-.61.35-1.21.72-1.79,1.13-.36.28-.72.57-1.05.89-.22.22-.43.45-.63.69-.13.18-.26.36-.37.54-.05.09-.1.18-.14.27-.13-.05-.25-.11-.37-.16-2.62-1.57-3.05-4.73-1.68-7.31,2.78-8,4.77-15.57,6.02-23.78,0,0,0,0,0,0,.05-.27.14-.54.27-.78-.02.03-.04.06-.05.09-.04.11-.09.22-.14.34Z"/><path d="M260.33,370.07c.32,8.1,2.17,16.58-.01,24.52-.87,2.79-3.1,3.66-5.61,3.99,0-.02,0-.04-.01-.05-.03-.11-.06-.22-.1-.32-.06-.14-.12-.28-.19-.42-.1-.17-.2-.33-.31-.49-.19-.24-.39-.47-.59-.7-.27-.27-.56-.53-.86-.77-.34-.26-.69-.51-1.04-.74-.21-.14-.42-.27-.64-.4-.75-.43-1.53-.81-2.32-1.17,2.13-.17,4.26-.35,6.38-.53,1.89-7.32.07-15.07-.18-22.52-.24-3.58,5.19-3.99,5.49-.4Z"/><path d="M220.98,141.55c.85-12.72,2-25.42,2-38.18.1-1.62-.45-3.49.63-4.87.87-1.22,2.77-1.3,3.87-.4,1.9,1.76.67,6.02.97,8.49-.12,11.7-1.23,23.36-1.97,35.02-.12,3.58-5.54,3.53-5.51-.07Z"/><path d="M224.84,101.61c-1.37-.82-1.79-2.86-.69-4.08,0,0,0,0-.01,0,2.48-2.99,17.63.04,21.84.46,3.54.57,2.78,5.94-.79,5.45-5.88-.96-11.82-1.62-17.78-1.66-.81.35-1.8.3-2.56-.17Z"/><path d="M225.42,116.07c.21-1.62,1.97-2.72,3.5-2.24,4.33.58,9.31.94,13.52,1.34,4.34-.55,5.49,5.15,1.08,5.6-4.52-.35-9.04-.79-13.55-1.26-2.1-.02-4.95-.77-4.55-3.43Z"/><path d="M254.18,149.81c-7.45-6.26-4.49-17.34-3.33-25.7.95-5.83,2.13-11.6,3.39-17.37.75-2.25.27-5.01,1.75-6.92.84-.8,1.97-.91,3.01-.52,3.48,1.52.24,8.39.02,11.32-.8,6.06-10.42,39.51,2.78,35.03,5.75-5.58,7.06-14.76,8.91-22,1.23-5.8,2.27-11.64,3.1-17.51.21-1.48,1.64-2.55,3.12-2.33,1.49.21,2.54,1.63,2.33,3.12-.55,3.91-1.18,7.8-1.92,11.67-2.37,10.62-6.55,40.88-23.16,31.2ZM256.79,104.33c.4.16.81.25,1.23.22-.41.01-.82-.07-1.23-.22Z"/><path d="M276.03,151.6c3.3-14.67,7.9-29.05,11.02-43.75.93-2.22,4.27-2.19,5.11.07.34,3.15-1.14,6.36-1.6,9.5-3.09,11.89-6.49,23.7-9.23,35.68-.98,3.43-6.21,2-5.3-1.5ZM290.75,111.43c.6-.27,1.08-.76,1.35-1.36-.27.58-.74,1.07-1.35,1.36Z"/><path d="M299.07,157.3c-1.68-.99-1.44-3.1-1.74-4.77-.35-2.59-.73-5.16-1.14-7.38-2.44-12.13-4.9-24.27-7.8-36.29-1.24-2.84,1.47-6.06,4.29-4.04.77.55,1.09,1.5.99,2.41,1.22,5.08,2.42,10.17,3.43,15.3,1.67,8.12,3.6,16.2,4.99,24.38,5.23-11.29,11.04-22.34,15.64-33.91,1.44-3.27,6.43-1.13,5.04,2.21-2.83,7.33-6.34,14.39-9.71,21.48-2.38,4.99-4.72,10.01-7.16,14.97-1.4,2.47-3.18,7.52-6.82,5.65Z"/><path d="M338.86,145.72h0s-.06.05-.06.05l-.11.09-.11.1-.11.1-.11.1-.11.11-.11.11-.11.11-.11.12-.11.12-.11.12-.11.13-.12.13-.12.14-.12.14-.12.14-.12.15-.12.15-.12.15-.13.16-.13.16-.13.17-.14.18-.14.18-.15.19-.15.2-.16.21-.16.21-.17.22-.18.23-.18.25-.19.25-.2.27-.2.27-.21.29-.22.3-.22.31-.23.31-.24.32-.24.34-.24.34-.24.34-.24.35-.23.35-.23.35-.23.34-.22.34-.21.33-.2.32-.2.31-.19.31-.19.31-.18.31-.18.3-.18.29-.18.3-.18.3-.18.31-.19.32-.19.32-.19.33-.19.33-.19.34-.19.35-.2.35-.19.35-.18.34-.18.33-.17.33-.17.33-.16.32-.16.31-.15.3-.14.29-.14.28-.14.29-.14.29-.14.29-.14.29-.15.31-.16.32-.17.34-.18.36-.18.38-.2.39-.2.42-.22.44-.23.47-.24.49-.26.52-.26.53-.27.55-.27.55-.27.55-.26.54-.26.52-.25.5-.24.49-.23.47-.23.46-.22.44-.21.42-.2.41-.2.4-.2.4-.2.4-.2.41-.2.4-.2.4-.2.41-.21.42-.21.42-.21.42-.2.41-.2.4-.2.4-.2.39-.2.39-.19.37-.18.36-.17.33-.16.32-.16.31-.15.28-.14.27-.13.25-.12.23-.12.21-.11.2-.1.19-.1.18-.09.17-.08.16-.08.15-.08.15-.08.15-.08.15-.08.15-.08.15-.08.15-.08.15-.08.15-.08.15-.08.15-.08.15-.08.15-.08.14-.08.14-.08.15-.07.14-.07.14-.08.14-.07.15-.07.15-.08.15-.08.15-.08.15-.08.16-.08.17-.09.18-.09.18-.09.19-.09.2-.1.2-.1.22-.11.22-.11.23-.12.24-.12.25-.13.26-.14.27-.14.29-.15.3-.15.32-.17.33-.17.35-.18.38-.2.4-.21.42-.22.45-.24.48-.25.52-.27.55-.29.59-.31.63-.33.66-.34.69-.36.73-.37.76-.39.79-.41.84-.42.86-.43.86-.43.88-.44.89-.44.89-.45.9-.44.88-.42.85-.42.84-.4.81-.4.8-.4.8-.39.78-.38.76-.39.77-.4.78-.41.8-.43.84-.44.85-.45.87-.47.9-.49.95-.52.99-.54,1.03-.54,1.03-.52,1-.49.94-.4.77-.21.4-.02.05,4.86-2.95c-.77,1.27-1.53,2.55-2.29,3.84-.87,1.15-1.56,2.27-2.1,3.37l-.15-.3-.22-.41-.24-.41-.25-.41-.27-.41-.28-.39-.29-.38-.31-.37-.32-.34-.33-.33-.35-.31-.36-.29-.36-.26-.36-.24-.36-.21-.37-.2-.37-.17-.36-.15-.37-.14-.38-.13-.37-.11-.37-.1-.37-.09-.37-.08-.36-.08-.36-.07-.35-.06-.36-.05-.36-.05-.25-.03c1.15-4.07,2.24-8.22,3.06-12.35,2.85-1.12,6.55-10.1,8.57-12.89,4.19-7.58,8.75-14.97,13.31-22.31,4.21-6.81,8.66-13.58,13.26-20.15,3.99-5.06,6.73-11.51,12.06-15.29,2.29-.38,3.39.86,3.71,2.99Z" fill="#f6da7e"/><path d="M298.69,305.1c1.74,21.18-6.84,46.27-27.33,55.56-3.14,1.14-6.36,1.99-9.62,2.67-4.58.97-9.25,1.61-13.89,2.26-.34.09-.72.14-1.11.17,3.15-3.41,5.57-7.54,7.39-12.23.64-1.65,1.21-3.36,1.72-5.14,1.21-3.4-3.93-5.27-5.16-1.92-.3,1.16-.64,2.29-1.02,3.38-5.51,15.94-18.89,24.23-36.15,18.3-2.61-.78-5.23-1.59-7.81-2.5-.44-.16-.88-.31-1.31-.47-.58-.58-1.42-.89-2.23-.85-4.61-1.85-9.01-4.15-12.86-7.36-4.02-3.51-7.7-7.54-10.23-12.27-.07-.46-.23-.86-.45-1.2-1.65-6.13-4.15-12.35-5.37-18.62-2.29-14.73-18.19-67.51-9.42-76.69,12.64-12.38,44.33-.95,60.7.65,1.87.58,4.82,1.19,8.42,1.85h.01c12.33,2.26,32.27,5.1,42.56,9.73h0c3.87,1.74,6.37,3.73,6.6,6.03.2,8.51-7.2,12.1-17.78,12.96-13.27,1.08-31.55-2.13-46.18-5.29-9.76-2.1-17.9-4.19-21.85-4.97-4.46,3.03,1.29,4.72,7.73,12.49h0c1.44,1.74,2.92,3.79,4.33,6.22h.01c2.27,3.94,4.35,8.88,5.79,15.18.4,1.44,2.05,2.25,3.45,1.81,1.47-.74,1.84-2.51,1.51-4.82l.61.74h.08s.7.1.7.1l1.21.16,1.4.18,1.47.18,1.48.18,1.46.17,1.46.17,1.43.16,1.37.16,1.3.15,1.23.15,1.18.15,1.14.15,1.1.15,1.05.15.99.15.94.15.92.15.92.15.92.15.9.14.9.13.92.12.93.11.98.09,1.03.07,1.07.04h1.11s1.15-.02,1.15-.02l1.2-.07,1.25-.11,1.28-.15,1.27-.17,1.25-.19,1.22-.21,1.16-.21,1.11-.21,1.04-.21.96-.19.88-.18.81-.17.75-.15.69-.14.64-.13.6-.12.55-.11.52-.1.48-.1.45-.09.41-.08.39-.08.36-.07.33-.07.31-.07.29-.07.27-.07.26-.07.25-.07.24-.07.23-.08.22-.08.21-.09.2-.09.2-.1.2-.11.19-.11.18-.12.18-.12.18-.12.18-.13.18-.15.18-.15.18-.16.17-.17.17-.17.17-.18.17-.18.16-.19.16-.19.16-.2.16-.21.15-.21.16-.23.15-.24.14-.24.14-.25.13-.26.12-.27.11-.28.11-.28.1-.29.09-.3.08-.3.06-.32.05-.32.04-.33.03-.33v-.33s.02-.33.02-.33v-.33s-.03-.34-.03-.34l-.04-.35-.05-.34-.07-.34-.08-.34-.1-.34-.11-.34-.12-.33-.14-.33-.15-.33-.16-.33-.18-.32-.21-.33-.22-.32-.24-.32-.25-.31-.27-.31-.29-.31-.31-.31-.32-.3-.34-.3-.35-.3-.37-.29-.4-.3-.42-.3-.44-.29-.45-.29-.47-.29-.04-.02c4.24-1.21,8-3.08,11.06-5.81,5.23-5.07,5.07-13.64.12-18.62l.06-.02.51-.18.5-.19.5-.19.5-.2.49-.2.47-.21.45-.21.44-.21.43-.22.42-.23.41-.23.4-.24.39-.25.37-.25.37-.26.36-.27.35-.29.35-.3.34-.31.33-.32.32-.33.32-.35.31-.36.3-.37.28-.37.26-.38.25-.39.24-.4.07-.12c.49,2.57.87,5.25.76,8.14.02,3.51-1.09,6.9-2.51,10.08-.33.58-.67,1.23-.89,1.89-.39.3-.71.71-.89,1.22-.44,1.17.02,2.42.92,3.22.96,1.2,1.45,2.69,2.02,4.1,1.91,5.12,3.1,10.81,2.59,16.32-.07.99.28,1.74.84,2.23.5,2.25.87,4.52,1.13,6.81Z" fill="#f6da7e"/><path d="M213.04,390.19l.2.06c-1.73.26-3.44.58-5.12.99-1.82.45-3.62.98-5.37,1.65-.72.29-1.44.6-2.14.94-.71-.19-1.42-.42-2.11-.7,2.57-7.17,4.64-14.56,5.99-22.06.2.08.41.15.61.23l-.09.78-.1,1.16-.09,1.13-.07,1.07-.05,1-.03.93v.87s-.01.82-.01.82l.02.77.04.72.05.67.07.63.09.58.11.55.13.52.14.5.16.46.19.44.21.42.23.39.25.37.26.34.28.33.3.31.31.28.32.27.34.25.34.24.35.22.35.21.36.2.37.19.39.19.38.18.38.17.39.16.39.15.39.14.39.13.4.12Z" fill="#f6da7e"/><path d="M255.77,382.56c.2,3.52.12,7.02-.76,10.43-2.13.18-4.25.36-6.38.53-.08-.04-.17-.08-.26-.12h-.02c-1.56-.68-3.17-1.21-4.52-1.6-2.39-.67-4.82-1.17-6.98-1.5-2.12-.32-4.26-.55-6.4-.69l.12-.02.57-.1.55-.1.52-.09.51-.09.49-.08.48-.08.47-.07.46-.07.45-.06.44-.05.44-.05.43-.04.43-.04.42-.03.41-.03.41-.02.4-.02.4-.02.4-.02.39-.02.39-.02.38-.02.37-.02.36-.02.35-.02.34-.02.33-.02.33-.02.31-.02.31-.03.3-.03.29-.04.29-.04.27-.04.28-.04.28-.05.27-.05.27-.06.27-.06.27-.06.26-.07.27-.07.27-.08.27-.08.28-.09.28-.1.3-.11.31-.12.34-.14.35-.15.36-.16.38-.18.39-.2.4-.21.4-.22.4-.23.39-.22.37-.22.36-.22.36-.22.35-.22.34-.21.32-.21.3-.2.29-.2.28-.19.27-.19.26-.18.24-.18.23-.17.22-.17.07-.05Z" fill="#f6da7e"/><path d="M278.61,227.76c-2.3,8.43-4.78,16.8-7.19,25.2-3.93-.99-8.01-1.61-11.92-2.52,1.13-6.7,2.3-13.39,3.42-20.09.46-2.35.82-4.74,1.2-7.12.1-.63.21-1.26.32-1.9l.04-.09.14-.28.14-.27.14-.28.14-.28.14-.28.14-.29.14-.3.14-.3.14-.31.14-.31.15-.33.15-.35.16-.36.16-.37.16-.39.17-.41.17-.43.18-.45.18-.46.17-.47.16-.48.16-.49.15-.5.15-.51.14-.52.13-.52.11-.52.1-.53.09-.53.08-.54.06-.54.04-.53.02-.51v-.5s-.04-.48-.04-.48l-.06-.47-.08-.45-.11-.42-.13-.38-.15-.36-.17-.34-.19-.32-.21-.3-.23-.29-.25-.26-.27-.25-.3-.23-.32-.21-.35-.19-.38-.17-.41-.14-.43-.1-.46-.06-.49-.03h-.51s-.52.06-.52.06l-.52.09-.53.12-.53.15-.53.17-.53.18-.55.2-.57.22-.6.23-.62.25-.65.27-.69.29-.71.3-.73.31-.74.32-.74.32-.06.03s0-.02,0-.03c.16-1.97.25-4.34.18-6.85,2.18-1.14,4.47-2.07,6.75-2.98,5.2-2.01,10.33-4.22,15.75-5.58,4.84-1.68,7.43,2.23,7.53,6.63.72,9.81-2.03,19.42-4.51,28.85-.22.85-.45,1.7-.66,2.55Z" fill="#f6da7e"/><path d="M201.6,238.76l.69.57c-5.59-.93-10.72-1.61-15.38-1.94,1.51-15.78.26-31.88.57-47.74.92-28.19,1.55-56.56,4.26-84.66,2.88-16.85,10.11-14.91,13.52-5.36l-.1.35-.29,1.04-.27,1-.25.97-.23.94-.21.92-.2.88-.18.85-.16.82-.15.79-.14.77-.13.76-.11.73-.1.7-.09.68-.09.65-.08.64-.07.62-.06.6-.05.58-.04.55-.03.54-.02.53v.51s-.02.51-.02.51v.49s.01.48.01.48l.02.47.03.48.04.48.05.48.05.48.06.48.07.48.07.48.08.49.08.49.08.49.08.48.09.48.09.49.08.49.09.47.08.47.09.46.08.46.08.47.08.46.08.46.08.45.08.44.08.44.09.46.09.46.09.46.08.47.09.47.08.47.08.48.08.49.07.49.07.48.07.48.06.48.05.5.05.5.04.49.04.48.03.47.03.47.02.48.02.48v.48s.03.47.03.47v.47s.01.47.01.47v.48s0,.49,0,.49v.49s0,.49,0,.49v.5s0,.5,0,.5v.52s0,.53,0,.53v.53s0,.52,0,.52v.52s0,.51,0,.51v.52s-.01.51-.01.51v.5s-.03.5-.03.5l-.02.49-.02.47-.02.47-.03.45-.03.44-.03.42-.03.41-.03.39-.03.38-.03.38-.04.36-.04.36-.04.35-.04.35-.04.35-.04.35-.04.34-.04.33-.04.33-.04.33-.04.33-.04.33-.04.32-.04.31-.04.31-.04.31-.03.31-.04.32-.04.31-.04.31-.03.31-.04.31-.04.32-.04.32-.04.32-.05.32-.04.32-.05.32-.05.33-.06.34-.05.33-.06.33-.06.33-.06.33-.06.33-.06.33-.06.33-.06.33-.07.33-.06.33-.07.33-.06.34-.07.34-.07.34-.07.35-.07.36-.07.36-.07.37-.07.38-.07.39-.07.4-.07.4-.07.41-.07.41-.07.42-.07.42-.07.43-.07.44-.07.45-.07.45-.07.45-.07.45-.07.45-.07.45-.06.46-.07.47-.06.48-.06.48-.05.47-.05.47-.05.47-.05.46-.04.46-.04.44-.03.42-.03.42-.02.41-.02.41-.02.4v.38s-.03.38-.03.38v.37s-.02.36-.02.36v.35s0,.35,0,.35v.35s0,.34,0,.34v.34s.01.34.01.34v.34s.02.34.02.34v.34s.02.33.02.33v.32s.02.32.02.32v.33s.02.32.02.32v.31s.02.3.02.3v.29s.02.29.02.29v.29s.02.29.02.29v.29s.02.28.02.28v.27s.02.28.02.28v.28s.02.28.02.28v.27s.02.27.02.27v.26s.02.26.02.26v.25s.02.25.02.25v.25s.03.25.03.25l.02.24v.23s.03.23.03.23l.02.23.02.22v.22s.03.22.03.22l.02.22.02.22.02.22.02.22.02.22.03.22.02.22.02.22.02.21.02.21.02.2.02.21.02.2.02.2.02.2.02.19.02.19v.19s.03.19.03.19l.02.19v.19s.03.19.03.19l.02.18v.18s.03.18.03.18v.17s.03.18.03.18v.17s.02.17.02.17v.16s.03.16.03.16v.16s.02.16.02.16v.16s.02.16.02.16v.16s.02.16.02.16v.15s.02.15.02.15v.15s.02.15.02.15v.15s.02.15.02.15v.14s.02.14.02.14v.14s.02.14.02.14v.14s.02.14.02.14v.14s.03.14.03.14v.13s.03.13.03.13l.02.13.02.13.02.12.02.12.02.12.03.12.02.12.03.12.03.12.03.12.03.11.03.11.03.11.03.11.03.11.02.07-1.09-.12-1.09-.07-1.05-.02-1.01.04-.97.08-.92.14-.82.18-.72.22-.65.26-.57.29-.5.32-.42.34-.34.35-.27.36-.22.36-.16.37-.12.37-.09.38-.07.38-.05.39-.04.42-.04.45-.04.48-.04.52-.04.55-.04.6-.04.64-.04.69-.04.74-.04.79-.03.85-.02.91v.97s.04,1.03.04,1.03l.07,1.07.12,1.11.19,1.09.26,1.06.33,1.03.4.98.47.94.54.9.59.85.65.8.7.78.75.77.81.78.87.8.93.82.98.84,1.03.87,1.09.91Z" fill="#f6da7e"/><path d="M246.61,219.32c-1.26,9.16-3.04,18.32-4.35,27.41-4.27-.87-8.53-1.72-12.81-2.54.92-9.62,1.41-19.28,2.38-28.88.23-2.31.49-4.61.79-6.91v-.02s.07-.15.07-.15l.06-.15.06-.15.06-.15.06-.15.06-.16.06-.16.06-.16.07-.17.07-.17.07-.17.06-.17.07-.18.06-.18.06-.18.07-.19.06-.19.06-.2.06-.2.07-.21.06-.21.06-.22.06-.22.07-.23.06-.24.06-.25.06-.26.06-.27.06-.28.06-.29.05-.29.05-.3.05-.31.04-.31.04-.32.03-.31.02-.31v-.31s0-.31,0-.31l-.02-.31-.03-.31-.04-.29-.06-.28-.07-.27-.09-.26-.1-.24-.11-.23-.13-.21-.14-.19-.15-.16-.16-.14-.17-.12-.18-.09-.17-.07-.18-.05-.18-.03h-.17s-.17-.02-.17-.02h-.17s-.16.03-.16.03l-.16.02-.17.03-.17.03-.18.04-.19.04-.19.04-.2.05-.21.05-.22.06-.23.06-.24.07-.25.07-.26.08-.27.09-.29.1-.3.1-.32.11-.34.12-.36.13-.38.14-.4.15-.42.16-.44.17-.47.18-.5.2-.53.21-.56.22-.6.25-.64.26-.68.28-.72.31-.76.33-.8.35-.85.38-.9.39-.92.41-.9.41-.86.39-.75.35-.45.21-.07.03.33,7.45-.39-.11-1.2-.33-.86-.24c.27-.42.42-.94.4-1.57-.16-4.36-.26-8.71-.33-13.05,4.03-2.1,7.93-4.44,11.93-6.6,5-2.68,10.24-4.93,15.76-6.27,6.75-2.32,7.7,7.22,8.4,11.86.42,8.18-.3,16.4-1.43,24.62Z" fill="#f6da7e"/><path d="M279.04,295.16l-.1.29-.11.28-.11.28-.12.27-.13.26-.14.25-.14.24-.15.24-.16.23-.15.21-.16.21-.16.2-.16.19-.16.19-.17.18-.17.18-.17.17-.17.17-.18.16-.18.15-.18.15-.18.13-.18.12-.18.12-.18.12-.19.11-.2.11-.2.1-.2.09-.21.09-.22.08-.23.08-.24.07-.25.07-.26.07-.27.07-.29.07-.31.07-.33.07-.36.07-.39.08-.41.08-.45.09-.48.1-.52.1-.55.11-.6.12-.64.13-.69.14-.75.15-.81.17-.88.18-.96.19-1.04.21-1.11.21-1.16.21-1.22.21-1.25.19-1.27.17-1.28.15-1.25.11-1.2.07-1.15.03h-1.11s-1.07-.04-1.07-.04l-1.03-.07-.98-.09-.93-.11-.92-.12-.9-.13-.9-.14-.92-.15-.92-.15-.92-.15-.94-.15-.99-.15-1.05-.15-1.1-.15-1.14-.15-1.18-.15-1.23-.15-1.3-.15-1.37-.16-1.43-.16-1.46-.17-1.46-.17-1.48-.18-1.47-.18-1.4-.18-1.21-.16-.7-.09h-.08s-.61-.76-.61-.76c-1-7.1-8.59-19.29-10.91-22.31,16.78,3.1,45.46,11.07,64.56,5.61l.04.02.47.29.45.29.44.29.42.3.4.3.37.29.35.3.34.3.32.3.31.31.29.31.27.31.25.31.24.32.22.32.21.33.18.32.16.33.15.33.14.33.12.33.11.34.1.34.08.34.07.34.05.34.04.35.02.34v.33s0,.33,0,.33v.33s-.04.33-.04.33l-.04.33-.05.32-.06.32-.08.3-.09.3Z" fill="#e0b72f"/><path d="M255.77,382.56l-.07.05-.22.17-.23.17-.24.18-.26.18-.27.19-.28.19-.29.2-.3.2-.32.21-.34.21-.35.22-.36.22-.36.22-.37.22-.39.22-.4.23-.4.22-.4.21-.39.2-.38.18-.36.16-.35.15-.34.14-.31.12-.3.11-.28.1-.28.09-.27.08-.27.08-.27.07-.26.07-.27.06-.27.06-.27.06-.27.05-.28.05-.28.04-.27.04-.29.04-.29.04-.3.03-.31.03-.31.02-.33.02-.33.02-.34.02-.35.02-.36.02-.37.02-.38.02-.39.02-.39.02-.4.02-.4.02-.4.02-.41.02-.41.03-.42.03-.43.04-.43.04-.44.05-.44.05-.45.06-.46.07-.47.07-.48.08-.49.08-.51.09-.52.09-.55.1-.57.1-.12.02c-1.11-.08-2.22-.13-3.34-.17-.09,0-.17,0-.26,0-.67-.02-1.34-.02-2.02-.02-2.79,0-5.58.14-8.35.42-1.08.12-2.17.25-3.25.42l-.2-.06-.4-.12-.39-.13-.39-.14-.39-.15-.39-.16-.38-.17-.38-.18-.39-.19-.37-.19-.36-.2-.35-.21-.35-.22-.34-.24-.34-.25-.32-.27-.31-.28-.3-.31-.28-.33-.26-.34-.25-.37-.23-.39-.21-.42-.19-.44-.16-.46-.14-.5-.13-.52-.11-.55-.09-.58-.07-.63-.05-.67-.04-.72-.02-.77v-.82s.01-.87.01-.87l.03-.93.05-1,.07-1.07.09-1.13.1-1.16.09-.78c8.11,3.01,16.58,5.21,25.17,3.86,3.96-.94,7.41-2.4,10.41-4.3,1.16.61,2.92.59,4.3.48,3.3-.22,6.58-.61,9.86-1.14,0,.09,0,.19,0,.28.13,3.98.71,8.05.94,12.09Z" fill="#e0b72f"/><path d="M233.39,206.48l-.06.17-.07.17-.07.17-.07.17-.06.16-.06.16-.06.16-.06.15-.06.15-.06.15-.06.15-.06.15v.02c.11-.94.24-1.89.38-2.83,1.23-2.67-1.11-5.56-3.89-4.03-1.7,1.43-1.74,3.8-1.89,6.02-2.83.33-6.7,3.44-8.98,3.92-.4,0-.76.1-1.07.26-1.82.9-2.2,3.9-.09,4.96,1.96.97,4.02-.55,5.83-1.27.87-.58,2.19-1.03,3.46-1.56.02,0,.05-.02.07-.03,0,.02,0,.03,0,.05-.23,2.01-.42,4.03-.6,6.04-.68,7.73-1.08,15.49-1.84,23.22-5.72-1.07-11.45-2.09-17.19-3.04-1.54-.28-3.05-.54-4.53-.79l-.69-.57-1.09-.91-1.03-.87-.98-.84-.93-.82-.87-.8-.81-.78-.75-.77-.7-.78-.65-.8-.59-.85-.54-.9-.47-.94-.4-.98-.33-1.03-.26-1.06-.19-1.09-.12-1.11-.07-1.07-.04-1.03v-.97s.02-.91.02-.91l.03-.85.04-.79.04-.74.04-.69.04-.64.04-.6.04-.55.04-.52.04-.48.04-.45.04-.42.05-.39.07-.38.09-.38.12-.37.16-.37.22-.36.27-.36.34-.35.42-.34.5-.32.57-.29.65-.26.72-.22.82-.18.92-.14.97-.08,1.01-.04,1.05.02,1.09.07,1.09.12-.02-.07-.03-.11-.03-.11-.03-.11-.03-.11-.03-.11-.03-.12-.03-.12-.03-.12-.02-.12-.03-.12-.02-.12-.02-.12-.02-.12-.02-.13-.02-.13-.02-.13v-.13s-.03-.14-.03-.14v-.14s-.03-.14-.03-.14v-.14s-.02-.14-.02-.14v-.14s-.02-.14-.02-.14v-.14s-.02-.15-.02-.15v-.15s-.02-.15-.02-.15v-.15s-.02-.15-.02-.15v-.15s-.02-.16-.02-.16v-.16s-.02-.16-.02-.16v-.16s-.02-.16-.02-.16v-.16s-.02-.16-.02-.16v-.16s-.03-.17-.03-.17v-.17s-.03-.18-.03-.18v-.17s-.03-.18-.03-.18v-.18s-.03-.18-.03-.18l-.02-.19v-.19s-.03-.19-.03-.19l-.02-.19v-.19s-.04-.19-.04-.19l-.02-.19-.02-.2-.02-.2-.02-.2-.02-.21-.02-.2-.02-.21-.02-.21-.02-.22-.02-.22-.03-.22-.02-.22-.02-.22-.02-.22-.02-.22-.02-.22-.02-.22v-.22s-.03-.22-.03-.22l-.02-.23-.02-.23v-.23s-.03-.24-.03-.24v-.25s-.03-.25-.03-.25v-.25s-.02-.25-.02-.25v-.26s-.02-.26-.02-.26v-.27s-.02-.27-.02-.27v-.28s-.02-.28-.02-.28v-.28s-.02-.27-.02-.27v-.28s-.02-.29-.02-.29v-.29s-.02-.29-.02-.29v-.29s-.02-.29-.02-.29v-.3s-.02-.31-.02-.31v-.32s-.02-.33-.02-.33v-.32s-.02-.32-.02-.32v-.33s-.02-.34-.02-.34v-.34s-.02-.34-.02-.34v-.34s-.01-.34-.01-.34v-.34s0-.35,0-.35v-.35s0-.35,0-.35v-.36s.02-.37.02-.37v-.38s.03-.38.03-.38l.02-.4.02-.41.02-.41.03-.42.03-.42.04-.44.04-.46.05-.46.05-.47.05-.47.05-.47.06-.48.06-.48.07-.47.06-.46.07-.45.07-.45.07-.45.07-.45.07-.45.07-.45.07-.44.07-.43.07-.42.07-.42.07-.41.07-.41.07-.4.07-.4.07-.39.07-.38.07-.37.07-.36.07-.36.07-.35.07-.34.07-.34.06-.34.07-.33.06-.33.07-.33.06-.33.06-.33.06-.33.06-.33.06-.33.06-.33.06-.33.05-.33.06-.34.05-.33.05-.32.04-.32.05-.32.04-.32.04-.32.04-.32.04-.31.03-.31.04-.31.04-.31.04-.32.03-.31.04-.31.04-.31.04-.31.04-.32.04-.33.04-.33.04-.33.04-.33.04-.33.04-.34.04-.35.04-.35.04-.35.04-.35.04-.36.04-.36.03-.38.03-.38.03-.39.03-.41.03-.42.03-.44.03-.45.02-.47.02-.47.02-.49v-.5s.03-.5.03-.5v-.51s.01-.52.01-.52v-.51s0-.52,0-.52v-.52s0-.53,0-.53v-.53s0-.52,0-.52v-.5s0-.5,0-.5v-.49s0-.49,0-.49v-.49s0-.48,0-.48v-.47s-.01-.47-.01-.47v-.47s-.03-.48-.03-.48l-.02-.48-.02-.48-.03-.47-.03-.47-.04-.48-.04-.49-.05-.5-.05-.5-.06-.48-.07-.48-.07-.48-.07-.49-.08-.49-.08-.48-.08-.47-.09-.47-.08-.47-.09-.46-.09-.46-.09-.46-.08-.44-.08-.44-.08-.45-.08-.46-.08-.46-.08-.47-.08-.46-.09-.46-.08-.47-.09-.47-.08-.49-.09-.49-.09-.48-.08-.48-.08-.49-.08-.49-.08-.49-.07-.48-.07-.48-.06-.48-.05-.48-.05-.48-.04-.48-.03-.48-.02-.47v-.48s-.01-.49-.01-.49v-.51s.02-.51.02-.51l.02-.53.03-.54.04-.55.05-.58.06-.6.07-.62.08-.64.09-.65.09-.68.1-.7.11-.73.13-.76.14-.77.15-.79.16-.82.18-.85.2-.88.21-.92.23-.94.25-.97.27-1,.29-1.04.1-.35c.9,2.53,1.54,5.59,1.75,8.99,1.47,15.78-.24,31.54-.27,47.38-.46,17.5-.63,35.35.03,52.93,0,.02,0,.04,0,.06.11,2.02,1.84,2.81,3.33,2.51.71-.15,1.37-.54,1.77-1.18l.86.24,1.2.33.39.11-.33-7.45.07-.03.45-.21.75-.35.86-.39.9-.41.92-.41.9-.39.85-.38.8-.35.76-.33.72-.31.68-.28.64-.26.6-.25.56-.22.53-.21.5-.2.47-.18.44-.17.42-.16.4-.15.38-.14.36-.13.34-.12.32-.11.3-.1.29-.1.27-.09.26-.08.25-.07.24-.07.23-.06.22-.06.21-.05.2-.05.19-.04.19-.04.18-.04.17-.03.17-.03.16-.02.16-.02h.17s.17,0,.17,0h.17s.18.05.18.05l.18.05.17.07.18.09.17.12.16.14.15.16.14.19.13.21.11.23.1.24.09.26.07.27.06.28.04.29.03.31.02.31v.31s0,.31,0,.31l-.02.31-.03.31-.04.32-.04.31-.05.31-.05.3-.05.29-.06.29-.06.28-.06.27-.06.26-.06.25-.06.24-.07.23-.06.22-.06.22-.06.21-.07.21-.06.2-.06.2-.06.19-.07.19-.06.18-.06.18-.07.18Z" fill="#e0b72f"/><path d="M254.14,249.23c-2.15-.46-4.31-.92-6.47-1.37,1.07-7.13,2.3-14.26,3.4-21.41.06,0,.12-.02.19-.03.86-.14,1.77-.47,2.53-.68.99-.47,2.71-.61,4.43-.85-.17.97-.34,1.94-.51,2.91-1.22,7.14-2.3,14.31-3.58,21.43Z" fill="#e0b72f"/><path d="M267.51,214.31l-.17.47-.18.46-.18.45-.17.43-.17.41-.16.39-.16.37-.16.36-.15.35-.15.33-.14.31-.14.31-.14.3-.14.3-.14.29-.14.28-.14.28-.14.28-.14.27-.14.28-.04.09c.38-2.19.82-4.37,1.43-6.5,1.22-3.71-4.4-5.26-5.35-1.5-.42,1.86-.81,3.72-1.18,5.59-1.49.23-3.08.77-4.28.9-.86.22-2.01.4-3.14.68.7-5.09,1.28-10.2,1.63-15.33l.06-.03.74-.32.74-.32.73-.31.71-.3.69-.29.65-.27.62-.25.6-.23.57-.22.55-.2.53-.18.53-.17.53-.15.53-.12.52-.09.52-.05h.51s.49.02.49.02l.46.06.43.1.41.14.38.17.35.19.32.21.3.23.27.25.25.26.23.29.21.3.19.32.17.34.15.36.13.38.11.42.08.45.06.47.03.48v.5s0,.51,0,.51l-.04.53-.06.54-.08.54-.09.53-.1.53-.11.52-.13.52-.14.52-.15.51-.15.5-.16.49-.16.48Z" fill="#e0b72f"/><path d="M338.86,145.72c.97,6.39-5,20.8-6.51,23.85-9.04,19.72-22.02,37.03-33.25,55.56h0s-4.86,2.95-4.86,2.95l.02-.05.21-.4.4-.77.49-.94.52-1,.54-1.03.54-1.03.52-.99.49-.95.47-.9.45-.87.44-.85.43-.84.41-.8.4-.78.39-.77.38-.76.39-.78.4-.8.4-.8.4-.81.42-.84.42-.85.44-.88.45-.9.44-.89.44-.89.43-.88.43-.86.42-.86.41-.84.39-.79.37-.76.36-.73.34-.69.33-.66.31-.63.29-.59.27-.55.25-.52.24-.48.22-.45.21-.42.2-.4.18-.38.17-.35.17-.33.15-.32.15-.3.14-.29.14-.27.13-.26.12-.25.12-.24.11-.23.11-.22.1-.22.1-.2.09-.2.09-.19.09-.18.09-.18.08-.17.08-.16.08-.15.08-.15.08-.15.07-.15.07-.15.08-.14.07-.14.07-.14.08-.15.08-.14.08-.14.08-.15.08-.15.08-.15.08-.15.08-.15.08-.15.08-.15.08-.15.08-.15.08-.15.08-.15.08-.15.08-.15.08-.16.09-.17.1-.18.1-.19.11-.2.12-.21.12-.23.13-.25.14-.27.15-.28.16-.31.16-.32.17-.33.18-.36.19-.37.2-.39.2-.39.2-.4.2-.4.2-.41.21-.42.21-.42.21-.42.2-.41.2-.4.2-.4.2-.41.2-.4.2-.4.2-.4.2-.41.21-.42.22-.44.23-.46.23-.47.24-.49.25-.5.26-.52.26-.54.27-.55.27-.55.27-.55.26-.53.26-.52.24-.49.23-.47.22-.44.2-.42.2-.39.18-.38.18-.36.17-.34.16-.32.15-.31.14-.29.14-.29.14-.29.14-.29.14-.28.14-.29.15-.3.16-.31.16-.32.17-.33.17-.33.18-.33.18-.34.19-.35.2-.35.19-.35.19-.34.19-.33.19-.33.19-.32.19-.32.18-.31.18-.3.18-.3.18-.29.18-.3.18-.31.19-.31.19-.31.2-.31.2-.32.21-.33.22-.34.23-.34.23-.35.23-.35.24-.35.24-.34.24-.34.24-.34.24-.32.23-.31.22-.31.22-.3.21-.29.2-.27.2-.27.19-.25.18-.25.18-.23.17-.22.16-.21.16-.21.15-.2.15-.19.14-.18.14-.18.13-.17.13-.16.13-.16.12-.15.12-.15.12-.15.12-.14.12-.14.12-.14.12-.13.11-.13.11-.12.11-.12.11-.12.11-.11.11-.11.11-.11.11-.1.11-.1.11-.1.11-.09.06-.05Z" fill="#e0b72f"/><path d="M294.73,251.08l-.07.12-.24.4-.25.39-.26.38-.28.37-.3.37-.31.36-.32.35-.32.33-.33.32-.34.31-.35.3-.35.29-.36.27-.37.26-.37.25-.39.25-.4.24-.41.23-.42.23-.43.22-.44.21-.45.21-.47.21-.49.2-.5.2-.5.19-.5.19-.51.18-.06.02c-.55-.56-1.15-1.06-1.82-1.52-1.72-1.16-3.55-2.07-5.47-2.81,1.1-3.87,2.24-7.73,3.36-11.58,1.3-5.38,3.15-11.24,4.86-17.27l.25.03.36.05.36.05.35.06.36.07.36.08.37.08.37.09.37.1.37.11.38.13.37.14.36.15.37.17.37.2.36.21.36.24.36.26.36.29.35.31.33.33.32.34.31.37.29.38.28.39.27.41.25.41.24.41.22.41.15.3c-3.2,6.48-1.21,12.24.03,18.74Z" fill="#e0b72f"/><path d="M212.8,412.2s-.08-.01-.12-.02c-.06,0-.11-.02-.11-.02-3.94-.61-7.86-1.53-11.57-2.99-2.51-.99-5.03-2.26-7.03-4.1-1.07-.99-1.97-2.13-2.54-3.48-.8-1.92-.7-4.07.24-5.92.9-1.77,2.41-3.14,4.02-4.26,1.84-1.27,3.9-2.21,5.99-2.98,3.97-1.47,8.15-2.33,12.34-2.88,4.17-.55,8.39-.74,12.59-.66.05,0,.11,0,.16,0,.07,0,.13,0,.2,0,2.36.06,4.72.2,7.07.46,4.16.46,8.28,1.22,12.28,2.46,1.28.39,2.54.87,3.77,1.39.6.26,1.19.53,1.77.82.06.03.13.05.19.08,0,0,0,0,.01,0,.12.05.23.11.34.18.58.31,1.15.64,1.7,1,.19.12.38.24.55.38.52.37,1.02.77,1.49,1.19,1.52,1.36,2.82,3.19,3.09,5.26.71,5.48-4.79,8.97-9.16,10.81-2.69,1.13-5.49,1.93-8.34,2.55-4.19.91-8.46,1.38-12.74,1.57-1.24.05-2.48.08-3.72.08-4.18,0-8.37-.31-12.5-.93h.03ZM233.66,408.15c2.88-.31,5.74-.77,8.28-1.37,1.86-.45,3.69-.99,5.47-1.67,1.05-.42,2.09-.88,3.09-1.42.61-.34,1.21-.71,1.78-1.12.38-.29.74-.59,1.08-.91.21-.21.41-.43.6-.66.13-.17.26-.35.37-.54.08-.14.15-.28.21-.42.04-.11.08-.22.12-.33.03-.11.05-.21.07-.32.01-.1.02-.2.03-.29,0-.1,0-.19-.01-.28-.02-.1-.03-.2-.05-.29-.03-.11-.06-.22-.1-.32-.06-.14-.12-.28-.19-.42-.1-.17-.2-.33-.31-.49-.19-.24-.38-.47-.59-.7-.27-.27-.56-.53-.86-.77-.34-.26-.68-.51-1.04-.74-.21-.14-.42-.27-.64-.4-.84-.48-1.7-.9-2.58-1.29h-.02c-1.56-.68-3.17-1.21-4.52-1.6-2.39-.67-4.82-1.17-6.98-1.5-3.22-.49-6.47-.76-9.73-.86-.09,0-.18,0-.26,0-.67-.02-1.34-.02-2.02-.02-2.79,0-5.58.15-8.35.42-2.83.3-5.64.75-8.37,1.4-1.82.45-3.62.98-5.38,1.65-1.04.41-2.06.88-3.06,1.41-.62.35-1.21.72-1.79,1.13-.36.28-.72.57-1.05.89-.22.22-.43.45-.63.69-.13.18-.26.36-.37.54-.07.13-.14.26-.2.39-.04.11-.09.23-.12.35-.02.09-.04.18-.06.27,0,.08-.02.17-.02.25,0,.1,0,.2.01.31.02.13.04.25.07.38.03.1.06.21.1.31.07.17.15.34.24.5.09.16.19.31.3.46.16.21.33.4.51.6.3.3.62.59.95.86.49.37,1,.72,1.53,1.04.89.52,1.82.97,2.76,1.39,1.46.61,2.96,1.13,4.48,1.57,2.31.64,4.66,1.13,6.74,1.46.14.02.27.04.34.05,3.3.5,6.64.76,9.79.85,3.48.07,6.96-.06,10.42-.4Z"/><path d="M254.75,398.82c0,.09.01.19.01.28,0,.1-.02.19-.03.29-.02.11-.04.21-.07.32-.04.11-.07.22-.12.33-.07.14-.14.28-.21.42-.12.18-.24.36-.37.54-.19.23-.39.45-.6.66-.35.33-.71.63-1.08.91-.57.41-1.17.78-1.78,1.12-1,.53-2.03,1-3.09,1.42-1.79.68-3.62,1.22-5.48,1.67-2.53.61-5.4,1.06-8.28,1.38-3.46.34-6.94.47-10.42.4-3.14-.08-6.48-.35-9.79-.85-.07,0-.2-.03-.34-.05-2.08-.33-4.43-.82-6.75-1.46-1.52-.44-3.02-.96-4.48-1.57-.95-.42-1.87-.87-2.77-1.39-.52-.32-1.04-.66-1.52-1.04-.33-.27-.65-.55-.95-.86-.18-.19-.35-.39-.51-.6-.1-.15-.2-.3-.3-.46-.08-.17-.16-.33-.24-.5-.04-.1-.07-.2-.1-.31-.02-.12-.05-.25-.07-.37,0-.1-.01-.2-.01-.31,0-.08.01-.17.02-.25.02-.09.04-.18.06-.27.04-.12.08-.23.12-.35.02-.04.04-.08.06-.12.04-.09.09-.18.14-.27.12-.19.24-.36.37-.54.2-.24.41-.47.63-.69.34-.31.69-.61,1.05-.89.58-.41,1.17-.78,1.79-1.13.19-.1.39-.2.59-.3.1-.05.2-.1.31-.15,0,0,.01,0,.02-.01.46-.22.92-.43,1.39-.63.12-.05.24-.1.36-.15.13-.05.26-.11.39-.16,1.76-.67,3.55-1.2,5.37-1.65.33-.08.66-.15.99-.23.02,0,.05-.01.07-.01.33-.07.67-.14,1.01-.21.3-.06.59-.11.89-.17.14-.03.28-.05.42-.08.22-.04.43-.08.64-.11.1-.02.19-.03.29-.05.28-.05.55-.09.83-.13.03,0,.05,0,.08-.01.34-.05.68-.1,1.02-.14.03,0,.06-.01.09-.01.24-.03.49-.07.73-.09.17-.02.34-.04.51-.06.27-.03.54-.06.81-.09,2.77-.28,5.56-.43,8.35-.42.67,0,1.34,0,2.02.02.09,0,.17,0,.26,0,.35.01.7.02,1.06.04.3.01.6.02.89.04.19,0,.37.02.55.03.28.02.56.04.83.05.17.01.34.02.52.04.29.02.58.04.87.07.07,0,.14.01.22.02.71.06,1.42.14,2.13.22.26.03.52.06.78.09.13.01.27.03.4.05.17.02.35.04.52.07.32.04.64.09.96.14,2.16.34,4.59.83,6.98,1.5,1.35.39,2.96.92,4.52,1.59h.02c.09.05.17.09.26.13,0,0,.02,0,.02.01.19.09.38.17.57.27.2.09.39.19.58.29.39.19.77.4,1.15.61.22.13.43.27.64.4.36.23.7.48,1.04.74.3.25.58.5.86.77.21.22.41.45.59.7.11.16.22.32.31.49.07.14.14.28.19.42.04.1.07.21.1.32,0,.02,0,.04.01.05.01.08.03.16.04.24Z" fill="#eb7865"/></svg>