<?xml version="1.0" encoding="UTF-8"?><svg id="a" xmlns="http://www.w3.org/2000/svg" viewBox="0 0 500 500"><path d="M453.76,130.71c4.38,15.47,3.57,32.05-.62,47.46-1.9,7.02-4.48,13.88-7.62,20.44-.81,1.7-1.65,3.39-2.53,5.06-.41.79-.83,1.56-1.25,2.34-.22.41-.44.81-.67,1.21-.06.11-.12.21-.18.31-.04.08-.08.16-.12.23-.03.07-.07.14-.11.2l-.1.17c-7.76,13.76-17.69,26.3-28.68,37.62-9.82,10.11-20.52,19.32-31.84,27.7-12.25,9.06-25.22,17.13-38.65,24.32-14.07,7.53-28.69,14.04-43.66,19.57-5.46,2.02-10.97,3.9-16.53,5.64-.02,0-.04.01-.06.02-2.36.77-4.75,1.47-7.15,2.15-.71.21-1.42.41-2.06.59-.04.01-.08.03-.13.04-.07.02-.14.04-.18.05-.44.12-.87.25-1.31.37-7.41,2.08-14.9,3.91-22.44,5.47-2.6.56-5.22,1.09-7.84,1.55-.37.06-.74.13-1.11.19-.59.1-1.19.21-1.78.31-2.42.42-4.85.82-7.28,1.18-.19.04-.39.07-.59.09-.28.05-.56.09-.84.12h-.05s-.05.01-.08.02c-.03,0-.06,0-.09,0l-1.22.18c-4.38.62-8.77,1.15-13.16,1.58-.52.05-1.03.1-1.55.15.9-1.56,1.87-3.12,2.89-4.66,4.25-.44,8.49-.97,12.71-1.59.04,0,.09-.01.13-.02.83-.15,1.68-.26,2.52-.4l2.13-.35c1.39-.23,2.77-.45,4.16-.68.82-.14,1.65-.29,2.47-.44,4.6-.85,9.18-1.79,13.75-2.82.03,0,.06-.01.09-.02.08-.02.15-.04.23-.05,4.08-.93,8.14-1.93,12.19-3.01.04,0,.08-.02.12-.03l.15-.04c1.74-.46,3.47-.95,5.08-1.4.24-.07.48-.14.72-.2,2.54-.73,5.07-1.5,7.6-2.27,9.39-2.93,18.65-6.25,27.77-9.95,2.1-.85,4.19-1.73,6.11-2.55,12.95-5.57,25.56-11.9,37.72-19.02,11.15-6.58,21.92-13.8,32.11-21.71,8.65-6.74,16.88-14.01,24.4-21.6,6.32-6.45,12.29-13.23,17.71-20.39,4.24-5.66,8.16-11.55,11.69-17.69.08-.14.16-.28.24-.41.1-.19.21-.39.32-.58,2.97-5.31,5.59-10.82,7.73-16.2,1.74-4.48,3.22-9.03,4.36-13.4,1.08-4.36,1.92-8.75,2.44-13.2.41-3.77.57-7.55.53-11.34-.09-3.54-.39-7.05-.9-10.55-.47-2.97-1.09-5.92-1.84-8.55-.91-3.19-2.01-6.32-3.17-9.13-1.31-3.06-2.8-6.02-4.47-8.9-1.73-2.92-3.63-5.72-5.62-8.33-.02-.03-.05-.06-.07-.09h0c-2.28-2.92-4.74-5.67-7.35-8.29-3.03-2.97-6.24-5.74-9.6-8.33-4.23-3.17-8.64-6.05-13.13-8.59-5.28-2.95-10.75-5.52-16.22-7.69-6.94-2.72-14.05-4.95-21.15-6.72-8.75-2.15-17.63-3.67-26.52-4.68-.06,0-.11-.01-.17-.02h-.05c-4.82-.53-9.66-.91-14.5-1.15-5.86-.27-11.73-.33-17.6-.26-3.32.08-6.64.2-9.97.36-3.23.16-6.46.41-9.68.68-6.48.55-12.93,1.36-19.36,2.29-6.86,1.08-13.71,2.27-20.49,3.76-7.07,1.56-14.09,3.31-20.8,5.18-3.6,1.04-7.18,2.12-10.76,3.23-3.59,1.12-7.14,2.35-10.69,3.59-6.88,2.39-13.66,5.09-20.12,7.8-6.68,2.86-13.3,5.89-19.79,9.16-6.56,3.3-13,6.81-19.34,10.51-5.46,3.24-10.84,6.61-16.11,10.16-5.44,3.66-10.73,7.53-15.77,11.42-.05.04-.1.08-.16.12h0c-4.29,3.38-8.52,6.84-12.6,10.47-3.89,3.45-7.66,7.02-11.34,10.69-3.27,3.33-6.49,6.73-9.53,10.26-3.03,3.51-5.95,7.11-8.75,10.8-1.99,2.69-3.94,5.41-5.79,8.21-1.98,2.97-3.83,6.03-5.62,9.12-1.47,2.64-2.9,5.29-4.22,8.01-1.39,2.86-2.68,5.75-3.77,8.42-1.82,4.6-3.37,9.29-4.64,14.08-.53,2.16-1.04,4.32-1.44,6.51-.41,2.29-.75,4.58-1.03,6.89-.19,1.86-.37,3.72-.44,5.59-.07,1.89-.09,3.77-.08,5.66.05,1.62.12,3.23.24,4.84.12,1.66.34,3.32.51,4.69.49,3.3,1.18,6.55,2.04,9.77.88,3.04,1.92,6.01,3.13,8.93,1.26,2.93,2.7,5.77,4.28,8.54.96,1.62,1.97,3.21,3.02,4.78,1.01,1.51,2.11,2.97,3.23,4.41,2.19,2.73,4.51,5.34,6.97,7.82,3.01,2.95,6.19,5.7,9.53,8.28l.43.33c4.1,3.09,8.42,5.84,12.88,8.38,2.47,1.36,4.98,2.66,7.52,3.88,2.64,1.27,5.34,2.42,8.05,3.53,3.25,1.28,6.53,2.48,9.86,3.56,3.59,1.16,7.23,2.19,10.6,3.08.69.17,1.39.34,1.89.47,8.39,2.08,16.95,3.51,25.53,4.5,10.69,1.16,21.43,1.64,32.18,1.48h-.12c.08,0,.16,0,.24,0h.02c3.04-.06,6.08-.17,9.12-.32.4-.02.8-.04,1.2-.06-.86,1.49-1.7,2.98-2.53,4.49-3.83.18-7.67.27-11.5.27h-.96c-1.67,0-3.34-.01-5.02-.05-.8,0-1.61-.02-2.41-.05-.03,0-.05,0-.07,0-15.24-.43-30.48-2.2-45.32-5.71-1.06-.25-2.13-.52-2.91-.71-8.12-2.01-16.1-4.67-23.81-7.9-3.81-1.6-7.56-3.35-11.2-5.31-3.58-1.93-7.11-3.96-10.48-6.24-1.92-1.3-3.8-2.64-5.42-3.86-6.4-4.83-12.25-10.39-17.25-16.65-5.01-6.28-9.12-13.25-12.12-20.7-3.1-7.71-4.88-15.9-5.47-24.18-.3-4.16-.3-8.36.04-12.52.18-2.2.41-4.4.72-6.59.29-2.03.65-4.04,1.05-6.05.81-4.05,1.92-8.07,3.21-11.99,1.32-3.99,2.82-7.93,4.54-11.76,1.8-3.99,3.75-7.89,5.89-11.71,2.15-3.84,4.47-7.57,6.9-11.23,4.71-7.08,10.04-13.75,15.66-20.12,2.78-3.16,5.68-6.22,8.65-9.2,2.94-2.94,5.93-5.84,9.02-8.62,12.88-11.6,26.85-21.96,41.6-31.06,7.27-4.48,14.71-8.69,22.3-12.6,7.62-3.92,15.38-7.6,23.29-10.91,7.89-3.32,15.87-6.44,23.98-9.16,8.41-2.82,16.9-5.42,25.49-7.64,8.41-2.18,16.9-4.04,25.46-5.57,8.65-1.55,17.36-2.73,26.11-3.59,4.16-.41,8.34-.72,12.52-.93,4.43-.22,8.88-.4,13.32-.4.1-.01.21-.02.31-.02,4.58,0,9.16.08,13.74.29,1.74.08,3.48.18,5.21.3,1.64.11,3.27.23,4.91.38.31.03.62.05.92.08.08,0,.16.02.24.03,3.68.35,7.36.78,11.03,1.3,14.34,2.02,28.56,5.51,42.03,10.86,14.21,5.65,27.6,13.52,38.76,24.04,5.54,5.22,10.39,11.15,14.39,17.62,3.94,6.37,6.9,13.28,8.93,20.48Z"/><path d="M223.31,354.1c-5.06-2.16-11.71,4.2-15.57-.97-1.13-6,2.72-13.66,7.42-20.74,1.86-.19,3.72-.41,5.58-.64-4.05,5.95-7.41,12.26-9.23,19.13,32.4-8.81,7.25,23.79,1.58,36.31-7.3,13.94-14.03,28.27-21.36,42.16-2.73,3.44-7.28,18.87-12.69,14.6-1.83-5.65,2.42-11.55,3.32-17.2,4.21-16.87,11.53-33.06,14.43-50.2l.02.03c-.01-.12-.04-.24-.06-.36-12.54,3.88-29.35,8.23-18.17-11.32,5.34-10.4,10.53-20.92,16.32-31.08,1.31-.05,2.61-.1,3.92-.17.4-.02.8-.04,1.2-.06-4.33,7.48-8.24,15.22-12.27,22.84-.66,3.06-12.49,19.55-6.68,19.04,6.92.25,22.41-10.14,19.76,4.24-4.21,17.76-10.89,34.86-15.54,52.52,8.46-15.56,15.87-31.65,24.11-47.31,4.03-10.15,13.82-19.79,13.92-30.82Z"/><path d="M222.33,258.34c-1.03-.51-1.54-1.87-.98-2.91.12-.22.24-.44.36-.66-8.35-9.78-15.71-20.54-24.92-29.66-10.73-11.7-23.28-22.25-30.84-36.43-15.19-26,2.21-53.87,32.34-49.05,13.54,4.54,20.87,17.87,28.6,28.91,3.96-19.03,9.93-43.07,30.81-49.61,13.83-3.3,26.64,8.72,27.97,22.13,1.69,11.5-2.22,22.91-6.69,33.36-9.98,20.3-24.75,37.75-37.22,56.53-4.67,6.66-9.1,13.45-13.05,20.25-1.96,2.18-2.7,8.27-6.37,7.14ZM223.86,250.9c14.86-26.33,35.4-49.07,49.89-75.6,5.53-12.04,10.77-26.12,6.24-39.26-3.3-9.29-13.94-16.22-23.58-12.12-10.97,4.72-16.8,15.89-20.58,26.62-2.75,4.57-3.23,25.76-9.6,23.21-2.35-1.03-3.45-3.74-4.93-5.69-2.57-3.87-5.2-7.71-8.03-11.4-4.73-5.78-10.52-11.96-18.2-13.27-19.1-1.85-35.03,13.96-29.36,33.21,4.44,15.9,16.91,27.47,27.98,39.02,10.95,10.98,20.96,22.81,30.17,35.28Z"/><path d="M279.99,136.04c4.53,13.15-.71,27.22-6.23,39.26-14.49,26.53-35.03,49.26-49.89,75.59-9.2-12.47-19.22-24.3-30.17-35.28-11.07-11.55-23.54-23.12-27.98-39.02-5.67-19.25,10.26-35.05,29.36-33.2,7.67,1.31,13.47,7.49,18.2,13.26,2.83,3.69,5.45,7.53,8.03,11.4,1.48,1.95,2.58,4.66,4.93,5.69,6.37,2.55,6.85-18.63,9.6-23.21,3.78-10.73,9.61-21.9,20.58-26.62,9.64-4.1,20.28,2.82,23.58,12.12Z" fill="#ebada3"/><path d="M278.97,174.41c4.48-10.45,8.38-21.86,6.69-33.36-1.33-13.41-14.14-25.43-27.97-22.13-20.87,6.55-26.85,30.58-30.81,49.61-7.73-11.04-15.06-24.36-28.6-28.91-30.13-4.82-47.52,23.04-32.33,49.05,7.56,14.18,20.11,24.73,30.84,36.43,9.21,9.12,16.57,19.88,24.92,29.66-.12.22-.24.44-.36.67-.56,1.04-.05,2.4.98,2.91,3.67,1.12,4.41-4.96,6.37-7.15,3.95-6.79,8.38-13.58,13.05-20.25,12.47-18.78,27.25-36.24,37.22-56.53ZM452.33,150.99c.05,3.79-.12,7.57-.53,11.34-.53,4.46-1.36,8.85-2.44,13.2-1.14,4.37-2.62,8.93-4.36,13.4-2.14,5.38-4.75,10.89-7.73,16.2-.11.2-.22.39-.32.58-.08.13-.16.27-.24.41-3.52,6.14-7.44,12.03-11.69,17.69-5.41,7.16-11.39,13.94-17.71,20.39-7.52,7.59-15.74,14.86-24.4,21.6-10.19,7.91-20.96,15.13-32.11,21.71-12.17,7.12-24.78,13.45-37.72,19.02-1.91.81-4.01,1.69-6.11,2.55-9.12,3.69-18.38,7.02-27.77,9.95-2.53.77-5.06,1.54-7.6,2.27-.24.07-.48.14-.72.2-1.61.45-3.34.94-5.08,1.4l-.15.04s-.08.02-.12.03c-4.05,1.08-8.11,2.08-12.19,3.01-.08.02-.15.04-.23.05-.03,0-.06.01-.09.02-4.56,1.03-9.14,1.97-13.75,2.82-.82.15-1.65.29-2.47.44-1.39.23-2.77.45-4.16.68l-2.13.35c-.84.14-1.68.25-2.52.4-.04,0-.09.02-.13.02-2.38.34-4.75.66-7.14.95-1.01.13-2.02.25-3.03.36-.38.05-.77.09-1.16.13-.47.05-.93.1-1.4.15-.25.38-.51.77-.75,1.16-.75,1.16-1.46,2.33-2.14,3.5-3.25,5.66-5.42,11.39-4.53,16.09,3.87,5.17,10.51-1.19,15.57.97-.1,11.04-9.89,20.67-13.92,30.82-8.25,15.67-15.65,31.75-24.11,47.31,4.66-17.66,11.33-34.76,15.54-52.52,2.66-14.38-12.84-3.99-19.76-4.24-5.81.51,6.02-15.99,6.68-19.04,3.23-6.11,6.38-12.29,9.73-18.35h0l.48-.87.49-.88c.2-.36.41-.72.61-1.08.31-.55.63-1.1.95-1.66-.4.02-.8.04-1.2.06-.68.03-1.37.06-2.05.09-.37.02-.74.03-1.11.05-.25.01-.5.02-.75.03-1.73.06-3.47.11-5.21.15h-.02c-.08,0-.16,0-.24,0h.12c-10.75.15-21.48-.32-32.18-1.49-8.58-.99-17.14-2.42-25.53-4.5-.5-.12-1.19-.3-1.89-.47-3.37-.89-7.01-1.91-10.6-3.08-3.32-1.08-6.6-2.28-9.86-3.56-2.71-1.11-5.41-2.26-8.05-3.53-2.55-1.23-5.05-2.52-7.52-3.88-4.45-2.54-8.78-5.29-12.88-8.38l-.43-.33c-3.34-2.58-6.52-5.33-9.53-8.28-2.47-2.49-4.78-5.09-6.97-7.82-1.11-1.44-2.21-2.9-3.23-4.41-1.05-1.57-2.05-3.16-3.02-4.78-1.58-2.77-3.02-5.61-4.28-8.54-1.21-2.92-2.25-5.89-3.13-8.93-.86-3.22-1.55-6.47-2.04-9.77-.18-1.38-.39-3.03-.51-4.69-.12-1.61-.2-3.23-.24-4.84-.02-1.89,0-3.77.08-5.66.07-1.87.25-3.73.44-5.59.28-2.31.62-4.6,1.03-6.89.4-2.19.9-4.36,1.44-6.51,1.27-4.79,2.82-9.47,4.64-14.08,1.09-2.67,2.38-5.56,3.77-8.42,1.32-2.72,2.75-5.38,4.22-8.01,1.79-3.09,3.65-6.15,5.62-9.12,1.86-2.79,3.8-5.52,5.79-8.21,2.8-3.69,5.72-7.29,8.75-10.8,3.05-3.54,6.26-6.93,9.53-10.26,3.67-3.68,7.45-7.24,11.34-10.69,4.08-3.63,8.31-7.09,12.6-10.47h0c.05-.04.1-.08.16-.12,5.04-3.89,10.33-7.75,15.77-11.42,5.27-3.55,10.65-6.92,16.11-10.16,6.34-3.7,12.78-7.21,19.34-10.51,6.49-3.27,13.11-6.3,19.79-9.16,6.46-2.71,13.23-5.41,20.12-7.8,3.55-1.23,7.1-2.47,10.69-3.59,3.58-1.11,7.16-2.19,10.76-3.23,6.71-1.87,13.73-3.62,20.8-5.18,6.78-1.49,13.63-2.68,20.49-3.76,6.43-.93,12.88-1.74,19.36-2.29,3.22-.27,6.45-.52,9.68-.68,3.32-.16,6.64-.28,9.97-.36,5.87-.07,11.74-.01,17.6.26,4.84.24,9.68.62,14.5,1.15h.05c.05,0,.11.01.17.02,8.89,1.01,17.77,2.53,26.52,4.68,7.09,1.77,14.21,4,21.15,6.72,5.47,2.18,10.94,4.75,16.22,7.69,4.49,2.54,8.9,5.42,13.13,8.59,3.36,2.6,6.57,5.36,9.6,8.33,2.61,2.62,5.07,5.37,7.35,8.29h0s.05.06.07.1c1.99,2.61,3.89,5.41,5.62,8.33,1.66,2.88,3.15,5.84,4.47,8.9,1.17,2.81,2.27,5.93,3.17,9.13.75,2.63,1.36,5.58,1.84,8.55.51,3.5.81,7.01.9,10.55Z" fill="#f5efdf"/></svg>