<?xml version="1.0" encoding="UTF-8"?><svg id="a" xmlns="http://www.w3.org/2000/svg" viewBox="0 0 500 500"><path d="M78.14,155.73c-.56,1.34.6,3.3.53,4.96-.08,2.16-.69,4.3-.69,6.49,0,20.95,0,41.89,0,62.83,0,2.52.63,3.47,3.13,3.36,2.4-.11,4.81-.01,7.22.08,1.65.06,3.3.13,4.95.13,2.92,0,5.83-.2,8.72-.96.47-.12,1.04.15,1.57.18,4.39.2,8.78.39,13.17.54.19,0,.38-.52.59-.54.93-.08,1.87-.17,2.79-.07,1.44.15,2.86.64,4.28.66,3.4.06,3.49-.07,3.51-3.42.03-6.1-.06-12.21.05-18.31.03-1.83,1.15-3.86.64-5.43-.67-2.06.52-3.75.16-5.61-.22-1.15.58-1.04,1.38-1.39,2.23-.96,4.5-.85,6.77-.74,1.11.05,2.22.11,3.33.04.3-.02.86.78.96,1.26.16.8.04,1.65.04,2.49,0,9.01-.02,18.03.01,27.05.01,2.91.35,3.21,3.28,3.26,1.8.03,3.61,0,5.41,0,11.23,0,22.47.01,33.71-.01,3.24,0,4.06-1.24,3.4-4.57-.21-1.07-.03-2.21-.03-3.74v-12.9c0-1.94-.13-3.9.03-5.82.16-1.96-.77-4.09.75-5.88-1.57-1.8-.62-3.95-.74-5.92-.17-2.76-.04-5.55-.04-8.32v-7.91c0-2.77-.09-5.55.03-8.32.11-2.55,0-5.09-.03-7.63-.26-22.91.7-45.83-.81-68.73-.2-3.11-.25-3.37-3.18-3.38-6.52-.04-13.04-.15-19.56.03-2.57.07-5.14-.03-7.71-.13-3.63-.14-7.26-.28-10.89.05-3.58.32-3.62.13-3.63,3.8-.01,16.37,0,32.73,0,49.1,0,5.27.02,10.54,0,15.81-.01,2.2-1.14,2.86-3.43,2.44-1.08-.2-2.29-.04-3.36.24-3.82,1.01-5.67-.25-5.68-4.01v-.83c0-12.07.02-24.13-.02-36.2,0-1.5-.4-2.99-.38-4.48.04-2.72.77-5.53.24-8.11-.42-2.05,1.34-4.3-.67-6.07,1.3-2.54,1.03-5.02.08-7.66-.48-1.35-.15-2.99-.19-4.5-1.51.17-3.01.43-4.53.51-1.8.09-3.6.02-5.41.02h-5.41c-1.66,0-3.33.02-4.99,0-1.6-.03-3.19-.09-4.78-.15-1.6-.05-3.2-.2-4.8-.17-1.76.03-3.51.27-5.27.31-1.44.04-2.88-.05-4.31-.14-2.35-.15-4.71-.3-7.07.14-.77.14-1.57-.21-1.63,1.16-.15,3.5-.64,6.98-.76,10.48-.14,4.16-.03,8.32-.03,12.48s.22,8.06-.06,12.06c-.29,3.95.1,7.87.03,11.8-.05,2.67.03,5.31-.55,8.03-.3,1.41,1.01,3.23-.1,5.16-.85,1.47.83,3.19,0,5.13Z"/><path d="M195.97,144.25c.38,7.47.17,14.97.08,22.46-.02,1.83-.88,3.69-.72,5.47.38,4.23.81,8.45.76,12.7-.03,2.5-.11,5,.03,7.48.13,2.27-.31,4.51-.09,6.81.24,2.47.05,4.99.05,7.48,0,5.97-.01,11.93,0,17.89.01,3.71.03,3.82,3.62,3.75,9.19-.17,18.39-.07,27.59.02,5.51.06,11.02.11,16.53.11,10,0,20.01-.19,30.01-.9,1.99-.14,2.93-.58,3.04-2.77.24-4.74-.5-9.46.57-14.26.44-1.98.5-4.46.26-6.76-.24-2.33-.05-4.71-.05-7.07v-7.49c0-2.49-.05-4.99.02-7.48.04-1.47-.56-2.34-2.01-2.47-3.49-.31-6.98-.73-10.47-.81-3.53-.08-7.05-.07-10.58-.05-2.16,0-4.32.02-6.47,0-.55,0-1.16.04-1.78.08-1.67.11-3.39.22-4.12-.55-1.05-1.12-.17-3.93-.41-5.97-.23-1.93.78-1.9,2.16-1.89,3.07.01,6.15.01,9.23,0,4.83,0,9.66-.01,14.48.06,1.89.03,2.59-.22,2.54-2.4-.18-7.48-.07-14.97-.07-22.46,0-.97.15-1.97-.06-2.9-.12-.51-.84-.87-1.3-1.3-.74.98-1.52.7-2.3.42-.38-.13-.75-.27-1.12-.26-6.71.09-13.42.36-20.13.56-.41.01-1.07.17-1.2-.03-.48-.68-1.08-1.48-1.09-2.24-.02-1.29.6-2.61.52-3.89-.11-1.85.6-2.22,2.3-2.2,9.01.08,18.03.07,27.04,0,1.27,0,2.57-.43,3.8-.84.44-.15.97-.8,1-1.25.35-4.45.7-8.91.85-13.38.34-10.15.61-20.29.83-30.44.06-2.76-1.17-3.97-3.86-3.98-25.37-.02-50.75-.02-76.12,0-2.91,0-3.2.33-3.21,3.33-.03,6.79,0,13.59,0,20.8.04,3.79-.04,7.17-.09,10.54-.09,5.15,1.07,10.39-.74,15.47,1.4,3.45.53,7.09.72,10.62Z"/><path d="M336.38,202.02c-4.64,1.07-9.48,1.65-14.25,1.73-8.92.15-17.85.12-26.78.1-4.24-.01-8.49-.02-12.73-.02-3.41,0-3.97.89-2.85,4.23.37,1.1.82,2.16,1.15,3.26,2.79,9.38,5.7,18.74,8.22,28.19.56,2.12,1.3,2.66,3.21,2.61,1.37-.03,2.74-.01,4.11.01,2.1.03,4.2.07,6.29-.09,1.48-.11,2.94.03,4.41.17,1.89.19,3.79.37,5.74,0,1.1-.21,2.28.04,3.47.29.94.2,1.89.4,2.82.37,4.01-.13,8.02-.04,12.03.05,2.56.06,5.12.11,7.69.11,4.69,0,9.38-.19,14.05-.9,3.45-.53,7.14-.02,10.43-.98,8.99-2.64,16.91-7.16,22.31-15.2,1.45-2.15,3.33-4.24,4.02-6.64,2.04-7.16,3.54-14.49,4.35-21.9.36-3.28.04-6.62.18-9.93.13-3,.56-5.99.68-8.99.29-7.23-.61-14.51.85-22.11.2-9.23-.17-18.03.7-26.85.67-6.73.13-13.57.14-20.37,0-1.09.03-2.19.14-3.27.19-1.85.51-3.68.67-5.53.13-1.52-.69-2.24-2.22-2.25-4.2-.01-8.39-.48-12.56-.67-7.17-.33-14.35-.27-21.54-.22-3.36.03-6.71.05-10.06.04-1.29,0-1.93.06-1.94,1.71-.01,4.19-.15,8.36-.6,12.57-.84,7.87.45,15.87-.97,23.77-.47,2.62-.16,5.45-.99,7.92-.76,2.26-.85,4.8-2.88,6.76-1.71,1.66-3.49,1.56-5.29,1.31-1.81-.25-2.26-2.12-2.48-3.62-.44-3.05-1-6.17-.77-9.21.23-3.13-.59-6.11-.31-9.32.84-9.68.74-19.44,1.05-29.17.07-2.23-1.04-2.68-3.03-2.74-3.39-.1-6.78-.06-10.18-.01-6.2.08-12.4.16-18.61-.66-5.18-.69-10.52-.13-15.79-.12-4,.01-4.7.81-4.87,4.69-.19,4.46-.02,8.9-.61,13.41-.83,6.31-.59,12.78-.86,19.18-.42,9.75-.49,19.52,1.3,29.29.98,5.36,2.33,10.34,4.86,15.09,3.52,6.63,8.99,10.81,16.01,13.24,6.31,2.19,12.87,2.74,19.43,3.25,3.71.29,7.57.54,11.14-.23,2.34-.5,4.56-.42,6.81-.45,1.33-.01,1.86.67,1.41,2.69-.86,3.84-3.81,4.78-6.5,5.4Z"/><path d="M154.51,299.04c-.21-15.33-.2-30.44-.21-45.56,0-2.99-1.15-4.15-4.12-4.16-12.48-.02-24.97-.03-37.45,0-3.76.01-4.19.47-4.2,4.01-.01,5.27,0,10.54,0,15.81v31.21c0,5.13-.31,10.28.09,15.39.4,5.07-1.52,10.08-.1,15.13.11.39.19,1.04-.02,1.21-1.45,1.23-.71,2.84-.77,4.27-.11,2.49-.83,5.42.2,7.37,1.51,2.83-.97,4.81-.38,7.37.56,2.47-.95,4.94-3.05,6.37-3.69,2.51-8.98-.39-9.27-4.94-.11-1.66.4-3.47-.09-4.97-1.64-4.87-1.14-9.92-1.53-14.88-.3-3.86-.68-7.89.11-11.61.8-3.75-.06-7.41.6-11.08.34-1.88.07-3.87.06-5.81-.01-1.8.05-3.6-.08-5.39-.13-1.73.12-3.44.11-5.16-.05-12.2-.03-24.41-.03-36.61,0-1.39-.09-2.78.02-4.16.21-2.63-.34-3.51-2.78-3.51-3.06,0-6.12-.01-9.17-.03-10.57-.06-21.13-.12-31.68.8-1.11.1-1.31.42-1.36,1.44-.21,4.61-.73,9.2-.77,13.8-.1,14.56-.19,29.13.01,43.69.2,14.22-.78,28.45.69,42.66.48,4.64.89,9.27,1.7,13.88.98,5.58,3.26,10.62,6.01,15.4,1.45,2.53,4.15,4.32,6.15,6.56,1.83,2.05,4.57,2.66,6.55,4.22,4.66,3.65,10.22,4.58,15.5,4.67,5.84.09,11.69.3,17.54.3,5.27,0,10.55-.17,15.84-.76,6.04-.67,11.45-2.39,16.62-5.2,6.3-3.44,10.83-8.65,13.83-15.14,3.58-7.74,4.45-16.11,5.18-24.46.33-3.72-.13-7.5.11-11.23.22-3.44.03-6.86.07-10.27.11-8.76-1.15-17.58.7-26.29-1.4-1.25,1.02-2.88-.63-4.34Z"/><path d="M263.51,346.19c-.51-2.68.03-5.54-.17-8.3-.13-1.79-.57-3.62-1.23-5.3-3.58-9.16-10.26-15.38-18.77-20.05-5.73-3.14-11.92-4.79-18.08-6.59-4.65-1.36-8.54-3.65-10.76-8.54-.31-1.14-.3-2.1-.52-3-.78-3.18-1.1-6.37.35-9.41.95-1.99,2.04-1.98,3.81-.65,2.32,1.74,2.79,4.41,3.6,6.85,1.98,5.93,1.86,5.83,7.91,4.01,5.32-1.59,10.79-2.71,16.12-4.29,4.92-1.46,9.74-3.28,14.64-4.83,1.08-.34,1.56-.35,1-1.77-2.07-5.25-3.59-10.67-6.26-15.73-3.37-6.39-8.08-11.72-13.82-15.65-7.37-5.05-16.07-7.41-25.04-7.66-6.53-.18-13.09.46-19.63.74-.1,0-.21,0-.31-.01-.18-.02-.36-.03-.51.03-6.48,2.15-13.01,3.71-18.73,8.16-9.06,7.07-14.02,16.13-16.04,27.11-.56,3.02-.11,6.29-.98,9.19-1.67,5.56-.52,10.91.54,16.24,1.29,6.51,5.48,11.49,9.66,16.37,5.92,6.92,14.2,9.43,22.48,12.03,4.64,1.46,9.51,2.23,13.79,4.89,4.31,2.68,6.06,8.2,3.57,12.58-1.74,3.07-4.6,3.59-6.84.92-1.83-2.18-3.64-4.59-4.63-7.21-.93-2.46-2.36-2.35-4.09-1.86-2.59.73-5.11,1.7-7.65,2.61-7.36,2.65-14.7,5.37-22.08,7.97-3.2,1.13-3.51,1.74-2.53,5.07,1.58,5.37,4.01,10.31,7.05,14.97,3.56,5.45,7.98,9.87,13.98,12.77,7.24,3.5,14.53,6.48,22.77,6.37.71-.01,1.46.19,2.19.39.72.19,1.43.39,2.09.39.26,0,.51-.03.75-.1,2.69-.8,5.38-.75,8.06-.7.82.01,1.63.03,2.45.02,4.14-.05,8.04-1.19,11.97-2.28,6.14-1.71,10.93-5.63,15.49-9.76,4.14-3.75,6.72-8.68,9.63-13.43,3.03-4.96,3.77-10.41,5.42-15.68-2.01-2.09-.2-4.56-.64-6.86Z"/><path d="M368.2,347.3c-.63-3.64-1.51-7.49-3.35-10.63-3.91-6.66-9.57-11.63-17.1-14.12-.41-.14-.73-.53-1.09-.81.36-.28.67-.66,1.08-.82,3.29-1.24,6.44-2.77,9.13-5.03,4.01-3.36,7.42-7.17,8.98-12.39,1.01-3.37,1.89-6.71,2.58-10.18,1.44-7.3.82-14.24-1.79-21.52-.28-.72-.7-.97-.81-1.33-1.79-5.7-5.73-10.04-9.56-14.3-3.46-3.85-8.61-5.27-13.37-6.72-4.96-1.51-10.22-2.02-15.49-1.81-2.63.11-5.27.02-7.9.02-2.5,0-5.06-.36-7.47.1-1.4.27-2.76.14-4.11.01-1.04-.1-2.08-.2-3.12-.11-3.49.28-6.97.72-10.47.79-3.1.07-6.2.06-9.3.04-2.86-.01-5.72-.02-8.58.03-2.25.04-4.48.74-6.72.73-1.89-.02-2.18.67-2.18,2.33.03,7.7.14,15.4-.66,23.1-.21,2.03-.7,4.3-.08,6.35.66,2.2-.11,4.27-.11,6.4.07,34.24.05,68.47.05,102.71,0,.97-.13,1.97.05,2.9.08.43.74,1.02,1.18,1.06,3.76.36,7.52.67,11.3.86,2.49.12,4.99.02,7.48.02h7.9c2.49,0,4.99.02,7.48,0,1.16-.01,2.31.02,3.47.04,1.25.03,2.5.05,3.75.04,3.07-.04,6.12-.02,9.25.57.97.18,1.95.25,2.95.25,2.88,0,5.86-.59,8.74-.69,6.07-.23,11.74-1.77,17.27-3.69,3.46-1.2,7.2-2.63,9.63-5.83.8-1.05,1.51-2.17,2.37-3.17,5.54-6.57,8.94-14.1,9.46-22.67.25-4.15-.13-8.42-.84-12.52ZM330.15,350.02c-5.05,1.57-10.26,1.93-15.53,1.73-1.28-.05-1.3-.64-1.25-1.53.14-2.54-.29-5.07-.09-7.64.12-1.51.59-1.72,1.71-1.72.08,0,.17,0,.26,0,1.86.04,3.72.03,5.58.02,1.75,0,3.49-.01,5.24.02,2.55.05,4.8,1.04,6.87,2.48,1.47,3.99.72,5.54-2.79,6.63ZM331.74,300.09c-2.27,1.04-4.58,1.98-7.19,1.69-.35-.04-.71-.05-1.06-.05-.3,0-.6,0-.9.02-.32,0-.63.02-.95.02-2.62,0-5.25-.01-7.87-.02-.13-2.57-.24-5.15-.41-7.72-.19-3.01-.22-2.97,2.28-3.1,5.64-.3,11.12.43,16.38,2.52.35.14.61.54.91.81,1.95,3.9,1.81,4.44-1.2,5.82Z"/><path d="M451.13,227.57c-.22-.05-.44-.1-.67-.15-.33-.07-.66-.15-1.01-.22-.24-.05-.48-.1-.73-.15-7.22-1.42-17.44-2.39-18.5-2.65-9.75-1.29-19.49-2.54-29.28-3.58-.93-.1-1.87-.2-2.8-.29,0,0,0,.01,0,.02,0,.05-.01.11-.02.16-.1.86-.2,1.73-.3,2.59-.33,2.82-.65,5.65-.98,8.47-.68,5.83-1.36,11.66-2.03,17.49-.64,5.53-1.3,11.06-1.93,16.59-.64,5.62-1.31,11.24-1.96,16.86-.66,5.73-1.33,11.47-2,17.2-.65,5.63-1.31,11.27-1.96,16.91-.66,5.7-1.32,11.39-1.98,17.09-.64,5.51-1.28,11.02-1.92,16.53-.27,2.36-.55,4.73-.82,7.09-.01.12-.03.24-.04.37-.11.92-.21,1.84-.32,2.76.93.12,1.86.25,2.8.37,12.07,1.6,24.15,3.22,36.07,5.7.92.19,1.84.39,2.76.59.09-.44.18-.88.27-1.32.1-.51.21-1.03.31-1.54,1.06-5.29,2.12-10.59,3.18-15.89,1.22-6.06,2.41-12.12,3.64-18.17,1.24-6.12,2.45-12.24,3.68-18.37,1.24-6.18,2.49-12.35,3.71-18.53,1.2-6.04,2.42-12.07,3.63-18.11,1.23-6.13,2.46-12.27,3.69-18.4,1.21-6.1,2.44-12.2,3.66-18.3.55-2.73,1.09-5.46,1.64-8.19.08-.42.17-.83.25-1.25.11-.54.22-1.07.32-1.61-.12-.03-.24-.06-.36-.09Z"/><path d="M419.2,385.72c-1.91-3.84-5.36-6.89-9.34-8.85-1.11-.55-2.27-1.01-3.45-1.39-.04-.02-.08-.03-.12-.04-.77-.24-1.55-.46-2.34-.63-.56-.13-1.12-.23-1.68-.33-.44-.07-.88-.12-1.31-.19-.05,0-.12-.01-.19-.01-.02,0-.04,0-.05,0-1.05-.12-2.11-.18-3.17-.2-2.9-.04-5.85.32-8.65,1.07-2.79.75-5.49,1.81-7.98,3.26-5.03,2.91-9.4,7.4-11.29,12.99-.91,2.74-1.24,5.68-.76,8.54.48,2.9,1.74,5.59,3.53,7.91,3.38,4.37,8.66,7,14,8.07,2.02.4,4.08.59,6.14.59,3.31,0,6.62-.5,9.77-1.5,2.64-.84,5.16-1.98,7.5-3.46,2.2-1.39,4.18-3.06,5.91-5,1.39-1.57,2.59-3.37,3.53-5.33,1.16-2.43,1.82-5.15,1.8-7.85-.01-1.4-.17-2.77-.51-4.13-.31-1.22-.76-2.4-1.33-3.52ZM416.73,387.08s0,0,0,0c0,0,0,0,0,.01,0,0,0,0,0,0Z"/></svg>