<?xml version="1.0" encoding="UTF-8"?><svg id="a" xmlns="http://www.w3.org/2000/svg" viewBox="0 0 45.5 45.5"><path d="M22.75,45.5c-4.97,0-7.65-11.72-7.65-22.75S17.78,0,22.75,0s7.65,11.72,7.65,22.75-2.68,22.75-7.65,22.75ZM22.75,1.5c-2.91,0-6.15,8.73-6.15,21.25s3.24,21.25,6.15,21.25,6.15-8.73,6.15-21.25S25.66,1.5,22.75,1.5Z" fill="#202020"/><path d="M22.75,30.4c-11.03,0-22.75-2.68-22.75-7.65s11.72-7.65,22.75-7.65,22.75,2.68,22.75,7.65-11.72,7.65-22.75,7.65ZM22.75,16.6c-12.52,0-21.25,3.24-21.25,6.15s8.73,6.15,21.25,6.15,21.25-3.24,21.25-6.15-8.73-6.15-21.25-6.15Z" fill="#202020"/><path d="M9.38,39.82c-1.11,0-2.04-.31-2.72-.99-3.51-3.51,2.88-13.7,10.68-21.49,7.8-7.8,17.98-14.2,21.49-10.68,1.58,1.58,1.24,4.65-.97,8.88-2.05,3.92-5.5,8.4-9.71,12.61h0c-6.29,6.29-14.13,11.67-18.77,11.67ZM36.13,7.18c-3.4,0-10.43,3.92-17.73,11.22-8.85,8.86-12.73,17.32-10.68,19.37,2.06,2.06,10.52-1.83,19.37-10.68,4.1-4.1,7.45-8.45,9.44-12.25,1.8-3.44,2.26-6.11,1.24-7.13-.36-.36-.92-.54-1.64-.54ZM27.63,27.63h0,0Z" fill="#202020"/><path d="M36.12,39.82c-4.64,0-12.48-5.38-18.77-11.67h0C9.54,20.36,3.15,10.17,6.66,6.66c3.51-3.51,13.7,2.88,21.49,10.68,4.21,4.21,7.66,8.69,9.71,12.61,2.21,4.24,2.55,7.31.97,8.88-.68.68-1.61.99-2.72.99ZM18.4,27.1c8.85,8.85,17.31,12.74,19.37,10.68,1.02-1.02.56-3.69-1.24-7.13-1.98-3.79-5.33-8.14-9.44-12.25C18.24,9.55,9.78,5.67,7.72,7.72c-2.06,2.06,1.82,10.52,10.68,19.37h0Z" fill="#202020"/><circle cx="22.75" cy="22.7" r="3.11" fill="#202020"/></svg>