<?xml version="1.0" encoding="UTF-8"?><svg id="a" xmlns="http://www.w3.org/2000/svg" viewBox="0 0 69.75 33.47"><path d="M15.28,11.76c-.33,0-.64-.22-.73-.56-.1-.4.14-.81.54-.91l14.82-3.81c.4-.1.81.14.91.54.1.4-.14.81-.54.91l-14.82,3.81c-.06.02-.13.02-.19.02Z" fill="#202020"/><path d="M34.77,6.92c-.36,0-.68-.26-.74-.63-.06-.41.21-.79.62-.86l13.8-2.18c.41-.07.79.21.86.62.06.41-.21.79-.62.86l-13.8,2.18s-.08,0-.12,0Z" fill="#202020"/><path d="M20.11,14.15c-.35,0-.66-.24-.73-.59-.09-.4.17-.8.58-.89l5.97-1.28c.4-.09.8.17.89.58.09.4-.17.8-.58.89l-5.97,1.28c-.05.01-.11.02-.16.02Z" fill="#202020"/><path d="M29.79,12.17c-.36,0-.68-.27-.74-.64-.06-.41.22-.79.63-.85l4.79-.73c.41-.06.79.22.85.63.06.41-.22.79-.63.85l-4.79.73s-.08,0-.11,0Z" fill="#202020"/><path d="M38.27,10.96c-.36,0-.68-.26-.74-.63-.07-.41.21-.79.62-.86l6.6-1.06c.41-.07.79.21.86.62.07.41-.21.79-.62.86l-6.6,1.06s-.08,0-.12,0Z" fill="#202020"/><path d="M49,9.46c-.37,0-.69-.27-.74-.64-.06-.41.23-.79.64-.85l7.33-1.04c.41-.06.79.23.85.64.06.41-.23.79-.64.85l-7.33,1.04s-.07,0-.11,0Z" fill="#202020"/><path d="M26.52,17.24c-.37,0-.69-.27-.74-.65-.06-.41.23-.79.64-.84l11.54-1.56c.41-.06.79.23.84.64.06.41-.23.79-.64.84l-11.54,1.56s-.07,0-.1,0Z" fill="#202020"/><path d="M42.73,15.51c-.39,0-.71-.29-.75-.69-.04-.41.27-.78.68-.81l7.38-.63c.41-.04.78.27.81.68.04.41-.27.78-.68.81l-7.38.63s-.04,0-.06,0Z" fill="#202020"/><path d="M24.52,31.78c-.39,0-.72-.3-.75-.7-.03-.41.28-.77.7-.8l7.08-.48c.41-.03.77.28.8.7.03.41-.28.77-.7.8l-7.08.48s-.03,0-.05,0Z" fill="#202020"/><path d="M27.79,26.82c-.4,0-.73-.31-.75-.71-.02-.41.3-.77.71-.79l9.58-.48c.42,0,.77.3.79.71.02.41-.3.77-.71.79l-9.58.48s-.03,0-.04,0Z" fill="#202020"/><path d="M28.95,21.95c-.39,0-.71-.3-.75-.69-.04-.41.27-.78.68-.81l9.71-.83c.4-.04.77.27.81.68.04.41-.27.78-.68.81l-9.71.83s-.04,0-.06,0Z" fill="#202020"/><path d="M43.46,20.63c-.39,0-.71-.3-.75-.69-.04-.41.27-.78.68-.81l5.59-.47c.4-.04.78.27.81.68.04.41-.27.78-.68.81l-5.59.47s-.04,0-.06,0Z" fill="#202020"/><path d="M53.39,19.79c-.38,0-.71-.29-.75-.68-.04-.41.26-.78.67-.82l6.87-.67c.4-.05.78.26.82.67.04.41-.26.78-.67.82l-6.87.67s-.05,0-.07,0Z" fill="#202020"/><path d="M54.62,14.08c-.38,0-.7-.28-.74-.66-.05-.41.25-.78.66-.83l6.79-.78c.42-.04.78.25.83.66.05.41-.25.78-.66.83l-6.79.78s-.06,0-.09,0Z" fill="#202020"/><path d="M42.31,25.88c-.39,0-.72-.3-.75-.7-.03-.41.28-.77.7-.8l6.45-.44c.41-.03.77.28.8.7.03.41-.28.77-.7.8l-6.45.44s-.03,0-.05,0Z" fill="#202020"/><path d="M52.36,25.02c-.39,0-.71-.3-.75-.69-.03-.41.27-.77.69-.81l6.41-.53c.4-.03.77.27.81.69.03.41-.27.77-.69.81l-6.41.53s-.04,0-.06,0Z" fill="#202020"/><path d="M52.63,3.68c-.37,0-.69-.27-.74-.65-.05-.41.23-.79.64-.84L68.9,0c.41-.05.79.23.84.64.05.41-.23.79-.64.84l-16.36,2.18s-.07,0-.1,0Z" fill="#202020"/><path d="M35.13,31.21c-.41,0-.74-.33-.75-.74,0-.41.32-.76.74-.76l11.44-.18c.42,0,.76.32.76.74,0,.41-.32.76-.74.76l-11.44.18h-.01Z" fill="#202020"/><path d="M50.76,31.13c-.41,0-.74-.33-.75-.74,0-.41.32-.76.74-.76l11.5-.18c.42.03.76.32.76.74,0,.41-.32.76-.74.76l-11.5.18h-.01Z" fill="#202020"/><path d="M11.35,33.47c-2.98,0-5.62-1.01-8.08-3.05C.56,28.17-.54,25.03.25,21.8c1.1-4.44,5.46-8.09,11.12-9.29.4-.08.8.17.89.58.09.41-.17.8-.58.89-5.1,1.08-9.01,4.29-9.97,8.18-.66,2.69.23,5.22,2.52,7.12,3.88,3.22,8.37,3.53,14.15.98,3.54-1.56,5.58-4.07,5.61-6.89.02-2.44-1.52-4.62-4.12-5.84-5.01-2.33-10.26-.98-13.37,3.45-.87,1.23-1.67,3.21-1.07,4.74,1.1,2.81,4.74,3.26,7.77,2.73,2.67-.46,6.86-2.51,7.6-4.79.3-.93,0-1.85-.92-2.79-1.93-1.98-5.16-1.37-7.52-.51-1.69.62-3.99,2.73-4.02,4.04,0,.19-.01.68.99,1.09,1.69.7,4.9.51,6.36-.38,1.02-.62,1.36-1.63,1.1-2.21-.22-.49-.9-.61-1.81-.33-.72.23-1.38.57-1.99,1.01.21-.03.44-.15.61-.24.36-.19.82-.05,1.01.31.19.37.05.82-.31,1.01-.39.21-.98.52-1.66.43-.48-.06-.92-.35-1.17-.77-.21-.36-.25-.78-.1-1.15.15-.37.45-.6.59-.71.77-.59,1.64-1.04,2.56-1.33,2.01-.64,3.19.17,3.63,1.14.63,1.38-.1,3.15-1.68,4.11-1.88,1.14-5.55,1.37-7.71.48-1.7-.7-1.93-1.87-1.92-2.51.05-2.21,3-4.69,5.01-5.42,3.99-1.45,7.14-1.15,9.11.87,1.66,1.7,1.61,3.28,1.28,4.3-1,3.1-5.83,5.3-8.77,5.81-3.62.62-7.99,0-9.42-3.66-.82-2.08.11-4.54,1.24-6.15,3.5-4.97,9.62-6.55,15.23-3.94,3.11,1.44,5.02,4.21,4.99,7.21-.03,3.38-2.47,6.46-6.51,8.24-2.78,1.23-5.31,1.85-7.63,1.85Z" fill="#202020"/></svg>