<?xml version="1.0" encoding="UTF-8"?><svg id="a" xmlns="http://www.w3.org/2000/svg" viewBox="0 0 500 500"><path d="M125.52,364.56s0-.09,0-.14c-.12-1.9-.24-3.8-.35-5.71-.48-7.72-.96-15.44-1.43-23.16-.98-16.05-1.99-32.1-2.97-48.15-1.03-16.72-2.06-33.43-3.1-50.14-1.02-16.45-2.02-32.9-3.04-49.34-1.06-17.08-2.11-34.17-3.16-51.26-.71-11.5-1.4-23.01-2.12-34.51,2.67-.24,5.35-.47,8.03-.71.84,13.42,1.66,26.84,2.48,40.26,1.03,17,2.1,34,3.14,51,1.01,16.5,2.04,33.01,3.05,49.51,1.02,16.72,2.06,33.43,3.1,50.14.98,15.97,1.96,31.94,2.96,47.91.42,6.84.84,13.69,1.26,20.54.06.96.12,1.92.18,2.89,0,.12.02.24.02.36,0,.04,0,.08,0,.13.04.48.07.95.1,1.43-2.69.12-5.38.22-8.07.34-.03-.46-.06-.93-.09-1.4Z"/><path d="M109.35,102.15c7-.61,14.01-1.23,21.01-1.85,4.17-.37,8.34-.75,12.5-1.1.83-.07,1.66-.15,2.11-.18,16.97-1.49,33.95-2.99,50.91-4.5,2.56-.22,5.13-.46,7.16-.63,1.19-.11,2.37-.21,3.02-.27,17.04-1.49,34.08-3,51.12-4.51,17.41-1.54,34.82-3.08,52.23-4.61,17.04-1.5,34.08-3,51.11-4.51,6.14-.54,12.28-1.1,18.29-1.63.02.52.04,1.04.07,1.55.1,2.17.19,4.33.28,6.49-11.44,1.01-22.87,2.04-34.31,3.04-17.06,1.5-34.12,3.01-51.18,4.52-17.15,1.52-34.3,3.02-51.45,4.54-11.84,1.05-23.68,2.13-35.49,3.13-1.02.09-2.04.18-2.7.24-17.01,1.52-34.03,3.01-51.04,4.5-2.52.22-5.04.45-7.02.62-.99.09-1.99.18-2.98.26-11.04,1.01-22.09,1.97-33.14,2.94-.16-2.68-.33-5.37-.5-8.05Z"/><path d="M382.57,354.1c-.66-15.25-1.3-30.51-1.97-45.76-.67-15.65-1.35-31.3-2.01-46.95-.7-16.35-1.4-32.69-2.11-49.04-.68-15.66-1.35-31.33-2.01-46.99-.66-15.43-1.32-30.86-1.99-46.29-.57-13.33-1.13-26.65-1.71-39.98,2.7-.24,5.38-.48,8.04-.72.02.52.04,1.04.07,1.55.36,8.25.71,16.51,1.06,24.76.65,15.09,1.29,30.18,1.95,45.27.69,15.98,1.36,31.96,2.05,47.93.7,16.11,1.38,32.21,2.07,48.31.69,15.91,1.37,31.83,2.05,47.74.65,15.23,1.31,30.46,1.96,45.69.21,4.96.42,9.91.63,14.87-2.68.11-5.36.23-8.05.34-.01-.25-.02-.49-.03-.74Z"/><path d="M125.52,364.56s0-.09,0-.14c-.12-1.9-.24-3.8-.35-5.71-.01-.27-.03-.53-.05-.8,7.27-.3,14.54-.6,21.81-.93,17.08-.79,34.16-1.48,51.24-2.22,16.63-.72,33.26-1.42,49.9-2.16,17.1-.76,34.2-1.48,51.3-2.22,16.89-.73,33.78-1.48,50.67-2.19,13.42-.57,26.85-1.17,40.27-1.75.12,2.68.23,5.37.34,8.05-15.92.67-31.85,1.38-47.78,2.07-16.92.75-33.84,1.48-50.76,2.2-16.88.72-33.75,1.48-50.63,2.19-16.75.71-33.49,1.44-50.24,2.17-17.14.75-34.28,1.49-51.41,2.22-4.74.2-9.47.4-14.21.6-.03-.46-.06-.93-.09-1.4Z"/><path d="M158.82,297.36c2.45-6.26,4.92-12.52,7.38-18.77,5.6-14.2,11.19-28.4,16.76-42.61,5.63-14.33,11.26-28.65,16.91-42.97,5.78-14.66,11.55-29.32,17.31-43.99,1.7-4.34,3.41-8.69,5.12-13.03,2.99-.27,5.98-.54,8.97-.81-2.41,6.3-4.93,12.55-7.4,18.82-2.93,7.41-5.83,14.83-8.75,22.24-5.69,14.46-11.37,28.92-17.07,43.37-5.69,14.44-11.36,28.88-17.04,43.32-5.05,12.84-10.09,25.67-15.15,38.5-.64,1.62-1.27,3.24-1.91,4.85h0c-2.96.17-5.91.34-8.87.51,1.2-3.17,2.5-6.3,3.75-9.45Z"/><path d="M350.53,294.66c-.16-.34-.34-.69-.49-1.03-.42-1.04-.99-2.04-1.48-3.05-.65-1.35-1.31-2.71-1.97-4.06-1.6-3.3-3.19-6.6-4.79-9.9-4.07-8.4-8.14-16.81-12.2-25.22-6.67-13.8-13.34-27.6-20.03-41.39-6.76-13.95-13.5-27.91-20.26-41.87-5.91-12.21-11.81-24.42-17.73-36.64,2.87-.26,5.74-.52,8.61-.78,1.87,3.87,3.71,7.76,5.58,11.62,3.47,7.16,6.93,14.33,10.4,21.49,6.74,13.92,13.49,27.84,20.21,41.76,6.7,13.89,13.43,27.76,20.15,41.64,4.13,8.54,8.29,17.07,12.4,25.62,2.79,5.82,5.63,11.62,8.43,17.43,0,.01,0,.01,0,.01.65,1.35,1.29,2.7,1.96,4.05.02.04.05.09.07.14v.02s.03.03.03.03c.07.14.14.28.2.42-.59.03-1.17.07-1.76.1-2.32.13-4.64.27-6.96.4-.13-.27-.26-.54-.39-.81Z"/><path d="M222.3,135.99c7.44-.67,14.87-1.34,22.3-2.03,11.86-1.1,23.73-2.15,35.58-3.23,1.25,2.58,2.48,5.17,3.72,7.76-3.64.33-7.29.66-10.93.99-14.72,1.33-29.43,2.67-44.14,4.01-3.28.3-6.55.6-9.83.9,1.1-2.8,2.2-5.59,3.3-8.39Z"/><path d="M158.34,298.56c9.9-.57,19.79-1.16,29.69-1.73,15.98-.93,31.95-1.84,47.93-2.78,14.6-.85,29.21-1.68,43.82-2.53,1.3,2.62,2.62,5.23,3.93,7.84-11.85.68-23.7,1.38-35.54,2.05-15.81.91-31.61,1.82-47.42,2.75-15.22.89-30.45,1.77-45.67,2.64,1.05-2.77,2.17-5.51,3.27-8.25Z"/><path d="M300.92,290.29c8.89-.51,17.78-1.02,26.67-1.54,9.41-.55,18.82-1.09,28.24-1.63.51,1.06,1.02,2.12,1.54,3.18,0,.01,0,.01,0,.01.65,1.35,1.29,2.7,1.96,4.05.02.04.05.09.07.14v.02s.03.03.03.03c.07.14.14.28.2.42-.59.03-1.17.07-1.76.1-5.92.34-11.84.68-17.75,1.03-11.85.7-23.7,1.38-35.55,2.06-1.22-2.63-2.43-5.25-3.65-7.87Z"/><path d="M297.66,283.27c-6.02-12.95-12.02-25.9-18.03-38.85-5.64-12.14-11.27-24.29-16.91-36.43-4.11-8.83-8.22-17.65-12.31-26.49,1.34-3.62,2.64-7.24,3.95-10.74.38.84.75,1.69,1.13,2.51,1.46,3.14,2.92,6.29,4.37,9.43,3.13,6.74,6.25,13.48,9.38,20.22,5.67,12.21,11.33,24.43,17.01,36.64,5.95,12.79,11.89,25.59,17.82,38.38,3.05,6.58,6.1,13.15,9.15,19.72-2.89.17-5.77.33-8.66.5-2.3-4.97-4.6-9.93-6.91-14.89Z"/><path d="M206.97,298.61l.02-.07c.4-.94.72-1.91,1.07-2.87,2.92-.17,5.85-.34,8.77-.51-.76,2.04-1.51,4.08-2.26,6.12-.19.72-.49,1.43-.78,2.13-2.94.17-5.88.34-8.81.51.66-1.78,1.34-3.56,1.99-5.31Z"/><path d="M226.51,245.93c5.12-13.78,10.22-27.55,15.33-41.33,2.69-7.23,5.36-14.46,8.05-21.7,1.52-4.08,2.99-8.19,4.47-12.15.38.84.75,1.69,1.13,2.51,1.22,2.63,2.43,5.25,3.65,7.87-.4,1.09-.8,2.17-1.21,3.25-2.71,7.3-5.42,14.61-8.13,21.92-5.13,13.82-10.27,27.65-15.39,41.49-2.22,6.01-4.46,12.01-6.69,18.02-2.96.26-5.93.53-8.89.79,2.56-6.89,5.12-13.79,7.67-20.68Z"/><path d="M221.93,258.25c2.29-.21,4.58-.41,6.86-.62,6.92-.62,13.84-1.24,20.76-1.86,3.93-.36,7.87-.78,11.8-1.06.95,1.91,1.9,3.83,2.85,5.74.28.55.55,1.1.82,1.65-.56.33-1.2.53-1.88.53h-.02c-.26.02-.52.05-.78.07-.11.01-.22.02-.31.03-4.02.41-8.05.72-12.06,1.08-7.06.63-14.12,1.27-21.19,1.9-3.32.3-6.63.6-9.95.89,1.04-2.79,2.07-5.57,3.1-8.36Z"/><path d="M272.47,294.92c-4.8-9.55-9.57-19.11-14.36-28.67-1.25-2.5-2.5-5-3.76-7.5-.55-1.09-1.09-2.18-1.64-3.27,2.88-.28,5.77-.56,8.65-.77.95,1.91,1.9,3.83,2.85,5.74,2.62,5.25,5.25,10.49,7.88,15.73,3.88,7.72,7.74,15.46,11.61,23.18-2.92.17-5.84.34-8.75.5-.83-1.65-1.65-3.3-2.48-4.95Z"/><path d="M127.99,420.47c-.78-.78-1.1-1.75-1.17-2.82-.42-5.9-.73-11.8-.74-17.7-.22-6.78.02-13.54.05-20.32.11-2.62-.67-5.7.93-7.96,2.52-3.45,8.31-.54,7.06,3.51.15,9.05-.21,18.1.04,27.16.07,5.1.37,10.2.72,15.29.14,2.38-2.04,4.02-4.17,4.02-1,0-1.98-.36-2.72-1.16Z"/><path d="M146.1,396.63c-4.76-5.73-9.52-11.17-14.54-16.64-1.27-1.27-2.27-2.14-3.57-3.18-2.52-2.39-.64-6.98,2.85-6.89,4.94.28,17.42,17.41,21.65,21.81,2.31,3.06-.42,6.47-3.34,6.47-1.07,0-2.17-.46-3.06-1.57Z"/><path d="M149.01,399.09c-5.52-2.82-.15-8.25,1.8-11.69,3.85-6.21,7.69-11.64,11.84-17.29,2.68-4.52,9.63-.43,6.95,4.08-2.11,3.11-4.42,6.08-6.49,9.08-2.81,4.11-5.43,8.36-8.09,12.56-.87,1.78-2.48,3.63-4.46,3.63-.5,0-1.01-.12-1.55-.38Z"/><path d="M164.08,417.98c-1.1-10.6-.7-21.21-.45-31.83.1-5.07.15-10.13-.17-15.19-.06-1.3.14-2.59,1.17-3.55,2.74-2.73,7.39-.31,6.88,3.33.9,14.32-.88,28.71.29,43.02.45,2.96.7,7.12-3.18,7.66-.17.02-.34.03-.51.03-1.93,0-3.84-1.47-4.03-3.47Z"/><path d="M174.05,415.92c0-.19,0-.38.03-.56h0c3.99-13.98,9.59-27.53,12.7-41.78.49-2.14,2.91-3.38,4.96-2.82,5.91,2.18,1.01,9.92.46,14.21-3.06,10.63-6.89,21.02-10.14,31.6-.37,2.23-2.15,3.3-3.93,3.3-2.03,0-4.06-1.36-4.07-3.94Z"/><path d="M202.66,416.31c-5.23-13.94-8.26-28.15-14.04-41.44-1.71-3.06,1.26-7.06,4.67-5.99,3.82.44,8.07,18.27,9.66,22.31,1.83,6,3.67,11.98,5.71,17.91.6,2.35,2.39,4.76,1.42,7.22-.6,1.6-2.18,2.41-3.75,2.41s-3.11-.8-3.68-2.42Z"/><path d="M182.98,404.4c-2.23-1.71-2-5.29.45-6.69,1.08-.63,2.6-.6,4-.57.93.02,1.82.05,2.49-.12,1.32.12,3.01-.17,4.76-.46,4.03-.66,8.39-1.33,9.33,2.98.29,2.13-1.26,4.3-3.44,4.54-5.26.57-9.57,1.06-14.5,1.19-.03,0-.07,0-.1,0-1.05,0-2.16-.15-2.99-.87Z"/><path d="M210.39,416.02c-1.27-11.68-2.01-24.18-2.82-35.75.24-4.28-3.28-12.4,3.26-13.07,5.93.4,3.84,8.43,4.76,12.5.86,12.09,1.42,23.32,2.78,35.22.35,2.87-1.89,4.5-4.1,4.5-1.79,0-3.55-1.07-3.89-3.4Z"/><path d="M212.95,391.58c-1.08-3.92,3.11-5.07,5.81-6.22,3.28-2.14,8.07-3.71,9.66-7.48-3.49-3.18-8.43-4.43-13.04-4.77-.54-.05-1.1-.05-1.67-.04-1.74.01-3.52.02-4.65-1.56-1.26-1.59-1.04-4.1.49-5.43.19-.17.4-.32.61-.45-.01,0-.02.01-.03.02-.01,0-.03.02-.04.03.35-.22.73-.37,1.13-.48,0,0,0-.01-.01-.02,1.71-.49,3.72-.07,5.46-.04,12.75.59,28.99,11.05,13.8,22.39-2.87,1.73-9.28,6.91-13.66,6.91-1.71,0-3.1-.79-3.86-2.87Z"/><path d="M210.25,365.57c.3-.17.61-.3.95-.4,0,0,0,0,.01.01-.36.1-.71.25-1.04.44.03-.02.06-.04.08-.06Z"/><path d="M210.26,365.57s0,0,0,0c0,0,0,0,0,0,0,0,0,0,0,0Z"/><path d="M210.26,365.57s0,0,0,0c0,0,0,0,0,0Z"/><path d="M210.28,365.55s-.01,0-.02.01c0,0,.01,0,.02-.01Z"/><path d="M234.55,416.91c-7.08-8.3-15.01-15.15-23.19-22.01-3.7-3.77,2.03-9.41,5.75-5.65,6.35,5.49,13.02,10.79,18.67,17.07,2.28,2.99,8.14,6.57,4.47,10.61-.77.76-1.83,1.16-2.88,1.16s-2.07-.38-2.82-1.18Z"/><path d="M250.3,413.03c-1.34-10.61-3.17-21.15-5.27-31.63-.66-3.22-1.34-6.43-1.89-9.67-.41-2.86-1.82-6.53.98-8.52-.05.03-.09.06-.14.09,1.73-1.31,4.33-1.04,5.67.74,1.28,1.99.84,4.54,1.5,6.76,1,5.64,2.28,11.22,3.29,16.86,1.1,5.97,2.11,11.96,2.99,17.96.32,3.67,2.7,9.86-2.6,10.85-.18.03-.35.04-.53.04-1.94,0-3.77-1.47-4.01-3.48Z"/><path d="M251.54,389.68c-1.7-1.33-2.1-3.95-.71-5.66,4.94-6.07,9.7-12.33,14.12-18.79,1.11-2.26,3.37-4.38,6.03-3.19,6.33,3.52-1.46,9.82-3.6,13.66-3.25,4.52-6.65,8.95-10.17,13.26-.82,1-2.02,1.54-3.23,1.54-.85,0-1.71-.27-2.43-.83Z"/><path d="M272.64,414.5c-4.97-6.15-10.01-12.06-15.43-17.75-1.83-1.83-3.97-4.06-5.74-5.76-.83-.76-1.56-1.6-1.68-2.79-.47-3.25,3.21-5.76,6.05-4.04,8.54,7.69,15.92,16.6,23.2,25.45,2.3,3.06-.43,6.48-3.35,6.48-1.07,0-2.17-.46-3.05-1.58Z"/><path d="M283.09,410.78c-1.36-15.31-3.79-30.55-5.23-45.82.6-4.78,7.82-4.54,8.02.34.81,6.78,1.66,13.57,2.54,20.34.78,6.32,1.48,12.65,2.14,18.98.29,3.4,1.85,8.81-2.93,9.6-.17.02-.35.04-.52.04-1.94,0-3.81-1.47-4.02-3.47Z"/><path d="M277.86,364.94h0s0,.01,0,.02c0,0,0,.01,0,.02v-.04Z"/><path d="M285.42,369.14c-4.34.35-9.31-1.54-6.56-6.64-.18.25-.31.51-.45.78.79-1.97,3-2.81,4.82-2.3,5.02.22,10.02.76,15.02.93,5.27.06,5.29,8.01.03,8.06-4.66-.15-8.38-.54-12.87-.83Z"/><path d="M287.7,388.84c-4.72-.54-4.59-7.56-.03-8.02,1.47,0,3.28-.53,5.14-1.07,4.09-1.19,8.37-2.38,9.59,2.37.41,2.8-2.03,4.59-4.57,4.76-3.32.61-6.6,1.96-9.99,1.96-.05,0-.09,0-.14,0Z"/><path d="M282.13,410.92c-.04-2.93,2.78-4.29,5.37-4.21,4.96-.66,9.92-1.4,14.89-1.95,5.21-.63,6.31,7.23,1.1,7.99-4.39.49-8.77,1.1-13.15,1.71-1.13.2-2.39.39-3.57.39-2.38,0-4.46-.78-4.65-3.93Z"/><path d="M312.66,370.44l.55.04c-5.43.65-8.27-5.86-2.75-8.09,7.39.07,14.91.36,22.35-.08,1.43.13,3.3-.26,5.23-.65,4.18-.84,8.64-1.69,9.54,2.74.31,2.22-1.28,4.18-3.44,4.54-7.24,1.32-14.18,1.71-21.21,1.71-3.38,0-6.78-.09-10.26-.21Z"/><path d="M326.94,410.92c-.24-7.83-.53-15.65-1.07-23.46-.38-6-1.17-11.98-1.56-17.98-.06-4.12,5.81-5.68,7.63-1.9,1.01,4.04.8,8.47,1.42,12.63.92,10.2,1.34,20.44,1.64,30.68,0,2.63-2.01,3.96-4.03,3.96-1.99,0-3.99-1.3-4.04-3.92Z"/><path d="M362.16,411.08c-2.6-1.65-4.5-4.17-5.96-6.84-1.8-3.3-2.75-7.01-3.33-10.7-.88-5.6-.48-11.37.79-16.88.55-2.35,1.34-4.65,2.39-6.82.03-.1.08-.2.12-.3.01-.03.03-.06.04-.09.06-.12.13-.24.12-.24.06-.13.13-.25.19-.36.63-1.21,1.34-2.36,1.84-3.04.13-.17.26-.35.39-.52.11-.16.22-.31.34-.46.1-.14.21-.26.33-.38,2.1-2.51,4.8-4.63,8.06-5.27,3.36-.66,6.66.19,9.4,2.2,1.81,1.33,3.24,3.08,4.42,4.97.49.8.93,1.62,1.33,2.47,2.58,5.59,3.42,11.84,3.17,17.95-.16,3.73-.8,7.41-1.89,10.97-.96,3.15-2.41,6.26-4.41,8.89-2.21,2.92-5.15,5.33-8.81,6.11-.74.16-1.48.23-2.21.23-2.23,0-4.43-.69-6.33-1.89ZM369.26,367.05c-.17.04-.34.08-.51.13-.14.05-.28.1-.41.15-.19.1-.38.2-.57.31-.28.19-.55.38-.82.59-.31.27-.61.55-.89.84-.25.29-.5.58-.74.88t0,0c-.09.12-.18.24-.28.37-.45.64-.86,1.32-1.23,2.01-.48.93-.9,1.89-1.28,2.87-.46,1.31-.85,2.64-1.18,3.99-.32,1.55-.57,3.11-.73,4.68-.13,1.7-.16,3.39-.1,5.08.09,1.51.25,3.01.5,4.5.23,1.17.5,2.33.77,3.24.03.1.06.19.09.28v.03c.29.83.6,1.64.94,2.44.32.67.66,1.33,1.05,1.97.29.44.58.86.9,1.27.26.3.52.58.79.86.24.21.48.41.73.6.18.12.37.24.56.35.17.08.34.16.51.23.12.04.24.08.36.11.15.02.3.05.44.07.12,0,.23,0,.34,0,.16-.01.33-.03.49-.05.13-.03.27-.06.4-.09.18-.06.36-.13.54-.2.22-.11.44-.23.65-.35.23-.16.46-.32.69-.49.32-.28.63-.58.93-.88.36-.4.69-.82,1.02-1.24.45-.66.87-1.33,1.25-2.02.47-.91.89-1.86,1.26-2.81.46-1.28.84-2.58,1.16-3.9.35-1.62.6-3.24.76-4.89.12-1.6.15-3.21.11-4.81-.09-1.55-.24-3.08-.49-4.61-.24-1.22-.52-2.42-.88-3.61-.28-.84-.6-1.67-.95-2.48-.31-.67-.66-1.32-1.04-1.96-.27-.41-.55-.8-.84-1.19-.28-.33-.57-.65-.88-.95-.21-.19-.44-.37-.66-.55-.19-.13-.39-.25-.59-.36-.16-.08-.33-.16-.5-.23-.16-.04-.31-.09-.46-.13-.14-.02-.27-.04-.41-.06-.13,0-.26,0-.39,0-.14,0-.28.03-.42.04Z"/><path d="M359.63,294.97c-.07-.14-.13-.28-.2-.42,0,0,0-.01-.01-.04l-.02-.02s-.04-.09-.07-.13c-.67-1.35-1.3-2.7-1.95-4.05h-.01c-.26-.54-.51-1.07-.77-1.6-.26-.53-.51-1.06-.77-1.59h0c-2.3-4.75-4.61-9.5-6.89-14.26-4.11-8.55-8.27-17.08-12.4-25.63-6.72-13.88-13.45-27.75-20.15-41.64-6.73-13.93-13.47-27.84-20.22-41.77-3.47-7.17-6.93-14.33-10.4-21.49-.62-1.29-1.25-2.57-1.86-3.86-.31-.65-.62-1.3-.93-1.95-.93-1.94-1.86-3.88-2.79-5.81-2.87.26-5.74.52-8.61.78-8.99.82-17.99,1.62-26.97,2.45-5.94.55-11.88,1.09-17.81,1.63-1.49.13-2.98.27-4.48.4-1.1,2.8-2.2,5.59-3.3,8.39-.61,1.55-1.21,3.09-1.82,4.64-5.76,14.66-11.53,29.33-17.31,43.99-5.65,14.31-11.28,28.63-16.91,42.96-5.57,14.21-11.16,28.4-16.76,42.61-2.46,6.26-4.93,12.52-7.38,18.77-.16.4-.32.81-.48,1.21-.82,2.06-1.66,4.11-2.47,6.18-.27.69-.54,1.38-.8,2.07,1.6-.09,3.19-.18,4.78-.27,1.36-.08,2.72-.15,4.09-.23h0c12.26-.7,24.53-1.42,36.79-2.13,1.41-.09,2.83-.17,4.24-.25,2.94-.17,5.88-.34,8.81-.52,11.46-.66,22.91-1.32,34.37-1.99,8.93-.51,17.86-1.03,26.79-1.55,2.92-.17,5.84-.34,8.75-.51h0c-1.31-2.61-2.62-5.23-3.93-7.84h0c-2.56-5.11-5.12-10.23-7.68-15.34-2.36-4.69-4.71-9.38-7.06-14.08-.27-.55-.55-1.1-.82-1.65-.95-1.91-1.9-3.83-2.85-5.74-.57.04-1.13.08-1.69.13-.28.02-.56.04-.83.07-.6.05-1.21.1-1.81.16-.03,0-.07,0-.1,0-1.41.13-2.82.26-4.23.4-1.05.1-2.1.2-3.15.3-6.24.56-12.48,1.11-18.72,1.67,1.2-3.22,2.39-6.44,3.58-9.65,5.11-13.84,10.25-27.67,15.39-41.49,1.79-4.84,3.59-9.67,5.38-14.51,2.51,5.4,5.02,10.79,7.53,16.19,5.64,12.14,11.27,24.3,16.91,36.43,6.01,12.95,12.01,25.9,18.03,38.85,1.09,2.34,2.18,4.69,3.27,7.03,1.21,2.62,2.43,5.24,3.65,7.87,2.88-.17,5.77-.33,8.65-.5,8.96-.52,17.93-1.04,26.89-1.56,4.76-.28,9.51-.56,14.27-.83,1.16-.07,2.32-.13,3.48-.2.59-.04,1.17-.07,1.76-.1ZM380.6,308.34c.56,12.82,1.1,25.64,1.65,38.46-10.74.47-21.49.94-32.22,1.4-16.89.72-33.78,1.46-50.67,2.19-17.1.74-34.2,1.47-51.3,2.22-16.64.74-33.26,1.44-49.9,2.16-17.08.74-34.16,1.43-51.24,2.22-4.58.21-9.17.4-13.76.6-.36-5.77-.71-11.54-1.07-17.31-.99-15.97-1.97-31.94-2.95-47.91-1.04-16.71-2.08-33.42-3.1-50.14-1.01-16.51-2.04-33.01-3.05-49.52-1.04-17-2.11-34-3.15-51-.65-10.73-1.3-21.47-1.97-32.2,8.37-.73,16.74-1.47,25.11-2.24.99-.08,1.99-.17,2.98-.26,1.99-.17,4.5-.4,7.02-.62,17.01-1.49,34.03-2.99,51.04-4.5.66-.05,1.68-.14,2.7-.24,11.8-1,23.64-2.08,35.49-3.13,17.15-1.52,34.3-3.02,51.45-4.54,17.06-1.51,34.11-3.02,51.17-4.52,8.76-.77,17.51-1.56,26.27-2.33.46,10.65.91,21.29,1.37,31.94.66,15.43,1.33,30.86,1.99,46.29.67,15.66,1.34,31.33,2.01,46.99.71,16.35,1.41,32.69,2.11,49.04.66,15.65,1.34,31.3,2.01,46.95Z" fill="#f21d2f"/><path d="M346.59,286.53c.18.36.35.73.53,1.1-6.51.38-13.02.75-19.53,1.13-6.01.35-12.01.7-18.02,1.04-1.84-3.95-3.67-7.91-5.5-11.86-5.93-12.8-11.87-25.59-17.81-38.39-5.68-12.2-11.33-24.43-17.01-36.64-3.13-6.74-6.25-13.48-9.38-20.22-.24-.52-.48-1.04-.72-1.55-1.22-2.62-2.44-5.24-3.65-7.87-.39-.83-.76-1.68-1.13-2.51-1.31,3.5-2.62,7.13-3.95,10.75-.17.47-.35.94-.52,1.4-2.69,7.23-5.36,14.46-8.05,21.7-5.11,13.78-10.22,27.55-15.33,41.33-1.52,4.11-3.05,8.21-4.57,12.32-1.03,2.79-2.07,5.58-3.1,8.36,2.97-.27,5.93-.53,8.89-.8.35-.03.7-.06,1.06-.09,7.07-.63,14.13-1.27,21.19-1.9,2.2-.2,4.41-.38,6.62-.57.5,1,1,2.01,1.51,3.01,4.31,8.59,8.6,17.18,12.91,25.77-11.69.68-23.37,1.34-35.06,2.03-6.38.37-12.76.74-19.14,1.11h0c-1.46.08-2.92.17-4.38.25-.15,0-.3.02-.44.03-1.31.08-2.63.15-3.94.22h0c-6.67.39-13.35.77-20.02,1.16-6.95.4-13.89.81-20.84,1.21,4.61-11.7,9.21-23.4,13.81-35.11,5.68-14.44,11.35-28.88,17.04-43.32,5.7-14.45,11.38-28.91,17.07-43.37,2.92-7.42,5.82-14.83,8.75-22.24,1.37-3.49,2.76-6.96,4.13-10.44.28-.03.56-.05.84-.08,14.71-1.34,29.43-2.68,44.14-4.01.78-.07,1.57-.14,2.35-.21,4.67,9.63,9.32,19.26,13.98,28.88,6.75,13.96,13.5,27.92,20.26,41.87,6.69,13.79,13.36,27.59,20.03,41.39,4.06,8.4,8.13,16.81,12.2,25.22,1.6,3.3,3.19,6.6,4.79,9.9Z" fill="#f5f0e0"/></svg>