<?xml version="1.0" encoding="UTF-8"?><svg id="a" xmlns="http://www.w3.org/2000/svg" viewBox="0 0 500 500"><path d="M290.8,399.71c-1.61-.28-3.02-1.07-4.16-2.23-1.27-1.28-2.07-3-2.68-4.66-.77-2.1-1.17-4.36-1.43-6.58-.28-2.41-.4-4.82-.42-7.24-.03-4.36.26-8.73.7-13.06.96-9.59,2.63-19.11,4.58-28.55,1.96-9.47,4.25-18.87,6.74-28.21,1.13-4.23,2.3-8.45,3.44-12.41,2.82-9.82,5.84-19.59,9.03-29.29,3.26-9.88,6.68-19.71,10.26-29.48,3.59-9.8,7.36-19.53,11.27-29.2,3.96-9.78,8.1-19.48,12.41-29.11,4.34-9.73,8.91-19.35,13.7-28.86,4.76-9.48,9.83-18.79,15.21-27.94,1.9-3.23,3.88-6.4,5.91-9.54.02-.05.04-.09.07-.14.17-.32.39-.62.59-.93.55-.84,1.1-1.68,1.66-2.51,1.16-1.73,2.34-3.44,3.56-5.13,1.79-2.5,3.66-4.95,5.61-7.33.76-.92,1.54-1.83,2.33-2.72,1.67-1.89,3.44-3.71,5.33-5.39.03-.02.05-.05.08-.07,0,0,0,0,.01,0,.08-.07.16-.13.25-.18.88-.75,1.79-1.45,2.73-2.11.99-.7,2.05-1.35,3.15-1.85,2.28-1.04,4.94-1.68,7.36-.72,1.67.66,3.04,1.91,3.99,3.43,1.05,1.66,1.68,3.57,2.15,5.46.53,2.15.79,4.36.96,6.56.34,4.4.18,8.85-.12,13.25-.27,4.06-.74,8.1-1.29,12.13,0,.02,0,.03,0,.05,0,.06-.01.11-.02.16,0,0,0,.01,0,.02-.66,4.5-1.37,8.98-2.2,13.45-.92,4.93-1.94,9.83-3.04,14.72-2.28,10.15-4.88,20.22-7.71,30.22-.27.97-.55,1.93-.83,2.89,0,0,0,.01,0,.02-.02.09-.04.17-.08.26-2.59,9-5.35,17.96-8.24,26.87-3.08,9.48-6.33,18.9-9.73,28.27-3.42,9.42-6.98,18.79-10.7,28.1-3.05,7.64-6.19,15.24-9.44,22.75-.1.23-.2.47-.21.48-4.09,9.49-8.36,18.9-12.83,28.22-4.46,9.29-9.13,18.48-14.09,27.52-4.76,8.69-9.81,17.23-15.35,25.45-2.77,4.11-5.71,8.12-8.86,11.95-2.36,2.86-4.88,5.63-7.68,8.06-1.79,1.55-3.72,2.95-5.84,4.02-.34.17-.69.33-1.05.47-1.61.64-3.38.97-5.08.68ZM294.47,395.4c.56-.24,1.1-.51,1.62-.8.82-.49,1.6-1.02,2.37-1.58,1.38-1.06,2.69-2.22,3.91-3.42,0,0,.02-.02.02-.02l.04-.04c2.64-2.64,5.05-5.5,7.34-8.44,5.62-7.28,10.58-15.07,15.27-22.98,5.13-8.7,9.9-17.6,14.46-26.6,4.58-9.04,8.93-18.21,13.09-27.46,1.83-4.07,3.62-8.14,5.3-12,.1-.22.19-.45.22-.51.13-.3.26-.6.34-.79,3.98-9.25,7.78-18.57,11.46-27.94,3.62-9.22,7.07-18.5,10.38-27.83,3.42-9.64,6.69-19.33,9.78-29.08,1.55-4.89,3.05-9.79,4.51-14.71.35-1.18.69-2.36,1.03-3.54.19-.66.38-1.32.57-1.98,0-.02.01-.05.02-.07.19-.68.39-1.35.58-2.03,2.86-10.11,5.51-20.28,7.83-30.53,1.88-8.31,3.54-16.67,4.82-25.08.16-1.06.31-2.13.46-3.2,0-.03,0-.05.01-.08.8-5.87,1.41-11.79,1.55-17.72.05-2.95,0-5.9-.32-8.83-.17-1.44-.39-2.88-.73-4.3-.22-.82-.47-1.63-.78-2.43-.2-.48-.42-.95-.67-1.4-.15-.25-.3-.49-.47-.72-.15-.18-.3-.36-.46-.53-.15-.14-.3-.28-.46-.41-.12-.09-.25-.17-.37-.26-.13-.07-.26-.14-.4-.2-.1-.04-.2-.07-.3-.11-.15-.04-.31-.07-.46-.1-.14-.02-.27-.03-.41-.04-.25,0-.5.02-.74.04-.23.04-.45.08-.68.12-.36.1-.72.21-1.08.34-.6.25-1.17.53-1.74.84-.87.52-1.71,1.08-2.53,1.69-.81.63-1.6,1.29-2.36,1.97-.38.34-.75.69-1.12,1.05-.14.14-.28.27-.42.42,0,0,0,0,0,0-.02.02-.04.04-.06.06-.09.09-.18.19-.28.28-2.34,2.39-4.48,4.95-6.55,7.57-2.82,3.66-5.48,7.44-8.04,11.29-2.5,3.76-4.86,7.61-7.18,11.48-5.34,9.1-10.38,18.36-15.12,27.79-4.78,9.52-9.34,19.14-13.7,28.86-1.57,3.51-3.11,7.03-4.55,10.33-4.19,9.74-8.22,19.54-12.08,29.42-3.77,9.64-7.38,19.34-10.81,29.1-3.43,9.74-6.71,19.52-9.8,29.37-1.32,4.2-2.6,8.41-3.85,12.63-.34,1.15-.68,2.3-1.01,3.46-.16.55-.32,1.1-.48,1.64,0,.02-.01.04-.02.06-.12.4-.23.81-.28.97-2.75,9.58-5.28,19.23-7.55,28.93-2.11,9.05-3.96,18.16-5.41,27.34-.04.23-.07.47-.11.69-1.04,7-1.89,14.05-2.06,21.1-.05,2.97,0,5.94.32,8.9.19,1.56.45,3.1.82,4.62.19.69.41,1.37.66,2.03.21.5.44.98.69,1.46.17.29.35.57.54.84.15.19.31.37.48.55.1.1.21.19.32.28.14.1.28.2.42.29.12.06.23.12.35.18.16.06.31.12.47.17.14.03.28.06.42.09.16.02.33.03.49.04.2,0,.4-.01.6-.03.26-.04.52-.08.77-.14.37-.1.73-.22,1.09-.36Z"/><path d="M351.05,416.44c-14.37,2.4-52.6-10.53-64.82-18.83-1.18-1.51.6-3.8,2.37-2.95.77.51,1.47,1.13,2.33,1.52,5.7,2.93,11.67,5.28,17.66,7.55,12.27,4.04,29.1,10.4,41.92,8.85,3.29-1.29,6.09-3.69,8.81-5.83.81-.68,2-.71,2.75.1.69.74.72,2.07-.1,2.75-3.36,2.63-6.74,5.68-10.92,6.86Z"/><path d="M454.13,102.43c-10.16-5.73-20.93-10.42-32.29-13.07-5.22-1.43-10.62-.81-15.75-2.3-2.52-1.22-.2-5.04,2.07-3.4,7.76.77,15.49,1.53,22.87,4.21,7.02,2.3,13.84,5.22,20.4,8.63,1.74,1.17,4.28,1.69,5.41,3.53.61,1.55-1.23,3.22-2.7,2.38Z"/><path d="M363.28,401.97c1.26.52,2.52,1.04,3.78,1.56-.73.87-1.47,1.73-2.22,2.57-1.39,1.57-2.8,3.15-4.3,4.62-.03.04-.07.07-.11.11-.16.15-.34.27-.54.35-.67.27-1.5.12-2.03-.35-.79-.7-.88-1.95-.18-2.75t0,0s0,0,0,0c0,0,0,0,0,0h0s0,0,0,0c.03-.03.05-.06.08-.08h0s.08-.09.13-.13c1.85-1.9,3.63-3.86,5.36-5.87Z"/><path d="M440.75,252.18c1.12.39,2.24.79,3.36,1.17-1.21,3.48-2.44,6.96-3.71,10.42-3.52,9.62-7.22,19.17-11.14,28.63-3.95,9.53-8.12,18.97-12.49,28.32-4.31,9.21-8.87,18.32-13.66,27.3-4.67,8.75-9.59,17.39-14.85,25.8-5.13,8.21-10.55,16.23-16.49,23.88-.41.53-.83,1.06-1.25,1.59-1.49-.2-2.99-.41-4.48-.64,1.19-1.46,2.35-2.93,3.5-4.42,5.82-7.63,11.17-15.6,16.21-23.75,1.86-3.01,3.67-6.04,5.38-8.97,5.05-8.7,9.82-17.55,14.36-26.53,4.62-9.14,8.99-18.4,13.16-27.75,1.79-4.01,3.53-8.05,5.24-12.08,3.94-9.37,7.7-18.82,11.24-28.36,1.81-4.88,3.57-9.77,5.27-14.69.11.03.21.06.33.09Z"/><path d="M462.81,109.9c1.29,1.73,2.23,3.7,3,5.72.79,2.07,1.34,4.24,1.78,6.41.88,4.33,1.19,8.77,1.31,13.17.12,4.6-.05,9.21-.37,13.79-.67,9.5-2.06,18.94-3.75,28.3-1.75,9.66-3.94,19.24-6.37,28.75-2.51,9.84-5.32,19.61-8.37,29.3-1.05,3.33-2.12,6.65-3.22,9.96-1.23-.44-2.44-.9-3.63-1.43.59-1.79,1.18-3.58,1.75-5.37,2.39-7.44,4.63-14.92,6.75-22.44,2.69-9.68,5.14-19.42,7.22-29.24,1.53-7.22,2.86-14.48,3.9-21.54,1.2-8.37,2.07-16.81,2.21-25.02.06-4.2-.06-8.41-.51-12.59-.28-2.45-.68-4.88-1.28-7.28-.36-1.36-.78-2.69-1.29-4-.37-.9-.79-1.78-1.26-2.64-.34-.59-.71-1.16-1.11-1.7-.33-.42-.68-.82-1.06-1.21-.31-.31-.64-.59-.98-.86-.3-.22-.61-.43-.93-.62-.3-.16-.6-.31-.91-.44-.31-.12-.62-.24-.94-.33-.33-.09-.67-.17-1.01-.22h0s-.05-.01-.08-.01c-.95-.14-1.61-1.14-1.54-2.06.08-1.02,1.04-1.92,2.1-1.78,1.41.18,2.83.66,4.08,1.34,1.8.99,3.29,2.42,4.52,4.06Z"/><path d="M453.72,101.04c-.25-2.47,3.45-2.96,3.89-.54,1.54,3.68,2.1,7.68,2.04,11.66-.02-.03-.05-.07-.07-.1-.33-.42-.68-.82-1.06-1.21-.31-.31-.64-.59-.98-.86-.3-.22-.61-.43-.93-.62-.3-.16-.6-.31-.91-.44-.01,0-.02,0-.04-.01-.25-2.7-1.01-5.32-1.95-7.86Z"/><path d="M448.04,241.6c-.4,1.24-.81,2.47-1.22,3.71-2.76-.98-5.45-2.13-7.91-3.73-2.71-1.4-4.08-4.04-5.29-6.69-1.49-2.43-3.24-5.11-5.9-6.33-3.72-.73-7.11-1.1-10.83-1.4,5.15,2.43,11.67,4.3,14.81,9.35,1.61,3.46,1.73,7.44,3.39,10.93,1.1,3.08,2.61,3.95,5.65,4.75,1.12.39,2.24.79,3.36,1.17-.43,1.23-.85,2.45-1.29,3.68-2.56-.84-5.11-1.72-7.56-2.81-2.21-1.54-3.35-4.2-4.26-6.65-1.7-3.34-1.18-7.66-3.69-10.54-5.5-4.09-12.11-6.77-18.74-8.37-1.56-.17-3.78-.73-3.38-2.77,1.39-3.23,6.32-2.7,9.26-2.77,4.93.24,9.92.7,14.74,1.8,3.38,1.42,5.73,4.62,7.6,7.66.91,1.36,1.29,3.04,2.36,4.28,2.59,2.24,5.69,3.6,8.88,4.72Z"/><path d="M367.06,403.52c-.73.87-1.47,1.73-2.22,2.57-.16.17-.31.35-.47.53-7.67-3.17-15.32-6.38-22.92-9.69-1.91-.81-3.73-1.57-5.62-2.41-.59-.14-1.02-.54-1.3-1.06-.93-2.56,1.93-3.43,3.76-2.1,9.58,4.12,19.12,8.22,28.77,12.16Z"/><path d="M373.32,395.69c-.51.67-1.02,1.34-1.54,2.01-.41.53-.83,1.06-1.25,1.59-11.72-1.57-23.33-3.98-35.01-5.62-1.98-.95-.9-4.11,1.24-3.65,9.04.89,18.2,3.11,27.11,4.43,3.14.46,6.29.88,9.45,1.25Z"/><path d="M316.14,303.33c-1.7.53-3.54.38-5.11-.44-1.11-.58-1.92-1.59-2.58-2.62-.98-1.54-1.47-3.4-1.81-5.17-.58-3.09-.62-6.28-.49-9.42.23-5.76,1.13-11.5,2.27-17.16,1.4-6.99,3.23-13.88,5.33-20.7,2.22-7.22,4.76-14.34,7.58-21.35,2.85-7.12,6.01-14.12,9.52-20.93,2.59-5.02,5.36-9.96,8.47-14.68,0-.01.02-.03.03-.04,0,0,0-.01.01-.02.85-1.29,1.72-2.56,2.62-3.8.12-.17.24-.34.36-.5.01-.02.03-.04.04-.06,1.18-1.62,2.42-3.19,3.74-4.7,1.28-1.45,2.62-2.86,4.09-4.12,1.22-1.04,2.52-2,3.97-2.71,1.56-.77,3.35-1.27,5.1-.94,1.54.28,2.82,1.14,3.8,2.35,1.23,1.51,1.89,3.46,2.3,5.34.4,1.82.58,3.69.65,5.55.13,3.5-.1,6.99-.48,10.47-.39,3.58-.98,7.14-1.68,10.68-.32,1.63-.67,3.26-1.03,4.88,0,0,0,0,0,0,0,.02,0,.03-.01.05,0,.02-.01.05-.02.07-1.63,7.21-3.68,14.33-5.99,21.35-2.35,7.12-4.99,14.16-7.93,21.06-2.82,6.64-5.89,13.17-9.31,19.52-3.52,6.51-7.36,12.94-12.03,18.7-1.95,2.41-4.07,4.74-6.52,6.66-1.21.95-2.52,1.76-3.94,2.34-.31.12-.62.24-.95.34ZM316.09,299.21c.46-.23.9-.48,1.34-.75.68-.45,1.33-.95,1.96-1.48,1.17-1.01,2.25-2.1,3.28-3.25,2.05-2.3,3.9-4.76,5.51-7.08,3.54-5.14,6.64-10.57,9.49-16.04.03-.06.06-.12.09-.17,0-.02.02-.03.02-.03,3.29-6.37,6.24-12.9,8.95-19.54,1.28-3.14,2.5-6.31,3.62-9.36,2.54-6.97,4.81-14.04,6.74-21.2.68-2.54,1.32-5.09,1.9-7.6,0-.04.02-.08.03-.12l.02-.07c1.27-5.61,2.3-11.28,2.84-17,.23-2.6.37-5.22.29-7.83h0s0-.01,0-.02c0-.08,0-.15,0-.23,0,0,0,0,0,0,0,0,0,.02,0,.01,0,.01,0,.02,0,.04,0-.01,0-.03,0-.04v-.04c-.06-1.36-.18-2.71-.4-4.05-.13-.72-.3-1.43-.51-2.13-.14-.43-.3-.85-.48-1.27-.14-.28-.29-.56-.45-.83-.11-.16-.23-.32-.35-.47-.1-.11-.2-.22-.3-.32-.08-.07-.16-.13-.24-.19-.08-.05-.16-.1-.24-.15-.08-.04-.16-.07-.24-.11-.07-.02-.15-.05-.22-.07-.1-.02-.2-.03-.3-.05-.11,0-.22,0-.34-.01-.15.01-.31.03-.46.05-.22.04-.44.1-.66.16-.29.1-.58.21-.87.34-.45.22-.88.46-1.3.73-.68.45-1.32.94-1.86,1.38-.04.03-.08.07-.12.1h-.01c-1.15,1.01-2.22,2.09-3.25,3.22-1.87,2.1-3.59,4.33-5.21,6.63-.14.21-.29.41-.43.62.03-.04.06-.09.09-.13.02-.04.05-.07.05-.08-.02.04-.05.07-.07.11-.42.62-.84,1.25-1.26,1.87-.18.28-.37.56-.55.84-.03.05-.06.09-.09.14-2.75,4.26-5.24,8.69-7.56,13.16-.02.04-.05.09-.07.13-.01.03-.03.06-.03.06-3.48,6.76-6.6,13.7-9.45,20.76-1.12,2.77-2.18,5.56-3.16,8.25-2.54,6.97-4.81,14.03-6.73,21.2-.69,2.57-1.33,5.15-1.93,7.75-1.27,5.62-2.3,11.3-2.82,16.78-.25,2.72-.39,5.46-.31,8.1,0,.04,0,.07,0,.11v.03c.06,1.36.18,2.71.4,4.05.14.76.31,1.52.54,2.26.14.41.3.82.47,1.22.13.27.28.54.44.8.12.17.24.34.38.51.09.1.19.2.29.3.07.06.15.12.23.18.07.05.15.09.22.13.07.03.14.06.21.09.08.03.16.05.24.07.11.02.21.04.32.05.13,0,.26,0,.39,0,.15-.01.3-.03.44-.05.24-.05.47-.11.7-.17.27-.1.54-.2.81-.32Z"/><path d="M335.24,243.1c-.04.16-.08.31-.13.47-.11.37-.22.73-.35,1.1-.02.05-.03.1-.05.14-.03.08-.05.15-.08.23-.02.06-.05.13-.07.2-.03.09-.07.18-.1.27,0,0,0,0,0,.02-.08.21-.17.41-.26.62,0,.02-.01.03-.02.05-.08.18-.16.36-.25.54,0,.01-.02.03-.02.05-27.48-8.56-56.26-12.65-84.89-13.99-36.03-2.02-72.04,4.4-103.23,23.1-1.94.93-3.63,2.3-5.46,3.34-.95.22-1.95-.29-2.3-1.21-.62-3,3.74-3.97,5.64-5.4,44.97-27.19,95.53-27.09,146.01-19.91,15.35,2.65,30.71,5.72,45.58,10.41Z"/><path d="M335.51,241.98c-.08.37-.17.74-.27,1.11-.04.16-.08.31-.13.47-.09.33-.2.66-.31.98-.05.16-.11.32-.17.48-.06.15-.12.31-.18.46,0,0,0,0,0,.02-27.56-9.63-52.14-27.75-73.16-47.91-27.8-27.31-54.9-60.49-66.48-98.22-.43-2.83-4.5-13.63-1.4-14.44,1.01-.38,2.11.16,2.51,1.14,1.45,9.74,4.44,19.22,8.42,28.23,19.6,41.24,51.11,76.47,87.35,103.92,9.34,6.73,19.25,12.67,29.68,17.53,3.26,1.57,6.57,3.05,9.91,4.46,1.41.6,2.83,1.19,4.26,1.77Z"/><path d="M204.9,233.87c-23.72,1.58-47.92,3.58-69.95,13.18-2.75,1.18-4.22-3.21-1.16-3.72,10.6-4.37,21.57-7.76,32.94-9.38,12.5-2.08,25.15-3.13,37.79-3.95,2.51-.22,2.93,3.6.39,3.87Z"/><path d="M219.58,149.24c-14.69-13.96-36.12-40.05-38.7-60.42.83-2.3,4.02-1.44,3.85.93,3.39,14.63,12.33,27.37,21.37,39.1,4.15,5.06,8.42,10.03,13.07,14.64,1,.98,1.9,1.83,2.92,2.76,1.92,1.6-.59,4.64-2.5,2.98Z"/><path d="M154.21,277.26c-2.02.21-4.33-4.8-4.18-6.51,1.56-6.25,10.01-4.52,14.56-7.01,6.75-4.2,3.33-8.6,13.36-13.46,1.61-1.7,1.95-4.15,2.48-6.34.71-2.21,2-4.19,3.32-6.08,1.44-2.07,4.64.05,3.23,2.18-3.73,3.99-2.69,10.54-7.27,13.86-1.98,1.06-4.11,1.95-5.43,3.88-2.71,4.46-4.35,8.48-9.79,10.25-3.41,1.21-7.64.85-10.56,3.11.47,1.2,1.22,2.27,1.94,3.32.63,1.28-.32,2.74-1.65,2.81Z"/><path d="M179.19,270.21c-1.36.1-2.96.25-4.23-.3-1.37-.8-1.11-3.05.42-3.49,2.64-.13,4.26.43,5.83-2.32,1.25-2.01,1.66-4.39,2.88-6.4,2.59-4.31,7.48-6.62,10.42-10.56,1.08-2.78-.95-5.71.02-8.57.69-2.18,2.14-4.07,3.45-5.91.67-.83,1.98-.85,2.75-.18,2.07,2.05-1.7,4.65-2.32,6.74-.75,2.19.64,4.43.35,6.66-.16,1.8-.78,3.58-2.06,4.89-2.8,2.75-6.09,5.02-8.64,8.02-2.59,4-3.26,10.39-8.87,11.44Z"/><path d="M196.59,267.87c-1.5-.15-3.49.62-4.54-.81-.58-.83-.37-2.18.54-2.7,1.63-.76,3.6-.09,5.34-.49h.01c3.95-3.46,4.45-9.23,7.9-13.1,1.55-1.98,3.34-3.74,4.96-5.65.64-1.45.36-3.14.29-4.68-.05-1.7-1.22-3.29-.68-4.98.48-1.93,2.31-5.48,4.67-3.72,1.82,1.73-.58,3.02-.91,4.72,2.64,10.14-.06,10.4-5.83,17.41-3.47,4.55-4.51,14.19-11.75,14Z"/><path d="M220.38,143.08c-1.07.29-2.15,1.03-3.22.21-.65-.46-.94-1.34-.74-2.11,1.05-2.66,4.66-.7,5.17-4.62-1.16-12.34-5.27-10.47.93-24.09-.08-4.07-2.04-7.8-2.48-11.81-.37-4.75.28-9.55.44-14.31.06-2.51,3.9-2.53,3.89.03-.22,4.32-.57,8.64-.55,12.97.19,3.46,1.8,6.62,2.24,10.04.61,2.44.43,5.02-1.06,7.11-.96,2.1-1.63,4.34-1.91,6.63-.14,3.85,2.08,7.19,2.24,11,.73,3.6-1.04,8.2-4.96,8.94Z"/><path d="M228.64,156.93c-2.48,1.51-4.46-2.46-1.73-3.56,1.15-.53,3.06-.14,3.34-1.74,1.4-4.5-1.24-9.23.58-13.76,1.55-6.31,3.43-12.57,3.04-19.14-.76-2.71-2.9-4.81-3.63-7.54-.61-2.45,3.11-3.42,3.77-.96,1.05,3.05,3.76,5.55,3.79,8.94-.09,2.77-.3,5.56-.47,8.33-.85,4.45-2.35,8.77-3.15,13.24-.68,3.32.96,6.67.31,10.02-.42,3.3-2.37,5.94-5.87,6.17Z"/><path d="M238.42,165.46c-.95.14-1.92.14-2.87.28-.02,0-.04,0-.06.01,0,0,0,0,0,0-2.56.75-3.53-3.2-.94-3.77,1.14-.26,2.33-.22,3.48-.39,4.54-1.91,1.32-7.56,2.68-11.2.66-3.88,1.79-7.67,2.31-11.56.2-3.44-.43-6.43-.52-9.8-.04-2.5,3.95-2.5,3.89.03.12,3.58.81,7.12.44,10.71-.68,4.46-2.06,8.81-2.6,13.21.32,5.54.77,10.83-5.83,12.5Z"/><path d="M334.93,243.5c.06.02.12.04.18.06-.19.66-.41,1.31-.67,1.94-.17.42-.35.84-.55,1.26-.07.14-.14.28-.21.42-.03-.01-.06-.02-.09-.04-1.16-.39-2.31-.84-3.46-1.26-2.08-.76-4.17-1.52-6.25-2.28-4.33-1.58-8.65-3.15-12.98-4.73-8.55-3.12-17.1-6.23-25.65-9.35-8.62-3.14-17.23-6.28-25.85-9.42-8.78-3.19-17.56-6.39-26.34-9.6-8.87-3.23-17.74-6.47-26.61-9.69-8.91-3.25-17.83-6.49-26.74-9.74-8.87-3.24-17.75-6.47-26.63-9.7-8.69-3.17-17.39-6.34-26.08-9.5-8.67-3.16-17.34-6.32-26.01-9.48-8.5-3.1-17.01-6.2-25.51-9.3-8.85-3.23-17.7-6.45-26.55-9.67-.48-.17-.97-.35-1.45-.53.15-1.32.32-2.63.48-3.95.08.02.16.04.24.07.06.02.12.05.19.07.18.07.36.13.54.2.02,0,.04.01.05.02,8.23,3.02,16.47,6,24.71,9,8.53,3.11,17.05,6.21,25.58,9.32,8.67,3.16,17.35,6.32,26.03,9.48,8.65,3.15,17.29,6.3,25.94,9.45,8.92,3.25,17.84,6.5,26.76,9.75,8.82,3.21,17.63,6.43,26.45,9.64,8.85,3.22,17.69,6.44,26.54,9.67,8.85,3.23,17.7,6.45,26.54,9.67,8.71,3.18,17.43,6.35,26.14,9.53,8.48,3.09,16.96,6.18,25.45,9.27,8.37,3.05,16.74,6.1,25.12,9.15l.44.17c.12.04.23.08.25.08Z"/><path d="M333.38,241.21c.95.47,1.21,1.79.7,2.66-.22.38-.57.67-.97.83-.07.03-.13.05-.2.07-.52.14-1.02.04-1.26-.08-.47-.2-.97-.37-1.45-.56-1.85-.71-3.7-1.42-5.55-2.12-3.07-1.17-6.14-2.35-9.21-3.52-7.91-3.02-15.82-6.06-23.74-9.08-8-3.06-16-6.12-24-9.18-7.58-2.9-15.17-5.8-22.75-8.7-8.08-3.09-16.17-6.18-24.25-9.28-8.34-3.19-16.68-6.38-25.02-9.57-8.34-3.19-16.69-6.38-25.03-9.57-8.44-3.23-16.88-6.46-25.33-9.69-8.49-3.24-16.97-6.49-25.46-9.74-8.57-3.28-17.13-6.55-25.7-9.83-8.68-3.32-17.36-6.64-26.04-9.96-6.61-2.53-13.23-5.02-19.82-7.58.17-1.32.33-2.65.49-3.97.06.02.12.04.17.06,8,3.1,16.04,6.13,24.05,9.2,8.67,3.32,17.35,6.64,26.02,9.95,8.58,3.28,17.15,6.56,25.73,9.84,8.48,3.25,16.97,6.49,25.46,9.74,8.26,3.16,16.52,6.32,24.78,9.48,8.44,3.23,16.88,6.46,25.32,9.69,8.39,3.21,16.77,6.41,25.15,9.62,8.08,3.09,16.17,6.18,24.25,9.27,7.55,2.89,15.11,5.78,22.66,8.67,7.95,3.04,15.9,6.08,23.85,9.12,7.92,3.03,15.84,6.06,23.76,9.09l7.9,3.02c1.39.53,2.78,1.06,4.16,1.59.44.17.89.32,1.31.53Z"/><path d="M48.97,132.4c1.19.46,2.38.92,3.57,1.38-.34,2.77-.71,5.54-1.05,8.31-.14.63-.15,1.42-.22,2.19-.78-.28-1.56-.57-2.34-.85-.48-.17-.97-.35-1.45-.53.23-1.97.48-3.94.74-5.91.2-1.55.39-3.1.58-4.64.06.02.12.04.17.06Z"/><path d="M81.29,151.08l1.67.61c-15.42,7.42-30.63,15.27-46.48,21.75l-.48-.17c-1.07-.58-3.18-.95-4.95-1.56.27-.39.69-.66,1.15-.77,3.67-1.27,7.2-2.89,10.74-4.49,11.85-5.24,23.37-10.99,34.95-16.61,1.13.41,2.27.83,3.4,1.24Z"/><path d="M85.27,146.29c1.67.64,3.34,1.28,5.02,1.92-1.62.76-3.25,1.53-4.87,2.3-1.66-.64-3.32-1.27-4.98-1.9,1.61-.78,3.22-1.55,4.83-2.32Z"/><path d="M84.68,149.1c.34.5.67,1.01,1,1.51-.09-.03-.18-.07-.27-.1-1.66-.64-3.32-1.27-4.98-1.9-.33-.13-.66-.25-.98-.38-3.07-4.81-6.05-9.69-9.14-14.47-7.24-11.11-14.4-21.94-21.94-32.8,1.89.37,3.76.81,5.62,1.27,10.61,15.37,20.64,31.12,30.68,46.86Z"/><path d="M91.39,158.9c-2.15-.78-4.29-1.57-6.44-2.35-1.25-1.8-2.46-3.63-3.66-5.47l1.67.61c1.52.56,3.05,1.11,4.57,1.66,1.26,1.87,2.54,3.72,3.87,5.55Z"/><path d="M73.14,181.79c-1.6.86-3.2,1.7-4.83,2.49-5.31-1.77-10.61-3.56-15.91-5.36-5.49-1.81-10.95-3.71-16.4-5.65-1.07-.58-3.18-.95-4.95-1.56.27-.39.69-.66,1.15-.77,1.44-.5,2.85-1.05,4.25-1.63,5.15,1.81,10.3,3.64,15.48,5.36,7.07,2.37,14.13,4.78,21.21,7.13Z"/><path d="M157.36,178.8c1.88.68,3.76,1.37,5.65,2.05-14.6,5.3-29.36,10.17-44.15,14.87-7.42,2.14-14.91.2-21.96-2.32-7.67-2.3-15.3-4.74-22.91-7.25,1.59-.82,3.18-1.66,4.75-2.52,5.87,1.92,11.76,3.78,17.68,5.54,5.74,1.72,11.43,4.26,17.53,3.46,4.96-.53,9.6-2.49,14.28-4.1,6.61-2.25,13.31-4.24,19.92-6.51,3.08-1.03,6.15-2.11,9.2-3.22Z"/><path d="M163.92,176.37c1.84.7,3.69,1.41,5.53,2.11-1.85.69-3.7,1.37-5.55,2.04-1.84-.71-3.67-1.41-5.51-2.11,1.85-.68,3.69-1.36,5.53-2.05Z"/><path d="M106.09,118.55c.5,1.63,1,3.26,1.51,4.89-.1-.04-.21-.09-.31-.13-2.69-1.14-5.37-2.31-8.06-3.43-2.47-1.02-4.98-1.95-7.5-2.83-3.8-1.3-7.65-2.49-11.49-3.66-3.76-1.15-7.54-2.24-11.34-3.22-3.58-.92-7.17-1.82-10.75-2.79-2.17-.59-4.34-1.17-6.53-1.7-1.07-1.57-2.15-3.13-3.24-4.7,2.51.5,5,1.1,7.47,1.75,1.8.47,3.6.97,5.4,1.46,1.81.49,3.63.94,5.45,1.4,3.81.97,7.6,1.99,11.37,3.09,3.81,1.12,7.59,2.31,11.38,3.52,3.8,1.21,7.55,2.58,11.25,4.08,1.81.74,3.61,1.51,5.41,2.28Z"/><path d="M146.09,174.69c1.59.58,3.19,1.16,4.78,1.74.95,2.57,1.94,5.14,2.9,7.7-1.22.43-2.45.86-3.67,1.28-.14-.39-.29-.78-.44-1.16-.31-.81-.61-1.62-.92-2.43.96-.32,1.91-.65,2.86-.98-1.25-.46-2.49-.91-3.74-1.36-.59-1.6-1.19-3.19-1.79-4.79Z"/><path d="M135.61,132.57c.29.52.47,1.08.66,1.64.54,1.56,1.06,3.14,1.56,4.72,1.03,3.24,2.03,6.48,3.09,9.71.26.8.53,1.6.8,2.4.13.39.26.78.39,1.17.05.14.09.27.14.41.09.2.15.42.21.63,2.51,7.44,5.32,14.78,8.04,22.15-1.61-.62-3.22-1.23-4.83-1.85-.06-.14-.11-.29-.16-.43-1.43-3.82-2.84-7.64-4.23-11.48-.69-1.9-1.37-3.81-2.02-5.72-.18-.52-.35-1.04-.53-1.57,0-.02-.01-.04-.02-.07-.17-.38-.27-.81-.4-1.2-.27-.8-.53-1.6-.8-2.4-.54-1.63-1.06-3.27-1.58-4.91-.93-2.96-1.85-5.93-2.76-8.63-.29-.87-.55-1.77-.92-2.61-.01-.03-.03-.05-.05-.08-.01-.02-.03-.04-.04-.06-.04-.04-.08-.08-.12-.12-.25-.21-.51-.4-.77-.59-.71-.46-1.46-.87-2.22-1.26-1.68-.82-3.41-1.55-5.14-2.27-1.8-.75-3.6-1.49-5.41-2.22-1.82-.74-3.64-1.48-5.45-2.23-.45-1.59-.89-3.18-1.34-4.77l.12.05c3.72,1.55,7.46,3.06,11.19,4.59,1.8.74,3.59,1.48,5.37,2.25,1.8.78,3.61,1.63,5.23,2.75.77.54,1.52,1.15,1.99,1.98Z"/><path d="M84.17,176.02c-.16.09-.33.17-.5.23-5.21,2.45-10.17,5.52-15.37,8.03-1.82-.61-3.64-1.21-5.45-1.82,4.94-2,9.53-4.79,14.27-7.22.47-.25.95-.5,1.42-.75,1.88.51,3.75,1.02,5.63,1.53Z"/><path d="M95.54,179.33c-.05.03-.11.05-.17.08-5.46,2.7-10.85,5.56-16.23,8.43-1.72-.56-3.43-1.12-5.15-1.68,1.69-.88,3.38-1.77,5.05-2.68,3.24-1.72,6.49-3.42,9.75-5.09.44-.23.89-.46,1.33-.68,1.81.53,3.62,1.07,5.42,1.63Z"/><path d="M95.54,179.33c-.05.03-.11.05-.17.08-1.64.81-3.26,1.63-4.89,2.47-5.05-1.52-10.12-2.98-15.24-4.24-.59-.17-1.19-.32-1.79-.46,1.22-.66,2.45-1.32,3.68-1.95.47-.25.95-.5,1.42-.75,5.68,1.54,11.37,3.08,16.99,4.85Z"/><path d="M116.29,122.83c1.68,5.94,3.32,11.88,5.13,17.79-1.55-.65-3.09-1.31-4.64-1.96-.54-1.86-1.07-3.73-1.62-5.58-1.19-4.04-2.3-8.09-3.45-12.14l.12.05c1.49.62,2.98,1.23,4.47,1.84Z"/><path d="M106.09,118.55c1.85,6,3.72,12.04,5.61,17.97-1.57-.66-3.15-1.31-4.71-1.97-.25-.8-.5-1.59-.74-2.39-1.6-5.2-3.26-10.39-4.86-15.59,1.57.65,3.14,1.31,4.71,1.99Z"/><path d="M113.31,132.97c2.22.94,4.45,1.88,6.67,2.82.47,1.61.95,3.22,1.44,4.83-2.78-1.17-5.56-2.35-8.34-3.53-2.03-.86-4.07-1.7-6.09-2.55-.25-.8-.5-1.59-.74-2.39-.26-.83-.51-1.67-.77-2.5,2.62,1.09,5.22,2.22,7.84,3.32Z"/><path d="M157.23,177.64c-2.27-1.03-3.22-4.11-4.64-6.07-1.76-3-3.43-6.06-5.05-9.15-3.59-6.87-6.94-13.85-10.6-20.68-1.08-2.04-2.14-3.97-3.18-5.76-.84-1.59-2.99-3.97-.73-5.33,1.28-.68,2.58.19,2.98,1.47,4.38,7.42,8.11,15.03,12,22.7,2.35,4.63,4.74,9.24,7.3,13.71,1.21,2.1,2.45,4.2,3.91,6.12.99,1.33-.38,3.36-1.98,2.99Z"/><path d="M114.56,195.29c-1.03.3-2.07.74-3.15.79-1.96-.02-2.71-2.64-.99-3.64,8.54-2.4,16.86-5.88,24.29-10.71,2.37-1.58,4.54-3.45,6.4-5.61.66-1,1.98-1.53,3.02-.74,2.39,2.25-1.56,4.6-2.94,6.22-7.62,6.58-17.19,10.48-26.63,13.68Z"/><path d="M326.13,252.96c-3.08-3.62,4.86-2.6,5.97-14.27.67-2.63-.49-5.5.23-7.97.86-1.43,3.3-.98,3.53.69.94,7.18-.23,15.54-5.89,20.58-.95,1.08-2.53,2.08-3.85.97Z"/><path d="M460.68,113.76c.47.85.89,1.74,1.26,2.64.51,1.31.93,2.64,1.29,4,.6,2.4,1,4.82,1.28,7.28.45,4.18.57,8.39.51,12.59-.14,8.21-1.01,16.65-2.21,25.02-1.03,7.06-2.37,14.32-3.9,21.54-2.08,9.82-4.54,19.57-7.22,29.24-2.12,7.52-4.36,15-6.75,22.44-.18.55-.36,1.11-.54,1.66-1.88-.86-3.67-1.91-5.26-3.28-1.07-1.24-1.45-2.92-2.36-4.28-1.87-3.04-4.22-6.24-7.6-7.66-4.82-1.1-9.8-1.57-14.74-1.8-2.94.07-7.87-.45-9.26,2.77-.4,2.04,1.81,2.6,3.38,2.77,6.62,1.6,13.24,4.28,18.74,8.37,2.51,2.87,1.99,7.19,3.69,10.54.91,2.45,2.05,5.11,4.26,6.65,1.27.56,2.57,1.07,3.88,1.55-1.3,3.68-2.63,7.35-3.99,11.01-3.54,9.53-7.3,18.98-11.24,28.36-1.71,4.03-3.45,8.07-5.24,12.08-4.16,9.35-8.54,18.62-13.16,27.75-4.54,8.97-9.31,17.83-14.36,26.53-1.71,2.93-3.52,5.96-5.38,8.97-5.05,8.15-10.39,16.12-16.21,23.75-.23.3-.47.61-.71.91-1.66-.22-3.32-.45-4.98-.69-8.92-1.31-18.08-3.53-27.11-4.43-1.29-.28-2.2.76-2.27,1.84-.17.42-.18.96.06,1.6.28.52.71.93,1.3,1.06,1.89.84,3.71,1.6,5.62,2.41,6.33,2.77,12.71,5.46,19.1,8.11-.86.95-1.74,1.88-2.64,2.8,0,0,0,0-.01.01-2.28,1.82-4.67,3.64-7.4,4.71-12.82,1.55-29.65-4.81-41.92-8.85-4.09-1.55-8.17-3.14-12.16-4.92.17-.08.33-.16.5-.24,2.12-1.07,4.05-2.47,5.84-4.02,2.81-2.43,5.33-5.2,7.68-8.06,3.15-3.83,6.09-7.84,8.86-11.95,5.54-8.22,10.59-16.76,15.35-25.45,4.95-9.04,9.63-18.23,14.09-27.52,4.47-9.32,8.74-18.73,12.83-28.22,0,0,.11-.24.21-.48,3.24-7.51,6.39-15.11,9.44-22.75,3.71-9.31,7.28-18.68,10.7-28.1,3.4-9.37,6.65-18.79,9.73-28.27,2.89-8.91,5.65-17.87,8.24-26.87.03-.08.06-.17.07-.26,0,0,0-.01,0-.02.28-.96.55-1.93.82-2.89,2.83-10.01,5.44-20.07,7.71-30.22,1.1-4.89,2.12-9.8,3.04-14.72.83-4.47,1.54-8.95,2.2-13.45,0,0,0-.01,0-.02,0-.05.02-.1.02-.16,0-.02,0-.03,0-.05.55-4.03,1.01-8.07,1.29-12.13.3-4.4.45-8.84.12-13.25-.17-2.2-.43-4.42-.96-6.56-.43-1.73-.99-3.46-1.88-5.01,3.16.28,6.36.4,9.49,1.26,11.37,2.65,22.14,7.33,32.29,13.07.03.02.07.04.1.05.23.7.45,1.41.64,2.12-.22-.04-.44-.08-.66-.1-1.05-.13-2.01.76-2.1,1.78-.07.92.59,1.92,1.54,2.06.03,0,.05,0,.08.01h0c.34.06.68.13,1.01.22.31.09.61.2.91.32.01,0,.02,0,.04.01.31.13.61.28.91.44.32.19.63.4.93.62.34.27.66.56.98.86.37.39.72.79,1.06,1.21.4.55.77,1.12,1.11,1.7Z" fill="#cabbae"/><path d="M408.96,90.03c.25.45.47.92.67,1.4.31.8.56,1.6.78,2.43.34,1.41.56,2.85.73,4.3.31,2.93.37,5.88.32,8.83-.14,5.93-.75,11.84-1.55,17.72,0,.03,0,.05-.01.08-.16,1.07-.3,2.13-.46,3.2-1.29,8.42-2.94,16.78-4.83,25.08-2.32,10.25-4.96,20.42-7.83,30.53-.19.68-.38,1.36-.58,2.03,0,.02-.02.04-.02.07-.19.66-.38,1.32-.57,1.98-.34,1.18-.68,2.36-1.03,3.54-1.46,4.92-2.96,9.82-4.51,14.71-3.09,9.75-6.36,19.44-9.78,29.08-3.31,9.33-6.77,18.62-10.38,27.83-3.68,9.37-7.48,18.69-11.46,27.94-.08.19-.21.49-.34.79-.03.06-.12.29-.22.51-1.68,3.86-3.47,7.94-5.3,12-4.16,9.24-8.51,18.41-13.09,27.46-4.56,9.01-9.33,17.91-14.46,26.61-4.69,7.91-9.64,15.69-15.26,22.98-2.3,2.94-4.7,5.8-7.34,8.44l-.03.04s-.02.01-.02.02c-1.23,1.2-2.53,2.35-3.91,3.42-.77.56-1.55,1.09-2.37,1.58-.53.29-1.07.56-1.62.8-.36.14-.72.25-1.09.36-.25.06-.51.11-.77.14-.2.01-.4.03-.6.03-.17,0-.33-.02-.5-.04-.14-.03-.28-.06-.42-.09-.16-.05-.32-.1-.47-.17-.12-.06-.24-.12-.35-.18-.15-.09-.29-.19-.42-.29-.11-.09-.22-.18-.32-.28-.17-.18-.33-.36-.48-.55-.19-.27-.37-.55-.54-.84-.26-.47-.48-.96-.69-1.46-.25-.67-.47-1.34-.66-2.03-.38-1.53-.63-3.07-.82-4.62-.31-2.96-.37-5.93-.32-8.9.16-7.04,1.01-14.09,2.06-21.1.03-.22.07-.46.11-.69,1.45-9.18,3.29-18.29,5.41-27.34,2.27-9.71,4.81-19.35,7.55-28.93.05-.16.16-.56.28-.97,0-.02.01-.04.02-.06.16-.55.32-1.1.48-1.64.34-1.15.67-2.31,1.01-3.46,1.18-3.99,2.39-7.96,3.64-11.93-.19,1.77-.32,3.55-.4,5.33-.13,3.14-.1,6.32.49,9.42.34,1.78.83,3.63,1.81,5.17.66,1.03,1.48,2.04,2.58,2.62,1.57.82,3.41.97,5.11.44.32-.1.63-.21.95-.34,1.43-.57,2.73-1.38,3.94-2.33,2.45-1.92,4.57-4.25,6.52-6.66,4.67-5.76,8.51-12.19,12.03-18.7,3.43-6.35,6.49-12.88,9.31-19.52,2.93-6.9,5.58-13.93,7.93-21.06,2.31-7.02,4.36-14.14,5.99-21.35,0-.02,0-.04.02-.07,0-.02,0-.03.01-.05.37-1.62.71-3.25,1.03-4.88.69-3.53,1.29-7.1,1.68-10.68.38-3.48.6-6.97.47-10.47-.08-1.86-.25-3.73-.65-5.55-.41-1.88-1.08-3.83-2.3-5.34-.98-1.2-2.26-2.06-3.8-2.35-1.75-.32-3.54.17-5.1.94-1.44.71-2.75,1.67-3.97,2.71-1.47,1.26-2.81,2.66-4.09,4.12-1.32,1.5-2.56,3.08-3.74,4.7-.02.02-.03.04-.04.06-.12.17-.24.33-.36.5-.38.53-.76,1.06-1.13,1.61,1.02-2.35,2.09-4.76,3.17-7.17,4.36-9.72,8.92-19.35,13.7-28.86,4.73-9.43,9.78-18.69,15.12-27.79,2.33-3.87,4.68-7.72,7.18-11.48,2.56-3.85,5.22-7.62,8.04-11.29,2.08-2.62,4.22-5.18,6.56-7.57.09-.09.18-.19.28-.28.02-.02.04-.03.06-.06.14-.14.28-.28.42-.42.37-.35.74-.71,1.12-1.05.77-.68,1.55-1.34,2.36-1.97.82-.6,1.66-1.17,2.54-1.69.57-.31,1.15-.59,1.74-.84.36-.13.72-.24,1.08-.34.22-.05.45-.09.68-.12.25-.02.49-.03.74-.04.14,0,.28.02.41.04.15.03.31.06.46.1.1.04.2.07.29.11.14.06.27.13.4.2.13.08.25.17.37.26.16.13.31.27.47.41.16.17.31.35.46.53.17.23.33.47.48.72Z" fill="#e5d4c5"/><path d="M360.76,179.96c.18.42.34.84.48,1.27.21.7.37,1.41.51,2.13.22,1.34.34,2.7.4,4.05v.03s0,0,0,0t0,0h0s0,.03,0,.04c0,.06,0,.11,0,.17,0,0,0,.01,0,.02.08,2.61-.05,5.22-.29,7.82-.54,5.73-1.58,11.4-2.84,17.01l-.02.07s-.02.08-.03.12c-.58,2.51-1.21,5.07-1.9,7.6-1.93,7.16-4.2,14.23-6.74,21.2-1.12,3.06-2.34,6.22-3.62,9.36-2.71,6.63-5.67,13.17-8.95,19.54,0,0,0,.02-.02.03-.03.06-.06.12-.09.17-2.85,5.48-5.95,10.9-9.49,16.04-1.61,2.32-3.46,4.79-5.51,7.08-1.03,1.14-2.12,2.24-3.28,3.25-.63.53-1.28,1.02-1.96,1.47-.43.27-.88.52-1.34.75-.26.12-.53.22-.8.32-.23.07-.47.13-.71.17-.15.02-.29.04-.44.05-.13,0-.26,0-.39,0-.11-.01-.21-.03-.32-.05-.08-.02-.16-.04-.24-.07-.07-.03-.14-.06-.21-.1-.08-.04-.15-.08-.22-.13-.08-.06-.15-.12-.23-.18-.1-.1-.2-.2-.29-.3-.13-.17-.26-.33-.38-.51-.16-.26-.3-.52-.44-.8-.17-.4-.33-.81-.47-1.22-.22-.74-.4-1.49-.54-2.26-.21-1.34-.34-2.69-.4-4.05v-.03s0-.07,0-.11c-.09-2.64.05-5.38.31-8.1.52-5.48,1.55-11.17,2.82-16.78.59-2.59,1.24-5.18,1.93-7.75,1.32-4.91,2.8-9.78,4.42-14.6,2.4.61,4.78,1.25,7.17,1.92,1.11.41,2.22.81,3.33,1.22-2.55,4.32-6.09,4.51-3.86,7.13,1.32,1.11,2.89.11,3.85-.97,1.56-1.39,2.77-3.02,3.7-4.82.06-.11.12-.23.18-.35l.04-.07s.01-.03.02-.05c.02-.05.05-.1.07-.16.06-.13.12-.25.17-.38,0-.01.02-.03.02-.05.09-.21.18-.41.26-.62,0,0,0-.01,0-.02.04-.09.07-.18.1-.27.03-.06.05-.13.07-.2.03-.07.06-.15.08-.23.01-.03.02-.06.03-.09,0-.02.01-.03.02-.05.02-.05.04-.1.05-.15.03-.07.05-.14.07-.22.01-.04.02-.07.04-.11,0-.02.02-.04.02-.06,0-.02.01-.05.02-.07.05-.16.1-.33.15-.49.05-.16.09-.31.13-.47.05-.17.09-.33.13-.5,0-.03.02-.06.02-.08.04-.18.08-.35.12-.53.76-3.47.79-7.15.35-10.57-.23-1.67-2.68-2.12-3.53-.69-.72,2.47.44,5.34-.23,7.97-.06.63-.14,1.22-.23,1.77-.2-.08-.4-.17-.61-.25-3.17-1.34-6.31-2.75-9.41-4.23.97-2.65,2.02-5.4,3.12-8.13,2.85-7.05,5.97-13.99,9.45-20.76,0,0,.01-.03.03-.06l.07-.13c2.32-4.47,4.81-8.9,7.56-13.16.03-.04.06-.09.09-.14.18-.28.36-.56.55-.84.4-.59.79-1.18,1.19-1.77.03-.04.06-.09.09-.13.02-.02.03-.05.05-.08.1-.14.19-.28.29-.41,1.61-2.3,3.33-4.53,5.2-6.63,1.02-1.12,2.09-2.21,3.24-3.21h.01s.08-.08.12-.11c.53-.44,1.18-.93,1.85-1.38.42-.26.86-.51,1.31-.73.28-.12.57-.24.87-.34.22-.06.43-.12.65-.16.15-.02.31-.04.46-.05.11,0,.23,0,.34.01.1.01.2.03.3.05.08.02.15.04.23.07.08.03.16.07.24.11.08.05.16.1.24.15.08.06.16.13.24.19.1.1.21.21.3.32.12.15.23.31.35.47.16.27.32.54.46.82Z" fill="#ea7765"/><path d="M127,171.87c4.51,1.64,9.01,3.28,13.52,4.92-1.72,1.88-3.68,3.53-5.81,4.94-7.44,4.83-15.75,8.3-24.29,10.71-.14.08-.27.18-.38.29-4.66-.36-9.12-2.2-13.62-3.55-4.19-1.25-8.36-2.54-12.51-3.87,2.18-1.16,4.37-2.3,6.57-3.43.09-.05.17-.09.26-.13.32-.17.64-.33.96-.49.04-.03.09-.05.14-.07.5-.26.99-.51,1.49-.75.68-.34,1.36-.68,2.04-1.02.06-.02.11-.05.17-.08-.64-.2-1.28-.4-1.93-.59-1.16-.36-2.32-.7-3.49-1.04h0c-1.98-.58-3.96-1.13-5.95-1.68-.06-.02-.13-.03-.19-.05-.87-.24-1.75-.48-2.62-.72-.94-.25-1.87-.51-2.81-.76-.48.25-.95.5-1.42.75-.3.15-.59.3-.89.46-.3.15-.59.31-.88.47-.64.34-1.27.68-1.91,1.02-1.81.98-3.61,1.96-5.45,2.89-5.36-1.8-10.71-3.62-16.07-5.41-3.38-1.12-6.75-2.29-10.11-3.47,12.28-5.29,24.23-11.28,36.26-17.14,2.29.83,4.58,1.67,6.87,2.5,2.15.78,4.3,1.56,6.44,2.35,3.2,1.17,6.4,2.33,9.6,3.5,8.67,3.16,17.34,6.32,26.01,9.48Z" fill="#cabbae"/><path d="M132.24,134.53c.37.84.63,1.75.92,2.61.91,2.71,1.82,5.67,2.76,8.63.52,1.64,1.04,3.28,1.58,4.91.27.8.53,1.6.8,2.4.13.38.23.82.4,1.2,0,.02.01.04.02.07.17.52.35,1.04.53,1.57.65,1.92,1.34,3.82,2.02,5.72.85,2.36,1.71,4.71,2.58,7.06-6.36-2.43-12.72-4.87-19.08-7.3-8.58-3.28-17.15-6.56-25.73-9.84-2.92-1.11-5.84-2.23-8.76-3.35-1.67-.64-3.34-1.28-5.02-1.92-1.05-.4-2.1-.8-3.15-1.21-8.12-12.73-16.27-25.44-24.76-37.93.26.07.52.14.79.21,3.57.97,7.16,1.87,10.75,2.79,3.8.98,7.58,2.08,11.34,3.22,3.84,1.17,7.69,2.36,11.49,3.66,2.52.88,5.03,1.81,7.5,2.83,1.23.51,2.45,1.03,3.67,1.55.86,2.74,1.72,5.48,2.57,8.22.26.83.52,1.67.77,2.5.25.8.49,1.6.74,2.39,1.56.66,3.14,1.31,4.71,1.97.46.19.92.39,1.37.58,2.78,1.18,5.56,2.35,8.34,3.53-.32-1.06-.64-2.12-.95-3.18-.17-.55-.33-1.1-.49-1.65-.8-2.73-1.57-5.47-2.34-8.21.29.12.58.24.86.35,1.81.73,3.61,1.47,5.41,2.22,1.73.72,3.46,1.45,5.14,2.27.76.39,1.51.8,2.22,1.26.27.19.52.38.77.59.04.04.08.08.12.12.01.02.03.04.04.06.02.03.03.05.05.08Z" fill="#cabbae"/><path d="M147.88,179.48c1.25.45,2.49.91,3.74,1.36-.95.33-1.91.66-2.86.98-.2.07-.4.13-.59.2-4.52,1.56-9.09,2.98-13.64,4.45,2.34-1.44,4.58-3.05,6.67-4.86.8-.94,2.46-2.12,3.25-3.39,1.15.41,2.29.83,3.44,1.25Z" fill="#cabbae"/><path d="M153.01,172.19c-.93-.36-1.85-.71-2.78-1.06l-1.54-.59c-2.14-5.75-4.28-11.49-6.24-17.3-.07-.21-.13-.43-.21-.63-.04-.14-.09-.27-.14-.41-.13-.39-.26-.78-.39-1.17-.02-.07-.05-.14-.07-.21,1.96,3.87,3.89,7.75,5.9,11.59,1.61,3.09,3.28,6.15,5.05,9.15.14.2.28.41.42.62Z" fill="#cabbae"/><path d="M195.69,192.68c1.47.56,2.95,1.13,4.42,1.69-7.37-2.68-14.74-5.37-22.11-8.06-5-1.82-10-3.64-14.99-5.46-1.88-.69-3.76-1.37-5.64-2.06-2.04-.74-4.08-1.49-6.12-2.23l-.36-.13c-1.59-.58-3.19-1.16-4.78-1.74-6.93-2.53-13.87-5.05-20.79-7.58-8.68-3.16-17.36-6.32-26.03-9.48-3.92-1.43-7.83-2.86-11.75-4.28-1.52-.56-3.05-1.11-4.57-1.66l-1.67-.61c-1.13-.41-2.27-.83-3.4-1.24-1.4-.51-2.8-1.02-4.2-1.53-7.32-2.67-14.66-5.31-21.98-8,.11-.85.22-1.71.33-2.56,5.36,2.06,10.73,4.09,16.09,6.14,3.78,1.44,7.55,2.89,11.33,4.33.33.12.65.25.98.38,1.66.63,3.32,1.27,4.98,1.9.09.03.18.07.27.1,2.83,1.08,5.66,2.16,8.48,3.25,8.57,3.28,17.13,6.55,25.7,9.83,8.48,3.25,16.97,6.49,25.46,9.74.11.04.23.09.34.13,1.61.62,3.22,1.23,4.83,1.85,2.63,1.01,5.27,2.01,7.9,3.02,1.83.7,3.67,1.4,5.51,2.11,2.25.86,4.5,1.72,6.76,2.58,8.34,3.19,16.69,6.38,25.03,9.57Z" fill="#e5d4c5"/><path d="M372.1,382.48c-13.47-4.3-25.93-11.32-39.4-15.7-2.42-.7-1.44-4.41,1.03-3.75,9.31,3.23,18.37,7.15,27.4,11.1,3.82,1.66,7.55,3.33,11.5,4.49,2.52.35,2.04,4.21-.53,3.86Z"/><path d="M381.51,362.86c-11.79-5.13-24.07-8.98-35.97-13.81,18.63,21.36,3.82,12.16-11.77,17.5-1.76.49-3.2-1.7-2.02-3.11.56-.7,1.63-.95,2.45-1.19,5.01-1.2,10.2-1.59,15.34-1.91-3.23-4.54-7.06-8.64-10.42-13.07-.97-1.5-.07-3.65,1.82-3.66,3.98.53,7.62,2.65,11.39,3.96,10.26,3.84,20.64,7.37,30.71,11.71,2.31.96.79,4.59-1.53,3.58Z"/><path d="M381.04,353.13c-10.2-4.87-20.92-8.54-31.21-13.2-1.63-.99-4.41-1.24-4.97-3.31-.2-1.33,1.07-2.52,2.38-2.19,1.01.4,2.07,1.05,3.04,1.44,10.74,4.91,21.94,8.73,32.59,13.82,2.22,1.15.4,4.63-1.84,3.43Z"/><path d="M347.35,337.81c-1.84.06-2.52-2.18-1.44-3.47,1.35-2.63,2.53-5.34,3.79-8.01.93-2.04,1.85-4.1,2.73-6.16.42-.98,1.49-1.51,2.51-1.13.96.37,1.54,1.54,1.13,2.51-1.49,3.5-3.08,6.97-4.71,10.41-1.13,1.75-1.68,5.58-4.02,5.85Z"/><path d="M364.46,344.12c-2.23-.6-1.34-3.09-.75-4.62,1.19-3.44,2.52-6.83,3.83-10.23.88-2.36,4.56-.97,3.64,1.38-.75,1.92-1.49,3.85-2.22,5.79-.67,1.78-1.34,3.56-1.91,5.37-.19,1.32-1.08,2.68-2.59,2.31Z"/><path d="M382.3,353.66c-2.45.32-3.17-3.28-.73-3.85,2.21-3.82,3.79-7.96,5.62-11.96.95-2.35,4.53-1,3.64,1.38-1.76,2.98-5.12,14.56-8.52,14.43Z"/><path d="M392.26,329.02c-11.15-4.81-21.81-10.67-33.36-14.43-2.78-1.41-.47-4.91,2.13-3.39,9.96,3.28,19.31,8.27,28.87,12.5,1.55.94,3.82,1.14,4.83,2.72.72,1.48-.94,3.28-2.47,2.6Z"/><path d="M394.83,329.85c-3.01-.19-1.62-4.02-2.43-5.98-2.62-10.97-7.96-19.4-20.57-17.18-3.68.65-6.88,2.67-9.55,5.23-.59,2.23-3.92,1.57-3.89-.64.32-2.46,4.07-4.46,5.96-5.86,8.39-5.08,20.83-3.69,26.59,4.69,1.91,2.72,9.32,19,3.9,19.74Z"/><path d="M405.41,305.51c-11.25-5.3-22.48-10.72-33.92-15.56-1.61-.51-1.64-2.99-.09-3.6,1.22-.52,2.37.44,3.49.84,10.93,4.64,21.6,9.86,32.36,14.89,2.22,1.14.4,4.63-1.84,3.43Z"/><path d="M408.97,297.15c-7.99-6.15-15.2-12.52-23.06-18.57-2.41-2.01-5.24-3.63-7.29-6.02-.56-.9-.26-2.12.64-2.67,1.47-.95,2.64.58,3.61,1.43,6.45,4.95,12.85,10.06,19.08,15.27,3.06,2.51,6.14,4.99,9.27,7.41,2.04,1.45-.23,4.67-2.26,3.17Z"/><path d="M419.67,276.25c-.54-.04-1.08-.15-1.61-.23-.77-.11-1.53-.22-2.3-.33-1.07-.15-2.16-.26-3.22-.48-.54-.11-1.08-.34-1.61-.51l-2.28-.76c-1.68-.56-3.35-1.15-5.05-1.67-.18-.05-.35-.09-.53-.12-1.07-.17-2.15-.31-3.23-.46-1.19-.17-2.39-.39-3.59-.48-.07,0-.14,0-.21,0-1.65.19-3.28.43-4.93.6-1.86.2-3.72-.2-5.58-.29-.13,0-.26,0-.39.01-.07.01-.14.03-.2.04-1.47.37-2.93.74-4.39,1.1-1.03.26-2.11-.24-2.43-1.29-.3-.98.26-2.17,1.29-2.43,1.11-.28,2.22-.56,3.34-.84.6-.15,1.2-.31,1.81-.43.72-.14,1.51-.03,2.24.03,1.05.08,2.09.22,3.14.28.22,0,.43-.01.64-.03.87-.1,1.74-.21,2.6-.32.42-.05.84-.1,1.26-.16.71-.09,1.42-.2,2.14-.16.85.05,1.69.2,2.54.32l2.58.37c.87.12,1.75.21,2.61.41.88.21,1.74.54,2.59.83,1.51.5,3.02,1.01,4.54,1.51.63.21,1.25.42,1.88.63.11.03.21.05.32.07,1.27.2,2.55.36,3.82.54.55.08,1.1.16,1.65.23.3.04.61.1.92.13,1.06.09,1.85,1.08,1.75,2.12-.07.75-.57,1.35-1.22,1.61-.28.11-.58.16-.9.13Z"/><path d="M394.3,284.56c-1.53-.33-2.03-2.45-.79-3.42,1.15-1.95,2.31-4.4,3.22-6.35,1.11-2.45,2.15-4.94,3.04-7.47.86-2.36,4.55-.97,3.64,1.38-1.32,3.76-2.94,7.43-4.72,10.99-1.12,1.72-1.78,5.22-4.39,4.87Z"/></svg>