<?xml version="1.0" encoding="UTF-8"?><svg id="a" xmlns="http://www.w3.org/2000/svg" viewBox="0 0 500 500"><path d="M148.81,392.09c-11.01,5.82-17.89-3.87-24.38-11.34-5.58-6.47-11.01-13.09-16.47-19.67-17.05-20.4-33.53-41.26-50.41-61.8-3.76-4.54-7.63-8.97-11.51-13.41-.7-.77-1.6-1.6-1.36-2.74-7.82-10.99,12.77-22.19,18.9-29.66,11.64-10.81,23.41-21.39,35.2-32.03,12.32-11.1,24.1-22.2,36.13-33.36,13.66-12.46,27.19-25.71,43.94-33.96,7.46-4.33,14.14-1.44,19.42,4.66,7.63,7.29,15.17,14.69,22.45,22.33,14.43,15.2,28.29,30.86,40.86,47.63,9.76,13.97,23.53,30.33,18.27,48.48-2.85,8.24-10.75,13.34-16.23,19.8-34.37,35.92-72.11,69.39-114.83,95.06ZM157.39,382.16c40.88-27.17,77.5-60.05,110.89-95.88,24.08-20.08-8.76-52.19-21.64-69.88-12.81-15.41-26.29-30.26-40.55-44.29-17.02-16.03-16.05-22.24-37.97-6.83-25.84,19.3-47.81,43.16-72.09,64.18-9.66,8.68-19.26,17.42-28.8,26.24-6.47,6.7-14.77,12.13-19.72,20.07-2.22,3.82,2.07,5.04,2.18,8.02,22.42,25.82,43.11,53.09,65.19,79.2,7.39,8.61,14.17,17.9,22.66,25.48,6.82,4.02,14.08-3.08,19.84-6.3Z"/><path d="M51.85,295.13s0,.02,0,.03c0,0,0,0,0,0,0-.01,0-.03,0-.04Z"/><path d="M51.89,295.33s0,0,0-.01c0,0,0,.01,0,.02,0,0,0,0,0,0Z"/><path d="M56.17,291.34c.87,1.03,1.74,2.06,2.61,3.09-1.01.89-2.03,1.79-3.02,2.69-.88-1.05-1.77-2.1-2.67-3.15,1.04-.9,2.08-1.78,3.08-2.63Z"/><path d="M278.49,304.39c.51-.81,1.01-1.62,1.5-2.45-.08,2.34-.44,4.71-1.14,7.11-2.85,8.24-10.75,13.34-16.23,19.8-33.62,35.14-70.49,67.95-112.07,93.39-.92.56-1.83,1.12-2.76,1.67-11.01,5.81-17.89-3.87-24.38-11.34-5.58-6.47-11.01-13.09-16.47-19.67-17.05-20.4-33.53-41.26-50.41-61.8-3.76-4.54-7.63-8.98-11.51-13.41-.7-.77-1.6-1.6-1.36-2.73-2.96-4.15-1.85-8.34.99-12.34.03,1.97.16,3.95.4,5.91.12,2.48,1.56,4.26,3.29,5.79.18.4.3.82.32,1.28,22.42,25.82,43.11,53.09,65.19,79.2,7.4,8.61,14.17,17.9,22.66,25.48,5.36,3.16,10.99-.55,15.96-3.85,1.35-.9,2.65-1.77,3.89-2.46,40.88-27.17,77.5-60.05,110.89-95.88,4.32-3.6,6.81-7.59,7.91-11.82,1.07-.79,1.94-1.96,3.31-1.9Z"/><path d="M273.73,280.17c.76,1.36,1.47,2.73,2.12,4.12-.92,1.16-1.93,2.28-2.97,3.36-.55-1.33-1.17-2.65-1.84-3.98,1.05-1.14,1.94-2.31,2.69-3.5Z"/><path d="M68.3,305.9c1.04,1.27,2.09,2.54,3.12,3.82-.5,1.57-1.02,3.13-1.53,4.69-1.01-1.25-2.03-2.51-3.05-3.76.49-1.58.97-3.16,1.46-4.75Z"/><path d="M55.52,260.94c1.21.04,2.38,1.13,2.01,2.53.3.08.57.23.8.44-1.01.9-2.01,1.8-2.99,2.73h0c-.06-.08-.12-.15-.17-.23-3.72,3.95-7.11,8.24-8.01,13.74-1.73,9.34-3.26,18.93-2.08,28.4.12,2.48,1.56,4.26,3.29,5.79.18.4.3.82.32,1.28,4.39,5.06,8.71,10.17,12.99,15.31-.43.1-.91.12-1.43.06-1.94-.52-3.12-2.32-4.4-3.74-2.02-2.28-4.1-4.51-6.29-6.62-2.4-2.3-5.62-3.86-7.14-6.96-2.87-6.47-1.82-13.86-1.31-20.71.76-6.75,1.44-13.66,4.06-19.99,1.39-2.96,3.51-5.47,5.71-7.9,1.5-1.42,3.1-2.8,4.66-4.13Z"/><path d="M117,398.53c.94,1.14,1.88,2.27,2.81,3.42-.82,1.05-1.87,1.43-3.33.13-.61-.81-.51-1.94.11-2.66.14-.29.28-.59.41-.89Z"/><path d="M128.04,378.7c.89,1.02,1.79,2.03,2.71,3.02-.79.57-1.49,1.3-2.07,2.21-.23.33-.45.66-.66,1-.96-1.09-1.89-2.2-2.82-3.28.84-1.09,1.78-2.09,2.85-2.94Z"/><path d="M162.38,409.94c1.4-.96,2.79-1.92,4.18-2.9.16,2.42-.04,4.83-2.21,4.91-1.39-.11-1.84-.95-1.97-2.01Z"/><path d="M156.86,382.47c.98.9,1.88,1.88,2.71,2.93-1.15.74-2.3,1.48-3.46,2.2-.87-1.02-1.84-1.96-2.89-2.79,1.26-.84,2.48-1.65,3.64-2.34Z"/><path d="M263.99,290.85c.25,1.5.55,3.12.92,4.74-.44.47-.86.95-1.27,1.43-.69.72-1.37,1.43-2.06,2.15-.46-1.46-.85-2.99-1.18-4.55,1.2-1.26,2.4-2.51,3.6-3.78Z"/><path d="M277.52,254.32c9.03,15.44,17.62,30.39,7.27,47.59-3.34,5.92-7.4,11.42-11.49,16.85-.37.53-.96.89-1.61.93-1.52.14-2.67-1.68-1.95-2.97,1.3-1.84,2.85-3.78,4.15-5.65-.22.02-.44.04-.66.05.88-1.56,1.51-3.17,1.94-4.82,1.07-.79,1.94-1.96,3.31-1.9,3.47-5.53,6.91-11.57,7.02-18.21-.19-10.5-5.83-19.95-10.99-28.8-.62-1.64-1.34-3.29-2.15-4.93,1.97-.27,3.92.15,5.17,1.86Z"/><path d="M62.31,258.77c-2.51.04-3.3-3.21-5-4.63-2.21-3.14-6.13-5.83-6.42-9.88.88-7.17,17.34-19.35,22.98-24.85,18.29-15.02,36.45-30.19,54.44-45.56,5.52-3.17,11.58-13.07,17.81-6,2.01,2.12,3.64,4.55,5.41,6.87.67.9.61,2.16-.29,2.89-.84.68-2.23.61-2.89-.29-2.07-2.58-3.75-5.62-6.41-7.66-2.16-.89-3.86,2.26-5.57,3.24-6.74,4.97-13.12,10.38-19.36,15.97-12.26,10.94-25.32,20.93-37.9,31.48-8.09,7.3-16.98,13.95-23.55,22.69-1.64,2.3,1.88,4.24,2.92,6.11,1.36,2.21,9.14,8.46,3.57,9.66,0,0,.27-.02.27-.02Z"/><path d="M47.48,269.75c-3.97-3.69-4.33-9.34-2.07-13.97,1.51-4.74,3.46-9.11,5.56-13.56-.04.1-.07.17-.1.25.87-2.54,4.74-1.3,3.92,1.27-2.02,4.36-4.03,8.73-5.46,13.32-1.59,3.38-1.87,7.27,1.2,9.93,1.79,1.97-1.18,4.73-3.04,2.77Z"/><path d="M81.08,237.18c-3.06-3.04-6.03-6.13-9.21-9.03-1.68-1.09-2.32-3.37-.26-4.26.82-.37,1.88-.08,2.41.66,3.47,3.19,6.8,6.51,10.1,9.86,1.79,1.98-1.17,4.73-3.04,2.77Z"/><path d="M103.91,217.57c-2.49-2.58-4.92-5.22-7.3-7.53-1.01-1.22-2.78-1.98-3.26-3.54-.3-1.4,1.03-2.73,2.41-2.44,4.29,2.75,7.5,7.19,11.19,10.74,1.79,1.99-1.18,4.73-3.04,2.77Z"/><path d="M122.02,199.91c-3.06-3.16-6.4-5.75-9.46-8.85-1.52-2.06,1.47-4.56,3.21-2.66,2.88,2.98,6.21,5.56,9.11,8.56.95.77.93,2.29.05,3.09-.82.76-2.11.67-2.91-.13Z"/><path d="M72.74,331.02c-3.66.03-2.01-7.01-2.5-9.26.29-2.29-.71-5.42,1.04-7.19,4.54-1.94,2.86,4.62,3.07,6.94-.52,2.57,1.93,9.04-1.61,9.52Z"/><path d="M105.37,369.84c-3.23-1.01-.71-5.13-.83-7.49.26-1.3-.03-3.04,1.23-3.86,0,0,0,0-.01,0,0,0-.02,0-.02.01.91-.62,2.24-.42,2.87.52.73,1.05.07,2.41.05,3.55-.71,2.32.25,7.44-3.28,7.25Z"/><path d="M118.02,332.87c-4.22-5.28-8.96-10.76-13.15-15.9-1.1-1.58-2.75-3.05-3.18-4.96,0,0,0,0,0,.01,0,.03.01.05.02.08-.34-2.31,3.16-3.2,3.95-.98,2.64,3.93,5.92,7.39,8.91,11.06,2.18,2.62,4.33,5.27,6.49,7.91.74.82.71,2.17-.13,2.91-.8.73-2.2.73-2.91-.13Z"/><path d="M131.62,319.54c-4.59-5.18-8.63-10.74-13.15-15.94,1.49,5.18,5.26,17.16-4.69,13.06-3.8-1.29-7.83-2.25-11.4-4.06-1.49-.9-1.35-3.27.33-3.84.75-.26,1.61-.04,2.16.51,3.73,1.58,7.66,2.61,11.49,3.91-.42-4.39-1.96-8.53-3.05-12.77-.3-1.2.03-2.7,1.23-3.29,4.45-1.46,8.9,6.49,11.55,9.26,2.79,3.52,5.63,7,8.57,10.4,1.8,1.95-1.26,4.77-3.04,2.77Z"/><path d="M139.81,311.53c-3.85-4.55-8.16-8.55-12.55-12.52-1.66-2.07-8.67-5.54-4.85-8.18,0,0,0,0,0,0-.08.05-.16.09-.24.14.91-.63,2.25-.41,2.87.53,3.39,3.1,7.25,6.41,10.44,9.53,2.57,2.47,5.07,5.01,7.38,7.73.72.86.72,2.13-.13,2.91-.8.73-2.18.72-2.91-.13Z"/><path d="M152.49,296.78c-7.23-1.97-14.38-4.2-21.59-6.25-1.98-.09-3.12-2.63-1.36-3.88,1.24-.84,2.65.1,3.94.32,6.76,1.96,13.49,4.04,20.29,5.89,2.53.79,1.27,4.74-1.28,3.91Z"/><path d="M146.39,308.45c-2.52-1.28-1.93-5.98-2.63-8.45-1.11-7.65-2.44-15.46-3.39-23.04-.22-2.64,3.92-2.96,4.1-.29.51,4.23,1.17,8.35,1.81,12.54.73,4.72,1.4,9.45,2.16,14.17.1,1.02.44,1.97.64,2.96.12,1.42-1.34,2.58-2.7,2.11ZM144.98,306.36c0,.05,0,.11,0,.16,0-.28.05-.56.15-.81-.09.21-.13.42-.15.65Z"/><path d="M158.27,299.29c-4.38-1.6-8.74-3.25-13.01-5.12-2.14-.47-1.88-3.85.29-4,0,0-.01,0-.02,0,4.85,1.21,9.46,3.86,14.31,5.33,2.47.98.91,4.82-1.56,3.81Z"/><path d="M150.6,273.74c-.25.09-.3.11-.54.15.02,0,.04,0,.06-.01.02,0,.04,0,.07-.01-2.8.35-3.15-2.92-1.15-4.32,3.48-3.37,7.09-6.62,10.66-9.89,1.49-1.22,3.58-4.07,5.48-1.91.7.89.52,2.18-.35,2.89-4.92,4.16-9.55,8.81-14.26,13.12h.04Z"/><path d="M170.27,286.38c-4.38-6.19-9.24-12.01-14.04-17.88-1.49-1.26-1.39-3.8.81-4.08,1.56-.25,2.19,1.37,3.07,2.34,1.75,2.15,3.53,4.29,5.28,6.44,1.9,2.33,3.73,4.7,5.52,7.11,1.04,1.88,4.51,4.29,2.25,6.42-.85.67-2.23.57-2.89-.34Z"/><path d="M180.6,279.07c-1.03.44-2.26-.05-2.7-1.08-1.32-3.13-2.66-6.25-4.01-9.37-1.52-3.53-3.09-7.04-4.72-10.51-.92-1.6-1.95-4.51.6-5.09,1.17-.26,2.44.6,2.48,1.86,1.42,3.41,3.13,6.68,4.54,10.1,1.43,3.26,2.84,6.54,4.23,9.82.74,1.38,1.45,3.47-.42,4.27Z"/><path d="M190.08,266.49c-6.87-3.63-13.91-6.88-20.74-10.43.07.06.13.11.19.17.02.01.03.02.05.03-1.85-1.25-.43-4.27,1.72-3.66,1.35.56,2.69,1.27,3.97,1.86,5.65,2.76,11.26,5.59,16.85,8.47,2.31,1.32.35,4.86-2.04,3.57Z"/><path d="M177.42,269.61c-1.52.3-2.91-1.42-2.24-2.85.92-1.58,2.65-2.49,3.93-3.76,1.5-1.29,2.97-2.61,4.45-3.91,1.08-1.18,2.89-2.39,4.18-.79,1.7,2.61-2.28,4.16-3.68,5.82-1.71,1.55-3.49,3-5.22,4.53-.32.53-.85.92-1.48.97h.04ZM177.92,265.71c-.29-.15-.64-.2-.96-.17.34-.01.66.05.96.17Z"/><path d="M196.29,261.77c-2.37-2.59-16.48-15.5-14.92-18.11.51-1.33,2.41-1.7,3.37-.67,1,1.45,2.08,2.9,3.28,4.19,3.64,4.02,7.28,7.97,11.21,11.7,1.79,1.91-.99,4.72-2.93,2.89Z"/><path d="M192.87,253.87c-1.49-1.48.04-3.1,1.15-4.21,2.6-2.79,5.33-7.6,1.77-10.69-4.52-.04-7.93,3.88-11.1,6.55-1.03.42-2.34.01-2.77-1.08-.94-2.72,3.81-5.05,5.55-6.61,2.98-1.95,6.88-4.06,10.43-2.43,5.01,3.44,4.5,10.77.77,15-1.48,1.61-3.29,5.48-5.81,3.46Z"/><path d="M212.52,247.4c-3.9-4.42-7.84-8.81-11.63-13.32-.92-1.17-2.56-2.44-1.9-4.1.45-1.03,1.63-1.56,2.69-1.12,4.8,5.11,9.26,10.81,14.08,16,1.64,2.1-1.52,4.63-3.23,2.55Z"/><path d="M207.26,221.49c1.9-1.9,4.8.94,2.94,2.87-1.68,1.71-3.36,3.42-5.04,5.12-.5.51-1.01,1.02-1.51,1.52-.26.26-.52.52-.77.77-.64.75-1.76.98-2.62.48-.85-.48-1.19-1.46-.95-2.36.24-.34.49-.68.75-1.01.15-.19.31-.38.47-.56.12-.14.24-.27.36-.41.11-.12.22-.25.33-.36.04-.05.08-.09.12-.13.03-.03.06-.06.09-.09.24-.26.49-.51.74-.77.09-.09.18-.18.27-.26.08-.08.16-.16.24-.24.06-.06.13-.13.2-.19.18-.17.35-.34.53-.51.45-.43.9-.86,1.35-1.29.17-.16.33-.32.5-.48.18-.17.35-.34.52-.51.09-.08.17-.17.25-.26.09-.09.18-.18.26-.27.08-.08.16-.17.24-.26.12-.13.24-.26.36-.38.12-.14.25-.27.37-.41Z"/><path d="M208.22,239.36c-2.56-.18-2.6-3.13-.61-4.24,1.71-1.23,3.51-4.95,5.89-2.97,2.24,2.43-2.51,5.13-4.01,6.77,0,0,0,0,0,0-.36.28-.8.44-1.27.45Z"/><path d="M216.81,248.68c-1.7.53-3.32-1.46-2.36-3,1.2-1.44,2.84-2.49,4.17-3.81,1.87-1.21,3.83-5.17,6.32-3.18.78.76.84,2.14.03,2.91-2.69,2.37-5.18,5.13-8.17,7.08Z"/><path d="M141.03,424.31c-5.65,1.81-1.88-7.96-1.71-10.57.94-2.33.47-10.26,3.78-9.67,1.07.14,1.97,1.21,1.77,2.31-.5,2.73-1,5.46-1.54,8.18-.49,2.58-1.1,5.15-1.31,7.77.08.77-.3,1.58-.99,1.99Z"/><path d="M202.72,166.88c-3.85-2.56,2.03-5.16,3.75-6.92,2.35-1.4,5.9-7.87,8.72-5.04.71.9.51,2.16-.34,2.89-2.83,1.98-8.93,9.74-12.13,9.07Z"/><path d="M209.32,174.06c-1.73-.42-2.07-2.9-.53-3.77,2.65-2.15,5.27-4.37,8.02-6.4,1.48-.85,2.75-2.6,4.55-2.57,1.73.16,2.44,2.64,1,3.66-3.12,1.53-10.89,9.65-13.05,9.08Z"/><path d="M220.43,163.58c-2.03-2.45,2.28-3.59,2.22-5.78-1.99-1.52-5.23-1.33-7.28.01-.93,1.41-2.73,2.33-3.96.61-1.46-2.89,2.59-4.84,4.86-5.44,3.61-.81,8.82-.29,10.34,3.64,1.27,2.7-3.28,9.76-6.18,6.96ZM215.18,157.26s0-.07,0-.1c0-.08-.02-.17-.03-.25,0,0,0,0,0,0-.03-.1-.05-.23-.1-.33.08.22.12.45.12.67Z"/><path d="M241.14,205.99c-3.2-2.39,9.31-10.89,11.08-13.35,4.23-3.9,8.05-7.88,11.28-12.57,9.9-12.96,16.96-44.9-9.14-40.38-7.3,1.65-13.41,6.32-19.31,10.68-2.35,1.77-4.65,3.62-6.83,5.51-1.35,1.68-4.5,3.74-5.3.47.52-3.29,5.95-5.86,8.3-8.24,9.04-6.84,19.39-14.73,31.38-12.6,25.35,5.77,11.43,40.63-.73,53.25-4.53,5.07-9.76,9.44-14.64,14.17-1.76,1.3-3.66,5.1-6.1,3.07Z"/><path d="M202.98,464.35c-36.39,23.86-79.1,14.52-105.96-18.7-15.6-18.51-27.78-42.63-24.02-67.41.86-4.2,3.77-20.04,9.67-18.27,2.25,1.68-.38,3.65-1.27,5.21-4.54,8.7-5.54,18.93-4.63,28.6,3.41,26.8,20.83,50.73,42.17,66.56,29.67,22.89,76.53,14.71,98.4-15.03,15.04-21.1,12.83-54.31,37.05-68.58,8.94-5.11,19.74-2.06,29.02-6.1,12.91-4.89,33.59-18.48,20.5-33.48-13.3-11.49-31.28-17.2-41.48-32.26-13.29-21.06-14.31-51.87,1.3-71.99,13.29-16.29,35-22.11,52.91-31.51,11.84-5.63,18-17.87,17.8-30.69-.13-1.28.55-2.72,2.01-2.74,4.4.15.96,9.75.99,12.46-5.13,29.19-42.49,30.38-62,46.84-22.65,16.55-23.76,51.34-10.4,74.11,10.18,16.58,30.96,21.12,43.47,34.95,12.18,17.05-8,32.11-22.67,37.75-9.31,4.66-20.32,1.49-29.5,6.27-28.33,18.05-18.19,64.4-53.36,84.02Z"/><path d="M344.71,166.55c-6.51,4.53-14.28,2.84-18.95-3.39-3.61-5.26-4.27-12.05-4.46-18.27.2-14.91,6-28.78,14.34-40.9,1.72-6.74,10.11-10.2,16.6-9.01,6.97,1.21,12.25,7.62,13.83,14.28,1.58,7.76-.34,15.69-1.68,23.35-2.75,12.94-9.05,25.8-19.69,33.93ZM343.2,162.6c10.9-9.22,16.43-23.37,18.33-37.22.83-5.12,1.57-10.43.46-15.56-2.01-9.17-13.5-15.06-20.73-7.58.15.72-.1,1.51-.7,2-1.45,1.72-2.65,3.75-3.71,5.44-4.83,7.78-9.06,16.52-10.42,25.59-1.46,7.88-1.59,16.36,1.64,23.82,3.22,5.97,9.65,7.83,15.14,3.51Z"/><path d="M413.57,26.25c26.93-8.16,45.04,12.28,42.78,38.41-.78,11.51-4.29,22.49-7.88,33.38-2.73,8.05-6.05,15.9-9.27,23.76-.75,1.4-1.28,3.01-1.87,4.58-.46-1.91-1.17-3.78-2.17-5.59,2.15-5.11,4.22-10.26,6.25-15.42,4.01-10.57,7.6-21.27,9.73-32.31,6.18-28-9.93-53.5-40.37-41.43-10.35,4.43-19.61,12.04-27.85,19.43-6.88,6.65-11.39,15.31-15.99,23.6-3.07,5.73-5.9,11.6-8.48,17.57-1.3,1.85-1.77,6.71-4.18,6.84-.93.03-1.8-.54-2.08-1.45-.31-1.04.31-2.13.71-3.05,1.77-3.97,3.51-7.94,5.34-11.88,4.57-9.37,9.46-18.64,15.45-27.18,8.84-11.72,25.92-24.66,39.85-29.24Z"/><path d="M410.91,179.94c-8.2,5.44-22.91.53-22.13-10.47-.67-17.95,23.59-55.38,43.32-54.66,7.68.54,9.52,9.27,9.99,15.59.24,19.2-15.42,39.81-31.18,49.53ZM412.79,173.9c14.01-11.17,32.74-35.54,22.03-53.72-7.46-4.39-15.24,3.67-20.64,8.2-10.75,10.73-19.7,25.14-21.47,40.3-.08,11.15,13.52,11.33,20.08,5.22Z"/><path d="M416.66,183.99c-4.81,1.52-10.16,1.92-15.02.43-2.2-.91-7.34-2.88-5.22-5.89.81-.88,2.15-.83,2.99-.04,7.39,5.66,18.14,1.88,24.83-3.13,11.02-8.46,19.54-21.13,19.8-35.34.54-8.15-3.43-20.21-13.09-20.08-3.22-.57-1.77-5.02,1.22-4.25,8.88.82,14.68,9.83,15.67,18.07,2.66,21.08-11.69,42.66-31.18,50.22Z"/><path d="M350.6,94.47c14.61-2.97,24.58,13.76,26.8,26.18,1.3,16.81-12.55,39.24-27.48,46.71-2.78,1.7-15.88,2.68-14.77-2.4.02-.05.04-.1.06-.15,1.58.31,3.24.18,4.89-.44,3.14.59,6.46.25,9.28-1.32,13.17-8.17,22-23.26,24.1-38.42-.31-10.04-5.92-21.25-15.32-25.55-5.33-3.36-10.22,3-11.8-.95-.66-2.47,2.47-3.12,4.22-3.65Z"/><path d="M454.95,68.09c-3.1-.47-3.31-3.69-2.78-6.17.23-2.8.37-5.67-.56-8.36-3.93-10.93-13.92-25.9-27.2-23.92-9.65,2.54-18.72,7.32-26.87,13.03-3.13,2.37-6.48,4.45-9.62,6.8-1.33,1.67-3.96,1.75-5.42.23-2.93-3.21,1.03-6.34,3.74-7.88,2.56-1.69,5.01-3.52,7.51-5.3,5.55-3.89,11.46-7.31,17.72-9.91,8.36-4.12,18.31-6.45,26.83-1.43,10.56,6.46,20,19.56,21.21,32.03-.24,3.72,1.06,11.24-4.56,10.88Z"/><path d="M131.62,319.54c1.78,2,4.84-.82,3.04-2.77-2.94-3.4-5.77-6.88-8.57-10.4-2.65-2.77-7.1-10.73-11.55-9.26-1.21.59-1.54,2.09-1.23,3.29,1.09,4.24,2.63,8.38,3.05,12.77-3.83-1.3-7.77-2.33-11.49-3.91-.55-.55-1.41-.77-2.16-.51-1.35.46-1.71,2.08-1.01,3.17,0,.06,0,.11.02.17.46,1.87,2.08,3.32,3.16,4.88,4.19,5.14,8.92,10.62,13.15,15.9.71.87,2.11.86,2.91.13.84-.74.88-2.09.13-2.91-2.16-2.64-4.3-5.29-6.49-7.91-1.97-2.42-4.07-4.75-6.03-7.19,1.75.56,3.51,1.07,5.23,1.66,9.96,4.1,6.18-7.88,4.7-13.06,4.51,5.21,8.55,10.76,13.15,15.94ZM142.72,311.66c.85-.77.86-2.05.13-2.91-2.3-2.72-4.8-5.27-7.38-7.73-3.19-3.12-7.05-6.42-10.44-9.52-.57-.87-1.75-1.12-2.65-.66,0,0,0,0,.01-.01-.01,0-.03.02-.04.02-.07.03-.13.07-.2.12.07-.04.13-.08.2-.12,0,0,.02,0,.02-.01-3.78,2.64,3.21,6.1,4.87,8.16,4.39,3.98,8.7,7.98,12.55,12.52.72.86,2.11.87,2.91.13ZM158.27,299.29c2.48,1.01,4.03-2.83,1.56-3.81-1.69-.51-3.36-1.17-5.01-1.86-.22-.33-.57-.6-1.06-.75-.72-.19-1.43-.39-2.14-.59-1.71-.71-3.42-1.37-5.16-1.87-.06-.4-.12-.8-.18-1.2-.64-4.2-1.3-8.32-1.81-12.55-.19-2.67-4.33-2.35-4.11.29.52,4.15,1.15,8.37,1.8,12.59-2.9-.86-5.79-1.72-8.69-2.56-1.29-.23-2.7-1.16-3.94-.32-1.77,1.25-.62,3.78,1.36,3.88,3.99,1.14,7.98,2.33,11.96,3.5.31,1.99.61,3.98.9,5.96.7,2.47.1,7.17,2.63,8.45,1.36.47,2.82-.7,2.7-2.11-.2-.99-.54-1.94-.64-2.96-.43-2.68-.83-5.38-1.24-8.07.78.22,1.56.44,2.34.66,2.88,1.17,5.8,2.26,8.72,3.32ZM164.83,260.63c.86-.71,1.05-2,.35-2.89-1.9-2.15-3.99.69-5.48,1.91-3.57,3.27-7.18,6.52-10.66,9.89-2.01,1.4-1.66,4.67,1.15,4.32-.02,0-.04,0-.06.01-.02,0-.04,0-.06.01.24-.04.29-.05.54-.15h-.04c1.88-1.72,3.75-3.49,5.63-5.27.01.01.02.02.04.03,4.79,5.87,9.65,11.69,14.04,17.88.65.91,2.04,1.01,2.89.34,2.26-2.13-1.21-4.54-2.25-6.42-1.79-2.41-3.63-4.78-5.52-7.11-1.76-2.15-3.53-4.29-5.28-6.44-.31-.33-.58-.75-.87-1.14,1.84-1.7,3.69-3.38,5.6-4.99ZM190.08,266.49c2.38,1.29,4.34-2.25,2.04-3.58-1.44-.74-2.87-1.48-4.32-2.21.44-.7.54-1.48-.05-2.4-1.16-1.44-2.74-.61-3.83.43-2.87-1.45-5.76-2.88-8.65-4.29-1.28-.59-2.62-1.3-3.97-1.86-.81-.23-1.52.06-1.99.57-1.97.8-1.01,3.45-.15,4.95,1.64,3.48,3.2,6.99,4.72,10.51,1.35,3.12,2.69,6.24,4.01,9.37.44,1.03,1.67,1.52,2.7,1.08,1.88-.8,1.16-2.88.42-4.27-.81-1.92-1.63-3.84-2.46-5.75.12-.12.22-.25.3-.39,1.72-1.53,3.51-2.98,5.22-4.53.14-.16.3-.32.47-.48,1.85.93,3.7,1.87,5.54,2.84ZM198.67,250.4c3.73-4.24,4.24-11.56-.77-15-3.55-1.63-7.45.47-10.43,2.43-1.39,1.25-4.72,2.99-5.5,5.04-.26.2-.47.47-.6.8-1.56,2.6,12.55,15.51,14.92,18.11,1.93,1.83,4.72-.99,2.93-2.89-1.55-1.46-3.04-2.96-4.52-4.49,1.61-.37,2.88-2.8,3.97-3.98ZM195.7,210.88c4.21-5.02,7.41-9.69,1.38-14.84-6.84-7.43-16.39-8.84-24.08-1.8-23.24,19.01-46.16,38.52-67.83,59.32-5.75,5.67-11.55,11.45-17.33,17.12-1.5,2-8.28,6.7-6.54,9.22-.81,6.09,4.2,18.84,12.06,15.14l-.11.04c10.69-6.24,19.4-15.48,29.52-22.61,11.87-8.71,22.56-18.97,33.88-28.36,12.79-11.33,27.61-20.44,39.06-33.23ZM224.97,241.6c.81-.77.75-2.15-.03-2.91-2.48-1.99-4.45,1.97-6.32,3.18-.97.96-2.11,1.78-3.11,2.71-.23-.25-.47-.5-.7-.76-.46-.51-.92-1.02-1.38-1.54-.22-.25-.44-.49-.65-.74-.49-.56-.98-1.12-1.46-1.68-.43-.49-.85-.99-1.27-1.48,1.84-1.65,5.48-4.06,3.46-6.24-2.39-1.99-4.19,1.73-5.89,2.97-.08.05-.16.1-.24.15-.44-.52-.88-1.03-1.32-1.54-.28-.32-.55-.64-.83-.95-.52-.6-1.04-1.19-1.57-1.77.51-.5,1.01-1.01,1.51-1.52,1.69-1.7,3.36-3.41,5.04-5.12,1.86-1.93-1.04-4.77-2.94-2.87-.12.14-.25.28-.37.41-.12.13-.24.26-.36.38-.08.09-.16.17-.24.26-.09.09-.17.18-.26.27-.08.09-.17.17-.25.26-.17.17-.35.34-.52.51-.16.16-.33.32-.5.48-.45.43-.9.86-1.35,1.29-.18.17-.35.34-.53.51-.06.06-.13.13-.2.19-.08.08-.16.16-.24.24-.09.09-.18.17-.27.26-.25.25-.5.51-.74.77-.03.03-.06.06-.09.09-.04.04-.08.08-.12.13-.11.12-.22.24-.33.36-.12.13-.24.27-.36.41-.16.19-.32.37-.47.56-.04.02-.08.04-.12.06-.04.02-.07.04-.11.06-.36.22-.67.55-.85.97-.67,1.66.98,2.94,1.9,4.1,3.79,4.52,7.73,8.9,11.63,13.32.06.07.12.13.18.19.04.04.08.08.13.11,0,0,0,0,0,.01.04.03.08.07.12.09.01.01.03.03.05.04.05.03.1.06.14.09.05.03.11.06.16.08.07.03.14.06.21.08.04.01.07.02.11.03.07.02.13.03.21.04.06,0,.11.01.17.01.1,0,.2,0,.3-.01.02,0,.04,0,.06,0,.02,0,.04,0,.06-.01.06,0,.12-.02.18-.04.02,0,.04-.01.06-.02.02,0,.04-.01.06-.02.5.56,1.29.87,2.08.62,2.98-1.95,5.48-4.71,8.17-7.08ZM261.44,235.35c.09.12.18.23.26.35-11.78,17.57-12.1,41.94-3.51,61.22-2.39,2.48-4.81,4.94-7.23,7.38-.48.49-.97.98-1.46,1.46-.49.49-.98.98-1.46,1.46-.49.49-.99.98-1.48,1.47-.48.48-.97.96-1.45,1.44-1.47,1.45-2.95,2.89-4.44,4.33-.99.96-1.98,1.91-2.98,2.87-.13.13-.27.26-.4.39-.42.41-.85.81-1.27,1.21-1.98,1.88-3.97,3.75-5.97,5.6-.46.43-.93.86-1.39,1.28-2.03,1.87-4.07,3.73-6.12,5.57-.57.51-1.14,1.02-1.71,1.53-1.14,1.02-2.29,2.03-3.44,3.04-.57.5-1.15,1.01-1.73,1.51-.58.5-1.15,1.01-1.73,1.51-1.73,1.5-3.47,3-5.23,4.48-.45.38-.9.77-1.36,1.15-1.37,1.16-2.76,2.31-4.14,3.45-.5.41-1,.83-1.5,1.24-.46.38-.93.76-1.39,1.14-.4.33-.8.65-1.19.97-1.22.99-2.45,1.98-3.68,2.97-.42.34-.84.68-1.27,1.01-.73.58-1.47,1.16-2.21,1.74-.89.7-1.78,1.39-2.67,2.08-.81.63-1.63,1.26-2.44,1.89-.46.35-.92.71-1.38,1.06-.61.47-1.22.93-1.83,1.39-.45.34-.91.69-1.36,1.03-.39.29-.78.58-1.17.88-.71.54-1.43,1.07-2.15,1.6-.4.3-.8.59-1.2.89-1.66,1.23-3.34,2.44-5.02,3.64-.52.37-1.04.75-1.56,1.11-.22.16-.44.31-.66.47-.57.41-1.14.81-1.72,1.21-.52.37-1.05.74-1.57,1.1-.25.17-.5.35-.75.52-.43.3-.87.6-1.3.9-.09.06-.17.12-.26.18-.47.33-.95.65-1.43.98-1.08.74-2.16,1.48-3.25,2.21-.37.25-.74.49-1.1.74-.57.38-1.15.77-1.72,1.15-.16.09-.31.17-.47.27-.52.31-1.06.64-1.61,1-.31.2-.62.4-.93.61-1.01.67-2.06,1.38-3.13,2.05-.12.07-.23.15-.34.22-4.28,2.68-8.92,4.78-13.36,2.16-.39-.35-.77-.7-1.15-1.05-.19-.17-.37-.34-.55-.52-.07-.07-.14-.13-.21-.2-.21-.2-.42-.41-.64-.61-.07-.07-.13-.13-.2-.2-.23-.22-.47-.45-.69-.68-.2-.2-.4-.4-.6-.6-.17-.17-.35-.35-.52-.52-.05-.06-.1-.11-.16-.16-.21-.22-.42-.43-.63-.65-.49-.51-.98-1.03-1.46-1.55-.24-.26-.48-.52-.72-.79-.16-.17-.31-.34-.46-.51-.28-.32-.57-.64-.85-.96-.23-.25-.45-.51-.67-.76-.51-.59-1.03-1.18-1.54-1.78-.05-.05-.09-.11-.14-.16-.28-.33-.55-.65-.83-.98-.15-.18-.31-.36-.46-.54-.22-.25-.43-.51-.64-.76-.18-.22-.36-.44-.55-.66-.73-.88-1.46-1.76-2.18-2.64-.45-.55-.9-1.1-1.35-1.65-.45-.55-.91-1.1-1.36-1.65-.27-.33-.54-.66-.82-.99-.64-.77-1.27-1.53-1.91-2.29-.23-.27-.46-.54-.69-.81-.23-.27-.46-.54-.69-.81-.93-1.09-1.85-2.19-2.77-3.29-.85-1.02-1.7-2.03-2.55-3.05-2.07-2.48-4.12-4.97-6.17-7.47-.75-.91-1.49-1.82-2.23-2.73-.75-.92-1.51-1.84-2.25-2.77-3.5-4.3-6.98-8.61-10.46-12.92-1.34-1.66-2.68-3.33-4.02-4.99-7.44-9.23-14.89-18.46-22.48-27.56-.49-.59-.98-1.18-1.48-1.77-1.99-2.38-3.99-4.75-6.01-7.11-.34-.4-.68-.8-1.02-1.19-.55-.64-1.1-1.29-1.65-1.93-.7-.81-1.39-1.62-2.1-2.43-.06-1.7-1.49-2.83-2.28-4.19-.02-.03-.04-.07-.06-.1-.02-.04-.04-.07-.06-.11.76-3.68,2.64-6.81,4.96-9.68.24-.25.48-.5.72-.76.62-.63,1.25-1.26,1.89-1.87.16-.15.32-.3.47-.45h0c.24-.23.49-.46.74-.69.13-.12.27-.25.4-.37.76-.7,1.54-1.39,2.31-2.08.11-.1.22-.2.33-.3.22-.2.44-.39.67-.59l.67-.59c2.34-2.06,4.66-4.12,6.78-6.32,9.54-8.82,19.13-17.56,28.8-26.24,24.28-21.01,46.25-44.88,72.09-64.18,21.92-15.4,20.95-9.2,37.97,6.83,14.26,14.03,27.74,28.88,40.55,44.29.12.17.25.34.37.5.12.17.25.34.38.51.21.29.43.58.65.87.1.13.2.26.3.39.5.65,1.02,1.32,1.55,2,.21.27.42.54.64.81.38.48.76.96,1.15,1.45.15.19.31.39.47.59,1.18,1.48,2.41,3.01,3.67,4.6.37.46.74.93,1.11,1.4.15.19.3.37.44.56.23.29.45.57.67.86.13.16.25.32.38.48.13.16.25.32.38.48.75.97,1.5,1.95,2.25,2.94.13.16.25.33.37.5Z" fill="#f5c833"/><path d="M264.29,239.26c3.04,4.29,5.87,8.74,8.06,13.2.01.02.02.04.03.06.09.19.18.38.27.56.1.2.2.41.29.62.1.2.19.41.28.62.11.24.22.48.32.72.26.58.5,1.17.73,1.75h0c.08.21.16.41.23.62,0,0,0,0,0,.01,3.02,7.98,3.54,15.84-.79,22.78-.1.16-.21.33-.32.49-.07.1-.14.21-.21.3-.04.06-.08.12-.13.18-.07.1-.14.2-.21.29-.28.4-.59.79-.91,1.17-.08.1-.16.2-.25.3-.07.09-.15.17-.22.26-.15.17-.29.33-.45.5-.82.89-1.73,1.76-2.75,2.61-1.43,1.53-2.86,3.05-4.29,4.57-.9.96-1.81,1.91-2.73,2.86-7.05-17.28-6.83-38.77,3.03-54.46Z" fill="#f5c833"/><path d="M195.79,238.97c3.56,3.09.83,7.9-1.77,10.69-.63.63-1.39,1.42-1.67,2.26-1.46-1.56-2.9-3.14-4.34-4.73-.77-.83-1.5-1.73-2.19-2.66,2.85-2.55,5.98-5.59,9.96-5.56Z" fill="#f5c833"/><path d="M180.62,261.7c-.5.44-1,.88-1.5,1.31-.71.7-1.56,1.3-2.34,1.96-.93-2.25-1.99-4.44-3.01-6.66,2.28,1.14,4.56,2.26,6.85,3.39Z" fill="#f5c833"/><path d="M262.43,304.88c2.46,3.64,5.38,6.73,8.58,9.49-1.05,1.29-2.29,2.54-3.74,3.74-30.6,32.83-63.9,63.18-100.71,88.93-.54.38-1.09.76-1.63,1.14-.28.19-.56.38-.83.58-.57.4-1.14.79-1.71,1.18-1.99,1.37-4,2.72-6.01,4.05-1.23.69-2.54,1.56-3.89,2.46-3.26,2.17-6.81,4.51-10.38,4.97.26-2.31.79-4.58,1.22-6.86.53-2.72,1.03-5.45,1.54-8.18.2-1.1-.7-2.17-1.77-2.31-3.32-.58-2.85,7.34-3.78,9.68-.09,1.36-1.15,4.65-1.35,7.24-.48-.18-.95-.4-1.43-.68-6.18-5.52-11.45-11.94-16.72-18.35-.94-1.14-1.87-2.28-2.81-3.42-1.04-1.25-2.08-2.49-3.13-3.72-17.76-21-34.62-42.74-52.2-63.88-.22-.26-.43-.52-.65-.78-.65-.78-1.3-1.55-1.95-2.33-.74-.89-1.49-1.78-2.24-2.67-.63-.75-1.26-1.49-1.9-2.24-.67-.79-1.35-1.59-2.02-2.38-.04-.05-.09-.1-.13-.16-.59-.69-1.17-1.37-1.76-2.05-.78-.91-1.56-1.81-2.34-2.71-.02-.47-.14-.89-.32-1.28-1.73-1.53-3.17-3.31-3.29-5.79-.04-.35-.08-.71-.12-1.06-.02-.24-.05-.48-.07-.72-.03-.26-.04-.53-.06-.79-.03-.33-.05-.66-.07-.99-.02-.26-.03-.51-.04-.77-.02-.53-.04-1.06-.05-1.59-.09-5.56.57-11.14,1.47-16.66,2.33,2.66,4.65,5.33,6.95,8.01.89,1.05,1.78,2.1,2.67,3.15.6.71,1.2,1.43,1.8,2.15,3.11,3.78,6.2,7.57,9.28,11.37,1.02,1.25,2.04,2.51,3.05,3.76.27.33.53.66.8.99-.9,1.81-.2,4.4-.46,6.36.48,2.25-1.16,9.29,2.5,9.26,3.54-.47,1.09-6.94,1.61-9.52-.04-.41-.01-.96.02-1.57,10.43,12.89,20.82,25.8,31.43,38.54-.02.01-.04.02-.06.04,0,0,.02,0,.03-.01,0,0,0,0,.01,0-1.27.82-.97,2.56-1.23,3.86.11,2.36-2.4,6.48.82,7.48,3.54.19,2.57-4.93,3.28-7.25,0-.2.03-.4.06-.61,5.21,6.28,10.39,12.6,15.72,18.78.25.29.51.59.76.89.15.18.31.36.46.54.2.23.4.47.6.71.35.41.69.81,1.04,1.22.24.27.47.55.72.82,5.53,6.3,11.78,11.94,20.8,7.17,2.45-1.47,4.88-2.97,7.3-4.49.58-.36,1.15-.73,1.73-1.09,0,0,0,0,.02,0,.57-.36,1.14-.73,1.71-1.1,36.88-23.73,70.02-53.16,100.49-84.64.74,1.41,1.54,2.78,2.38,4.12Z" fill="#f5b038"/><path d="M281.03,269.3c2.52,5.35,4.37,10.95,4.48,16.88-.1,5.68-2.62,10.91-5.52,15.76-.12.21-.25.41-.37.62-.13.21-.25.41-.38.61-.12.19-.24.38-.35.57-.14.21-.27.43-.4.64-1.37-.06-2.24,1.11-3.31,1.9-.04.17-.09.33-.14.5-.02.08-.04.15-.07.23,0,.02-.01.04-.02.06-.04.15-.09.29-.14.44-.06.18-.12.37-.19.55,0,.03-.02.06-.03.08-.07.2-.15.39-.22.58-.07.17-.14.34-.21.51-.02.06-.05.12-.08.17-.08.17-.15.34-.24.51-.09.2-.19.4-.29.59-.08.15-.16.31-.25.46-3.15-2.76-5.98-5.88-8.27-9.61-.7-1.2-1.37-2.44-1.99-3.7h0c.2-.21.4-.42.6-.63.17-.2.34-.4.52-.6.04-.04.07-.09.11-.13.21-.24.42-.47.64-.71,2.51-2.72,5.36-5.24,7.96-7.94.66-.68,1.3-1.38,1.92-2.1.11-.13.23-.27.34-.4.12-.14.24-.28.36-.43.1-.13.21-.26.31-.38.01-.02.03-.03.04-.05,1.69-2.13,3.11-4.44,4.02-7.06.78-2.68,1.14-5.33,1.16-7.93Z" fill="#f5b038"/><path d="M194.21,198.98c3.76,3.07,1.47,4.99-.7,8.1-.2.24-.4.47-.6.71-1.17-3.23-5.22-7.25-6.96-8.3-2.26-1.58-4.83-2.88-7.58-3.32-.21-.01-.43-.04-.66-.07.47-.37.95-.74,1.42-1.1,5.19-3.25,11.33-.06,15.07,3.98Z" fill="#f5b038"/><path d="M81.08,237.18s.1.1.15.14c-5.9,5.35-11.78,10.73-17.63,16.16-.23.28-.48.56-.75.85-1.42-1.99-3.7-4.09-4.37-5.2-1.04-1.88-4.57-3.81-2.93-6.12,4.42-5.88,9.89-10.81,15.46-15.63.24.29.53.55.86.77,3.18,2.89,6.15,5.98,9.21,9.03Z" fill="#f5d97e"/><path d="M122.02,199.91s.07.07.1.1c-5.16,4.81-10.33,9.61-15.57,14.4-3.02-2.97-5.75-6.5-9.07-9.11,5.39-4.38,10.75-8.79,15.99-13.34,2.8,2.72,5.79,5.1,8.55,7.95Z" fill="#f5d97e"/><path d="M141.93,169.65c2.37,1.82,3.96,4.44,5.75,6.82-4.3,3.84-8.52,7.77-12.75,11.63-3.28,3.04-6.54,6.08-9.8,9.11-.07-.09-.16-.17-.25-.25-2.63-2.71-5.61-5.09-8.29-7.73.14-.12.27-.24.41-.36,6.24-5.59,12.62-11,19.36-15.97,1.71-.98,3.41-4.12,5.57-3.24Z" fill="#f5d97e"/><path d="M57.31,254.14c.94.79,1.6,2.14,2.43,3.18-1.3,1.16-2.74,2.37-4.22,3.63-.58.5-1.17,1-1.76,1.52-.19.17-.39.34-.59.51-.39.34-.78.69-1.17,1.04-.17.16-.35.31-.52.47-.21.19-.42.39-.62.59-.39.36-.77.73-1.14,1.1-2.19-2.6-1.83-6.07-.4-9.12.91-2.91,2.05-5.74,3.28-8.52,1.41,1.97,3.37,3.7,4.7,5.6Z" fill="#f5b038"/><path d="M96.6,210.04c2.26,2.19,4.57,4.68,6.92,7.14-1.57,1.43-3.14,2.85-4.73,4.28-4.85,4.38-9.7,8.74-14.54,13.12-.04-.05-.09-.11-.13-.16-3.26-3.31-6.55-6.59-9.97-9.74,1.66-1.44,3.32-2.88,4.95-4.34,5-4.2,10.08-8.3,15.16-12.41.73.74,1.7,1.34,2.35,2.12Z" fill="#eb7865"/><path d="M177.58,200.2c4.7.94,9.11,4.28,11.19,8.61.22.81.5,1.77,1.04,2.37-1.21,1.25-2.46,2.46-3.73,3.64-.19.17-.38.35-.57.52-.38.35-.76.69-1.15,1.03-.17.15-.35.31-.52.46-.58.51-1.16,1.01-1.75,1.51-.34.29-.68.57-1.02.86-.08.07-.16.13-.24.2-.45.37-.89.74-1.35,1.11-.09-.1-.2-.19-.32-.28-.03-.02-.06-.04-.09-.07-.2-.14-.42-.27-.65-.38-.08-.04-.16-.08-.24-.11-.56-.25-1.19-.43-1.78-.57-.06-.01-.12-.03-.18-.04-.36-.08-.69-.15-.99-.22-4.9-.98-10.15.66-13.6,4.27-2.83,2.62-3.9,6.46-4.14,10.19,0,1.16.22,2.86.95,3.92-1.45,1.2-2.9,2.4-4.33,3.62-.45.38-.9.76-1.34,1.14-.45.38-.89.76-1.34,1.14-.21.18-.42.36-.63.54-.61.52-1.21,1.04-1.82,1.57-1.15.99-2.29,1.98-3.43,2.97-.71.62-1.42,1.24-2.13,1.85-4.56,3.96-9.12,7.92-13.77,11.77-.29.24-.58.48-.88.72-1.59,1.3-3.18,2.59-4.79,3.86-.02-.05-.04-.11-.07-.16,0-.01,0-.02-.01-.03-.08-.16-.18-.31-.3-.45-.03-.03-.06-.07-.09-.1-.02-.02-.04-.04-.06-.06-.03-.04-.07-.07-.11-.1,0,0,0,0,0,0-.04-.04-.09-.07-.13-.11-.02-.02-.04-.04-.07-.05-.04-.03-.08-.06-.12-.08-.06-.04-.11-.08-.18-.11-.54-.33-1.21-.57-1.92-.73-.04-.01-.09-.02-.14-.03-.29-.07-.59-.12-.89-.16-.08-.01-.16-.02-.24-.03-.06,0-.12-.01-.17-.02-.08-.01-.16-.02-.23-.02-.65-.06-1.29-.07-1.85-.05-.07,0-.15,0-.22,0-.32.02-.6.05-.85.09-6.08,1.23-12.17,7.1-11.22,13.67,0,.1.02.2.04.3.01.1.03.21.05.31.02.09.04.18.06.28.02.07.03.13.05.2.04.15.09.3.14.44.04.13.09.25.14.37.04.09.08.17.12.25.09.17.18.34.29.49-3.39,2.75-6.78,5.5-10.17,8.15-.2.13-.41.29-.63.45-.11.08-.22.16-.34.25-.09.06-.17.13-.26.19-.09.07-.18.13-.27.2-.15.11-.31.22-.47.34-.08.06-.16.11-.24.17-.01,0-.02.02-.04.02-.93.63-1.92,1.18-2.83,1.24,0,0,0,0,0,0-.1,0-.19,0-.29,0-.1,0-.19-.02-.29-.03-.05,0-.09-.02-.14-.03-.19-.05-.36-.12-.54-.22-.18-.1-.34-.24-.51-.41-.16-.17-.32-.37-.47-.61-2.26-3.4-4.01-7.52-2.7-11.55.66-.67,1.31-1.34,1.98-2.01.63-.64,1.25-1.27,1.88-1.91.59-.6,1.19-1.2,1.79-1.8,1.29-1.3,2.58-2.59,3.88-3.88.45-.45.9-.9,1.36-1.35.18-.18.37-.36.55-.55.47-.47.95-.94,1.42-1.41.5-.49,1-.99,1.5-1.48.75-.74,1.5-1.47,2.25-2.21,1.03-1.01,2.06-2.01,3.09-3.01.53-.52,1.07-1.04,1.61-1.56.03-.03.06-.06.09-.09.7-.67,1.39-1.34,2.09-2.01,1.66-1.59,3.32-3.18,5-4.76.44-.42.88-.84,1.33-1.25.56-.53,1.13-1.06,1.69-1.59,1.62-1.52,3.24-3.03,4.88-4.53.38-.35.75-.7,1.13-1.04,4-3.69,8.04-7.33,12.1-10.95.43-.38.86-.76,1.28-1.14.05-.05.11-.1.17-.15.75-.67,1.51-1.33,2.27-2,.44-.38.87-.76,1.31-1.15.72-.63,1.44-1.26,2.17-1.89.23-.2.45-.4.68-.59.46-.4.93-.81,1.39-1.21,2.79-2.41,5.59-4.79,8.4-7.16.51-.43,1.01-.85,1.52-1.28.04-.04.09-.08.14-.11.46-.39.93-.78,1.4-1.17,1.69-1.41,3.38-2.81,5.08-4.2.44-.36.88-.72,1.32-1.08.96-.79,1.92-1.57,2.89-2.35.56-.46,1.12-.91,1.68-1.36,1.96-1.58,3.93-3.15,5.91-4.71.06.03.13.07.19.09,0,0,0,0,0,0,.06.03.12.05.19.07h0c.1.03.19.06.29.08.05,0,.1.02.15.03.08.02.16.03.24.03.05,0,.09,0,.14.01.19.01.38.01.58,0,.05,0,.1,0,.15,0,.46-.02.93-.07,1.39-.06.05,0,.1,0,.16,0,.06,0,.13,0,.19,0,.11,0,.21.02.32.03.05,0,.1.01.14.02.04,0,.08.02.12.03.05.01.1.02.15.04.05.01.1.03.15.05Z" fill="#e5dabb"/><path d="M176.06,197.39s0,0-.01,0c.04.11.07.22.09.33-.01-.11-.04-.23-.08-.34ZM188.77,208.81c-2.08-4.32-6.5-7.67-11.19-8.61-.05-.02-.1-.03-.15-.05-.05-.01-.1-.03-.15-.04-.04,0-.08-.02-.12-.03-.05-.01-.1-.02-.14-.02-.1-.02-.21-.03-.32-.03-.07,0-.13,0-.19,0-.05,0-.11,0-.16,0-.46,0-.93.04-1.39.06-.05,0-.1,0-.15,0-.19,0-.39,0-.58,0-.05,0-.09,0-.14-.01-.08,0-.16-.02-.24-.03-.05,0-.1-.02-.15-.03-.1-.02-.19-.05-.29-.08h0c-.06-.02-.13-.05-.19-.07,0,0,0,0,0,0-.07-.03-.13-.06-.19-.09-1.98,1.56-3.95,3.13-5.91,4.71-.56.45-1.12.9-1.68,1.36-.97.78-1.93,1.56-2.89,2.35-.44.36-.88.72-1.32,1.08-1.7,1.39-3.39,2.79-5.08,4.2-.47.39-.93.78-1.4,1.17-.05.04-.09.07-.14.11-.51.42-1.02.85-1.52,1.28-2.82,2.37-5.62,4.76-8.4,7.16-.46.4-.93.8-1.39,1.21-.23.2-.46.4-.68.59-.72.63-1.45,1.26-2.17,1.89-.44.38-.87.76-1.31,1.15-.76.67-1.51,1.33-2.27,2-.05.05-.11.1-.17.15-.43.38-.86.76-1.28,1.14-4.07,3.61-8.1,7.26-12.1,10.95-.38.35-.75.69-1.13,1.04-1.63,1.5-3.26,3.02-4.88,4.53-.57.53-1.13,1.06-1.69,1.59-.44.42-.88.83-1.33,1.25-1.67,1.58-3.34,3.17-5,4.76-.7.67-1.39,1.34-2.09,2.01-.03.03-.06.06-.09.09-.54.52-1.08,1.04-1.61,1.56-1.03,1-2.07,2-3.09,3.01-.75.73-1.5,1.47-2.25,2.21-.5.49-1,.98-1.5,1.48-.47.47-.95.94-1.42,1.41-.18.18-.37.36-.55.55-.45.45-.91.9-1.36,1.35-1.3,1.29-2.59,2.58-3.88,3.88-.6.6-1.19,1.2-1.79,1.8-.63.63-1.26,1.27-1.88,1.91-.66.67-1.32,1.34-1.98,2.01-1.32,4.03.43,8.16,2.7,11.55.15.24.3.45.47.61.16.17.33.3.51.41.17.1.35.18.54.22.05.01.09.02.14.03.1.02.19.03.29.03.09,0,.19,0,.29,0,0,0,0,0,0,0,.05,0,.09,0,.14-.01.08-.01.16-.02.24-.04.06-.01.12-.02.18-.04.1-.02.19-.05.28-.08.09-.03.17-.06.26-.09.58-.23,1.17-.58,1.74-.97.01,0,.02-.02.04-.02.08-.05.16-.11.24-.17.16-.11.31-.22.47-.34.09-.07.18-.13.27-.2.09-.07.17-.13.26-.19.11-.09.23-.17.34-.25.22-.16.44-.31.63-.45,3.4-2.65,6.78-5.4,10.17-8.15-.11-.15-.2-.32-.29-.49-.04-.08-.08-.17-.12-.25-.05-.12-.1-.24-.14-.37-.05-.15-.1-.29-.14-.44-.02-.06-.03-.13-.05-.2-.02-.09-.04-.19-.06-.28-.02-.1-.04-.21-.05-.31-.01-.1-.03-.2-.04-.3-.95-6.58,5.14-12.44,11.22-13.67.25-.04.54-.07.85-.09.07,0,.14,0,.22,0,.56-.02,1.2-.01,1.85.05.07,0,.15.01.23.02.06,0,.11,0,.17.02.08,0,.16.02.24.03.3.04.6.09.89.16.05,0,.09.02.14.03.71.17,1.38.4,1.92.73.06.04.12.07.18.11.04.03.08.05.12.08.03.02.05.04.07.05.05.03.09.07.13.11,0,0,0,0,0,0,.04.03.08.07.11.1.02.02.04.04.06.06.03.03.06.07.09.1.12.14.22.29.3.45,0,0,.01.02.01.03.03.05.05.1.07.16,1.61-1.27,3.21-2.56,4.79-3.86.29-.24.58-.48.88-.72,4.65-3.85,9.21-7.81,13.77-11.77.71-.62,1.42-1.24,2.13-1.85,1.14-.99,2.28-1.98,3.43-2.97.61-.52,1.21-1.04,1.82-1.57.21-.18.42-.36.63-.54.44-.38.89-.76,1.34-1.14.45-.38.9-.76,1.34-1.14,1.43-1.22,2.88-2.42,4.33-3.62-.73-1.06-.95-2.76-.95-3.92.24-3.74,1.31-7.58,4.14-10.19,3.45-3.61,8.71-5.25,13.6-4.27.3.06.63.13.99.22.06.01.12.03.18.04.59.14,1.22.32,1.78.57.08.03.16.07.24.11.23.11.45.24.65.38.03.02.06.04.09.07.12.09.22.18.32.28.45-.37.9-.74,1.35-1.11.08-.07.16-.13.24-.2.34-.29.68-.57,1.02-.86.59-.5,1.17-1,1.75-1.51.17-.15.35-.31.52-.46.39-.34.77-.68,1.15-1.03.19-.17.38-.35.57-.52,1.28-1.18,2.52-2.39,3.73-3.64-.54-.61-.82-1.56-1.04-2.37ZM193.51,207.08c2.17-3.12,4.46-5.03.7-8.1-3.75-4.04-9.89-7.23-15.07-3.98-.47.36-.95.73-1.42,1.1.22.03.44.05.66.07,2.74.44,5.32,1.74,7.58,3.32,1.62.99,5.27,4.56,6.69,7.66.05.09.09.19.13.29.05.12.1.24.14.36.2-.24.4-.47.6-.71ZM197.08,196.04c6.03,5.15,2.83,9.83-1.38,14.84-11.44,12.79-26.27,21.9-39.06,33.23-11.33,9.39-22.02,19.65-33.88,28.36-10.12,7.13-18.82,16.37-29.52,22.61l.11-.04c-7.86,3.71-12.87-9.05-12.06-15.14-1.74-2.52,5.04-7.22,6.54-9.22,5.78-5.68,11.58-11.45,17.33-17.12,21.67-20.8,44.59-40.31,67.83-59.32,7.69-7.04,17.24-5.63,24.08,1.8Z"/><path d="M144.26,376.16c-1.66-1.08-2.16-3.31-3.13-4.95-1.86-3.93-3.68-7.87-5.35-11.88-1.84-4.29-4.43-9.51-1.16-13.79,4.92-6.8,11.72-11.93,17.83-17.6,12.42-11.29,24.32-23.12,37.08-34.03,6.12-5.43,12.25-10.87,18.33-16.36,2.18-1.87,4.01-4.22,5.11-6.88,1.36-3.04-.82-6.13-.09-9.21,1.67-5.61,9.35-9.33,13.6-13.18,2.82-2.2,5.52-4.39,8.07-6.51,1.54-1,2.71-2.98,4.61-3.19,1.73,0,2.69,2.39,1.34,3.55-1.83,1.55-3.66,3.09-5.51,4.6-3.39,3.51-18.58,12.76-18.18,16.46.97,3.64,1.14,7.59-.91,10.93-2.81,5.24-7.91,8.61-12.13,12.62-9.22,8.3-18.61,16.4-27.75,24.79-8.94,8.46-17.81,16.99-27.08,25.1-4.1,3.86-8.8,7.49-11.57,12.47-.79,4.43,2.9,9.27,4.28,13.46,0,0,0-.01,0-.02-.03-.07-.07-.15-.1-.22,1.68,3.58,3.18,7.26,5.17,10.69,1.45,1.69-.77,4.27-2.67,3.04,0,0,.23.12.23.12Z"/><path d="M151.12,365.22c-3.42,1.25-3.83-5.82-5.06-7.96-.43-2.24-3.47-6.66-1.7-8.44,1.13-1.14,3.26-.46,3.47,1.13.73,2.22,1.56,4.4,2.34,6.6.37,2.34,3.97,7.35.94,8.68Z"/><path d="M156.74,361.15c-1.06.42-2.23-.11-2.67-1.14-1.56-3.67-2.85-7.46-4.26-11.19-.55-1.47-1.52-3.56.26-4.58,1.22-.76,2.97.18,3.06,1.6.6,1.88,1.37,3.69,2.04,5.54.69,1.89,1.37,3.79,2.13,5.65.74,1.36,1.29,3.38-.54,4.12ZM152.08,347.83c.28-.17.53-.38.69-.66-.17.26-.41.49-.69.66Z"/><path d="M162.16,356.16c-3.32.99-3.56-4.46-4.8-6.49-.75-1.92-1.59-3.94-2.22-5.88-.33-1.11-.91-2.31-.47-3.47-.02.06-.04.12-.04.12,0,.02-.01.03-.02.05.26-1.09,1.53-1.7,2.56-1.39.94.28,1.47,1.12,1.46,2.03.61,2.19,1.49,4.28,2.32,6.39.46,2.37,4.36,7.18,1.23,8.64Z"/><path d="M112.03,263c-2.55,1.09-4.84-.35-7.03-1.53-1.24-.33-2.81-.57-2.87-2.18.11-3.3,4.01-2.09,5.82-.96,3.01,2.58,6.45-1.78,8.85-3.18,3.01-2.37,5.84-4.95,8.8-7.37,5.74-4.67,11.47-9.37,16.84-14.46,4.16-4.34,10.33-7.55,11.68-13.84.68-2.75.87-5.06,1.08-7.77.13-2.64,4.31-2.41,4.11.27-.49,9.97-2.64,14.91-10.53,21.09-7.26,6.91-14.93,13.34-22.7,19.66-4.64,3.81-8.62,7.88-14.05,10.27Z"/><path d="M362.6,101.8c6.71,5.32,10.63,14.47,10.9,22.82-2.1,15.16-10.93,30.25-24.1,38.42-.43.24-.87.45-1.32.63,8.61-8.1,13.87-19.55,16.31-31.06,1.35-7.66,3.26-15.59,1.68-23.35-.62-2.63-1.82-5.22-3.47-7.46Z" fill="#848a77"/><path d="M442.09,130.41c-.06-.8-.14-1.65-.26-2.51,1.76,3.83,2.46,8.38,2.21,12.12-.26,14.21-8.78,26.88-19.8,35.34-4.33,3.24-10.36,5.97-16.09,5.95.97-.35,1.9-.8,2.75-1.37,15.76-9.73,31.42-30.33,31.18-49.54Z" fill="#848a77"/><path d="M350.51,98.94c5.29.72,10.23,5.16,11.48,10.88,1.12,5.13.38,10.44-.45,15.56-1.89,13.85-7.43,28-18.33,37.22-1.01.79-2.04,1.38-3.09,1.76-.12.04-.24.09-.36.13-.07.02-.14.05-.21.07-.22.07-.44.13-.66.18-.1.02-.21.04-.31.06-.1.02-.21.04-.31.05-.22.04-.43.06-.65.08-.08,0-.15.01-.23.01-.04,0-.08,0-.12,0-.16,0-.31,0-.47,0-.04,0-.09,0-.13,0-.08,0-.16,0-.24-.01-.09,0-.18,0-.28-.02-.17-.01-.34-.03-.52-.06-.08-.01-.15-.02-.23-.04-.06-.01-.12-.02-.18-.03-2.87-.56-5.46-2.57-7.16-5.71-3.22-7.46-3.09-15.94-1.64-23.82,1.36-9.07,5.59-17.81,10.42-25.59,1.06-1.68,2.26-3.72,3.71-5.44.6-.49.84-1.28.7-2,1.72-1.78,3.68-2.8,5.7-3.2.82.75,2.05.39,3.54-.1h0Z" fill="#a3aa92"/><path d="M435.14,120.74s.02.03.03.05c.06.11.12.23.18.34.12.23.24.45.35.69.02.05.05.1.08.15.05.11.11.22.15.34.07.15.14.31.21.47.06.14.12.28.18.43,0,0,0,0,0,.01.06.14.12.29.17.43.03.08.06.17.09.26.04.1.07.2.11.3.1.28.19.56.27.84.04.13.08.26.12.39.04.15.09.3.12.45.04.15.08.3.12.45,0,.01,0,.03.01.04,4.13,17.18-12.07,37.58-24.54,47.52-6.56,6.11-20.15,5.94-20.08-5.22,1.77-15.16,10.72-29.58,21.46-40.3,4.09-3.43,9.55-8.89,15.2-9.42.28.47.78.85,1.57.99,1.54-.02,2.93.27,4.19.8Z" fill="#a3aa92"/></svg>