<?xml version="1.0" encoding="UTF-8"?><svg id="a" xmlns="http://www.w3.org/2000/svg" viewBox="0 0 500 500"><path d="M217.94,378.38c-25.09,4.62-50.66,6.47-75.97,9.69-19.31,2.28-38.71,4.02-58.17,3.23-5.37-.57-18.28.48-19.56-6.25-.17-3.97,2.21-7.57,3.46-11.22,6.18-15.15,12.11-30.43,19.15-45.21,7.43-15.49,15.94-30.43,24.1-45.53,6.24-11.38,11.82-22.71,17.19-34.29,1.05-1.66,1.4-4.37,3.49-4.95,4.26-5.59,19.31-6.64,26.3-8.48,21.45-4.15,43-7.96,64.83-9.42,12.66-.5,70.6-9.21,75.64,1.95,1.37,4.56-2.36,8.95-4.21,12.9-3.8,6.91-7.59,13.83-11.21,20.84-7.64,14.71-14.12,29.5-20.31,44.8-7.54,17.47-24.17,64.43-43,71.4-.58.22-1.17.39-1.75.53ZM76.62,362.53c-2.65,6.73-5.58,13.35-8.07,20.14-2.89,4.75,11.62,4.21,14.26,4.61,24.41,1.14,48.68-2.01,72.88-4.76,11.39-1.37,22.79-2.71,34.18-4.06,9.61-1.4,19.48-1.77,28.83-4.5,6.63-2.88,10.96-9.2,14.8-15.06,16.3-26.19,25.14-56.04,38.38-83.74,6.65-15.02,15.56-29.02,22.52-43.82,4.46-10.97-73.04-.66-81.35-.54-17.11,1.5-34.01,4.68-50.88,7.83-5.56,1.03-11.25,2.16-16.74,3.4-3.6,1.09-7.99,1.24-10.6,4.22-.65.67-1,1.72-1.96,1.98-17.62,38.69-41.42,74.32-56.25,114.29Z"/><path d="M80.74,405c-.33.06-.66.11-.99.17-.33.06-.66.12-.98.19-.28.05-.56.11-.84.17-.38.08-.75.16-1.12.24-.1-.27-.18-.55-.24-.85-.07-1.63.29-3.2.82-4.73,1.08,1.61,2.19,3.21,3.35,4.81,0,0,0,0,0,0Z"/><path d="M83.8,391.31c-.78-.08-1.71-.13-2.74-.17.53-1.29,1.05-2.58,1.57-3.88.06,0,.12.01.17.02,1.37.06,2.73.11,4.09.15-.54,1.31-1.08,2.62-1.62,3.93-.49-.02-.98-.03-1.47-.06Z"/><path d="M286.83,246.16c.72-1.34,1.44-2.69,2.15-4.04,1.52.02,3,.07,4.42.14-.72,1.31-1.44,2.61-2.15,3.92-1.41-.03-2.89-.04-4.42-.03Z"/><path d="M303.1,243.43c.97.22,1.87.47,2.69.75-.03.05-.05.11-.08.16-.28.55-.55,1.1-.82,1.66-.03.06-.06.12-.09.17-.56-.92-1.13-1.83-1.71-2.74Z"/><path d="M76.8,405.77c-.13.03-.25.05-.38.08-4.1-5.79-7.73-11.9-11.23-18.08-1.36-1.69-.99-4.21,1.52-4.03.75.13,1.38.72,1.59,1.44.93,1.6,1.89,3.19,2.78,4.82,3.02,5.33,6.14,10.12,9.65,15-1.32.22-2.63.48-3.93.77Z"/><path d="M221.99,380.42c-.73-1.06-1.43-2.17-2.25-3.16-.55-.53-.99-1.2-.82-2.01.2-1.07,1.19-1.83,2.29-1.66,1.46.34,2.11,1.94,2.99,3.01,2.12,3.08,4.3,6.11,6.45,9.17-1.01.86-2.06,1.68-3.16,2.43-1.83-2.6-3.68-5.18-5.5-7.78Z"/><path d="M295.29,231c-.75-1.06-1.84-2.41-.88-3.67,0-.01.02-.03.03-.04h0c.6-.79,1.75-1.05,2.63-.51.81.58,1.14,1.58,1.75,2.35,1.55,2.44,2.99,5.07,4.56,7.44,1.23,1.77,2.42,3.57,3.56,5.39-.39.75-.77,1.49-1.14,2.22-.03.05-.05.11-.08.16-.3.61-.6,1.22-.9,1.83h0c-3.12-5.09-6.5-10.02-9.53-15.17Z"/><path d="M213.08,394c-30.27,6.74-61.41,8.59-92.34,9.4-14.69.32-29.92-.84-44.31,2.46-.84-1.19-1.67-2.39-2.47-3.6,8.99-2.42,18.67-2.27,27.89-2.81,28.92.25,57.9-1.15,86.59-4.93,12-2.15,24.01-3.26,35.11-8.33,9.03-5.35,14.42-15.27,19.31-24.25,5.17-10.53,9.66-21.43,16.04-31.32,9.13-13.9,17.39-28.33,24.04-43.49,7.35-16.24,13.09-33.25,21.5-49.01.86,1.27,1.69,2.55,2.51,3.85-.42.8-.82,1.59-1.22,2.37-6.65,13.35-11.65,27.41-17.63,41.05-7.71,18.3-17.97,35.23-28.59,51.94-11.28,18.95-17.61,46.7-39.73,54.9-2.08.77-4.3,1.37-6.69,1.77Z"/><path d="M93.86,388.37c-.15-.47-.12-.94.03-1.31.2-.53.47-1.04.7-1.55.3-.65.6-1.3.89-1.96,1.19-2.61,2.38-5.22,3.57-7.83,2.84-6.23,5.68-12.47,8.52-18.7,3.33-7.3,6.66-14.61,9.99-21.91,3.25-7.14,6.51-14.29,9.77-21.44,3.28-7.19,6.56-14.39,9.84-21.58,3.36-7.38,6.73-14.76,10.09-22.14,3.3-7.25,6.61-14.5,9.91-21.75,1.99-4.36,3.98-8.71,5.96-13.07.45-.99,1.79-1.31,2.7-.83.46.24.81.66.97,1.16.17.53.09,1.05-.14,1.55-.02.03-.03.06-.04.1-3.2,7.05-6.42,14.08-9.63,21.12-3.32,7.29-6.64,14.59-9.97,21.88-3.35,7.33-6.69,14.67-10.03,22-3.24,7.12-6.48,14.23-9.73,21.35-3.28,7.19-6.56,14.38-9.83,21.56-3.29,7.22-6.58,14.44-9.87,21.66-2.66,5.82-5.31,11.65-7.97,17.48-.69,1.51-1.37,3.02-2.01,4.4-.25.53-.65.88-1.21,1.09-1.02.38-2.19-.29-2.51-1.29Z"/><path d="M133.46,387.52c-.46-.24-.81-.66-.98-1.14-.17-.53-.1-1.05.12-1.55.05-.12.11-.24.16-.36.02-.04.03-.07.05-.11h0c1.97-4.45,3.94-8.9,5.91-13.34,3.18-7.18,6.37-14.36,9.55-21.54,3.22-7.27,6.43-14.53,9.66-21.79,3.29-7.42,6.58-14.85,9.87-22.27,3.27-7.39,6.54-14.77,9.82-22.15,3.33-7.51,6.66-15.02,9.99-22.54,3.37-7.6,6.74-15.2,10.11-22.81,1.25-2.81,2.47-5.64,3.73-8.42,0,0,0-.01.01-.02h0s0,0,0-.01c.19-.41.52-.7.91-.88.46-.23,1-.29,1.54-.09.99.35,1.62,1.55,1.2,2.55v.03s-.02.03-.03.04c-.03.07-.06.13-.08.2,0,0,0,.01,0,.01-3.06,7.03-6.22,14.02-9.33,21.04-3.36,7.58-6.71,15.16-10.08,22.73-3.32,7.47-6.62,14.94-9.94,22.42-3.31,7.48-6.63,14.95-9.94,22.43-3.21,7.24-6.41,14.47-9.62,21.71-3.22,7.26-6.44,14.53-9.66,21.79-2.85,6.43-5.7,12.85-8.55,19.28-.47,1.07-.95,2.14-1.42,3.21-.03.08-.06.16-.11.24-.07.17-.15.34-.22.5-.2.45-.59.77-1.03.94-.54.2-1.16.18-1.66-.08Z"/><path d="M171.2,380.89c-.18-.54-.12-1.1.13-1.57,0,0-.01.01-.02.02h0c-.04.08-.07.16-.1.24.24-.61.54-1.19.81-1.79.52-1.14,1.04-2.28,1.56-3.42,1.44-3.16,2.89-6.32,4.33-9.48,3.32-7.25,6.63-14.49,9.94-21.74,3.28-7.18,6.56-14.35,9.84-21.53,3.36-7.34,6.72-14.69,10.08-22.04,3.41-7.46,6.82-14.92,10.23-22.38,3.37-7.37,6.74-14.74,10.11-22.11,3.4-7.43,6.8-14.87,10.2-22.3.63-1.38,1.26-2.75,1.89-4.12.53-1.16,1.09-2.32,1.6-3.49.43-1,1.76-1.34,2.68-.88.46.23.82.65.99,1.14.18.53.11,1.05-.11,1.55-.7,1.62-1.47,3.21-2.2,4.81-.84,1.84-1.69,3.69-2.53,5.53-1.7,3.73-3.41,7.45-5.11,11.18-3.38,7.4-6.76,14.8-10.15,22.19-3.4,7.42-6.78,14.84-10.18,22.26-3.35,7.32-6.69,14.64-10.04,21.96-3.37,7.37-6.74,14.74-10.11,22.11-3.25,7.11-6.5,14.21-9.75,21.32-3.05,6.66-6.1,13.32-9.14,19.99-.43.94-.86,1.88-1.21,2.63-.24.55-.64.96-1.22,1.17-1.02.38-2.19-.24-2.53-1.25Z"/><path d="M96.17,403.57c-.86-1.55-.66-4.35-1.26-5.81-.5-2.68-1.31-5.32-1.45-8.05-.2-2.81,4.15-2.86,4-.03.26,2.74.99,5.25,1.5,7.92.07,1.66,1.41,4.27.76,5.88-1.18.02-2.36.05-3.54.09Z"/><path d="M135.03,402.94c-.26-2.36-.49-4.72-.77-7.08-.41-3.26-.8-6.52-1.15-9.78-.06-.55,0-1.12.3-1.6.77-1.29,2.85-1.3,3.53.08.52,3.43.73,7.02,1.25,10.5.31,2.57.55,5.14.84,7.71-1.33.06-2.67.11-4,.17Z"/><path d="M176.34,399.99c-.21-1-.43-2-.64-3-1.08-4.95-2.2-9.46-3.71-14.09-1.42-3.08,3.31-4.28,3.88-.99,1.47,4.63,2.57,8.97,3.61,13.65.29,1.32.58,2.64.85,3.96-1.33.16-2.65.32-3.99.47Z"/><path d="M222.9,351.31c-8.43.76-16.87,1.52-25.3,2.28-8.42.76-16.84,1.5-25.26,2.27-8.47.77-16.93,1.52-25.4,2.28-8.55.77-17.1,1.54-25.66,2.31-8.79.79-17.59,1.58-26.38,2.37-7.86.71-15.72,1.42-23.59,2.12.56-1.38,1.12-2.77,1.68-4.15,4-.36,8-.73,12-1.09,8.69-.78,17.38-1.56,26.06-2.35,8.65-.78,17.31-1.56,25.96-2.34,8.5-.76,17-1.53,25.5-2.29,8.49-.76,16.99-1.52,25.48-2.29,8.5-.78,16.99-1.53,25.49-2.29,8.25-.74,16.5-1.49,24.76-2.23,2.54-.23,5.07-.45,7.61-.68-.71,1.41-1.42,2.81-2.15,4.2-6.93.62-13.86,1.25-20.8,1.87Z"/><path d="M249.01,348.96c.67-1.4,1.34-2.8,2.03-4.19,1.55-.14,3.1-.28,4.64-.42-.69,1.37-1.37,2.77-2.05,4.19-1.54.14-3.08.28-4.62.42Z"/><path d="M254.6,315.22c-8.35.63-16.71,1.25-25.06,1.89-8.87.67-17.75,1.34-26.62,2-8.92.67-17.83,1.34-26.75,2.01-8.83.67-17.65,1.33-26.48,1.99-8.97.67-17.94,1.35-26.9,2.02-8.84.66-17.68,1.33-26.52,2-3,.22-6,.45-9,.68.67-1.39,1.35-2.78,2.03-4.16,8.64-.65,17.27-1.3,25.91-1.95,8.89-.67,17.78-1.33,26.66-2.01,8.79-.67,17.59-1.33,26.38-1.99,8.96-.67,17.91-1.35,26.87-2.02,8.88-.66,17.77-1.34,26.65-2.01,8.53-.64,17.06-1.28,25.59-1.93,4.51-.34,9.02-.67,13.53-1.01-.53,1.29-1.1,2.67-1.69,4.12-1.53.12-3.07.23-4.6.35Z"/><path d="M269.11,314.13c.81-1.39,1.61-2.78,2.39-4.18.35-.03.69-.05,1.04-.08,1.22-.09,2.45-.19,3.67-.28-.77,1.4-1.56,2.79-2.35,4.18-1.58.12-3.16.24-4.74.36Z"/><path d="M268.61,283.32c-8.45.64-16.9,1.29-25.35,1.93-8.59.65-17.19,1.3-25.78,1.96-8.63.66-17.27,1.32-25.9,1.97-8.74.66-17.49,1.34-26.23,2-8.8.66-17.61,1.34-26.42,2.01-8.77.66-17.54,1.35-26.31,2-2.87.21-5.73.43-8.6.65.76-1.39,1.52-2.78,2.28-4.17,8.05-.61,16.09-1.23,24.14-1.84,8.87-.67,17.74-1.35,26.61-2.03,8.75-.66,17.5-1.34,26.24-2,8.78-.66,17.56-1.34,26.34-2,8.55-.65,17.09-1.3,25.63-1.95,8.55-.65,17.09-1.29,25.63-1.95,4.56-.35,9.11-.69,13.67-1.04-.64,1.38-1.27,2.76-1.9,4.15-1.35.1-2.7.21-4.06.31Z"/><path d="M285.17,282.07c.59-1.37,1.18-2.75,1.76-4.14.96-.07,1.92-.15,2.89-.22.02,0,.05,0,.07,0,.11,0,.23-.02.34-.03.01,0,.02,0,.03,0,.2-.01.41-.03.61-.05.18-.01.35,0,.52.02-.56,1.36-1.13,2.72-1.71,4.07-1.5.11-3,.23-4.5.34Z"/><path d="M264.39,255.88c-9.1.83-18.19,1.69-27.28,2.53-9.12.85-18.24,1.69-27.35,2.54-9.15.85-18.3,1.69-27.44,2.54-9.23.86-18.47,1.71-27.7,2.57-9.17.85-18.34,1.7-27.51,2.55-2.98.28-5.95.55-8.93.83.71-1.4,1.42-2.8,2.11-4.2,8.91-.83,17.83-1.65,26.74-2.48,9.15-.85,18.29-1.7,27.44-2.54,9.18-.85,18.36-1.71,27.54-2.55,9.19-.85,18.39-1.71,27.58-2.56,9-.84,18-1.67,27-2.5,9.12-.84,18.25-1.69,27.37-2.54,1.82-.17,3.65-.34,5.47-.51-.76,1.4-1.52,2.81-2.28,4.22-7.59.71-15.17,1.42-22.76,2.11Z"/><path d="M297.37,252.82c.61-1.4,1.24-2.79,1.87-4.18,1.53-.14,3.06-.28,4.6-.42-.66,1.39-1.3,2.78-1.93,4.18-1.51.14-3.03.28-4.54.42Z"/><path d="M246.59,362.88c-1.51-2.84-3.03-5.66-4.68-8.42-.88-1.74-2.38-3.33-2.71-5.29-.06-1.73,2.24-2.68,3.42-1.42,2.09,3.6,4.24,7.21,6.24,10.89-.71,1.48-1.42,2.95-2.15,4.41-.04-.06-.09-.12-.12-.18Z"/><path d="M260.15,324.11c-1.29-2.86-2.44-5.79-3.84-8.6-.5-.92-.94-2.12-.19-3.05,1.11-1.47,3.39-.79,3.61.94,2.13,4.53,4.06,9.15,6.19,13.69-.83,1.34-1.66,2.68-2.49,4.01-1.13-2.32-2.21-4.65-3.27-7ZM258.26,315.59c.08-.03.16-.06.24-.08.08-.04.16-.08.23-.11.07-.05.14-.1.21-.14.01-.02.03-.03.04-.04-.25.2-.55.34-.87.41.05-.01.1-.02.15-.03Z"/><path d="M269.03,283.7c-1.7-3.55,3.36-5.17,3.79-1.22,2.52,6.34,5.15,12.65,7.73,18.97-.8,1.55-1.6,3.09-2.43,4.62-3.02-7.46-6.18-14.87-9.1-22.37Z"/><path d="M287,260.94c-.74-1.93-1.51-3.84-2.28-5.75-.52-1.27-1.22-2.96.1-3.99,1.34-1.09,3.35.07,3.3,1.7.67,1.76,1.42,3.49,2.08,5.25,1.46,3.82,2.97,7.61,4.47,11.42-.73,1.79-1.45,3.57-2.18,5.35-1.83-4.67-3.71-9.31-5.5-13.98Z"/><path d="M133.54,268.01c.63-1.4,1.27-2.79,1.91-4.18,1.53-.14,3.05-.28,4.58-.43-.64,1.39-1.28,2.79-1.92,4.18-1.52.14-3.04.28-4.57.42Z"/><path d="M121.99,294.48c.58-1.38,1.17-2.76,1.76-4.14h0c1.5-.12,2.99-.23,4.49-.34-.59,1.38-1.18,2.76-1.76,4.14-1.5.11-2.99.23-4.49.34Z"/><path d="M108.69,326.2c.59-1.38,1.17-2.75,1.76-4.13,1.5-.11,2.99-.22,4.49-.34-.58,1.38-1.16,2.76-1.74,4.13-1.5.11-3.01.23-4.51.34Z"/><path d="M94.9,362.83c-.63.06-1.26.11-1.89.17.58-1.39,1.17-2.78,1.75-4.17,1.51-.14,3.01-.27,4.51-.41-.59,1.39-1.18,2.78-1.77,4.17-.87.08-1.74.16-2.61.24Z"/><path d="M85.28,391.37c-.49-.02-.98-.03-1.47-.06-.16-.02-.33-.03-.5-.05-.53-.04-1.11-.08-1.73-.1.5-1.29,1.01-2.58,1.52-3.86.59.03,1.18.05,1.76.07.25.01.51.02.76.03.43.01.86.03,1.28.04.14,0,.27,0,.41.01-.52,1.31-1.03,2.62-1.54,3.93-.17,0-.33,0-.49-.01Z"/><path d="M242.91,404.18c-28.67,5.01-56.73,12.88-85.35,18.08-19.28,3.31-38.63,6.21-58.06,8.47-7.13.3-24.67,5.71-28.01-2.34-1.07-2.87.18-5.96.65-8.84,1.45-6.34,3.54-12.49,5.77-18.6.08.12.16.24.24.35,1.36-.25,2.73-.46,4.1-.63-2.29,6.43-4.77,13.12-6.22,19.74-1.71,6.55-1.64,8.82,5.99,8.29,6.48-.38,12.9-1.46,19.33-2.24,34.12-3.94,67.99-9.77,101.32-18.06,6.32-1.44,12.64-2.83,18.99-4.12,8.36-2.08,17.27-2.43,25.25-5.76,6.35-4.17,9.56-11.56,13.62-17.73,5.59-9.77,10.41-19.45,15.25-29.51,12.17-25.8,23.68-51.92,36.14-77.59,8.05-17.46,17.61-34.14,25.76-51.45,2.63-5.71,5.39-11.37,7.93-17.11,1.7-3.34.25-7.53-3.57-8.42-10.63-2.74-21.84.06-32.61.75-14.16,1.46-28.29,3.25-42.39,5.32-29.84,4.58-59.77,10.17-88.49,19.59-5.67,1.93-11.39,3.97-16.79,6.54-.68.21-1.32.61-1.98,1.02-1.16.72-2.32,1.44-3.6,1.06-.1.2-.22.38-.37.54.03-.03.06-.06.09-.09.03-.05.07-.09.1-.14-1.72,3.16-3.39,6.35-5.04,9.55-1.69.35-3.36.71-5.02,1.09,1.34-2.67,2.71-5.32,4.09-7.97,1.45-2,2.06-6.54,5.12-5.62.17-.38.45-.71.84-.93,5.34-3,11.06-5.23,16.81-7.27,9.26-3.29,18.73-5.99,28.22-8.54,27.63-6.93,55.79-11.68,84.03-15.34,13.76-1.74,27.55-3.34,41.39-4.42,7.59-.24,18.05-1.69,22.79,5.66,2.53,4.63.03,9.58-2.08,13.84-2.73,5.86-5.44,11.74-8.21,17.58-10.31,20.22-20.79,40.23-30.27,60.84-12.24,25.61-23.34,51.78-36.15,77.12-4.78,9.24-9.58,18.52-15.63,27.02-2.7,4.21-6.39,7.75-11.04,9.47-.95.35-1.94.63-2.96.82Z"/><path d="M153.11,231.78c-2.45-3.19,5.86-5.84,8.04-6.43,2.44-.07,2.82,3.53.43,3.97-.45.13-.9.33-1.1.4-1.46.56-2.89,1.23-4.21,2.07-.25.26-.54.45-.86.57-.79.29-1.71.14-2.29-.58Z"/><path d="M255.9,447.09c-39.38,12.06-80.48,15.22-121.13,20.13-12.24,1.59-24.6,3.72-36.98,2.69-10.5-1.03-13.17-4.75-17-14.03-2.45-5.35-4.38-10.91-6.35-16.46-1.12-3.97-3.75-8.13-2.99-12.32.69-1.57,3.16-1.41,3.67.21.19,2.91,1.26,5.67,2.23,8.41,3.12,8.79,6.15,17.65,10.67,25.82,7.71,9.77,41.1,1.61,53.03.86,12.53-1.43,25.08-2.76,37.59-4.36,26.68-3.07,52.91-7.48,78.47-15.64,7.73-4.47,13.65-11.52,20.47-17.2.81-.73,2.1-.65,2.82.16.73.82.65,2.09-.16,2.82-3.01,2.74-6.03,5.46-9.06,8.18-4.33,3.72-8.39,8.24-13.83,10.26-.48.18-.97.34-1.47.47Z"/><path d="M389.98,249.4c7.78,11.58,12.25,18.98,11.44,33.5-.46,8-1.63,16.32-6.71,22.8-7.25,10.52-15.57,20.27-24.34,29.54-20.53,21.05-40.62,42.53-61.49,63.24-8.27,8.37-16.66,16.62-24.75,25.18-1.54,1.18-3.09,4.18-4.89,4.85-.65.24-1.32.18-2.05-.37-.79-.76-.8-2.03-.06-2.82,2.25-2.41,4.49-4.84,6.77-7.22,8.32-8.56,16.76-17,25.18-25.44,23.34-23.94,47.07-47.58,69.43-72.43,5.75-7.14,11.85-14.17,16.18-22.28,1.8-4.58,2.26-9.68,2.71-14.54.73-12.9-2.44-19.45-9.52-29.85-5.04-7.93-10.36-15.67-16.1-23.07-8.13-10.03-16.27-20.27-25.55-29.24-.3-1.82-1.41-3.44-3.24-4.22.11-.34.31-.64.63-.87,3.07-1.73,5.64,2.59,7.66,4.35,5.62,6.14,11.23,12.3,16.53,18.73,8.04,9.55,15.4,19.66,22.14,30.17Z"/><path d="M248.58,401.6c-1.5-2.7,2.82-4.57,3.67-1.58,7.19,11.75,12.55,24.45,18.22,36.98-1.04.92-2.07,1.87-3.12,2.82-5.84-12.94-11.4-26.06-18.78-38.21Z"/><path d="M324.91,195.87c-.2-6.41-.56-12.82-.89-19.23-1.12-8.18.61-26-5.26-31.53-7.14-3.76-4.54,9.98-5.37,13.68-.26,6.75-.49,13.48-.6,20.23-.11,5.99-.1,12.11.31,18.13-1.22.12-2.44.22-3.64.3-.16.02-.32.03-.48.05-.75-12.53.33-30.98.26-34.47.8-6.13-.91-15.49,2.68-20.49,3.13-3.75,9-2.05,11.49,1.59,1.82,2.71,2.38,6.07,2.95,9.24,1.46,14.02,2,28.14,2.5,42.22-1.31.06-2.63.15-3.94.27Z"/><path d="M324.23,180.66c11.84-6.34,6.29-31.69-3.82-37.68-11.51-6.84-23.52,2.95-24.52,15.02-.8,9.23,4.67,22.24,12.54,27.3,6.06.76-.49,11.37-10.54-5.74-3.95-6.89-7.13-14.87-5.85-22.94,1.27-9.28,8.2-18.6,17.94-19.75,24.16-3.68,34.13,40.84,14.47,48.14-.07-1.45-.15-2.89-.22-4.34ZM306.7,187.18c.04-.37.16-.72.36-1.02-.23.29-.33.65-.36,1.02Z"/><path d="M332.57,195.53s.03-.04.05-.07c.97-1.31,1.85-2.69,2.65-4.11l.02-.03c.86-1.56,1.61-3.17,2.29-4.82.71-1.79,1.31-3.62,1.82-5.48.59-2.29,1.04-4.6,1.34-6.86,0-.03,0-.06.01-.09v-.04c.31-2.48.44-4.98.45-7.45-.03-2.63-.21-5.24-.55-7.85-.39-2.72-.94-5.42-1.66-8.08-.69-2.42-1.52-4.79-2.43-6.99-.02-.05-.04-.09-.06-.14h0c-.94-2.17-1.99-4.27-3.17-6.3-1.14-1.91-2.4-3.73-3.77-5.48-1.16-1.44-2.4-2.81-3.66-4.05-.03-.02-.05-.05-.08-.07l-.02-.02c-1.14-1.07-2.32-2.09-3.54-3.02-1.15-.84-2.34-1.62-3.58-2.32-1.11-.61-2.24-1.16-3.41-1.65-1.05-.42-2.13-.77-3.22-1.07-1.09-.27-2.18-.49-3.29-.64-1-.11-2-.18-3.01-.18-1.01.02-2,.09-3,.2-1.04.15-2.07.35-3.09.62-1.04.3-2.04.65-3.04,1.07-1.08.48-2.11,1.01-3.13,1.61-.92.57-1.81,1.19-2.67,1.85-1.09.88-2.11,1.82-3.09,2.82-.87.93-1.68,1.9-2.46,2.91-.98,1.34-1.88,2.72-2.72,4.16-.82,1.5-1.57,3.03-2.23,4.61-.08.21-.15.42-.25.62-.74,1.87-1.33,3.79-1.85,5.73-.5,2.02-.88,4.06-1.18,6.12-.31,2.55-.48,5.09-.5,7.66.03,2.82.24,5.62.57,8.16.4,2.7.94,5.36,1.66,7.99.73,2.52,1.6,4.99,2.62,7.41.94,2.12,1.99,4.19,3.16,6.19,1.07,1.74,2.21,3.42,3.46,5.03,1.16,1.44,2.38,2.81,3.69,4.12.59.56,1.19,1.11,1.81,1.64-1.73.21-3.46.42-5.18.64-1.09-1.1-2.11-2.27-3.08-3.47-5.24-6.54-8.76-14.24-10.81-22.34-1.02-4.05-1.62-8.23-1.81-12.4-.2-4.22,0-8.45.67-12.62.33-2.04.75-4.07,1.3-6.07.29-1.05.61-2.08.96-3.11.16-.47.33-.94.5-1.4.08-.22.17-.43.25-.65.11-.28.21-.59.35-.86.02-.06.05-.13.08-.19.8-1.9,1.73-3.72,2.75-5.51,1.04-1.81,2.27-3.52,3.59-5.13,1.3-1.6,2.77-3.08,4.33-4.42,3.04-2.58,6.57-4.6,10.38-5.78,3.81-1.18,7.82-1.46,11.76-.95,3.67.48,7.28,1.72,10.53,3.5,6.67,3.65,12.13,9.27,16.08,15.74,4.12,6.73,6.8,14.2,8.13,21.97,1.29,7.53,1.21,15.35-.33,22.84-1.02,4.98-2.74,9.82-5.2,14.24,0,.01-.01.03-.02.04l-.02.03c-.47.84-.96,1.67-1.49,2.48-1.55-.18-3.11-.27-4.67-.29Z"/><path d="M330.76,133.87c-3-6.62-5.64-13.71-10.45-19.27-13.9-15.78-25.7-7.69-33.83,8.19-4.03,7.82-6.99,16.2-8.91,24.79-.38,2.12-.9,4.29-.8,6.45.27,1.83-2.16,2.99-3.41,1.64-1.93-3.78,1.3-11.91,2.16-16.1,3.61-11.24,7.96-23.03,16.58-31.42,15.06-15.56,33.13,1.54,39.1,16.92,1.11,2.42,2.19,4.85,3.25,7.28.44,1-.1,2.2-1.09,2.61-.02,0-.04.02-.07.03-1,.37-2.12-.14-2.54-1.11Z"/><path d="M411.1,212.02c-35.89,9.18-62.47-44.71-75.55-70.88-2.05-4.32-4.89-8.31-6.56-12.78-.4-2.39,3.28-3.21,3.91-.84,8.66,15.9,15.9,32.7,26.02,47.77,7.61,10.74,15.67,20.98,26.6,28.3,11.91,7.83,27.26,8.03,36.5-3.94,23.69-31.89-.4-63.33-22.26-87.84-12.33-14.45-23.75-31.29-25.75-50.65-1.06-11.64,4.27-27.83,17.68-28.95,7.34.07,14.3,3.05,20.38,6.98,2.32,1.61,4.58,3.33,6.75,5.13.42.35.72.78.79,1.34.3,1.68-1.83,2.96-3.16,1.88-1.17-.98-2.37-1.92-3.6-2.83-3.74-2.97-8.01-5.26-12.46-6.99-8.08-2.51-13.74-2.3-18.6,5.44-5.51,8.99-4.47,20.29-1.18,29.9,7.9,24.76,29.24,41.09,42.75,62.45,6.55,10.02,11.73,21.32,12.38,33.42.52,16.73-7.24,36.68-23.91,42.86-.24.09-.49.18-.73.26Z"/><path d="M199.64,216.15c-1.92-2.25-3.61-4.72-5.17-7.03-10.76-18.43-13.26-42.25-5.79-62.32,1.05-2.34,4.72-.7,3.63,1.66-1.07,2.77-1.83,5.65-2.58,8.52-3.45,17.79.09,44.67,14.47,57.98-1.53.39-3.05.78-4.57,1.18Z"/><path d="M189.8,149.76c-2.4-.88-1.69-3.58.56-4.21,5.12-2.55,10.39-4.79,15.6-7.16,17.64-8.61,35.73-16.15,54.25-22.66,13.24-5.18,26.75-9.51,40.5-13.06.82-.21,1.64-.48,2.48-.19,1.63.61,1.7,3.08.06,3.73-24.97,6.15-49.01,15.76-72.86,25.29-12.71,5.79-25.39,11.69-38.08,17.54-.43.2-.86.47-1.31.64-.38.14-.77.2-1.2.09Z"/><path d="M366.97,192.44c5.99-29.64-28.75-73.97-40.25-97.42-5.98-11.14-8.91-24.31-5.17-36.65,1.85-6.13,4.87-11.94,9.08-16.78.36-.41.81-.68,1.36-.73,1.68-.22,2.89,1.95,1.75,3.24-2.29,2.56-4.08,5.52-5.71,8.53-6.09,12.03-5.03,26.14.94,37.94,13.68,28.31,48.02,70.33,41.95,102.57-.24.9-.48,1.85-.75,2.82-1.09-1.13-2.15-2.31-3.2-3.51Z"/><path d="M399.11,37l.07.03s-.07-.03-.11-.04c-.96-.38-1.93-.72-2.93-.98-1.22-.29-2.47-.45-3.71-.62-1.55-.21-3.1-.39-4.38-.53-3.14-.33-6.29-.59-9.44-.78-2.87-.18-5.74-.33-8.36-.25-3.44.12-6.89.45-10.29.97-3.02.5-6,1.23-8.68,2.02-.16.05-.33.1-.49.15-2.98.91-5.86,2.06-8.71,3.32-1.29.59-2.56,1.19-3.84,1.8-1.32.62-2.65,1.21-3.91,1.95l-.27.17c-.37.3-.75.53-1.24.58-.81.08-1.51-.34-1.93-1-.35-.63-.36-1.43.05-2.07.16-.25.37-.45.61-.6,1.05-.81,2.29-1.37,3.49-1.93,1.49-.7,2.97-1.41,4.46-2.1,1.66-.77,3.34-1.5,5.04-2.18,1.81-.72,3.66-1.33,5.42-1.86,3.68-1.1,7.45-1.99,11.27-2.46,3.65-.45,7.33-.78,11-.77,3.49,0,6.98.27,10.45.55,2.85.23,5.7.51,8.54.85,1.56.19,3.13.38,4.68.66,1.48.27,2.9.72,4.3,1.26l.18.07c.13.05.25.1.38.15,1.01.4,1.39,1.72.95,2.66-.22.47-.63.84-1.11,1.02-.5.19-1,.14-1.49-.04Z"/><path d="M405.14,67.58c-1.14,0-1.84-.86-2.43-1.71-1.92-2.74-3.82-4.97-6.5-6.83-4.68,15.01-7.12,5.59-15.73,6.68-.79,1.54-.32,4.15-1.97,5.01-2.93.91-3.28-1.94-2.43-4.07.45-1.77.85-3.84,2.66-4.71,3.64-1.31,7.79.4,11.25,1.67h0c1.49-2.14,1.97-4.82,2.93-7.22,2.14-4.2,6.85.09,8.97,2.2-.94-3.2-2.13-9.88,3.35-8.49,2.91,1.35,4.85,4.15,6.92,6.5.87-2.5-1.51-6.6.66-8.38,1.26-.89,2.78-.39,4.07.23-1.36-1.95,1.36-4.23,3.05-2.55,3.74,3.6,1.73,9.98-3.8,6.65.78,4.27-.71,10.26-6.15,7.44-1.77-1.55-3-3.64-4.82-5.15h0c.63,3.24,1.55,6.43,2.04,9.69.26,1.16-.27,2.5-1.35,2.91-.22.08-.45.12-.71.12Z"/><path d="M378.48,70.75s.02,0,.03-.01c-.03.02-.06.03-.09.04.02-.01.04-.02.06-.03Z"/><path d="M256.56,189.13c-5.21,1.97-10.41,3.93-16.04,4.36-4,.66-8.34-.74-12.19.54-1.9,2.37-3.82,5.45-7.06,6-2.43-.02-9.18,2.21-8.07-2.31.5-1.29,2.52-1.34,4.5-1.38,1.42-.03,2.82-.05,3.64-.51,1.66-1.14,2.74-2.86,3.95-4.41,4.7-3.83,11.76-.62,17.29-2.28,4.25-.52,8.22-2.06,12.19-3.61,2.21-.86,4.42-1.72,6.69-2.41,2.4-.98,3.94,2.71,1.52,3.69-2.16.7-4.29,1.5-6.42,2.31Z"/><path d="M259.4,169.9c-15.63,3.53-30.85,8.47-46.11,13.32-3.29.98-6.9,2.33-9.99,3.4-1.53.45-3.2,1.32-4.81.76-2.21-.99-1.14-4.26,1.23-3.84,16.25-5.28,32.35-10.9,48.92-15.09,3.23-.83,6.49-1.57,9.72-2.41,1.06-.27,2.16.36,2.45,1.41.27.98-.29,2.04-1.23,2.39-.06.02-.12.04-.19.06Z"/><path d="M252.43,158.17c-5.45.16-11.14-.35-16.35-1.98-3,1.18-5.05,4.27-7.96,5.76-4.53,2.23-9.5,3.94-14.61,3.9-4.45,0-8.71.19-13.05.98-2.56.33-3.11-3.57-.52-3.96,5.01-.94,10.1-1,15.17-1.05,4.06-.4,8.06-1.74,11.62-3.7,3.03-1.91,5.37-5.47,9.12-5.95,5.75,1.18,11.87,2.85,17.76,1.69,3.16-1.21,5.95-3.2,8.96-4.72,1.36-1.4,3.9.1,3.31,2-.32,1.12-1.56,1.6-2.5,2.1-2.65,1.33-5.16,3.17-7.95,4.2-.97.36-1.96.62-3.01.73Z"/><path d="M236.52,145.11c-7.46,2.55-15.11,4.46-22.67,6.69-2,.57-4,1.17-5.95,1.89-.94.4-2.11.47-2.88-.32-1.32-1.28-.17-3.46,1.56-3.44,3.67-1.34,7.46-2.31,11.2-3.42,9.37-2.61,18.77-5.22,27.72-9.07,3.81-1.56,7.56-3.26,11.32-4.91,2.4-.97,3.93,2.66,1.52,3.7-5.93,2.64-11.89,5.27-17.98,7.52-1.27.47-2.55.93-3.84,1.37Z"/><path d="M381.99,186.98c-1.95.98-3.86-1.81-2.22-3.26,1.04-.66,2.25-.97,3.46-1.28.81-.21,1.62-.42,2.37-.73,9.99-4.04,19.9-8.27,30.16-11.6,1.02-.37,2.18.08,2.59,1.12.39.98-.09,2.23-1.12,2.59-3.7,1.32-7.43,2.57-11.12,3.94-3.42,1.16-6.74,2.58-10.06,4-2.68,1.14-5.35,2.29-8.07,3.3-1.97.73-3.96,1.39-6,1.93Z"/><path d="M408.83,167.6c-1.24.36-2.47.82-3.7,1.29-1.85.7-3.7,1.41-5.59,1.74-1.71-.21-2.31-2.63-.88-3.59,1.75-.81,3.6-1.42,5.44-2.03,1.09-.36,2.18-.72,3.25-1.12,1.03-.36,2.18.07,2.6,1.12.38.97-.08,2.21-1.08,2.58-.01,0-.02,0-.03.01Z"/><path d="M382.12,177.85c-2.39-.06-2.58-3.36-.42-4.07.95-.53,2.19-.17,2.72.77.74,1.3-.25,2.67-1.5,3.14-.26.1-.53.15-.79.16Z"/><path d="M410.62,147.66c-9.78,3.48-19.61,6.84-29.3,10.55-.65.13-1.51.52-2.43.93-2.26,1.01-4.91,2.16-5.89.03-.47-1.19.33-2.58,1.61-2.74,1.87-.63,3.7-1.35,5.54-2.05,5.73-2.2,11.51-4.26,17.3-6.29,3.9-1.38,7.8-2.77,11.69-4.15,1.03-.36,2.18.08,2.6,1.12.39.97-.09,2.21-1.1,2.59,0,0-.02,0-.02,0Z"/><path d="M390.1,141.54c-5.67,1.82-11.34,3.69-17.08,5.3-1.84.26-4.3,2.1-5.79.28-1.39-2.63,1.33-3.31,3.68-3.85.79-.18,1.54-.35,2.07-.57,5.08-1.44,10.11-3.11,15.14-4.71,3.96-1.3,7.86-2.78,11.75-4.28,1.02-.39,2.19.1,2.59,1.12.4,1-.1,2.2-1.12,2.59-1.76.68-3.53,1.35-5.31,2.01-1.97.73-3.95,1.44-5.95,2.11Z"/><path d="M390.64,130.92c-2.05-.29-2.27-3.25-.33-3.89,1.53-.66,3.88-1.94,4.8.22.41,1.01-.11,2.19-1.12,2.6-.42.11-.83.31-1.23.5-.29.14-.57.28-.86.38-.4.15-.82.24-1.25.19Z"/><path d="M383.17,133.27c-3.2,1.04-6.45,1.94-9.72,2.77-2.53.62-3.51-3.19-.99-3.87,3.6-.73,7.09-2.27,10.67-2.85,2.04.29,2.22,3.19.47,3.84-.14.05-.28.09-.44.11ZM380.97,131.89c-.05-.16-.08-.32-.09-.5,0,.17.02.35.09.5Z"/><path d="M368.14,125.41c-.72.16-1.86.61-3.17,1.11-3.2,1.24-7.37,2.83-8.58,1.52-1.15-1.07-.38-3.13,1.09-3.34,6.05-1.73,11.93-3.98,17.82-6.23,2.96-1.13,5.92-2.26,8.9-3.32.66-.12,1.45-.49,2.27-.87,1.93-.89,4.03-1.84,5.08.19.4,1.01-.11,2.2-1.12,2.59-2.5.97-5.02,1.9-7.54,2.83-2.47.91-4.93,1.83-7.39,2.76-2.2.83-4.41,1.65-6.61,2.47-.26.1-.51.19-.77.29Z"/><path d="M349.41,118.07c-3.77-2.86,1.94-4.95,5.65-6.3,1-.36,1.85-.67,2.34-.93,7.59-3,15.14-6.12,22.75-9.06,2.42-.93,3.9,2.72,1.48,3.71-9.54,3.79-19.11,7.52-28.59,11.46-.74.27-1.42.87-2.15,1.14-.46.17-.94.21-1.47-.03Z"/><path d="M379.75,112.83c-.45.15-.88.29-1.24.45-.3.09-.58.2-.87.31-.66.25-1.32.49-2.02.56-1.27.05-2.29-1.37-1.89-2.56.51-1.28,2.27-1.8,3.95-2.29.93-.27,1.84-.54,2.5-.91,1.01-.39,2.19.1,2.59,1.12.58,1.73-.7,2.49-2.13,3.02-.29.11-.59.21-.88.3Z"/><path d="M374.28,93.06c-3.45,1.28-6.92,2.47-10.41,3.65-5.53,1.87-11.1,3.63-16.76,5.05-1.69.26-3.5,1.46-5.16.65-.93-.56-1.23-1.83-.66-2.75.37-.61,1.04-.95,1.71-.95,1.4-.35,2.78-.75,4.18-1.1,4.46-1.13,8.86-2.53,13.22-3.96,4.21-1.38,8.4-2.83,12.55-4.37,1.02-.38,2.18.09,2.6,1.12.4,1.01-.12,2.23-1.14,2.61-.04.02-.09.03-.13.04Z"/><path d="M338.22,92.99c-2.38.99-3.9-2.81-1.48-3.71,2.37-.79,4.77-1.48,7.15-2.21,6.6-2.01,13.12-4.17,19.66-6.35,2.43-.91,3.9,2.74,1.48,3.71-8.89,3.03-17.84,5.79-26.81,8.56Z"/><path d="M365.61,73.55c-9.83,3.63-19.98,6.33-30.08,9.09-2.11.3-3.08-2.71-1.21-3.73.75-.36,1.62-.46,2.41-.72,6.8-1.93,13.64-3.74,20.37-5.91,2.36-.78,4.7-1.6,7.03-2.45,1.02-.37,2.18.08,2.59,1.12.4.99-.09,2.22-1.11,2.59,0,0,0,0,0,0Z"/><path d="M365.15,57.55c-9.61,2.66-19.18,5.57-28.95,7.61-2.49.37-3.06-3.59-.58-3.95,9.62-2.06,19.06-4.91,28.54-7.53,2.45-.61,3.45,2.97,1.2,3.8-.07.02-.14.05-.21.07Z"/><path d="M364.4,47.38c-8.22,1.07-16.34,3.09-24.56,3.95-2.24-.24-2.19-3.78.06-3.96,1.87-.18,3.73-.55,5.58-.86,6.14-1.1,12.28-2.18,18.44-3.1,2.41-.27,2.98,3.1.97,3.85-.15.06-.31.1-.49.12Z"/><path d="M372.6,231.52c7.69-3.19,15-7.38,22.11-11.64,5.25-3.22,10.34-6.69,15.25-10.41,1.38-1.02,3.37-3.01,4.86-1.06,1.74,2.82-3.5,4.51-5.06,6.19-10.83,7.78-22.44,14.88-34.7,20.19-.81-1.09-1.63-2.18-2.45-3.25Z"/><path d="M320.32,114.6c1.91,2.2,3.47,4.65,4.85,7.21-1.61-1.24-3.3-2.36-5.09-3.34-3.25-1.78-6.86-3.02-10.53-3.5-3.94-.51-7.96-.23-11.76.95-3.81,1.18-7.34,3.19-10.38,5.78-.22.18-.43.37-.64.56,8.12-15.52,19.81-23.26,33.55-7.66Z" fill="#cabbae"/><path d="M405.16,212.98c-3.4,2.41-6.89,4.71-10.45,6.9-5.94,3.57-12.03,7.08-18.36,10-2.75-3.62-5.58-7.17-8.51-10.65-5.3-6.42-10.91-12.58-16.53-18.73-.44-.38-.9-.87-1.38-1.4-.17-.53-.39-1.06-.68-1.59-2.26-3.51-5.82-5.01-9.75-5.6,2.08-4.05,3.56-8.41,4.47-12.88,1.35-6.58,1.58-13.41.74-20.09,6.24,11.51,13.98,24.21,23.05,34.41.26.3.53.59.8.88,10.53,11.58,22.82,19.7,36.6,18.76Z" fill="#cabbae"/><path d="M416.44,47.52s.06.05.1.07c.04.29.15.58.35.87-1.29-.61-2.81-1.12-4.07-.23-2.17,1.78.21,5.88-.66,8.38-2.07-2.35-4.01-5.15-6.92-6.5-5.48-1.39-4.28,5.29-3.35,8.48-2.12-2.12-6.83-6.4-8.97-2.2-.96,2.4-1.44,5.08-2.93,7.22h0c-3.46-1.26-7.61-2.97-11.25-1.67-.22.1-.41.23-.59.36-.74-6.64.09-13.39,3.64-19.18,4.86-7.74,10.52-7.95,18.6-5.44,4.45,1.73,8.71,4.02,12.46,6.99,1.22.92,2.43,1.86,3.6,2.84Z" fill="#cabbae"/><path d="M338.99,150.65c.72,2.66,1.27,5.35,1.66,8.08.34,2.61.52,5.22.55,7.85,0,2.47-.14,4.96-.44,7.45v.04s0,.06-.02.09c-.3,2.26-.75,4.57-1.34,6.86-.51,1.86-1.11,3.69-1.82,5.48-.67,1.65-1.43,3.26-2.29,4.82l-.02.03c-.04.08-.09.15-.13.23-2.18-.04-4.37.08-6.43.17-.11-2.99-.23-5.98-.35-8.97,14.19-11.45,3.99-49.33-18.37-45.92-9.75,1.14-16.67,10.47-17.94,19.75-1.28,8.06,1.9,16.05,5.85,22.94,4.66,7.93,8.57,9.9,10.81,9.66.01,1.45.04,2.88.08,4.27-6.32.66-12.62,1.41-18.93,2.19-.64-.71-1.26-1.44-1.86-2.19-1.25-1.62-2.39-3.29-3.46-5.04-1.18-2-2.22-4.06-3.16-6.19-1.02-2.42-1.89-4.89-2.62-7.41-.72-2.63-1.26-5.29-1.66-7.99-.33-2.53-.54-5.33-.58-8.16,0-1.24.05-2.47.13-3.7.12-.29.17-.62.12-.97,0-.15-.01-.3-.01-.45.07-.85.16-1.69.26-2.54.26-1.8.59-3.59,1-5.36.01-.05.02-.11.04-.16.07-.29.14-.58.22-.87.5-1.85,1.07-3.68,1.78-5.46.1-.2.17-.41.25-.62.66-1.58,1.41-3.11,2.23-4.61.83-1.44,1.74-2.82,2.72-4.16.78-1.01,1.6-1.97,2.46-2.91.98-1,2.01-1.94,3.09-2.82.86-.66,1.75-1.28,2.67-1.85,1.01-.6,2.05-1.13,3.13-1.61.99-.41,2-.77,3.04-1.07,1.02-.27,2.05-.47,3.09-.62,1-.12,2-.18,3-.2,1.01,0,2.01.07,3.01.18,1.11.15,2.21.37,3.29.64,1.09.3,2.17.65,3.22,1.07,1.17.49,2.3,1.04,3.41,1.65,1.24.71,2.43,1.48,3.58,2.32,1.22.92,2.41,1.94,3.54,3.01l.02.02s.05.05.08.07c1.26,1.24,2.5,2.61,3.66,4.05.21.26.41.53.61.79.2.45.4.9.6,1.34.23.51.64.9,1.13,1.09.49.74.97,1.49,1.43,2.25,1.18,2.03,2.23,4.13,3.17,6.29h0c.02.06.04.1.06.15.91,2.2,1.74,4.57,2.43,6.99Z" fill="#ffe9b1"/><path d="M314.31,140.83c-.89.33-1.71.89-2.4,1.72-3.6,5-1.88,14.36-2.68,20.49.05,2.45-.47,12.3-.53,22.29-.09-.02-.18-.03-.27-.04-7.87-5.05-13.34-18.07-12.54-27.3.82-9.93,9.1-18.31,18.42-17.16Z" fill="#e3cf9a"/><path d="M326.35,153.38c-.37-2.02-.73-4.12-1.41-6.08,5.81,7.93,8.34,22.3,3.16,29.86-.4-7.94-.93-15.87-1.75-23.77Z" fill="#e3cf9a"/><path d="M318.76,145.11c5.87,5.53,4.14,23.35,5.26,31.53.07,1.34.14,2.68.21,4.02.06,1.06.11,2.13.17,3.19.02.38.04.77.06,1.15.12,2.33.23,4.65.32,6.98-3.97.32-7.93.69-11.9,1.08-.19-4.69-.17-9.4-.09-14.04.11-6.75.34-13.48.6-20.23.83-3.71-1.77-17.44,5.37-13.68Z" fill="#cabbae"/><path d="M334.47,366.68l.18-.13c-8.52,8.71-17.06,17.38-25.56,26.1-8.28,8.31-16.58,16.6-24.76,25.01l.28-.31.34-.38.34-.38.34-.38.35-.39.35-.39.35-.39.34-.38.33-.38.33-.38.33-.38.33-.38.32-.36.31-.36.31-.35.31-.35.31-.35.32-.36.33-.36.32-.35.33-.36.33-.36.35-.37.35-.38.36-.38.36-.39.37-.4.38-.4.39-.41.41-.42.42-.42.42-.42.44-.43.46-.44.47-.45.49-.47.49-.47.48-.47.49-.47.49-.49.49-.5.49-.51.48-.51.46-.51.45-.52.45-.53.45-.54.46-.57.46-.57.46-.58.47-.6.48-.62.5-.64.52-.67.53-.68.53-.68.55-.69.57-.69.59-.7.62-.71.63-.7.62-.67.63-.65.63-.63.63-.62.63-.6.61-.57.58-.53.57-.51.56-.5.56-.49.56-.49.55-.48.55-.47.55-.47.55-.47.56-.48.57-.5.58-.5.58-.5.58-.51.6-.53.61-.55.62-.57.62-.57.6-.57.59-.57.58-.57.57-.57.58-.58.57-.57.56-.56.56-.55.57-.55.58-.55.59-.55.59-.53.58-.5.59-.5.6-.49.61-.49.62-.49.62-.48Z" fill="#aec5ca"/><path d="M370.18,228.48h-.02s-.08-.04-.08-.04l-.08-.03-.08-.03-.08-.02-.08-.02-.08-.02-.08-.02-.09-.02h-.08s-.08-.03-.08-.03h-.09s-.09-.02-.09-.02h-.09s-.09-.01-.09-.01h-.18s-.09,0-.09,0h-.08s-.09.02-.09.02h-.08s-.08.03-.08.03l-.08.02-.08.02-.08.02-.08.03-.07.03-.08.03-.07.03-.07.03-.07.03-.07.03-.07.04-.07.04-.07.04-.07.04-.07.04-.07.04-.07.04-.07.05-.07.05-.07.05-.07.05-.07.06-.08.06-.07.06-.07.06-.07.07-.07.07-.07.08-.07.08-.08.08-.07.09-.08.09-.07.1-.07.1-.07.1-.07.11-.07.11-.06.12-.06.12-.05.12-.05.13-.04.13-.03.13-.03.13-.02.13v.13s-.01.12-.01.12v.12s.02.12.02.12l.02.12.03.12.03.12.03.13.04.13.04.14.04.15.04.16.05.16.06.18.06.18.06.19.06.2.07.21.08.23.08.23.08.24.09.24.09.24.09.25.1.25.1.25.1.25.11.24.11.24.11.24.11.23.12.23.12.22.11.22.11.22.12.22.12.22.12.22.12.23.11.22.11.22.11.23.11.23.11.24.1.24.1.24.1.25.09.25.09.26.09.27.08.27.08.28.07.29.07.29.06.3.06.3.05.3.04.3.04.3.03.3.03.29.02.28.02.28v.27s.02.26.02.26v.25s0,.25,0,.25v.25s-.03.24-.03.24l-.02.23-.03.23-.03.22-.04.21-.05.21-.05.2-.06.19-.06.18-.07.18-.08.17-.08.17-.09.15-.1.13-.1.12-.11.1-.11.08-.11.06-.11.04h-.11s-.11,0-.11,0l-.1-.03-.1-.05-.09-.06-.09-.08-.09-.09-.08-.1-.08-.11-.09-.12-.09-.13-.09-.14-.1-.16-.1-.17-.11-.18-.11-.19-.12-.21-.13-.23-.13-.25-.14-.27-.15-.29-.16-.31-.17-.34-.18-.36-.19-.39-.19-.41-.21-.43-.21-.45-.23-.47-.23-.48-.24-.46-.25-.46-.26-.46-.26-.45-.28-.44-.28-.42-.3-.4-.31-.38-.32-.36-.34-.33-.36-.31-.37-.28-.38-.24-.39-.2-.4-.16-.41-.12-.42-.08-.42-.04h-.41l-.41.04-.4.07-.4.1-.39.13-.36.15-.34.17-.32.18-.3.19-.29.2-.28.21-.26.22-.25.23-.24.25-.23.26-.23.27-.23.3-.23.31-.23.33-.23.36-.23.38-.23.41-.24.44-.23.47-.22.48-.21.51-.19.53-.18.55-.16.58-.13.58-.1.57-.08.58-.05.58-.03.59v.59s.01.58.01.58l.04.57.06.55.08.54.09.53.11.53.12.51.14.49.15.48.16.47.17.47.18.47.18.46.19.44.19.44.2.44.21.45.22.45.22.45.22.46.23.47.24.49.25.51.26.53.27.54.28.55.3.57.32.58.34.59.36.6.38.59.39.57.4.55.41.52.41.49.41.47.4.44.38.42.38.41.37.42.36.43.36.45.35.46.33.48.32.51.31.53.3.57.29.6.28.61.26.62.24.64.23.65.22.67.21.68.2.67.19.65.17.63.16.61.15.59.14.57.12.54.11.51.09.49.08.48.07.46.06.47.05.46.04.45.03.46.02.48v.5s.02.52.02.52v.53s-.03.55-.03.55l-.03.57-.05.6-.06.62-.08.65-.1.65-.11.63-.14.63-.15.6-.18.57-.19.53-.21.46-.22.38-.23.3-.24.22-.24.14-.23.08-.21.02-.2-.03-.18-.06-.16-.08-.14-.09-.13-.11-.12-.11-.12-.12-.13-.13-.13-.14-.14-.15-.14-.16-.15-.18-.15-.19-.16-.2-.17-.22-.16-.23-.16-.24-.16-.25-.15-.25-.14-.26-.13-.26-.12-.26-.11-.26-.11-.26-.1-.27-.1-.27-.11-.28-.11-.28-.12-.29-.12-.29-.13-.28-.14-.29-.15-.29-.16-.3-.18-.3-.19-.3-.21-.3-.23-.3-.25-.3-.26-.3-.29-.29-.3-.27-.31-.25-.32-.23-.33-.21-.35-.2-.36-.2-.37-.19-.38-.17-.38-.16-.39-.16-.4-.15-.4-.14-.4-.14-.39-.13-.4-.14-.41-.14-.42-.15-.43-.16-.44-.17-.45-.17-.46-.19-.47-.19-.48-.21-.5-.21-.5-.21-.5-.2-.51-.2-.52-.19-.54-.17-.56-.16-.56-.12-.55-.08-.55-.03-.54.03-.52.08-.51.14-.48.19-.45.23-.43.27-.41.3-.41.32-.42.35-.42.38-.43.4-.43.43-.44.45-.44.47-.45.49-.44.5-.42.49-.4.49-.38.49-.37.5-.35.5-.32.5-.3.51-.28.53-.26.56-.25.6-.23.65-.21.69-.19.74-.17.8-.14.87-.12.93-.1,1.01-.07,1.06-.04,1.08-.02,1.11v1.14s.01,1.16.01,1.16l.03,1.17.04,1.13.06,1.06.06,1.01.08.96.09.94.11.93.12.91.13.89.14.9.14.91.15.94.15.99.14,1,.13,1,.11,1.01.09,1.02.07,1.02.05,1.03.02,1.02v1.01s-.04,1.02-.04,1.02l-.06,1.03-.08,1.05-.1,1.07-.13,1.07-.15,1.04-.17,1.03-.2,1.02-.23.99-.26.96-.28.9-.3.82-.31.76-.33.71-.35.67-.37.64-.38.6-.4.56-.42.53-.44.49-.46.45-.48.41-.5.35-.49.27-.49.19-.49.11-.48.03-.46-.04-.44-.11-.42-.16-.39-.21-.38-.25-.38-.27-.38-.31-.38-.33-.38-.35-.38-.37-.38-.39-.39-.4-.4-.41-.4-.4-.4-.4-.41-.4-.43-.4-.45-.4-.48-.39-.5-.36-.51-.34-.54-.31-.56-.28-.58-.23-.59-.19-.6-.14-.59-.08-.59-.03-.59.03-.59.08-.6.13-.58.18-.55.23-.52.27-.5.3-.48.33-.46.36-.44.39-.41.41-.4.44-.4.48-.4.52-.41.56-.41.6-.41.62-.41.67-.42.71-.42.75-.42.8-.41.84-.39.86-.38.9-.36.95-.35,1.01-.33,1.07-.3,1.1-.26,1.11-.22,1.12-.18,1.13-.14,1.13-.11,1.12-.07,1.06-.04.98v.93s0,.89,0,.89l.03.87.04.87.05.85.06.84.07.86.08.89.08.92.09.97.09.98.08.96.07.95.06.93.04.9.03.87v.81s0,.75,0,.75l-.03.72-.05.68-.07.67-.09.66-.12.64-.14.62-.17.61-.19.61-.22.62-.25.64-.28.64-.3.63-.33.63-.36.65-.39.65-.42.66-.45.66-.46.64-.49.64-.51.64-.52.63-.55.62-.55.59-.53.54-.52.51-.51.46-.49.4-.46.35-.43.29-.39.23-.35.18-.32.14-.29.11-.27.09-.25.07-.23.05-.22.04-.22.04-.22.03-.23.03-.23.02h-.23s-.23.02-.23.02h-.49s-.25-.03-.25-.03l-.25-.03-.25-.04-.25-.06-.25-.06-.25-.08-.25-.08-.24-.09-.24-.1-.23-.11-.24-.11-.23-.12-.23-.13-.24-.13-.23-.13-.23-.13-.23-.13-.24-.12-.24-.12-.24-.11-.23-.1-.23-.09-.24-.09-.24-.08-.25-.07-.25-.06-.26-.05-.26-.03h-.26s-.27,0-.27,0l-.27.02-.27.05-.26.07-.26.1-.26.13-.25.15-.24.17-.23.19-.21.21-.2.23-.19.25-.19.26-.19.29-.19.31-.19.33-.19.36-.2.39-.21.42-.22.46-.23.48-.22.48-.22.48-.19.44-.11.25v.03s-.05-1.9-.05-1.9l-.09.1-.09.11-.09.13-.09.14-.09.15-.09.16-.09.18-.09.19-.08.21-.08.23-.08.25-.08.26-.08.28-.07.3-.07.32-.08.34-.08.36-.08.38-.09.4-.11.4-.12.4-.13.39-.16.37-.17.35-.19.32-.2.28-.21.24-.21.21-.21.18-.2.16-.2.14-.2.14-.19.13-.19.13-.19.13-.19.14-.2.15-.2.15-.19.16-.2.16-.2.17-.21.18-.22.19-.22.2-.22.21-.22.22-.22.23-.22.23-.22.24-.21.24-.2.24-.19.24-.18.24-.18.25-.17.26-.16.27-.15.28-.15.3-.15.32-.16.35-.16.38-.16.4-.16.43-.16.46-.17.5-.18.55-.19.58-.2.6-.2.62-.22.63-.24.63-.25.63-.28.62-.03.05c-2.48-5.06-5.12-10.04-8.07-14.86-.04-.15-.1-.3-.16-.42,1.86-1.63,3.46-3.58,4.82-5.7,6.05-8.49,10.85-17.77,15.63-27.02,12.8-25.35,23.9-51.51,36.15-77.12,9.48-20.61,19.95-40.62,30.27-60.84,2.77-5.84,5.48-11.72,8.21-17.58,1.01-2.04,2.11-4.24,2.7-6.49,7.22,7.44,13.8,15.57,20.31,23.62Z" fill="#aec5ca"/><path d="M137.62,462.72h.15c-8.35.99-22.1,3.61-33.28,3.59h0s.14-.04.14-.04l.14-.03.14-.03.13-.03.13-.03.14-.03.13-.03.13-.04.13-.03.13-.03.13-.03.13-.03.13-.04.13-.03.13-.03.12-.03.13-.03.12-.03.12-.03.12-.03.12-.03.12-.03.12-.03.12-.04.11-.03.11-.04.11-.03.11-.03.11-.04.11-.04.11-.04.11-.04.11-.04.11-.04.11-.04.11-.04.11-.04.12-.04.12-.04.11-.04.12-.04.12-.04.13-.04.13-.04.13-.04.13-.04.14-.04.14-.04.15-.04.16-.04.16-.04.16-.04.17-.04.17-.04.18-.04.19-.04.19-.04.2-.04.2-.04.21-.04.22-.04.23-.04.23-.04.23-.04.23-.04.24-.04.24-.04.25-.04.25-.04.25-.03.25-.04.26-.03.26-.03.26-.03.27-.03.26-.03.26-.02.26-.02.26-.02h.26s.26-.03.26-.03h.25s.25-.02.25-.02h.25s.24-.01.24-.01h.24s.23,0,.23,0h.22s.21,0,.21,0h.21s.2,0,.2,0h.39s.18,0,.18,0h.18s.17,0,.17,0h.17s.17,0,.17,0h.16s.16,0,.16,0h.16s.16,0,.16,0h.16s.16,0,.16,0h.16s.16-.01.16-.01h.16s.16-.01.16-.01h.17s.17-.01.17-.01h.17s.17-.01.17-.01h.17s.18-.02.18-.02h.18s.18-.02.18-.02h.18s.19-.03.19-.03h.19s.19-.03.19-.03h.19s.2-.03.2-.03l.2-.02h.2s.21-.03.21-.03h.21s.22-.03.22-.03h.23s.23-.03.23-.03h.24s.24-.03.24-.03h.25s.26-.03.26-.03h.26s.27-.03.27-.03h.27s.28-.02.28-.02h.29s.3-.03.3-.03h.3s.31-.03.31-.03h.31s.31-.03.31-.03h.32s.32-.03.32-.03h.33s.33-.03.33-.03h.33s.33-.03.33-.03h.33s.33-.02.33-.02h.33s.33-.02.33-.02h.32s.32-.02.32-.02h.32s.31-.02.31-.02h.32s.31-.01.31-.01h.3s.31-.01.31-.01h.31s.31,0,.31,0h.31Z" fill="#aec5ca"/><path d="M257.44,418.12l-.04.02-.33.08-.31.03h-.3s-.29-.05-.29-.05l-.27-.07-.26-.09-.25-.1-.25-.11-.25-.13-.25-.14-.25-.15-.26-.16-.27-.17-.28-.18-.29-.18-.29-.18-.29-.18-.29-.17-.3-.16-.3-.15-.31-.14-.3-.13-.3-.11-.3-.09-.3-.07-.3-.05-.3-.03h-.3s-.29.01-.29.01l-.28.04-.28.07-.28.09-.27.12-.26.14-.26.17-.25.19-.24.21-.25.23-.25.26-.25.28-.25.3-.25.33-.26.36-.28.39-.29.41-.3.44-.3.44-.31.46-.32.48-.33.49-.34.51-.34.52-.34.51-.33.52-.33.52-.32.52-.32.53-.3.52-.28.49-.26.48-.25.46-.24.45-.24.44-.23.41-.22.39-.23.36-.23.34-.24.32-.25.29-.25.25-.25.2-.25.16-.26.12-.26.08-.26.04h-.25s-.24-.04-.24-.04l-.23-.07-.23-.09-.22-.12-.22-.14-.22-.16-.22-.18-.22-.2-.23-.23-.24-.25-.25-.27-.25-.3-.26-.31-.27-.34-.28-.37-.3-.4-.32-.42-.33-.43-.34-.44-.35-.44-.36-.44-.37-.43-.38-.4-.37-.37-.36-.32-.35-.28-.35-.25-.34-.22-.34-.19-.33-.17-.32-.14-.32-.12-.32-.11-.32-.09-.32-.07-.31-.06-.31-.03h-.3s-.3-.01-.3-.01l-.29.02-.3.04-.28.05-.28.07-.27.08-.27.1-.27.11-.27.13-.26.14-.26.15-.26.16-.25.18-.26.19-.26.21-.26.23-.25.25-.26.27-.26.3-.27.33-.28.37-.28.4-.28.43-.28.46-.28.5-.29.54-.3.58-.3.6-.3.61-.3.63-.31.64-.31.64-.33.65-.33.62-.33.59-.35.57-.35.55-.36.52-.38.51-.38.48-.39.45-.4.43-.41.41-.43.39-.45.37-.46.34-.47.3-.48.27-.49.23-.5.2-.5.16-.49.12-.48.08-.47.05-.46.02h-.45s-.44-.04-.44-.04l-.43-.05-.42-.06-.42-.08-.42-.1-.42-.12-.43-.14-.43-.16-.42-.18-.42-.2-.43-.21-.43-.23-.44-.25-.44-.26-.43-.28-.42-.29-.42-.3-.42-.32-.43-.34-.41-.35-.4-.35-.39-.36-.38-.38-.38-.38-.38-.39-.37-.38-.37-.37-.37-.36-.38-.35-.39-.33-.4-.3-.39-.26-.38-.22-.37-.19-.37-.16-.37-.12-.36-.1-.35-.07-.34-.04-.33-.02h-.33l-.32.02-.32.03-.31.04-.31.05-.31.06-.3.07-.31.08-.31.09-.31.1-.3.11-.31.11-.31.13-.32.14-.32.15-.32.16-.31.17-.31.18-.3.19-.3.21-.3.22-.28.22-.26.22-.25.23-.25.23-.24.25-.24.26-.23.27-.23.28-.24.29-.25.31-.26.33-.27.35-.28.36-.29.37-.3.38-.31.39-.32.39-.33.4-.33.39-.33.38-.34.38-.34.37-.35.38-.36.39-.37.4-.37.4-.38.41-.39.43-.39.44-.4.45-.4.44-.39.43-.38.42-.38.41-.38.4-.39.38-.39.36-.38.34-.39.32-.39.3-.4.27-.41.25-.41.21-.41.17-.41.13-.41.09-.41.06-.4.02-.39-.02-.38-.05-.37-.08-.37-.09-.37-.11-.38-.13-.37-.15-.36-.17-.36-.18-.36-.2-.36-.21-.36-.22-.35-.23-.33-.23-.33-.24-.32-.25-.31-.25-.32-.26-.31-.27-.3-.28-.3-.28-.3-.3-.31-.31-.31-.33-.31-.33-.31-.34-.32-.35-.33-.36-.34-.38-.36-.39-.36-.39-.36-.38-.37-.37-.38-.37-.4-.36-.41-.35-.41-.33-.41-.3-.41-.27-.41-.25-.41-.23-.41-.21-.41-.19-.4-.16-.4-.14-.4-.13-.4-.11-.4-.09-.39-.07-.38-.04-.37-.03h-.37s-.36.01-.36.01l-.36.03-.35.05-.35.06-.34.07-.34.08-.33.09-.34.1-.33.1-.32.11-.31.11-.3.12-.3.13-.3.13-.28.14-.26.14-.26.15-.25.16-.24.16-.23.16-.22.16-.2.16-.19.16-.17.16-.16.15-.15.15-.13.14-.12.13-.1.13-.09.12-.07.11-.06.11-.05.11-.03.11-.03.11-.02.11v.11s-.01.12-.01.12v.13s.01.14.01.14v.16s.03.17.03.17l.02.18.02.2.03.22.03.23.03.25.03.27.04.29.04.32.05.34.05.37.05.4.05.42.06.44.05.45.05.45.04.43.04.43.03.42.02.4v.4s.02.39.02.39v.73s-.03.35-.03.35l-.03.35-.03.34-.04.33-.04.31-.05.3-.06.3-.06.31-.07.31-.08.31-.08.3-.09.3-.1.3-.11.29-.11.28-.13.25-.14.22-.15.19-.16.16-.18.11-.19.08-.19.03h-.19s-.18-.06-.18-.06l-.17-.07-.16-.09-.14-.1-.14-.11-.14-.11-.15-.12-.15-.13-.16-.14-.17-.14-.18-.15-.18-.15-.18-.15-.18-.15-.18-.14-.18-.14-.18-.14-.18-.13-.17-.12-.17-.12-.17-.11-.17-.11-.17-.11-.17-.11-.17-.11-.18-.11-.18-.11-.18-.11-.19-.12-.19-.12-.19-.12-.19-.13-.2-.13-.2-.14-.2-.14-.2-.15-.2-.16-.21-.17-.21-.18-.22-.19-.21-.21-.21-.21-.21-.23-.21-.25-.21-.26-.21-.28-.21-.28-.2-.3-.2-.3-.19-.32-.2-.33-.2-.34-.2-.35-.2-.35-.2-.35-.2-.35-.2-.34-.21-.34-.21-.32-.2-.3-.2-.27-.2-.25-.2-.22-.2-.2-.19-.17-.19-.14-.19-.12-.19-.1-.18-.08-.18-.07-.18-.05-.18-.03-.18-.02h-.18s-.18,0-.18,0h-.18s-.18.04-.18.04l-.17.03-.17.04-.17.05-.18.05-.18.06-.18.06-.19.07-.19.07-.2.08-.21.08-.22.09-.23.1-.24.11-.25.11-.26.12-.28.13-.29.14-.3.15-.3.15-.31.16-.33.17-.34.18-.35.18-.35.19-.35.19-.36.2-.36.2-.36.2-.36.2-.36.2-.35.2-.35.19-.34.19-.33.19-.33.18-.32.18-.3.17-.29.17-.28.17-.28.17-.27.18-.26.18-.25.18-.24.18-.24.19-.24.19-.24.19-.24.19-.23.19-.23.18-.23.18-.23.18-.23.17-.22.16-.22.16-.21.15-.21.14-.21.14-.21.14-.21.14-.21.13-.21.13-.21.13-.21.13-.21.13-.21.13-.21.12-.21.12-.21.11-.21.11-.21.1-.21.1-.21.09-.21.08-.21.07-.21.06-.22.06-.22.04-.22.03-.22.03-.22.02h-.22s-.22,0-.22,0h-.21s-.21-.01-.21-.01h-.21s-.22-.02-.22-.02l-.22-.02-.23-.02-.23-.02-.23-.02-.24-.02-.25-.03-.25-.03-.26-.03-.26-.03-.26-.03-.27-.03-.28-.04-.29-.04-.3-.04-.31-.05-.31-.05-.32-.06-.33-.06-.35-.07-.36-.08-.36-.08-.36-.09-.36-.1-.36-.1-.35-.11-.34-.13-.32-.14-.31-.15-.29-.16-.27-.18-.25-.19-.24-.2-.22-.21-.2-.22-.19-.23-.17-.24-.16-.25-.16-.26-.15-.26-.14-.26-.13-.27-.13-.27-.13-.28-.12-.27-.12-.27-.11-.26-.11-.25-.11-.25-.11-.24-.11-.23-.1-.22-.1-.21-.1-.2-.1-.2-.11-.19-.11-.19-.11-.18-.11-.18-.11-.18-.12-.17-.13-.17-.13-.17-.14-.17-.14-.16-.15-.16-.15-.16-.16-.16-.17-.16-.18-.15-.18-.14-.19-.13-.19-.13-.2-.11-.2-.11-.2-.09-.2-.08-.2-.06-.2-.05-.2-.04-.2-.03-.2-.03h-.19s-.19-.02-.19-.02h-.38s-.19.02-.19.02l-.19.02-.18.02-.18.03-.18.03-.18.04-.18.04-.17.04-.16.04-.16.05-.15.05-.15.05-.14.06-.13.06-.13.06-.12.06-.11.07-.11.07-.1.08-.09.08-.09.08-.08.09-.08.09-.08.1-.07.1-.07.11-.06.11-.06.12-.05.13-.05.13-.05.14-.04.15-.04.16-.04.16-.04.17-.03.18-.03.19-.02.19-.02.19v.19s-.01.19-.01.19v.19s0,.19,0,.19v.18s.03.18.03.18l.02.17.03.17.03.16.03.17.03.17.03.17.04.18.03.14c-1.55-4-2.97-8.06-4.41-12.11-.42-1.18-.86-2.37-1.24-3.57,6.66,1.95,17.99-1.2,23.38-1.42,19.44-2.26,38.78-5.16,58.06-8.47,28.62-5.2,56.69-13.07,85.35-18.08,1.03-.19,2.02-.46,2.96-.82,1.02-.38,2-.84,2.93-1.39,3.15,5.24,5.98,10.65,8.64,16.14Z" fill="#aec5ca"/><path d="M150.99,240.84c3.49-.73,7.01-1.42,10.49-2.07-1.43,3.15-2.87,6.3-4.31,9.46-2.15,4.73-4.31,9.46-6.46,14.19-1.23.11-2.46.23-3.69.34-2.33.22-4.67.43-7,.65,0,0,0,0,0,0-.42.04-.84.08-1.25.12-1.11.1-2.21.21-3.32.31-3.51.33-7.03.65-10.54.98,2.75-5.47,5.42-10.98,7.96-16.56.96-.26,1.31-1.31,1.96-1.98,2.62-2.99,7.01-3.13,10.61-4.22.18-.04.36-.08.54-.12h0c.83-.19,1.66-.37,2.5-.55.84-.18,1.68-.36,2.52-.53Z" fill="#ffe9b1"/><path d="M200.24,232.22c-.84,1.89-1.67,3.79-2.51,5.68-3.1,7-6.21,14.01-9.31,21.01-4.65.43-9.3.87-13.95,1.3-6.39.59-12.79,1.18-19.18,1.78.57-1.25,1.14-2.49,1.71-3.74,3.09-6.79,6.2-13.57,9.29-20.37,11.28-2.1,22.58-4.16,33.96-5.65Z" fill="#ffe9b1"/><path d="M240.37,228.32c-.06.12-.11.24-.17.36-.63,1.37-1.26,2.75-1.89,4.12-3.4,7.44-6.8,14.87-10.2,22.3-.02.04-.04.09-.06.14-8.69.8-17.37,1.61-26.06,2.42-3.01.28-6.02.55-9.03.83.91-2.05,1.81-4.09,2.72-6.14,3.05-6.9,6.16-13.78,9.18-20.7,2.72-.32,5.46-.6,8.19-.84,2.88-.04,14.09-1.31,27.32-2.49Z" fill="#ffe9b1"/><path d="M244.95,227.92c24.06-2.02,52.19-3.31,49.45,3.43-1.71,3.63-3.53,7.22-5.42,10.78-.27.52-.55,1.04-.83,1.56-.44.83-.88,1.65-1.32,2.47-.69,1.28-1.38,2.55-2.07,3.82-.27.02-.54.05-.81.07-9.12.85-18.25,1.69-27.37,2.54-7.98.74-15.96,1.48-23.93,2.22.96-2.1,1.92-4.2,2.88-6.3,1.7-3.72,3.41-7.45,5.11-11.18.84-1.84,1.68-3.68,2.53-5.53.59-1.3,1.21-2.59,1.79-3.89Z" fill="#ffe9b1"/><path d="M264.39,255.88c6.02-.55,12.05-1.11,18.07-1.67-3.74,6.89-7.42,13.81-10.58,20.96-.64,1.34-1.27,2.69-1.9,4.05-3.03.23-6.06.46-9.08.69-8.55.66-17.09,1.3-25.63,1.95-5.18.39-10.36.79-15.53,1.18,1.88-4.11,3.76-8.22,5.64-12.33,1.79-3.9,3.58-7.8,5.36-11.71,2.12-.2,4.25-.4,6.37-.59,9.09-.84,18.19-1.7,27.29-2.53Z" fill="#ffe9b1"/><path d="M243.26,285.25c8.28-.63,16.57-1.26,24.85-1.89-4.07,9.14-7.79,18.44-11.58,27.72-3.06.23-6.12.46-9.17.69-8.53.64-17.06,1.29-25.59,1.93-5.54.42-11.08.84-16.61,1.25,0,0,0,0,0-.01,3.35-7.32,6.7-14.64,10.04-21.97.88-1.93,1.76-3.85,2.64-5.78,8.48-.65,16.95-1.29,25.43-1.94Z" fill="#ffe9b1"/><path d="M226.15,259.42c-2.71,5.93-5.42,11.86-8.13,17.79-.94,2.06-1.88,4.12-2.82,6.17-1.85.14-3.71.28-5.56.42-8.78.67-17.56,1.34-26.34,2-.84.06-1.68.13-2.53.19,1.61-3.64,3.23-7.28,4.85-10.92,1.84-4.14,3.67-8.27,5.5-12.41,6.21-.57,12.42-1.15,18.64-1.73,5.46-.51,10.93-1.02,16.39-1.52Z" fill="#ffe9b1"/><path d="M174.42,290.49c-2.2,4.97-4.41,9.94-6.61,14.91-1.89,4.26-3.77,8.51-5.66,12.77-6.76.51-13.52,1.01-20.28,1.53-4.45.34-8.9.68-13.35,1.01,2.82-6.2,5.64-12.39,8.47-18.58,1.38-3.03,2.77-6.07,4.15-9.11,8.07-.61,16.14-1.23,24.21-1.84,3.03-.23,6.05-.46,9.08-.69Z" fill="#ffe9b1"/><path d="M182.31,263.49c1.42-.13,2.84-.26,4.26-.39-2.97,6.72-5.96,13.44-8.93,20.16-.46,1.03-.91,2.06-1.37,3.1-6.4.49-12.81.98-19.21,1.46-4.68.36-9.35.71-14.03,1.07,1.33-2.92,2.66-5.84,3.99-8.76,2.12-4.65,4.24-9.3,6.36-13.95.41-.04.82-.08,1.23-.11,9.24-.86,18.47-1.71,27.7-2.57Z" fill="#ffe9b1"/><path d="M148.8,266.6c-.51,1.13-1.03,2.25-1.54,3.38-2.92,6.42-5.85,12.83-8.77,19.25-2.68.21-5.37.41-8.05.61-2.23.17-4.45.34-6.68.5h0c-4.25.32-8.5.65-12.76.97,3.98-7.41,7.95-14.82,11.78-22.31,1.44-.13,2.88-.27,4.32-.4,2.15-.2,4.3-.4,6.44-.6,5.09-.47,10.17-.94,15.26-1.41Z" fill="#ffe9b1"/><path d="M126.49,294.14c3.37-.26,6.74-.52,10.11-.77-3.08,6.77-6.17,13.55-9.26,20.33-1.12,2.45-2.24,4.9-3.36,7.36-2.93.22-5.85.44-8.78.66-.09,0-.17.01-.26.02-1.5.11-2.99.22-4.49.34-5.45.41-10.9.82-16.35,1.23,4.73-9.35,9.69-18.58,14.66-27.81,1.29-.1,2.57-.2,3.86-.29,3.13-.23,6.25-.47,9.38-.71,1.5-.11,2.99-.23,4.49-.34,0,0,0,0,0,0Z" fill="#ffe9b1"/><path d="M122.09,325.19c-1.51,3.31-3.02,6.62-4.53,9.94-3.33,7.3-6.66,14.6-9.99,21.91-.1.22-.2.45-.3.67-2.67.24-5.33.48-8,.72-1.5.14-3.01.27-4.51.41-3.26.29-6.52.59-9.78.88-2.52.23-5.04.46-7.56.69,4.28-11.26,9.26-22.19,14.6-32.95,1.41-.11,2.83-.21,4.24-.32,4.14-.31,8.29-.62,12.43-.94,1.5-.11,3.01-.23,4.51-.34,2.96-.22,5.93-.45,8.89-.67Z" fill="#ffe9b1"/><path d="M160.31,322.31c-.79,1.79-1.58,3.57-2.38,5.36-3.23,7.26-6.44,14.53-9.66,21.79-.7,1.58-1.4,3.16-2.1,4.74-3.06.27-6.12.55-9.17.82-8.39.76-16.78,1.51-25.17,2.26,1.86-4.08,3.72-8.17,5.58-12.26,3.07-6.73,6.13-13.46,9.2-20.19,7.68-.58,15.37-1.16,23.05-1.73,3.55-.27,7.09-.53,10.64-.8Z" fill="#ffe9b1"/><path d="M198.71,319.43c-.34.74-.67,1.47-1.01,2.2-3.28,7.18-6.57,14.36-9.84,21.53-1.16,2.54-2.32,5.08-3.48,7.61-7.29.66-14.58,1.31-21.87,1.96-3.93.35-7.86.71-11.79,1.06,1.8-4.05,3.6-8.11,5.39-12.16,2.91-6.55,5.81-13.11,8.71-19.66,3.78-.28,7.56-.57,11.34-.85,7.51-.57,15.03-1.13,22.55-1.7Z" fill="#ffe9b1"/><path d="M254.6,315.22c.08,0,.16-.01.24-.02-4.26,10.33-8.68,20.58-13.83,30.47-.92.08-1.85.17-2.77.25-8.26.74-16.51,1.49-24.76,2.23-8.18.73-16.35,1.46-24.52,2.21,2.03-4.44,4.06-8.88,6.09-13.32,2.74-5.98,5.47-11.97,8.21-17.95,8.76-.66,17.52-1.32,26.28-1.98,8.35-.63,16.71-1.26,25.06-1.89Z" fill="#ffe9b1"/><path d="M222.9,351.31c5.29-.48,10.58-.95,15.87-1.43-1.65,3.02-3.38,5.99-5.2,8.92-.02.03-.04.07-.06.1-3.84,5.86-8.17,12.18-14.8,15.06-9.35,2.73-19.22,3.1-28.84,4.5-4.85.57-9.7,1.15-14.55,1.72.26-.58.55-1.21.84-1.84,3.04-6.67,6.09-13.32,9.14-19.99.58-1.27,1.16-2.55,1.75-3.82,3.52-.32,7.03-.63,10.55-.95,8.43-.76,16.87-1.52,25.3-2.28Z" fill="#ffe9b1"/><path d="M182.47,354.95c-1.52,3.32-3.03,6.64-4.55,9.96-1.45,3.16-2.89,6.32-4.34,9.48-.52,1.14-1.04,2.28-1.56,3.42-.23.51-.49,1.02-.7,1.54h0s.01,0,.02-.01c-.21.4-.29.88-.19,1.35-5.15.61-10.31,1.22-15.46,1.84-6.21.71-12.41,1.43-18.63,2.11.28-.64.57-1.29.85-1.93,2.85-6.43,5.7-12.85,8.54-19.28.8-1.82,1.61-3.63,2.42-5.45,7.82-.7,15.65-1.4,23.47-2.11,3.38-.31,6.75-.61,10.13-.92Z" fill="#ffe9b1"/><path d="M144.33,358.38c-1.87,4.21-3.73,8.42-5.6,12.63-1.97,4.45-3.94,8.89-5.91,13.33h0s-.03.08-.05.12c-.05.12-.11.24-.16.37-.04.1-.08.19-.11.29-11.45,1.19-22.92,2.14-34.41,2.35.49-1.07.99-2.18,1.5-3.3,2.65-5.82,5.31-11.65,7.97-17.48.79-1.74,1.59-3.48,2.38-5.22,3.78-.34,7.56-.68,11.34-1.02,7.69-.69,15.37-1.39,23.05-2.08Z" fill="#ffe9b1"/><path d="M105.37,361.89c-2.11,4.62-4.21,9.23-6.31,13.85-1.19,2.61-2.38,5.22-3.57,7.83-.3.65-.59,1.31-.89,1.96-.23.51-.5,1.02-.71,1.55-.06.14-.09.29-.11.45-2.29,0-4.59-.02-6.88-.09h0c-.22,0-.44-.01-.66-.02-.12,0-.24,0-.36-.01-.19,0-.38-.01-.58-.02-.24,0-.48-.02-.73-.03-.25,0-.5-.02-.75-.03-.25-.01-.49-.02-.74-.03-.09,0-.19,0-.28-.01-.05,0-.11-.02-.17-.02-3.03-.36-16.92.07-14.09-4.59,2.25-6.11,4.84-12.08,7.27-18.12,5.73-.51,11.46-1.03,17.19-1.55.63-.05,1.26-.11,1.89-.17.87-.08,1.74-.16,2.61-.24,2.62-.24,5.24-.47,7.86-.71Z" fill="#ffe9b1"/><path d="M221.99,380.42c1.09,1.55,2.19,3.1,3.28,4.65-.56.39-1.14.76-1.73,1.11-11.1,5.08-23.1,6.19-35.11,8.33-2.98.39-5.97.76-8.96,1.1,0-.01,0-.03,0-.04-.87-3.93-1.79-7.61-2.93-11.42,13.86-1.54,27.7-3.24,41.4-5.76.58-.14,1.17-.31,1.75-.53.13-.05.27-.1.4-.16.67.87,1.28,1.81,1.9,2.72Z" fill="#e3cf9a"/><path d="M172.52,384.59c1.16,3.75,2.09,7.47,2.97,11.46-12.26,1.31-24.56,2.22-36.88,2.76-.13-1.25-.27-2.5-.42-3.75-.32-2.13-.52-4.31-.75-6.46,1.51-.17,3.02-.35,4.53-.52,10.16-1.29,20.35-2.37,30.55-3.49Z" fill="#e3cf9a"/><path d="M133.45,389.04c.26,2.27.53,4.54.82,6.82.12,1.04.23,2.08.34,3.12-10.92.42-21.84.56-32.76.47-.83.05-1.66.09-2.5.13-.19-.72-.37-1.4-.39-1.97-.4-2.08-.93-4.07-1.27-6.14,11.95-.19,23.88-1.15,35.76-2.43Z" fill="#e3cf9a"/><path d="M94.91,397.76c.22.53.33,1.23.43,1.99-4.36.18-8.76.38-13.08.92-.03,0-.06,0-.1.01-.3.04-.6.08-.9.12-.03,0-.06,0-.09.01-.33.05-.65.09-.98.15-.32.05-.64.1-.95.15-.05,0-.09.01-.14.02-.29.05-.59.1-.89.15-.02,0-.04,0-.07.01,0-.01-.01-.02-.02-.03-.25-.36-.49-.72-.74-1.08-2.15-3.2-4.17-6.45-6.15-9.93,3.2.67,6.91.75,9.83.88.17,0,.34.01.51.02.13,0,.27.01.4.02.02,0,.05,0,.07,0,.05,0,.1,0,.15,0,.03,0,.05,0,.08,0,.07,0,.14,0,.21.01.28.02.55.04.81.06.06,0,.12,0,.17.01.12.01.24.02.35.03.49.02.98.04,1.47.06.16,0,.33.01.49.01,2.62.09,5.24.12,7.87.12.3,2.11.88,4.17,1.27,6.26Z" fill="#e3cf9a"/><path d="M244.38,358.78c-.5,1.05-1.01,2.11-1.53,3.15-3.94,7.23-8.21,15.09-14.45,20.66-1.41-1.99-2.82-3.98-4.21-6-.19-.24-.38-.51-.57-.78,6.34-4.21,12.37-12.54,17.8-22.2.17.28.34.57.48.86.85,1.42,1.66,2.86,2.46,4.31Z" fill="#e3cf9a"/><path d="M260.15,324.11c.4.89.81,1.78,1.22,2.67-.82,1.28-1.65,2.56-2.48,3.83-2.94,4.55-5.47,9.32-7.86,14.16-.04.09-.09.18-.13.27-.3.61-.59,1.21-.89,1.82-.25.5-.49,1.01-.73,1.52-.09.19-.18.38-.28.58-.85,1.8-1.7,3.6-2.54,5.4-.93-1.62-1.87-3.23-2.81-4.84.01-.03.03-.06.04-.08.23-.43.45-.85.67-1.28.14-.27.28-.54.42-.81.18-.35.36-.7.54-1.05.18-.35.35-.7.53-1.06,4.56-9.15,8.58-18.74,11.86-26.73.83,1.86,1.61,3.74,2.44,5.6Z" fill="#e3cf9a"/><path d="M270.6,287.67c1.82,4.55,3.71,9.08,5.57,13.61-1.5,2.91-3.06,5.8-4.67,8.67-.02.04-.04.08-.07.12-.37.66-.74,1.32-1.12,1.98-.4.7-.8,1.4-1.2,2.09-1.68,2.89-3.41,5.76-5.18,8.6-1.38-3.09-2.73-6.2-4.16-9.26.27-.66.53-1.3.78-1.92.11-.28.23-.55.33-.81.65-1.57,1.25-3.02,1.81-4.3,2.56-6.34,5.18-12.59,7.91-18.78Z" fill="#e3cf9a"/><path d="M287,260.95c1.1,2.88,2.24,5.74,3.37,8.6-1.14,2.8-2.29,5.59-3.46,8.38h0c-.21.51-.43,1.02-.64,1.53-.03.07-.06.14-.09.21-.13.3-.26.6-.38.9-.21.5-.43,1-.64,1.49-.73,1.69-1.47,3.38-2.23,5.05-1.39,3.18-2.86,6.32-4.39,9.44-1.91-4.65-3.83-9.3-5.68-13.97.56-1.24,1.13-2.48,1.7-3.72,2.67-5.77,5.46-11.5,8.43-17.21.81-1.56,1.62-3.12,2.44-4.68.53,1.32,1.05,2.64,1.56,3.97Z" fill="#e3cf9a"/><path d="M297.5,234.64c1.58,2.54,3.22,5.04,4.82,7.56-1.06,2.13-2.09,4.28-3.08,6.44-.01.03-.03.06-.04.08-2.34,5.1-4.51,10.28-6.64,15.48-.79-2.01-1.58-4.03-2.35-6.05-.66-1.76-1.41-3.49-2.08-5.25,0-.26-.04-.51-.12-.74.47-.87.94-1.74,1.41-2.61.61-1.12,1.22-2.25,1.83-3.37.51-.93,1.01-1.86,1.53-2.78.21-.38.42-.76.63-1.14.27-.48.53-.97.8-1.45.92-1.96,2.3-4.03,3.29-6.17Z" fill="#e3cf9a"/><path d="M198.68,294.98c2.79-.09,2.72-4.3-.06-4.28-4.93.31-9.73,1.06-14.75,1.02.04,0,.07.01.11.02-2.92-.49-3.42,4.06-.47,4.22h-.13c1.68.06,3.34,0,5-.1-1.85,4.95-3.72,9.9-5.32,14.94-.58,1.2.17,2.68,1.43,2.99,2.93.49,2.81-3.05,3.76-5.1,1.12-3.36,2.41-6.67,3.64-9.99.33-.88.61-1.8,1-2.66.11-.2.19-.39.26-.57,1.83-.18,3.68-.36,5.53-.48ZM213.29,287.53c-1.84,4.02-3.68,8.04-5.52,12.06-2.39,5.23-4.78,10.46-7.17,15.69h0s0,0,0,0c-1.83.14-3.66.27-5.49.41-8.96.67-17.91,1.35-26.87,2.02-.53.04-1.06.08-1.59.12,3.01-6.78,6.01-13.56,9.02-20.34,1.09-2.45,2.17-4.9,3.25-7.35h0c4.22-.32,8.43-.65,12.65-.96,6.07-.46,12.14-.92,18.21-1.39,1.17-.09,2.34-.18,3.5-.27h0Z" fill="#ea7765"/><path d="M100.37,403.48l-.17.03-.48.07-.48.08-.48.08-.49.09-.48.09-.49.09-.49.1-.5.1-.49.1-.48.1-.46.09-.46.09-.45.09-.44.08-.43.08-.41.08-.4.07-.39.06-.39.06-.39.06-.37.05-.36.04-.36.04-.36.04-.37.04-.37.03-.37.03-.36.03-.36.03-.35.02-.35.02-6.44-.42s.03-.08.04-.11c0,0,.01,0,.02,0h0c5.15-.87,10.39-1.26,15.66-1.43.38-.01.76-.02,1.14-.03.23,0,.47-.01.7-.02.32,0,.63-.01.95-.02.4,0,.79-.01,1.19-.02Z" fill="#d0e4e8"/><path d="M160.55,402.72h-.04s-.49.07-.49.07l-.5.07-.51.07-.52.07-.51.06-.52.06-.52.06-.53.05-.53.04-.53.04-.53.03-.53.02-.52.02h-.51s-.52.01-.52.01h-.52s-.51-.01-.51-.01h-.49s-.48-.03-.48-.03l-.46-.02-.47-.03-.47-.03-.46-.03-.45-.03-.44-.04-.44-.04-.34-.03h.09s.28,0,.28,0h.28s.27,0,.27,0h.25s.24,0,.24,0h.23s.22,0,.22,0h.22s.21,0,.21,0h.61s.21,0,.21,0h1.93s.26,0,.26,0h.26s.25-.01.25-.01h.25s.25-.02.25-.02h.25s.24-.02.24-.02h.24s.24-.03.24-.03h.24s.25-.03.25-.03l.25-.02.25-.02.25-.02.26-.02.27-.02.28-.02.3-.02.31-.02.31-.02.33-.02.33-.02h.34s.35-.03.35-.03h.34s.33-.02.33-.02h.32s.31-.01.31-.01h.31s.15,0,.15,0Z" fill="#d0e4e8"/><path d="M193.15,398.99l-.6.53-.26.02-.47.04-.46.04-.45.04-.46.04-.46.04-.45.04-.44.04-.44.04-.24.02h.09s.37-.07.37-.07l.38-.06.39-.06.37-.06.35-.06.33-.06.31-.06.3-.06.28-.06.26-.05.24-.05.23-.05.22-.05.23-.06.24-.06.15-.04Z" fill="#d0e4e8"/><path d="M248.08,360.3l-.02.07-.04.18-.04.18-.04.17-.05.17-.05.17-.06.17-.06.17-.06.16-.07.16-.08.16-.08.17-.08.17-.09.18-.09.18-.1.18-.1.18-.11.19-.11.2-.12.21-.13.21-.13.21-.13.22-.13.22-.14.23-.14.23-.14.23-.13.22-.13.22-.13.22-.13.22-.13.22-.04.07c.58-1.11,1.16-2.22,1.72-3.35.18-.36.36-.73.55-1.1.27-.55.55-1.11.82-1.67Z" fill="#d0e4e8"/><path d="M346.25,201.23c.21,1.27.01,2.64-.62,3.9-2.55,5.74-5.31,11.4-7.93,17.11-8.15,17.32-17.7,33.99-25.76,51.45-12.46,25.67-23.96,51.79-36.14,77.59-4.84,10.06-9.66,19.74-15.25,29.51-4.06,6.17-7.27,13.56-13.62,17.73-7.98,3.33-16.89,3.68-25.25,5.76-6.35,1.29-12.68,2.68-18.99,4.12-33.33,8.29-67.2,14.13-101.32,18.06-6.44.78-12.86,1.85-19.34,2.24-7.64.53-7.7-1.73-5.99-8.29.91-4.16,2.23-8.35,3.66-12.48l.07.53.08.51.08.48.08.45.09.41.09.38.09.36.1.34.1.31.1.29.1.26.1.25.11.23.11.22.12.2.12.19.12.17.13.16.13.15.15.14.15.13.15.11.16.1.16.09.17.08.18.08.18.06.19.06.19.05.2.04.2.03.2.03.2.02h.2s.2.03.2.03h.19s.19,0,.19,0h.38s.19-.01.19-.01h.18s.18-.02.18-.02h.18s.18-.03.18-.03l.19-.02.19-.02.18-.03.19-.03.19-.03.19-.03.19-.03.19-.04.19-.04.2-.04.2-.04.2-.04.21-.04.21-.04.21-.05.22-.04.23-.05.24-.05.24-.05.24-.05.25-.05.26-.05.28-.05.29-.05.31-.05.31-.05.33-.05.34-.05.36-.05.38-.05.38-.06.4-.05.4-.05.41-.05.42-.06.43-.05.43-.06.43-.05.44-.05.44-.06.45-.05.46-.05.46-.05.46-.05.46-.05.46-.05.46-.05.47-.05.47-.05.46-.05.46-.05.46-.05.48-.05.48-.04.48-.04.47-.04.47-.04.47-.03.48-.03.49-.02h.49s.49-.02.49-.02h.5s.49,0,.49,0h.5s.52.03.52.03l.52.03.53.03.53.04.53.04.54.04.55.05.54.05.54.04.53.04.53.04.54.04.54.03.53.03.53.02.54.02h.54s.55.02.55.02h.57s.57,0,.57,0h.57s.57,0,.57,0h.58s.59,0,.59,0h1.2s.6,0,.6,0h.6s.6,0,.6,0h.61s.62,0,.62,0h.61s.61,0,.61,0h1.23s.63-.01.63-.01h.63s.63-.02.63-.02h.63s.62-.03.62-.03l.61-.02.61-.02.62-.02.6-.02.57-.02.56-.02.55-.02.55-.02.54-.02.52-.02h.51s.5-.03.5-.03h.49s.49-.02.49-.02h.48s.48-.02.48-.02h.47s.46-.02.46-.02h.45s.46-.02.46-.02h.46s.45-.03.45-.03l.44-.02.43-.02.44-.02.45-.02.46-.03.45-.03.46-.03.46-.04.47-.04.49-.05.51-.06.51-.07.52-.07.52-.08.53-.08.54-.09.55-.09.54-.1.53-.09.52-.09.52-.09.53-.09.53-.09.51-.09.5-.09.49-.09.49-.09.5-.09.5-.09.5-.09.5-.09.49-.09.49-.09.5-.09.51-.09.51-.1.51-.1.51-.1.51-.1.52-.11.54-.12.54-.12.55-.12.55-.12.55-.12.57-.13.58-.13.57-.12.57-.12.57-.12.57-.11.57-.11.57-.11.56-.1.55-.09.53-.09.52-.08.51-.08.51-.08.5-.08.48-.07.46-.07.46-.07.45-.07.45-.07.44-.07.43-.07.43-.07.42-.07.43-.08.43-.08.43-.08.41-.08.41-.08.41-.08.41-.08.41-.08.41-.08.4-.08.4-.07.4-.07.4-.07.4-.07.4-.06.39-.06.39-.06.39-.06.4-.06.4-.05.4-.05.4-.05.4-.05.4-.04.41-.05.42-.05.41-.05.41-.04.41-.04.41-.04.41-.04.41-.04.41-.04.4-.04.39-.04.39-.04.39-.04.4-.04.4-.04.38-.04.38-.04.37-.04.37-.03.37-.03.36-.03.36-.03.35-.03.34-.03.34-.03.33-.02.32-.02.32-.02.31-.02.31-.02.31-.02h.31s.3-.03.3-.03l.3-.02.3-.02.3-.02.3-.02.31-.03.31-.03.31-.03.31-.03.32-.03.33-.04.33-.04.33-.05.34-.05.35-.06.36-.06.37-.07.38-.07.39-.08.4-.08.4-.08.4-.08.42-.09.42-.09.42-.09.42-.09.42-.09.41-.09.42-.1.42-.1.41-.1.41-.1.4-.1.39-.1.4-.11.39-.11.38-.11.38-.12.38-.12.37-.12.38-.13.38-.13.38-.13.37-.13.37-.13.37-.13.38-.13.38-.13.38-.13.38-.12.38-.12.38-.12.39-.12.4-.12.4-.12.4-.12.41-.11.41-.11.42-.12.43-.12.43-.12.44-.12.44-.12.44-.12.45-.13.46-.13.46-.13.46-.13.45-.13.45-.13.45-.13.46-.13.45-.13.44-.12.43-.12.42-.12.42-.12.42-.11.4-.11.39-.11.38-.1.38-.1.37-.1.37-.1.36-.1.35-.09.35-.1.34-.09.33-.1.33-.09.32-.1.31-.09.3-.09.3-.1.3-.1.29-.1.29-.1.28-.1.28-.1.27-.11.27-.11.28-.11.27-.11.27-.11.27-.12.27-.12.28-.12.28-.13.28-.13.28-.13.28-.13.28-.13.29-.14.29-.14.29-.14.29-.14.29-.15.29-.15.3-.16.3-.16.3-.16.3-.16.3-.16.3-.16.3-.17.3-.18.3-.18.3-.18.29-.18.29-.18.29-.19.29-.19.29-.2.28-.2.28-.2.28-.21.27-.21.27-.22.27-.23.26-.23.26-.23.25-.23.25-.24.24-.24.23-.24.23-.24.23-.24.22-.25.22-.25.22-.26.22-.27.22-.28.22-.29.22-.3.22-.32.23-.33.22-.35.22-.35.22-.36.21-.37.21-.38.21-.4.21-.4.2-.4.2-.4.19-.4.2-.42.19-.43.19-.42.19-.43.19-.43.19-.43.19-.44.19-.45.19-.44.19-.43.19-.43.2-.42.2-.43.21-.43.21-.42.21-.41.22-.41.23-.4.24-.41.26-.41.26-.41.27-.4.27-.4.28-.39.29-.4.3-.4.29-.4.29-.4.29-.41.28-.41.28-.42.28-.44.27-.44.26-.44.25-.44.25-.45.24-.46.24-.47.23-.46.22-.46.22-.47.22-.47.22-.49.23-.5.22-.5.22-.51.22-.52.23-.54.23-.56.23-.58.23-.59.23-.6.23-.61.23-.61.23-.63.23-.63.22-.62.22-.6.22-.59.21-.57.21-.57.22-.56.21-.54.21-.53.22-.52.23-.52.24-.52.25-.53.25-.51.26-.51.27-.51.27-.49.28-.49.28-.49.28-.47.27-.46.27-.45.27-.45.28-.45.29-.46.29-.47.3-.49.3-.5.31-.53.32-.57.33-.59.32-.6.32-.6.31-.6.31-.59.31-.6.31-.59.3-.58.29-.55.28-.55.28-.53.28-.52.27-.52.26-.5.26-.48.25-.47.25-.45.25-.45.26-.45.26-.44.26-.43.26-.43.27-.45.29-.48.31-.5.32-.51.34-.53.36-.56.37-.58.39-.6.4-.62.41-.63.4-.62.4-.62.4-.62.4-.62.4-.63.39-.62.38-.62.36-.62.35-.62.35-.63.34-.64.33-.63.31-.63.31-.63.3-.63.3-.65.3-.65.29-.65.29-.64.29-.64.29-.64.3-.65.3-.65.3-.63.3-.62.3-.61.3-.6.31-.62.31-.62.31-.62.31-.62.32-.62.32-.63.34-.67.35-.68.35-.68.36-.7.36-.72.37-.74.38-.77.39-.8.38-.81.37-.8.36-.79.35-.77.34-.76.32-.74.3-.7.28-.66.26-.62.25-.59.23-.57.23-.56.21-.54.2-.52.19-.51.19-.49.18-.48.18-.48.16-.46.16-.44.15-.43.14-.42.14-.42.14-.43.14-.43.13-.43.14-.45.14-.46.14-.49.14-.5.14-.5.13-.5.13-.49.13-.48.12-.47.12-.46.11-.44.11-.42.1-.4.1-.39.1-.38.1-.38.09-.37.09-.36.09-.35.09-.34.09-.33.09-.33.08-.32.08-.31.08-.31.08-.3.08-.31.08-.31.08-.32.08-.32.08-.33.08-.33.08-.34.08-.33.08-.33.08-.31.08-.3.07-.29.07-.28.06-.26.06-.25.06-.24.05-.23.05-.22.05-.21.04-.21.04-.21.04-.2.04-.2.04-.19.04-.19.04-.19.03-.18.03-.18.03-.18.03-.17.03-.17.03-.17.03-.16.03-.16.03-.15.03-.15.03-.14.02-.13.02-.13.02-.13.02-.13.02-.12.02-.12.02-.12.02-.13.02-.13.02-.13.02-.13.02-.14.02-.14.02-.14.02-.14.02-.14.02-.14.02-.13.02-.13.02-.13.02-.13.02-.12.02-.11.02-.11.02-.11.02-.11.02-.1.02-.1.02-.1.02-.09.02-.09.02-.09.02-.09.02-.09.02-.08.02-.08.02-.08.02-.08.02-.08.02-.09.03-.09.03-.09.03-.09.03-.09.03-.09.03-.09.03-.09.03-.08.03-.09.03-.08.03-.08.03-.08.03-.08.03-.08.03-.08.03-.08.03-.08.03-.08.03-.08.03-.08.03-.08.03-.08.03-.08.03-.08.03-.09.02-.09.03-.09.02-.09.02-.09.02-.09.02-.09.02-.1.02-.1v-.1s.03-.1.03-.1v-.11s.02-.11.02-.11v-.12s.01-.12.01-.12v-.12s0-.12,0-.12v-.12s0-.12,0-.12v-.24s0-.12,0-.12v-.12s-.01-.12-.01-.12v-.12s-.02-.12-.02-.12v-.13s-.02-.13-.02-.13v-.13s-.03-.13-.03-.13l-.02-.14-.03-.14-.02-.14-.03-.14-.03-.14-.03-.14-.03-.14-.03-.14-.04-.14-.03-.13-.04-.13-.04-.13-.04-.13-.04-.12-.04-.12-.04-.12-.04-.12-.04-.12-.05-.12-.05-.13-.05-.12-.05-.13-.06-.13-.06-.13-.06-.13-.07-.14-.07-.14-.07-.14-.07-.14-.08-.14-.08-.14-.08-.14-.08-.15-.08-.15-.08-.15-.08-.14-.09-.15-.08-.14-.08-.14-.08-.14-.08-.14-.08-.13-.08-.13-.08-.13-.08-.13-.08-.13-.07-.12-.07-.12-.07-.12-.07-.12-.07-.11-.07-.11-.07-.11-.07-.11-.07-.11-.06-.11-.06-.1-.06-.1-.06-.1-.06-.1-.06-.09-.06-.09-.06-.09-.06-.09-.06-.09-.06-.09-.06-.08-.06-.08-.06-.08-.06-.08-.06-.07-.06-.07-.07-.07-.08-.07-.08-.07-.09-.07-.1-.06-.04-.02c.07-.13.13-.26.2-.39-.2-.32-.41-.65-.62-.97-.2-.32-.41-.64-.62-.96-.75-1.16-1.53-2.32-2.32-3.46-1.56-2.38-3-5.01-4.56-7.44-.07-.09-.13-.18-.2-.27-.05-.31-.12-.63-.21-.94-5.04-11.16-62.98-2.45-75.64-1.95-21.83,1.45-43.38,5.26-64.83,9.42-1.3.34-2.88.66-4.62.98.71-1.34,1.42-2.68,2.14-4.02.3-.12.57-.3.8-.54.45-.29.91-.55,1.38-.8.63-.16,1.24-.5,1.85-.87.33-.14.65-.27.99-.4.2-.08.65-.28,1.1-.4.67-.12,1.12-.49,1.37-.96,5.05-2.32,10.36-4.2,15.62-5.99,6.96-2.28,13.98-4.34,21.06-6.21,1.52-.41,3.05-.8,4.57-1.18,20.69-5.23,41.79-8.96,62.85-12.2,7.07-1.04,14.16-2.01,21.25-2.9,1.73-.22,3.46-.43,5.18-.64,5.15-.62,10.31-1.2,15.47-1.73h0l.48-.05c.69-.04,1.38-.1,2.07-.16.52-.04,1.05-.09,1.57-.14h0c3.91-.39,7.87-.94,11.82-1.29.33-.03.66-.06.99-.08.33-.03.66-.05.98-.08.01,0,.02,0,.04,0,.65-.04,1.29-.08,1.93-.11h0c1.42-.07,2.84-.09,4.26-.06.18,0,.35.01.53.02,1.01.04,2.02.1,3.02.2.19.02.39.04.58.06,1.61.19,3.22.47,4.81.88.34.08.66.18.95.31.09.04.19.09.28.13.04.02.09.04.13.06.04.03.09.05.13.07.04.02.09.05.13.08.07.04.14.09.21.13.05.03.09.06.14.09.04.03.08.05.11.08.09.07.17.13.26.21.02.02.04.04.07.06.04.03.08.07.11.1.03.03.07.06.1.1.04.03.07.07.11.11.06.06.11.11.16.18.04.04.07.08.11.13.11.13.22.27.31.42.03.04.05.08.08.12.04.06.08.12.11.18.13.23.25.46.35.7.04.09.07.18.1.28.07.2.13.4.18.6,0,.04.02.09.03.14.02.09.04.18.05.26Z" fill="#d0e4e8"/><path d="M387.89,253.54c7.08,10.4,10.25,16.94,9.52,29.85-.46,4.86-.9,9.97-2.71,14.54-4.34,8.12-10.43,15.15-16.18,22.28-14.22,15.81-29,31.12-43.87,46.33l-.18.13-.62.48-.62.49-.61.49-.6.49-.59.5-.58.5-.59.53-.59.55-.58.55-.57.55-.56.55-.56.56-.57.57-.58.58-.57.57-.58.57-.59.57-.6.57-.62.57-.62.57-.61.55-.6.53-.58.51-.58.5-.58.5-.57.5-.56.48-.55.47-.55.47-.55.47-.55.48-.56.49-.56.49-.56.5-.57.51-.58.53-.61.57-.63.6-.63.62-.63.63-.63.65-.62.67-.63.7-.62.71-.59.7-.57.69-.55.69-.53.68-.53.68-.52.67-.5.64-.48.62-.47.6-.46.58-.46.57-.46.57-.45.54-.45.53-.45.52-.46.51-.48.51-.49.51-.49.5-.49.49-.49.47-.48.47-.49.47-.49.47-.47.45-.46.44-.44.43-.42.42-.42.42-.41.42-.39.41-.38.4-.37.4-.36.39-.36.38-.35.38-.35.37-.33.36-.33.36-.32.35-.33.36-.32.36-.31.35-.31.35-.31.35-.31.36-.32.36-.33.38-.33.38-.33.38-.33.38-.34.38-.35.39-.35.39-.35.39-.34.38-.34.38-.34.38-.28.31c-.14.14-.28.29-.42.43-2.28,2.38-4.52,4.81-6.77,7.22-.17.18-.3.4-.4.62-2.72,2.33-5.31,4.86-7.95,7.32-2.76-6.16-5.5-12.33-8.47-18.38l.03-.05.28-.62.25-.63.24-.63.22-.63.2-.62.2-.6.19-.58.18-.55.17-.5.16-.46.16-.43.16-.4.16-.38.16-.35.15-.32.15-.3.15-.28.16-.27.17-.26.18-.25.18-.24.19-.24.2-.24.21-.24.22-.24.22-.23.22-.23.22-.22.22-.21.22-.2.22-.19.21-.18.2-.17.2-.16.19-.16.2-.15.2-.15.19-.14.19-.13.19-.13.19-.13.2-.14.2-.14.2-.16.21-.18.21-.21.21-.24.2-.28.19-.32.17-.35.16-.37.13-.39.12-.4.11-.4.09-.4.08-.38.08-.36.08-.34.07-.32.07-.3.08-.28.08-.26.08-.25.08-.23.08-.21.09-.19.09-.18.09-.16.09-.15.09-.14.09-.13.09-.11.09-.1.03,1.9v-.03s.13-.25.13-.25l.19-.44.22-.48.22-.48.23-.48.22-.46.21-.42.2-.39.19-.36.19-.33.19-.31.19-.29.19-.26.19-.25.2-.23.21-.21.23-.19.24-.17.25-.15.26-.13.26-.1.26-.07.27-.05.27-.02h.27s.26,0,.26,0l.26.03.26.05.25.06.25.07.24.08.24.09.23.09.23.1.24.11.24.12.24.12.23.13.23.13.23.13.24.13.23.13.23.12.24.11.23.11.24.1.24.09.25.08.25.08.25.06.25.06.25.04.25.03.25.02h.25s.24.01.24.01h.23s.23-.02.23-.02l.23-.02.23-.03.22-.03.22-.04.22-.04.23-.05.25-.07.27-.09.29-.11.32-.14.35-.18.39-.23.43-.29.46-.35.49-.4.51-.46.52-.51.53-.54.55-.59.55-.62.52-.63.51-.64.49-.64.46-.64.45-.66.42-.66.39-.65.36-.65.33-.63.3-.63.28-.64.25-.64.22-.62.19-.61.17-.61.14-.62.12-.64.09-.66.07-.67.05-.68.03-.72v-.75s0-.81,0-.81l-.03-.87-.04-.9-.06-.93-.07-.95-.08-.96-.09-.98-.09-.97-.08-.92-.08-.89-.07-.86-.06-.84-.05-.85-.04-.87-.03-.87v-.89s0-.93,0-.93l.04-.98.07-1.06.11-1.12.14-1.13.18-1.13.22-1.12.26-1.11.3-1.1.33-1.07.35-1.01.36-.95.38-.9.39-.86.41-.84.42-.8.42-.75.42-.71.41-.67.41-.62.41-.6.41-.56.4-.52.4-.48.4-.44.41-.41.44-.39.46-.36.48-.33.5-.3.52-.27.55-.23.58-.18.6-.13.59-.08.59-.03.59.03.59.08.6.14.59.19.58.23.56.28.54.31.51.34.5.36.48.39.45.4.43.4.41.4.4.4.4.4.4.41.39.4.38.39.38.37.38.35.38.33.38.31.38.27.38.25.39.21.42.16.44.11.46.04.48-.03.49-.11.49-.19.49-.27.5-.35.48-.41.46-.45.44-.49.42-.53.4-.56.38-.6.37-.64.35-.67.33-.71.31-.76.3-.82.28-.9.26-.96.23-.99.2-1.02.17-1.03.15-1.04.13-1.07.1-1.07.08-1.05.06-1.03.03-1.02v-1.01s-.01-1.02-.01-1.02l-.05-1.03-.07-1.02-.09-1.02-.11-1.01-.13-1-.14-1-.15-.99-.15-.94-.14-.91-.14-.9-.13-.89-.12-.91-.11-.93-.09-.94-.08-.96-.06-1.01-.06-1.06-.04-1.13-.03-1.17v-1.16s-.01-1.14-.01-1.14l.02-1.11.04-1.08.07-1.06.1-1.01.12-.93.14-.87.17-.8.19-.74.21-.69.23-.65.25-.6.26-.56.28-.53.3-.51.32-.5.35-.5.37-.5.38-.49.4-.49.42-.49.44-.5.45-.49.44-.47.44-.45.43-.43.43-.4.42-.38.42-.35.41-.32.41-.3.43-.27.45-.23.48-.19.51-.14.52-.08.54-.03.55.03.55.08.56.12.56.16.54.17.52.19.51.2.5.2.5.21.5.21.48.21.47.19.46.19.45.17.44.17.43.16.42.15.41.14.4.14.39.13.4.14.4.14.4.15.39.16.38.16.38.17.37.19.36.2.35.2.33.21.32.23.31.25.3.27.29.29.26.3.25.3.23.3.21.3.19.3.18.3.16.3.15.29.14.29.13.28.12.29.12.29.11.28.11.28.1.27.1.27.11.26.11.26.12.26.13.26.14.26.15.25.16.25.16.24.16.23.17.22.16.2.15.19.15.18.14.16.14.15.13.14.13.13.12.12.12.11.13.11.14.09.16.08.18.06.2.03.21-.02.23-.08.24-.14.24-.22.23-.3.22-.38.21-.46.19-.53.18-.57.15-.6.14-.63.11-.63.1-.65.08-.65.06-.62.05-.6.03-.57.02-.55v-.53s0-.52,0-.52v-.5s-.04-.48-.04-.48l-.03-.46-.04-.45-.05-.46-.06-.47-.07-.46-.08-.48-.09-.49-.11-.51-.12-.54-.14-.57-.15-.59-.16-.61-.17-.63-.19-.65-.2-.67-.21-.68-.22-.67-.23-.65-.24-.64-.26-.62-.28-.61-.29-.6-.3-.57-.31-.53-.32-.51-.33-.48-.35-.46-.36-.45-.36-.43-.37-.42-.38-.41-.38-.42-.4-.44-.41-.47-.41-.49-.41-.52-.4-.55-.39-.57-.38-.59-.36-.6-.34-.59-.32-.58-.3-.57-.28-.55-.27-.54-.26-.53-.25-.51-.24-.49-.23-.47-.22-.46-.22-.45-.22-.45-.21-.45-.2-.44-.19-.44-.19-.44-.18-.46-.18-.47-.17-.47-.16-.47-.15-.48-.14-.49-.12-.51-.11-.53-.09-.53-.08-.54-.06-.55-.04-.57-.02-.58v-.59s.03-.59.03-.59l.05-.58.08-.58.1-.57.13-.58.16-.58.18-.55.19-.53.21-.51.22-.48.23-.47.24-.44.23-.41.23-.38.23-.36.23-.33.23-.31.23-.3.23-.27.23-.26.24-.25.25-.23.26-.22.28-.21.29-.2.3-.19.32-.18.34-.17.36-.15.39-.13.4-.1.4-.07.41-.04h.41l.42.04.42.08.41.12.4.16.39.2.38.24.37.28.36.31.34.33.32.36.31.38.3.4.28.42.28.44.26.45.26.46.25.46.24.46.23.48.23.47.21.45.21.43.19.41.19.39.18.36.17.34.16.31.15.29.14.27.13.25.13.23.12.21.11.19.11.18.1.17.1.16.09.14.09.13.09.12.08.11.08.1.09.09.09.08.09.06.1.05.1.03h.11s.11,0,.11,0l.11-.04.11-.06.11-.08.11-.1.1-.12.1-.13.09-.15.08-.17.08-.17.07-.18.06-.18.06-.19.05-.2.05-.21.04-.21.03-.22.03-.23.02-.23.02-.24v-.25s.01-.25.01-.25v-.25s-.01-.26-.01-.26v-.27s-.03-.28-.03-.28l-.02-.28-.03-.29-.03-.3-.04-.3-.04-.3-.05-.3-.06-.3-.06-.3-.07-.29-.07-.29-.08-.28-.08-.27-.09-.27-.09-.26-.09-.25-.1-.25-.1-.24-.1-.24-.11-.24-.11-.23-.11-.23-.11-.22-.11-.22-.12-.23-.12-.22-.12-.22-.12-.22-.11-.22-.11-.22-.12-.22-.12-.23-.11-.23-.11-.24-.11-.24-.11-.24-.1-.25-.1-.25-.1-.25-.09-.25-.09-.24-.09-.24-.08-.24-.08-.23-.08-.23-.07-.21-.06-.2-.06-.19-.06-.18-.06-.18-.05-.16-.04-.16-.04-.15-.04-.14-.04-.13-.03-.13-.03-.12-.03-.12-.02-.12v-.12s-.02-.12-.02-.12v-.12s.01-.13.01-.13l.02-.13.03-.13.03-.13.04-.13.05-.13.05-.12.06-.12.06-.12.07-.11.07-.11.07-.1.07-.1.07-.1.08-.09.07-.09.08-.08.07-.08.07-.08.07-.07.07-.07.07-.06.07-.06.08-.06.07-.06.07-.05.07-.05.07-.05.07-.05.07-.04.07-.04.07-.04.07-.04.07-.04.07-.04.07-.04.07-.03.07-.03.07-.03.07-.03.08-.03.07-.03.08-.03.08-.02.08-.02.08-.02.08-.02h.08s.09-.03.09-.03h.08s.09-.01.09-.01h.09s.09,0,.09,0h.09s.09.01.09.01h.09s.09.02.09.02h.08s.08.03.08.03l.09.02.08.02.08.02.08.02.08.02.08.03.08.03.08.03h.02c.54.67,1.08,1.34,1.61,2,.27.35.54.7.81,1.05.01.01.02.03.03.04.38.5.76,1,1.14,1.5.43.57.86,1.14,1.29,1.72,4.51,6.08,8.77,12.36,12.84,18.77Z" fill="#8c9fa3"/><path d="M257.44,418.12c2.87,5.93,5.54,11.95,8.24,17.97-2.68,2.35-5.47,4.54-8.56,6.33-25.56,8.16-51.8,12.57-78.47,15.64-12.51,1.6-25.06,2.92-37.59,4.36-.96.06-2.07.17-3.28.31h-.45s-.31,0-.31,0h-.31s-.31.01-.31.01h-.3s-.31.01-.31.01h-.32s-.31.02-.31.02h-.32s-.32.02-.32.02h-.32s-.33.02-.33.02h-.33s-.33.03-.33.03h-.33s-.33.03-.33.03h-.33s-.33.03-.33.03h-.33s-.32.03-.32.03h-.32s-.31.03-.31.03h-.31s-.31.03-.31.03h-.3s-.3.03-.3.03h-.29s-.28.02-.28.02h-.27s-.27.02-.27.02h-.26s-.26.03-.26.03h-.25s-.24.03-.24.03h-.24s-.23.03-.23.03h-.23s-.22.03-.22.03h-.21s-.21.03-.21.03h-.2s-.2.03-.2.03h-.2s-.19.03-.19.03l-.19.02h-.19s-.19.03-.19.03h-.18s-.18.03-.18.03h-.18s-.18.02-.18.02h-.17s-.17.02-.17.02h-.17s-.17.01-.17.01h-.17s-.16.01-.16.01h-.16s-.16.01-.16.01h-.16s-.16.01-.16.01h-.16s-.16,0-.16,0h-.16s-.16,0-.16,0h-.16s-.17,0-.17,0h-.17s-.17,0-.17,0h-.18s-.18,0-.18,0h-.19s-.2,0-.2,0h-.41s-.21,0-.21,0h-.22s-.23,0-.23,0h-.24s-.24,0-.24,0h-.25s-.25.02-.25.02h-.25s-.26.03-.26.03h-.26s-.26.03-.26.03l-.26.02-.26.02-.26.03-.27.03-.26.03-.26.03-.26.03-.25.04-.25.03-.25.04-.25.04-.24.04-.24.04-.23.04-.23.04-.23.04-.23.04-.22.04-.21.04-.2.04-.2.04-.19.04-.19.04-.18.04-.17.04-.17.04-.16.04-.16.04-.16.04-.15.04-.14.04-.14.04-.13.04-.13.04-.13.04-.13.04-.12.04-.12.04-.11.04-.12.04-.12.04-.11.04-.11.04-.11.04-.11.04-.11.04-.11.04-.11.04-.11.04-.11.04-.11.03-.11.03-.11.04-.11.03-.12.04-.12.03-.12.03-.12.03-.12.03-.12.03-.12.03-.13.03-.12.03-.13.03-.13.03-.13.04-.13.03-.13.03-.13.03-.13.03-.13.04-.13.03-.14.03-.13.03-.13.03-.14.03-.14.03-.14.03h0c-7.39-.01-13.65-1.19-16.47-4.76-2.44-4.41-4.44-9.02-6.26-13.72l-.03-.14-.04-.18-.03-.17-.03-.17-.03-.17-.03-.16-.03-.17-.02-.17-.02-.18v-.18s-.02-.19-.02-.19v-.19s0-.19,0-.19v-.19s.03-.19.03-.19l.02-.19.03-.19.03-.18.04-.17.04-.16.04-.16.04-.15.05-.14.05-.13.05-.13.06-.12.06-.11.07-.11.07-.1.08-.1.08-.09.08-.09.09-.08.09-.08.1-.08.11-.07.11-.07.12-.06.13-.06.13-.06.14-.06.15-.05.15-.05.16-.05.16-.04.17-.04.18-.04.18-.04.18-.03.18-.03.18-.02.19-.02h.19s.19-.02.19-.02h.38s.19.02.19.02l.2.03.2.03.2.04.2.05.2.06.2.08.2.09.2.11.2.11.19.13.19.13.18.14.18.15.17.16.16.16.15.16.15.16.14.16.14.17.13.17.13.17.12.17.11.18.11.18.11.18.11.19.11.19.1.2.1.2.1.21.1.22.11.23.11.24.11.25.11.25.11.26.12.27.12.27.13.28.13.27.13.27.14.26.15.26.16.26.16.25.17.24.19.23.2.22.22.21.24.2.25.19.27.18.29.16.31.15.32.14.34.13.35.11.36.1.36.1.36.09.36.08.36.08.35.07.33.06.32.06.31.05.31.05.3.04.29.04.28.04.27.03.26.03.26.03.26.03.25.03.25.03.24.02.23.02.23.02.23.02.22.02h.22s.21.02.21.02h.21s.21.01.21.01h.43s.22-.03.22-.03l.22-.03.22-.03.22-.04.22-.06.21-.06.21-.07.21-.08.21-.09.21-.1.21-.1.21-.11.21-.11.21-.12.21-.12.21-.13.21-.13.21-.13.21-.13.21-.13.21-.13.21-.14.21-.14.21-.14.21-.14.21-.15.22-.16.22-.16.23-.17.23-.18.23-.18.23-.18.23-.19.24-.19.24-.19.24-.19.24-.19.24-.18.25-.18.26-.18.27-.18.28-.17.28-.17.29-.17.3-.17.32-.18.33-.18.33-.19.34-.19.35-.19.35-.2.36-.2.36-.2.36-.2.36-.2.36-.2.35-.19.35-.19.35-.18.34-.18.33-.17.31-.16.3-.15.3-.15.29-.14.28-.13.26-.12.25-.11.24-.11.23-.1.22-.09.21-.08.2-.08.19-.07.19-.07.18-.06.18-.06.18-.05.17-.05.17-.04.17-.03.18-.03h.18s.18-.01.18-.01h.18s.18.03.18.03l.18.03.18.05.18.07.18.08.19.1.19.12.19.14.19.17.2.2.2.22.2.25.2.27.2.3.21.32.21.34.2.34.2.35.2.35.2.35.2.35.2.34.2.33.19.32.2.3.2.3.21.28.21.28.21.26.21.25.21.23.21.21.21.21.22.19.21.18.21.17.2.16.2.15.2.14.2.14.2.13.19.13.19.12.19.12.19.12.18.11.18.11.18.11.17.11.17.11.17.11.17.11.17.11.17.12.17.12.18.13.18.14.18.14.18.14.18.15.18.15.18.15.18.15.17.14.16.14.15.13.15.12.14.11.14.11.14.1.16.09.17.07.18.05h.19s.19-.02.19-.02l.19-.08.18-.11.16-.16.15-.19.14-.22.13-.25.11-.28.11-.29.1-.3.09-.3.08-.3.08-.31.07-.31.06-.31.06-.3.05-.3.04-.31.04-.33.03-.34.03-.35.02-.35v-.36s.01-.37.01-.37v-.39s-.02-.4-.02-.4l-.02-.4-.03-.42-.04-.43-.04-.43-.05-.45-.05-.45-.06-.44-.05-.42-.05-.4-.05-.37-.05-.34-.04-.32-.04-.29-.03-.27-.03-.25-.03-.23-.03-.22-.02-.2-.02-.18-.02-.17v-.16s-.02-.14-.02-.14v-.13s0-.12,0-.12v-.11s.03-.11.03-.11l.03-.11.03-.11.05-.11.06-.11.07-.11.09-.12.1-.13.12-.13.13-.14.15-.15.16-.15.17-.16.19-.16.2-.16.22-.16.23-.16.24-.16.25-.16.26-.15.26-.14.28-.14.3-.13.3-.13.3-.12.31-.11.32-.11.33-.1.34-.1.33-.09.34-.08.34-.07.35-.06.35-.05.36-.03h.36s.37-.01.37-.01l.37.03.38.04.39.07.4.09.4.11.4.13.4.14.4.16.41.19.41.21.41.23.41.25.41.27.41.3.41.33.41.35.4.36.38.37.37.37.36.38.36.39.36.39.34.38.33.36.32.35.31.34.31.33.31.33.31.31.3.3.3.28.3.28.31.27.32.26.31.25.32.25.33.24.33.23.35.23.36.22.36.21.36.2.36.18.36.17.37.15.38.13.37.11.37.09.37.08.38.05.39.02.4-.02.41-.06.41-.09.41-.13.41-.17.41-.21.41-.25.4-.27.39-.3.39-.32.38-.34.39-.36.39-.38.38-.4.38-.41.38-.42.39-.43.4-.44.4-.45.39-.44.39-.43.38-.41.37-.4.37-.4.36-.39.35-.38.34-.37.34-.38.33-.38.33-.39.33-.4.32-.39.31-.39.3-.38.29-.37.28-.36.27-.35.26-.33.25-.31.24-.29.23-.28.23-.27.24-.26.24-.25.25-.23.25-.23.26-.22.28-.22.3-.22.3-.21.3-.19.31-.18.31-.17.32-.16.32-.15.32-.14.31-.13.31-.11.3-.11.31-.1.31-.09.31-.08.3-.07.31-.06.31-.05.31-.04.32-.03.32-.02h.33l.33.02.34.04.35.07.36.1.37.12.37.16.37.19.38.22.39.26.4.3.39.33.38.35.37.36.37.37.37.38.38.39.38.38.38.38.39.36.4.35.41.35.43.34.42.32.42.3.42.29.43.28.44.26.44.25.43.23.43.21.42.2.42.18.43.16.43.14.42.12.42.1.42.08.42.06.43.05.44.03h.45s.46-.01.46-.01l.47-.05.48-.08.49-.12.5-.16.5-.2.49-.23.48-.27.47-.3.46-.34.45-.37.43-.39.41-.41.4-.43.39-.45.38-.48.38-.51.36-.52.35-.55.35-.57.33-.59.33-.62.33-.65.31-.64.31-.64.3-.63.3-.61.3-.6.3-.58.29-.54.28-.5.28-.46.28-.43.28-.4.28-.37.27-.33.26-.3.26-.27.25-.25.26-.23.26-.21.26-.19.25-.18.26-.16.26-.15.26-.14.27-.13.27-.11.27-.1.27-.08.28-.07.28-.05.3-.04.29-.02h.6s.31.05.31.05l.31.06.32.07.32.09.32.11.32.12.32.14.33.17.34.19.34.22.35.25.35.28.36.32.37.37.38.4.37.43.36.44.35.44.34.44.33.43.32.42.3.4.28.37.27.34.26.31.25.3.25.27.24.25.23.23.22.2.22.18.22.16.22.14.22.12.23.09.23.07.24.04h.25s.26-.04.26-.04l.26-.08.26-.12.25-.16.25-.2.25-.25.25-.29.24-.32.23-.34.23-.36.22-.39.23-.41.24-.44.24-.45.25-.46.26-.48.28-.49.3-.52.32-.53.32-.52.33-.52.33-.52.34-.51.34-.52.34-.51.33-.49.32-.48.31-.46.3-.44.3-.44.29-.41.28-.39.26-.36.25-.33.25-.3.25-.28.25-.26.25-.23.24-.21.25-.19.26-.17.26-.14.27-.12.28-.09.28-.07.28-.04.29-.02h.3s.3.04.3.04l.3.05.3.07.3.09.3.11.3.13.31.14.3.15.3.16.29.17.29.18.29.18.29.18.28.18.27.17.26.16.25.15.25.14.25.13.25.11.25.1.26.09.27.07.29.04h.3s.31-.03.31-.03l.33-.08.04-.02Z" fill="#8c9fa3"/><path d="M160.51,402.73h.04s-.15,0-.15,0h-.31s-.31.01-.31.01h-.32s-.33.02-.33.02h-.34s-.35.03-.35.03h-.34s-.33.03-.33.03l-.33.02-.31.02-.31.02-.3.02-.28.02-.27.02-.26.02-.25.02-.25.02-.25.02-.25.02h-.24s-.24.03-.24.03h-.24s-.24.02-.24.02h-.25s-.25.02-.25.02h-.25s-.25.01-.25.01h-.26s-.26,0-.26,0h-.27s-.26,0-.26,0h-1.8s-.2,0-.2,0h-.64s-.22,0-.22,0h-.23s-.24,0-.24,0h-.25s-.27,0-.27,0h-.28s-.28,0-.28,0h-.09s.34.03.34.03l.44.04.44.04.45.03.46.03.47.03.47.03.46.02.48.02h.49s.51.02.51.02h.52s.52,0,.52,0h.51s.52-.03.52-.03l.53-.02.53-.03.53-.04.53-.04.53-.05.52-.06.52-.06.51-.06.52-.07.51-.07.5-.07.49-.06ZM192.54,399.52l.6-.53-.15.04-.24.06-.23.06-.22.05-.23.05-.24.05-.26.05-.28.06-.3.06-.31.06-.33.06-.35.06-.37.06-.39.06-.38.06-.37.05h-.09s.24,0,.24,0l.44-.04.44-.04.45-.04.46-.04.46-.04.45-.04.46-.04.47-.04.26-.02ZM311.57,252.8v.24s0,.12,0,.12v.12s-.01.12-.01.12v.12s-.02.11-.02.11v.11s-.03.1-.03.1v.1s-.03.1-.03.1l-.02.1-.02.09-.02.09-.02.09-.02.09-.03.09-.02.09-.03.09-.03.08-.03.08-.03.08-.03.08-.03.08-.03.08-.03.08-.03.08-.03.08-.03.08-.03.08-.03.08-.03.08-.03.08-.03.08-.03.09-.03.08-.03.09-.03.09-.03.09-.03.09-.03.09-.03.09-.03.09-.02.09-.02.08-.02.08-.02.08-.02.08-.02.08-.02.09-.02.09-.02.09-.02.09-.02.09-.02.1-.02.1-.02.1-.02.11-.02.11-.02.11-.02.11-.02.12-.02.13-.02.13-.02.13-.02.13-.02.14-.02.14-.02.14-.02.14-.02.14-.02.14-.02.13-.02.13-.02.13-.02.13-.02.12-.02.12-.02.12-.02.13-.02.13-.02.13-.02.13-.03.14-.03.15-.03.15-.03.16-.03.16-.03.17-.03.17-.03.17-.03.18-.03.18-.03.18-.04.19-.04.19-.04.19-.04.2-.04.2-.04.21-.04.21-.05.21-.05.22-.05.23-.06.24-.06.25-.06.26-.07.28-.07.29-.08.3-.08.31-.08.33-.08.33-.08.34-.08.33-.08.33-.08.32-.08.32-.08.31-.08.31-.08.3-.08.31-.08.31-.08.32-.09.33-.09.33-.09.34-.09.35-.09.36-.09.37-.1.38-.1.38-.1.39-.1.4-.11.42-.11.44-.12.46-.12.47-.13.48-.13.49-.13.5-.14.5-.14.5-.14.49-.14.46-.14.45-.13.43-.14.43-.14.43-.14.42-.14.42-.15.43-.16.44-.16.46-.18.48-.18.48-.19.49-.19.51-.2.52-.21.54-.23.56-.23.57-.25.59-.26.62-.28.66-.3.7-.32.74-.34.76-.35.77-.36.79-.37.8-.38.81-.39.8-.38.77-.37.74-.36.72-.36.7-.35.68-.35.68-.34.67-.32.63-.32.62-.31.62-.31.62-.31.62-.31.62-.3.6-.3.61-.3.62-.3.63-.3.65-.3.65-.29.64-.29.64-.29.64-.29.65-.3.65-.3.65-.3.63-.31.63-.31.63-.33.63-.34.64-.35.63-.35.62-.36.62-.38.62-.39.62-.4.63-.4.62-.4.62-.4.62-.4.62-.41.63-.4.62-.39.6-.37.58-.36.56-.34.53-.32.51-.31.5-.29.48-.27.45-.26.43-.26.43-.26.44-.26.45-.25.45-.25.45-.25.47-.26.48-.26.5-.27.52-.28.52-.28.53-.28.55-.29.55-.3.58-.31.59-.31.6-.31.59-.31.6-.32.6-.32.6-.33.59-.32.57-.31.53-.3.5-.3.49-.29.47-.29.46-.28.45-.27.45-.27.45-.27.46-.28.47-.28.49-.28.49-.27.49-.27.51-.26.51-.25.51-.25.53-.24.52-.23.52-.22.52-.21.53-.21.54-.22.56-.21.57-.21.57-.22.59-.22.6-.22.62-.23.63-.23.63-.23.61-.23.61-.23.6-.23.59-.23.58-.23.56-.23.54-.22.52-.22.51-.22.5-.23.5-.22.49-.22.47-.22.47-.22.46-.23.46-.24.47-.24.46-.25.45-.25.44-.26.44-.27.44-.28.44-.28.42-.28.41-.29.41-.29.4-.29.4-.3.4-.29.4-.28.39-.27.4-.27.4-.26.41-.26.41-.24.41-.23.4-.22.41-.21.41-.21.42-.21.43-.2.43-.2.42-.19.43-.19.43-.19.44-.19.45-.19.44-.19.43-.19.43-.19.43-.19.42-.19.43-.2.42-.19.4-.2.4-.2.4-.21.4-.21.4-.21.38-.21.37-.22.36-.22.35-.22.35-.23.33-.22.32-.22.3-.22.29-.22.28-.22.27-.22.26-.22.25-.22.25-.23.24-.23.24-.23.24-.24.24-.25.24-.25.23-.26.23-.26.23-.27.23-.27.22-.27.21-.28.21-.28.2-.28.2-.29.2-.29.19-.29.19-.29.18-.29.18-.3.18-.3.18-.3.18-.3.17-.3.16-.3.16-.3.16-.3.16-.3.16-.3.16-.29.15-.29.15-.29.14-.29.14-.29.14-.29.14-.28.13-.28.13-.28.13-.28.13-.28.13-.28.12-.27.12-.27.12-.27.11-.27.11-.28.11-.27.11-.27.11-.28.1-.28.1-.29.1-.29.1-.3.1-.3.1-.3.09-.31.09-.32.1-.33.09-.33.1-.34.09-.35.1-.35.09-.36.1-.37.1-.37.1-.38.1-.38.1-.39.11-.4.11-.42.11-.42.12-.42.12-.43.12-.44.12-.45.13-.46.13-.45.13-.45.13-.45.13-.46.13-.46.13-.46.13-.45.13-.44.12-.44.12-.44.12-.43.12-.43.12-.42.12-.41.11-.41.11-.4.12-.4.12-.4.12-.39.12-.38.12-.38.12-.38.12-.38.13-.38.13-.38.13-.37.13-.37.13-.37.13-.38.13-.38.13-.38.13-.37.12-.38.12-.38.12-.38.11-.39.11-.4.11-.39.1-.4.1-.41.1-.41.1-.42.1-.42.1-.41.09-.42.09-.42.09-.42.09-.42.09-.42.09-.4.08-.4.08-.4.08-.39.08-.38.07-.37.07-.36.06-.35.06-.34.05-.33.05-.33.04-.33.04-.32.03-.31.03-.31.03-.31.03-.31.03-.3.02-.3.02-.3.02-.3.02-.3.02h-.31s-.31.03-.31.03l-.31.02-.31.02-.32.02-.32.02-.33.02-.34.03-.34.03-.35.03-.36.03-.36.03-.37.03-.37.03-.37.04-.38.04-.38.04-.4.04-.4.04-.39.04-.39.04-.39.04-.4.04-.41.04-.41.04-.41.04-.41.04-.41.04-.41.04-.41.05-.42.05-.41.05-.4.04-.4.05-.4.05-.4.05-.4.05-.4.06-.39.06-.39.06-.39.06-.4.06-.4.07-.4.07-.4.07-.4.07-.4.08-.41.08-.41.08-.41.08-.41.08-.41.08-.41.08-.43.08-.43.08-.43.08-.42.07-.43.07-.43.07-.44.07-.45.07-.45.07-.46.07-.46.07-.48.07-.5.08-.51.08-.51.08-.52.08-.53.09-.55.09-.56.1-.57.11-.57.11-.57.11-.57.12-.57.12-.57.12-.58.13-.57.13-.55.12-.55.12-.55.12-.54.12-.54.12-.52.11-.51.1-.51.1-.51.1-.51.1-.51.09-.5.09-.49.09-.49.09-.5.09-.5.09-.5.09-.5.09-.49.09-.49.09-.5.09-.51.09-.53.09-.53.09-.52.09-.52.09-.53.09-.54.1-.55.09-.54.09-.53.08-.52.08-.52.07-.51.07-.51.06-.49.05-.47.04-.46.04-.46.03-.45.03-.46.03-.45.02-.44.02-.43.02-.44.02h-.45s-.46.03-.46.03h-.46s-.45.02-.45.02h-.46s-.47.02-.47.02h-.48s-.48.02-.48.02h-.49s-.49.02-.49.02h-.5s-.51.03-.51.03l-.52.02-.54.02-.55.02-.55.02-.56.02-.57.02-.6.02-.62.02-.61.02-.61.02h-.62s-.63.03-.63.03h-.63s-.63.02-.63.02h-.63s-.62.01-.62.01h-1.83s-.62,0-.62,0h-.61s-.6,0-.6,0h-.6s-.6,0-.6,0h-.6s-.6,0-.6,0h-.59s-.58,0-.58,0h-.57s-.57,0-.57,0h-1.13s-.55-.01-.55-.01h-.54s-.54-.03-.54-.03l-.53-.02-.53-.03-.54-.03-.54-.04-.53-.04-.53-.04-.54-.04-.54-.05-.55-.05-.54-.04-.53-.04-.53-.04-.53-.03-.52-.03-.52-.02h-.5s-.49-.02-.49-.02h-.5s-.49.01-.49.01h-.49s-.49.03-.49.03l-.48.03-.47.03-.47.04-.47.04-.48.04-.48.04-.48.05-.46.05-.46.05-.46.05-.47.05-.47.05-.46.05-.46.05-.46.05-.46.05-.46.05-.46.05-.45.05-.44.06-.44.05-.43.05-.43.06-.43.05-.42.06-.41.05-.4.05-.4.05-.38.06-.38.05-.36.05-.34.05-.33.05-.31.05-.31.05-.29.05-.28.05-.26.05-.25.05-.24.05-.24.05-.24.05-.23.05-.22.04-.21.05-.21.04-.21.04-.2.04-.2.04-.2.04-.19.04-.19.04-.19.03-.19.03-.19.03-.19.03-.18.03-.19.02-.19.02-.18.02h-.18s-.18.03-.18.03h-.18s-.19.02-.19.02h-.19s-.19,0-.19,0h-.19s-.19,0-.19,0h-.2s-.2-.03-.2-.03l-.2-.02-.2-.03-.2-.03-.2-.04-.19-.05-.19-.06-.18-.06-.18-.08-.17-.08-.16-.09-.16-.1-.15-.11-.15-.13-.15-.14-.13-.15-.13-.16-.12-.17-.12-.19-.12-.2-.11-.22-.11-.23-.1-.25-.1-.26-.1-.29-.1-.31-.1-.34-.09-.36-.09-.38-.09-.41-.08-.45-.08-.48-.08-.51-.07-.53h0c.32-.94.65-1.88.98-2.81l6.44.42.35-.02.35-.02.36-.03.36-.03.37-.03.37-.03.37-.04.36-.04.36-.04.36-.04.37-.05.39-.06.39-.06.39-.06.4-.07.41-.08.43-.08.44-.08.45-.09.46-.09.46-.09.48-.1.49-.1.5-.1.49-.1.49-.09.48-.09.49-.09.48-.08.48-.08.48-.07.17-.03c6.82-.09,13.65.07,20.36-.08,4.76-.13,9.53-.27,14.3-.46h0c.4-.01.8-.03,1.2-.05.16,0,.31-.01.46-.02.78-.03,1.56-.06,2.34-.1.92-.04,1.83-.08,2.75-.13.31-.02.63-.03.94-.05,11.23-.55,22.46-1.35,33.62-2.6h0c.26-.03.52-.06.78-.09,1.07-.12,2.14-.25,3.21-.38,6.99-.85,13.95-1.88,20.88-3.13,3.97-.72,7.93-1.51,11.87-2.39,2.34-.4,4.53-.98,6.58-1.73.04-.01.08-.03.11-.04.77-.28,1.52-.59,2.25-.92.32-.14.63-.29.94-.44,1.6-.78,3.11-1.67,4.54-2.66,0,0,0,0,.01,0,.27-.19.54-.38.8-.57.25-.18.5-.37.75-.56.32-.25.63-.49.94-.75.22-.18.44-.36.65-.55,2.44-2.09,4.63-4.47,6.63-7.07,1.07-1.38,2.08-2.81,3.05-4.29,1.67-2.55,3.21-5.23,4.67-7.99l.04-.07.13-.22.13-.22.13-.22.13-.22.13-.22.14-.23.14-.23.14-.23.13-.22.13-.22.13-.21.13-.21.12-.21.11-.2.11-.19.1-.18.1-.18.09-.18.09-.18.08-.17.08-.17.08-.16.07-.16.06-.16.06-.17.06-.17.05-.17.05-.17.04-.17.04-.18.04-.18.02-.07c.09-.18.17-.36.26-.54.18-.37.35-.74.53-1.11,0,0,0,0,0,0,1.61-3.39,3.17-6.79,4.76-10.11.29-.6.57-1.2.86-1.79.16-.33.32-.66.48-.98.23-.47.47-.94.7-1.41,1.23-2.43,2.49-4.79,3.82-7.03,1.31-2.07,2.63-4.14,3.93-6.22.84-1.34,1.66-2.68,2.49-4.01,2.71-4.4,5.37-8.83,7.93-13.32h0c.35-.61.69-1.21,1.03-1.82.21-.36.41-.72.61-1.08.05-.08.09-.16.14-.25.11-.2.22-.4.33-.59.08-.15.16-.29.25-.44h0c.65-1.17,1.29-2.34,1.92-3.52.14-.26.28-.52.42-.79.55-1.02,1.09-2.05,1.62-3.09.13-.25.26-.5.38-.75,2.7-5.25,5.23-10.6,7.53-16.06.27-.61.53-1.22.8-1.83v-.03c.27-.6.53-1.2.79-1.81.41-.95.81-1.91,1.21-2.87.17-.4.33-.8.5-1.2h0c.38-.91.75-1.82,1.12-2.73,0,0,0,0,0,0,.73-1.78,1.45-3.57,2.18-5.35h0c1.99-4.9,3.98-9.79,6.1-14.63.37-.85.74-1.7,1.12-2.55h0c.16-.35.31-.7.47-1.05.16-.35.32-.7.48-1.05.19-.43.4-.86.6-1.29l.38-.79h0c.32-.68.65-1.37.98-2.05h0c.03-.06.06-.12.09-.18l.11-.23c.23-.48.47-.96.71-1.43.03-.05.05-.11.08-.16.05-.09.1-.19.15-.29.26-.51.53-1.02.79-1.54l.04.02.1.06.09.07.08.07.08.07.07.07.06.07.06.07.06.08.06.08.06.08.06.08.06.09.06.09.06.09.06.09.06.09.06.09.06.1.06.1.06.1.06.1.06.11.07.11.07.11.07.11.07.11.07.11.07.12.07.12.07.12.07.12.08.13.08.13.08.13.08.13.08.13.08.14.08.14.08.14.08.14.09.15.08.14.08.15.08.15.08.15.08.14.08.14.08.14.07.14.07.14.07.14.07.14.06.13.06.13.06.13.05.13.05.12.05.13.05.12.04.12.04.12.04.12.04.12.04.12.04.13.04.13.04.13.03.13.04.14.03.14.03.14.03.14.03.14.03.14.02.14.03.14.02.14.02.13v.13s.03.13.03.13v.13s.02.12.02.12v.12s.01.12.01.12v.12s0,.12,0,.12v.12s0,.12,0,.12Z" fill="#8c9fa3"/><path d="M166.6,256.48c-1.04-.38-1.75-1.68-1.28-2.75,2.19-4.83,4.34-9.32,6.37-14.06.68-1.45,2.9-1.57,3.72-.16.96,1.8-.84,3.6-1.31,5.32-1.42,3.21-2.94,6.38-4.4,9.58-.41,1.36-1.57,2.65-3.1,2.07ZM171.47,240.45s0,.06.01.08c0-.16.03-.33.08-.49-.06.13-.07.27-.09.41Z"/><path d="M172.83,248.55c-1.51-1-.94-3.63.89-3.84,3.54-.52,6.75-.82,9.86-2.26-1.4-3.03-8.46.52-10.45-1.36-.78-.79-.85-1.91-.27-2.82.44-.69,1.28-.97,2.05-.86,1.12-.1,2.23-.31,3.35-.38,2.6-.19,5.44-.26,7.59,1.46,2.37,1.64,2.8,5.5.4,7.3-1.52,1.44-11.77,3.93-13.41,2.76Z"/><path d="M177.83,257.99c-2.28-3.19-5.03-6.15-6.57-9.79-1.02-2.19,1.51-4.55,3.45-2.84.43.41.67,1.01.67,1.61,1.56,3.17,3.76,5.53,5.77,8.32,1.73,2.19-1.54,4.86-3.31,2.71Z"/><path d="M204.3,252.73c-1.04-.38-1.75-1.68-1.27-2.74,2.17-4.78,3.91-9.74,5.83-14.61.55-1.03,1.86-1.43,2.89-.89,2.42,1.44.13,4.19-.32,6.14-1.13,2.97-2.32,5.92-3.54,8.85-.62,1.57-1.43,4.03-3.59,3.25Z"/><path d="M211.05,238.03c-1.74-.14-2.61-2.35-1.39-3.6.77-.9,2-.58,3.03-.75-.11.01-.18.02-.27.03,2.02-.22,4.04-.45,6.06-.68.58-.07,1.13.03,1.61.37,1.52,1,.94,3.63-.88,3.84-2.92.27-5.43.77-8.16.8Z"/><path d="M207.43,244.93c-.65-1.01-.24-2.53.85-3.02,2.36-.57,4.87-.85,7.29-1.28,2.76-.43,3.47,3.72.73,4.22-2.33,0-7.49,2.34-8.86.09Z"/><path d="M204.49,252.77c-1.43-1.26-.35-3.87,1.53-3.7,3.15-.33,6.31-.48,9.48-.64,2.79-.09,2.97,4.12.18,4.27-3.04.16-6.09.28-9.12.6-.73.15-1.53,0-2.07-.53Z"/><path d="M155.57,284.55c-3.13-1.48.04-5.3.62-7.54,1.12-2.68,2.26-5.35,3.4-8.03.51-1.61,1.63-3.31,3.54-2.38,1.16.53,1.42,2.23.77,3.17-1.15,2.6-2.24,5.24-3.34,7.86-.72,1.71-1.44,3.42-2.08,5.17-.28,1.32-1.62,2.25-2.92,1.76Z"/><path d="M160.96,277.85c-2.78-.29-2.44-4.41.37-4.26,2.86,0,6.07-.48,8.13-2.64-2.33-.79-4.92-.5-7.34-.72-2.98-.91-1.68-4.84,1.31-4.21,2.71.14,5.63-.03,8.12,1.19,3.27,1.42,2.81,5.83.06,7.56-2.91,2.46-6.94,3.15-10.65,3.07Z"/><path d="M200.25,283.09c-2.03-.07-4.03-.79-5.43-2.31-1.33-1.45-2-3.35-2-5.31-.02-4.17,2.64-8.1,6.15-10.21.76-.46,1.57-.82,2.41-1.11.12-.05.24-.09.37-.12.34-.11.7-.2,1.04-.24.05,0,.1,0,.16-.01.39-.07.79-.12,1.2-.14,2.07-.08,4.1.6,5.63,2,1.46,1.35,2.18,3.28,2.3,5.23.11,1.82-.4,3.64-1.19,5.26-.19.39-.41.77-.65,1.14-1.05,1.62-2.4,2.99-4.02,4.03-1.66,1.07-3.68,1.8-5.67,1.8-.09,0-.19,0-.28,0ZM200.88,278.8c.24-.03.47-.07.7-.11.28-.07.56-.15.83-.24.28-.11.56-.23.82-.36.31-.17.62-.35.91-.55.33-.24.65-.49.96-.76.27-.25.53-.52.78-.8.25-.3.48-.61.7-.94.19-.31.37-.63.54-.96.14-.32.27-.64.38-.97.08-.28.15-.56.21-.85.04-.26.06-.52.08-.79,0-.2,0-.4-.02-.6-.02-.18-.05-.35-.08-.52-.04-.16-.09-.31-.14-.47-.05-.13-.11-.26-.17-.38-.05-.1-.11-.19-.17-.28-.07-.1-.15-.19-.23-.29-.09-.09-.18-.19-.28-.27-.09-.07-.19-.14-.28-.21-.11-.07-.23-.13-.35-.19-.14-.06-.27-.11-.41-.16-.16-.04-.32-.08-.48-.11-.18-.02-.35-.04-.53-.05-.22,0-.43,0-.64.02-.12.01-.23.03-.35.05-.07.02-.14.03-.22.04-.04,0-.08.01-.12.02-.17.04-.33.09-.51.14-.1.03-.2.06-.3.1-.31.12-.61.25-.91.39-.33.18-.66.37-.97.59-.28.2-.55.42-.81.65-.29.26-.56.54-.82.83-.26.31-.51.64-.73.98-.2.32-.38.65-.55,1-.14.3-.26.61-.36.93-.08.27-.15.55-.2.82-.04.25-.07.5-.08.75,0,.22,0,.45.02.67.02.18.05.35.08.53.04.15.08.29.13.43.05.12.1.24.16.36.07.12.14.24.21.35.07.09.14.19.22.28.08.08.16.16.24.23.11.09.22.17.33.25.11.07.22.13.34.19.14.06.28.11.42.16.16.04.31.08.47.11.18.03.35.04.53.05.22,0,.43,0,.64-.02Z"/><path d="M140.36,314.94c-1.06-.41-1.67-1.7-1.21-2.77,2.35-5.23,4.91-10.42,7.85-15.35.7-.93,2.06-1.13,2.99-.43.95.71,1.12,2.09.41,3.03-1.29,2.16-2.41,4.44-3.59,6.66-.87,1.69-1.71,3.4-2.53,5.12-.82,1.62-1.49,4.64-3.93,3.75Z"/><path d="M152.39,314.29c-1.59-2.35-6.89-7.13-6.37-9.8.46-2.16,2.89-1.85,4.58-1.94,2.39-.32,5.17-.51,7.07-2.11-.03-.13-.07-.27-.12-.39-1.95-1.29-4.39-1.02-6.57-.53-.89.25-1.86.54-2.66-.13-1.22-.85-1.1-2.84.2-3.56.97-.51,2.17-.57,3.24-.8,2.81-.52,5.86-.09,8.26,1.53,1.24.85,1.98,2.49,1.94,3.98-.39,4.79-6.41,5.63-10.21,6.2,1.32,1.67,2.67,3.31,4.03,4.94,1.69,2.21-1.63,4.8-3.38,2.62Z"/><path d="M129.97,349.85c-1.11-.43-1.61-1.68-1.21-2.77.84-2.3,1.62-4.62,2.45-6.93,1.18-3.11,2.17-6.29,3.3-9.41.39-1.57,2.16-2.64,3.58-1.58.95.72,1.09,2.01.51,2.89-1.12,2.85-1.94,5.81-3.04,8.66-.89,2.46-1.72,4.94-2.61,7.39-.26,1.34-1.66,2.28-2.97,1.75Z"/><path d="M163.53,346.39c-1.09-.43-1.63-1.69-1.21-2.77.84-2.14,1.7-4.27,2.56-6.4,1.53-3.51,2.64-7.3,4.72-10.53,0,0,0,0,0,0-.04.04-.07.08-.12.14,1.68-2.23,5.1.27,3.44,2.54-1.64,3.06-2.78,6.37-4.12,9.57-.84,2.07-1.68,4.15-2.49,6.23-.42,1.09-1.71,1.64-2.77,1.21Z"/><path d="M175.02,344.87c-1.49-1.23-1.56-3.31-2.12-5.03-.94-3.94-2.61-7.66-3.66-11.55-.52-2.06,2.09-3.61,3.6-2.09,1.68,3.95,2.87,8.18,4.13,12.33,1.72-4.07,3.25-8.21,4.81-12.34.38-1.56,1.42-3.43,3.32-2.7,1.11.44,1.6,1.68,1.21,2.77-1.42,3.94-2.94,7.85-4.49,11.75-1.31,2.64-2.73,9.17-6.8,6.86ZM173.22,328.71c.19-.3.26-.65.25-1,0,.34-.09.69-.25,1Z"/><path d="M117.61,383.69c-15.08-1.42-8.75-15.79,1.5-19.44,4.23-1.91,10.66-.82,11.8,4.3.41,2.11-2.51,3.4-3.8,1.66-.84-2.91-3.85-2.99-6.29-2.04-4.28,1.18-12.81,9.72-4.29,11.06,3.27.61,7.18.38,9.33-2.51-1.41-.66-2.98-.87-4.51-1.01-2.77-.34-2.29-4.53.49-4.25,2.99.34,6.97.81,8.37,3.89.54,1.42-.09,2.83-.94,3.97-2.65,3.62-7.36,4.89-11.66,4.37Z"/><path d="M148.61,379.53c-1.82-.8-1.51-2.6-.68-3.94,2.93-5.53,4.98-11.68,8.58-16.78,1.61-1.37,4.16.47,3.34,2.44-.9,1.46-1.77,2.96-2.48,4.53-1.76,3.78-3.65,7.56-5.43,11.31-.5,1.43-1.56,3.15-3.33,2.44Z"/><path d="M158.63,378.69c-2.95-1.58,1.35-6.53,2.13-8.74,2.23-4.04,4.24-8.24,6.77-12.09-.07.09-.15.17-.21.27,1.5-2.19,4.93-.11,3.64,2.24-1.89,3.05-3.5,6.27-5.25,9.4-1.21,2.23-2.39,4.48-3.52,6.75-.54,1.55-1.77,3.11-3.56,2.17Z"/><path d="M147.83,365.88c-.66-3.54,4.07-2.8,6.28-3.27,5.3-.61,10.63-1.02,15.96-1.39,1.16-.09,2.16.98,2.18,2.09.02,1.21-.94,2.1-2.1,2.18-2.67.2-5.35.38-7.82.59-3.28.29-6.56.63-9.83,1.02-1.65.17-4.03.95-4.67-1.22Z"/><path d="M145.18,374.31c-.93-.65-1.21-2.08-.48-2.99.38-.59,1.05-.88,1.72-.88,1.68-.14,3.37-.18,5.06-.24,5.38-.22,10.78-.21,16.16-.49,1.16-.06,2.16.96,2.18,2.1.03,1.19-.93,2.12-2.09,2.18-3.21.18-6.42.23-9.63.3-3.63.11-7.66.15-11.19.39-.61.05-1.19.02-1.73-.36Z"/><path d="M198.62,290.71c2.78-.03,2.85,4.18.06,4.28-1.85.12-3.69.3-5.53.48-.06.18-.15.38-.26.57-.4.85-.67,1.78-1,2.66-1.22,3.32-2.51,6.63-3.64,9.99-.94,2.05-.82,5.59-3.76,5.1-1.26-.31-2.02-1.79-1.43-2.99,1.6-5.04,3.47-9.99,5.32-14.94-1.66.11-3.32.16-5,.11h.13c-2.95-.16-2.45-4.72.47-4.23-.04,0-.07-.02-.11-.02,5.02.05,9.82-.71,14.75-1.02Z" fill="#fff6de"/><path d="M258.34,136.22c2.41-1.04.88-4.66-1.52-3.7-3.76,1.65-7.52,3.36-11.32,4.91-8.96,3.85-18.35,6.46-27.72,9.07-3.74,1.11-7.53,2.08-11.2,3.42-1.72-.02-2.87,2.16-1.56,3.44.77.78,1.94.71,2.88.31,1.95-.72,3.95-1.31,5.95-1.89,7.56-2.23,15.21-4.14,22.67-6.69,1.29-.44,2.57-.89,3.84-1.36,6.09-2.26,12.04-4.88,17.98-7.52ZM259.59,169.84c.94-.35,1.49-1.41,1.23-2.39-.28-1.06-1.39-1.69-2.44-1.42-3.23.84-6.49,1.58-9.72,2.41-16.57,4.19-32.67,9.81-48.92,15.09-2.37-.42-3.44,2.85-1.23,3.84,1.6.56,3.28-.31,4.81-.76,3.09-1.07,6.7-2.42,9.99-3.4,15.26-4.85,30.48-9.79,46.11-13.32.06-.01.13-.03.19-.06ZM262.98,186.83c2.43-.98.89-4.68-1.52-3.69-2.26.68-4.48,1.55-6.69,2.41-3.97,1.55-7.93,3.09-12.18,3.61-5.53,1.66-12.59-1.56-17.3,2.28-1.22,1.55-2.29,3.26-3.95,4.41-.82.46-2.22.48-3.64.51-1.99.04-4,.09-4.5,1.38-1.1,4.52,5.64,2.29,8.07,2.31,3.24-.55,5.16-3.62,7.07-5.99,3.84-1.28,8.19.12,12.19-.54,5.62-.43,10.83-2.39,16.04-4.36,2.13-.8,4.26-1.61,6.42-2.31ZM265.89,151.15c.59-1.9-1.95-3.4-3.31-2-3.01,1.52-5.8,3.51-8.96,4.72-5.89,1.16-12.02-.51-17.76-1.69-3.74.48-6.08,4.03-9.12,5.95-3.56,1.95-7.57,3.3-11.62,3.69-5.07.06-10.16.12-15.17,1.06-2.59.39-2.04,4.29.52,3.96,4.34-.8,8.6-.99,13.05-.98,5.1.04,10.07-1.67,14.61-3.9,2.91-1.5,4.96-4.58,7.96-5.76,5.21,1.63,10.9,2.14,16.35,1.98,1.05-.11,2.05-.37,3.01-.73,2.79-1.04,5.31-2.87,7.95-4.2.94-.5,2.19-.97,2.5-2.1ZM285.12,196.26s-.03,0-.05,0c-28.24,3.66-56.4,8.41-84.03,15.34,0,0,0,0-.01,0-11.72-14.1-14.47-38.22-11.3-54.62.69-2.63,1.38-5.28,2.32-7.84.08-.04.16-.08.25-.12,12.68-5.85,25.36-11.75,38.07-17.54,19.84-7.93,39.8-15.9,60.32-21.9-7.7,8.27-11.76,19.37-15.17,29.98-.09.43-.2.9-.33,1.4-.21.67-.41,1.34-.6,2.02-.22.78-.41,1.57-.59,2.36-.71,2.67-1.34,5.53-1.22,7.82-.25,2.83-.3,5.67-.16,8.51.19,4.17.79,8.35,1.81,12.4,2.04,8.04,5.52,15.69,10.7,22.2Z" fill="#fff6de"/><path d="M364.89,47.26c2.01-.74,1.44-4.12-.97-3.85-6.16.92-12.3,2-18.44,3.1-1.85.31-3.71.68-5.58.86-2.25.18-2.3,3.71-.06,3.96,8.22-.87,16.34-2.89,24.56-3.96.18-.02.34-.06.49-.12ZM365.03,84.43c2.42-.97.95-4.62-1.48-3.71-6.54,2.18-13.06,4.35-19.66,6.35-2.39.74-4.79,1.42-7.15,2.21-2.42.91-.91,4.7,1.48,3.71,8.97-2.77,17.92-5.53,26.81-8.56ZM365.36,57.48c2.25-.83,1.26-4.41-1.2-3.8-9.48,2.63-18.92,5.47-28.54,7.53-2.48.36-1.91,4.32.58,3.95,9.76-2.04,19.34-4.94,28.95-7.61.07-.02.14-.04.21-.07ZM365.61,73.54c1.02-.38,1.51-1.61,1.11-2.59-.41-1.03-1.57-1.49-2.59-1.12-2.33.85-4.67,1.68-7.03,2.46-6.73,2.17-13.56,3.98-20.37,5.91-.79.26-1.65.36-2.41.72-1.87,1.01-.9,4.02,1.21,3.73,10.1-2.77,20.24-5.47,30.07-9.1h0ZM374.41,93.02c1.02-.38,1.55-1.6,1.14-2.61-.41-1.03-1.57-1.5-2.59-1.12-4.15,1.54-8.34,2.99-12.55,4.37-4.36,1.43-8.76,2.82-13.22,3.95-1.4.35-2.79.75-4.18,1.1-.67,0-1.34.33-1.71.95-.57.92-.27,2.18.66,2.75,1.66.82,3.48-.38,5.16-.65,5.66-1.42,11.23-3.18,16.75-5.05,3.48-1.18,6.96-2.37,10.4-3.65.05-.01.09-.03.13-.04ZM381.62,105.49c2.42-.99.94-4.64-1.48-3.71-7.61,2.94-15.16,6.06-22.75,9.07-.49.26-1.34.57-2.34.93-3.71,1.35-9.42,3.44-5.65,6.3.53.24,1.01.19,1.47.03.74-.27,1.41-.87,2.15-1.14,9.48-3.94,19.05-7.68,28.59-11.46ZM380.64,112.52c1.43-.53,2.71-1.29,2.13-3.02-.4-1.02-1.58-1.51-2.59-1.12-.65.38-1.56.64-2.5.92-1.68.49-3.44,1.01-3.95,2.29-.4,1.19.62,2.61,1.89,2.56.7-.07,1.36-.32,2.02-.57.29-.11.58-.22.87-.31.36-.16.79-.3,1.24-.45.29-.1.59-.2.88-.3ZM383.61,133.16c1.75-.65,1.57-3.56-.47-3.84-3.58.58-7.07,2.13-10.67,2.85-2.52.68-1.54,4.49.99,3.87,3.27-.83,6.51-1.73,9.72-2.77.16-.02.3-.06.44-.11ZM382.92,177.68c1.26-.46,2.25-1.83,1.5-3.14-.52-.94-1.77-1.31-2.71-.77-2.16.71-1.97,4.01.42,4.07.27-.01.54-.07.79-.16ZM390.44,117.06c1.01-.4,1.52-1.59,1.12-2.59-1.06-2.03-3.15-1.08-5.08-.19-.82.38-1.61.75-2.27.87-2.98,1.07-5.94,2.19-8.9,3.32-5.89,2.25-11.77,4.5-17.82,6.23-1.47.21-2.24,2.26-1.09,3.34,1.21,1.31,5.37-.28,8.58-1.52,1.3-.5,2.45-.95,3.17-1.11.25-.09.51-.19.77-.29,2.21-.82,4.41-1.64,6.61-2.47,2.46-.92,4.92-1.85,7.39-2.76,2.52-.93,5.04-1.86,7.54-2.83ZM393.99,129.84c1.01-.4,1.52-1.58,1.11-2.59-.92-2.16-3.27-.89-4.79-.22-1.94.64-1.72,3.61.33,3.89.44.05.85-.04,1.25-.19.29-.11.58-.25.87-.38.4-.19.81-.39,1.23-.5ZM401.35,137.42c1.01-.39,1.52-1.59,1.12-2.59-.41-1.02-1.58-1.51-2.59-1.12-3.88,1.5-7.79,2.98-11.74,4.28-5.03,1.61-10.06,3.27-15.14,4.71-.53.22-1.28.39-2.07.57-2.35.54-5.08,1.22-3.68,3.86,1.49,1.81,3.95-.02,5.79-.29,5.74-1.61,11.4-3.47,17.08-5.3,1.99-.67,3.98-1.38,5.95-2.11,1.78-.66,3.54-1.33,5.31-2.01ZM408.86,167.59c1.01-.37,1.47-1.62,1.09-2.58-.42-1.05-1.57-1.47-2.6-1.12-1.07.4-2.16.76-3.25,1.12-1.84.61-3.69,1.22-5.44,2.03-1.43.96-.83,3.38.88,3.59,1.89-.33,3.74-1.04,5.58-1.74,1.23-.47,2.46-.93,3.7-1.29.01,0,.02-.01.03-.01ZM410.64,147.65c1.01-.37,1.48-1.61,1.09-2.59-.41-1.04-1.57-1.48-2.6-1.12-3.9,1.38-7.79,2.77-11.69,4.14-5.79,2.04-11.57,4.09-17.3,6.29-1.84.7-3.68,1.43-5.54,2.05-1.28.16-2.09,1.55-1.61,2.74.99,2.13,3.63.97,5.89-.04.92-.41,1.78-.8,2.43-.92,9.7-3.71,19.53-7.07,29.31-10.55h.03ZM417.24,173.82c1.02-.37,1.51-1.61,1.12-2.59-.41-1.04-1.57-1.48-2.59-1.12-10.27,3.33-20.18,7.56-30.17,11.6-.75.31-1.56.52-2.37.73-1.21.31-2.42.63-3.46,1.28-1.64,1.45.27,4.24,2.22,3.26,2.04-.54,4.03-1.19,6-1.92,2.72-1.01,5.4-2.15,8.07-3.3,3.32-1.42,6.64-2.84,10.06-4,3.69-1.36,7.41-2.61,11.11-3.93ZM399.75,111.8c21.87,24.51,45.95,55.96,22.26,87.84-9.25,11.97-24.6,11.77-36.51,3.94-5.34-3.58-10-7.86-14.25-12.55,4.26-31.95-28.9-72.77-42.29-100.47-5.97-11.8-7.04-25.91-.94-37.94,1.5-2.78,3.15-5.52,5.2-7.94.3-.1.57-.28.83-.49l.27-.17c1.26-.74,2.59-1.33,3.91-1.95,1.28-.6,2.55-1.21,3.84-1.8,2.85-1.27,5.73-2.42,8.71-3.32.16-.05.32-.1.49-.15,2.68-.79,5.67-1.52,8.68-2.02,3.4-.51,6.85-.84,10.29-.97,2.61-.08,5.48.07,8.36.25,1.99.13,3.98.27,5.97.45-8.19,5.09-11.43,17.31-10.58,26.61,2,19.36,13.41,36.2,25.75,50.65Z" fill="#fff6de"/></svg>