<?xml version="1.0" encoding="UTF-8"?><svg id="a" xmlns="http://www.w3.org/2000/svg" viewBox="0 0 500 500"><path d="M127.34,148.71s0,.04-.02.07c0-.02.01-.05.02-.07ZM191.3,200.99s0,0,0,0c-.07-.05-.14-.09-.21-.14,0,0,0,0,0,0-.06-.06-.13-.11-.19-.17-.01-.02-.03-.03-.04-.05.15.16.34.3.54.4-.04-.02-.07-.04-.11-.05ZM191.52,201.1h0s-.04-.02-.06-.03c.03.02.06.03.1.04-.01,0-.02,0-.04-.01ZM202.75,310.69s0,.02,0,.02c0,.02,0,.04,0,.07,0-.03,0-.06,0-.09ZM324.85,116.25c.07-.1.13-.2.18-.3l-.06.12c-.04.06-.08.12-.12.18h0ZM325.6,116.78l.05.07s-.02.02-.02.03c0-.03-.02-.06-.03-.1ZM223.12,37.61h.08s.01,0,.02,0c-.03,0-.06,0-.1,0ZM227.92,464.58s.04.05.06.07c.01.02.03.04.04.06-.03-.04-.06-.09-.1-.13ZM228.06,464.77s.04.06.06.09h0s.02.05.03.07c-.03-.05-.06-.11-.09-.16ZM228.2,465.02s.02.04.03.05c0,.01,0,.02,0,.03-.01-.03-.02-.06-.04-.09ZM238.05,452.46s0,.05,0,.07c0-.02,0-.05,0-.07ZM238.07,452.2s0,.05,0,.07c0-.02,0-.05,0-.07ZM224.62,472.86c-3.93-1.7-4.54-6.51-4.97-10.27.33-11.23-12.78-4.4-19.46-24.12-3.15-13.11.49-27.93,8.14-38.89,1.9-2.59,7.6-9.34,10.56-5.27,5.4,1.36,8.83-.08,12.25-1.52,4.41-1.85,8.8-3.71,17.38.44,11.86,5.89,17.53,29.47,16.15,41.79-1.09,9.96-10.09,19.58-20.23,13.41-2.11,3.24-.66,7.96-3.39,11.09-2.47,3.71-7.36,1.2-8.79-2.14-2.17,4.51.43,15.59-6.35,15.59-.39,0-.82-.04-1.28-.12ZM224.28,462.78c.03.93.04,1.86.09,2.79.04.62.19,1.17.61,1.65.35.4.88.6,1.41.6.35,0,.7-.09.99-.26.6-.34,1.01-1,1.01-1.69,0-.17-.02-.34-.06-.5,0-.05,0-.09-.01-.14-.04-.79-.05-1.59-.07-2.38-.03-1.08-.82-2-1.94-2.02h-.04c-1.03,0-2.01.87-1.99,1.94ZM234.35,449.44c-.06.69-.13,1.39-.19,2.09l-.03.33c-.06.36-.06.74-.09,1.09-.04.48-.07.96-.1,1.44-.07.3-.07.61.01.91.23.89,1.06,1.48,1.94,1.48.16,0,.32-.02.48-.06.68-.17,1.23-.71,1.42-1.39.11-.37.1-.77.13-1.15.04-.6.09-1.2.14-1.8h0s0-.03,0-.04c0-.02,0-.03,0-.05h0v-.02h0s0-.08,0-.11c0,0,0,0,0,.01.06-.72.13-1.44.2-2.16.05-.54-.04-1.05-.37-1.49-.31-.41-.77-.69-1.28-.77-.09-.01-.18-.02-.27-.02-.94,0-1.9.7-1.99,1.68ZM246.48,445.75c-.02,1.06.86,2.02,1.94,2.02s2-.85,2.02-1.94c.02-1.06-.86-2.02-1.94-2.02s-2,.85-2.02,1.94ZM218,411.99c-2.38,5.71-4.19,12.15-2.36,18.25,3.55-6.1,9.21-10.74,12.3-17.05,1.24-3.84-.24-5.26-2.46-5.27-2.51,0-5.96,1.83-7.48,4.07ZM265.1,302.59c-2.87-9.05-6.37-17.97-9-27.07-.12-2.58,3.77-2.85,3.95-.26.39,1.61,1.04,3.15,1.58,4.72,2.47,7.08,4.78,14.21,7.21,21.3.54,1.51-.75,2.6-1.98,2.6-.73,0-1.45-.38-1.76-1.29ZM263.51,286.27c-.5-.98-.09-2.15.87-2.67,3.04-1.56,5.51-4.32,6.45-7.64,1.04-5-10.08.22-12.21.8-1.63.34-3.02-1.53-2.11-2.96.45-.8,1.32-.91,2.07-1.21,1.97-.78,3.95-1.56,6.01-2.09,6.93-2.08,13.07,1.42,9.13,8.97-.79,2.03-5.43,7.79-8.46,7.79-.69,0-1.29-.3-1.75-1ZM284.15,297.38c-3.83-1.53-7.58-3.24-11.34-4.77-2.85-1.49-9.85-2.92-11.38-5.36-.37-1.01.22-2.17,1.22-2.52,1.53-.45,2.83.98,4.26,1.34,6.13,2.3,12.09,4.85,18.11,7.4.61.22,1.22.51,1.51,1.13.72,1.28-.41,2.9-1.76,2.9-.21,0-.42-.04-.63-.12ZM290.9,289.79c-3.14-7.71-7.35-14.9-10.97-22.37-1.56-2.38.13-5.69,2.83-3.59,1.03,2.4,2,4.86,3.38,7.15,2.6,4.65,4.93,9.44,7.09,14.31.45,1.37,1.67,2.72,1.31,4.22-.25.87-1.09,1.33-1.92,1.33-.71,0-1.41-.34-1.73-1.06ZM282.7,266.56s.06-.06.09-.09c.05-.07.1-.13.14-.19h0c.04-.07.08-.14.12-.22,0-.03.02-.05.02-.07-.09.21-.22.4-.38.58ZM279.76,265.66c-.78-1.86,1.16-2.89,2.71-3.16,3.22-1.01,6.35-2.3,9.43-3.7,2.38-1,3.94,2.57,1.57,3.64-3.59,1.66-7.28,3.05-11.05,4.23-.26.12-.54.17-.82.17-.77,0-1.52-.43-1.84-1.19ZM285.13,272.71c.79-1.53,2.81-1.68,4.2-2.47,2.15-.52,5.46-3.61,7.05-.82.97,2.77-2.82,3.12-4.55,4.07-1.75.54-3.35,1.85-5.19,1.91-1.21-.18-1.98-1.56-1.51-2.69ZM310.83,284.11c-3.85-9.03-7.02-18.35-11-27.32-.09-.34-.1-.65-.04-.94,1-.46,1.98-.94,2.98-1.39.33.19.61.5.81.94.22.9.64,1.72,1.03,2.56,3.68,8.05,6.29,16.52,9.87,24.6.64,1.54-.64,2.74-1.91,2.74-.69,0-1.37-.35-1.74-1.19ZM334.46,266.55c-5.21-7.81-9.13-16.67-14.26-24.63-.71-.89-.81-2.24.1-3.04,2.22-1.5,5.04.61,7.33,1.15,7.07,2.49,14.03,5.4,20.33,9.52,2.17,1.39.11,4.7-2.1,3.36-1.82-1.12-3.64-2.23-5.52-3.25-4.8-2.53-9.67-4.29-14.53-6.09,3.28,5.46,6.23,11.11,9.39,16.64.65,1.59,2.49,3.37,2.26,5.09-.24.95-1.08,1.53-1.96,1.53-.35,0-.7-.09-1.03-.29ZM328.65,253.59c-2.31-1.66.29-3.84,1.51-5.25,1.36-1.31,2.82-4.54,5.06-2.89,2,1.85-.75,3.78-1.86,5.24-1.09,1.01-2.13,3.19-3.69,3.19-.32,0-.66-.09-1.02-.3ZM348.13,245.76c-6.42-4.15-13-8.03-19.48-12.08-1.69-.84-1.75-3.47.24-3.93.75-.18,1.43.11,1.92.61,2.83,1.89,5.84,3.49,8.71,5.32,2.93,1.81,5.85,3.63,8.76,5.48,1.4.86,3.76,1.98,2.58,3.97-.37.59-1.03.92-1.7.92-.36,0-.72-.1-1.03-.3ZM355.34,237.32c-4.96-.32-9.84-1.31-14.73-2.11-3.91-.87-8.19-.71-11.91-2.05-1.45-1.12-.48-3.59,1.33-3.5,1.71.19,3.42.49,5.13.72,6.13.79,12.18,2.12,18.32,2.81-4.83-4.35-10.32-7.89-15.75-11.44-.91-.58-1.2-1.81-.63-2.73.57-.91,1.82-1.21,2.73-.63,3.72,2.39,7.39,4.86,10.95,7.48,2.71,2.42,8.58,5.52,8.16,9.61-.41,1.32-1.72,1.87-3.01,1.87-.2,0-.39-.01-.58-.04ZM358.92,227.3c-1.68-1.08-.56-2.66-.1-4.06.45-3.76.31-8.06-1.78-11.24h0c-5.87,3.92-10.8,15-14.16,1.76-.65-2.32-1.1-4.68-1.79-6.99-.81-1.57-.2-3.93,1.91-3.64,1.27.17,1.64,1.4,1.86,2.46,1.01,3.27,1.49,6.68,2.73,9.88,3.09-2.71,7.76-10.32,12.28-6.25,2.99,2.14,5.23,18.26.06,18.26-.31,0-.65-.06-1.02-.18ZM365.14,206.42c-5.77-1.4-11.48-3.07-17.23-4.58-1.33-.5-3.32-.59-3.82-2.17-.4-1.31.74-2.71,2.1-2.53.74.14,1.8.68,2.39.78,4.5,1.25,9.02,2.41,13.53,3.65-2.04-2.23-4.45-4.07-6.88-5.83-2.86-4.4,3.62-4.15,7.81-3.89,1.11.07,2.06.13,2.62.12-4.72-2.29-9.32-4.22-14.2-6.03-1.53-.46-3.82-1.17-3.09-3.23.38-1.03,1.53-1.52,2.55-1.17,3.42,1.2,6.77,2.53,10.1,3.97,2.83,1.39,17.56,6.55,10.79,10.5-1.97.21-4.08.07-6.13-.07-1.35-.09-2.68-.18-3.93-.17,2.32,2.34,6.37,5.19,6.59,8.68-.11,1.28-1.31,2.07-2.51,2.07-.23,0-.47-.03-.69-.09ZM371.94,185.81c-6.53-2.52-13.05-5.09-19.61-7.54-1.59-.91-4.58-.91-4.75-3.17,0-1.08.83-2.01,1.93-2.04,3.35.92,6.56,2.53,9.88,3.64,4.67,1.73,9.27,3.65,13.94,5.39,2.16.83,1.29,3.85-.65,3.85-.23,0-.47-.04-.73-.14ZM348.02,176.12c-.61-.6-.79-1.51-.41-2.29.29-1.27.3-2.58.35-3.63.41-2.12-1.3-6.13,1.85-6.51,3.15.19,1.87,4.6,2.1,6.72-.01,1.92-.17,6.31-2.33,6.31-.44,0-.95-.18-1.57-.59ZM358.07,178.94c-.49-.56-.54-1.35-.33-2.04.31-1.97.47-3.98.58-5.97.06-1.08,1.14-1.88,2.17-1.77,2.66.42,1.56,3.65,1.52,5.49-.29,1.5,0,3.38-1.15,4.55-.34.31-.77.46-1.21.46-.6,0-1.2-.26-1.58-.72ZM371.91,185.61c-.59-.77-.05-1.88-.06-2.61.11-3-.08-6.01-.13-9.01-.04-2.58,3.86-2.7,3.96-.11-.01,3.62.44,7.29-.05,10.89-.16,1.09-1.13,1.76-2.09,1.76-.62,0-1.24-.28-1.63-.92ZM371.87,183.6s-.02.04-.03.06c.14-.27.34-.51.59-.7-.1.07-.19.16-.28.25,0,0,0,0,0-.01l-.16.2s0-.01.01-.02c-.05.07-.09.14-.13.21ZM370.18,163.64c-5.61-1.64-10.85-3.13-16.27-4.75-1.74-.66-3.9-.73-5.31-2.02-.67-.85-.56-2.1.28-2.79,1.17-1.06,2.89.21,4.02.4,6.16,1.83,12.02,3.52,18.13,5.29.52.15.96.42,1.26.89.85,1.25-.23,3.05-1.64,3.05-.15,0-.31-.02-.47-.07ZM361,156.55c-.54-3.4-3.9-6.55-7.41-6.01-2.2,1.51-.65,6.66-4.18,6.25-2.63-.81-1.23-3.82-.7-5.63.71-2.24,2.28-4.41,4.78-4.68,5.5-.32,10.56,4.02,11.42,9.41.24,1.43-.88,2.28-1.99,2.28-.85,0-1.7-.5-1.91-1.61ZM361.63,159.78c-1.12-1.02-.61-3.04.89-3.36,1.88-.91,3.73-1.88,5.64-2.72,2.27-.63,7.92-4.72,9.13-1.34.32,1.05-.29,2.14-1.31,2.47-2.88.97-5.67,2.21-8.41,3.52-1.41.45-3.02,1.94-4.54,1.94-.48,0-.94-.15-1.39-.52ZM377.9,165.87c-4.32-1.42-8.66-2.78-12.95-4.27-1.4-.61-3.37-.75-4.14-2.23-.9-1.78,1.46-3.65,2.98-2.4,5.09,1.92,10.32,3.45,15.47,5.18,2.18.81,1.31,3.85-.65,3.85-.23,0-.46-.04-.72-.13ZM375.86,145.14c-.04-1.08.82-2.01,1.9-2.06,1.09.19,1.06-1,.97-1.77-.77-5.48-8.02-7.55-12.77-6.5-3.19.64-4.66,3.79-7.27,5.31-5.26,2.86-9.28-2.55-9.62-7.42-.23-2.38,3.57-2.92,3.93-.47.19,2.22,1.72,6.26,4.42,4.01,4.74-6.59,14.19-7.33,20.58-2.71,4.29,2.3,7.11,10.17,2.11,13.07-.55.27-1.24.43-1.91.43-1.17,0-2.27-.51-2.34-1.89ZM349.42,132.58c-1.39-3.38,4.49-5.38,7.05-5.5,2.61-.1,2.73,3.83.13,3.96-1.24.15-2.52.48-3.49,1.31-.45.76-1.26,1.21-2.04,1.21-.64,0-1.26-.3-1.65-.97ZM349.37,132.49s.03.06.05.09c0,.01,0,.02.01.03l-.06-.12ZM307.79,286.99c-2.03-1.88-.11-3.47,1.83-4.15,1.9-.89,3.74-1.88,5.62-2.8,2.37-1.04,3.96,2.52,1.62,3.62-2.28,1.15-4.56,2.27-6.84,3.39-.32.21-.69.31-1.06.31-.41,0-.81-.12-1.17-.36ZM297.78,260.58c-1.32-.3-2.03-1.97-1.18-3.09.34-.44.83-.72,1.34-.8-.1,0-.2.04-.3.05,2.5-.95,4.83-2.32,7.37-3.2,1.6-.58,3.17,1.37,2.32,2.82-1.11,1.47-3.52,1.68-5.07,2.68-1.35.52-2.7,1.55-4.18,1.55-.1,0-.2,0-.31-.02ZM327.71,169.39s0,.07-.01.11v.02s0-.09.01-.13ZM327.7,169.57s0,.01,0,.01v.02s0-.02,0-.03ZM346.01,160.17c-1.4-29.4-11.84-58.23-31.91-80.05-26.44-30-63.41-53.42-104.49-52.91-46.87-3.13-98.69,36.07-91.77,86.15,1.02,6.36,3.13,12.47,5.74,18.46-.44,2.44-1,4.86-1.66,7.16-2.6,7.18-4.51,20.54,6.11,21.45,3.56,0,6.02-1.54,7.75-3.87.28.58.55,1.16.82,1.74.14.3.28.59.41.89.14.3.27.6.41.9.13.3.27.59.4.89.76,1.72,1.47,3.45,2.13,5.19.11.29.22.58.33.88.46,1.24.88,2.49,1.27,3.74.07.24.15.48.22.73.39,1.31.75,2.63,1.06,3.95.05.21.1.43.14.64.19.85.36,1.72.51,2.58.04.2.07.4.1.61.1.63.19,1.26.27,1.89.08.16.17.33.25.48.06.11.12.22.18.33.06.12.12.23.19.35.14.26.28.51.43.76.17.3.35.6.53.9.2.33.41.66.62.98.1.15.2.31.3.46.2.3.41.59.61.88.24.33.48.65.72.98.09.12.19.25.29.37.08.1.15.2.23.3.15.19.3.38.46.56,4.47,5.35,10.44,9.39,17.46,10.39,2.13.22,4.18.19,6.14-.05,1.22,3.36,3.13,6.36,6.72,7.35,4.76.73,6.68-3.03,7.47-7.04,1.11,3.08,2.52,6.15,5.36,7.81,13.99,4.11,7.39-18.09,6.31-25.14-1.52-7.01-3.29-13.98-5.41-20.84-4.67-18.75-14.15-36.22-19.61-54.75-2.3-8.46-.02-37.04,13.87-28.11,7.23,7.1,6.53,17.92,8.86,27.17.84,8.02,10.81,19.25,17.77,10.15,5.62-8.47,1.2-18.7.49-27.88-2.26-15.01,11.81-23.96,18.95-7.65,5.83,10.09,3.13,23.58,10.83,32.6,3.51,3.33,8.82.74,10.88-2.96,4.34-6.22-.66-15.7,5.2-20.9,29.81-4.36,43.96,79.42,33.08,99.98-6,15.75-18.53,28.46-31.98,38.21-17.33,11-38.02,17.39-51.51,33.72-19.83,23.67-28.96,58.83-18.13,88.37,4.27,12.32,11.91,26.7,25.86,29.37.32,0,.63.01.95.01,33.35,0,13.09-40.45,9.15-59.18-4.31-17.5,6.88-34.54,20.91-44.13,19.48-13.17,44.39-15.44,63.49-29.35,25.56-18.66,34.78-55.17,34.24-85.5ZM142.08,62.99c.34-1.28.94-2.54,1.92-3.45.9-.84,2.2-1.35,3.41-1.51.18-.03.35-.04.53-.04h0c.37,0,.74.05,1.08.15.67.19,1.27.69,1.65,1.27.29.44.49.93.6,1.45.14.65.06,1.34-.02,1.99-.23,1.71-.87,3.46-1.89,4.87-.61.84-1.3,1.62-2.32,1.96-.38.13-.76.18-1.13.16-.37-.02-.73-.11-1.07-.28-.33.21-.69.31-1.06.31h0c-.63,0-1.26-.29-1.64-.84-.5-.72-.57-1.67-.58-2.52-.01-1.19.22-2.36.52-3.51ZM129.63,146.02c-.36,1.4-.63,2.81-1.11,4.17-.37,1.04-.94,2.19-2.03,2.61-.28.11-.57.17-.86.17h0c-.38,0-.76-.1-1.09-.29-.49-.29-.84-.75-1.04-1.27-.2-.51-.31-1.06-.28-1.61.07-1.45.45-2.88.85-4.27.22-.77.47-1.53.74-2.29.28-.78.58-1.58,1.32-2.03.3-.18.64-.27.98-.27h0c.69,0,1.37.36,1.73.98.36.62.34,1.36.02,1.95.67.47,1,1.33.78,2.15ZM142.66,115.8c-.32.08-.64.12-.97.12h0c-.36,0-.71-.05-1.05-.14-1.15-.33-2.1-1.08-2.84-2.01-1.4-1.75-2.19-3.88-2.72-6.03-.37-1.48-.6-3-.78-4.52-.04-.32-.06-.64-.07-.96-.05-.44-.1-.87-.13-1.31-.12-1.74-.16-3.5-.16-5.24-.01-3.45.04-6.92.59-10.34.29-1.83.55-3.75,1.33-5.46.85-1.85,1.95-3.55,3.51-4.88.78-.66,1.73-1.25,2.77-1.35.09,0,.17-.01.26-.01h0c.62,0,1.22.21,1.72.57.5.37.84.89,1.1,1.44.35.74.56,1.57.71,2.37.18.94.23,1.9.24,2.86.06,4.15-.29,8.3-.39,12.44h0s0,0,0,0c-.12,5.17.08,10.33.43,15.48.02.22.03.44.04.65.03.39.06.78.09,1.17.02.26.06.52.04.78-.04.39-.17.77-.3,1.14-.11.3-.25.59-.41.86.35.8.19,1.74-.52,2.34-.36.3-.82.45-1.28.45h0c-.44,0-.87-.14-1.22-.41ZM161.85,186.62c-.59.86-1.65,1.35-2.7,1.35h0c-.47,0-.94-.1-1.35-.3-1.44-.71-2.52-1.95-3.42-3.24-1.08-1.55-2.03-3.17-2.88-4.85-.63-1.25-1.18-2.54-1.67-3.84-.66-1.17-1.26-2.37-1.82-3.59-1.39-3.05-2.36-6.29-3.14-9.54-.9-3.71-1.5-7.52-1.43-11.35.04-1.88.25-3.76.7-5.59.41-1.66,1.42-3.58,3.34-3.58h0c.08,0,.17,0,.25.01,1.2.1,1.99,1.08,2.46,2.1.36.79.5,1.63.64,2.47.11.66.23,1.31.35,1.97.06.34.13.69.2,1.03.06.31.15.63.19.96.02.08.03.15.05.23.35,1.68.77,3.34,1.26,4.98.17.54.34,1.09.52,1.62.6,1.68,1.29,3.31,2.06,4.91.2.41.39.81.6,1.21.07.14.14.29.22.43.19.31.33.66.49.98.46.91.91,1.83,1.36,2.74.85,1.77,1.63,3.58,2.3,5.43.63,1.73,1.17,3.48,1.62,5.26.37,1.48.68,2.97.74,4.5.05,1.31-.17,2.59-.91,3.68ZM192.29,197.3h0c.73,0,1.44.42,1.78,1.07.12.23.23.48.34.72.18.4.35.8.54,1.19.47.98-.1,2.19-1.06,2.6-.25.11-.51.15-.76.15h0c-.77,0-1.49-.47-1.84-1.21-.23-.48-.42-.97-.65-1.45-.21-.31-.33-.69-.33-1.09,0-1.08.9-1.98,1.98-1.98ZM176.16,195.11s.04-.06.06-.1c-.02.02-.03.04-.04.06.38-.5.95-.8,1.55-.83.36-.02.73.07,1.06.26.56.33.92.93.98,1.56.67.4,1.11,1.18.97,1.97-.08.46-.23.86-.51,1.25-.41.56-1.08.86-1.75.86h0c-.29,0-.58-.06-.85-.17-.72-.3-1.19-.97-1.48-1.66-.17-.41-.29-.83-.36-1.27-.09-.53-.04-1.04.15-1.51,0-.02.03-.05.04-.07.06-.13.12-.26.19-.38,0,0,0,0,0-.01,0,.01-.01.02-.02.03ZM205.05,109.22c-.37.37-.88.63-1.41.69-.09.01-.18.02-.26.02h0c-.56,0-1.07-.2-1.54-.54-.44-.32-.77-.81-1.03-1.29-.42-.77-.72-1.6-.99-2.43-.56-1.78-.9-3.65-1.12-5.5l-.05-.47c-.29-.35-.47-.8-.49-1.29-.04-.79-.01-1.59.09-2.38.13-1.07.44-2.15,1.17-2.97.46-.52,1.1-.78,1.76-.78h0c.31,0,.63.06.93.17.67.25,1.18.87,1.53,1.47.3.51.52,1.05.67,1.62.1.38.19.76.28,1.15.46,2,.85,4.03,1.15,6.07.15,1.04.27,2.09.28,3.14,0,1.15-.13,2.45-.97,3.31ZM247.05,101.71c-.32.79-1.12,1.37-1.97,1.37-.1,0-.21,0-.31-.03-.75-.12-1.32-.54-1.8-1.11-.5-.6-.74-1.34-.95-2.07-.3-1.04-.59-2.11-.81-3.17-.04-.15-.06-.32-.06-.48,0-.18.02-.36.07-.53.07-.27.21-.51.38-.72-.12-.18-.22-.38-.28-.6-.28-1.03.34-2.17,1.38-2.44.22-.06.43-.08.64-.08.8,0,1.52.39,2.06,1.02.44.51.62,1.15.83,1.77.24.72.41,1.45.56,2.19.12.61.23,1.22.32,1.83.14.99.31,2.1-.07,3.06ZM253.42,52.52c-.51.42-1.16.57-1.8.57-.1,0-.2,0-.3-.01-1.07-.08-2.12-.51-3.09-.94-1.36-.59-2.65-1.35-3.97-2.03-1.06-.55-2.13-1.08-3.21-1.58-2.12-.97-4.31-1.8-6.53-2.5-.5-.15-.99-.29-1.49-.42-.5-.13-1-.24-1.51-.34-.02,0-.04,0-.06-.01-.28-.04-.56-.09-.85-.13-1.18.12-2.34.4-3.52.56-.85.11-1.7.17-2.55.16s-1.7-.08-2.54-.23c-.43-.08-.85-.19-1.27-.31-1.91-.6-4.05-1.72-4.59-3.82-.26-.99-.1-2.06.64-2.82.48-.5,1.1-.81,1.76-.99.59-.16,1.18-.25,1.8-.23h0c.46.02.92.04,1.37.07.49.03.98.06,1.47.09h.13c.31.02.62.02.94.02s.62-.01.94-.03c.28-.03.55-.06.83-.12.19-.05.38-.1.57-.16.72-.28,1.4-.67,2.11-.97.95-.4,1.92-.63,2.92-.62.17,0,.33,0,.5.02.17.01.34.03.51.06,0,0,0,0-.01,0,.03,0,.06,0,.1.02-.03,0-.05-.01-.08-.01,1.36.26,2.57.9,3.66,1.76,1.22.96,2.15,2.21,3.32,3.22.24.19.48.37.74.54.38.23.76.43,1.16.62,1.14.51,2.34.84,3.52,1.26,1.35.48,2.67,1.04,3.93,1.72,1.19.64,2.26,1.41,3.25,2.33.83.77,1.6,1.65,1.97,2.74.32.92,0,1.91-.75,2.52ZM207.35,349.06c-.2.59-.5,1.14-1,1.52-.45.34-.97.49-1.51.49h0c-.22,0-.44-.02-.67-.07-1.01-.22-1.83-1-2.45-1.79-.66-.83-1.13-1.78-1.53-2.75-.68-1.66-1.23-3.37-1.74-5.09-.53-1.79-1.01-3.6-1.45-5.41-.93-3.79-1.71-7.64-2.09-11.53-.36-3.68-.39-7.37-.25-11.06.08-2.01.26-4.03.48-6.03.1-.91.22-1.82.4-2.72.13-.67.27-1.34.56-1.95-.02.03-.03.06-.05.09.03-.05.05-.1.08-.15-.01.02-.02.04-.03.06.23-.44.57-.78,1.04-.97.27-.11.56-.15.84-.13.1-.19.2-.37.32-.55.41-.62.98-1.25,1.7-1.5.3-.1.61-.17.92-.17s.62.06.91.2c.6.29,1.02.78,1.28,1.39.2.47.28,1.01.34,1.52.06.57-.02,1.13-.08,1.69-.11.96-.2,1.93-.3,2.89-.11,1.16-.22,2.32-.31,3.47,0,.04,0,.08,0,.12h0s0,0,0,0c0,.02,0,.03,0,.05,0,0,0,0,0,.01,0,0,0,.01,0,.02-.2,2.7-.26,5.41-.11,8.12.18,2.92.59,5.82,1.11,8.7.58,3.06,1.34,6.09,2,9.14.33,1.54.63,3.09.93,4.63.32,1.72.67,3.44.81,5.19.07.84.14,1.76-.13,2.57ZM337.68,161.5c-.18,3.94-.66,7.86-1.3,11.76-.29,1.81-.71,3.61-1.18,5.38-.49,1.87-1.04,3.75-1.68,5.57-.34.96-.7,1.91-1.06,2.86-.34.87-.67,1.73-1.07,2.57-.44.91-.91,1.87-1.53,2.66-.6.76-1.47,1.3-2.38,1.3-.36,0-.73-.08-1.09-.27-1.06-.54-1.35-1.8-1.43-2.88-.07-.98,0-1.96.15-2.93.29-1.88.68-3.75,1.01-5.63.36-2.02.7-4.05.97-6.08.27-2.07.47-4.15.62-6.23,0-.01,0-.02,0-.04v.02s0-.02,0-.03c0,0,0,0,0,0,0,0,0,0,0,0,0,0,0,0,0,0,0,0,0,0,0,0,0-.01,0-.03,0-.04.33-5.39.43-10.77.09-16.16-.55-8-1.55-15.98-3.09-23.86-.04-.2-.08-.41-.12-.61-.57-2.71-1.24-5.4-1.98-8.07-.35-1.26-.72-2.52-1.02-3.78-.12-.49-.24-1-.3-1.5-.07-.63.09-1.18.44-1.69,0,0,0-.01.01-.02-.3-.59-.3-1.31.03-1.93.37-.71,1.03-1.27,1.81-1.48.94-.25,2.07.03,2.79.69.35.33.63.78.91,1.16.19.26.38.52.57.78,1.21,1.71,2.32,3.49,3.29,5.35,1.59,3.04,2.91,6.23,3.85,9.53,1.01,3.53,1.65,7.17,2.09,10.82.47,3.81.65,7.62.72,11.45.07,3.77.06,7.55-.11,11.32Z"/></svg>