<?xml version="1.0" encoding="UTF-8"?><svg id="a" xmlns="http://www.w3.org/2000/svg" viewBox="0 0 2440.86 136.5"><path d="M0,120.44V8.03h96.35v16.06h16.06v48.17h-16.06v16.06H32.12v32.12H0ZM80.29,72.26V24.09h-48.17v48.17h48.17Z" fill="#f3f3f3"/><path d="M144.52,120.44V8.03h32.12v96.35h64.23v16.06h-96.35Z" fill="#f3f3f3"/><path d="M256.93,120.44V8.03h112.41v16.06h-80.29v32.12h64.23v16.06h-64.23v32.12h80.29v16.06h-112.41Z" fill="#f3f3f3"/><path d="M385.4,120.44V24.09h16.06V8.03h80.29v16.06h16.06v96.35h-32.12v-32.12h-48.17v32.12h-32.12ZM465.69,72.26V24.09h-48.17v48.17h48.17Z" fill="#f3f3f3"/><path d="M529.92,120.44v-16.06h-16.06v-16.06h32.12v16.06h48.17v-32.12h-64.23v-16.06h-16.06V24.09h16.06V8.03h80.29v16.06h16.06v16.06h-32.12v-16.06h-48.17v32.12h64.23v16.06h16.06v32.12h-16.06v16.06h-80.29Z" fill="#f3f3f3"/><path d="M642.33,120.44V8.03h112.41v16.06h-80.29v32.12h64.23v16.06h-64.23v32.12h80.29v16.06h-112.41Z" fill="#f3f3f3"/><path d="M915.32,120.44v-16.06h-16.06v-16.06h32.12v16.06h48.17v-32.12h-64.23v-16.06h-16.06V24.09h16.06V8.03h80.29v16.06h16.06v16.06h-32.12v-16.06h-48.17v32.12h64.23v16.06h16.06v32.12h-16.06v16.06h-80.29Z" fill="#f3f3f3"/><path d="M1027.73,120.44V8.03h112.41v16.06h-80.29v32.12h64.23v16.06h-64.23v32.12h80.29v16.06h-112.41Z" fill="#f3f3f3"/><path d="M1172.25,120.44V8.03h32.12v96.35h64.23v16.06h-96.35Z" fill="#f3f3f3"/><path d="M1284.66,120.44V8.03h112.41v16.06h-80.29v32.12h64.23v16.06h-64.23v32.12h80.29v16.06h-112.41Z" fill="#f3f3f3"/><path d="M1429.19,120.44v-16.06h-16.06V24.09h16.06V8.03h80.29v16.06h16.06v16.06h-32.12v-16.06h-48.17v80.29h48.17v-16.06h32.12v16.06h-16.06v16.06h-80.29Z" fill="#f3f3f3"/><path d="M1573.71,120.44V24.09h-32.12V8.03h96.35v16.06h-32.12v96.35h-32.12Z" fill="#f3f3f3"/><path d="M1846.7,120.44v-16.06h-16.06v-16.06h-16.06v-16.06h-16.06V8.03h32.12v64.23h16.06v16.06h16.06v-16.06h16.06V8.03h32.12v64.23h-16.06v16.06h-16.06v16.06h-16.06v16.06h-16.06Z" fill="#f3f3f3"/><path d="M1926.99,120.44V24.09h16.06V8.03h80.29v16.06h16.06v96.35h-32.12v-32.12h-48.17v32.12h-32.12ZM2007.28,72.26V24.09h-48.17v48.17h48.17Z" fill="#f3f3f3"/><path d="M2071.52,120.44V8.03h32.12v96.35h64.23v16.06h-96.35Z" fill="#f3f3f3"/><path d="M2199.98,120.44v-16.06h-16.06V8.03h32.12v96.35h48.17V8.03h32.12v96.35h-16.06v16.06h-80.29Z" fill="#f3f3f3"/><path d="M2312.39,120.44V8.03h112.41v16.06h-80.29v32.12h64.23v16.06h-64.23v32.12h80.29v16.06h-112.41Z" fill="#f3f3f3"/></svg>