<?xml version="1.0" encoding="UTF-8"?><svg id="a" xmlns="http://www.w3.org/2000/svg" viewBox="0 0 1024 2048"><polygon points="413 1933.63 341.33 1933.63 341.33 1953.5 341.33 2003.72 452 1995 453.05 1933.63 413 1933.63" fill="#ff4343"/><rect x="331" y="1206.49" width="362" height="54.84" fill="#4f61e0"/><rect x="476" y="1154.58" width="129" height="54.84" fill="#4f61e0"/><rect x="477" y="1147" width="166" height="21.86" fill="#4f61e0"/><rect x="494" y="1130.52" width="149" height="21.86" fill="#4f61e0"/><polygon points="642.6 1133.99 529.58 1134.57 530.13 1080.51 643.14 1079.93 642.6 1133.99" fill="#4f61e0"/><polygon points="701.09 1275.04 681.47 1255 511.4 1261.33 341.33 1255 321.71 1275.04 304.5 1289.24 304.5 1714.2 317.54 1715.87 331 1731.73 501.8 1731.73 521 1731.73 691.8 1731.73 705.26 1715.87 718.3 1714.2 718.3 1289.24 701.09 1275.04" fill="#30367a" stroke="#ff4343" stroke-miterlimit="10"/><polygon points="379.34 1782.5 379.34 1935.97 335.47 1935.97 331 1945 321.79 1953.5 313 1962 304.5 1968.68 304.5 2003.72 366.45 2003.72 379.34 2001.87 379.34 2003.72 461.12 2003.72 461.12 1782.5 379.34 1782.5" fill="#30367a" stroke="#ff4343" stroke-miterlimit="10"/><polygon points="646.66 1782.5 646.66 1935.97 690.53 1935.97 695 1945 704.21 1953.5 713 1962 721.5 1968.68 721.5 2003.72 659.55 2003.72 646.66 2001.87 646.66 2003.72 564.88 2003.72 564.88 1782.5 646.66 1782.5" fill="#30367a" stroke="#ff4343" stroke-miterlimit="10"/><path d="M747.04,1502h-18s0,222,0,222h-19c-.37,1.08,1,2.19,1,2.5v30.5h-18v-17s-362,0-362,0c-.03,5.65.04,11.35,0,17,5.65.04,11.35-.03,17,0v18s327,0,327,0v-16.5s1.5-1.5,1.5-1.5h15.5c.06,11.32-.08,22.68,0,34,12.32-.06,24.68.08,37,0,.04-5.65-.03-11.35,0-17h18v17c-5.98.03-12.01-.04-18,0-.08,11.32.06,22.69,0,34.01,5.97.18,12.04-.26,18.01,0,.05-5.32-.04-10.68,0-16h17s0-85,0-85h-17c-.38-73.98.51-148.02,0-222Z" fill="#30367a" stroke="#ff4343" stroke-miterlimit="10"/><path d="M277,1502h18v222h19c.37,1.08-1,2.19-1,2.5v30.5h18v-17h362c.03,5.65-.04,11.35,0,17-5.65.04-11.35-.03-17,0v18h-327v-16.5l-1.5-1.5h-15.5c-.06,11.32.08,22.68,0,34-12.32-.06-24.68.08-37,0-.04-5.65.03-11.35,0-17h-18v17c5.98.03,12.01-.04,18,0,.08,11.32-.06,22.69,0,34.01-5.97.18-12.04-.26-18.01,0-.05-5.32.04-10.68,0-16h-17v-85h17c.38-73.98-.51-148.02,0-222Z" fill="#30367a"/><path d="M623,1147c.07-10.67-.45-21.41.47-32.06l18.46-.91c1.67,1.6,1.27,28.47,1.07,32.97-6.65.05-13.35-.04-20,0Z" fill="#fff"/><path d="M623,1147c-.04,5.65.04,11.35,0,17-5.99.04-12.01-.02-18,0,0-5.65,0-11.35,0-17.01,5.99-.02,12.02.04,18.01,0Z" fill="#fff"/><path d="M495,1198c11.65.07,23.36-.05,35.01,0,.02,5.32-.04,10.68,0,17h-35v-17Z" fill="#fff"/><path d="M277,1502c-.51,73.98.38,148.02,0,222h-17v85h17c.04,5.32-.05,10.68,0,16-5.71.24-11.94,1.85-18,1v-17h-16v-86h16v-221h18Z" fill="#13134c"/><path d="M331,1214c.04-5.32-.03-10.68,0-16h126v-16h19v16c6.32.03,12.68-.04,19,0v17h35c.03,4.66-.02,10.35,0,16h-51.5c-.3,0-.77,1.27-1.5,1v-18h-20v34h71.5c.3,0,.77,1.27,1.5,1v-17c6.46-1.7,14.46,2.26,20-1.5v-15c4.25-2.69,11.67-1.45,17-1.5.02-5.32-.01-10.68,0-16h18.5c.3,0,.77,1.27,1.5,1v-17h18v16h87v16c-41.64.3-83.36-.4-125,0-.02,5.6-1.15,13.47,1.5,18h119c1.48,0,4.8-.29,5.5-1.5v-16.5h19v34h-20v18c-.73.27-1.2-1-1.5-1h-359.5v15.5l-1.5,1.5h-16.5v51h171v17h53.5c.26,0,1.34,1.43,2.49.99.43-1.16-.99-2.23-.99-2.49v-15.5h170.5c.29,0,2.04,1.99,2.51.49l-1.01-51.49h-18v-17h19v17h15.5c.3,0,.77-1.27,1.5-1v52h19l-1.04,15.46.86,17.9-1.33,1.64h-17.5v117h18c.03,5.65-.04,11.35,0,17,1.74,0,18-.9,18,0v221h16v86h-16v-85h-18c-.38-73.98.51-148.02,0-222h-18v222h-18c-.27.73,1,1.2,1,1.5v31.5c-6.32.03-12.68-.05-19,0-.04-5.65.03-11.35,0-17h-362v17h-18v-30.5c0-.31,1.37-1.42,1-2.5h-19v-222h-18c.04-5.65-.03-11.35,0-17h18v-117h-18v-35h18v-52l17.05.54-.05-16.54h16.5c.35,0,1.11,1.77,2.5-.5v-16.5h-19v-34c6.32-.03,12.68.04,19,0-.05,5.99.04,12.02,0,18.01h107.01v-16.51l-3.45-1.55c-34.51.24-69.05-.15-103.55.05ZM539,1485c.16-23.31-.12-46.68,0-70l-17,1v-34h-23v34h-15v17h37v17h-37v33.5l-1.5,1.5h-15.5v-35h-18c1,5.3,2.49,13.31-.5,18h-99.5v-18h-18v-17h-18v274h18v17c1.08.37,2.19-1,2.5-1h360.5l-1-16h18v-274h-18v17h-18v18h-101v-18h-17v35c-5.99.03-12.01-.04-18,0-.04,5.65.03,11.35,0,17h-55v-15.5c.88-1.43,1.99-1.38,3.45-1.55,14.71-1.73,35.99.15,51.55.05Z" fill="#13134c"/><path d="M495,1198v-16h55v33h-20c-.03-6.32.02-11.68,0-17-11.65-.04-23.35.07-35.01,0Z" fill="#13134c"/><path d="M295,1791c-5.99-.04-12.02.03-18,0v-17h18c.03,5.65-.04,11.35,0,17,12.32.08,24.68-.06,37,0-.04,5.65.03,11.35,0,17h-19v34h-36c-.04-5.65.06-11.35,0-17,5.97-.25,12.03.18,18.01,0-.07-11.32.07-22.69,0-34.01Z" fill="#13134c"/><path d="M332,1791c.08-11.32-.06-22.68,0-34h15.5l1.5,1.5v16.5h327v-18c5.65-.03,11.35.04,17,0,.08,11.32-.08,22.68,0,34,11.98-.05,24.02.04,36,0v34h18v-16l17,1v14.5c0,.3,1.27.77,1,1.5h-18l1,16h-37v-34h-18c-.03-5.65.04-11.35,0-17-11.32.05-22.68-.03-34,0v136h34c.04,5.98-.05,12.02,0,18-16.65-.09-33.35.07-50,0v-154h-71v204h139c.23-8.48-.3-17.05-.04-25.54.08-2.52.96-4.79,1.04-7.46,5.65.04,11.35-.03,17,0v50h-173v-221h-88v221h-173v-50h17v-17c6.32-.03,12.68.04,19,0,0,5.65,0,11.35,0,17h-18v33h139v-204h-70v154c-16.98.07-34.02-.1-51,0,0-5.89.75-12.5-1-18h35v-136c-10.98-.04-22.02.05-33,0Z" fill="#13134c"/><path d="M693,1945c6.32.04,12.69-.02,19.01,0-.13,5.65.17,11.36,0,17.01-6.32-.04-12.69.03-19.01,0-.03-5.65.06-11.35,0-17.01Z" fill="#13134c"/><path d="M623,1164c-.04,5.65.03,11.35,0,17h-18v-17c5.99-.02,12.01.04,18,0Z" fill="#13134c"/><path d="M605,1164c-18.65.07-37.35-.05-56,0,.59-2.11-.86-17,1.5-17h53.5v-31.5c-6.24-3.21-15.42-.77-22.5-.73-10.48.06-20.94-.93-31.51-.76.65-4.52-.59-9.7-.58-13.96,0-1.17.07-1.29,1.09-2.04h54.5v17h14.5c.54,0,2.22-1.55,3.5-1v-16h-17v-17h-56l-.76-14.54,1.26-1.46h72.5v17l19.06-.56c1.73,1.2,1.29,13.95-.06,16.56h16.5l1.5,1.5v47.5c-5.65.03-11.35-.04-17,0,.2-4.5.6-31.38-1.07-32.97l-18.46.91c-.92,10.65-.4,21.4-.47,32.06-5.99.04-12.02-.03-18.01,0,0,5.65,0,11.35,0,17.01Z" fill="#13134c"/><path d="M643,1147c-.03.57-.92,1.99-1.01,3.45-.27,4.49.2,9.07.01,13.56-6.32.02-12.68-.04-19.01,0,.04-5.65-.04-11.35,0-17,6.65-.04,13.35.05,20,0Z" fill="#13134c"/><path d="M530,1098c.03-5.09-.01-10.22-.04-15.31.2-.66,2.26-1.69,2.54-1.69h16c2.7,1.79,1.67,16.04.36,16.86-6.26.31-12.59.1-18.86.14-.03,5.65.02,11.35,0,17h19.99v30.5l-1.5,1.5h-17.5v-15l-18-1c-.04,5.32.03,10.68,0,16h-18v33.5l-1.5,1.5h-16.5v-35h17v-16h19c.08-10.99-.06-22.02,0-33.01,5.65-.02,11.35.04,17.01,0Z" fill="#13134c"/><rect x="730" y="1774" width="17" height="17" fill="#13134c"/><path d="M366,1554c-5.65-.04-11.35.03-17,0v-19h-18v-33h18v-17h35v34h-19c.28,9.82-.36,19.73-.04,29.55.07,2.05.96,3.88,1.04,5.45,10.32.07,20.68-.05,31,0v-17.5c-3.18-3-8.85-.93-13-1.5v-15l5.45-1.05c83.51.45,167.05-.43,250.55.05.09-11.32-.06-22.68,0-34h35v18h18v32h-18v19h-16v-35c-6.32-.03-12.68.04-19,0-.04,5.32.03,10.68,0,16.01h-13.01s0,18.99,0,18.99h29.5c2.46,3.61,2.43,12.51,0,16h-45.5v-35h-38v32.5c0,.31-.95.62-.98,1l.98,1.01c.69,1.12,1.14-.51,1.5-.51h35l1.5,1.5v16.5h-199v-17h-46c-.19-5.3.26-10.71,0-16ZM413,1535v35h40.05v-35h-40.05ZM503.5,1535h-34.5v34h34.5c.53,0,1.6,2.66,1.53-.52-.06-2.63-1-5.09-1.08-7.94-.22-7.8-.4-16.38.94-23.97l-1.39-1.58ZM557,1535h-36v34h33.5c.31,0,.62.95,1,.98l1.01-.98c1.12-.69-.51-1.14-.51-1.5v-30c0-.31,1.37-1.42,1-2.5Z" fill="#13134c"/><path d="M430,1621c-4.65-.03-9.34.03-14-.01l.94-16.52,13.06-.47c.04,5.65-.07,11.35,0,17.01,53.5.4,107.04-.26,160.55-.05l3.45,1.55v15.5h-163.99c-.06-5.65.05-11.35,0-17Z" fill="#13134c"/><path d="M608,1604v17c-4.74-.66-11.24,1.61-15-1.5v-15.5h15Z" fill="#13134c"/><rect x="413" y="1535" width="40.05" height="35" fill="#fff"/><path d="M503.5,1535l1.39,1.58c-1.34,7.59-1.15,16.17-.94,23.97.08,2.85,1.02,5.31,1.08,7.94.07,3.18-1,.52-1.53.52h-34.5v-34h34.5Z" fill="#fff"/><path d="M557,1535c.37,1.08-1,2.19-1,2.5v30c0,.36,1.63.81.51,1.5l-1.01.98c-.38-.04-.69-.98-1-.98h-33.5v-34h36Z" fill="#fff"/><rect x="573" y="1535" width="38" height="34" fill="#fff"/></svg>