<?xml version="1.0" encoding="UTF-8"?><svg id="a" xmlns="http://www.w3.org/2000/svg" viewBox="0 0 500 500"><path d="M158.71,356.59c-2.53-3.25-4.87-6.75-6.5-10.54-.09-.22-.19-.44-.27-.65-1.52-3.75-2.48-7.85-1.46-11.79.26-1.02.68-2.05,1.25-2.93.55-.86,1.18-1.61,1.92-2.32,1.51-1.45,3.47-2.37,5.45-3,.98-.31,2.01-.52,3.04-.66.91-.13,1.83-.23,2.75-.26,2.1-.06,4.18.03,6.28.3,4.13.53,8.19,1.56,12.16,2.88,3.18,1.05,6.29,2.3,9.34,3.7-.04.21-.07.42-.1.63-.04.54-.06,1.08-.06,1.63.03.55.08,1.09.15,1.63.02.13.05.27.07.4-1.83-.87-3.67-1.7-5.55-2.45-3.29-1.31-6.64-2.45-10.05-3.33-2.18-.54-4.36-.96-6.58-1.24-1.57-.17-3.14-.27-4.72-.26-1.05.03-2.08.12-3.11.25-.77.13-1.53.29-2.28.49-.53.17-1.05.36-1.57.57-.46.22-.91.46-1.35.72-.28.19-.56.39-.83.59-.24.21-.47.41-.7.63-.27.29-.52.59-.76.91-.15.24-.29.47-.43.71-.11.23-.22.47-.33.7-.13.36-.24.71-.33,1.09-.08.37-.14.74-.19,1.12-.04.54-.05,1.08-.03,1.63.04.56.1,1.12.19,1.67.17.86.38,1.69.63,2.53.38,1.14.82,2.24,1.31,3.34.68,1.4,1.42,2.76,2.23,4.08,1.25,1.97,2.61,3.85,4.05,5.68,2.2,2.69,4.56,5.24,6.98,7.59l.17.16c3.29,3.16,6.81,6.06,10.46,8.79,4.08,2.99,8.3,5.74,12.69,8.23,4.06,2.25,8.22,4.28,12.51,6.03,3.14,1.25,6.32,2.33,9.58,3.17,2.27.57,4.56,1.01,6.87,1.3,1.53.17,3.06.27,4.6.25,1.09-.03,2.18-.12,3.26-.27.77-.13,1.52-.3,2.27-.51.52-.16,1.02-.34,1.52-.55.41-.19.8-.4,1.19-.62.32-.2.63-.41.93-.64.29-.23.56-.48.82-.75.2-.23.39-.46.58-.7.17-.25.33-.5.48-.76.15-.3.29-.61.41-.92.11-.32.21-.64.28-.97.09-.42.15-.84.2-1.27.03-.48.04-.96.02-1.44-.04-.63-.12-1.26-.22-1.88-.17-.84-.38-1.66-.63-2.48-.36-1.1-.8-2.17-1.28-3.23-.7-1.47-1.49-2.89-2.21-4.06-.84-1.34-1.74-2.64-2.69-3.91-.43-.56-.86-1.11-1.28-1.64-1.96-2.41-4.04-4.68-6.16-6.81.19-.04.38-.08.57-.13.55-.15,1.07-.34,1.6-.55.42-.19.84-.39,1.24-.62.14-.09.29-.18.43-.28.46.47.92.95,1.37,1.43,1.26,1.35,2.48,2.74,3.53,4.04.09.11.18.21.26.32.78.97,1.54,1.95,2.26,2.95.04.05.07.1.1.15,1.15,1.6,2.22,3.26,3.18,4.99,1.66,2.99,2.98,6.17,3.57,9.53.38,2.15.33,4.34-.23,6.42-.6,2.28-2,4.19-3.79,5.65-3.02,2.38-6.98,3.18-10.79,3.34-3.8.16-7.67-.4-11.4-1.25-7.31-1.66-14.37-4.54-21.06-8-7.15-3.7-13.92-8.13-20.25-13.14-2.56-2.03-5.01-4.19-7.37-6.44-2.58-2.48-5.05-5.1-7.31-7.89-.3-.37-.59-.74-.88-1.11Z"/><path d="M192.53,345.06c-.15-.22-.3-.45-.42-.68-.01-.02-.03-.05-.04-.08-.65-1.09-1.22-2.21-1.7-3.37-.03-.08-.07-.16-.1-.24-1.53-3.75-2.22-7.93-1.05-11.81.55-1.84,1.51-3.59,2.84-4.95.01-.01.03-.02.04-.04,0,0,0,0,.01-.01.74-.75,1.54-1.41,2.44-1.98.86-.55,1.81-.98,2.77-1.33,3.78-1.37,8.04-1.25,11.97-.36,3.9.89,7.58,2.57,10.98,4.72,1.63,1.03,3.18,2.21,4.63,3.48.31.27.62.55.92.84.29.28.62.55.9.86.17.16.33.35.5.52.68.69,1.32,1.43,1.93,2.18,1.23,1.52,2.34,3.13,3.28,4.85,1.57,2.84,2.67,6.08,2.86,9.3.16,2.8-.39,5.57-1.79,7.97-1.75,2.97-4.75,4.94-8.03,5.84-3.46.96-7.19.82-10.72.02-3.61-.82-7.02-2.3-10.21-4.2-3.12-1.86-5.99-4.23-8.45-6.92-.21-.23-.41-.45-.61-.68-.05-.05-.09-.09-.13-.14l-.11-.14c-.18-.21-.36-.43-.54-.65-.78-.96-1.5-1.96-2.17-3ZM224.21,333.02c-.1-.1-.21-.21-.31-.31-.97-.94-1.98-1.82-3.03-2.66-1.21-.92-2.46-1.78-3.76-2.56-1.18-.68-2.38-1.29-3.62-1.84-1.26-.53-2.55-.99-3.86-1.36-1.03-.27-2.07-.49-3.12-.65-.92-.12-1.85-.18-2.78-.2-.77.02-1.53.07-2.29.15-.63.1-1.24.23-1.86.38-.41.13-.8.26-1.2.4-.53.23-1.05.48-1.55.76-.29.19-.58.38-.87.58-.29.24-.59.48-.85.74,0,0-.02.02-.03.03-.05.06-.11.12-.17.17l-.07.07c-.2.23-.4.47-.59.72-.18.26-.35.53-.52.8-.21.39-.4.79-.57,1.2-.1.29-.2.59-.29.89-.13.53-.23,1.06-.3,1.61-.04.54-.06,1.08-.06,1.63.02.55.07,1.09.15,1.63.11.64.25,1.27.41,1.89.26.87.57,1.72.92,2.56.41.9.86,1.77,1.32,2.59.62,1.02,1.27,2.01,2,2.96h0c.22.29.45.57.68.84.62.74,1.27,1.45,1.95,2.13,1.02,1,2.09,1.93,3.2,2.81,1.15.88,2.34,1.69,3.58,2.44,1.21.71,2.45,1.35,3.73,1.91,1.21.51,2.45.95,3.71,1.32,1.02.28,2.06.51,3.1.67.92.13,1.85.21,2.77.23.78,0,1.56-.05,2.33-.14.63-.09,1.26-.21,1.87-.36.55-.15,1.08-.33,1.6-.54.43-.19.84-.4,1.24-.63.35-.22.68-.44,1.01-.69.28-.22.54-.46.8-.71.28-.29.54-.6.79-.92.2-.28.39-.57.57-.87.17-.33.34-.66.48-1,.16-.41.29-.83.41-1.26.1-.42.17-.84.23-1.27.05-.55.07-1.1.07-1.65-.02-.57-.07-1.13-.15-1.7-.11-.68-.27-1.35-.46-2.01-.26-.86-.57-1.71-.92-2.54-.39-.88-.82-1.73-1.3-2.56-.6-.99-1.25-1.94-1.95-2.86-.11-.14-.22-.28-.33-.41-.72-.89-1.46-1.73-2.12-2.4Z"/><path d="M32.35,359.1c-4.12-12.27.49-24.83,6.8-35.1,7.29-12.88,16.21-24.8,27.21-34.68,22.87-19.72,40.58,3.24,52.05,23.36,2.63,3.31,4.97,8.24,9.74,8.19,7.1-.08,14.24-.62,21.27,1.09,3.54,1.17,9.81,1.58,11.82,4.88.72,2.05-2.1,3.5-3.38,1.72-10.15-4.6-20.69-3.78-31.3-3.96-6.36-1.24-10.81-8.59-15.79-16.58-5.36-8.61-11.32-17.96-20.92-21.25-17.08-6.13-33.14,17.99-41.57,29.85-7.21,11.61-16.32,24.53-12.89,39.17,4.4,18.06,26.01,16.17,40.27,15.79,11.03-1.73,15.61,9.94,19.35,18.25.06.15.13.3.19.45.3.91-.21,1.96-1.06,2.32-1.02.3-1.75-.03-2.31-.67-3.33-7.79-7.12-16.12-13.04-16.42-14,.06-33.12,2.21-42.65-9.55v-.02c-1.55-1.9-2.83-4.15-3.81-6.84Z"/><path d="M233.32,423.88s.03-.03.04-.04c3.94-.92,7.97-1.36,12.11-.9,17.45,1.69,33.69,9.19,51.01,11.36,24.18,3.35,49.9,4.67,72.69-4.21,5.97-3.16,7.06-7.55-.82-9.2-7.5-.97-15.08-.14-22.61-.58-12.81-.07-25.63-1.85-38.02-5.45-14.52-3.8-28.98-8.26-42.41-15.25-7.4-3.71-14.56-7.24-22.02-10.69-1.67-1.11-4.92-1.18-4.89-3.71.84-4.28,7.9,1.43,10.35,2.03,9.37,4.34,18.46,9.28,27.85,13.41,10.22,4.61,20.8,7.33,31.47,10.31,8.73,2.43,17.56,4.35,26.32,4.96,11.91,1.28,23.99-.45,35.81,1.45,8.2,1.84,10.63,9.86,3.3,14.6-7.47,5.04-17.01,5.87-25.75,7.46-27.32,3.51-55.64-.36-82.18-8.45-16.39-4.82-24.64-5.56-37.01-1.75,1.55-1.66,3.13-3.44,4.76-5.34Z"/><path d="M89.63,387.04c-4.42-13.3-.52-27.66,3.55-40.35.47-2.37,4.62-1.54,3.69,1.28-2.84,8.05-4.82,16.65-5.23,25.23-.43,5.79.67,11.65,3.47,16.85.48.96-.04,2.16-.97,2.55-1.07.31-1.82-.07-2.39-.77-1.02-1.26-1.46-3.55-2.12-4.79ZM93.16,347.46c-.02-.24-.02-.46,0-.66-.04.22-.04.44,0,.66ZM93.22,346.6s.03-.09.04-.14c-.01.05-.03.09-.04.14Z"/><path d="M92.84,349.26c1.35-6.33,5.62-11.33,9.5-16.25,1.21-1.26,2.39-4.25,4.42-3.29.35.79.72,1.57,1.12,2.33-.07.25-.18.48-.34.7-2.2,2.94-4.58,5.74-6.73,8.72-2.01,2.72-3.55,5.88-4.29,9.12-.61,1.5-2.5,1.32-3.33.29-.34-.42-.5-.97-.34-1.61Z"/><path d="M49.11,351.19c-.33-3.46,1.38-7.12,2.35-10.24,2.93-8.64,7.55-16.51,12.78-23.88,5-6.12,12.11-17.74,21.21-15.73,8.2,2.16,14.39,12.73,17.79,20.04,2.83,6.17,4.53,12.94,9.74,17.47.73.52,1.62.98,2.01,1.82.73,1.47-.71,3.15-2.26,2.65-1.08-.57-2.03-1.43-3.01-2.18-3.36-3.14-5.32-7.44-7.21-11.55-3.1-7.96-6.57-15.49-12.79-21.46-5.69-5.87-11-2.46-15.19,2.6-8.33,9.11-15.23,19.79-19.4,31.54-1.7,5.27-4.89,11.03,2.77,13.02,4.64,1.66,9.61,1.21,14.41,1.22,7.14-.13,14.71.95,20.81,4.98-.29,1.42-.53,2.84-.74,4.27-.22-.19-.44-.36-.65-.52-6.15-4.62-14.11-4.95-21.39-4.8-5.89.04-15.29.06-19.38-4.98-.93-1.14-1.58-2.54-1.85-4.27Z"/><path d="M337.69,421.06c-.72-6.59,7.32-4.24,3.83-.52,6.42,7.57,22.64,5.83,30.77,2.39,2.26-.99,3.91,2.63,1.61,3.59-7.73,3.83-28.06,5.42-34.68-2.74-.66-.81-1.18-1.71-1.54-2.72Z"/><path d="M77.73,415.06c-.26-.32-.51-.63-.76-.95-.19-.25-.4-.49-.58-.74-.04-.06-.08-.11-.12-.17-1.1-1.45-2.16-2.94-3.12-4.48-.97-1.55-1.87-3.13-2.69-4.77-.32-.64-.61-1.29-.88-1.95-.45-1.1-.83-2.22-1.17-3.36-.6-2.02-.85-4.11-.75-6.19.15-3.19,1.59-6.28,3.98-8.33,3.13-2.68,7.19-3.76,11.25-4.21,2.96-.32,5.97-.25,8.96.01.18,1.35.46,2.68.81,3.99-1.85-.19-3.71-.3-5.57-.31-1.63.02-3.25.12-4.86.33-1.01.16-2.01.36-3,.62-.74.22-1.47.48-2.18.77-.44.21-.88.44-1.3.67-.43.27-.84.56-1.25.87-.26.23-.51.46-.75.69-.22.25-.44.5-.65.77-.24.35-.46.69-.67,1.06-.14.28-.26.56-.38.85-.1.3-.19.6-.28.91-.09.42-.16.84-.21,1.26-.05.59-.05,1.18-.04,1.77.05.57.12,1.13.2,1.7.13.63.28,1.26.44,1.89.08.27.16.54.25.81.29.95.69,1.88,1.08,2.79.75,1.59,1.56,3.15,2.49,4.64.13.21.26.42.39.63,1.43,2.19,2.97,4.3,4.61,6.34.11.13.22.27.25.31.19.23.37.46.56.68.08.1.17.19.25.29.18.21.35.41.53.62,2.53,2.92,5.23,5.7,8.03,8.36,5.15,4.83,10.63,9.29,16.31,13.47,6.52,4.76,13.31,9.13,20.31,13.13.77.44,1.54.87,2.23,1.26.24.13.48.26.49.27,7.02,3.84,14.22,7.34,21.61,10.36.3.12.61.25.74.3,5.68,2.26,11.45,4.25,17.35,5.8,3.66.94,7.35,1.71,11.08,2.23.06,0,.13.02.19.03h.01s.05,0,.08.01c.04,0,.09.01.13.02.21.01.43.05.64.07,2.18.27,4.36.4,6.55.4,1.56-.02,3.12-.1,4.67-.3.99-.15,1.96-.34,2.93-.6.75-.22,1.49-.47,2.22-.77.53-.24,1.05-.51,1.56-.8.44-.28.87-.59,1.28-.91.29-.26.58-.52.85-.8.21-.24.41-.49.61-.75.15-.23.3-.46.43-.7.16-.32.31-.65.44-.99.11-.31.2-.63.28-.95.09-.43.16-.86.22-1.29.03-.47.04-.94.04-1.41-.03-.61-.09-1.21-.18-1.82-.16-.83-.35-1.65-.58-2.46-.36-1.11-.77-2.2-1.25-3.27-.76-1.64-1.63-3.22-2.43-4.54,1.31-.26,2.59-.59,3.86-.99,1.77,3.02,3.24,6.23,4,9.63.9,3.98.55,8.39-2.02,11.59-2.51,3.14-6.38,4.71-10.26,5.47-3.8.74-7.78.67-11.65.33-.79-.07-1.57-.16-2.36-.26-.06,0-.12-.01-.18-.02h-.03c-.05-.01-.1-.02-.15-.03-.02,0-.05,0-.07,0-1.98-.25-3.96-.59-5.92-.99-3.94-.81-7.84-1.84-11.7-3.03-7.51-2.32-14.85-5.3-21.99-8.64-4.31-2.02-8.57-4.18-12.63-6.44-7.16-3.96-14.13-8.28-20.83-13.01-6.35-4.48-12.47-9.32-18.19-14.59-3.15-2.9-6.18-5.94-9.01-9.16-.02-.02-.04-.04-.06-.07-.21-.24-.42-.48-.63-.73-.13-.14-.25-.29-.38-.44-.03-.03-.06-.07-.09-.1-.03-.03-.05-.07-.08-.1-.37-.43-.72-.86-.92-1.1l-.38-.47Z"/><path d="M129.35,431.36c2.05-2.09,8.52,3.13,11.05,3.72,5.67,2.46,11.44,4.52,17.24,6.59,35.73,12.17,51.01,11.11,75.68-17.78,2.9-2.92,6.44-5.25,10.55-6.04,1.6-.35,2.95,1.73,1.99,3.04-.78,1.08-2.34.89-3.45,1.44-6.02,2.4-9.3,8.33-13.92,12.52-12.7,13.58-28.65,21.32-47.75,17.06-14.02-2.75-27.92-7.44-41.11-12.96-2.9-1.25-6.06-2.92-8.83-4.19-.56-.12-1.07-.45-1.42-.88-.59-.72-.75-1.73-.02-2.51Z"/><path d="M373.25,426.82c-.78,1.13-2.19,2.26-4.09,3.27-8.58,3.35-17.58,5.25-26.75,6.13l.11-.09.19-.17.18-.17.17-.17.17-.17.15-.16.14-.16.13-.16.12-.16.11-.16.1-.15.09-.15.07-.14.06-.14.05-.14.04-.13.03-.12.03-.12v-.11s.01-.1.01-.1v-.09s-.02-.09-.02-.09v-.09s-.03-.08-.03-.08l-.03-.07-.03-.07-.03-.07-.04-.06-.04-.06-.04-.05-.04-.05-.05-.05-.05-.05-.05-.04-.06-.04-.06-.04-.06-.04-.06-.03-.07-.03-.07-.03-.07-.03-.07-.03-.08-.03-.08-.03-.08-.02-.09-.02-.09-.02-.08-.02h-.09s-.09-.03-.09-.03h-.09s-.09-.02-.09-.02h-.09s-.09,0-.09,0h-.1s-.1,0-.1,0h-.09s-.1,0-.1,0h-.1s-.1.02-.1.02h-.1s-.1.03-.1.03l-.1.02-.1.02-.1.02-.1.02-.1.03-.09.03-.1.03-.1.03-.1.03-.1.03-.1.04-.1.03-.1.04-.1.04-.11.04-.11.04-.11.05-.11.04-.11.05-.11.05-.11.05-.11.05-.11.05-.11.05-.11.04-.11.04-.12.05-.12.05-.12.05-.12.05-.13.05-.13.05-.13.05-.14.05-.14.05-.15.05-.15.05-.15.05-.15.05-.16.05-.16.05-.15.04-.15.05-.16.04-.16.04-.16.04-.16.04-.16.04-.16.03-.16.03-.15.02-.16.02-.16.02h-.15s-.15.03-.15.03h-.15s-.15.02-.15.02h-.15s-.16,0-.16,0h-.16s-.17,0-.17,0h-.17s-.17-.01-.17-.01h-.17s-.17-.02-.17-.02l-.16-.02-.16-.02-.16-.02-.15-.03-.14-.03-.14-.03-.13-.03-.13-.03-.13-.03-.14-.03-.14-.04-.14-.04-.15-.04-.15-.04-.16-.04-.16-.04-.17-.05-.16-.04-.17-.04-.17-.05-.18-.05-.18-.05-.18-.05-.18-.05-.17-.05-.17-.05-.16-.05-.15-.04-.14-.04-.13-.04-.13-.04-.12-.03-.12-.03-.13-.04-.13-.04-.13-.04-.14-.04-.14-.04-.15-.04-.15-.05-.16-.05-.16-.05-.17-.05-.17-.06-.18-.06-.18-.06-.19-.06-.2-.06-.2-.07-.21-.07-.21-.07-.21-.07-.21-.07-.2-.07-.2-.07-.2-.07-.21-.07-.21-.07-.22-.07-.23-.07-.24-.07-.25-.07-.26-.07-.27-.08-.28-.07-.29-.07-.3-.08-.32-.08-.32-.08-.32-.07-.32-.07-.31-.07-.3-.07-.29-.07-.28-.06-.26-.06-.24-.06-.22-.06-.21-.05-.21-.05-.19-.05-.2-.04-.19-.04-.19-.04-.2-.04-.21-.04-.22-.04-.23-.05-.24-.05-.25-.05-.26-.05-.27-.05-.28-.05-.29-.05-.29-.06-.29-.06-.29-.05-.29-.05-.28-.06-.28-.06-.27-.06-.27-.06-.26-.07-.26-.07-.25-.07-.26-.07-.26-.07-.26-.08-.28-.08-.29-.09-.31-.09-.32-.1-.34-.11-.35-.11-.38-.12-.4-.13-.42-.13-.43-.14-.44-.15-.44-.14-.43-.15-.42-.14-.4-.14-.38-.13-.35-.12-.31-.12-.29-.11-.27-.1-.25-.09-.23-.08-.21-.08-.2-.07-.19-.07-.2-.07-.21-.07-.21-.08-.23-.08-.23-.08-.25-.09-.26-.09-.28-.1-.29-.1-.3-.1-.3-.1-.31-.11-.32-.11-.32-.1-.32-.1-.31-.1-.32-.1-.32-.09-.32-.09-.32-.09-.33-.08-.34-.08-.35-.07-.35-.07-.37-.07-.39-.06-.41-.06-.43-.05-.44-.05-.47-.05-.5-.04-.52-.04-.55-.04-.57-.03-.57-.03-.58-.02-.58-.02-.58-.02-.57-.03-.55-.03-.52-.03-.5-.04-.48-.05-.45-.06-.43-.07-.4-.08-.37-.09-.35-.1-.34-.12-.33-.13-.33-.14-.32-.16-.31-.17-.31-.19-.31-.21-.32-.22-.32-.25-.32-.26-.31-.29-.32-.3-.31-.33-.3-.34-.29-.35-.28-.36-.25-.35-.24-.34-.23-.33-.22-.31-.22-.29-.22-.28-.22-.25-.23-.24-.24-.23-.26-.22-.27-.21-.29-.2-.3-.18-.32-.17-.33-.15-.35-.15-.37-.14-.38-.13-.39-.11-.41-.1-.42-.08-.43-.07-.43-.05-.41-.03h-.39s-.36,0-.36,0l-.34.02-.33.03-.32.03-.29.04-.28.04-.28.04-.28.05-.29.05-.31.05-.32.06-.34.06-.36.07-.38.07-.41.07-.44.08-.47.09-.5.09-.54.1-.57.1-.61.1-.65.1-.67.1-.7.09-.71.08-.73.06-.73.05-.73.03h-.7s-.65-.01-.65-.01l-.61-.04-.56-.06-.51-.08-.46-.1-.41-.11-.36-.11-.33-.12-.31-.12-.3-.13-.3-.12-.29-.13-.29-.14-.3-.14-.3-.15-.32-.16-.33-.17-.34-.18-.35-.19-.36-.2-.37-.21-.38-.22-.38-.23-.38-.23-.37-.23-.37-.23-.36-.23-.34-.22-.33-.21-.31-.21-.3-.19-.28-.18-.27-.17-.26-.17-.27-.17-.27-.16-.27-.16-.28-.17-.29-.17-.3-.18-.32-.18-.32-.19-.34-.2-.35-.2-.36-.2-.37-.21-.39-.21-.39-.21-.4-.2-.4-.2-.41-.19-.41-.18-.4-.17-.4-.15-.38-.14-.37-.11-.34-.1-.33-.09-.31-.07-.29-.06-.26-.05-.25-.04-.24-.03-.22-.02-.2-.02h-.19s-.18-.02-.18-.02h-.18s-.17,0-.17,0h-.16s-.17.01-.17.01h-.15s-.15.03-.15.03h-.15s-.15.03-.15.03l-.15.02-.15.02-.15.02-.16.03-.16.03-.16.03-.16.03-.16.03-.16.04-.17.04-.17.04-.17.04-.17.04-.18.05-.18.05-.18.05-.18.05-.19.06-.2.06-.21.06-.21.07-.22.07-.23.08-.24.08-.25.08-.26.09-.28.09-.29.1-.3.1-.32.11-.33.12-.34.12-.35.12-.35.12-.36.13-.37.13-.38.14-.38.14-.38.14-.38.14-.38.14-.38.14-.37.14-.38.14-.37.14-.36.14-.36.14-.37.14-.37.15-.39.15-.39.16-.39.15-.41.17-.42.17-.44.17-.46.18-.46.18-.47.19-.49.2-.51.21-.53.22-.55.22-.55.22-.54.22-.54.22-.53.22-.51.21-.48.19-.45.18-.4.17-.38.16-.36.15-.35.15-.34.14-.34.14-.33.14-.32.13-.32.13-.32.13-.32.13-.31.14-.3.13-.3.12-.3.12-.29.12-.29.12-.29.12-.29.11-.29.11-.29.11-.29.11-.29.1-.29.1-.28.09-.28.09-.29.09-.3.09-.31.09-.32.08-.34.09-.36.09-.38.09-.41.09-.43.09-.45.09-.47.09-.49.09-.51.09-.53.09-.55.08-.55.07-.55.07-.56.06-.58.06-.6.05-.61.04-.62.03-.62.02h-.63s-.65,0-.65,0l-.66-.03-.69-.03-.71-.05-.72-.06-.75-.08-.8-.09-.84-.1-.89-.11-.93-.13-.95-.14-.99-.15-1-.17-1.02-.18-1.03-.19-1-.2-.95-.21-.92-.22-.88-.23-.86-.23-.86-.24-.85-.24-.82-.24-.82-.24-.82-.24-.83-.24-.85-.24-.86-.23-.85-.22-.85-.21-.85-.21-.83-.21-.82-.21-.8-.21-.78-.21-.75-.23-.74-.23-.72-.24-.7-.26-.66-.26-.62-.26-.59-.27-.56-.27-.53-.27-.49-.27-.45-.26-.41-.26-.38-.24-.34-.24-.32-.23-.3-.22-.27-.22-.25-.2-.23-.2-.23-.2-.22-.2-.2-.19-.19-.19-.19-.18-.18-.19-.18-.19-.17-.19-.17-.2-.17-.2-.16-.2-.17-.21-.17-.22-.18-.23-.19-.25-.19-.26-.2-.27-.2-.28-.21-.3-.22-.32-.22-.33-.22-.34-.23-.35-.23-.37-.23-.38-.23-.39-.24-.41-.24-.42-.23-.42-.23-.43-.23-.44-.23-.45-.22-.46-.22-.45-.21-.45-.21-.45-.2-.47-.2-.48-.2-.48-.19-.49-.18-.48-.17-.48-.16-.49-.16-.5-.15-.51-.14-.51-.13-.51-.11-.51-.11-.51-.09-.52-.09-.52-.07-.52-.06-.5-.05-.5-.05-.5-.04-.5-.04-.5-.03-.48-.03-.46-.03-.46-.03-.47-.03-.47-.03-.48-.03-.47-.03-.46-.02-.46-.02-.46-.02-.46-.02-.46-.02-.46v-.47s-.02-.47-.02-.47v-.48s-.03-.48-.03-.48l-.02-.48-.02-.48-.03-.47-.03-.47-.05-.46-.06-.47-.07-.46-.08-.43-.1-.41-.11-.4-.13-.38-.14-.37-.15-.35-.16-.33-.16-.3-.17-.29-.18-.28-.18-.27-.2-.26-.2-.25-.21-.23-.21-.22-.22-.21-.23-.2-.23-.19-.23-.17-.23-.16-.24-.14-.24-.13-.24-.12-.25-.11-.24-.1-.25-.08-.25-.07-.26-.07-.26-.06-.26-.05-.26-.04-.26-.03-.26-.02h-.26s-.25,0-.25,0h-.24s-.24.02-.24.02l-.24.02-.23.03-.23.04-.24.04-.24.05-.24.06-.23.06-.23.07-.23.08-.24.08-.24.09-.25.1-.24.1-.25.12-.26.12-.27.13-.28.14-.3.15-.32.16-.33.17-.35.18-.37.19-.39.21-.41.22-.42.22-.43.23-.44.24-.45.24-.46.25-.45.24-.44.24-.42.23-.42.22-.41.22-.4.22-.4.21-.38.2-.38.2-.37.19-.37.18-.37.18-.37.17-.36.16-.37.15-.37.15-.38.14-.39.13-.38.13-.39.12-.39.11-.4.11-.4.1-.41.1-.4.09-.4.07-.4.07-.39.06-.39.05-.4.04-.39.04-.39.03-.4.02-.41.02h-.42s-.43.02-.43.02h-.43s-.44,0-.44,0l-.44-.02-.46-.03-.47-.04-.48-.05-.49-.06-.49-.08-.52-.09-.53-.11-.55-.13-.56-.14-.57-.17-.57-.19-.57-.22-.59-.24-.58-.27-.58-.29-.56-.31-.53-.34-.51-.35-.48-.37-.45-.38-.43-.39-.39-.39-.36-.38-.33-.39-.3-.39-.29-.4-.27-.41-.25-.4-.22-.4-.2-.4-.18-.41-.16-.42-.14-.43-.12-.43-.1-.44-.09-.45-.08-.47-.07-.49-.06-.51-.06-.51-.04-.53-.03-.54-.02-.56v-.57s-.01-.59-.01-.59v-.6s.01-.6.01-.6v-.61s.02-.61.02-.61l.02-.61v-.6s.02-.58.02-.58v-.56s-.01-.54-.01-.54v-.53s-.02-.31-.02-.31c.39-1.51.83-3,1.29-4.48.34-.17.63-.47.81-.91.74-3.25,2.28-6.4,4.29-9.12,1.48-2.04,3.06-4,4.62-5.98,1.18,2.07,2.55,4.02,4.3,5.65.97.76,1.93,1.62,3.01,2.18,1.55.5,3-1.18,2.26-2.64-.39-.84-1.28-1.3-2-1.82-2.22-1.93-3.81-4.27-5.11-6.79-.1-.19-.2-.38-.29-.58-.11-.22-.22-.44-.32-.67-.17-.36-.34-.72-.5-1.09-1.22-2.73-2.26-5.6-3.52-8.35-3.4-7.31-9.58-17.88-17.79-20.04-7.78-1.71-14.1,6.52-18.9,12.77h0s.12-.23.12-.23l.15-.3.16-.31.15-.32.14-.32.14-.33.14-.33.14-.34.13-.34.11-.32.1-.33.09-.32.08-.31.07-.32.06-.32.04-.3.03-.29v-.28s.02-.28.02-.28v-.28s-.03-.27-.03-.27l-.03-.26-.05-.25-.06-.24-.07-.24-.09-.23-.1-.23-.11-.22-.12-.22-.14-.22-.15-.22-.17-.21-.18-.21-.2-.2-.21-.18-.23-.17-.24-.17-.25-.15-.26-.13-.27-.11-.27-.09-.28-.07-.29-.07-.3-.05-.31-.03-.31-.02h-.32s-.33.02-.33.02l-.34.04-.34.05-.34.07-.34.09-.33.1-.34.12-.34.14-.33.15-.33.16-.33.17-.33.19-.33.19-.33.2-.34.22-.35.22-.36.23-.35.24-.37.25-.38.26-.39.27-.39.27-.37.26-.35.25-.28.2-.14.1h-.02s-5.22,9.12-5.22,9.12l-.04.15-.03.15-.04.15-.04.15-.04.14-.05.15-.05.15-.05.14-.06.14-.06.14-.06.14-.07.14-.07.14-.07.13-.07.13-.08.14-.08.13-.09.14-.09.13-.09.13-.1.14-.11.14-.11.14-.12.15-.13.16-.14.17-.15.18-.15.18-.16.19-.17.21-.19.22-.2.23-.21.25-.22.26-.24.28-.25.3-.27.32-.29.34-.3.37-.32.39-.34.41-.34.42-.33.43-.33.43-.32.44-.3.43-.27.41-.24.39-.2.36-.18.33-.16.31-.14.29-.13.28-.12.27-.12.26-.12.26-.13.27-.13.28-.14.3-.15.32-.16.34-.17.36-.18.39-.2.41-.21.44-.22.47-.24.5-.25.53-.26.56-.28.6-.29.62-.28.62-.29.62-.28.62-.28.62-.28.6-.21.47c2.44-8.44,7.73-16.26,12.26-23.56,8.43-11.86,24.49-35.98,41.57-29.85,9.6,3.28,15.57,12.64,20.92,21.25,4.98,8,9.43,15.35,15.79,16.58,9.57.17,19.08-.49,28.3,2.76-.43.3-.84.63-1.22,1-.73.71-1.36,1.46-1.92,2.32-.57.88-.98,1.91-1.24,2.93-1.02,3.94-.07,8.04,1.46,11.79.08.22.18.44.27.65,1.62,3.79,3.97,7.29,6.5,10.54,2.49,3.21,5.26,6.19,8.19,8.99,2.35,2.26,4.81,4.42,7.37,6.44,6.33,5.02,13.1,9.44,20.25,13.14,6.69,3.46,13.75,6.34,21.05,8,3.73.85,7.6,1.41,11.4,1.25,3.81-.16,7.76-.96,10.79-3.34,1.14-.93,2.13-2.05,2.84-3.32.93.38,1.95.66,2.68,1.15,7.45,3.46,14.62,6.98,22.02,10.7,13.42,6.99,27.88,11.45,42.41,15.25,9.79,2.84,19.83,4.55,29.94,5.18-.01.31,0,.65.04,1.02,3.9,10.91,26.57,9.74,35.56,5.77Z" fill="#f5c833"/><path d="M158.29,349.35c-.81-1.33-1.56-2.68-2.23-4.08-.49-1.09-.93-2.2-1.31-3.34-.25-.84-.46-1.68-.63-2.53-.08-.56-.15-1.11-.18-1.67-.02-.55,0-1.09.03-1.63.05-.38.11-.75.19-1.12.1-.37.21-.73.34-1.09.1-.24.21-.47.32-.7.14-.24.28-.47.43-.71.24-.32.49-.62.76-.91.23-.22.46-.43.7-.63.27-.21.54-.4.83-.59.44-.26.89-.49,1.35-.72.22-.09.44-.18.66-.26.33-.03.66-.14.94-.32.74-.2,1.48-.35,2.24-.48,1.04-.14,2.07-.22,3.12-.26,1.58,0,3.15.09,4.72.26,2.22.28,4.4.71,6.58,1.24,3.42.88,6.76,2.02,10.05,3.33.49.2.98.4,1.46.61.11,2.36.72,4.73,1.62,6.95.03.08.07.16.1.24.48,1.16,1.06,2.28,1.7,3.37.01.03.03.05.04.08.12.23.28.45.42.68.81,1.28,1.72,2.5,2.7,3.65l.11.14s.08.1.13.14c.2.23.4.46.61.68,2.46,2.69,5.33,5.06,8.45,6.92,3.19,1.9,6.61,3.38,10.21,4.2,3.53.8,7.26.94,10.72-.02.42-.12.84-.25,1.24-.4,1.06,1.17,2.1,2.37,3.11,3.61.42.53.86,1.08,1.28,1.64.94,1.27,1.84,2.57,2.69,3.91.72,1.17,1.51,2.59,2.21,4.06.48,1.06.92,2.13,1.28,3.23.25.82.46,1.64.63,2.47.11.62.18,1.25.22,1.88.02.48.01.96-.02,1.44-.04.43-.11.85-.2,1.27-.08.33-.17.65-.28.97-.12.31-.26.62-.41.92-.15.26-.31.51-.48.76-.18.24-.37.47-.58.7-.26.26-.53.51-.82.75-.3.23-.61.44-.92.64-.39.22-.79.42-1.19.62-.5.21-1,.39-1.52.55-.75.21-1.5.37-2.27.51-1.08.15-2.16.23-3.26.27-1.53.01-3.07-.09-4.6-.26-2.31-.29-4.6-.73-6.87-1.3-3.25-.84-6.44-1.93-9.58-3.17-4.29-1.75-8.44-3.78-12.51-6.03-4.39-2.49-8.61-5.24-12.69-8.23-3.65-2.73-7.17-5.63-10.46-8.79l-.17-.16c-2.42-2.34-4.78-4.89-6.98-7.59-1.44-1.83-2.8-3.71-4.05-5.68Z" fill="#f5c833"/><path d="M197.31,345.2h0c-.72-.96-1.38-1.95-2-2.97-.46-.82-.91-1.69-1.32-2.59-.35-.84-.65-1.69-.92-2.56-.13-.5-.25-1-.35-1.5h0c-.03-.13-.05-.26-.07-.4-.02-.13-.04-.27-.05-.4-.05-.41-.08-.81-.1-1.23,0-.55.02-1.09.06-1.63.03-.21.06-.42.1-.63.05-.33.12-.66.2-.98.09-.3.19-.59.29-.89.18-.41.37-.81.57-1.2.17-.27.34-.54.52-.8.19-.24.39-.48.59-.72l.07-.07c.06-.05.12-.11.17-.17,0,0,.02-.02.03-.03.27-.27.56-.51.85-.75.29-.2.57-.39.87-.58.51-.28,1.02-.53,1.55-.76.4-.14.8-.28,1.2-.4.62-.15,1.23-.28,1.86-.38.76-.09,1.52-.14,2.29-.15.93.02,1.85.08,2.78.19,1.05.16,2.09.38,3.12.65,1.31.38,2.6.84,3.86,1.36,1.24.55,2.44,1.17,3.62,1.84,1.3.78,2.55,1.63,3.76,2.56,1.05.84,2.06,1.72,3.03,2.67.1.1.21.21.31.31.76.76,1.63,1.77,2.45,2.81.7.92,1.35,1.87,1.95,2.86.48.83.91,1.68,1.3,2.56.35.83.66,1.68.92,2.54.19.67.34,1.34.46,2.02.08.56.13,1.13.15,1.7,0,.55-.01,1.1-.07,1.65-.06.43-.13.85-.23,1.27-.11.43-.25.85-.41,1.26-.15.34-.31.68-.48,1-.18.3-.37.59-.57.87-.25.32-.51.62-.79.92-.26.25-.52.48-.8.71-.19.14-.39.28-.58.41-.14.1-.28.19-.43.28-.4.23-.82.44-1.24.62-.13.05-.26.1-.39.15-.26.1-.53.19-.8.27-.13.04-.27.08-.41.12-.15.04-.31.07-.47.11-.47.1-.94.19-1.41.25-.77.09-1.55.14-2.33.14-.92-.02-1.85-.1-2.77-.22-1.04-.16-2.08-.39-3.1-.67-1.26-.37-2.5-.8-3.71-1.31-1.28-.57-2.52-1.2-3.73-1.91-1.24-.75-2.43-1.56-3.58-2.44-1.12-.88-2.19-1.82-3.2-2.81-.68-.69-1.33-1.4-1.95-2.13-.16-.19-.32-.39-.47-.58l-.21-.26Z" fill="#f5c833"/><path d="M341.79,420.23c1.31.04,2.63.07,3.94.07,7.53.44,15.11-.39,22.62.58,2.15.45,3.63,1.1,4.53,1.88-.19.02-.38.07-.58.16-8.13,3.44-24.35,5.18-30.77-2.39.1-.1.19-.21.26-.31Z" fill="#e0b72e"/><path d="M365.51,177.28c-.02-.05-.05-.1-.07-.15,0,0,0,.02.01.03l.02.05.05.11s-.01-.02-.02-.03Z"/><path d="M372.5,190.13h0s0,0,0,0Z"/><path d="M372.52,190.17s0,0,0,0c0,0,0,.01.01.02,0,0,0,0,0-.01Z"/><path d="M318.73,116.67c4.1,14.3,11.36,27.52,14.38,42.04,2.3,13.96,3.52,29.43,1.93,42.07l-.02.08-.08.37-.08.35-.08.37-.09.36-.08.37-.09.36-.1.37-.1.4-.11.41-.11.41-.12.42-.13.43-.13.43-.14.43-.15.43-.16.43-.15.42-.15.38-.15.38-.15.35-.14.34-.13.33-.13.32-.11.3-.1.3-.1.3-.09.3-.09.31-.09.32-.09.33-.09.34-.1.35-.09.37-.09.39-.1.4-.11.41-.11.43-.12.45-.13.46-.13.47-.14.48-.14.47-.14.46-.1.3c-.78,1.31-1.64,2.5-2.59,3.56-5.34,7.14-12.96,9.72-20.7,10.95,2.96,16.02,2.31,31.76,8.98,47.83,21.84,54.85,48.75,52.52,55.75,89.99,2.43,10.83,3.55,21.56,2.77,31.14-.68,3.51-.28,12.02-2.92,12.94-.45.15-.97.1-1.61-.23-3.92-3.18-2.22-15.96-3.59-21.41-2.35-17.93-8.29-40.49-21.94-35.06-24.06,4.58-41.03-51.58-45.9-82.03-1.73-13.27-2.76-26.36-9.52-33.88-10.08,14.02.58,32.01,2.01,54.26,1.24,14.55-1.52,28.55-9.54,31.55-1.53.57-3.24.75-5.16.45-19.91-3.77-39.76-43.5-42.46-72.33-1.03-5.57,2.45-7.34,4.8-1.22,3.65,8.25,6.47,17.08,10.8,24.81,5.1,8.72,15.47,20.35,20.02,13.7,1.59-4.93-.95-12.99-4.4-18.24-4.94-3.95-7.23-14.18-9.42-21.15-3.96-15.81-2.69-31.32,3.72-39.2,7.71-10.21,20.64-7.64,31.39-10.09,10.21-2.63,20.29-8.5,25.6-21.22,9.08-19.76-7.67-51.61-9.95-76.91-.48-6.47-.12-22.97,5.87-18.25,2.79,2.75,3.56,21.2,6.76,29.07Z" fill="#64cee9"/><path d="M397.65,277.62c10.27,13.71,6.95,27.07,3.31,37.68-.92,4.08-.96,8.92-2.08,12.82-2.42,9.91-10.56,11.44-14.29,19.44-2.26,5.12.26,17.92-4.15,19.49-.6.22-1.33.22-2.22-.03-3.86-2.44-4.24-9.82-4.69-14.33-1.19-31.04-17.53-37.24-30.06-52.11l-.45-.71-.66-1.04-.69-1.07-.71-1.12-.76-1.19-.8-1.24-.81-1.26-.82-1.26-.83-1.25-.82-1.23-.51-.76c-2.93-6.2-5.15-13.89-6.14-24-2.05-4.12-1.04-8.81-.9-12.54,1.14-12.5,8.73-17.89,9.56-30.78,1.13-9.43.7-19.22-.36-29.73-.37-5.91-1.99-12.64-1.08-17.86,3.2-6.31,8.87,6.9,10.61,12.86,1.68,5.73,2.13,11.51,2.01,16.78.23,6.31-1.98,11.86,0,18.71,7.22,17.24,3.9,28.1-.01,39.84-2.59,6.08,4.79,11.99,8.51,13.4,3.4.25,4.93-4.48,6.55-7.81,1.88-3.25-.5-5.68-1.01-9.83-.35-3.26,1.5-5.12,3.51-4.16,4.06,1.97,9.67,8.46,9.91,15.27-.67,6.78-4.04,10.8-6.23,15.9-.9,2.53-3.8,4.01-2.44,8.24,2.58,6.04,6.21,11.63,9.53,16.71,3.41,3.78,5.98.78,7.42-2.35,2.04-3.79,4.53-6.91,6.86-10.27,4.15-7.96-6.9-17.99-10.06-26.25-1.2-5.45,3.09-4.42,5.49-2.11,3.45,2.8,7.13,5.07,10.29,9.16Z" fill="#64cee9"/><path d="M380.03,200.65c-.01-.73-.17-1.4-.41-2.08-.44-1.21-1.05-2.37-1.64-3.52-.28-.53-.73-.92-1.25-1.14-.04-.14-.07-.27-.11-.41h0s0-.04,0-.05c-.9-2.75-2.46-5.24-3.96-7.69-1.41-2.29-2.88-4.54-4.29-6.82-1.06-1.71-2.1-3.43-3.13-5.16-1.08-1.8-2.15-3.61-3.23-5.42-.3-.49-.57-1.05-.92-1.5-.77-.96-2.05-1.39-3.22-.93-1.07.42-1.7,1.46-1.75,2.59-.07,1.88.62,3.73,1.19,5.49-.04-.12-.07-.23-.11-.35,1.36,4.28,3.28,8.38,5.34,12.37,1.43,2.76,3.05,5.44,4.75,8.06.06.1.13.2.2.3,1.1,1.69,2.27,3.32,3.58,4.86.75.88,1.51,1.77,2.36,2.57.53.5,1.07.98,1.68,1.38.78.51,1.76.69,2.65.45.25-.07.48-.16.71-.29.94-.54,1.63-1.62,1.61-2.72ZM443.39,264.25c4.16,2.92,12.07,9.07,10.11,16.47-4.09,6.06-16.88-4.63-22.9-9.16-12.52-9.35-23.87-23.8-33.39-40.64,9.68,22.72,22.38,44.28,28.23,68.59,4.53,20.02,4.35,35.18-10.15,32.7-3.08-.05-6.12,1.11-7.37,4.96-.67,2.19-1.33,6.51-3,7.11-.03.01-.07.02-.1.03-.68.18-1.52-.24-2.59-1.63-3.15-6.23-.79-12.54-.13-17.67,1.25-6.22,3.91-11.33,8.14-13.01.59-.24,1.18-.42,1.74-.58,2.74-.79,4.64-1.28,2.03-8.35-.29-.96-.27-1.89-.03-2.56-9.77-33.12-20.09-49.2-38.06-74.86-12.15-18.04-22.83-39.18-31.79-60.6-6.01-13.47-9.61-28.17-14.78-41.99-2.17-5.42-5.06-10.21-7.99-14.8-2.22-3.42-2.87-9.3.2-8.95,2.8.47,5.78,2.99,8.58,5.26,10.43,9.06,19.79,22.57,27.6,37.1,7.73,13.07,15.71,31.25,25.53,39.59-.71-2.59-1.58-6.14.22-6.83,4.47-.78,11.11,12.08,14.3,17.84,8.32,17.16,15.09,35.68,24.6,51.64,6.17,9.34,13.73,15.02,20.98,20.33Z" fill="#64cee9"/><path d="M463.39,121.75c1.98,3.84,4.36,7.95,5.15,12.38.5,5.14-3.55,4.94-6.08,1.91-8.09-9.78-13.31-10.95-21.71-13.31-12.93-3.75-25.42-16.89-36.13-32.55-1.85-2.53-3.75-5.05-5.72-7.32,1.43,9.27,6.55,17.49,10.5,25.44,2.36,4.1,2.06,8.88-.43,10.08-5.84,2.18-15.89-7.28-22.68-10.04-2.41-1.15-4.97-2.84-7.29-2.99-.44,4.77,3.93,9.78,6.3,13.5,6.31,8.59,13.32,16.43,18.44,26.92,3.91,7.87,7.44,16.2,9.87,24.84,2.61,9.16,5.3,19.59,11.06,26.24,11.43,9.88,19.47,8.93,28.83,29.19,5.2,10.82,8.87,22.54,13.4,33.72,2.37,4.86,3.28,10.15,1.06,10.97-.76.28-1.89.04-3.45-.92-6.27-4.36-12.16-12.64-16.84-20.86-40.43-31.13-37.43-57.68-64.5-103.39-10.29-16.54-22.23-29.94-33.94-43.29-5.8-6.68-11.7-13.16-17.26-20.5-11.74-20.85,23.49-10.31,29.23-8.18,2.83.98,5.73,2.43,8.58,4.07,3.64,1.31,10.96,9.66,11.61,1.95,1.04-17.18-15.43-31.7-21.93-46.18-2.16-4.93.57-8.13,3.16-7.88,2.04.03,4.24,1.71,6.34,3.1,6.39,4.48,12.28,11.78,18.39,17.76,6.65,6.81,13.26,13.9,19.5,21.98,17.14,22.45,20.11,31.91,41.02,36.73,5.67,2.7,11.25,9.12,15.52,16.66Z" fill="#64cee9"/><path d="M88.75,363.38c-.8,4.36-1.23,8.77-1.02,13.14-2.94-3.51-6.76-5.78-12.06-4.95-11.81.31-28.66,1.67-36.6-8.14-1.65-2.03-2.91-4.55-3.67-7.65-1.28-5.43-.82-10.63.62-15.61l.21-.47.28-.6.28-.62.28-.62.29-.62.28-.62.29-.62.28-.6.26-.56.25-.53.24-.5.22-.47.21-.44.2-.41.18-.39.17-.36.16-.34.15-.32.14-.3.13-.28.13-.27.12-.26.12-.26.12-.27.13-.28.14-.29.16-.31.18-.33.2-.36.24-.39.27-.41.3-.43.32-.44.33-.43.33-.43.34-.42.34-.41.32-.39.3-.37.29-.34.27-.32.25-.3.24-.28.22-.26.21-.25.2-.23.19-.22.17-.21.16-.19.15-.18.15-.18.14-.17.13-.16.12-.15.11-.14.11-.14.1-.14.09-.13.09-.13.09-.14.08-.13.08-.14.07-.13.07-.13.07-.14.07-.14.06-.14.06-.14.06-.14.05-.14.05-.15.05-.15.04-.14.04-.15.04-.15.03-.15.04-.15,5.22-9.11h.02s.14-.11.14-.11l.28-.2.35-.25.37-.26.39-.27.39-.27.38-.26.37-.25.35-.24.36-.23.35-.22.34-.22.33-.2.33-.19.33-.19.33-.17.33-.16.33-.15.34-.14.34-.12.33-.1.34-.09.34-.07.34-.05.34-.04.33-.02h.32s.31.02.31.02l.31.03.3.05.29.07.28.07.27.09.27.11.26.13.25.15.24.17.23.17.21.18.2.2.18.21.17.21.15.22.14.22.12.22.11.22.1.23.09.23.07.24.06.24.05.25.03.26.02.27v.28s0,.28,0,.28v.28s-.04.29-.04.29l-.04.3-.06.32-.07.32-.08.31-.09.32-.1.33-.11.32-.13.34-.14.34-.14.33-.14.33-.14.32-.15.32-.16.31-.15.3-.12.23c-.82,1.06-1.59,2.07-2.32,2.96-5.23,7.38-9.84,15.24-12.78,23.89-.97,3.12-2.68,6.77-2.35,10.24,1.49,9.31,14,9.3,21.23,9.25,6.14-.13,12.78.09,18.4,2.95Z" fill="#e0b72e"/><path d="M342.52,436.13l-.11.09c-15.19,1.47-30.86.17-45.93-1.92-17.32-2.17-33.56-9.67-51.01-11.36-1.37-.16-2.73-.21-4.07-.18.33-.16.66-.31,1.01-.45,1.12-.55,2.68-.36,3.45-1.44.96-1.32-.39-3.39-1.99-3.04-4.09.79-7.61,3.1-10.51,6-.02.01-.03.03-.04.04-1.62,1.9-3.2,3.68-4.76,5.34h0c-9.21,9.89-17.29,15.67-26.01,18.22-.24.07-.49.14-.73.2-.06.02-.12.03-.19.05-.23.06-.46.12-.69.18-.03,0-.06.01-.09.02-.27.07-.53.13-.8.19-11.48,2.52-24.33-.25-42.41-6.41-1.04-.37-2.08-.74-3.12-1.12-.41-.15-.82-.29-1.23-.44-.36-.13-.72-.26-1.08-.39-1.81-.66-3.61-1.33-5.4-2.02-.27-.1-.53-.2-.79-.31-.83-.32-1.66-.65-2.48-.99-.34-.14-.68-.28-1.02-.42-.71-.3-1.42-.6-2.13-.9-2.53-.58-8.99-5.8-11.05-3.72-.1.11-.19.23-.26.35-.06.09-.1.18-.13.27-.03.07-.05.14-.06.22-.02.09-.03.18-.04.27,0,.11,0,.22.02.33,0,.05.02.1.03.15.04.17.1.33.18.49.02.05.05.1.08.15.06.1.13.2.21.3t0,0c.35.42.85.75,1.4.86,2.77,1.27,5.93,2.94,8.83,4.19,13.19,5.53,27.09,10.21,41.11,12.97,7.36,1.64,14.24,1.5,20.66-.06.15.3.3.61.44.92.47,1.07.89,2.16,1.24,3.27.23.81.43,1.63.59,2.47.09.6.15,1.21.18,1.82,0,.47,0,.94-.04,1.41-.05.43-.12.87-.22,1.29-.08.32-.18.63-.28.95-.13.33-.28.66-.44.98-.14.24-.28.47-.43.7-.2.26-.4.51-.61.75-.27.28-.56.54-.85.8-.41.33-.84.63-1.28.91-.51.29-1.03.55-1.56.8-.73.3-1.47.55-2.22.77-.97.26-1.94.46-2.93.6-1.54.2-3.1.28-4.67.3-2.19,0-4.37-.14-6.55-.4-.21-.03-.43-.07-.64-.08-.04,0-.08-.01-.13-.02-.03,0-.05,0-.08-.01h0c-.07-.01-.13-.02-.19-.03-3.73-.52-7.42-1.29-11.07-2.23-5.89-1.55-11.67-3.54-17.35-5.8-.14-.06-.44-.18-.74-.3-7.39-3.02-14.59-6.51-21.61-10.36-.01,0-.25-.14-.49-.27-.69-.38-1.46-.82-2.23-1.26-7-3.99-13.79-8.37-20.31-13.13-5.68-4.18-11.15-8.63-16.31-13.47-2.81-2.66-5.5-5.43-8.03-8.36l-.53-.62c-.08-.1-.17-.19-.25-.3-.18-.22-.37-.45-.56-.68-.03-.04-.14-.18-.25-.31-1.64-2.04-3.18-4.15-4.61-6.34-.13-.21-.26-.42-.39-.63-.93-1.5-1.74-3.05-2.49-4.64-.4-.91-.79-1.84-1.08-2.79-.08-.27-.16-.54-.24-.81-.16-.63-.31-1.26-.44-1.9-.08-.56-.15-1.13-.2-1.7-.01-.59,0-1.18.04-1.77.05-.42.12-.85.21-1.26.08-.31.18-.61.28-.91.11-.29.24-.57.38-.85.21-.37.43-.71.66-1.06.21-.26.42-.51.65-.76.24-.24.49-.47.76-.69.4-.31.82-.59,1.25-.87.43-.24.86-.46,1.3-.67.72-.29,1.44-.55,2.18-.77.99-.26,1.98-.46,3-.62,1.61-.22,3.23-.31,4.86-.33.28,0,.56,0,.84.01.56,1.01,1.1,2.08,1.62,3.17.02.09.05.17.08.26,0,0,0,0,0-.01v.03s0-.01,0-.02c.68,1.27,1.13,3.66,2.21,4.89.03.04.07.08.1.11.03.03.06.07.1.1,0,0,.01.01.02.02.03.03.07.06.11.09.03.03.08.06.12.09.04.03.07.05.11.07,0,0,.02.01.03.02.03.02.07.04.1.06,0,0,.02.01.03.02.03.02.07.04.1.05h.03s.08.05.13.06c.04.02.08.03.12.04.15.04.3.06.46.06.06,0,.11,0,.18,0s.12-.01.18-.02c.07,0,.13-.02.19-.03.07-.01.13-.03.2-.05.15-.06.29-.15.42-.25.04-.03.08-.07.12-.11.04-.03.07-.07.11-.11.07-.08.13-.17.19-.25.02-.04.05-.07.06-.11.01-.02.02-.04.03-.05.02-.04.04-.08.05-.12.02-.04.03-.08.05-.12,0-.02.01-.04.02-.06.03-.08.05-.17.06-.25v-.04s.02-.09.02-.13c0-.12.01-.23,0-.35,0-.04,0-.09-.02-.12,0-.05-.02-.1-.03-.15,0,0,0,0,0-.01,0-.02-.01-.05-.02-.07,0,0,0-.02-.01-.03-.02-.07-.05-.14-.09-.2,0,0,0-.01-.01-.02-.03-.07-.06-.13-.08-.2-.51-1.14-1.04-2.35-1.6-3.57-.28-.77-.54-1.56-.76-2.35-.18-.65-.34-1.31-.47-1.98-.04-.17-.07-.33-.1-.5s-.06-.33-.09-.5c-.02-.13-.04-.26-.06-.39-.03-.2-.06-.41-.09-.62-.3-2.22-.37-4.47-.2-6.72.12-2.49.37-4.98.73-7.45.01-.08.02-.16.04-.24.03-.25.07-.49.11-.74.07-.4.13-.8.2-1.21.09-.49.18-.98.27-1.47.04-.2.08-.41.12-.61.37-1.85.8-3.69,1.29-5.51v.31s.02.53.02.53v.54s.01.56.01.56v.58s-.02.6-.02.6l-.02.61v.61s-.02.61-.02.61v.6s-.01.6-.01.6v.59s.01.57.01.57l.02.56.03.54.04.53.06.51.06.51.07.49.08.47.09.45.1.44.12.43.14.43.16.42.18.41.2.4.22.4.25.4.27.41.29.4.3.39.33.39.36.38.39.39.43.39.45.38.48.37.51.35.53.34.56.31.58.29.58.27.59.24.57.22.57.19.57.17.56.14.55.13.53.11.52.09.49.08.49.06.48.05.47.04.46.03.44.02h.44s.43,0,.43,0h.43s.42-.02.42-.02l.41-.02.4-.02.39-.03.39-.04.4-.04.39-.05.39-.06.4-.07.4-.07.4-.09.41-.1.4-.1.4-.11.39-.11.39-.12.38-.13.39-.13.38-.14.37-.15.37-.15.36-.16.37-.17.37-.18.37-.18.37-.19.38-.2.38-.2.4-.21.4-.22.41-.22.42-.22.42-.23.44-.24.45-.24.46-.25.45-.24.44-.24.43-.23.42-.22.41-.22.39-.21.37-.19.35-.18.33-.17.32-.16.3-.15.28-.14.27-.13.26-.12.25-.12.24-.1.25-.1.24-.09.24-.08.23-.08.23-.07.23-.06.24-.06.24-.05.24-.04.23-.04.23-.03.24-.02.24-.02h.24s.25,0,.25,0h.26s.26.02.26.02l.26.03.26.04.26.05.26.06.26.07.25.07.25.08.24.1.25.11.24.12.24.13.24.14.23.16.23.17.23.19.23.2.22.21.21.22.21.23.2.25.2.26.18.27.18.28.17.29.16.3.16.33.15.35.14.37.13.38.11.4.1.41.08.43.07.46.06.47.05.46.03.47.03.47.02.48.02.48v.48s.03.48.03.48v.47s.02.47.02.47l.02.46.02.46.02.46.02.46.02.46.03.46.03.47.03.48.03.47.03.47.03.46.03.46.03.48.04.5.04.5.05.5.05.5.06.5.07.52.09.52.09.52.11.51.11.51.13.51.14.51.15.51.16.5.16.49.17.48.18.48.19.49.2.48.2.48.2.47.21.45.21.45.22.45.22.46.23.45.23.44.23.43.23.42.24.42.24.41.23.39.23.38.23.37.23.35.22.34.22.33.22.32.21.3.2.28.2.27.19.26.19.25.18.23.17.22.17.21.16.2.17.2.17.2.17.19.18.19.18.19.19.18.19.19.2.19.22.2.23.2.23.2.25.2.27.22.3.22.32.23.34.24.38.24.41.26.45.26.49.27.53.27.56.27.59.27.62.26.66.26.7.26.72.24.74.23.75.23.78.21.8.21.82.21.83.21.85.21.85.21.85.22.86.23.85.24.83.24.82.24.82.24.82.24.85.24.86.24.86.23.88.23.92.22.95.21,1,.2,1.03.19,1.02.18,1,.17.99.15.95.14.93.13.89.11.84.1.8.09.75.08.72.06.71.05.69.03.66.03h.65s.63,0,.63,0l.62-.02.62-.03.61-.04.6-.05.58-.06.56-.06.55-.07.55-.07.55-.08.53-.09.51-.09.49-.09.47-.09.45-.09.43-.09.41-.09.38-.09.36-.09.34-.09.32-.08.31-.09.3-.09.29-.09.28-.09.28-.09.29-.1.29-.1.29-.11.29-.11.29-.11.29-.11.29-.12.29-.12.29-.12.3-.12.3-.12.3-.13.31-.14.32-.13.32-.13.32-.13.32-.13.33-.14.34-.14.34-.14.35-.15.36-.15.38-.16.4-.17.45-.18.48-.19.51-.21.53-.22.54-.22.54-.22.55-.22.55-.22.53-.22.51-.21.49-.2.47-.19.46-.18.46-.18.44-.17.42-.17.41-.17.39-.15.39-.16.39-.15.37-.15.37-.14.36-.14.36-.14.37-.14.38-.14.37-.14.38-.14.38-.14.38-.14.38-.14.38-.14.38-.14.37-.13.36-.13.35-.12.35-.12.34-.12.33-.12.32-.11.3-.1.29-.1.28-.09.26-.09.25-.08.24-.08.23-.08.22-.07.21-.07.21-.06.2-.06.19-.06.18-.05.18-.05.18-.05.18-.05.17-.04.17-.04.17-.04.17-.04.16-.04.16-.03.16-.03.16-.03.16-.03.16-.03.15-.02.15-.02.15-.02.15-.02h.15s.15-.03.15-.03h.15s.17-.02.17-.02h.16s.17,0,.17,0h.18s.18,0,.18,0h.19s.2.03.2.03l.22.02.24.03.25.04.26.05.29.06.31.07.33.09.34.1.37.11.38.14.4.15.4.17.41.18.41.19.4.2.4.2.39.21.39.21.37.21.36.2.35.2.34.2.32.19.32.18.3.18.29.17.28.17.27.16.27.16.27.17.26.17.27.17.28.18.3.19.31.21.33.21.34.22.36.23.37.23.37.23.38.23.38.23.38.22.37.21.36.2.35.19.34.18.33.17.32.16.3.15.3.14.29.14.29.13.3.12.3.13.31.12.33.12.36.11.41.11.46.1.51.08.56.06.61.04.65.02h.7s.73-.04.73-.04l.73-.05.73-.06.71-.08.7-.09.67-.1.65-.1.61-.1.57-.1.54-.1.5-.09.47-.09.44-.08.41-.07.38-.07.36-.07.34-.06.32-.06.31-.05.29-.05.28-.05.28-.04.28-.04.29-.04.32-.03.33-.03.34-.02h.36s.39,0,.39,0l.41.03.43.05.43.07.42.08.41.1.39.11.38.13.37.14.35.15.33.15.32.17.3.18.29.2.27.21.26.22.24.23.23.24.22.25.22.28.22.29.22.31.23.33.24.34.25.35.28.36.29.35.3.34.31.33.32.3.31.29.32.26.32.25.32.22.31.21.31.19.31.17.32.16.33.14.33.13.34.12.35.1.37.09.4.08.43.07.45.06.48.05.5.04.52.03.55.03.57.03.58.02.58.02.58.02.57.03.57.03.55.04.52.04.5.04.47.05.44.05.43.05.41.06.39.06.37.07.35.07.35.07.34.08.33.08.32.09.32.09.32.09.32.1.31.1.32.1.32.1.32.11.31.11.3.1.3.1.29.1.28.1.26.09.25.09.23.08.23.08.21.08.21.07.2.07.19.07.2.07.21.08.23.08.25.09.27.1.29.11.31.12.35.12.38.13.4.14.42.14.43.15.44.14.44.15.43.14.42.13.4.13.38.12.35.11.34.11.32.1.31.09.29.09.28.08.26.08.26.07.26.07.25.07.26.07.26.07.27.06.27.06.28.06.28.06.29.05.29.05.29.06.29.06.29.05.28.05.27.05.26.05.25.05.24.05.23.05.22.04.21.04.2.04.19.04.19.04.2.04.19.05.21.05.21.05.22.06.24.06.26.06.28.06.29.07.3.07.31.07.32.07.32.07.32.08.32.08.3.08.29.07.28.07.27.08.26.07.25.07.24.07.23.07.22.07.21.07.21.07.2.07.2.07.2.07.21.07.21.07.21.07.21.07.2.07.2.06.19.06.18.06.18.06.17.06.17.05.16.05.16.05.15.05.15.04.14.04.14.04.13.04.13.04.13.04.12.03.12.03.13.04.13.04.14.04.15.04.16.05.17.05.17.05.18.05.18.05.18.05.18.05.17.05.17.04.16.04.17.05.16.04.16.04.15.04.15.04.14.04.14.04.14.03.13.03.13.03.13.03.14.03.14.03.15.03.16.02.16.02.16.02h.17s.17.02.17.02h.17s.17.01.17.01h.17s.16,0,.16,0h.16s.15,0,.15,0h.15s.15-.02.15-.02h.15s.15-.03.15-.03l.16-.02.16-.02.15-.02.16-.03.16-.03.16-.04.16-.04.16-.04.16-.04.16-.04.15-.05.15-.04.16-.05.16-.05.15-.05.15-.05.15-.05.15-.05.14-.05.14-.05.13-.05.13-.05.13-.05.12-.05.12-.05.12-.05.12-.05.11-.04.11-.04.11-.05.11-.05.11-.05.11-.05.11-.05.11-.05.11-.04.11-.05.11-.04.11-.04.1-.04.1-.04.1-.03.1-.04.1-.03.1-.03.1-.03.1-.03.09-.03.1-.03.1-.02.1-.02.1-.02.1-.02h.1s.1-.03.1-.03h.1s.1-.02.1-.02h.1s.09,0,.09,0h.1s.1,0,.1,0h.09s.09,0,.09,0h.09s.09.02.09.02h.09s.09.03.09.03l.08.02.09.02.09.02.08.02.08.03.08.03.07.03.07.03.07.03.07.03.06.03.06.04.06.04.06.04.05.04.05.05.05.05.04.05.04.05.04.06.04.06.03.07.03.07.03.07.02.08v.09s.02.09.02.09v.09s0,.1,0,.1v.11s-.03.12-.03.12l-.03.12-.04.13-.05.14-.06.14-.07.14-.09.15-.1.15-.11.16-.12.16-.13.16-.14.16-.15.16-.17.17-.17.17-.18.17-.19.17Z" fill="#e0b72e"/><path d="M201.69,333.39c-1.04-1.61-.99-4.07.54-5.27,4.68-3.15,13.04.87,16.71,4.54,4.22,6.12-3.1,8.05-7.83,5.99-3.34-1.22-7.08-2.4-9.43-5.26ZM209.06,331.66c.4.19.8.36,1.21.53.73.28,1.48.52,2.23.74,0-.02-.02-.04-.03-.06-1.01-.67-2.26-.91-3.41-1.2Z" fill="#fff"/><path d="M161.46,338.49c-3.98-7.25,17.62-5.67,19.16-1.77,3.69.72,4.96,5.76.65,6.31-5.62-.41-16.14.28-19.81-4.54Z" fill="#fff"/><path d="M129.93,334.54c-1.99-3.63,2.81-4.38,5.29-4.66,2.52-.3,10.48-1.33,8.6,3.31.24,1.59-1.27,2.32-2.62,2.3-3.4.07-8.6,1.82-11.27-.95Z" fill="#fff"/><path d="M77.24,293.9c-.11-2.31,2.53-3.3,4.37-3.81,4.05-1.15,8.5-.37,12.31,1.49,6.65,3.35,5.21,10.68-2.48,6.94-3.05-1.39-6.37-1.81-9.65-2.03-1.78-.11-4.26-.36-4.54-2.59Z" fill="#fff"/><path d="M248.93,399.47c-.67-.99-.1-2.5.95-2.82,1.5-.62,2.65,1.07,4.01,1.49-.01,0-.02-.01-.02-.01,0,0-.02,0-.03-.01,2.34,1.17,4.76,2.15,6.98,2.95,1.43.43,3.53,1.07,3.03,2.99-.5,1.81-2.39,1.51-3.67.87-3.82-1.53-8.17-2.74-11.27-5.46Z" fill="#fff"/></svg>