<?xml version="1.0" encoding="UTF-8"?><svg id="a" xmlns="http://www.w3.org/2000/svg" viewBox="0 0 500 500"><path d="M241.67,195.74c-.03-.06-.06-.12-.08-.18,0,.01.01.02.02.03l.03.06.06.12s-.02-.03-.02-.04Z"/><path d="M249.75,210.61h0s0,0,0,0Z"/><path d="M249.78,210.65s0,0,0,0c0,0,0,.01.01.02,0,0,0,0-.01-.01Z"/><path d="M187.51,125.58c4.74,16.55,13.15,31.85,16.64,48.66,2.67,16.16,4.08,34.06,2.23,48.69l-.02.1-.09.42-.09.41-.09.42-.1.42-.1.42-.1.42-.11.43-.11.46-.12.47-.13.48-.14.49-.15.5-.15.5-.16.5-.17.5-.18.49-.18.48-.18.45-.17.44-.17.41-.16.39-.15.38-.15.37-.13.35-.12.35-.11.34-.11.35-.11.36-.11.36-.1.38-.1.39-.11.4-.11.43-.11.45-.12.46-.13.47-.13.49-.14.52-.15.53-.15.55-.16.55-.17.55-.17.53-.11.35c-.9,1.52-1.89,2.9-3,4.12-6.18,8.27-15,11.26-23.96,12.67,3.43,18.54,2.67,36.76,10.39,55.36,25.28,63.49,56.43,60.79,64.53,104.17,2.81,12.53,4.11,24.95,3.21,36.05-.79,4.07-.32,13.92-3.38,14.98-.52.18-1.13.11-1.86-.27-4.53-3.68-2.57-18.47-4.16-24.78-2.72-20.76-9.59-46.87-25.4-40.59-27.85,5.3-47.5-59.7-53.13-94.95-2.01-15.36-3.19-30.51-11.02-39.22-11.67,16.22.67,37.05,2.32,62.8,1.44,16.84-1.76,33.05-11.05,36.51-1.77.66-3.75.86-5.97.52-23.05-4.36-46.03-50.35-49.15-83.72-1.2-6.45,2.84-8.5,5.55-1.42,4.22,9.55,7.48,19.77,12.5,28.72,5.91,10.09,17.91,23.55,23.17,15.86,1.85-5.71-1.1-15.04-5.09-21.12-5.72-4.57-8.37-16.41-10.91-24.48-4.58-18.3-3.11-36.26,4.3-45.38,8.92-11.82,23.89-8.84,36.33-11.67,11.82-3.05,23.48-9.84,29.64-24.56,10.51-22.87-8.88-59.74-11.52-89.02-.56-7.48-.14-26.59,6.79-21.13,3.23,3.18,4.12,24.54,7.83,33.65Z" fill="#64cee9"/><path d="M278.86,311.88c11.88,15.87,8.05,31.34,3.84,43.61-1.07,4.72-1.11,10.32-2.41,14.84-2.8,11.48-12.23,13.24-16.54,22.5-2.61,5.93.3,20.74-4.8,22.56-.7.25-1.54.26-2.57-.04-4.47-2.82-4.91-11.36-5.43-16.58-1.37-35.93-20.29-43.11-34.8-60.32l-.52-.82-.76-1.21-.79-1.24-.82-1.3-.88-1.38-.92-1.44-.94-1.45-.95-1.45-.96-1.45-.95-1.42-.6-.88c-3.39-7.17-5.96-16.07-7.11-27.78-2.37-4.77-1.21-10.2-1.04-14.52,1.31-14.47,10.11-20.71,11.07-35.63,1.31-10.92.81-22.24-.41-34.41-.43-6.84-2.3-14.64-1.24-20.68,3.7-7.31,10.26,7.99,12.28,14.89,1.94,6.64,2.46,13.33,2.33,19.43.27,7.3-2.29,13.73,0,21.65,8.35,19.95,4.52,32.53-.01,46.11-3,7.04,5.55,13.88,9.85,15.51,3.94.29,5.71-5.19,7.58-9.04,2.18-3.76-.58-6.57-1.17-11.38-.41-3.77,1.74-5.92,4.06-4.81,4.7,2.28,11.2,9.79,11.47,17.68-.78,7.85-4.67,12.51-7.21,18.4-1.04,2.93-4.4,4.64-2.82,9.54,2.98,6.99,7.19,13.46,11.03,19.34,3.95,4.38,6.92.9,8.59-2.72,2.37-4.39,5.24-8,7.94-11.89,4.81-9.22-7.99-20.82-11.65-30.38-1.38-6.31,3.57-5.12,6.35-2.44,4,3.25,8.25,5.87,11.91,10.6Z" fill="#64cee9"/><path d="M258.47,222.79c-.02-.84-.19-1.62-.48-2.41-.5-1.4-1.22-2.75-1.9-4.07-.32-.62-.85-1.06-1.45-1.32-.04-.16-.08-.31-.13-.47v-.02s-.01-.03-.02-.04c-1.05-3.19-2.84-6.06-4.58-8.91-1.63-2.65-3.33-5.25-4.96-7.9-1.23-1.98-2.43-3.97-3.62-5.97-1.25-2.09-2.49-4.18-3.74-6.27-.34-.57-.66-1.21-1.07-1.74-.89-1.11-2.37-1.6-3.72-1.07-1.24.49-1.97,1.69-2.02,3-.08,2.18.72,4.32,1.37,6.36-.04-.14-.08-.27-.13-.4,1.57,4.96,3.79,9.7,6.18,14.31,1.66,3.2,3.53,6.3,5.49,9.33.07.12.15.23.23.35,1.27,1.95,2.63,3.85,4.14,5.63.87,1.02,1.75,2.05,2.73,2.97.61.57,1.24,1.14,1.95,1.6.9.59,2.04.79,3.07.52.29-.08.56-.19.82-.33,1.09-.62,1.88-1.87,1.86-3.15ZM331.81,296.41c4.81,3.37,13.97,10.5,11.7,19.07-4.74,7.01-19.54-5.36-26.5-10.6-14.49-10.82-27.63-27.55-38.64-47.04,11.2,26.3,25.9,51.25,32.68,79.4,5.25,23.17,5.04,40.72-11.75,37.85-3.57-.06-7.08,1.29-8.53,5.74-.77,2.53-1.54,7.53-3.48,8.23-.04.01-.08.02-.12.03-.79.21-1.76-.28-3-1.89-3.64-7.21-.92-14.52-.15-20.45,1.44-7.2,4.53-13.11,9.42-15.06.69-.28,1.37-.48,2.02-.67,3.17-.91,5.37-1.48,2.35-9.67-.34-1.12-.32-2.19-.03-2.97-11.31-38.34-23.25-56.95-44.05-86.65-14.06-20.88-26.42-45.35-36.79-70.14-6.95-15.59-11.12-32.61-17.11-48.6-2.51-6.28-5.86-11.81-9.24-17.14-2.57-3.96-3.32-10.77.24-10.36,3.24.55,6.69,3.46,9.93,6.09,12.07,10.49,22.9,26.13,31.94,42.94,8.94,15.13,18.19,36.17,29.55,45.83-.83-3-1.83-7.11.26-7.9,5.17-.9,12.86,13.99,16.55,20.65,9.63,19.87,17.46,41.3,28.47,59.78,7.14,10.81,15.89,17.38,24.28,23.53Z" fill="#64cee9"/><path d="M354.96,131.46c2.29,4.44,5.04,9.2,5.96,14.33.58,5.95-4.11,5.72-7.04,2.21-9.36-11.32-15.4-12.68-25.13-15.41-14.97-4.34-29.42-19.55-41.82-37.67-2.14-2.92-4.34-5.84-6.62-8.48,1.66,10.73,7.58,20.24,12.15,29.45,2.73,4.75,2.39,10.28-.5,11.67-6.76,2.52-18.39-8.42-26.26-11.63-2.79-1.33-5.76-3.29-8.44-3.46-.51,5.53,4.54,11.32,7.3,15.62,7.31,9.95,15.41,19.02,21.34,31.16,4.52,9.11,8.61,18.75,11.43,28.75,3.02,10.6,6.13,22.67,12.8,30.37,13.23,11.44,22.54,10.34,33.37,33.79,6.02,12.52,10.26,26.09,15.51,39.03,2.74,5.62,3.79,11.75,1.23,12.7-.88.33-2.19.05-3.99-1.07-7.26-5.05-14.08-14.63-19.49-24.15-46.79-36.03-43.32-66.76-74.65-119.68-11.91-19.15-25.73-34.65-39.29-50.11-6.71-7.73-13.54-15.24-19.98-23.73-13.59-24.14,27.19-11.93,33.84-9.47,3.28,1.14,6.63,2.82,9.93,4.71,4.21,1.51,12.69,11.18,13.43,2.25,1.2-19.89-17.86-36.69-25.38-53.46-2.5-5.71.66-9.41,3.66-9.13,2.36.04,4.91,1.98,7.34,3.59,7.4,5.19,14.21,13.63,21.29,20.55,7.7,7.88,15.35,16.09,22.57,25.45,19.84,25.98,23.27,36.94,47.48,42.52,6.56,3.12,13.03,10.56,17.97,19.28Z" fill="#64cee9"/></svg>