<?xml version="1.0" encoding="UTF-8"?><svg id="a" xmlns="http://www.w3.org/2000/svg" viewBox="0 0 500 500"><path d="M206.96,206.26c-.5-8.6-1.47-17.17-2.39-25.73-.61-4.52-1.08-9.05-1.45-13.57,1.38-.93,2.73-1.92,4.02-2.97.11-.09.23-.19.34-.28.5,6.5,1.17,12.98,1.92,19.45.79,7.51,1.61,15.02,2.05,22.56.04.62-.09,1.2-.49,1.69-.42.56-1.06.81-1.71.81-1.1,0-2.21-.74-2.29-1.97Z"/><path d="M168.96,195.62c.03.67.07,1.34.11,2.01-.62-2.24-1.27-4.47-1.82-6.72-.94-2.83-1.26-5.62-1.18-8.37.84-.14,1.67-.3,2.49-.46.11,4.51.23,9.03.4,13.55Z"/><path d="M169.92,207.25c-.07.04-.14.09-.21.14-.76.6-1.24,1.51-1.62,2.39-.25.57-.48,1.16-.7,1.75-.04.04-.09.07-.13.11-.04.04-.08.09-.12.13.08-.09.17-.16.25-.23-.21.57-.4,1.15-.59,1.73-.06.18-.11.35-.17.53-.22-.49-.4-1-.54-1.53.67-4.09,1.73-8.79,3.12-12.22.17,2.4.39,4.81.7,7.19Z"/><path d="M202.99,220.41c-4.8-1.24,9.74-20.08,11.23-23.21,6.17-12.35,18.03-10.87,27.17-2.66,5.55,6.26,8.83,5.96,15.86,2.1,13.39-6.89,16.14-8.15,26.25,4.26,4.52,8.41,12.83.09,18.75-2.21,4.5-2.16,9.87-5.65,14.63-2.21,5.02,3.5,7.27,9.62,10.03,14.86.51,1.12-.02,2.49-1.14,2.99-4.82,2.2-7.31-17.91-15.4-14.41-9.15,2.6-21.36,15.97-29.38,5.04-3.14-3.27-6.03-8.48-10.74-9.17-9.19,2.48-20.02,13.64-28.85,4.92-17.99-17.57-21.69-3.44-31.43,11.64-1.98,2.13-3.43,9.8-6.98,8.05Z"/><path d="M304.19,308.08c-.85-.81-.98-2.36-.07-3.19,8.92-8.16,18.37-15.81,27.24-24.02,4-4.33,11.13-8.93,12.64-14.45-2.62-13.45-8.94-25.65-14.14-38.17-2.73-6.25-5.55-12.46-8.65-18.53-.83-2.79-5.4-7.39-1.97-9.62,1.05-.47,2.34-.04,2.88.95,1.55,3.67,3.42,7.19,5.18,10.77,6.95,15.04,14.07,30.13,19.19,45.91,4.8,12.03.05,14.57-8,22.68-9.86,9.42-20.62,18.13-30.71,27.25-.89,1.06-2.53,1.51-3.6.44Z"/><path d="M303.59,304.31c.13-.24.3-.44.51-.61-.06.04-.11.09-.17.13,1.5-1.6,4.69.06,3.73,2.41-2.28,2.78-6.35,4.09-10.08,3.92.22-1.06.42-2.12.59-3.16.08-.45.15-.91.22-1.36,1.87.02,3.79-.53,5.53-1.81-.13.14-.24.3-.34.48Z"/><path d="M314.17,269.43c4.24-.95,4.42,4.98.13,4.52-5,.41-10.3,2.11-14.8,4.92-.15-1.65-.35-3.29-.59-4.92,4.71-2.55,10.03-4.07,15.27-4.52Z"/><path d="M316.03,273.72c-.46.21-1.04.3-1.73.22-1.44.12-2.91.35-4.38.68-5.61-5.46-8.57-14.04-8.5-21.94,1.65-1.69,3.29-3.47,4.8-5.36.46,1.85-1.07,4.49-.35,6.44.9,7.39,3.38,16.07,10.16,19.95Z"/><path d="M317.01,233.76c.51,3.34-1.24,6.76-2.81,9.64-4.51,7.28-10.4,14.84-17.73,19.5-.45-1.51-.95-3.01-1.49-4.49,1.6-1.24,3.15-2.55,4.65-3.92,5.6-5.6,11.74-12.18,13.07-20.25.37-2.1,3.48-2.48,4.31-.5Z"/><path d="M297.46,320.27c-1.16-.28-2-1.54-1.67-2.72.99-3.55,1.79-7.14,2.38-10.55,3.5-20.51,2.1-41.9-8.63-60-.73-1.46.3-3.38,1.97-3.38,2.4-.22,4.02,5.69,5.2,7.56,6.28,12.86,8.38,27.11,7.49,41.31-.23,3.74-1.82,29.75-6.74,27.78Z"/><path d="M297.97,337.43s.09-.09.14-.13c-.41.64-.83,1.28-1.26,1.91-.2.29-.4.59-.61.88-.02.03-.04.06-.06.09-.13.18-.26.36-.39.54-.12.17-.25.34-.37.5-.41.56-.84,1.1-1.27,1.64-.28.35-.57.69-.86,1.03-.37.43-.76.86-1.14,1.29-.96.14-1.84-.14-2.48-1.25-1.5-3.62,6.22-4.48,8.31-6.49Z"/><path d="M313.31,296.75c.55,1.54.96,3.19,1.23,4.92-1.39,1.21-2.78,2.43-4.16,3.66-.09-1.4-.25-2.79-.49-4.16-.05-.4-.16-.79-.29-1.18,1.23-1.08,2.47-2.16,3.71-3.24Z"/><path d="M195,355.21c2.57,1.35.37,5.42-2.18,3.96-11.98-6.04-26.88-14.5-26.13-29.88,0-.29,0-.61.01-.95,1.44,1.3,2.96,2.5,4.55,3.57,1.22,11.71,14.01,18.3,23.76,23.3Z"/><path d="M289,342.99c2.18-1.52,5.03-4.32,7.85-3.79-.86,1.25-1.76,2.47-2.71,3.65-.64.79-1.32,1.55-2,2.31-.71.8-1.42,1.61-2.08,2.45-.48.97-1.23,2.01-2.22,2.26.08.37.1.77.02,1.19-6.77,10.02-5.95,25.12-7.14,36.78-.08,1.23-1.28,2.14-2.47,2.02-1.25-.13-2.1-1.24-2.02-2.47.3-4.5.56-9,.95-13.5,1.07-10.98,2.8-23.48,11.84-30.92Z"/><path d="M188.65,420.75c-1.25-.13-2.12-1.24-2.02-2.47.9-13,.99-25.6.72-38.55-.11-4.61-.29-9.22-.51-13.82.34-3.31-1.79-9.71.88-11.92,5.14-1.94,2.76,5.92,3.48,8.63.37,7.2.65,14.41.76,21.62.12,9.19.01,18.4-.41,27.58-.66,2.73,1.16,8.8-2.89,8.94Z"/><path d="M276.07,411.4c-3.22-20.92-1.47-42.64,7.52-61.97,2.07-3.28,5.77-.2,3.71,3.01-6.01,13.17-8.72,27.73-8.16,42.19.14,5.48.73,10.92,1.43,16.35.31,2.88-4.23,3.36-4.5.42Z"/><path d="M226.93,216.55c-.43-2.21,2.14-3.17,3.47-4.43,6.18-4.94,12.96-9.13,20.31-12.08,2.76-1,4.33,3.16,1.57,4.24-7.9,3.23-15.13,7.93-21.61,13.41.06-.07.13-.13.19-.2.01-.02.03-.04.04-.06-1.04,1.5-3.66.93-3.98-.88Z"/><path d="M257.51,224.14c-.95-.78-1.05-2.26-.26-3.18.76-.77,1.85-.97,2.71-1.62,9.25-5.73,19.49-9.38,29.47-13.58,1.27-.57,2.51-1.2,3.72-1.9,2.6-1.36,4.7,2.58,2.1,4-3.23,1.86-6.74,3.2-10.18,4.61-6.7,2.64-13.38,5.34-19.63,8.94-2.41.87-5.38,4.51-7.92,2.73Z"/><path d="M166.23,212.72c.25-.3.51-.6.78-.89.12-.1.25-.18.38-.25-.2.56-.39,1.13-.58,1.7-.06.18-.11.35-.17.53-.16-.35-.3-.71-.41-1.09Z"/><path d="M170.47,232.24c2.43,12.01,7.17,23.75,5.52,36.25-.32,4.27-1.06,8.48-1.93,12.67-.44,1.88-.54,5.15-3.24,4.74-1.17-.21-2.1-1.41-1.83-2.61.91-4.16,1.8-8.35,2.28-12.59.35-3.37.49-6.77.42-10.16-.62-13.6-7.57-26.25-6.4-40.06-.19-3.87,2.74-24.35,7.77-25.28.35,1.29,1.02,3.07,1.27,4.64-.8,1.63-1.24,3.43-1.82,5.15-3.01,8.72-3.31,18.29-2.03,27.26,0-.03-.01-.06-.02-.1,0,.03,0,.06.01.09,0,.03.01.06.02.1,0-.03,0-.06-.01-.09Z"/><path d="M169.86,335.38c.1-2.93,4.66-2.75,4.52.17-.1,2.93-4.66,2.75-4.52-.17Z"/><path d="M176.5,339.65c-9.46-3.31-18.07-11.99-23.28-20.41-3.43-8.41-.7-18.1,1.12-26.64,1.34-5.14,3.1-10.15,4.34-15.32,1.99-7.76,2.36-16.17,7.04-22.96,1.5-2.33,3.29-4.43,5.31-6.31,2.14-1.96,5.23,1.36,3.05,3.34-2.18,2-4.01,4.36-5.47,6.93-3.19,5.37-3.49,11.71-4.96,17.65-1.41,6.56-3.78,13.02-5.37,19.49-1.26,7.3-4,15.84-.46,22.78,4.98,6.98,11.68,14.03,19.82,17.06,5.04-.67,3.48,5.9-1.13,4.4Z"/><path d="M193.91,258.62c-3.06-3.07-6.85-7.19-5.39-11.87.76-2.75,1.64-5.47,2.49-8.19.83-2.32,1.57-7.72,5.14-5.61-.23-.17-.49-.3-.76-.38,2.11.63,1.8,2.77.91,4.29-1.19,4.09-2.87,8.12-3.59,12.31.63,2.54,2.65,4.44,4.41,6.26,2.08,2.05-1.15,5.29-3.2,3.19Z"/><path d="M227.29,259.13c-5.8-6.06-7.48-14.92-6.21-23.01.35-2.02.5-5.05,2.94-5.58,1.22-.19,2.38.73,2.55,1.93.19,1.04-.65,1.69-.76,2.66-1.2,6.21-.8,13.18,2.88,18.51,1.01,1.65,3.69,3.49,1.79,5.49-.84.84-2.37.91-3.19,0Z"/><path d="M260.95,263.92c-4.99-1.04-9.17-4.41-10.56-9.41-.73-3.21-4.3-10.72-.14-12.47,2.34-.49,3.28,1.73,2.59,3.64,1.02,5.25,1.86,11.8,7.71,13.41,1.64.35,3.75,1.17,3.18,3.26-.32,1.19-1.62,1.91-2.78,1.58Z"/><path d="M218.59,435.93c-6.83-1.06-13.41-3.37-19.62-6.39-3.05-1.87-13.04-5.9-12.05-9.97.35-1.09,1.42-1.82,2.59-1.6.8.15,1.46.76,1.72,1.51,4.1,3.45,9.06,5.76,13.95,7.91,21.19,9.14,45.71,4.76,65.64-5.58,2.35-1.47,4.77-3.08,6.37-5.38.5-1.32.93-3,2.72-2.86,4.36.93.98,6.22-1.14,7.91-5.35,5.11-12.51,7.66-19.35,10.11-13.05,4.61-27.1,6.77-40.84,4.34Z"/><path d="M278.1,417.22c-3.36-8.72-4.11-18.2-3.1-27.43.36-2.06.21-4.55,1.61-6.22,1.66-1.5,4.17.06,3.77,2.1-.45,1.18-.62,2.42-.79,3.67-.92,7.51-.64,15.22,1.46,22.44.38,1.33.82,2.64,1.31,3.93,1,2.73-3.28,4.29-4.26,1.51Z"/><path d="M171.55,203.29c-1.04-.31-1.63-1.27-1.59-2.29-.84-3.38-1.88-6.7-2.72-10.09-4.76-14.37,6.18-27.64,7.55-41.72,1.07-13.29-.56-26.65.83-39.94.26-7.16,2.17-14.18,2-21.35-.06-4.75-1.39-9.53-.69-14.26,1.73-7.93,10.69-11.41,18.1-10.43,22.59,3.46,28.58,34.12,18.67,51.64-1.51,2.51-5.39.13-3.86-2.35,1.3-2.21,2.28-4.61,2.94-7.08,2.62-13.33-.15-30.95-14.16-36.67-5.49-2.11-13.46-1.6-16.6,4.05-.52,1.01-.89,2.13-.83,3.27.34,5.98,1.44,11.96.71,17.95-3.02,17.08-2.15,34.38-2.33,51.62-.02,13.34-8.32,25.06-9.18,38.2.41,3.66,1.56,7.22,2.5,10.77.55,2.76,3.76,9.08-1.36,8.67Z"/><path d="M203.78,170.67c-3.15-.72-1.43-4.47-1.06-6.61,1.21-4.96,2.69-10.3,3.78-15.07,3.12-12.98,4.21-27.56-2.56-39.55-1.72-2.02,1.02-5.02,3.14-3.3,9.57,14.7,6.68,33.63,2.4,49.69-.87,3.44-1.81,6.86-2.54,10.03-.49,1.91-.34,5.17-3.15,4.81Z"/><path d="M308.04,301.37c-.47,3.75-.01,7.58-.66,11.33-1.75,10.89-6.32,21.56-13.24,30.16-1.31,1.63-2.8,3.12-4.08,4.77-.69,1.38-1.91,2.91-3.61,2.07-4.51-2.34,4.7-9.37,6.09-12.11,6.68-9.77,11.06-21.45,10.79-33.35.21-.13.41-.26.61-.41.54-.58,1.3-.73,2.01-.58.7-.63,1.4-1.26,2.1-1.88Z"/><path d="M213.51,294.74c-9.54-3.2-18.41-8.08-27.3-12.68-2.14-1.47-.31-4.9,2.09-3.97,1.65.58,3.14,1.53,4.65,2.39,7.11,3.82,14.48,7.4,22.08,10.01,2.77,1,1.27,5.21-1.51,4.26Z"/><path d="M186.83,331.83c-1.19-.25-2.03-1.47-1.75-2.67.74-3.19,1.62-6.33,2.53-9.47,2.84-10.38,6.65-20.47,9.2-30.93.28-1,.38-2.07.78-3.03.93-1.88,3.86-1.46,4.23.61-.36,3.79-1.74,7.54-2.72,11.24-2.44,8.05-5.12,16.02-7.38,24.12-.79,2.78-1.57,5.56-2.21,8.38-.27,1.21-1.48,2.01-2.67,1.75Z"/><path d="M217.68,345.63c-15.76-1.76-6.61-26.42-2.7-35.45,3.25-5.91,7.36-13.38,14.72-14.31,4.13-.43,8.31,2.3,9.57,6.25,1.1,3.38.58,7,.51,10.5-1.44,11.15-8.28,33.31-22.1,33.01ZM218.32,341.15c10.15-.97,15.43-19.32,16.84-27.85.16-4.51,1.86-12.47-4.58-12.95-7.8.93-12.98,14.23-14.92,20.93-1.09,5.39-6.1,19.14,2.67,19.87Z"/><path d="M239.23,350.95c-1.12-.4-1.84-1.75-1.37-2.89,1.5-3.64,2.95-7.29,4.37-10.96,4.43-10.76,8.11-21.81,12.09-32.73.96-2.29,4.62-1.55,4.42,1-1.67,4.34-3.11,8.83-4.65,13.25-3.73,10.41-7.86,20.68-11.97,30.95-.46,1.16-1.73,1.8-2.89,1.37Z"/><path d="M253.45,327.78c-1.81-.26-3.57-.69-5.2-1.54-2.6-1.39-.56-5.34,2.08-4.01,2.18,1.13,4.72,1.23,7.13,1.32,4.92-.26,14.63-.77,15.84-6.7,0-2.15-1.11-4.58-3.14-5.51-3.16-1.7-6.62-2.7-10.07-3.59-2.11-.65-5.54-.25-4.64-3.58-.05.11-.07.24-.11.36.45-2.31,3.09-1.96,4.8-1.43,7.41,1.86,18,4.36,17.7,13.9-1.16,10.41-16.19,11.61-24.42,10.77,0,0,.04,0,.04,0Z"/><path d="M195.23,415.04c-6.07-1.33-11.89-5.4-14.29-11.26-2.23-5.65,1.07-12.6,6.93-14.31,3.6-1.45,4.73,3.71.97,4.49-8.38,4.16-2.33,12.92,3.98,15.63,1.31.54,2.13.72,3.38,1.04,2.87.67,1.9,5.04-.97,4.42Z"/><path d="M199.45,393.6c-4.36-1.39-8.7-3.3-11.88-6.69-4.93-4.84-.9-12.08,5.57-11.96,2.89-.44,3.65,3.9.78,4.45-1.61,0-3.94.57-4.08,2.5,1.69,4.38,7.08,5.97,11.14,7.45,2.77,1.02,1.24,5.22-1.54,4.25Z"/><path d="M264.53,391.04c-.06-1.21.92-2.33,2.15-2.36,2.5-.18,5.03-.48,7.43-1.25,5.19-2.4,10.77-10.82,1.89-12.46-2.76.14-3.26-3.96-.53-4.48,17.29,1.64,8.75,21.29-4.18,22.2-2.22.22-6.34,1.67-6.75-1.65Z"/><path d="M262.78,408.51c-1.88,0-3.75-.24-5.6-.58-2.86-.65-1.92-4.99.97-4.41,7.12,1.27,14.95-.38,20.88-4.53,2.1-1.65,4.16-3.93,3.21-6.75.1-2.31,3.56-2.79,4.34-.66-.02-.04-.03-.09-.05-.13-.04-.08-.09-.16-.13-.23,3.9,11.37-15,17.48-23.62,17.3Z"/><path d="M219.02,418.01c-3.12-.31-7.95-.96-8.87-4.5-.04-.98.59-1.97,1.55-2.26.93-.28,1.92.03,2.49.76,1,.73,2.2,1.13,3.41,1.31,1.86.47,4.79-.73,5.33,1.91.39,2.3-2.1,2.96-3.92,2.78Z"/><path d="M221.41,408.27c-2.59-.62-6.65-.61-7.67-3.57-.29-1.2.66-2.44,1.83-2.65.76-.13,1.51.13,2.02.64,1.52.65,3.18.87,4.8,1.16,2.88.65,1.91,4.99-.97,4.42Z"/><path d="M220.54,395.54c-3.44-.7-1.76-5.77,1.35-4.26,0,0,0-.01-.01-.02-.05-.02-.11-.05-.16-.07,2.68.87,1.55,4.97-1.18,4.34Z"/><path d="M240.76,393.87c-.11-2.95,4.33-3.15,4.51-.21.11,2.95-4.33,3.15-4.51.21Z"/><path d="M247.49,381.95c-.11-2.95,4.33-3.15,4.51-.21.11,2.95-4.33,3.15-4.51.21Z"/><path d="M238.56,415.25c-.11-2.95,4.33-3.15,4.51-.21.11,2.95-4.33,3.15-4.51.21Z"/><path d="M254.73,420.65c-2.3-1.18-1-4.74,1.51-4.26,4.23.41,2.18,5.98-1.51,4.26Z"/><path d="M266.93,420.94c-2.82-1.47-.31-5.65,2.29-3.88,2.3,1.54.2,5.16-2.29,3.88Z"/><path d="M168.33,184.5c-3.38-.41-1.85-4.49-1.05-6.55,1.55-3.26,4.48-5.69,7.5-7.55,2.41-1.26,7.17-2.89,9.66-1.51,1.51,1.18.68,3.9-1.26,3.97-4.85-.02-9.61,2.81-11.85,7.11-.71,1.71-.43,4.63-3,4.53Z"/><path d="M174.11,186.36c-2.1-.34-5.09.15-6.42-1.86-.59-1.1-.13-2.53.98-3.1.68-.38,1.5-.32,2.15.04,2.81.5,5.71.63,8.53.09,2.88-.6,3.87,3.74,1,4.41-2.07.38-4.14.53-6.24.42Z"/><path d="M177.92,196.79c-2.51,0-10.01-1.62-9.94-4.73.06-1.27,1.13-2.15,2.36-2.15.6,0,1.12.32,1.62.61,7.3,4.56,12.92-1.71,14.53,2.19,1.08,4.03-6.01,3.88-8.56,4.07Z"/><path d="M319.48,221.04c-2.82-.22-2-3.3-2-5.25-.24-4.58-1.12-9.41-3.72-13.27-.77-1-2.66-1.93-2.38-3.31.32-2.7,3.16-2.6,4.65-.85,4.57,4.66,5.77,11.82,5.96,18.12,0,1.81-.04,4.65-2.52,4.55ZM315.9,199.42c.02-.59-.2-1.19-.61-1.63.39.43.61,1.01.61,1.63Z"/><path d="M336.69,272c-3.07,0-3.19-4.64-.04-4.59,2.88.21,5.81-1.38,7.55-3.64,1.86-2.25,5.34.7,3.44,2.92-.81,1.02-1.76,1.94-2.81,2.71-2.37,1.64-5.25,2.59-8.14,2.61Z"/><path d="M191.68,92.73c.34-5.06-.28-9.52-.98-14.4-.6-4.1-1.65-9.15,2.12-12.08,4.65-4.21,8.23,2.87,2.93,3.44-2.65,2.54-.09,8.29-.1,11.64.48,3.78.8,7.59.54,11.4-.01,2.95-4.53,2.95-4.52,0Z"/><path d="M177.05,75.37c0-1.2.99-2.21,2.17-2.26,4.3-.8,8.66-1.36,13.05-.93,2.87.36,2.33,4.78-.51,4.49-3.01-.23-6.03-.1-9,.43-2.03.38-5.54,1.4-5.71-1.72Z"/><path d="M178.63,96.93c-.74-4.92,12.5-5.5,15.79-4.56,1.89.41,2.23,3.24.54,4.13-1.81.74-3.99-.43-5.88,0,.06,0,.13,0,.19-.01.02,0,.04,0,.07,0-2.43.13-4.84.58-7.04,1.64-1.18.99-3.33.35-3.66-1.2Z"/><path d="M191.06,80.86h-.05s-.06,0-.06,0h-.06s-.06.01-.06.01h-.06s-.06.02-.06.02h-.05s-.04.02-.04.02h-.04s-.04.02-.04.02h-.04s-.04.01-.04.01h-.04s-.04.02-.04.02h-.04s-.05.02-.05.02h-.05s-.05.02-.05.02h-.05s-.05.02-.05.02h-.06s-.06.03-.06.03h-.06s-.07.03-.07.03l-.07.02-.08.02-.08.02-.09.02-.1.03-.1.03-.1.03-.11.03-.11.03-.11.04-.12.04-.12.04-.11.03-.11.03-.11.03-.11.03-.11.02-.1.02h-.1s-.1.03-.1.03h-.1s-.1.01-.1.01h-.1s-.1,0-.1,0h-.32s-.11,0-.11,0h-.12s-.12,0-.12,0h-.12s-.12,0-.12,0h-.12s-.12.02-.12.02h-.11s-.11.03-.11.03l-.1.02-.1.02-.09.02-.09.02-.09.02-.09.03-.09.02-.09.02-.09.02-.1.02-.1.02-.11.02-.12.02-.13.02-.14.02-.15.02-.16.02-.18.02-.19.02-.21.02-.22.02-.24.02-.25.03-.26.03-.26.04-.25.04-.21.03-.11.02h0c-.15-1.65-.32-3.3-.44-4.95.53-.09,1.03-.21,1.47-.29,2.54-.45,5.12-.61,7.69-.5.09.59.18,1.17.26,1.73.12.86.24,1.7.36,2.54Z" fill="#ff6a52"/><path d="M303.16,309.3c-.07.86-.17,1.72-.29,2.57v-.07s-.05-.21-.05-.21l-.04-.22-.04-.22-.04-.22-.04-.22-.04-.22-.05-.23-.05-.23-.05-.23-.04-.19h0s0-.04,0-.06c.25-.08.49-.16.74-.25Z" fill="#fff6df"/><path d="M198.35,270.74v-.34s-.01-.18-.01-.18l-.02-.19-.02-.19-.02-.19-.03-.2-.04-.2-.04-.21-.05-.22-.05-.22-.06-.22-.06-.22-.06-.22-.07-.22-.07-.22-.07-.21-.07-.21-.07-.2-.07-.19-.08-.19-.07-.18-.07-.17-.07-.16-.07-.16-.07-.15-.07-.15-.07-.15-.07-.14-.07-.14-.07-.14-.07-.14-.07-.14-.07-.14-.07-.13-.07-.13-.07-.13-.06-.12-.06-.12-.06-.12-.06-.11-.06-.11-.06-.11-.06-.11-.06-.11-.06-.11-.05-.11-.06-.11-.05-.11-.05-.11-.05-.12-.06-.12-.06-.13-.06-.13-.06-.14-.07-.15-.07-.16-.08-.16-.08-.17-.09-.17-.09-.18-.09-.18-.09-.18-.1-.19-.09-.19-.09-.19-.09-.18-.09-.18-.09-.18-.09-.18-.08-.17-.08-.17-.08-.16-.08-.16-.07-.16-.07-.16-.08-.16-.07-.15-.08-.16-.02-.05c.25.25.49.49.72.73,2.05,2.09,5.28-1.15,3.2-3.19-1.76-1.83-3.77-3.73-4.41-6.27.72-4.19,2.4-8.22,3.59-12.31.89-1.52,1.2-3.65-.91-4.29.28.08.53.21.76.38-2.01-1.19-3.12,0-3.86,1.69l-.1.06-.39.25-.38.25-.37.25-.35.24-.33.23-.3.23-.29.22-.27.21-.26.21-.24.2-.22.2-.2.19-.19.19-.18.19-.17.19-.16.19-.16.2-.15.2-.14.2-.14.21-.14.22-.14.23-.14.24-.14.25-.14.27-.14.3-.14.33-.13.35-.12.37-.11.39-.1.4-.09.42-.07.42-.06.41-.05.39-.04.38-.03.36-.02.35-.02.34v.31s-.02.3-.02.3v.28s0,.27,0,.27v.51s0,.24,0,.24v.23s0,.21,0,.21v.21s0,.2,0,.2v.19s.01.19.01.19v.18s0,.17,0,.17v.17s0,.17,0,.17v.17s0,.17,0,.17v.16s.01.16.01.16v.16s.01.16.01.16v.17s.01.17.01.17v.18s.01.18.01.18v.19s.01.2.01.2v.21s.02.21.02.21v.21s.02.22.02.22v.23s.04.24.04.24l.03.24.03.24.03.24.04.23.04.23.04.22.05.21.05.2.05.19.05.19.05.17.05.17.05.16.05.16.04.15.04.15.04.15.04.16.05.16.04.16.05.17.04.18.05.19.05.21.05.21.05.22.05.22.05.23.05.23.05.23.05.23.05.22.05.22.05.21.04.21.04.2.04.2.04.2.04.19.04.19.04.19.04.19.04.2.04.21.04.21.04.22.05.23.05.24.06.25.06.26.07.26.07.26.07.25.08.24.08.24.08.22.07.21.07.19.07.18.06.17.06.16.06.15.06.15.06.14.06.14.06.14.06.14.06.14.06.14.06.14.07.14.07.15.07.15.07.15.07.15.07.14.07.14.07.14.06.14.06.13.06.12.06.11.05.11.05.11.05.1.05.1.05.09.05.09.04.09.05.09.05.09.05.09.05.09.05.08.05.09.06.09.06.09.06.09.06.09.06.08.06.08.06.08.06.08.06.08.06.08.06.08.07.08.07.08.07.08.08.08.08.08.08.08.09.08.09.08.1.09.1.09.11.09.11.09.12.09.12.09.13.09.13.09.13.09.13.09.13.08.13.08.13.08.13.07.12.07.12.07.12.07.11.06.12.06.11.06.11.06.11.05.11.05.11.04.11.04.11.04.11.04.11.03.11.03.11.03.11.02.1.02.1.02h.1s.1.03.1.03h.1s.1.02.1.02h.1s.1,0,.1,0h.1s.1,0,.1,0h.1s.1-.03.1-.03l.1-.02.09-.03.09-.03.09-.04.09-.04.09-.04.09-.05.08-.05.08-.06.08-.06.07-.07.07-.07.07-.08.06-.09.06-.09.06-.1.05-.1.05-.11.04-.11.04-.11.03-.12.03-.13.02-.14.02-.14v-.15s.02-.16.02-.16ZM213.51,294.74c2.79.95,4.29-3.26,1.51-4.26-7.59-2.61-14.97-6.19-22.08-10.01-1.51-.86-3-1.81-4.65-2.39-2.4-.92-4.23,2.51-2.09,3.98,3.61,1.86,7.21,3.78,10.85,5.6-.08.37-.15.74-.26,1.1-2.55,10.46-6.36,20.55-9.19,30.93-.91,3.14-1.79,6.29-2.53,9.47-.28,1.2.56,2.42,1.75,2.67,1.19.26,2.4-.54,2.67-1.75.65-2.82,1.42-5.59,2.21-8.38,2.26-8.1,4.94-16.07,7.38-24.12.69-2.6,1.57-5.23,2.16-7.87,3.99,1.89,8.06,3.62,12.25,5.02ZM230.49,259.13c1.89-2-.79-3.84-1.79-5.49-3.68-5.33-4.08-12.3-2.88-18.51.11-.96.95-1.62.76-2.66-.16-1.2-1.33-2.12-2.55-1.93-1.26.27-1.9,1.2-2.29,2.32l-.35.02-.35.03-.34.04-.33.05-.32.06-.31.06-.3.07-.29.08-.29.08-.28.09-.28.1-.27.11-.25.11-.24.11-.24.11-.23.12-.22.12-.21.12-.21.12-.2.12-.19.12-.19.12-.2.13-.2.14-.2.14-.2.15-.21.16-.21.16-.21.18-.21.18-.2.18-.2.19-.19.19-.19.21-.18.21-.17.22-.17.22-.16.23-.16.24-.15.26-.14.27-.13.28-.12.29-.11.29-.1.29-.09.31-.08.31-.07.3-.07.3-.06.29-.06.29-.06.29-.06.29-.06.29-.06.29-.06.29-.06.29-.07.29-.07.29-.08.29-.07.29-.07.29-.08.3-.07.31-.07.32-.06.33-.05.34-.05.34-.04.36-.02.37v.38s-.02.37-.02.37v.73s.02.36.02.36l.02.36.02.36.02.34.02.34.02.34.02.34v.36s.03.36.03.36v.37s.02.37.02.37v.38s.03.39.03.39l.02.4.03.41.04.42.05.41.06.41.07.41.08.41.09.4.09.38.09.37.09.35.09.33.09.32.09.3.08.29.07.27.07.25.06.24.06.23.06.22.05.21.05.2.05.19.04.18.04.19.04.19.04.19.04.19.04.2.04.2.04.21.04.22.04.22.04.22.04.22.04.22.04.22.05.22.05.21.05.21.05.2.05.2.05.19.05.19.05.19.06.18.06.18.06.18.06.18.06.18.07.18.07.18.07.18.08.19.09.19.09.19.09.19.1.19.1.18.1.18.11.18.11.18.12.18.12.17.11.16.12.16.12.15.12.15.12.14.11.14.11.13.11.12.11.12.11.12.11.11.11.11.1.11.1.1.11.1.11.1.11.1.1.1.1.09.1.09.1.09.11.09.1.09.1.08.09.07.09.07.09.07.09.07.09.06.09.06.09.06.09.06.09.06.09.06.09.05.09.05.09.05.09.05.09.05.09.05.09.05.09.04.09.05.09.04.1.04.1.04.09.04.09.04.09.03.09.03.09.03.09.02.09.02.09.02h.09s.09.02.09.02h.09s.1,0,.1,0h.2s.1-.02.1-.02h.11s.11-.04.11-.04l.11-.03.11-.03.11-.04.12-.05.12-.06.12-.07.12-.07.12-.08.13-.09.13-.1.12-.11.13-.12.12-.13.13-.13.12-.14.12-.15.12-.15.12-.16.12-.17.12-.17.12-.18.11-.18.11-.18.11-.19.11-.19.11-.19.1-.19.1-.18.1-.18.1-.18.09-.18.09-.17.09-.17.09-.16.09-.16.09-.17.09-.17.09-.17.09-.17.09-.17.08-.18.08-.18.08-.19.08-.19.08-.19.07-.19.07-.18.07-.19.07-.19.07-.19.06-.18.06-.18.06-.18.06-.19.06-.19.06-.19.06-.19.07-.19.06-.19.07-.2.07-.21.07-.21.07-.21.07-.21.07-.21.07-.21.07-.21.07-.21.06-.21.06-.2.06-.2.06-.2.06-.2.05-.19.05-.19.05-.19.04-.19.04-.19.04-.2.03-.19.02-.15c.86.56,2.09.41,2.82-.32ZM239.78,312.62c.07-3.5.6-7.12-.51-10.49-1.26-3.95-5.44-6.69-9.57-6.25-7.36.93-11.47,8.4-14.72,14.31-3.91,9.03-13.06,33.7,2.7,35.45,13.81.3,20.65-21.86,22.1-33.01ZM263.73,262.34c.57-2.09-1.54-2.91-3.18-3.26-.19-.05-.38-.11-.56-.18-4.3-1.5-5.67-5.87-6.56-10.17h0c-.21-1.04-.4-2.07-.59-3.06.69-1.91-.25-4.13-2.59-3.64-.66.28-1.13.7-1.44,1.24l-.08-.09h0s-.09.16-.09.16l-.16.26-.2.31-.21.34-.2.34-.19.34-.19.32-.18.31-.17.3-.16.3-.16.29-.16.28-.15.27-.15.27-.16.28-.16.28-.16.28-.16.28-.16.29-.16.29-.16.29-.16.3-.16.3-.15.29-.15.3-.15.29-.14.31-.14.31-.13.31-.12.3-.11.3-.1.3-.09.3-.09.29-.09.28-.08.27-.07.26-.08.26-.07.27-.08.27-.07.27-.08.27-.08.27-.08.27-.08.28-.08.29-.07.29-.07.29-.07.29-.06.29-.06.29-.05.29-.04.29-.04.28-.03.27-.02.26-.02.27v.26s-.02.26-.02.26v.25s0,.24,0,.24v.24s.01.23.01.23v.23s.03.22.03.22v.21s.03.2.03.2l.02.2.02.19.02.19.02.19.02.19.02.18.02.18.02.18.03.18.02.17.02.16.02.16.02.15.02.15.02.14.02.14.02.14.02.14.02.14.02.15.03.16.03.17.03.18.03.18.03.2.04.21.04.22.04.23.04.23.04.23.04.23.05.23.04.23.05.23.04.22.04.21.04.2.04.2.04.19.04.19.04.18.04.18.04.18.04.18.04.18.05.19.05.18.05.19.06.19.06.19.06.19.06.19.07.19.06.19.07.18.07.18.07.17.07.17.07.16.07.16.06.15.07.15.07.16.08.16.08.16.08.16.09.16.09.16.1.17.11.17.11.17.12.17.12.17.12.17.13.16.13.16.13.15.12.14.12.14.13.13.13.12.13.12.13.11.13.11.13.11.14.1.14.1.15.1.16.1.16.09.17.09.18.09.19.09.2.09.21.09.22.09.22.09.23.09.24.09.24.09.25.08.25.08.26.08.26.07.27.06.26.06.26.05.26.04.25.03.25.02.25.02h.24s.23,0,.23,0h.22s.21-.02.21-.02l.2-.02.19-.03.19-.03.18-.04.17-.04.16-.05.16-.05.16-.06.16-.06.16-.07.15-.08.16-.09.16-.1.16-.11.16-.12.17-.13.17-.14.17-.15.17-.16.17-.16.16-.16.16-.16.15-.16.15-.16.14-.17.14-.17.13-.17.12-.16.11-.16.11-.17.1-.17.1-.17.09-.17.08-.17.07-.17.06-.17.06-.16.05-.17.04-.16.04-.16.04-.16.03-.16.03-.16.03-.16.02-.16.02-.16.02-.15.02-.16.02-.16.03-.16.03-.15.03-.15.03-.15.03-.15.03-.15.03-.15.04-.14.04-.14.03-.14.04-.14.04-.14.04-.14.04-.13.04-.14.04-.14.04-.14.04-.14.04-.14.04-.14.04-.14.04-.14.04-.14.04-.15.04-.15.04-.14.04-.14.04-.14.04-.14.04-.14.04-.14.04-.14.04-.13.03-.13.03-.12.03-.12.03-.12.03-.11.03-.11.03-.1.03-.1.02-.09.02-.09.02-.09.02-.08.02-.08.02-.08.02-.07.02-.07.02-.07.02-.07v-.06s.03-.06.03-.06v-.06s.03-.06.03-.06v-.06s.03-.06.03-.06v-.06s.02-.06.02-.06v-.06s.03-.06.03-.06v-.06s.02-.06.02-.06v-.06s.02-.06.02-.06v-.06s.01-.06.01-.06v-.06s.01-.06.01-.06v-.06s.01-.06.01-.06v-.06s.01-.06.01-.06v-.06s0-.06,0-.06v-.06s.01-.07.01-.07v-.07s.01-.07.01-.07v-.08s0-.04,0-.04c1.04.08,2.08-.6,2.36-1.65ZM277.83,317c.3-9.53-10.3-12.03-17.71-13.9-1.13-.35-2.65-.62-3.69-.1-.86,0-1.72.42-2.12,1.37-2.21,6.06-4.32,12.15-6.53,18.22-.51.51-.8,1.26-.72,1.98-1.54,4.2-3.13,8.39-4.84,12.53-1.42,3.67-2.87,7.32-4.37,10.96-.47,1.14.25,2.49,1.37,2.89,1.15.43,2.42-.21,2.89-1.37,2.97-7.42,5.95-14.84,8.78-22.32.82.23,1.66.39,2.52.51h0c8.23.84,23.25-.36,24.42-10.77ZM343.6,264.47c-1.76,1.88-4.39,3.13-6.95,2.94-3.14-.05-3.03,4.59.04,4.59,1.59,0,3.17-.3,4.67-.83-2.86,3.51-7.19,6.67-9.99,9.69-5.87,5.44-11.99,10.63-18.05,15.88-1.24,1.07-2.48,2.15-3.71,3.24-.52.46-1.04.92-1.56,1.38-.7.62-1.41,1.25-2.1,1.88-.04-.01-.09-.02-.13-.02-.04,0-.09-.01-.13-.02-.16-.02-.33-.02-.49,0-.06,0-.11.01-.17.02-.07.01-.13.03-.2.05-.33.09-.64.27-.89.55-.2.15-.4.28-.61.41-.05.04-.11.07-.16.1.64-5.36.95-10.36,1.04-11.84.04-.56.06-1.11.09-1.66h.03s.07.04.07.04l.07.02.07.02.07.03.07.03.08.03.08.03.08.03.09.03.09.03.09.03.09.03.1.03.1.03.11.03.11.02.11.02.12.02.13.02.13.02.14.02h.14s.15.03.15.03h.16s.16.03.16.03h.17s.18.02.18.02h.19s.19.01.19.01h.4s.21,0,.21,0h.2s.21-.02.21-.02h.21s.21-.04.21-.04l.21-.02.21-.02.22-.03.22-.03.22-.04.22-.04.23-.04.23-.05.23-.05.23-.06.23-.06.23-.07.23-.08.23-.08.22-.09.22-.09.22-.1.22-.1.21-.11.21-.11.2-.11.2-.11.19-.11.19-.11.19-.11.18-.11.17-.11.16-.11.16-.11.15-.1.15-.1.14-.1.12-.09.12-.08.11-.07.1-.07.1-.07.09-.06.08-.06.07-.05.07-.05.07-.05.07-.05.07-.05.07-.05.07-.04.07-.05.07-.05.07-.05.08-.05.08-.05.08-.05.09-.06.09-.06.09-.06.09-.06.1-.06.1-.06.11-.07.11-.07.11-.08.12-.08.13-.09.13-.09.14-.09.15-.1.16-.1.16-.11.17-.11.17-.12.19-.13.19-.13.2-.14.21-.15.21-.15.21-.15.21-.16.21-.16.21-.16.21-.16.2-.16.19-.16.19-.16.18-.15.17-.15.16-.15.15-.14.14-.14.14-.14.14-.14.14-.14.14-.14.14-.14.14-.14.14-.14.14-.15.14-.15.14-.15.14-.15.14-.16.14-.16.14-.16.14-.17.13-.17.13-.17.13-.17.12-.18.12-.18.12-.19.11-.19.11-.2.11-.2.11-.21.11-.22.11-.23.1-.24.1-.24.1-.25.1-.26.1-.27.1-.28.09-.29.09-.29.09-.3.08-.3.08-.3.07-.31.06-.3.06-.29.04-.28.04-.27.03-.26v-.24s.03-.24.03-.24v-.22s0-.21,0-.21v-.21s-.02-.2-.02-.2v-.2s-.03-.19-.03-.19l-.02-.19-.02-.2-.02-.2-.02-.21-.02-.21-.02-.22-.02-.22-.02-.23-.02-.23-.02-.24-.02-.24-.02-.23-.02-.22-.02-.21v-.21s-.03-.19-.03-.19v-.18s-.01-.18-.01-.18v-.17s0-.16,0-.16v-.44s0-.14,0-.14v-.14s0-.14,0-.14v-.15s.01-.14.01-.14v-.15s.01-.14.01-.14v-.14s.01-.14.01-.14v-.14s.01-.14.01-.14v-.14s0-.13,0-.13v-.13s0-.13,0-.13v-.13s0-.13,0-.13v-.14s-.01-.14-.01-.14v-.14s-.02-.14-.02-.14v-.15s-.04-.15-.04-.15l-.02-.16-.03-.16-.03-.16-.04-.16-.04-.17-.04-.17-.05-.17-.05-.17-.06-.17-.06-.17-.06-.17-.06-.17-.07-.17-.06-.17-.07-.17-.07-.17-.07-.17-.07-.18-.07-.18-.07-.19-.07-.19-.07-.2-.08-.21-.08-.22-.08-.24-.09-.24-.08-.26-.09-.26-.09-.27-.09-.28-.09-.29-.09-.29-.08-.29-.08-.29-.08-.29-.07-.28-.07-.27-.07-.27-.06-.26-.06-.25-.06-.24-.06-.24-.06-.24-.05-.24-.06-.24-.05-.25-.06-.25-.06-.26-.06-.27-.06-.27-.06-.27-.06-.27-.05-.27-.05-.28-.05-.28-.05-.27-.04-.26-.04-.26-.04-.25-.03-.25-.03-.24-.03-.24-.02-.22v-.22s-.03-.21-.03-.21v-.2s0-.2,0-.2v-.19s.01-.19.01-.19v-.19s.03-.19.03-.19l.02-.2.02-.21.03-.21.04-.21.04-.22.04-.23.05-.24.05-.25.06-.26.06-.27.07-.28.08-.29.08-.3.09-.31.09-.32.09-.32.1-.33.1-.34.1-.35.1-.35.1-.35.1-.35.09-.34.09-.34.08-.34.08-.33.07-.32.06-.31.06-.31.05-.31.05-.31.04-.31.03-.31.03-.3.02-.29v-.3s.03-.29.03-.29v-.29s0-.28,0-.28v-.27s-.03-.26-.03-.26l-.02-.25-.03-.24-.04-.22-.04-.2-.04-.19-.04-.18-.04-.17-.04-.16-.05-.15-.04-.16-.05-.15-.05-.16-.05-.16-.05-.16-.06-.17-.06-.17-.06-.18-.06-.18-.06-.19-.06-.19-.07-.19-.07-.19-.07-.19-.08-.2-.08-.19-.08-.2-.09-.19-.09-.19-.09-.19-.09-.19-.1-.19-.1-.19-.11-.2-.12-.2-.12-.2-.13-.21-.14-.22-.15-.22-.16-.23-.17-.24-.18-.24-.19-.23-.19-.23-.2-.22-.2-.21-.21-.2-.21-.19-.2-.18-.2-.17-.2-.15-.19-.14-.19-.14-.19-.13-.18-.13-.17-.12-.17-.12-.17-.11-.17-.11-.17-.11-.17-.11-.17-.11-.17-.11-.17-.11-.17-.11-.17-.11-.17-.11-.17-.11-.17-.11-.17-.11-.17-.11-.16-.11-.16-.11-.16-.11-.16-.11-.16-.11-.16-.11-.16-.11-.15-.11-.16-.11-.16-.12-.16-.12-.16-.12-.16-.12-.16-.12-.16-.12-.16-.12-.16-.12-.17-.12-.16-.11-.16-.11-.16-.11-.16-.1-.16-.1-.15-.09-.15-.09-.15-.08-.16-.08-.16-.07-.16-.06-.16-.06-.16-.05-.16-.04-.16-.03-.16-.02h-.16s-.15-.02-.15-.02h-.15s-.14.02-.14.02l-.14.02-.13.03-.13.04-.12.04-.11.04-.11.04-.1.04-.11.04-.11.04-.11.04-.11.04-.11.04-.12.04-.13.04-.13.04-.13.05-.14.04-.14.04-.15.04-.15.04-.16.04-.17.04-.17.04-.18.04-.18.04-.18.03-.19.03-.19.03-.18.02-.17.02-.17.02-.16.02h-.15s-.14.03-.14.03h-.13s-.12.03-.12.03l-.11.02-.11.02-.1.02-.1.03-.1.03-.1.03-.1.04-.1.04-.1.04-.09.04-.09.05-.09.05-.09.06-.08.06-.08.06-.07.07-.07.08-.06.08-.06.08-.06.09-.06.09-.05.1-.05.1-.05.1-.05.11-.05.11-.05.11-.05.11-.06.11-.06.11-.06.12-.07.12-.07.13-.08.13-.09.14-.09.15-.1.15-.11.16-.12.16-.13.17-.14.17-.15.17-.16.17-.18.17-.19.16-.2.16-.21.15-.23.15-.23.14-.24.13-.24.12-.24.1-.23.08-.23.06-.22.05-.21.04-.2.04-.19.03-.2.03-.2.03-.2.03-.21.02-.2.02-.19.02-.19.02h-.19s-.17.03-.17.03h-.17s-.15.02-.15.02h-.14s-.13.02-.13.02h-.12s-.11.02-.11.02h-.11s-.11.03-.11.03h-.11s-.12.03-.12.03l-.13.02h-.13s-.14.03-.14.03l-.15.02-.15.02-.16.02-.17.02-.18.02-.19.02-.21.02-.21.02-.23.02-.24.02-.26.02-.28.02-.29.02h-.31s-.33.03-.33.03h-.35s-.37.02-.37.02h-.38s-.39,0-.39,0h-.4s-.41-.01-.41-.01h-.42s-.42-.03-.42-.03h-.42s-.4-.03-.4-.03h-.4s-.4,0-.4,0l-.4.02-.4.04-.39.06-.38.09-.37.12-.36.15-.36.18-.35.2-.34.22-.32.24-.31.26-.29.28-.28.3-.26.32-.23.34-.19.34-.16.36-.13.36-.09.36-.06.36-.03.36v.34l.03.34.05.33.06.32.08.32.09.31.1.3.11.3.12.29.12.29.12.3.12.3.12.3.13.3.12.3.12.31.13.32.12.33.11.32.1.33.09.33.08.33.06.32.04.31.02.29v.28l-.02.26-.04.25-.06.23-.08.21-.09.19-.11.18-.12.17-.14.16-.14.17-.15.18-.16.19-.17.2-.19.22-.2.24-.21.26-.23.28-.24.3-.26.33-.28.35-.29.38-.3.42-.31.45-.32.47-.31.49-.29.5-.26.49-.23.49-.19.48-.16.47-.12.47-.09.46-.05.44v.43s0,.43,0,.43l.05.43.08.43.11.42.14.41.16.4.18.41.21.41.23.42.25.42.27.43.3.44.33.46.36.48.39.51.43.52.45.53.49.54.51.55.53.55.54.55.54.53.51.5.48.47.45.45.42.44.4.43.36.41.32.4.3.39.27.39.25.38.23.38.21.38.17.37.15.35.12.35.09.33.06.31.04.3v.27s-.02.24-.02.24l-.05.22-.08.19-.11.17-.13.14-.14.12-.15.1-.16.09-.16.08-.16.08-.16.08-.16.08-.18.09-.18.09-.19.1-.21.11-.22.11-.23.13-.24.13-.24.14-.24.15-.24.16-.24.17-.24.19-.23.19-.21.2-.2.21-.19.21-.17.22-.16.23-.14.23-.12.23-.1.23-.08.23-.06.23-.04.23v.22s0,.21,0,.21l.03.21.04.21.06.22.07.22.09.22.1.23.12.24.13.24.15.25.16.26.17.26.19.25.2.25.2.24.21.24.22.23.22.22.22.21.23.21.23.21.23.22.24.22.23.22.23.23.23.24.22.25.22.26.21.27.2.28.18.29.17.31.16.32.16.34.15.36.14.37.12.38.12.4.11.41.1.43.09.43.08.43.07.43.07.42.06.42.06.41.05.4.04.38.03.35.02.33v.32s0,.3,0,.3v.28s-.02.26-.02.26l-.03.24-.03.22-.04.2-.05.19-.06.18-.06.16-.07.16-.08.14-.09.13-.09.13-.1.11-.11.11-.11.1-.12.09-.13.08-.14.07-.14.06-.14.06-.14.05-.15.05-.16.05-.16.05-.17.06-.18.06-.19.06-.2.06-.21.07-.22.07-.24.08-.25.09-.26.09-.26.09-.26.09-.26.1-.27.1-.27.11-.27.11-.27.12-.27.12-.28.13-.29.14-.29.15-.29.16-.28.16-.28.18-.27.18-.26.19-.25.2-.23.2-.21.2-.19.2-.17.2-.16.2-.14.2-.11.2-.1.19-.09.19-.07.19-.06.18-.04.17-.03.16-.02.16v.16s0,.15,0,.15v.15s.04.15.04.15l.03.15.04.15.05.16.05.17.06.18.07.19.07.2.08.21.09.22.1.23.11.24.13.24.14.24.15.24.16.25.18.25.19.26.21.27.22.27.24.28.25.29.26.29.29.3.29.31.3.31.32.32.32.34.33.34.33.34.32.35.31.34.3.34.28.34.26.34.24.35.22.34.19.33.16.32.13.31.1.3.07.29.05.27.02.25v.23s0,.22,0,.22v.21s-.03.19-.03.19l-.02.19-.03.19-.03.19-.04.19-.04.2-.04.2-.04.21-.05.21-.05.22-.05.23-.06.24-.06.25-.06.25-.06.26-.07.26-.07.26-.07.26-.07.26-.07.25-.07.24-.07.24-.07.24-.07.24-.07.24-.07.22-.07.21-.07.2-.07.2-.07.19-.07.18-.07.17-.07.16-.07.15-.07.14-.07.14-.07.13-.07.12-.08.12-.08.12-.08.11-.08.11-.08.11-.08.1-.08.1-.08.1-.08.09-.08.1-.09.09-.09.09-.09.09-.09.09-.09.09-.09.09-.09.09-.09.09-.09.09-.1.09-.1.09-.1.1-.11.1-.11.1-.11.1-.11.11-.12.11-.12.11-.12.11-.12.11-.12.11-.12.11-.12.12-.12.12-.12.12-.12.11-.11.11-.11.12-.11.12-.11.12-.11.12-.11.12-.11.13-.1.12-.1.13-.1.13-.09.13-.09.13-.08.13-.07.13-.07.13-.07.13-.07.14-.06.14-.06.14-.06.15-.06.16-.06.16-.06.17-.06.17-.06.18-.06.19-.05.19-.05.2-.05.21-.05.21-.04.21-.05.23-.04.23-.04.24-.04.25-.04.25-.04.25-.04.26-.03.25-.03.24-.02.24-.02.22v.21s-.03.2-.03.2v.19s-.01.18-.01.18v.33s0,.15,0,.15v.14s.02.14.02.14v.14s.03.13.03.13l.02.12.02.12.03.11.03.11.03.11.04.11.04.11.04.11.05.11.05.11.06.11.06.11.06.12.07.12.07.12.08.12.08.12.08.12.09.11.09.1.09.1.09.1.09.09.09.09.1.09.09.09.1.09.1.09.11.09.11.1.12.1.12.1.13.11.13.11.14.11.15.12.15.12.16.13.16.14.17.14.18.15.19.16.19.16.19.16.19.16.19.17.2.18.2.18.19.18.19.18.19.18.18.18.17.18.17.18.17.18.16.18.16.18.15.18.15.18.15.18.14.18.13.17.12.17.12.16.11.17.1.16.09.15.08.15.02.04c-.94,1.11-1.76,2.24-2.19,3.25-.2.25-.39.5-.58.75h0s-.02.01-.02.01l-.09.06-.1.06-.09.06-.09.06-.1.06-.1.06-.09.06-.1.06-.1.06-.09.06-.09.06-.09.06-.09.07-.09.07-.09.07-.09.07-.1.07-.1.08-.1.08-.1.08-.1.08-.09.08-.1.08-.1.08-.1.08-.1.08-.1.08-.1.08-.1.08-.1.08-.1.08-.1.09-.11.09-.1.09-.1.09-.1.08-.1.09-.1.08-.1.09-.1.08-.1.08-.1.08-.1.08-.09.08-.09.08-.09.08-.09.07-.08.07-.08.07-.08.07-.08.07-.07.06-.07.06-.07.07-.07.07-.07.06-.07.07-.07.07-.07.07-.07.07-.07.07-.07.07-.07.07-.06.07-.07.08-.07.08-.07.08-.07.08-.07.08-.07.08-.07.08-.07.08-.07.08-.07.09-.07.09-.08.09-.08.09-.08.09-.08.09-.08.09-.08.09-.09.1-.09.1-.09.1-.1.11-.11.11-.11.11-.12.12-.12.12-.13.13-.13.13-.14.14-.15.14-.15.14-.15.14-.16.14-.16.14-.17.15-.17.14-.16.13-.17.12-.17.12-.16.11-.16.11-.16.1-.16.09-.15.08-.15.07-.15.07-.14.06-.14.06-.13.05-.12.04-.12.04-.12.04-.11.03-.1.02-.1.02-.09.02-.09.02h-.09s-.09.03-.09.03h-.09s-.09.02-.09.02h-.08s-.09.02-.09.02h-.08s-.09.02-.09.02h-.08s-.09.02-.09.02h-.09s-.09.01-.09.01h-.09s-.09.02-.09.02h-.09s-.09.01-.09.01h-.09s-.1.01-.1.01h-.1s-.1.01-.1.01h-.11s-.11.01-.11.01h-.11s-.11.01-.11.01h-.11s-.11.01-.11.01h-.11s-.12.01-.12.01h-.12s-.12.01-.12.01h-.12s-.12,0-.12,0h-.12s-.12,0-.12,0h-.11s-.11,0-.11,0h-.11s-.11,0-.11,0h-.11s-.11,0-.11,0h-.12s-.11.01-.11.01h-.12s-.12.02-.12.02h-.13s-.14.03-.14.03h-.14s-.15.03-.15.03l-.15.02-.16.02-.17.03-.18.03-.19.03-.2.04-.2.04-.21.05-.22.05-.23.06-.24.06-.24.06-.24.07-.25.07-.25.07-.25.08-.26.08-.26.08-.27.08-.26.08-.26.08-.26.08-.26.08-.26.08-.26.08-.26.08-.26.07-.26.08-.25.07-.25.07-.25.07-.25.07-.24.07-.23.06-.23.06-.22.06-.22.06-.22.06-.21.06-.2.06-.2.06-.19.05-.19.05-.19.05-.18.04-.17.04-.17.04-.17.03-.17.03-.18.03-.17.02-.17.02h-.18s-.18.03-.18.03h-.18s-.18.02-.18.02h-.19s-.19.01-.19.01h-.19s-.2.01-.2.01h-.21s-.22.01-.22.01h-.22s-.23,0-.23,0h-.24s-.24.01-.24.01h-.25s-.26.01-.26.01h-.26s-.26.02-.26.02h-.26s-.26.02-.26.02h-.26s-.26.03-.26.03l-.26.02-.25.02-.25.02-.25.02-.25.03-.25.03-.24.03-.24.03-.24.03-.24.03-.24.03-.24.03-.23.02-.22.02-.22.02-.22.02h-.22s-.22.03-.22.03h-.22s-.22.02-.22.02h-.23s-.23.02-.23.02h-.24s-.24.01-.24.01h-.25s-.25,0-.25,0h-.26s-.26,0-.26,0h-.54s-.27,0-.27,0h-.83s-.29,0-.29,0h-.29s-.3-.01-.3-.01h-.3s-.31-.03-.31-.03l-.32-.02-.34-.02-.35-.03-.36-.03-.36-.04-.36-.04-.36-.05-.36-.06-.35-.06-.34-.06-.33-.07-.33-.08-.32-.08-.32-.08-.32-.09-.31-.09-.3-.1-.29-.1-.29-.11-.28-.11-.28-.12-.27-.13-.26-.13-.25-.13-.25-.13-.24-.14-.24-.14-.24-.14-.23-.14-.23-.14-.23-.14-.24-.15-.23-.14-.22-.14-.22-.13-.22-.13-.22-.13-.22-.13-.22-.12-.22-.12-.23-.11-.23-.11-.23-.09-.24-.09-.25-.09-.25-.07-.26-.06-.26-.06-.27-.05-.28-.04-.29-.02h-.29s-.29,0-.29,0h-.31s-.32.04-.32.04l-.34.04-.35.06-.36.07-.37.09-.38.1-.39.12-.4.14-.41.15-.42.17-.41.18-.41.19-.41.2-.41.21-.41.22-.4.22-.39.23-.39.24-.4.24-.41.25-.41.26-.42.26-.41.26-.41.26-.41.26-.41.27-.41.27-.39.26-.36.26-.34.26-.31.26-.29.26-.26.26-.23.26-.21.26-.18.26-.16.26-.15.26-.14.26-.12.26-.11.26-.1.26-.09.26-.09.27-.08.27-.07.27-.06.27-.06.28-.06.29-.05.31-.05.32-.04.33-.04.34-.04.35-.03.37-.03.38-.02.39v.39s0,.37,0,.37v.37s.04.35.04.35l.04.34.05.33.06.31.07.29.08.27.09.26.09.25.09.24.1.23.1.22.1.21.11.21.11.22.12.22.13.22.14.23.15.24.16.25.18.27.19.29.21.3.22.31.24.32.26.34.28.34.29.35.31.36.32.36.34.36.36.37.37.37.38.38.4.39.4.39.41.39.42.4.44.41.45.42.46.43.46.43.47.44.48.44.49.44.5.45.49.44.47.42.46.41.45.4.44.39.43.39.41.37.39.35.38.34.36.34.35.33.33.33.31.32.29.31.27.31.25.3.23.3.21.3.19.3.16.29.13.28.11.28.08.26.04.25v.23s0,.21,0,.21l-.05.19-.07.16-.09.14-.11.12-.12.1-.13.07-.14.06-.14.04-.16.04-.16.03h-.17s-.18.02-.18.02h-.18s-.19-.01-.19-.01l-.2-.02-.21-.02-.21-.03-.22-.03-.23-.03-.24-.04-.25-.04-.26-.04-.26-.05-.27-.04-.28-.05-.29-.04-.3-.04-.3-.03-.3-.02h-.29s-.29,0-.29,0l-.29.02-.29.03-.17.02c.66-1.13.43-2.82-1.18-3.34.05.02.11.05.16.07,0,0,0,0,.01.01-2.88-1.4-4.53,2.83-2.05,4.03l-.34.11-.47.16-.5.17-.53.19-.54.2-.54.21-.54.23-.54.24-.53.25-.52.26-.49.27-.46.27-.43.28-.4.29-.38.29-.37.3-.35.31-.34.31-.32.33-.31.34-.3.34-.3.36-.29.36-.28.37-.27.38-.26.39-.26.4-.25.41-.24.41-.23.41-.21.41-.2.41-.19.42-.17.41-.14.39-.12.38-.1.37-.07.35-.05.34-.03.33v.32s0,.3,0,.3l.02.3.04.3.05.3.06.31.08.31.09.32.1.33.11.35.12.37.13.39.14.4.15.42.16.44.18.47.2.5.22.54.24.56.26.57.28.6.31.63.34.65.36.68.39.68.41.68.43.68.45.67.47.66.49.64.5.61.5.57.5.53.51.5.51.47.52.45.52.41.52.37.52.34.52.32.53.3.54.29.55.26.55.24.56.22.58.21.6.2.61.19.61.18.6.16.59.14.58.13.54.12.46.09.26.05h.03s7.14.96,7.14.96l.39.19.41.19.42.2.42.21.43.21.44.22.36.18c-10.65.91-21.39-.39-31.39-4.7-4.88-2.15-9.84-4.45-13.95-7.91-.06-.16-.13-.31-.21-.45.52-1.42.34-3.49.34-5.24,1.25.54,2.55.95,3.86,1.24,2.88.62,3.84-3.74.97-4.42-1.25-.32-2.08-.5-3.39-1.04-.39-.17-.78-.36-1.16-.57.24-6.2.35-12.41.34-18.61,2.32,1.38,4.89,2.38,7.46,3.2,2.77.97,4.31-3.23,1.54-4.25-2.95-1.07-6.6-2.21-9.03-4.44,0-.23,0-.45,0-.68-.02-1.51-.05-3.01-.09-4.52.68-.23,1.43-.32,2.06-.31,2.87-.55,2.11-4.89-.78-4.45-.49,0-.96.02-1.42.1-.14-4.14-.32-8.29-.53-12.43-.26-.99-.11-2.66-.06-4.3.57.29,1.13.58,1.69.86,2.55,1.46,4.76-2.61,2.18-3.96-7.83-4.02-17.62-9.05-21.8-16.95,1.09.53,2.19.99,3.3,1.39,4.61,1.5,6.17-5.07,1.13-4.4-2.24-.84-4.37-1.97-6.38-3.33-.04-.03-.09-.06-.14-.09-.15-.11-.31-.21-.46-.31-.19-.13-.38-.27-.56-.4-.59-.43-1.17-.88-1.74-1.34-.19-.15-.37-.31-.56-.46-.37-.31-.74-.63-1.1-.96-3.38-3.05-6.36-6.62-8.89-10.17-3.54-6.94-.79-15.48.46-22.78,1.59-6.47,3.96-12.94,5.37-19.49,1.47-5.93,1.78-12.28,4.97-17.65.72-1.28,1.54-2.5,2.44-3.65.32,1.96.54,3.93.64,5.92.08,3.39-.07,6.78-.42,10.16-.48,4.24-1.36,8.42-2.28,12.59-.26,1.2.66,2.41,1.83,2.61,2.7.41,2.8-2.86,3.24-4.74.87-4.19,1.61-8.4,1.93-12.67.83-6.24.06-12.28-1.22-18.27.15-.63-.03-1.27-.39-1.78-1.24-5.41-2.81-10.77-3.91-16.2-1.29-8.97-.99-18.54,2.03-27.26.2-.6.39-1.21.58-1.82,1.32-.44,1.49-1.77,1.24-3.33-.06-.39-.15-.79-.26-1.2-.02-.1-.05-.2-.08-.31,0-.02-.01-.05-.02-.07-.04-.14-.08-.29-.12-.43-.16-.55-.33-1.08-.49-1.59-.02-.08-.05-.15-.07-.22,0,0,0-.01,0-.02,1.81.52,3.63.78,4.64.79,2.56-.2,9.64-.05,8.57-4.07-1.6-3.91-7.23,2.37-14.53-2.19-.07-.04-.13-.08-.2-.11-.39-1.44-.74-2.88-1.01-4.34,1.14.15,2.36.12,3.37.29,2.09.11,4.17-.04,6.24-.42,2.87-.67,1.89-5.01-1-4.41-2.78.54-5.65.42-8.43-.07.12-.53.24-1.05.42-1.49,2.24-4.3,7-7.13,11.85-7.11,1.94-.08,2.77-2.79,1.26-3.97-2.49-1.38-7.25.26-9.66,1.51-.6.37-1.2.77-1.79,1.19,2.73-8.54,6.58-16.86,6.59-25.94.16-15.7-.54-31.46,1.61-47.05.39-.05.77-.19,1.08-.45,2.13-1.03,4.45-1.48,6.79-1.63.06,0,.13,0,.19-.01.02,0,.04,0,.06,0-.08,0-.16,0-.25.01,1.89-.44,4.06.73,5.87,0,.98-.52,1.28-1.69.99-2.67.17-.31.26-.67.27-1.11.26-3.81-.06-7.62-.54-11.4,0-3.36-2.56-9.1.09-11.65.56-.06,1.02-.19,1.39-.37l.04.06.14.25.16.27.16.27.16.26.15.25.15.24.15.23.14.22.14.21.14.21.13.2.13.19.13.19.12.2.12.19.11.19.11.19.1.18.1.19.1.19.09.19.09.18.09.18.09.17.09.17.09.17.09.17.09.16.09.16.09.16.1.16.1.16.11.16.11.15.11.15.11.14.12.15.12.15.13.15.13.15.13.15.13.15.14.16.14.16.14.17.15.17.15.18.15.18.15.19.15.19.14.19.14.18.14.18.13.18.13.17.13.17.12.17.11.16.11.16.1.16.1.15.09.16.09.15.09.15.09.15.08.16.08.16.08.17.07.17.07.17.06.18.06.18.06.19.06.19.06.19.06.19.06.18.06.18.06.17.06.17.06.16.05.15.05.14.05.14.05.13.05.13.04.12.04.11.04.11.04.11.04.11.04.11.04.12.04.12.04.13.04.14.04.14.04.15.04.16.04.16.04.17.03.17.03.17.03.17.02.17.02.16.02.16v.16s.03.16.03.16v.15s.02.14.02.14v.14s.02.13.02.13v.13s.01.12.01.12v.13s.01.13.01.13v.13s0,.14,0,.14v.47s0,.17,0,.17v.18s-.01.19-.01.19v.19s-.02.2-.02.2v.2s-.03.2-.03.2v.2s-.03.2-.03.2l-.02.19-.02.19-.02.19-.02.19-.02.18-.02.17-.02.17-.02.17-.02.16-.02.16-.02.15v.14s-.03.14-.03.14l-.02.14-.02.14v.13s-.03.13-.03.13v.12s-.03.12-.03.12l-.02.12-.02.12-.02.12-.02.12-.02.11-.02.11-.03.11-.03.11-.03.11-.03.11-.03.11-.03.11-.03.1-.04.1-.03.1-.04.1-.03.09-.04.09-.03.09-.04.09-.03.09-.03.08-.03.08-.03.07-.03.07-.03.07-.03.07-.03.07-.03.06-.03.06-.03.06-.03.06-.03.06-.03.06-.02.06-.03.06-.02.06-.02.05-.02.06-.02.05-.02.05-.02.05-.02.05-.02.05-.02.04-.02.04-.02.04-.02.04-.02.04-.02.04-.02.04-.02.04-.02.04-.02.04-.02.04-.03.04-.03.05-.03.05-.03.06-.04.06-.04.06-.04.07-.05.08-.05.08-.06.09-.06.09-.06.09-.06.1-.06.09-.06.09-.06.09-.06.09-.06.09-.06.09-.06.08-.05.08-.06.08-.05.08-.05.07-.05.07-.05.07-.05.07-.05.07-.05.07-.05.07-.05.07-.05.07-.05.07-.04.07-.04.07-.04.07-.04.07-.04.07-.04.08-.04.08-.04.08-.04.08-.04.08-.04.08-.04.08-.04.09-.04.09-.05.09-.05.09-.05.09-.05.1-.05.1-.05.1-.05.1-.05.1-.05.1-.05.1-.05.1-.05.1-.05.1-.05.1-.04.1-.05.09-.04.09-.04.09-.04.09-.04.09-.04.09-.04.08-.04.09-.04.09-.04.08-.03.08-.04.08-.03.08-.03.08-.03.08-.03.08-.03.07-.03.07-.03.07-.03.07-.03.06-.02.06-.03.06-.02.06-.02.06-.02.05-.02.06-.02.05-.02.06-.03.06-.03.06-.03.06-.03.06-.04.06-.04.06-.04.06-.04.07-.04.07-.04.07-.05.07-.04.07-.04.08-.04.07-.05.08-.05.08-.05.08-.04.08-.05.08-.05.08-.05.08-.05.09-.05.09-.05.09-.05.09-.05.09-.05.1-.05.11-.06.11-.06.11-.06.11-.06.11-.06.12-.06.13-.06.13-.06.13-.06.13-.06.13-.06.13-.06.13-.05.12-.05.12-.05.12-.05.11-.04.11-.04.11-.04.11-.04.1-.04.1-.03.1-.03.09-.03.09-.03.1-.03.09-.03.09-.02.1-.02.1-.02.1v.1s-.02.1-.02.1v.1s-.01.1-.01.1v.1s0,.1,0,.1v.1s0,.1,0,.1v.09s.02.1.02.1v.09s.03.1.03.1l.02.1.02.09.02.09.02.09.03.09.03.09.03.09.04.09.04.09.04.09.04.09.04.09.04.09.05.09.05.09.05.09.05.1.06.1.06.1.06.11.06.11.06.11.06.12.06.12.06.12.06.12.06.12.06.12.06.12.06.12.06.12.06.11.06.11.06.11.06.11.06.11.06.11.06.11.05.11.05.11.05.1.05.1.05.11.05.1.05.1.05.1.05.1.05.1.05.11.05.1.05.1.05.11.05.1.05.1.04.1.04.1.04.1.04.1.04.09.04.09.04.09.04.09.04.09.04.08.04.08.04.08.04.08.03.08.04.08.04.08.04.09.04.09.04.09.04.09.04.09.04.09.04.09.04.09.04.09.04.09.04.09.04.09.04.1.04.1.04.1.04.1.04.09.04.09.04.09.04.1.04.09.04.09.04.1.04.09.04.1.04.1.04.1.04.1.04.11.04.1.03.11.03.11.03.11.03.11.03.11.03.11.03.11.03.11.02.11.02.11.02.1.02.1.02.1.02.1.02.1.02.1.02.1.02.1.02.1.02.1.02.11.02.11.02.11.02.11.02.12.02.12.02.13.02.13.02.14.02.14.02.14v.15s.03.15.03.15v.15s.02.16.02.16v.16s.01.16.01.16v.17s0,.17,0,.17v.51s0,.18,0,.18v.18s-.01.17-.01.17v.18s-.01.17-.01.17v.17s-.02.18-.02.18v.17s-.02.17-.02.17v.17s-.02.16-.02.16v.16s-.02.16-.02.16v.16s-.03.16-.03.16v.16s-.03.16-.03.16v.16s-.03.17-.03.17l-.02.17-.02.17-.02.17-.02.17-.02.18-.02.18-.02.18-.02.18-.02.18-.02.17-.02.18-.03.18-.03.18-.03.18-.03.18-.03.19-.03.19-.03.19-.03.2-.03.2-.03.2-.03.21-.03.21-.04.23-.04.23-.04.23-.04.24-.04.24-.04.24-.04.24-.04.24-.04.24-.05.24-.05.24-.05.24-.05.24-.05.24-.05.23-.05.23-.05.22-.05.22-.05.22-.05.22-.05.21-.05.21-.05.2-.05.19-.05.19-.05.19-.05.18-.05.17-.05.17-.04.16-.05.16-.04.16-.05.16-.04.16-.05.16-.05.16-.05.16-.05.17-.05.17-.05.17-.05.16-.05.16-.05.17-.05.17-.05.17-.06.17-.05.17-.06.18-.06.19-.06.19-.06.19-.06.2-.07.2-.07.2-.08.21-.08.22-.08.21-.08.22-.08.22-.09.22-.09.23-.09.23-.09.23-.09.22-.08.22-.08.21-.08.21-.08.21-.07.21-.07.2-.07.19-.06.19-.07.19-.07.19-.06.19-.07.19-.06.19-.07.19-.06.19-.07.19-.06.19-.07.19-.07.19-.07.19-.07.19-.07.2-.07.2-.08.2-.08.21-.08.21-.09.22-.09.22-.09.22-.09.23-.09.23-.09.24-.09.24-.09.25-.09.24-.09.24-.08.24-.08.24-.08.23-.07.23-.07.22-.06.21-.06.21-.06.21-.06.21-.06.21-.05.21-.05.2-.05.2-.04.2-.04.2-.04.21-.04.2-.04.21-.04.21-.04.22-.04.23-.04.24-.04.24-.04.24-.04.25-.04.26-.04.27-.04.28-.04.29-.04.29-.04.29-.04.29-.04.31-.04.32-.04.32-.03.32-.03.31-.03.31-.02.32-.02.32v.31s-.03.3-.03.3v.29s-.02.28-.02.28v.27s-.01.26-.01.26v.25s0,.24,0,.24v.23s0,.22,0,.22v.22s0,.22,0,.22v.21s.01.21.01.21v.21s.02.21.02.21v.22s.02.22.02.22v.23s.03.24.03.24v.26s.03.27.03.27l.02.29.02.31.02.31.02.31.03.32.03.33.03.34.04.35.04.34.04.34.04.34.04.34.04.35.05.35.05.34.05.34.05.34.05.33.06.33.06.32.06.31.06.3.06.29.07.29.08.29.09.29.09.27.09.26.09.25.09.25.1.24.11.25.11.24.11.24.11.25.11.25.11.26.11.26.11.26.11.26.11.26.1.25.1.26.09.25.09.25.09.25.09.24.08.23.08.23.08.23.07.22.07.21.07.21.07.21.08.21.08.21.08.21.08.2.08.2.08.19.08.19.08.19.08.19.08.18.08.18.08.17.07.18.07.18.07.18.07.19.07.19.06.2.06.21.06.22.06.23.05.23.05.24.05.24.04.24.04.25.04.24.04.24.04.23.04.23.04.23.04.23.04.22.04.23.04.22.04.23.04.24.04.24.04.24.05.24.04.24.05.25.05.26.05.26.05.26.05.26.05.25.05.24.05.24.04.23.04.22.04.21.04.21.04.2.04.2.03.19.03.2.03.19.03.2.03.2.03.21.04.23.04.24.04.25.04.26.04.27.04.29.04.29.04.29.04.3.04.29.04.28.04.27.03.26.03.24.03.22.02.2.02.19.02.17.02.16.02.15v.14s.03.13.03.13v.12s.03.12.03.12l.02.12.02.12.02.12.02.11.02.11.02.11.02.11.02.11.02.11.03.1.02.1.02.09.02.09.02.09.02.08.02.07.02.07.02.07.02.07.02.06.02.06.02.06.02.06.02.06.02.06.02.07.03.06.03.07.03.07.03.07.03.07.03.06.03.06.03.06.03.06.02.06.02.05.02.05.02.05.02.05.02.05.02.05.02.04.02.04.02.04.02.04.02.04.02.04.02.05.03.05.03.05.03.05.03.05.03.05.03.05.03.05.03.05.03.05.03.05.03.05.03.05.03.05.03.04.03.05.03.04.03.04.03.04.03.04.03.04.03.04.03.04.03.04.03.04.03.04.03.04.03.04.03.04.03.04.03.04.03.04.03.04.03.03.03.04.03.04.03.03.03.04.03.03.03.03.03.03.03.03.03.03.03.03.03.03.03.03.03.03.03.03.03.03.03.03.03.03.03.02.03.03.03.02.03.02.03.02.03.02.03.02.03.02.03.02h.04s.04.03.04.03h.04s.03.02.03.02c-3,4.99-5.11,9.59-2.82,10.18,3.56,1.75,5.01-5.93,6.98-8.05,8.51-13.18,12.42-25.62,25.26-16.84h-.02s-.05.03-.05.03l-.04.03-.05.03-.05.03-.05.03-.05.03-.05.04-.05.04-.05.04-.05.04-.06.05-.06.05-.06.06-.06.06-.06.06-.06.07-.07.07-.07.08-.08.08-.08.09-.09.09-.09.1-.1.11-.11.11-.11.12-.12.12-.13.13-.13.13-.13.13-.14.14-.14.14-.15.14-.15.14-.15.14-.15.13-.14.13-.14.12-.14.11-.13.11-.13.11-.13.11-.14.11-.14.11-.15.12-.16.12-.16.13-.17.13-.18.14-.19.14-.19.14-.19.14-.19.14-.19.14-.19.13-.19.13-.19.13-.19.13-.19.13-.18.12-.18.13-.18.13-.18.13-.18.13-.16.13-.16.13-.16.14-.16.14-.16.15-.15.16-.15.16-.15.17-.15.18-.15.19-.16.21-.16.22-.16.22-.16.24-.16.25-.17.26-.17.27-.17.27-.17.27-.17.27-.17.27-.17.27-.17.27-.16.26-.16.25-.15.25-.15.25-.15.25-.16.25-.15.25-.15.25-.16.26-.16.26-.16.27-.17.29-.17.29-.16.29-.16.29-.15.29-.15.29-.14.29-.12.28-.11.27-.09.26-.07.24-.05.23-.04.21v.2s-.01.18-.01.18l.02.16.03.15.04.14.05.13.06.12.07.11.08.11.09.1.09.1.11.1.11.1.12.09.13.09.14.09.16.08.17.08.17.07.18.06.19.06.2.05.22.05.22.04.24.04.25.04.26.03.28.03.29.03.31.04.32.04.33.04.35.04.36.04.37.04.36.04h.09c0,.2,0,.39.04.6.31,1.72,2.68,2.32,3.82,1.08h0c6.46-5.46,13.67-10.14,21.54-13.36.59-.23.98-.6,1.2-1.03,5.67-1.74,11.49-6.02,16.76-7.45,3.49.51,5.98,3.5,8.3,6.34l-.09.03-.12.04-.11.03-.1.04-.1.04-.1.04-.1.04-.1.05-.11.04-.12.05-.13.05-.14.06-.15.06-.16.06-.17.08-.19.08-.2.08-.21.09-.23.09-.25.1-.26.11-.28.11-.28.11-.29.11-.29.11-.27.09-.26.09-.25.09-.24.08-.23.08-.22.08-.21.07-.21.08-.21.08-.22.08-.23.09-.24.09-.26.11-.28.12-.31.13-.33.15-.36.16-.38.17-.39.19-.41.2-.42.21-.43.22-.43.22-.42.22-.39.21-.38.21-.37.21-.37.2-.36.2-.35.19-.33.19-.32.19-.32.19-.33.19-.34.19-.34.2-.34.2-.35.21-.36.21-.37.22-.38.22-.39.23-.38.23-.38.23-.39.24-.39.24-.39.25-.39.24-.37.23-.36.22-.35.21-.34.21-.32.2-.3.19-.28.18-.26.18-.24.17-.22.17-.21.17-.19.16-.18.16-.17.16-.16.18-.16.18-.16.18-.14.19-.14.19-.12.2-.11.21-.1.21-.09.22-.07.22-.05.21-.03.21v.21s0,.2,0,.2l.02.2.04.19.05.18.06.17.07.17.08.16.09.17.1.16.11.16.12.16.13.16.14.18.15.18.16.19.17.19.18.2.2.21.21.22.23.22.24.22.25.23.26.22.26.22.24.19c-.15.78.1,1.63.74,2.16,2.54,1.78,5.52-1.86,7.92-2.73,6.25-3.6,12.94-6.3,19.63-8.94,3.45-1.41,6.95-2.74,10.18-4.61.36-.19.62-.44.81-.71,4.94-2.34,9.97-6,14.32-7.23.34-.15.66-.25.98-.32.1,1.17,1.71,2.02,2.4,2.92,2.6,3.86,3.48,8.69,3.72,13.27,0,1.95-.83,5.02,1.99,5.25,2.48.1,2.51-2.74,2.52-4.55-.05-1.8-.19-3.67-.46-5.54.46.83.92,1.57,1.39,2.16t0,0c2.44,4.98,4.72,10.04,6.95,15.12,4.95,11.92,10.91,23.54,13.73,36.22Z" fill="#fff6df"/><path d="M230.57,300.35c6.44.48,4.75,8.44,4.58,12.95-1.41,8.53-6.69,26.88-16.84,27.85-8.77-.73-3.76-14.47-2.66-19.87,1.94-6.69,7.11-20,14.92-20.93Z" fill="#fff6df"/><path d="M270.16,311.34c2.03.92,3.15,3.36,3.14,5.51-1.2,5.93-10.91,6.44-15.84,6.7-1.65-.06-3.36-.12-4.98-.52.54-1.46,1.07-2.92,1.6-4.39,1.31-3.76,2.55-7.58,3.92-11.31.71.14,1.46.24,2.09.43,3.45.89,6.92,1.89,10.07,3.59Z" fill="#fff6df"/><path d="M221.41,408.27c2.88.58,3.86-3.77.97-4.42-1.61-.29-3.27-.51-4.79-1.16-.51-.51-1.26-.77-2.02-.64-1.17.2-2.13,1.44-1.83,2.65,1.02,2.95,5.08,2.95,7.67,3.57ZM219.02,418.01c1.82.19,4.31-.47,3.92-2.78-.54-2.64-3.46-1.44-5.33-1.91-1.22-.18-2.41-.58-3.41-1.31-.57-.73-1.56-1.04-2.49-.76-.96.29-1.59,1.27-1.55,2.26.91,3.54,5.75,4.19,8.86,4.5ZM238.56,415.25c.18,2.94,4.63,2.74,4.51-.21-.18-2.94-4.63-2.74-4.51.21ZM240.76,393.87c.18,2.94,4.63,2.74,4.51-.21-.18-2.94-4.63-2.74-4.51.21ZM247.49,381.95c.18,2.94,4.63,2.74,4.51-.21-.18-2.94-4.62-2.74-4.51.21ZM254.73,420.65c3.69,1.72,5.74-3.86,1.51-4.26-2.51-.47-3.82,3.08-1.51,4.26ZM266.93,420.94c2.49,1.27,4.59-2.35,2.29-3.88-2.6-1.76-5.11,2.41-2.29,3.88ZM284.93,347.26h.02c-3.19,4.25-4.99,9.4-6.12,14.73-.86,2.85-1.57,5.74-2.16,8.65-.39-.06-.8-.11-1.22-.15-2.69.51-2.24,4.53.44,4.48-.64,4.02-1.04,8.08-1.21,12.16-.19.11-.39.21-.58.29-2.39.77-4.93,1.08-7.43,1.25-1.23.04-2.21,1.15-2.15,2.36.41,3.33,4.53,1.87,6.75,1.65,1.14-.08,2.24-.31,3.29-.65,0,1.09.01,2.19.04,3.28-.06,2.04-.03,4.07.11,6.1-5.15,2.31-11.07,3.07-16.57,2.09-2.9-.58-3.84,3.76-.97,4.41,1.85.34,3.72.58,5.6.58,3.26.07,8.01-.77,12.43-2.45.15.99.32,1.98.52,2.96.11.8.22,1.59.34,2.38.05.55.25.97.54,1.29.27.98.57,1.95.9,2.91-.11.28-.21.56-.31.83-1.6,2.3-4.03,3.91-6.37,5.38-10.53,5.46-22.33,9.26-34.26,10.28l-.36-.18-.44-.22-.43-.21-.42-.21-.42-.2-.41-.19-.39-.19-7.14-.96h-.03s-.26-.06-.26-.06l-.46-.09-.54-.12-.58-.13-.59-.14-.6-.16-.61-.18-.61-.19-.6-.2-.58-.21-.56-.22-.55-.24-.55-.26-.54-.29-.53-.3-.52-.32-.52-.34-.52-.37-.52-.41-.52-.45-.51-.47-.51-.5-.5-.53-.5-.57-.5-.61-.49-.64-.47-.66-.45-.67-.43-.68-.41-.68-.39-.68-.36-.68-.34-.65-.31-.63-.28-.6-.26-.57-.24-.56-.22-.54-.2-.5-.18-.47-.16-.44-.15-.42-.14-.4-.13-.39-.12-.37-.11-.35-.1-.33-.09-.32-.08-.31-.06-.31-.05-.3-.04-.3-.02-.3v-.3s0-.32,0-.32l.03-.33.05-.34.07-.35.1-.37.12-.38.14-.39.17-.41.19-.42.2-.41.21-.41.23-.41.24-.41.25-.41.26-.4.26-.39.27-.38.28-.37.29-.36.3-.36.3-.34.31-.34.32-.33.34-.31.35-.31.37-.3.38-.29.4-.29.43-.28.46-.27.49-.27.52-.26.53-.25.54-.24.54-.23.54-.21.54-.2.53-.19.5-.17.47-.16.34-.11c.2.1.44.18.69.23,1.09.25,1.92-.25,2.36-1l.17-.02.29-.03.29-.02h.29s.29,0,.29,0l.3.02.3.03.3.04.29.04.28.05.27.04.26.05.26.04.25.04.24.04.23.03.22.03.21.03.21.02.2.02h.19s.18.01.18.01h.18s.17-.02.17-.02l.16-.03.16-.04.14-.04.14-.06.13-.07.12-.1.11-.12.09-.14.07-.16.05-.19.02-.21v-.23s-.06-.25-.06-.25l-.08-.26-.11-.28-.13-.28-.16-.29-.19-.3-.21-.3-.23-.3-.25-.3-.27-.31-.29-.31-.31-.32-.33-.33-.35-.33-.36-.34-.38-.34-.39-.35-.41-.37-.43-.39-.44-.39-.45-.4-.46-.41-.47-.42-.49-.44-.5-.45-.49-.44-.48-.44-.47-.44-.46-.43-.46-.43-.45-.42-.44-.41-.42-.4-.41-.39-.4-.39-.4-.39-.38-.38-.37-.37-.36-.37-.34-.36-.32-.36-.31-.36-.29-.35-.28-.34-.26-.34-.24-.32-.22-.31-.21-.3-.19-.29-.18-.27-.16-.25-.15-.24-.14-.23-.13-.22-.12-.22-.11-.22-.11-.21-.1-.21-.1-.22-.1-.23-.09-.24-.09-.25-.09-.26-.08-.27-.07-.29-.06-.31-.05-.33-.04-.34-.03-.35v-.37s-.02-.37-.02-.37v-.39s.03-.39.03-.39l.03-.38.03-.37.04-.35.04-.34.04-.33.05-.32.05-.31.06-.29.06-.28.06-.27.07-.27.08-.27.09-.27.09-.26.1-.26.11-.26.12-.26.14-.26.15-.26.16-.26.18-.26.21-.26.23-.26.26-.26.29-.26.31-.26.34-.26.36-.26.39-.26.41-.27.41-.27.41-.26.41-.26.41-.26.42-.26.41-.26.41-.25.4-.24.39-.24.39-.23.4-.22.41-.22.41-.21.41-.2.41-.19.41-.18.42-.17.41-.15.4-.14.39-.12.38-.1.37-.09.36-.07.35-.06.34-.04.32-.03h.31s.29-.02.29-.02h.29s.29.04.29.04l.28.04.27.05.26.06.26.06.25.07.25.09.24.09.23.09.23.11.23.11.22.12.22.12.22.13.22.13.22.13.22.13.22.14.23.14.24.15.23.14.23.14.23.14.24.14.24.14.24.14.25.13.25.13.26.13.27.13.28.12.28.11.29.11.29.1.3.1.31.09.32.09.32.08.32.08.33.08.33.07.34.06.35.06.36.06.36.05.36.04.36.04.36.03.35.03.34.02.32.02h.31s.3.03.3.03h.3s.29.01.29.01h.29s.28,0,.28,0h.82s.27,0,.27,0h.54s.26,0,.26,0h.25s.25,0,.25,0h.24s.24-.01.24-.01h.23s.23-.02.23-.02h.22s.22-.02.22-.02h.22s.22-.03.22-.03l.22-.02.22-.02.22-.02.23-.02.24-.03.24-.03.24-.03.24-.03.24-.03.24-.03.25-.03.25-.03.25-.02.25-.02.25-.02.26-.02.26-.02h.26s.26-.03.26-.03h.26s.26-.02.26-.02h.26s.26-.01.26-.01h.25s.24-.01.24-.01h.24s.23-.01.23-.01h.22s.22,0,.22,0h.21s.2-.01.2-.01h.19s.19-.01.19-.01h.19s.18-.02.18-.02h.18s.18-.03.18-.03h.18s.17-.03.17-.03l.17-.02.18-.03.17-.03.17-.03.17-.04.17-.04.18-.04.19-.05.19-.05.19-.05.2-.06.2-.06.21-.06.22-.06.22-.06.22-.06.23-.06.23-.06.24-.07.25-.07.25-.07.25-.07.25-.07.26-.08.26-.07.26-.08.26-.08.26-.08.26-.08.26-.08.26-.08.26-.08.27-.08.26-.08.26-.08.25-.08.25-.07.25-.07.24-.07.24-.06.24-.06.23-.06.22-.05.21-.05.2-.04.2-.04.19-.03.18-.03.17-.03.16-.02.15-.02.15-.02h.14s.14-.03.14-.03h.13s.12-.02.12-.02h.12s.11-.01.11-.01h.12s.11-.01.11-.01h.11s.11,0,.11,0h.11s.11,0,.11,0h.11s.12,0,.12,0h.12s.12,0,.12,0h.12s.12-.01.12-.01h.12s.12-.01.12-.01h.11s.11-.01.11-.01h.11s.11-.01.11-.01h.11s.11-.01.11-.01h.11s.1-.01.1-.01h.1s.1-.01.1-.01h.09s.09-.01.09-.01h.09s.09-.01.09-.01h.09s.09-.01.09-.01h.09s.09-.02.09-.02h.08s.09-.02.09-.02h.08s.09-.02.09-.02h.08s.09-.02.09-.02h.09s.09-.03.09-.03h.09s.09-.03.09-.03l.09-.02.1-.02.1-.02.11-.03.12-.04.12-.04.12-.04.13-.05.14-.06.14-.06.15-.07.15-.07.15-.08.16-.09.16-.1.16-.11.16-.11.17-.12.17-.12.16-.13.17-.14.17-.15.16-.14.16-.14.15-.14.15-.14.15-.14.14-.14.13-.13.13-.13.12-.12.12-.12.11-.11.11-.11.1-.11.09-.1.09-.1.09-.1.08-.09.08-.09.08-.09.08-.09.08-.09.08-.09.07-.09.07-.09.07-.08.07-.08.07-.08.07-.08.07-.08.07-.08.07-.08.07-.08.07-.08.06-.07.07-.07.07-.07.07-.07.07-.07.07-.07.07-.07.07-.07.07-.06.07-.07.07-.07.07-.06.07-.06.08-.07.08-.07.08-.07.08-.07.09-.07.09-.08.09-.08.09-.08.1-.08.1-.08.1-.08.1-.08.1-.09.1-.08.1-.09.1-.08.1-.09.1-.09.11-.09.1-.09.1-.08.1-.08.1-.08.1-.08.1-.08.1-.08.1-.08.1-.08.1-.08.09-.08.1-.08.1-.08.1-.08.1-.08.1-.07.09-.07.09-.07.09-.07.09-.07.09-.06.09-.06.09-.06.1-.06.1-.06.09-.06.1-.06.1-.06.09-.06.09-.06.1-.06.09-.06Z" fill="#e5dabb"/><path d="M327.74,273.34v.21s0,.22,0,.22v.24s-.03.24-.03.24l-.03.26-.04.27-.04.28-.06.29-.06.3-.07.31-.08.3-.08.3-.09.3-.09.29-.09.29-.1.28-.1.27-.1.26-.1.25-.1.24-.1.24-.11.23-.11.22-.11.21-.11.2-.11.2-.11.19-.12.19-.12.18-.12.18-.13.17-.13.17-.13.17-.14.17-.14.16-.14.16-.14.16-.14.15-.14.15-.14.15-.14.15-.14.14-.14.14-.14.14-.14.14-.14.14-.14.14-.14.14-.14.14-.15.14-.16.15-.17.15-.18.15-.19.16-.19.16-.2.16-.21.16-.21.16-.21.16-.21.16-.21.15-.21.15-.21.15-.2.14-.19.13-.19.13-.17.12-.17.11-.16.11-.16.1-.15.1-.14.09-.13.09-.13.09-.12.08-.11.08-.11.07-.11.07-.1.06-.1.06-.09.06-.09.06-.09.06-.09.06-.08.05-.08.05-.08.05-.07.05-.07.05-.07.05-.07.04-.07.05-.07.05-.07.05-.07.05-.07.05-.07.05-.08.06-.09.06-.1.07-.1.07-.11.07-.12.08-.12.09-.14.1-.15.1-.15.1-.16.11-.16.11-.17.11-.18.11-.19.11-.19.11-.19.11-.2.11-.2.11-.21.11-.21.11-.22.1-.22.1-.22.09-.22.09-.23.08-.23.08-.23.07-.23.06-.23.06-.23.05-.23.05-.23.04-.22.04-.22.04-.22.03-.22.03-.21.02-.21.02-.21.02h-.21s-.21.03-.21.03h-.2s-.21.01-.21.01h-.2s-.2,0-.2,0h-.19s-.19-.01-.19-.01h-.18s-.17-.02-.17-.02h-.16s-.16-.03-.16-.03h-.15s-.14-.03-.14-.03l-.14-.02-.13-.02-.13-.02-.12-.02-.11-.02-.11-.02-.11-.03-.1-.03-.1-.03-.09-.03-.09-.03-.09-.03-.09-.03-.08-.03-.08-.03-.08-.03-.07-.03-.07-.03-.07-.02-.07-.02-.07-.03h-.03c.22-4.78.1-9.54-.41-14.25,1.96-.84,3.99-1.5,6.03-1.96.18-.04.37-.08.55-.12.18-.04.36-.08.55-.11.18-.04.37-.07.55-.1.22-.04.44-.07.66-.11.13-.02.26-.04.4-.06.12-.02.24-.03.36-.05.13-.02.25-.03.37-.04.14-.02.27-.03.4-.04.18-.02.36-.04.54-.05.4.04.77.03,1.09-.03.05,0,.1-.02.14-.03.13-.03.25-.06.36-.11.05-.01.09-.04.14-.06,2.4-1.05,1.7-5.09-1.86-4.29-.89.08-1.78.18-2.67.32-3.28-4.19-4.81-9.93-5.52-15.15,3.12-3.51,5.86-7.39,8.22-11.2,1.57-2.89,3.32-6.31,2.81-9.64-.83-1.99-3.94-1.61-4.31.5-.81,4.86-3.36,9.18-6.48,13.07-.04.04-.07.09-.11.13-.31.39-.64.78-.96,1.16-.05.06-.1.11-.15.17-.13.15-.26.3-.39.45-.09.1-.17.19-.26.29-.16.18-.32.36-.49.54-.17.19-.35.39-.53.58-.63.69-1.28,1.37-1.92,2.03-.6.62-1.2,1.22-1.79,1.82-.34.3-.67.61-1.01.9-.58-1.42-1.21-2.83-1.89-4.23-1.17-1.87-2.8-7.78-5.19-7.56-1.67,0-2.7,1.91-1.97,3.38,2.18,3.68,3.98,7.5,5.43,11.42,0,.01,0,.02.01.03.13.36.26.72.39,1.08.09.26.18.52.27.79.17.49.33.98.48,1.48.11.34.22.69.32,1.04,0,.02.01.05.02.07,1.08,3.61,1.88,7.3,2.44,11.04.06.37.11.74.16,1.12,0,.04.01.08.01.12.06.4.11.79.15,1.19,0,.02,0,.04,0,.07.05.39.09.77.13,1.16,0,.03,0,.06,0,.09.04.33.07.66.1.99,0,.06.01.12.02.19.81,8.85.33,17.88-1.1,26.78-.02.13-.04.26-.06.39-.05.32-.11.64-.16.97-.07.43-.15.86-.23,1.29-.06.36-.13.71-.2,1.07,0,.03-.01.06-.02.08-.04.23-.09.47-.14.7,0,0,0,0,0,.01-.49,2.43-1.09,4.92-1.78,7.39-.33,1.19.51,2.44,1.67,2.72,2.33.93,3.91-4.39,4.95-10.66l.04.19.05.23.05.23.05.23.04.22.04.22.04.22.04.22.04.22.04.21v.07c-1.26,9.2-5.08,18.05-10.32,25.71-.64,1.27-2.95,3.45-4.81,5.66l-.02-.04-.08-.15-.09-.15-.1-.16-.11-.17-.12-.16-.12-.17-.13-.17-.14-.18-.15-.18-.15-.18-.15-.18-.16-.18-.16-.18-.17-.18-.17-.18-.17-.18-.18-.18-.19-.18-.19-.18-.19-.18-.2-.18-.2-.18-.19-.17-.19-.16-.19-.16-.19-.16-.19-.16-.18-.15-.17-.14-.16-.14-.16-.13-.15-.12-.15-.12-.14-.11-.13-.11-.13-.11-.12-.1-.12-.1-.11-.1-.11-.09-.1-.09-.1-.09-.09-.09-.1-.09-.09-.09-.09-.09-.09-.1-.09-.1-.09-.1-.09-.11-.08-.12-.08-.12-.08-.12-.07-.12-.07-.12-.06-.12-.06-.11-.06-.11-.05-.11-.05-.11-.04-.11-.04-.11-.04-.11-.03-.11-.03-.11-.03-.11-.02-.12-.02-.12-.02-.13v-.14s-.02-.14-.02-.14v-.14s-.01-.15-.01-.15v-.16s0-.17,0-.17v-.18s.01-.19.01-.19v-.2s.03-.21.03-.21l.02-.22.02-.24.03-.24.03-.25.04-.26.04-.25.04-.25.04-.25.04-.24.04-.23.05-.23.04-.21.05-.21.05-.21.05-.2.05-.19.06-.19.06-.18.06-.17.06-.17.06-.16.06-.16.06-.15.06-.14.06-.14.07-.14.07-.13.07-.13.07-.13.08-.13.09-.13.09-.13.1-.13.1-.13.1-.12.11-.13.11-.12.11-.12.11-.12.11-.12.11-.12.11-.11.12-.11.12-.12.12-.12.12-.12.12-.11.12-.11.12-.11.12-.11.12-.11.12-.11.11-.11.11-.1.11-.1.11-.1.1-.1.1-.09.1-.09.09-.09.09-.09.09-.09.09-.09.09-.09.09-.09.09-.09.09-.09.09-.09.08-.1.08-.09.08-.1.08-.1.08-.1.08-.11.08-.11.08-.11.08-.12.08-.12.07-.12.07-.13.07-.14.07-.14.07-.15.07-.16.07-.17.07-.18.07-.19.07-.2.07-.2.07-.21.07-.22.07-.24.07-.24.07-.24.07-.24.07-.24.07-.25.07-.26.07-.26.07-.26.07-.26.06-.26.06-.25.06-.25.06-.24.05-.23.05-.22.05-.21.04-.21.04-.2.04-.2.04-.19.03-.19.03-.19.02-.19.02-.19v-.21s.02-.22.02-.22v-.23s-.03-.25-.03-.25l-.05-.27-.07-.29-.1-.3-.13-.31-.16-.32-.19-.33-.22-.34-.24-.35-.26-.34-.28-.34-.3-.34-.31-.34-.32-.35-.33-.34-.33-.34-.32-.34-.32-.32-.3-.31-.29-.31-.29-.3-.26-.29-.25-.29-.24-.28-.22-.27-.21-.27-.19-.26-.18-.25-.16-.25-.15-.24-.14-.24-.13-.24-.11-.24-.1-.23-.09-.22-.08-.21-.07-.2-.07-.19-.06-.18-.05-.17-.05-.16-.04-.15-.03-.15-.03-.15v-.15s-.02-.15-.02-.15v-.16s.02-.16.02-.16l.03-.16.04-.17.06-.18.07-.19.09-.19.1-.19.11-.2.14-.2.16-.2.17-.2.19-.2.21-.2.23-.2.25-.2.26-.19.27-.18.28-.18.28-.16.29-.16.29-.15.29-.14.28-.13.27-.12.27-.12.27-.11.27-.11.27-.1.26-.1.26-.09.26-.09.26-.09.25-.09.24-.08.22-.07.21-.07.2-.06.19-.06.18-.06.17-.06.16-.05.16-.05.15-.05.14-.05.14-.06.14-.06.14-.07.13-.08.12-.09.11-.1.11-.11.1-.11.09-.13.09-.13.08-.14.07-.16.06-.16.06-.18.05-.19.04-.2.03-.22.03-.24.02-.26v-.28s0-.3,0-.3v-.32s-.03-.33-.03-.33l-.03-.35-.04-.38-.05-.4-.06-.41-.06-.42-.07-.42-.07-.43-.08-.43-.09-.43-.1-.43-.11-.41-.12-.4-.12-.38-.14-.37-.15-.36-.16-.34-.16-.32-.17-.31-.18-.29-.2-.28-.21-.27-.22-.26-.22-.25-.23-.24-.23-.23-.23-.22-.24-.22-.23-.22-.23-.21-.23-.21-.22-.21-.22-.22-.22-.23-.21-.24-.2-.24-.2-.25-.19-.25-.17-.26-.16-.26-.15-.25-.13-.24-.12-.24-.1-.23-.09-.22-.07-.22-.06-.22-.04-.21-.03-.21v-.21s0-.22,0-.22l.04-.23.06-.23.08-.23.1-.23.12-.23.14-.23.16-.23.17-.22.19-.21.2-.21.21-.2.23-.19.24-.19.24-.17.24-.16.24-.15.24-.14.24-.13.23-.13.22-.11.21-.11.19-.1.18-.09.18-.09.16-.08.16-.08.16-.08.16-.08.16-.09.15-.1.14-.12.13-.14.11-.17.08-.19.05-.22.03-.24v-.27s-.05-.3-.05-.3l-.06-.31-.09-.33-.12-.35-.15-.35-.17-.37-.21-.38-.23-.38-.25-.38-.27-.39-.3-.39-.32-.4-.36-.41-.4-.43-.42-.44-.45-.45-.48-.47-.51-.5-.54-.53-.54-.55-.53-.55-.51-.55-.49-.54-.45-.53-.43-.52-.39-.51-.36-.48-.33-.46-.3-.44-.27-.43-.25-.42-.23-.42-.21-.41-.18-.41-.16-.4-.14-.41-.11-.42-.08-.43-.05-.43-.02-.43v-.43s.06-.44.06-.44l.09-.46.12-.47.16-.47.19-.48.23-.49.26-.49.29-.5.31-.49.32-.47.31-.45.3-.42.29-.38.28-.35.26-.33.24-.3.23-.28.21-.26.2-.24.19-.22.17-.2.16-.19.15-.18.14-.17.14-.16.12-.17.11-.18.09-.19.08-.21.06-.23.04-.25.02-.26v-.28l-.02-.29-.04-.31-.06-.32-.08-.33-.09-.33-.1-.33-.11-.32-.12-.33-.13-.32-.12-.31-.12-.3-.13-.3-.12-.3-.12-.3-.12-.3-.12-.29-.12-.29-.11-.3-.1-.3-.09-.31-.08-.32-.06-.32-.05-.33-.03-.34v-.34l.03-.36.06-.36.09-.36.13-.36.16-.36.19-.34.23-.34.26-.32.28-.3.29-.28.31-.26.32-.24.34-.22.35-.2.36-.18.36-.15.37-.12.38-.09.39-.06.4-.04.4-.02h.4s.4,0,.4,0h.4s.42.03.42.03l.42.02h.42s.41.02.41.02h.4s.39,0,.39,0h.38s.37-.01.37-.01h.35s.33-.03.33-.03h.31s.29-.03.29-.03l.28-.02.26-.02.24-.02.23-.02.21-.02.21-.02.19-.02.18-.02.17-.02.16-.02.15-.02.15-.02.14-.02h.13s.13-.03.13-.03h.12s.11-.03.11-.03h.11s.11-.03.11-.03h.11s.12-.02.12-.02h.13s.14-.02.14-.02h.15s.17-.02.17-.02h.17s.19-.03.19-.03l.19-.02.19-.02.2-.02.21-.02.2-.03.2-.03.2-.03.19-.03.2-.04.21-.04.22-.05.23-.06.23-.08.24-.1.24-.12.24-.13.23-.14.23-.15.21-.15.2-.16.19-.16.18-.17.16-.17.15-.17.14-.17.13-.17.12-.16.11-.16.1-.15.09-.15.09-.14.08-.13.07-.13.07-.12.06-.12.06-.11.06-.11.05-.11.05-.11.05-.11.05-.11.05-.1.05-.1.05-.1.06-.09.06-.09.06-.08.06-.08.07-.08.07-.07.08-.06.08-.06.09-.06.09-.05.09-.05.09-.04.1-.04.1-.04.1-.04.1-.03.1-.03.1-.03.1-.02.11-.02.11-.02.12-.02h.13s.14-.03.14-.03h.15s.16-.03.16-.03l.17-.02.17-.02.18-.02.19-.03.19-.03.18-.03.18-.04.18-.04.17-.04.17-.04.16-.04.15-.04.15-.04.14-.04.14-.04.13-.05.13-.04.13-.04.12-.04.11-.04.11-.04.11-.04.11-.04.11-.04.1-.04.11-.04.11-.04.12-.04.13-.04.13-.03.14-.02.14-.02h.15s.15,0,.15,0h.16s.16.04.16.04l.16.03.16.04.16.05.16.06.16.06.16.07.16.08.15.08.15.09.15.09.16.1.16.1.16.11.16.11.16.11.17.12.16.12.16.12.16.12.16.12.16.12.16.12.16.12.16.12.16.11.15.11.16.11.16.11.16.11.16.11.16.11.16.11.16.11.17.11.17.11.17.11.17.11.17.11.17.11.17.11.17.11.17.11.17.11.17.11.17.11.17.11.17.11.17.12.17.12.18.13.19.13.19.14.19.14.2.15.2.17.2.18.21.19.21.2.2.21.2.22.19.23.19.23.18.24.17.24.16.23.15.22.14.22.13.21.12.2.12.2.11.2.1.19.1.19.09.19.09.19.09.19.09.19.08.2.08.19.08.2.07.19.07.19.07.19.06.19.06.19.06.18.06.18.06.17.06.17.05.16.05.16.05.16.05.15.04.16.05.15.04.16.04.17.04.18.04.19.04.2.04.22.03.24.02.25.02.26v.27s.02.28.02.28v.29s-.01.29-.01.29v.3s-.04.29-.04.29l-.03.3-.03.31-.04.31-.05.31-.05.31-.06.31-.06.31-.07.32-.08.33-.08.34-.09.34-.09.34-.1.35-.1.35-.1.35-.1.35-.1.34-.1.33-.09.32-.09.32-.09.31-.08.3-.08.29-.07.28-.06.27-.06.26-.05.25-.05.24-.04.23-.04.22-.04.21-.03.21-.02.21-.02.2v.19s-.03.19-.03.19v.19s-.01.19-.01.19v.4s.02.21.02.21v.22s.04.22.04.22l.03.24.03.24.03.25.04.25.04.26.04.26.05.27.05.28.05.28.05.27.06.27.06.27.06.27.06.27.06.26.06.25.05.25.06.24.05.24.06.24.06.24.06.24.06.25.06.26.07.27.07.27.07.28.08.29.08.29.08.29.09.29.09.29.09.28.09.27.09.26.08.26.09.24.08.24.08.22.08.21.07.2.07.19.07.19.07.18.07.18.07.17.07.17.07.17.06.17.07.17.06.17.06.17.06.17.06.17.05.17.05.17.04.17.04.17.04.16.03.16.03.16.02.16.02.15v.15s.03.14.03.14v.14s.02.14.02.14v.14s0,.13,0,.13v.13s0,.13,0,.13v.13s0,.13,0,.13v.14s-.01.14-.01.14v.14s-.02.14-.02.14v.14s-.01.14-.01.14v.15s-.01.14-.01.14v.15s-.01.14-.01.14v.14s0,.14,0,.14v.14s0,.14,0,.14v.31s0,.17,0,.17v.18s.01.18.01.18v.19s.03.21.03.21l.02.21.02.22.02.23.02.24.02.24.02.23.02.23.02.22.02.22.02.21.02.21.02.2.02.2.02.19.02.19v.2s.03.2.03.2v.21Z" fill="#e5dabb"/><path d="M198.35,270.57v.32s-.02.15-.02.15l-.02.14-.02.14-.03.13-.03.12-.04.11-.04.11-.05.11-.05.1-.06.1-.06.09-.06.09-.07.08-.07.07-.07.07-.08.06-.08.06-.08.05-.09.05-.09.04-.09.04-.09.04-.09.03-.09.03-.1.02-.1.02h-.1s-.1.02-.1.02h-.1s-.1,0-.1,0h-.1s-.1-.01-.1-.01h-.1s-.1-.02-.1-.02h-.1s-.1-.04-.1-.04l-.1-.02-.11-.02-.11-.03-.11-.03-.11-.03-.11-.04-.11-.04-.11-.04-.11-.04-.11-.05-.11-.05-.11-.06-.11-.06-.12-.06-.11-.06-.12-.07-.12-.07-.12-.07-.13-.07-.13-.08-.13-.08-.13-.08-.13-.09-.13-.09-.13-.09-.13-.09-.12-.09-.12-.09-.11-.09-.11-.09-.1-.09-.1-.09-.09-.08-.09-.08-.08-.08-.08-.08-.08-.08-.07-.08-.07-.08-.07-.08-.06-.08-.06-.08-.06-.08-.06-.08-.06-.08-.06-.08-.06-.08-.06-.09-.06-.09-.06-.09-.06-.09-.05-.09-.05-.08-.05-.09-.05-.09-.05-.09-.05-.09-.04-.09-.05-.09-.05-.09-.05-.1-.05-.1-.05-.11-.05-.11-.06-.11-.06-.12-.06-.13-.06-.14-.07-.14-.07-.14-.07-.14-.07-.15-.07-.15-.07-.15-.07-.15-.07-.14-.06-.14-.06-.14-.06-.14-.06-.14-.06-.14-.06-.14-.06-.14-.06-.15-.06-.15-.06-.16-.06-.17-.07-.18-.07-.19-.07-.21-.08-.22-.08-.24-.08-.24-.07-.25-.07-.26-.07-.26-.06-.26-.06-.25-.05-.24-.05-.23-.04-.22-.04-.21-.04-.21-.04-.2-.04-.19-.04-.19-.04-.19-.04-.19-.04-.2-.04-.2-.04-.2-.04-.21-.05-.21-.05-.22-.05-.22-.05-.23-.05-.23-.05-.23-.05-.23-.05-.22-.05-.22-.05-.21-.05-.21-.05-.19-.04-.18-.05-.17-.04-.16-.05-.16-.04-.16-.04-.15-.04-.15-.04-.15-.05-.16-.05-.16-.05-.17-.05-.17-.05-.19-.05-.19-.05-.2-.05-.21-.04-.22-.04-.23-.04-.23-.03-.24-.03-.24-.03-.24-.02-.24v-.23s-.03-.22-.03-.22v-.21s-.02-.21-.02-.21v-.21s-.01-.2-.01-.2v-.19s-.01-.18-.01-.18v-.18s-.01-.17-.01-.17v-.17s-.01-.16-.01-.16v-.16s-.01-.16-.01-.16v-.16s0-.17,0-.17v-.17s-.01-.17-.01-.17v-.17s0-.17,0-.17v-.18s0-.19,0-.19v-.19s0-.2,0-.2v-.21s-.01-.21-.01-.21v-.23s0-.24,0-.24v-.25s0-.26,0-.26v-.27s0-.28,0-.28v-.3s.02-.31.02-.31l.02-.34.02-.35.03-.36.04-.38.05-.39.06-.41.07-.42.09-.42.1-.4.11-.39.12-.37.13-.35.14-.33.14-.3.14-.27.14-.25.14-.24.14-.23.14-.22.14-.21.14-.2.15-.2.16-.2.16-.19.17-.19.18-.19.19-.19.2-.19.22-.2.24-.2.26-.21.27-.21.29-.22.3-.23.33-.23.35-.24.37-.25.38-.25.39-.25.1-.06c-.57,1.3-.91,2.9-1.28,3.91-.84,2.73-1.73,5.44-2.49,8.19-1.34,4.31,1.78,8.16,4.67,11.14l.03.05.08.16.07.15.08.16.07.16.07.16.08.16.08.16.08.17.08.17.09.18.09.18.09.18.09.18.09.19.09.19.1.19.09.18.09.18.09.18.09.17.08.17.08.16.07.16.07.15.06.14.06.13.06.13.06.12.05.12.05.11.05.11.06.11.05.11.06.11.06.11.06.11.06.11.06.11.06.11.06.12.06.12.06.12.07.13.07.13.07.13.07.14.07.14.07.14.07.14.07.14.07.14.07.15.07.15.07.15.07.16.07.16.07.17.07.18.08.19.07.19.07.2.07.21.07.21.07.22.07.22.06.22.06.22.06.22.05.22.05.22.04.21.04.2.03.2.02.19.02.19.02.19v.18s.01.17.01.17Z" fill="#e5dabb"/><path d="M227.67,259.45l-.02.15-.03.19-.04.2-.04.19-.04.19-.05.19-.05.19-.05.19-.06.2-.06.2-.06.2-.06.2-.06.21-.07.21-.07.21-.07.21-.07.21-.07.21-.07.21-.07.21-.07.21-.07.2-.06.19-.07.19-.06.19-.06.19-.06.19-.06.19-.06.18-.06.18-.06.18-.07.19-.07.19-.07.19-.07.18-.07.19-.08.19-.08.19-.08.19-.08.18-.08.18-.09.17-.09.17-.09.17-.09.17-.09.17-.09.16-.09.16-.09.17-.09.17-.09.18-.1.18-.1.18-.1.18-.1.19-.11.19-.11.19-.11.19-.11.18-.11.18-.12.18-.12.17-.12.17-.12.16-.12.15-.12.15-.12.14-.13.13-.12.13-.13.12-.12.11-.13.1-.13.09-.12.08-.12.07-.12.07-.12.06-.12.05-.11.04-.11.03-.11.03-.11.02h-.11s-.1.03-.1.03h-.1s-.1,0-.1,0h-.1s-.09,0-.09,0h-.09s-.09-.02-.09-.02l-.09-.02-.09-.02-.09-.02-.09-.03-.09-.03-.09-.03-.09-.04-.09-.04-.1-.04-.1-.04-.09-.04-.09-.05-.09-.04-.09-.05-.09-.05-.09-.05-.09-.05-.09-.05-.09-.05-.09-.05-.09-.06-.09-.06-.09-.06-.09-.06-.09-.06-.09-.06-.09-.07-.09-.07-.09-.07-.09-.07-.1-.08-.1-.09-.11-.09-.1-.09-.1-.09-.1-.09-.1-.1-.11-.1-.11-.1-.11-.1-.1-.1-.1-.11-.11-.11-.11-.11-.11-.12-.11-.12-.11-.12-.11-.13-.11-.14-.12-.14-.12-.15-.12-.15-.12-.16-.11-.16-.12-.17-.12-.18-.11-.18-.11-.18-.1-.18-.1-.18-.1-.19-.09-.19-.09-.19-.09-.19-.08-.19-.07-.18-.07-.18-.07-.18-.06-.18-.06-.18-.06-.18-.06-.18-.06-.18-.05-.19-.05-.19-.05-.19-.05-.2-.05-.2-.05-.21-.05-.21-.05-.22-.04-.22-.04-.22-.04-.22-.04-.22-.04-.22-.04-.22-.04-.21-.04-.2-.04-.2-.04-.19-.04-.19-.04-.19-.04-.19-.04-.18-.05-.19-.05-.2-.05-.21-.06-.22-.06-.23-.06-.24-.07-.25-.07-.27-.08-.29-.09-.3-.09-.32-.09-.33-.09-.35-.09-.37-.09-.38-.09-.4-.08-.41-.07-.41-.06-.41-.05-.41-.04-.42-.03-.41-.02-.4v-.39s-.03-.38-.03-.38v-.37s-.02-.37-.02-.37v-.36s-.03-.36-.03-.36l-.02-.34-.02-.34-.02-.34-.02-.34-.02-.36-.02-.36v-.36s-.02-.36-.02-.36v-.74s.02-.38.02-.38l.02-.37.04-.36.05-.34.05-.34.06-.33.07-.32.07-.31.08-.3.07-.29.07-.29.08-.29.07-.29.07-.29.06-.29.06-.29.06-.29.06-.29.06-.29.06-.29.06-.29.06-.29.07-.3.07-.3.08-.31.09-.31.1-.29.11-.29.12-.29.13-.28.14-.27.15-.26.16-.24.16-.23.17-.22.17-.22.18-.21.19-.21.19-.19.2-.19.2-.18.21-.18.21-.18.21-.16.21-.16.2-.15.2-.14.2-.14.2-.13.19-.12.19-.12.2-.12.21-.12.21-.12.22-.12.23-.12.24-.11.24-.11.25-.11.27-.11.28-.1.28-.09.29-.08.29-.08.3-.07.31-.06.32-.06.33-.05.34-.04.35-.03.35-.02c-.36,1.06-.49,2.28-.66,3.26-1.27,8.09.41,16.95,6.21,23.01.11.12.24.23.38.32Z" fill="#e5dabb"/><path d="M261.36,263.99v.04s0,.08,0,.08v.07s-.01.07-.01.07v.07s-.01.06-.01.06v.06s0,.06,0,.06v.06s-.01.06-.01.06v.06s-.01.06-.01.06v.06s-.01.06-.01.06v.06s-.01.06-.01.06v.06s-.02.06-.02.06v.06s-.02.06-.02.06v.06s-.03.06-.03.06v.06s-.02.06-.02.06v.06s-.03.06-.03.06v.06s-.03.06-.03.06l-.02.06v.06s-.03.07-.03.07l-.02.07-.02.07-.02.07-.02.08-.02.08-.02.08-.02.09-.02.09-.02.09-.03.1-.03.1-.03.11-.03.11-.03.12-.03.12-.03.12-.03.13-.04.13-.04.14-.04.14-.04.14-.04.14-.04.14-.04.14-.04.14-.04.15-.04.15-.04.14-.04.14-.04.14-.04.14-.04.14-.04.14-.04.14-.04.14-.04.14-.04.13-.04.14-.04.14-.04.14-.03.14-.04.14-.04.14-.03.15-.03.15-.03.15-.03.15-.03.15-.03.15-.03.16-.02.16-.02.16-.02.15-.02.16-.02.16-.03.16-.03.16-.03.16-.04.16-.04.16-.04.16-.05.17-.06.16-.06.17-.07.17-.08.17-.09.17-.1.17-.1.17-.11.17-.11.16-.12.16-.13.17-.14.17-.14.17-.15.16-.15.16-.16.16-.16.16-.17.16-.17.16-.17.15-.17.14-.17.13-.16.12-.16.11-.16.1-.16.09-.15.08-.16.07-.16.06-.16.06-.16.05-.16.05-.17.04-.18.04-.19.03-.19.03-.2.02h-.21s-.22.02-.22.02h-.23s-.24,0-.24,0l-.25-.02-.25-.02-.25-.03-.26-.04-.26-.05-.26-.06-.27-.06-.26-.07-.26-.08-.25-.08-.25-.08-.24-.09-.24-.09-.23-.09-.22-.09-.22-.09-.21-.09-.2-.09-.19-.09-.18-.09-.17-.09-.16-.09-.16-.1-.15-.1-.14-.1-.14-.1-.13-.11-.13-.11-.13-.11-.13-.12-.13-.12-.13-.13-.12-.14-.12-.14-.13-.15-.13-.16-.13-.16-.12-.17-.12-.17-.12-.17-.11-.17-.11-.17-.1-.17-.09-.16-.09-.16-.08-.16-.08-.16-.08-.16-.07-.16-.07-.15-.06-.15-.07-.16-.07-.16-.07-.17-.07-.17-.07-.18-.07-.18-.06-.19-.07-.19-.06-.19-.06-.19-.06-.19-.06-.19-.05-.19-.05-.18-.05-.19-.04-.18-.04-.18-.04-.18-.04-.18-.04-.18-.04-.19-.04-.19-.04-.2-.04-.2-.04-.21-.04-.22-.05-.23-.04-.23-.05-.23-.04-.23-.04-.23-.04-.23-.04-.23-.04-.22-.04-.21-.03-.2-.03-.18-.03-.18-.03-.17-.03-.16-.02-.15-.02-.14-.02-.14-.02-.14-.02-.14-.02-.14-.02-.15-.02-.15-.02-.16-.02-.16-.02-.17-.03-.18-.02-.18-.02-.18-.02-.18-.02-.19-.02-.19-.02-.19-.02-.19-.02-.2-.02-.2v-.21s-.03-.22-.03-.22v-.23s-.02-.23-.02-.23v-.24s0-.24,0-.24v-.25s.01-.26.01-.26v-.26s.04-.27.04-.27l.02-.26.03-.27.04-.28.04-.29.05-.29.06-.29.06-.29.07-.29.07-.29.07-.29.08-.29.08-.28.08-.27.08-.27.08-.27.07-.27.08-.27.07-.27.08-.26.07-.26.08-.27.09-.28.09-.29.09-.3.1-.3.11-.3.12-.3.13-.31.14-.31.14-.31.15-.29.15-.3.15-.29.16-.3.16-.3.16-.29.16-.29.16-.29.16-.28.16-.28.16-.28.16-.28.15-.27.15-.27.16-.28.16-.29.16-.3.17-.3.18-.31.19-.32.19-.34.2-.34.21-.34.2-.31.16-.26.09-.14h0s.08.07.08.07c-1.65,2.8.97,8.54,1.58,11.24,1.39,5,5.57,8.37,10.56,9.41.14.04.27.06.41.07Z" fill="#e5dabb"/><path d="M241.4,200.72c.98.97,1.99,1.69,3.02,2.21-4.96,2.57-9.64,5.7-14.01,9.19-1.21,1.14-3.43,2.04-3.52,3.84h-.09s-.36-.04-.36-.04l-.37-.04-.36-.04-.35-.04-.33-.04-.32-.04-.31-.04-.29-.03-.28-.03-.26-.03-.25-.04-.24-.04-.22-.04-.22-.05-.2-.05-.19-.06-.18-.06-.17-.07-.17-.08-.16-.08-.14-.09-.13-.09-.12-.09-.11-.1-.11-.1-.09-.1-.09-.1-.08-.11-.07-.11-.06-.12-.05-.13-.04-.14-.03-.15-.02-.16v-.18s.01-.2.01-.2l.04-.21.05-.23.07-.24.09-.26.11-.27.12-.28.14-.29.15-.29.15-.29.16-.29.16-.29.17-.29.17-.29.16-.27.16-.26.16-.26.15-.25.15-.25.16-.25.15-.25.15-.25.15-.25.16-.25.16-.26.17-.27.17-.27.17-.27.17-.27.17-.27.17-.27.17-.27.17-.26.16-.25.16-.24.16-.22.16-.22.16-.21.15-.19.15-.18.15-.17.15-.16.15-.16.16-.15.16-.14.16-.14.16-.13.16-.13.18-.13.18-.13.18-.13.18-.13.18-.12.19-.13.19-.13.19-.13.19-.13.19-.13.19-.14.19-.14.19-.14.19-.14.19-.14.18-.14.17-.13.16-.13.16-.12.15-.12.14-.11.14-.11.13-.11.13-.11.13-.11.14-.11.14-.12.14-.13.15-.13.15-.14.15-.14.15-.14.14-.14.14-.14.13-.13.13-.13.13-.13.12-.12.11-.12.11-.11.1-.11.09-.1.09-.09.08-.09.08-.08.07-.08.07-.07.06-.07.06-.06.06-.06.06-.06.06-.05.06-.05.05-.04.05-.04.05-.04.05-.04.05-.03.05-.03.05-.03.05-.03.04-.03.05-.02h.02c1.86,1.26,3.9,2.97,6.17,5.19Z" fill="#e5dabb"/><path d="M281,204.97c.98,1.34,2.03,2.31,3.12,2.98-8.26,3.37-16.55,6.67-24.15,11.39-.86.65-1.95.85-2.71,1.62-.25.3-.41.65-.48,1.03l-.24-.19-.26-.22-.26-.22-.25-.23-.24-.22-.23-.22-.21-.22-.2-.21-.18-.2-.17-.19-.16-.19-.15-.18-.14-.18-.13-.16-.12-.16-.11-.16-.1-.16-.09-.17-.08-.16-.07-.17-.06-.17-.05-.18-.04-.19-.02-.2v-.2s0-.21,0-.21l.03-.21.05-.21.07-.22.09-.22.1-.21.11-.21.12-.2.14-.19.14-.19.16-.18.16-.18.16-.18.17-.16.18-.16.19-.16.21-.17.22-.17.24-.17.26-.18.28-.18.3-.19.32-.2.34-.21.35-.21.36-.22.37-.23.39-.24.39-.25.39-.24.39-.24.38-.23.38-.23.39-.23.38-.22.37-.22.36-.21.35-.21.34-.2.34-.2.34-.19.33-.19.32-.19.32-.19.33-.19.35-.19.36-.2.37-.2.37-.21.38-.21.39-.21.42-.22.43-.22.43-.22.42-.21.41-.2.39-.19.38-.17.36-.16.33-.15.31-.13.28-.12.26-.11.24-.09.23-.09.22-.08.21-.08.21-.08.21-.07.22-.08.23-.08.24-.08.25-.09.26-.09.27-.09.29-.11.29-.11.28-.11.28-.11.26-.11.25-.1.23-.09.21-.09.2-.08.19-.08.17-.08.16-.06.15-.06.14-.06.13-.05.12-.05.11-.04.1-.05.1-.04.1-.04.1-.04.1-.04.11-.03.12-.04.09-.03c.82,1,1.62,1.98,2.44,2.84Z" fill="#e5dabb"/><path d="M198.63,68.76c14,5.73,16.78,23.34,14.16,36.67-.61,2.27-1.49,4.49-2.64,6.55-.84-2-1.86-3.95-3.08-5.83-2.12-1.72-4.86,1.28-3.14,3.3,6.77,11.99,5.69,26.58,2.56,39.55-1.09,4.77-2.57,10.11-3.78,15.07-.35,2.06-1.96,5.6.72,6.52.31,3.32.69,6.64,1.14,9.95.91,8.56,1.89,17.13,2.39,25.73.03.5.24.92.54,1.24-.58.91-1.16,1.83-1.7,2.73h-.03s-.04-.02-.04-.02h-.04s-.04-.03-.04-.03l-.03-.02-.03-.02-.03-.02-.03-.02-.03-.02-.03-.02-.03-.02-.03-.03-.03-.02-.03-.03-.03-.03-.03-.03-.03-.03-.03-.03-.03-.03-.03-.03-.03-.03-.03-.03-.03-.03-.03-.03-.03-.03-.03-.03-.03-.04-.03-.03-.03-.04-.03-.04-.03-.03-.03-.04-.03-.04-.03-.04-.03-.04-.03-.04-.03-.04-.03-.04-.03-.04-.03-.04-.03-.04-.03-.04-.03-.04-.03-.04-.03-.04-.03-.04-.03-.04-.03-.04-.03-.05-.03-.04-.03-.05-.03-.05-.03-.05-.03-.05-.03-.05-.03-.05-.03-.05-.03-.05-.03-.05-.03-.05-.03-.05-.03-.05-.03-.05-.02-.05-.02-.04-.02-.04-.02-.04-.02-.04-.02-.04-.02-.04-.02-.05-.02-.05-.02-.05-.02-.05-.02-.05-.02-.05-.02-.06-.03-.06-.03-.06-.03-.06-.03-.06-.03-.07-.03-.07-.03-.07-.03-.07-.03-.06-.02-.07-.02-.06-.02-.06-.02-.06-.02-.06-.02-.06-.02-.06-.02-.07-.02-.07-.02-.07-.02-.07-.02-.08-.02-.09-.02-.09-.02-.09-.02-.1-.03-.1-.02-.11-.02-.11-.02-.11-.02-.11-.02-.11-.02-.11-.02-.12-.02-.12-.02-.12v-.12s-.03-.12-.03-.12l-.02-.13v-.14s-.03-.15-.03-.15l-.02-.16-.02-.17-.02-.19-.02-.2-.03-.22-.03-.24-.03-.26-.04-.27-.04-.28-.04-.29-.04-.3-.04-.29-.04-.29-.04-.29-.04-.27-.04-.26-.04-.25-.04-.24-.04-.23-.03-.21-.03-.2-.03-.2-.03-.19-.03-.2-.03-.19-.04-.2-.04-.2-.04-.21-.04-.21-.04-.22-.04-.23-.05-.24-.05-.24-.05-.25-.05-.26-.05-.26-.05-.26-.05-.26-.05-.25-.04-.24-.05-.24-.04-.24-.04-.24-.04-.24-.04-.23-.04-.22-.04-.23-.04-.22-.04-.23-.04-.23-.04-.23-.04-.23-.04-.24-.04-.24-.04-.25-.04-.24-.05-.24-.05-.24-.05-.23-.06-.23-.06-.22-.06-.21-.06-.2-.07-.19-.07-.19-.07-.18-.07-.18-.07-.18-.08-.17-.08-.18-.08-.18-.08-.19-.08-.19-.08-.19-.08-.19-.08-.2-.08-.2-.08-.21-.08-.21-.08-.21-.07-.21-.07-.21-.07-.21-.07-.22-.08-.23-.08-.23-.08-.23-.09-.24-.09-.25-.09-.25-.09-.25-.1-.26-.1-.25-.11-.26-.11-.26-.11-.26-.11-.26-.11-.26-.11-.25-.11-.25-.11-.24-.11-.24-.11-.25-.1-.24-.09-.25-.09-.25-.09-.26-.09-.27-.09-.29-.08-.29-.07-.29-.06-.29-.06-.3-.06-.31-.06-.32-.06-.33-.05-.33-.05-.34-.05-.34-.05-.34-.05-.35-.04-.35-.04-.34-.04-.34-.04-.34-.04-.34-.04-.35-.03-.34-.03-.33-.03-.32-.02-.31-.02-.31-.02-.31-.02-.29-.02-.27v-.26s-.03-.24-.03-.24v-.23s-.03-.22-.03-.22v-.22s-.02-.21-.02-.21v-.21s-.01-.21-.01-.21v-.21s0-.22,0-.22v-.22s0-.22,0-.22v-.23s0-.24,0-.24v-.25s0-.26,0-.26v-.27s.02-.28.02-.28v-.29s.02-.3.02-.3v-.31s.04-.32.04-.32l.02-.32.03-.31.03-.31.03-.32.04-.32.04-.32.04-.31.04-.29.04-.29.04-.29.04-.29.04-.28.04-.27.04-.26.04-.25.04-.24.04-.24.04-.24.04-.23.04-.22.04-.21.04-.21.04-.2.04-.21.04-.2.04-.2.05-.2.05-.2.05-.21.06-.21.06-.21.06-.21.06-.21.06-.21.07-.22.07-.23.08-.23.08-.24.08-.24.09-.24.09-.24.09-.25.09-.24.09-.24.09-.23.09-.23.09-.22.09-.22.09-.22.08-.21.08-.21.08-.2.07-.2.07-.2.07-.19.07-.19.07-.19.07-.19.06-.19.07-.19.06-.19.07-.19.06-.19.07-.19.06-.19.07-.19.07-.19.06-.19.07-.19.07-.2.07-.21.08-.21.08-.21.08-.21.08-.22.09-.22.09-.23.09-.23.09-.23.09-.22.08-.22.08-.22.08-.21.08-.22.08-.21.07-.2.07-.2.06-.2.06-.19.06-.19.06-.19.06-.18.05-.17.06-.17.05-.17.05-.17.05-.17.05-.16.05-.16.05-.17.05-.17.05-.17.05-.16.05-.16.05-.16.04-.16.05-.16.04-.16.05-.16.04-.16.05-.17.05-.17.05-.18.05-.19.05-.19.05-.19.05-.2.05-.21.05-.21.05-.22.05-.22.05-.22.05-.22.05-.23.05-.23.05-.24.05-.24.05-.24.05-.24.05-.24.04-.24.04-.24.04-.24.04-.24.04-.24.04-.24.04-.23.04-.23.04-.23.03-.21.03-.21.03-.2.03-.2.03-.2.03-.19.03-.19.03-.19.03-.18.03-.18.03-.18.03-.18.02-.18.02-.17.02-.18.02-.18.02-.18.02-.18.02-.18.02-.17.02-.17.02-.17.02-.17.02-.17v-.16s.03-.16.03-.16v-.16s.03-.16.03-.16v-.16s.03-.16.03-.16v-.16s.02-.16.02-.16v-.17s.02-.17.02-.17v-.17s.02-.18.02-.18v-.17s.02-.17.02-.17v-.18s.01-.17.01-.17v-.18s0-.18,0-.18v-.17s0-.17,0-.17v-.34s0-.17,0-.17v-.16s-.01-.16-.01-.16v-.16s-.02-.15-.02-.15v-.15s-.03-.15-.03-.15l-.02-.14-.02-.14-.02-.14-.02-.13-.02-.13-.02-.12-.02-.12-.02-.11-.02-.11-.02-.11-.02-.11-.02-.1-.02-.1-.02-.1-.02-.1-.02-.1-.02-.1-.02-.1-.02-.1-.02-.1-.02-.1-.02-.11-.02-.11-.03-.11-.03-.11-.03-.11-.03-.11-.03-.11-.03-.11-.03-.11-.03-.11-.04-.1-.04-.11-.04-.1-.04-.1-.04-.1-.04-.1-.04-.09-.04-.1-.04-.09-.04-.09-.04-.1-.04-.09-.04-.09-.04-.09-.04-.1-.04-.1-.04-.1-.04-.1-.04-.09-.04-.09-.04-.09-.04-.09-.04-.09-.04-.09-.04-.09-.04-.09-.04-.09-.04-.09-.04-.09-.04-.09-.04-.08-.04-.08-.03-.08-.04-.08-.04-.08-.04-.08-.04-.08-.04-.09-.04-.09-.04-.09-.04-.09-.04-.09-.04-.1-.04-.1-.04-.1-.04-.1-.05-.1-.05-.1-.05-.11-.05-.1-.05-.1-.05-.11-.05-.1-.05-.1-.05-.1-.05-.1-.05-.1-.05-.11-.05-.1-.05-.1-.05-.11-.05-.11-.06-.11-.06-.11-.06-.11-.06-.11-.06-.11-.06-.11-.06-.11-.06-.12-.06-.12-.06-.12-.06-.12-.06-.12-.06-.12-.06-.12-.06-.12-.06-.12-.06-.11-.06-.11-.06-.11-.06-.1-.06-.1-.05-.1-.05-.09-.05-.09-.05-.09-.04-.09-.04-.09-.04-.09-.04-.09-.04-.09-.04-.09-.03-.09-.03-.09-.03-.09-.02-.09-.02-.09-.02-.09-.02-.1-.02-.1v-.09s-.02-.1-.02-.1v-.09s-.01-.1-.01-.1v-.1s0-.1,0-.1v-.1s0-.1,0-.1v-.1s.02-.1.02-.1v-.1s.03-.1.03-.1l.02-.1.02-.1.03-.09.03-.09.03-.1.03-.09.03-.09.03-.1.04-.1.04-.1.04-.11.04-.11.04-.11.05-.11.05-.12.05-.12.05-.12.06-.13.06-.13.06-.13.06-.13.06-.13.06-.13.06-.13.06-.12.06-.11.06-.11.06-.11.06-.11.05-.11.05-.1.05-.09.05-.09.05-.09.05-.09.05-.09.05-.08.05-.08.05-.08.04-.08.05-.08.05-.08.05-.08.04-.07.04-.08.04-.07.05-.07.04-.07.04-.07.04-.07.04-.06.04-.06.04-.06.03-.06.03-.06.03-.06.03-.06.02-.06.02-.05.02-.06.02-.05.02-.06.02-.06.03-.06.02-.06.03-.06.03-.07.03-.07.03-.07.03-.07.03-.08.03-.08.03-.08.03-.08.04-.08.03-.08.04-.08.04-.09.04-.09.04-.08.04-.09.04-.09.04-.09.04-.09.04-.09.05-.09.04-.1.05-.1.05-.1.05-.1.05-.1.05-.1.05-.1.05-.1.05-.1.05-.1.05-.1.05-.1.05-.09.05-.09.05-.09.04-.09.04-.09.04-.08.04-.08.04-.08.04-.08.04-.08.04-.08.04-.08.04-.07.04-.07.04-.07.04-.07.04-.07.05-.07.05-.07.05-.07.05-.07.05-.07.05-.07.05-.07.05-.07.05-.07.05-.07.05-.08.06-.08.05-.08.06-.08.06-.09.06-.09.06-.09.06-.09.06-.09.06-.09.06-.1.06-.09.06-.09.06-.09.05-.08.05-.08.04-.07.04-.06.04-.06.03-.06.03-.05.03-.05.03-.04.02-.04.02-.04.02-.04.02-.04.02-.04.02-.04.02-.04.02-.04.02-.04.02-.04.02-.04.02-.05.02-.05.02-.05.02-.05.02-.05.02-.06.02-.05.02-.06.03-.06.02-.06.03-.06.03-.06.03-.06.03-.06.03-.06.03-.06.03-.07.03-.07.03-.07.03-.07.03-.07.03-.08.03-.08.03-.09.04-.09.03-.09.04-.09.03-.09.04-.1.03-.1.04-.1.03-.1.03-.11.03-.11.03-.11.03-.11.03-.11.03-.11.02-.11.02-.11.02-.12.02-.12.02-.12.02-.12.02-.12v-.12s.03-.13.03-.13v-.13s.03-.14.03-.14l.02-.14.02-.14v-.14s.04-.15.04-.15l.02-.16.02-.16.02-.17.02-.17.02-.17.02-.18.02-.19.02-.19.02-.19.02-.19.02-.2v-.2s.03-.2.03-.2v-.2s.03-.2.03-.2v-.19s.02-.19.02-.19v-.18s0-.17,0-.17v-.17s0-.16,0-.16v-.28s0-.13,0-.13v-.13s-.01-.13-.01-.13v-.12s-.01-.13-.01-.13v-.13s-.02-.14-.02-.14v-.14s-.02-.15-.02-.15v-.16s-.03-.16-.03-.16l-.02-.16-.02-.16-.02-.17-.03-.17-.03-.17-.03-.17-.04-.17-.04-.16-.04-.16-.04-.15-.04-.14-.04-.14-.04-.13-.04-.12-.04-.12-.04-.11-.04-.11-.04-.11-.04-.11-.04-.11-.04-.12-.05-.13-.05-.13-.05-.14-.05-.14-.05-.15-.06-.16-.06-.17-.06-.17-.06-.18-.06-.18-.06-.19-.06-.19-.06-.19-.06-.19-.06-.18-.06-.18-.07-.17-.07-.17-.08-.17-.08-.16-.08-.16-.09-.15-.09-.15-.09-.15-.09-.16-.1-.15-.1-.16-.11-.16-.11-.16-.12-.17-.13-.17-.13-.17-.13-.18-.14-.18-.14-.18-.14-.19-.15-.19-.15-.19-.15-.18-.15-.18-.15-.17-.14-.17-.14-.16-.14-.16-.13-.15-.13-.15-.13-.15-.13-.15-.12-.15-.12-.15-.11-.14-.11-.15-.11-.15-.11-.16-.1-.16-.1-.16-.09-.16-.09-.16-.09-.16-.09-.17-.09-.17-.09-.17-.09-.17-.09-.18-.09-.18-.09-.19-.1-.19-.1-.19-.1-.18-.11-.19-.11-.19-.12-.19-.12-.2-.13-.19-.13-.19-.13-.2-.14-.21-.14-.21-.14-.22-.15-.23-.15-.24-.15-.25-.16-.26-.16-.27-.16-.27-.14-.25-.04-.06c.41-.2.7-.46.91-.76.2.06.39.14.58.21Z" fill="#e5dabb"/><path d="M191.48,67.63c-.92,1.29-1.29,2.81-1.36,4.41-2.67-.08-5.33.17-7.97.57,1.94-3.3,5.57-4.78,9.33-4.98Z" fill="#fff6df"/><path d="M191.06,80.86c.5,3.71.87,7.27.67,11.17-2.85-.13-6.88.18-9.72,1.2.35-3.64.06-7.27-.27-10.9h0l.11-.02.21-.03.25-.04.26-.04.26-.03.25-.03.24-.02.22-.02.21-.02.19-.02.18-.02.16-.02.15-.02.14-.02.13-.02.12-.02.11-.02.1-.02.1-.02.09-.02.09-.02.09-.02.09-.03.09-.02.09-.02.09-.02.1-.02.1-.02.11-.02h.11s.12-.02.12-.02h.12s.12,0,.12,0h.12s.12,0,.12,0h.12s.11,0,.11,0h.11s.11,0,.11,0h.2s.1,0,.1,0h.1s.1-.01.1-.01h.1s.1-.03.1-.03l.1-.02.11-.02.11-.03.11-.03.11-.03.11-.03.12-.04.12-.04.11-.04.11-.03.11-.03.1-.03.1-.03.1-.03.09-.02.08-.02.08-.02.07-.02.07-.02h.06s.06-.03.06-.03h.06s.05-.03.05-.03h.05s.05-.02.05-.02h.05s.05-.02.05-.02h.04s.04-.02.04-.02h.04s.04-.02.04-.02h.04s.04-.01.04-.01h.04s.04-.02.04-.02h.05s.06-.02.06-.02h.06s.06-.01.06-.01h.06s.06-.01.06-.01h.05Z" fill="#a75547"/></svg>