<?xml version="1.0" encoding="UTF-8"?><svg id="a" xmlns="http://www.w3.org/2000/svg" viewBox="0 0 500 500"><path d="M435.9,315.87c.05,3.8-.12,7.64-.62,11.42-.25,1.88-.49,3.76-.89,5.61-.4,1.86-.77,3.73-1.32,5.55-1.11,3.7-2.32,7.37-4.01,10.85-.85,1.74-1.72,3.46-2.69,5.13-1.04,1.78-2.16,3.49-3.32,5.18-2.12,3.07-4.58,5.91-7.2,8.55-1.37,1.39-2.81,2.69-4.28,3.98-1.34,1.18-2.77,2.31-4.22,3.35-3.05,2.18-6.18,4.27-9.5,6.04-6.69,3.55-13.73,6.42-21.06,8.39-7.27,1.95-14.69,3.35-22.2,4.05-5.41.5-10.84.76-16.27.76-2.15,0-4.3-.04-6.45-.12-14.94-.57-29.83-2.79-44.35-6.33-5.29-1.29-10.54-2.7-15.75-4.29-5.29-1.61-10.51-3.38-15.4-5.15-13.92-5.02-27.44-11.15-40.53-18.04-12.87-6.77-25.24-14.41-37.17-22.72-8.09-5.64-15.92-11.68-23.46-18.05-.06-.04-.12-.09-.14-.1-1.4-1.16-2.77-2.36-4.13-3.55-2.52-2.19-4.99-4.43-7.44-6.71-1.17-1.09-2.33-2.19-3.48-3.29-.09-.09-.18-.17-.27-.26h0c-8.82-8.48-17.12-17.52-24.76-27.08-1.43-1.79-2.84-3.59-4.21-5.43-.04-.06-.09-.12-.13-.19-2.67-3.56-5.24-7.19-7.7-10.9-7.85-11.86-14.67-24.53-19.5-37.94-2.47-6.86-4.4-13.88-5.72-21.04-.08-.43-.19-.89-.23-1.33-.03-.16-.05-.32-.08-.47-.07-.46-.15-.92-.22-1.38-.14-.96-.27-1.93-.38-2.9-.22-1.85-.38-3.71-.51-5.56-.04-.54-.11-1.13-.09-1.69-.05-.49-.03-1.01-.06-1.5-.04-1.02-.04-2.04-.04-3.07,0-1.77.06-3.55.19-5.32.54-7.31,1.85-14.64,4.51-21.49.72-1.85,1.48-3.66,2.31-5.46.78-1.7,1.69-3.35,2.63-4.97,1.96-3.37,4.24-6.52,6.72-9.53,2.34-2.83,4.99-5.38,7.74-7.81,1.43-1.27,2.96-2.44,4.5-3.58,1.48-1.1,3-2.16,4.56-3.13,3.29-2.04,6.67-3.96,10.2-5.54,1.76-.79,3.52-1.56,5.32-2.26,1.81-.71,3.65-1.35,5.49-1.97,7.1-2.39,14.48-3.9,21.89-4.94,3.27-.46,6.57-.79,9.88-1.01,1.03,1.68,2.06,3.36,3.1,5.04-2.37.12-4.73.29-7.1.52-2.98.29-5.93.69-8.89,1.15-2.41.42-4.81.87-7.2,1.4-2.52.56-5,1.24-7.16,1.85-2.31.72-4.6,1.48-6.87,2.31-2.2.8-4.35,1.75-6.48,2.71-1.63.78-3.25,1.58-4.84,2.44-1.65.91-3.25,1.86-4.85,2.85-1.34.89-2.68,1.79-3.97,2.75-1.38,1.03-2.71,2.09-4.03,3.19-1.01.9-2.05,1.79-3.01,2.75-.96.96-1.9,1.94-2.83,2.93-.85.96-1.67,1.93-2.49,2.91-.85,1.02-1.61,2.11-2.39,3.18-.81,1.21-1.6,2.43-2.38,3.66-.7,1.12-1.31,2.29-1.94,3.45-.57,1.15-1.12,2.3-1.66,3.46-.56,1.22-1.03,2.49-1.52,3.74-.53,1.5-1.02,3-1.48,4.52-.49,1.63-.86,3.28-1.16,4.61-.61,3.03-1.05,6.06-1.34,9.13-.13,1.78-.24,3.57-.27,5.36-.01.88,0,1.77,0,2.65,0,.51.05,1.03.03,1.53.02.42.03.85.05,1.25.2,3.75.6,7.47,1.18,11.18.03.2.07.39.1.59.04.19.07.39.1.58.09.52.19,1.05.29,1.57.87,4.4,1.97,8.73,3.27,13.02,2,6.3,4.42,12.43,7.19,18.43,3.41,7.26,7.32,14.25,11.61,21.03,5.06,7.88,10.59,15.44,16.54,22.67.73.88,1.46,1.76,1.97,2.37,3.79,4.44,7.7,8.77,11.73,12.98,2.53,2.64,5.11,5.23,7.74,7.77,2.57,2.48,5.19,4.9,7.58,7.07,10.57,9.48,21.75,18.24,33.41,26.32,5.82,4,11.76,7.82,17.81,11.46,6.33,3.8,12.78,7.37,19.12,10.67,12,6.14,24.32,11.59,36.97,16.25.52.19,1.04.38,1.56.57,11.01,3.96,22.27,7.21,33.68,9.79,4.9,1.06,9.82,1.99,14.78,2.78,4.79.76,9.61,1.31,14.26,1.75,3.66.3,7.33.55,11,.64,3.69.1,7.37.09,11.06-.02,3.36-.15,6.71-.37,10.06-.68,3.27-.3,6.51-.8,9.75-1.33,2.31-.42,4.63-.86,6.91-1.42,2.35-.57,4.68-1.21,7.01-1.88,2.16-.68,4.31-1.37,6.42-2.2,2.21-.86,4.39-1.8,6.55-2.78,1.55-.76,3.09-1.55,4.62-2.36,1.49-.79,2.92-1.7,4.36-2.58,1.41-.94,2.81-1.9,4.19-2.89,1.32-.94,2.57-1.98,3.81-3.01,1.09-.95,2.19-1.89,3.2-2.91,1.12-1.12,2.21-2.27,3.29-3.43.94-1.09,1.85-2.19,2.75-3.32.91-1.13,1.72-2.34,2.54-3.53.65-1.02,1.29-2.03,1.9-3.07.61-1.04,1.18-2.09,1.75-3.15.49-1.01.98-2.03,1.44-3.06.52-1.18,1-2.38,1.47-3.58.44-1.29.88-2.57,1.27-3.87.42-1.38.78-2.76,1.14-4.15.27-1.27.54-2.54.76-3.82.27-1.52.47-3.04.67-4.58.08-.9.17-1.8.25-2.7.09-1,.12-2.01.17-3.02.11-1.89.06-3.79.04-5.69-.1-2.19-.22-4.37-.45-6.55-.24-2.29-.56-4.56-.91-6.84-.44-2.42-.9-4.85-1.5-7.24-.63-2.53-1.3-5.04-2.05-7.53-1.95-6.18-4.3-12.2-7-18.09-3.47-7.41-7.42-14.56-11.76-21.42-.03-.04-.05-.08-.08-.13l-.04-.06c-.12-.2-.25-.39-.34-.53-5.66-8.84-12.02-17.22-18.8-25.23-8.1-9.43-16.78-18.31-25.72-26.45-5.28-4.74-10.67-9.35-16.24-13.75-5.63-4.45-11.4-8.7-17.2-12.75-.03-.02-.07-.05-.1-.07l-.08-.06c-12.09-8.31-24.67-15.9-37.72-22.61-.17-.09-.33-.17-.5-.26h0l-.12-.06c-11.97-6.08-24.24-11.47-36.85-16.07-11.17-4.01-22.54-7.39-34.11-9.99-9.42-2.06-18.92-3.59-28.51-4.52-3.88-.34-7.78-.61-11.68-.72-3.01-.08-6.02-.09-9.02-.04-1.15-1.71-2.3-3.41-3.46-5.11,2.64-.1,5.29-.14,7.93-.13,7.71.04,15.41.58,23.07,1.5,14.55,1.76,28.9,4.99,42.92,9.25,13.78,4.18,27.25,9.42,40.32,15.47,13.26,6.14,26.14,13.16,38.5,20.97,12.72,8.03,24.89,16.88,36.46,26.49,11.45,9.51,22.17,19.88,32.1,30.96,8.64,9.65,16.53,19.97,23.47,30.81,7.75,12.11,14.32,25.09,18.8,38.78,2.34,7.16,4.08,14.5,5.07,21.97.5,3.8.77,7.61.82,11.44Z"/><path d="M187.96,151.97c1.07,1.86,2.15,3.71,3.24,5.56-6.49-1.22-13.02-2.15-19.6-2.79-3.65-.32-7.3-.57-10.96-.67-3.67-.1-7.33-.08-11,.02-2.86.12-5.7.3-8.55.58-2.79.27-5.57.64-8.34,1.07-2.26.39-4.51.82-6.76,1.32-2.36.53-4.7,1.16-6.72,1.74-2.16.67-4.31,1.39-6.44,2.16-2.07.75-4.08,1.64-6.08,2.54-1.53.74-3.05,1.48-4.53,2.29-1.55.85-3.05,1.75-4.55,2.68-1.26.83-2.51,1.68-3.72,2.58-1.29.96-2.55,1.96-3.78,2.99-.95.85-1.92,1.68-2.82,2.58-.9.91-1.79,1.82-2.66,2.75-.79.9-1.57,1.8-2.33,2.73-.8.96-1.52,1.98-2.24,2.99-.76,1.13-1.5,2.28-2.23,3.43-.57.91-1.08,1.86-1.59,2.81-.03-.38-.06-.77-.04-1.16-.05-.49-.03-1.01-.06-1.5-.04-1.02-.04-2.04-.04-3.07,0-1.14.02-2.29.08-3.43,1.06-1.49,2.17-2.94,3.34-4.35,2.2-2.65,4.69-5.05,7.26-7.33,1.35-1.19,2.78-2.29,4.22-3.36,1.39-1.03,2.81-2.03,4.28-2.94,3.08-1.92,6.26-3.71,9.57-5.2,1.65-.74,3.31-1.46,4.99-2.12,1.7-.66,3.42-1.26,5.15-1.84,6.67-2.24,13.59-3.66,20.54-4.63,6.87-.97,13.85-1.33,20.79-1.29,7.24.04,14.46.54,21.65,1.41,3.32.4,6.64.89,9.94,1.45Z"/><path d="M401.78,343.94c.05,3.57-.11,7.17-.58,10.71-.23,1.76-.46,3.52-.83,5.26-.37,1.74-.72,3.5-1.24,5.21-1.04,3.47-2.18,6.92-3.76,10.18-.79,1.64-1.61,3.25-2.53,4.82-.97,1.67-2.02,3.27-3.12,4.86-1.99,2.88-4.3,5.54-6.76,8.03-1.29,1.3-2.64,2.53-4.01,3.74-1.26,1.11-2.59,2.17-3.96,3.15-2.86,2.05-5.8,4.01-8.92,5.66-6.27,3.33-12.88,6.03-19.76,7.87-6.82,1.83-13.79,3.14-20.83,3.8-5.08.47-10.17.71-15.27.71-2.02,0-4.03-.04-6.05-.12-14.02-.53-27.99-2.62-41.62-5.94-4.96-1.21-9.89-2.53-14.78-4.02-4.96-1.51-9.87-3.17-14.45-4.83-13.06-4.71-25.75-10.47-38.03-16.93-12.07-6.36-23.69-13.52-34.88-21.32-7.6-5.29-14.94-10.96-22.01-16.94-.06-.04-.12-.08-.13-.09-1.31-1.08-2.6-2.21-3.88-3.33-2.36-2.06-4.68-4.16-6.98-6.3-1.1-1.02-2.19-2.05-3.27-3.09-.09-.08-.17-.17-.26-.25t0,0c-8.28-7.95-16.06-16.44-23.23-25.41-1.34-1.68-2.67-3.37-3.95-5.09-.04-.06-.08-.12-.12-.18-2.5-3.34-4.92-6.75-7.22-10.23-7.37-11.13-13.77-23.02-18.29-35.6-2.31-6.44-4.12-13.02-5.37-19.75-.07-.41-.18-.83-.22-1.25-.02-.15-.05-.3-.07-.45-.07-.43-.14-.86-.2-1.29-.13-.91-.26-1.81-.36-2.72-.2-1.74-.36-3.48-.48-5.22-.03-.51-.11-1.06-.08-1.59-.05-.47-.03-.95-.05-1.41-.03-.96-.03-1.92-.04-2.88,0-1.66.05-3.33.17-4.99.51-6.85,1.74-13.73,4.24-20.16.67-1.74,1.39-3.44,2.17-5.12.73-1.58,1.57-3.11,2.44-4.61-2.4,9.43-3.54,19.02-3.88,28.81,0,0,0,.02,0,.03-.13,1.68-.22,3.35-.25,5.03-.01.83,0,1.66,0,2.48,0,.48.05.96.03,1.44.02.4.03.79.05,1.17.19,3.52.56,7.01,1.11,10.5.03.18.07.37.09.55.04.18.06.37.09.55.08.49.18.99.27,1.48.81,4.13,1.85,8.19,3.07,12.22,1.88,5.91,4.14,11.66,6.74,17.29,3.2,6.81,6.87,13.37,10.9,19.73,4.75,7.4,9.94,14.49,15.52,21.28.69.83,1.37,1.65,1.85,2.22,3.55,4.17,7.22,8.23,11.01,12.18,2.38,2.47,4.8,4.9,7.26,7.29,2.41,2.32,4.87,4.6,7.11,6.64,9.92,8.9,20.4,17.12,31.35,24.69,5.46,3.75,11.04,7.34,16.71,10.75,5.94,3.57,11.99,6.91,17.94,10.01,11.26,5.77,22.82,10.88,34.69,15.25.49.17.98.35,1.46.53,10.34,3.72,20.9,6.76,31.61,9.19,4.6.99,9.22,1.87,13.87,2.61,4.49.72,9.01,1.23,13.38,1.64,3.44.28,6.88.51,10.33.6,3.46.09,6.91.08,10.37-.02,3.15-.14,6.29-.35,9.44-.64,3.07-.29,6.11-.75,9.15-1.25,2.17-.4,4.34-.81,6.48-1.33,2.21-.54,4.39-1.14,6.57-1.77,2.02-.64,4.05-1.29,6.02-2.07,2.08-.81,4.11-1.69,6.14-2.61,1.46-.72,2.9-1.46,4.34-2.22,1.4-.74,2.74-1.59,4.09-2.42,1.33-.89,2.63-1.78,3.93-2.71,1.24-.88,2.41-1.86,3.58-2.83,1.01-.89,2.05-1.77,3-2.73,1.05-1.06,2.07-2.13,3.08-3.22.88-1.03,1.74-2.06,2.58-3.11.85-1.06,1.61-2.19,2.39-3.31.6-.96,1.21-1.91,1.78-2.88.57-.98,1.1-1.96,1.63-2.96.46-.95.93-1.9,1.35-2.87.49-1.11.93-2.23,1.38-3.36.41-1.21.83-2.41,1.19-3.63.39-1.29.73-2.59,1.06-3.9.26-1.19.51-2.38.71-3.59.25-1.43.44-2.86.63-4.3.07-.84.15-1.69.23-2.53.08-.94.11-1.89.16-2.83.1-1.77.06-3.56.03-5.34-.09-2.05-.21-4.1-.42-6.15-.23-2.15-.53-4.28-.86-6.42-.42-2.27-.84-4.55-1.4-6.79-.59-2.37-1.22-4.72-1.93-7.06-1.83-5.8-4.04-11.44-6.57-16.98-3.26-6.95-6.97-13.66-11.03-20.1-.03-.04-.05-.08-.07-.12l-.04-.06c-.12-.18-.23-.37-.32-.5-5.31-8.29-11.28-16.16-17.64-23.68-7.6-8.85-15.74-17.18-24.13-24.82-4.95-4.45-10.02-8.77-15.24-12.9-5.29-4.17-10.7-8.17-16.14-11.96-.03-.03-.07-.05-.1-.07l-.08-.05c-11.35-7.8-23.15-14.92-35.39-21.22-.16-.08-.32-.16-.47-.24h0s-.12-.06-.12-.06c-11.23-5.7-22.75-10.76-34.58-15.08-10.16-3.64-20.5-6.74-31.02-9.15-1.25-1.93-2.48-3.86-3.71-5.79,7.64,1.57,15.19,3.52,22.65,5.79,12.93,3.93,25.57,8.84,37.83,14.51,12.45,5.76,24.53,12.35,36.13,19.67,11.93,7.54,23.36,15.84,34.21,24.86,10.75,8.93,20.81,18.65,30.12,29.05,8.1,9.05,15.51,18.73,22.02,28.9,7.27,11.36,13.44,23.54,17.64,36.38,2.2,6.72,3.83,13.6,4.75,20.61.47,3.56.73,7.14.77,10.73Z"/><path d="M64.36,226.86c-2.45-38.25,11.87-79.53,44.32-101.83,2.12-2.27,5.98-.79,4.84,2.49-.78,1.53-2.59,2.01-3.79,3.16-15.37,11.11-26.4,27.31-33.02,44.95-5.16,13.86-7.13,28.03-7.44,42.64-.02,1.91.04,3.82.12,5.73.19,1.98.48,4.84-2.16,5.16-1.36.15-2.78-.88-2.87-2.29Z"/><path d="M341.74,411.98c-1.19-4.19,8.24-4.22,10.97-5.54,3.95-1.32,7.96-3.09,11.72-4.8,6.72-3.25,12.58-7.96,18.66-12.23,14.59-10.77,29.13-21.79,38.68-37.28,1.86-3.76,7.2-.57,4.45,2.68-9.24,15.18-23.48,26.45-37.54,36.96-8.53,6.11-16.87,12.82-26.74,16.65-5.69,2.68-11.16,3.87-17.05,5.44-1.33.42-2.83-.56-3.15-1.88Z"/><path d="M271.05,282.03c-1.57-.26-3.13-.58-4.67-.97-.3-.05-.6-.14-.9-.22-.47-.12-.93-.25-1.4-.39-.67-.19-1.34-.4-2-.61-.02,0-.04-.01-.07-.02-.03-.01-.07-.02-.1-.03-.78-.25-1.55-.51-2.32-.78-1.12-.4-2.23-.82-3.33-1.27-4.22-1.7-8.32-3.71-12.26-5.99-4.75-2.74-9.28-5.88-13.51-9.34-1.13-.92-2.23-1.87-3.31-2.85-1.84-1.66-3.61-3.4-5.27-5.25-.44-.49-.88-.98-1.31-1.49-2.01-2.34-3.85-4.85-5.36-7.55-.05-.07-.1-.15-.14-.23-.26-.47-.51-.95-.75-1.43-.27-.54-.53-1.08-.76-1.64-.05-.11-.08-.22-.11-.33-.18-.45-.36-.9-.52-1.35-1.45-4.05-1.65-8.8.83-12.49,1.31-1.95,3.32-3.39,5.48-4.27,2.49-1.01,5.16-1.4,7.82-1.48,3.94-.12,7.9.52,11.71,1.44,4.39,1.06,8.66,2.6,12.79,4.4,4.39,1.92,8.64,4.18,12.71,6.71,8.07,5.02,15.67,11.1,21.65,18.52,1.52,1.89,2.91,3.89,4.12,5.99,1.3,2.27,2.38,4.7,2.97,7.26.76,3.35.62,6.94-1.17,9.96-1.59,2.68-4.34,4.37-7.25,5.29-2.22.7-4.59.94-6.91.96-.12,0-.23,0-.35,0-2.11,0-4.24-.21-6.32-.55ZM279.63,277.31c.82-.08,1.63-.2,2.43-.37.55-.14,1.09-.29,1.63-.47.44-.18.87-.37,1.29-.58.31-.18.62-.38.92-.58.19-.16.38-.31.57-.47.17-.17.34-.35.5-.53.14-.19.28-.37.41-.57.11-.19.21-.38.31-.58.1-.23.19-.47.28-.71.09-.3.16-.6.23-.9.05-.38.09-.77.11-1.15,0-.43-.02-.86-.05-1.3-.06-.43-.12-.85-.2-1.28-.2-.83-.44-1.64-.73-2.45-.38-.97-.81-1.9-1.28-2.83-.78-1.43-1.64-2.8-2.57-4.12-1.38-1.9-2.9-3.7-4.27-5.18-2.39-2.54-4.95-4.91-7.39-6.91-3.12-2.55-6.4-4.89-9.76-7.02-3.49-2.18-7.09-4.15-10.81-5.89-3.12-1.43-6.3-2.69-9.36-3.68-.08-.02-.16-.05-.24-.07h0c-2.41-.75-4.86-1.38-7.02-1.77-1.76-.31-3.54-.53-5.14-.62-.06,0-.13,0-.19,0h0c-1.16-.04-2.33-.03-3.49.05-.86.08-1.7.2-2.54.39-.55.13-1.09.29-1.62.47-.41.16-.82.34-1.21.54-.31.17-.62.36-.91.56-.23.17-.44.35-.65.53-.18.18-.35.37-.52.56-.13.17-.26.35-.38.54-.11.19-.21.38-.31.57-.1.23-.19.46-.27.7-.08.27-.14.54-.2.82-.05.34-.09.67-.11,1.01,0,.43,0,.86.03,1.28.06.52.14,1.03.25,1.55.17.71.38,1.41.62,2.09.27.71.57,1.41.9,2.1.13.25.26.5.39.75.89,1.62,1.87,3.16,2.94,4.66,1.35,1.79,2.78,3.5,4.06,4.91,2.38,2.53,4.92,4.87,7.54,7.04,3.08,2.49,6.28,4.79,9.33,6.74,3.58,2.24,7.28,4.27,11.1,6.07,3.09,1.41,6.24,2.67,9.48,3.72.06.02.13.04.19.06.12.04.25.08.37.11.96.29,1.94.54,2.91.81,1.28.33,2.58.61,3.88.86,1.67.29,3.35.5,5.04.59,1.17.04,2.34.03,3.51-.06Z"/><path d="M271.08,269.94c-1.15-.13-2.26-.41-3.36-.73-1.07-.32-2.12-.71-3.13-1.12h0s-.08-.03-.12-.05c-.07-.03-.13-.05-.09-.04-.04-.01-.07-.03,0,0-.03-.01-.06-.02-.08-.03h0c-.08-.04-.16-.07-.24-.1-.53-.22-1.05-.44-1.57-.67-.27-.12-.57-.23-.77-.36-.03-.01-.06-.03-.08-.04-2.99-1.39-5.88-2.98-8.72-4.66-3.74-2.21-7.36-4.63-10.86-7.21-3.36-2.48-6.63-5.11-9.62-8.03-1.26-1.23-2.48-2.5-3.56-3.89-.96-1.22-1.97-2.61-2.37-4.13-.25-.95-.3-1.83-.04-2.78.28-1.03,1.15-1.86,2.09-2.29,1.04-.47,2.23-.53,3.34-.42,1.37.14,2.7.48,4.01.9,2.31.72,4.54,1.72,6.71,2.78,2.16,1.05,4.27,2.2,6.36,3.4,6.61,3.81,12.95,8.22,18.72,13.21,1.33,1.15,2.62,2.35,3.85,3.6,1.37,1.4,2.69,2.85,3.78,4.48.65.98,1.21,2.05,1.45,3.21.19.92.11,1.87-.28,2.73-.46,1.01-1.37,1.67-2.38,2.04-.59.21-1.23.29-1.86.29-.39,0-.78-.03-1.15-.07ZM271.02,264.69c-.18-.27-.36-.53-.55-.79-.85-1.11-1.8-2.14-2.78-3.14-1.79-1.78-3.69-3.44-5.64-5.04-.67-.55-1.35-1.08-2.03-1.61-.01,0-.02-.02-.04-.03-.33-.21-.64-.49-.95-.72-.36-.27-.72-.54-1.09-.81-3.83-2.82-7.81-5.43-11.93-7.8-2.96-1.69-5.99-3.26-9.13-4.57-1.19-.48-2.4-.91-3.63-1.26-.38-.1-.77-.18-1.16-.26.2.31.41.61.63.9.85,1.08,1.77,2.09,2.74,3.07,2.43,2.41,5.06,4.61,7.62,6.6,4.54,3.49,9.31,6.66,13.97,9.34,2.38,1.36,4.81,2.65,7.3,3.78.08.04.17.08.26.11.53.24,1.07.47,1.61.7,0,0,.01,0,.02,0,0,0,0,0,0,0,0,0,0,0,0,0,0,0,0,0,0,0,0,0,0,0,0,0h.03c1.18.48,2.38.91,3.6,1.26.37.1.75.18,1.12.25Z"/><path d="M256.52,236.09c-1.73-.94-3.49-1.83-5.27-2.66-1.2-.55-2.41-1.08-3.62-1.57-18.8-29.07-38.99-57.25-57.18-86.74-8.25-12.98-16.56-25.91-25.27-38.59-4.52-6.37-8.68-13.22-14.7-18.3,9.69,18.69,21.93,35.99,32.2,54.39,14.47,26.21,31.12,51.09,46.98,76.45.52,1.28,1.46,2.4,1.7,3.77.19,2.16-2.7,3.64-4.3,2.09-3.05-4.89-5.85-10.16-9.23-14.94-25.07-38.47-47.76-78.42-71.28-117.82-2.61-3.61-2.06-11.55,3.96-9.88,8.97,4.72,13.82,14.59,19.73,22.43,15,21.9,28.8,44.58,43.38,66.76,10.71,16.53,21.78,32.82,33,49.01,3.49,5.08,6.66,10.37,9.9,15.6Z"/><path d="M230.57,245.01c-.56-.61-1.1-1.23-1.61-1.87.92.29,1.45,1.04,1.61,1.87Z"/><path d="M236.41,260.44c-.7.25-1.51.31-2.28.1-20.93-1.26-41.83-3.48-62.5-6.91-6.51-1.65-19.35-.26-23.36-5.76-5.85-14.95,48.46-8.06,71.27-5.6.81,1.45,1.71,2.83,2.67,4.19.34.45.68.9,1.03,1.33-5.94-.54-11.87-1.18-17.81-1.79-17.03-1.35-34.91-4.35-51.69-.2,16.57,2.66,33.17,4.93,49.7,7.06,8.84.81,17.69,1.54,26.55,2.2,1.25,1.16,2.53,2.28,3.82,3.36.86.69,1.72,1.37,2.59,2.03Z"/><path d="M430.69,314.44c.02,1.89.07,3.8-.04,5.69-.06,1.01-.08,2.02-.17,3.02-.08.9-.17,1.8-.25,2.7-.2,1.53-.41,3.06-.67,4.58-.22,1.28-.49,2.55-.76,3.82-.36,1.39-.72,2.77-1.14,4.15-.39,1.3-.83,2.58-1.27,3.87-.47,1.2-.95,2.4-1.47,3.58-.45,1.03-.95,2.04-1.44,3.06-.57,1.06-1.14,2.11-1.75,3.15-.51.87-1.04,1.72-1.58,2.57-1.16,1.73-2.38,3.4-3.66,5.03-.64.78-1.29,1.55-1.95,2.33-1.08,1.16-2.17,2.31-3.29,3.43-1.01,1.02-2.11,1.97-3.2,2.91-1.25,1.03-2.49,2.07-3.81,3.01-1.38.99-2.78,1.94-4.19,2.89-1.44.88-2.87,1.79-4.36,2.58-.49.26-.99.52-1.48.78.39-.75.76-1.51,1.13-2.27,1.59-3.26,2.72-6.71,3.76-10.18.51-1.71.86-3.47,1.24-5.21.37-1.74.6-3.5.83-5.26.47-3.54.63-7.15.58-10.71-.05-3.59-.31-7.17-.77-10.73-.92-7.01-2.55-13.9-4.75-20.61-4.2-12.84-10.37-25.02-17.64-36.38-6.51-10.17-13.92-19.86-22.02-28.9-9.32-10.4-19.38-20.13-30.12-29.05-10.85-9.02-22.28-17.32-34.21-24.86-11.6-7.32-23.68-13.91-36.13-19.67-12.26-5.68-24.9-10.59-37.83-14.51-5.06-1.54-10.17-2.93-15.32-4.16-8.89-13.89-17.68-27.85-26.83-41.58.93,0,1.85.03,2.78.05,3.9.11,7.8.38,11.68.72,9.6.93,19.1,2.46,28.51,4.52,11.58,2.61,22.94,5.99,34.11,9.99,12.61,4.6,24.88,9.99,36.85,16.07l.12.06h0c.17.09.34.17.5.26,13.05,6.71,25.63,14.3,37.72,22.61l.08.06s.07.05.1.07c5.8,4.04,11.57,8.3,17.2,12.75,5.57,4.4,10.97,9,16.24,13.75,8.94,8.14,17.62,17.02,25.72,26.45,6.78,8.02,13.13,16.4,18.8,25.23.09.14.22.34.34.53l.04.06s.06.09.08.13c4.33,6.85,8.28,14.01,11.76,21.42,2.7,5.89,5.05,11.91,7,18.09.75,2.49,1.43,5,2.05,7.53.6,2.39,1.05,4.81,1.5,7.24.36,2.28.68,4.55.91,6.84.23,2.18.35,4.36.45,6.55Z" fill="#8dbf41"/><path d="M181.33,150.95c-1.11-.15-2.21-.3-3.32-.43-7.19-.87-14.41-1.37-21.65-1.41-6.93-.04-13.91.32-20.79,1.29-6.95.98-13.87,2.39-20.54,4.63-1.73.58-3.45,1.18-5.15,1.84-1.69.66-3.34,1.38-4.99,2.12-3.32,1.49-6.49,3.28-9.57,5.2-1.47.91-2.89,1.91-4.28,2.94-1.44,1.07-2.88,2.17-4.22,3.36-1.62,1.44-3.21,2.92-4.7,4.48.23-1.65.51-3.3.84-4.94.3-1.33.67-2.99,1.16-4.61.46-1.52.95-3.02,1.48-4.52.49-1.25.96-2.52,1.52-3.74.54-1.16,1.09-2.31,1.66-3.46.62-1.16,1.24-2.34,1.94-3.45.77-1.23,1.57-2.45,2.38-3.66.07-.09.13-.18.19-.27,4.77-5.88,10.26-11.17,16.44-15.64,1.06-1.01,2.59-1.5,3.47-2.65,1.14-.69,2.29-1.36,3.46-2.01,1.58-.87,3.21-1.66,4.84-2.44,2.13-.96,4.28-1.9,6.48-2.71,2.27-.83,4.56-1.59,6.87-2.31,2.15-.61,4.64-1.29,7.16-1.85,2.39-.54,4.79-.99,7.2-1.4,2.95-.46,5.91-.86,8.89-1.15.47-.05.95-.09,1.42-.13,7.26,12.31,14.5,24.64,21.82,36.92Z" fill="#8dbf41"/><path d="M242.92,224.63c-1.35-.42-2.72-.8-4.1-1.13-2.5-.6-5.06-1.08-7.63-1.31-.37-1.09-1.1-2.04-1.53-3.11-12.82-20.51-26.17-40.71-38.46-61.55-1.09-1.85-2.17-3.7-3.24-5.56-1.79-3.1-3.55-6.21-5.28-9.35-5.49-9.85-11.56-19.38-17.49-28.98-.52-.84-1.04-1.68-1.55-2.52-.47-.77-.95-1.54-1.42-2.31-.04-.07-.08-.14-.13-.21-4.07-6.68-8.01-13.43-11.61-20.36,6.02,5.08,10.18,11.93,14.7,18.3.42.61.84,1.22,1.25,1.83.12.18.25.37.37.55.54.8,1.08,1.59,1.62,2.39.49.73.98,1.45,1.47,2.18,7.01,10.44,13.81,21.03,20.56,31.64,1.71,2.78,3.44,5.54,5.19,8.29,1.23,1.94,2.46,3.86,3.71,5.79,14.18,22.03,29.2,43.52,43.57,65.42Z" fill="#8dbf41"/><path d="M276.48,267.69c.39-.86.47-1.81.28-2.73-.24-1.16-.8-2.23-1.45-3.21-1.09-1.63-2.41-3.08-3.78-4.48-1.24-1.25-2.52-2.45-3.85-3.6-5.77-4.99-12.11-9.41-18.72-13.21-2.08-1.2-4.19-2.35-6.36-3.4-2.17-1.05-4.4-2.05-6.71-2.78-1.31-.41-2.64-.76-4.01-.9-1.12-.11-2.31-.05-3.34.42-.95.43-1.81,1.26-2.09,2.29-.26.95-.21,1.84.04,2.78.4,1.52,1.41,2.92,2.37,4.13.03.04.07.08.1.13.13.16.26.32.39.48.13.16.27.32.4.47.12.15.25.29.38.43.14.16.29.32.44.49.6.65,1.22,1.27,1.85,1.89,2.98,2.92,6.26,5.55,9.62,8.03,3.49,2.58,7.11,5.01,10.86,7.21,2.84,1.68,5.73,3.27,8.72,4.66.03.01.05.02.08.04.21.12.5.23.77.36.52.23,1.04.46,1.57.67.08.03.16.07.24.1h0s.03.02.05.03h0s0,0,0,0c0,0,0,0,.02,0,0,0,0,0,0,0h0s.06.02.1.04c.04.02.07.03.12.05h0c1.02.41,2.06.8,3.13,1.12,1.11.32,2.22.6,3.36.73.37.04.76.07,1.15.07.64,0,1.28-.07,1.86-.29,1.01-.37,1.93-1.02,2.38-2.04ZM288.26,269.1c.02.43.04.86.05,1.3-.02.39-.06.77-.11,1.16-.07.3-.14.6-.23.9-.09.24-.18.47-.27.71-.1.2-.2.39-.31.58-.13.19-.27.38-.42.57-.16.18-.33.36-.5.53-.19.16-.37.32-.57.47-.3.2-.6.4-.92.58-.42.21-.85.4-1.29.58-.54.18-1.08.34-1.63.47-.81.17-1.61.28-2.44.37-1.17.09-2.34.1-3.51.06-1.69-.09-3.37-.3-5.04-.59-1.3-.24-2.6-.53-3.88-.86-.97-.27-1.94-.53-2.91-.81-.12-.04-.25-.07-.37-.11-.06-.02-.12-.04-.19-.06-3.23-1.04-6.38-2.3-9.47-3.71-3.82-1.79-7.52-3.83-11.1-6.07-2.2-1.4-4.48-2.99-6.74-4.7-.87-.66-1.74-1.34-2.59-2.03-.65-.54-1.3-1.09-1.93-1.65-.64-.56-1.27-1.13-1.89-1.71-1.27-1.18-2.51-2.41-3.71-3.68-.96-1.06-2-2.28-3.03-3.58-.35-.43-.69-.88-1.03-1.33-.4-.57-.79-1.14-1.16-1.71-.12-.19-.25-.39-.37-.58-.12-.19-.24-.39-.36-.58-.27-.43-.52-.87-.77-1.31-.09-.16-.18-.32-.27-.47-.13-.25-.26-.5-.39-.75-.33-.69-.63-1.39-.9-2.1-.24-.69-.45-1.39-.62-2.09-.11-.51-.19-1.03-.25-1.55-.03-.43-.04-.86-.03-1.28.03-.34.06-.68.11-1.02.06-.27.12-.54.2-.81.08-.24.17-.47.27-.7.1-.2.2-.39.31-.57.12-.18.25-.36.38-.54.17-.19.34-.38.52-.56.21-.19.43-.37.65-.53.3-.2.6-.39.91-.56.39-.2.8-.38,1.21-.54.53-.19,1.07-.34,1.62-.47.84-.18,1.69-.3,2.54-.38.72-.05,1.45-.08,2.17-.08.44,0,.88,0,1.32.02.06,0,.13,0,.19,0,1.6.09,3.37.32,5.14.62,2.16.39,4.6,1.02,7.01,1.77h0c.08.02.16.05.24.07,1.88.61,3.81,1.32,5.74,2.11,1.21.49,2.42,1.02,3.62,1.57.89.42,1.78.85,2.65,1.29.04.02.08.04.12.06.46.23.91.47,1.37.71.09.05.18.09.27.14.29.15.58.31.87.47,1.88,1.01,3.73,2.09,5.54,3.22,3.36,2.13,6.64,4.47,9.76,7.02,2.44,2,4.99,4.37,7.39,6.91,1.37,1.48,2.89,3.28,4.27,5.18.94,1.33,1.8,2.7,2.58,4.12.47.92.9,1.86,1.28,2.83.28.81.53,1.62.73,2.45.08.42.14.85.2,1.28Z" fill="#8dbf41"/><path d="M221.93,254.32s.07.08.11.12c-6.2-.49-12.4-1.02-18.6-1.59-16.52-2.13-33.12-4.4-49.7-7.06,16.77-4.15,34.66-1.14,51.69.2,3.64.37,7.28.76,10.92,1.12,1.27,2.01,2.72,3.91,4.26,5.71.43.5.87,1,1.31,1.49Z" fill="#8dbf41"/><path d="M380.06,388.98c-.46.48-.93.96-1.4,1.43-.95.96-1.98,1.85-3,2.73-1.17.96-2.34,1.94-3.58,2.83-1.3.93-2.6,1.82-3.93,2.71-1.35.83-2.69,1.68-4.09,2.42-1.44.76-2.88,1.5-4.34,2.22-2.03.92-4.07,1.8-6.14,2.61-1.17.46-2.36.88-3.56,1.27-2.37.49-5.39.97-7.09,2.07-.65.17-1.3.33-1.95.49-2.14.52-4.31.93-6.48,1.33-3.04.5-6.08.96-9.15,1.25-3.15.29-6.29.5-9.44.64-3.46.1-6.91.11-10.37.02-3.45-.09-6.89-.32-10.33-.6-4.37-.41-8.89-.92-13.38-1.64-4.65-.75-9.27-1.62-13.87-2.61-10.71-2.43-21.27-5.47-31.61-9.19-.49-.17-.97-.35-1.46-.53-11.87-4.37-23.44-9.49-34.69-15.25-5.95-3.09-12.01-6.44-17.94-10.01-5.68-3.41-11.25-7-16.71-10.75-10.95-7.58-21.43-15.8-31.35-24.69-2.25-2.04-4.7-4.31-7.11-6.64-2.47-2.39-4.89-4.81-7.26-7.29-3.78-3.96-7.45-8.02-11.01-12.18-.48-.57-1.17-1.4-1.85-2.22-5.58-6.79-10.76-13.88-15.52-21.28-4.03-6.35-7.7-12.92-10.9-19.73-2.6-5.63-4.86-11.39-6.74-17.29-1.22-4.03-2.25-8.09-3.07-12.22-.1-.49-.19-.98-.27-1.48-.03-.18-.06-.37-.09-.55-.02-.18-.06-.37-.09-.55-.45-2.9-.79-5.8-1-8.73.37-1.06.23-2.45.12-3.57-.08-1.9-.15-3.81-.12-5.73.02-.88.04-1.75.07-2.63h0c.01-.34.02-.67.04-1.01.01-.27.02-.55.04-.83.02-.42.04-.84.06-1.26.02-.31.03-.62.05-.93.03-.56.07-1.11.11-1.67.03-.4.06-.81.09-1.21.03-.45.07-.9.11-1.35.04-.45.08-.9.12-1.35.08-.9.18-1.8.28-2.69.05-.45.1-.9.16-1.34.06-.47.12-.95.18-1.42.06-.42.11-.84.17-1.26.06-.45.13-.89.2-1.34.06-.39.12-.79.19-1.18.09-.55.19-1.11.29-1.66.07-.38.14-.76.21-1.15.07-.4.15-.81.23-1.21.1-.51.21-1.03.32-1.54.12-.59.26-1.18.39-1.78.13-.59.27-1.18.42-1.77.07-.29.15-.59.22-.88h0c.95-3.76,2.1-7.49,3.48-11.2.04-.1.08-.21.12-.31-.21,1.66-.37,3.32-.5,4.98-.05.63-.08,1.26-.11,1.89-.02.27-.03.54-.03.81,0,.11,0,.22,0,.34,0,.21-.02.42-.02.63,0,.15,0,.29,0,.44,0,.41,0,.81,0,1.21,0,1.02,0,2.04.04,3.07.02.5,0,1.01.06,1.5,0,.15,0,.31,0,.46,0,.08,0,.15,0,.23,0,.16.02.31.03.47.02.18.03.36.04.53.13,1.86.3,3.71.51,5.56.11.97.25,1.93.38,2.9.07.46.14.92.22,1.38.02.16.05.32.08.47.04.45.15.9.23,1.33,1.32,7.17,3.25,14.18,5.72,21.04,4.82,13.41,11.64,26.07,19.5,37.94,2.46,3.71,5.03,7.35,7.7,10.9.04.07.08.13.13.19,1.36,1.84,2.78,3.64,4.21,5.43,7.63,9.56,15.93,18.61,24.76,27.08h0c.09.09.18.18.27.27,1.15,1.11,2.32,2.2,3.48,3.29,2.44,2.28,4.92,4.51,7.44,6.71,1.37,1.19,2.73,2.4,4.13,3.55.02,0,.08.06.14.1,7.54,6.37,15.37,12.41,23.46,18.05,11.93,8.31,24.3,15.95,37.17,22.72,13.09,6.89,26.61,13.02,40.53,18.04,4.89,1.77,10.11,3.54,15.4,5.15,5.2,1.59,10.46,3,15.75,4.29,14.52,3.54,29.41,5.77,44.35,6.33,2.15.08,4.3.12,6.45.12,5.43,0,10.86-.26,16.27-.76,7.5-.7,14.93-2.09,22.2-4.05,1.09-.29,2.18-.61,3.26-.94Z" fill="#037e8c"/><path d="M396.89,342.59c.02,1.78.07,3.56-.03,5.34-.05.95-.07,1.89-.16,2.83-.08.84-.16,1.69-.23,2.53-.19,1.44-.39,2.87-.63,4.3-.21,1.21-.46,2.39-.71,3.59-.33,1.3-.67,2.6-1.06,3.9-.37,1.22-.78,2.42-1.19,3.63-.45,1.13-.89,2.25-1.38,3.36-.42.97-.89,1.92-1.35,2.87-.53,1-1.06,1.98-1.63,2.96-.57.98-1.18,1.93-1.78,2.88-.09.13-.18.27-.28.41-.63.26-1.25.51-1.89.76-2.1.83-4.26,1.52-6.42,2.2-2.33.67-4.65,1.31-7.01,1.88-2.29.56-4.6.99-6.91,1.42-3.24.53-6.48,1.02-9.75,1.33-3.35.31-6.7.53-10.06.68-3.69.1-7.37.11-11.06.02-3.67-.1-7.34-.34-11-.64-4.65-.43-9.47-.98-14.26-1.75-4.95-.79-9.87-1.73-14.78-2.78-11.42-2.58-22.67-5.83-33.68-9.79-.52-.19-1.04-.38-1.56-.57-12.65-4.66-24.97-10.11-36.97-16.25-6.34-3.3-12.8-6.87-19.12-10.67-6.05-3.64-11.99-7.46-17.81-11.46-11.66-8.07-22.84-16.84-33.41-26.32-2.39-2.17-5.01-4.6-7.58-7.07-2.63-2.54-5.21-5.13-7.74-7.77-4.03-4.22-7.94-8.54-11.73-12.98-.51-.61-1.25-1.49-1.97-2.37-5.95-7.23-11.48-14.79-16.54-22.67-4.29-6.77-8.2-13.77-11.61-21.03-2.77-6-5.18-12.13-7.19-18.43-1.3-4.29-2.4-8.62-3.27-13.02-.1-.52-.2-1.05-.29-1.57-.03-.19-.06-.39-.1-.58-.02-.19-.06-.39-.1-.59-.58-3.71-.98-7.43-1.18-11.18-.01-.4-.03-.82-.05-1.25.02-.51-.03-1.02-.03-1.53,0-.88,0-1.77,0-2.65,0-.39.02-.79.03-1.18.32-.42.64-.84.97-1.24.76-.92,1.54-1.83,2.33-2.73.87-.93,1.76-1.85,2.66-2.75.9-.9,1.87-1.74,2.82-2.58,1.24-1.03,2.49-2.03,3.78-2.99,1.21-.9,2.46-1.75,3.72-2.58,1.5-.93,3-1.83,4.55-2.68,1.48-.81,3.01-1.56,4.53-2.29,2-.9,4.02-1.79,6.08-2.54,2.13-.78,4.28-1.49,6.44-2.16,2.02-.57,4.35-1.21,6.72-1.74,2.24-.5,4.49-.93,6.76-1.32,2.77-.43,5.55-.8,8.34-1.07,2.85-.28,5.69-.46,8.55-.58,3.67-.11,7.33-.12,11-.02,3.66.1,7.31.36,10.96.67,4.35.42,8.67.97,12.97,1.65,10.8,18.05,21.78,35.99,33.26,53.61,2.75,3.89,5.11,8.1,7.54,12.17-2.08.18-4.15.59-6.09,1.38-2.16.88-4.17,2.32-5.48,4.27-2.48,3.69-2.29,8.44-.83,12.49.16.44.32.87.5,1.3-25.09-2.76-70.58-7.47-65.2,6.27,4.01,5.5,16.85,4.1,23.36,5.76,18.6,3.09,37.37,5.19,56.19,6.51.88.78,1.77,1.54,2.68,2.29,4.23,3.47,8.76,6.6,13.51,9.34,3.94,2.29,8.04,4.3,12.26,5.99,1.1.45,2.21.87,3.33,1.26.77.27,1.54.53,2.32.78.03.01.07.02.1.03.02,0,.04.02.07.02.66.21,1.33.42,2,.61.47.13.93.26,1.4.39.3.08.6.17.9.22,1.54.38,3.1.71,4.67.96,2.09.34,4.21.56,6.32.56.12,0,.23,0,.35,0,2.32-.02,4.69-.26,6.91-.96,2.91-.92,5.65-2.61,7.25-5.29,1.79-3.02,1.94-6.6,1.17-9.96-.58-2.56-1.67-4.99-2.97-7.26-1.21-2.1-2.6-4.11-4.12-5.99-5.99-7.41-13.59-13.5-21.65-18.52-4.07-2.53-8.31-4.79-12.71-6.71-.07-.03-.14-.06-.21-.09-1.55-2.47-3.13-4.92-4.78-7.32-11.23-16.19-22.29-32.48-33-49.01-2.28-3.47-4.54-6.95-6.79-10.44,7.95,2.08,15.8,4.54,23.54,7.31,11.83,4.31,23.35,9.37,34.58,15.08l.12.06h0c.16.08.32.17.47.25,12.24,6.3,24.04,13.42,35.39,21.22l.08.05s.07.04.1.07c5.44,3.79,10.85,7.79,16.14,11.96,5.23,4.12,10.29,8.45,15.24,12.9,8.39,7.64,16.53,15.97,24.13,24.82,6.36,7.52,12.33,15.38,17.64,23.68.09.13.2.32.32.5l.04.06s.05.08.07.12c4.06,6.43,7.77,13.14,11.03,20.1,2.53,5.53,4.74,11.18,6.57,16.98.7,2.34,1.34,4.7,1.93,7.06.56,2.24.99,4.52,1.4,6.79.33,2.14.63,4.27.86,6.42.21,2.04.32,4.09.42,6.15Z" fill="#fff"/><path d="M270.47,263.89c.19.26.37.52.55.79-.37-.07-.75-.16-1.12-.25-1.23-.34-2.42-.77-3.6-1.25h-.03s0-.01,0-.01h0s0,0,0,0c0,0-.02,0-.02,0-.54-.22-1.08-.46-1.61-.7-.09-.04-.17-.08-.26-.12-2.5-1.13-4.92-2.43-7.3-3.78-4.66-2.68-9.43-5.85-13.97-9.34-2.56-1.98-5.19-4.18-7.62-6.6-.96-.98-1.89-1.99-2.74-3.07-.22-.29-.43-.59-.63-.9.39.07.77.16,1.16.26,1.24.35,2.44.79,3.63,1.26,3.15,1.31,6.17,2.88,9.13,4.57,4.11,2.37,8.1,4.99,11.93,7.8.36.27.73.54,1.09.81.31.23.61.51.95.72.01,0,.02.02.04.03.68.53,1.36,1.06,2.03,1.61,1.95,1.6,3.86,3.26,5.64,5.04.98,1,1.93,2.03,2.78,3.14Z" fill="#fff"/></svg>