<?xml version="1.0" encoding="UTF-8"?><svg id="a" xmlns="http://www.w3.org/2000/svg" viewBox="0 0 989.08 500"><path d="M25.58,499.73c-11.64-4.37-2.22-21.75-.6-30.25,7.33-24.63,15.74-48.91,24.94-72.9,3.75-10.57,8.37-21.18,9.42-32.43-6.69,3.07-22.6,21.26-29.08,15.03-5.27-5.29.93-21.41,1.36-28.79,7.62-41.97,21.22-82.66,34.84-123.01-11.81,7.68-23.78,15.12-36.34,21.52-8.06,3.4-20.25,12.37-28.22,5.1-6.65-9.76,5.91-18.93,11.43-25.96,10.01-10.82,21.03-20.66,32.13-30.33,11.13-9.31,22.42-18.51,34.62-26.41,3.84-2.23,12.9-9.47,14.27-1.55-.04,2.11-1.84,3.21-3.65,3.67-7.65,3.89-14.57,9.1-21.42,14.24-21.99,17.54-44.52,35.59-61.41,58.26-5.73,11.77,27.92-8.4,30.97-9.87,9.58-5.35,18.67-11.51,27.98-17.3,2.47-2.03,7.02-3.39,8.55.44.91,5.88-3.09,11.52-4.49,17.15-14.84,44.62-29.47,89.72-35.69,136.48,5.76-3.71,11.04-8.11,16.58-12.13,4.33-4.13,12.97-6.66,14.51,1.35.67,9.23-3.28,18.21-5.97,26.89-9.69,26.03-19.4,52.06-27.33,78.7-.83,4.38-8.37,23.26-5.08,25.32,15.37-1.71,39.33-25.3,51.52-35.57,7.62-7.11,14.95-14.55,22.14-22.09,4.8-5.54,13.58-14.67,16.91-2.55,1.25,10.48-3.53,20.71-7.47,30.18-3.61,9.3-9.89,18.1-11.47,27.97,16.12,10.01,69.07-56.08,80.02-69.36,10.97-13.52,21.43-27.86,31.49-41.82,2.03-4.03,8.49-8.61,10.32-1.84.02,2.89-1.31,5.63-1.92,8.43,25.55-28.23,43.24-62.93,61.33-95.96,9.4-17.88,20.33-34.86,27.72-53.67,8.46-24.97,19.48-49.99,26.19-75.32,5.57-16.58-3.16-25.78-20.02-20.76-13.42,4.4-24.66,13.36-36.22,21.18-13.8,9.65-27.46,19.55-40.55,30.15-7.33,6.55-16.34,12.15-21.54,20.6,11.33.82,27.98-9.05,38.8-13.39,7.74-2.8,22.44-13.52,29.56-11.42,14.4,5.48-2.38,35.05-6.04,44.67-6.13,13.21-12.44,26.35-18.92,39.39-6.48,12.99-13.25,25.83-19.55,38.9-4.15,7.59-6.52,16.3-11.57,23.31-10.06,6.53-9.54-11.36-10.34-17.18-9.88,12.45-16.69,27.1-25.51,40.31-15.9,24.08-29.39,49.95-47.92,72.17-3.1,3.71-8.44,10.07-13.37,5.5-3.23-4.77.07-11.1,1.07-16.18,2.69-10.02,5.78-19.93,8.24-30.01.75-4.74,3.17-10.01,1.64-14.72-9.5,2.22-23.7,22.03-31.26,29.49-11.66,12.56-21.68,26.57-33.59,38.89-6.03,6.87-12.96,4.68-13.33-4.64-.68-13.22,4.43-25.91,8.17-38.39,4.74-14.18,10.18-28.12,15.57-42.06,2.15-7.2,11.81-26.76,9.91-32.68-7.97,4.2-14.7,10.33-21.6,16.03-4.03,3.64-11.52,2.84-12.31-3.32-1.11-7.4,2.23-14.67,3.85-21.79,8.03-28.64,15.12-57.56,24.39-85.84,4.22-16.69,14.79-39.14,11.33-55.99-1.32-7.34-6.12.04-9-4.76-3.53-7.28,17.78-12.59,17.08,12.19-1.72,19.94-9.36,38.87-14.9,57.97-6.76,21.29-12.34,42.92-18.22,64.46-2.32,10.66-7.15,21.12-7.61,32.04,6.68-4.1,22.17-21.13,30.01-17.79,6.48,3.88,4.69,12.49,2.38,18.37-8.38,24.63-19.07,48.43-26.66,73.34-2.65,9.34-6.15,18.91-5.18,28.75,13.53-12.02,55.89-71.7,70.41-71.44,19.62-.35-3.21,48.76-3.99,59.65,22.59-27.14,39.04-58.85,58.25-88.38,6-9.2,10.49-19.83,18.51-27.49,2.27-1.88,5.73-2.29,8.01-.22,3.78,3.41,2.59,9.1,3.5,13.63,13.98-30.82,30.47-60.41,44.49-91.22,4.31-10.68,13.9-26.75,12.2-38.11-4.35-.06-8.09,3.34-12.06,4.85-3.11,1.53-6.22,3.05-9.34,4.56-12.71,5.81-25.35,12.37-39.06,15.46-8.02,2.55-17.08-3.44-11.53-11.95,4.29-5.93,10-10.68,15.58-15.36,19.47-16.36,40.16-31.08,61.19-45.36,15.37-11.67,49.57-26.76,55.79,1.57-.2,18.95-9.1,36.77-15.05,54.47-7.62,19.24-12.9,39.48-23.11,57.59-16.13,28.9-31.19,58.23-48.02,86.64-6,9.19-12.4,18.12-18.67,27.12-4.74,5.79-21.16,32.13-26.31,15.99-27.1,36.54-54.91,73.98-91.16,101.98-7.89,5.89-27.28,13.51-28.74-1.87,3.47-19.11,18.66-35.18,19.27-55.15-14.32,14.78-66.16,69.1-86.06,64.58Z"/><path d="M86.77,171.66c-2.3-4.91,4.7-6.49,8.06-7.74,3.69-.87,10.37-3.36,12.16,1.47.78,2.67-2.03,5.27-4.6,4.33-.95,0-1.89.17-2.83.33-2.3.49-4.55,1.26-6.69,2.25-1.89,1.45-4.77,1.71-6.1-.63Z"/><path d="M263.45,384.54c-7.88-3.64,2.61-18.59,4.51-24.21,5.15-10.6,10.93-20.87,16.74-31.12,20.07-36.34,39.67-73.07,59.23-109.66-6.23,3.32-14.44,1.48-10.74-7.04,7-13.04,16.54-24.55,25.52-36.26,15.6-19.51,30.66-39.43,46.14-59.03,3.45-4.09,6.54-8.64,10.42-12.3,3.57-2.1,7.35,2.93,4.2,5.72-15.66,18.71-30.12,38.38-45.24,57.52-11.43,14.63-23.65,29.05-33.27,44.9,2.42-.84,4.36-2.85,6.94-3.22,5.56-.36,5.49,6.3,3.68,9.98-4.97,11.21-11.52,21.66-17.13,32.55-14.87,27.21-29.1,54.76-44.34,81.76-7.21,12.69-14.34,25.47-20.13,38.88,15.83-18.66,29.76-38.84,43.42-59.12,3.28-4.84,6.54-9.68,9.82-14.52,1.93-2.71,3.88-6.6,7.72-6.44,5.78.12,4.65,6.93,4.05,10.86,5.98-11.65,11.39-23.57,16.68-35.54,3.58-7.87,7.09-15.77,10.9-23.53,2.62-5.37,8.24-8.45,13.67-10.37,2.94-.98,5.68,2.66,4.03,5.24-2.43,2.68-6.76,2.9-9.36,5.7-12.78,21.56-20.05,46.4-33.13,67.96-2.22,4.61-9.03,7.46-10.75.89-.56-2.81.18-5.65.5-8.45-12.13,17.9-24.04,35.97-37.16,53.18-4.96,5.46-19.68,29.25-26.93,25.68Z"/><path d="M304.96,444.85c-1.75-.74-2.71-2.91-1.9-4.67,4.97-10.85,10.46-21.45,15.93-32.05,11.01-22,22.46-43.78,34.11-65.45,5.8-11.28,12.8-22.34,15.76-34.78-4.89,2.52-9.12,6.57-14.53,7.97-7.57.42-4.88-8.17-3.08-12.48,5.21-15.32,11.02-30.44,16.92-45.51,2.53-6.64,5.39-13.22,6.97-20.17-.05-3.12,2.6-5.8,5.59-4.15,4.68,2.58-2.13,15.88-3.26,20.04-6.79,17.51-13.69,35-19.72,52.79,3.99-2.35,7.72-5.53,12.31-6.6,8.31-.45,6.28,10.4,4.18,15.39-8.86,22.69-22.22,43.34-33.07,65.1-8,15.4-15.75,30.97-23.68,46.4-2.7,5.38-5.35,10.79-7.86,16.26-.81,1.78-2.9,2.66-4.67,1.9Z"/><path d="M423.29,113.45c.59,14.22-4.62,27.91-8.06,41.52-2.25,8.78-4.82,17.48-7.84,26.02,1.85-1.91,3.41-4.29,5.97-5.3,5.04-1.78,7.26,4.24,6.42,8.28-1.98,16.16-8.83,31.22-14.13,46.49-4.76,13.25-9.59,26.49-14.56,39.67,3.61-2.98,8.42-10.49,13.64-7.51,6.45,6,2.1,20.04.03,27.48-9.47,27.28-22.52,53.18-34.9,79.23-8.22,18.46-16.83,36.94-22.91,56.22-.01.05-.03.1-.04.15-2.48,1.61-4.96,3.23-7.44,4.85-.15.1-.3.19-.45.27-.57-7.81,7.08-23.12,8.59-27.9,13.24-33.92,31.21-66.49,44.84-100.09,3.89-10.3,8.8-20.91,8.35-32.15-4.96,4.44-9.36,9.44-13.84,14.35-1.2,1.33-2.45,2.97-4.38,3.13-7.18-.36-2.49-8.53-1.23-12.37,2.14-5.75,4.32-11.48,6.46-17.23,8.21-24.08,19.05-47.5,24.51-72.4-3.59,3.54-10.93,15.09-15.53,7.12-.88-3.76,1.76-7.44,2.63-11.04,2.04-5.96,4.13-11.91,5.9-17.95,2.33-8.47,4.82-17.63,7.08-25.97,2.01-8.91,5.13-18.28,3.25-27.44-6.15-6.01,7.07-12.21,7.63,2.58Z"/><path d="M366.23,230.68c-1.27-.35-2.07-1.38-2.75-2.43-1.35-2.06-2.68-4.12-4.02-6.18-.32-.5-.65-.99-.97-1.49-.66-1.01-1.38-1.99-1.33-3.27.03-.85.35-1.61.68-2.38.24-.55.48-1.1.71-1.65.38-.89.76-1.78,1.14-2.67.08-.19.18-.36.29-.53.93-1.65,1.96-3.26,2.94-4.9,1.43-2.4,2.87-4.79,4.31-7.19,2.91-4.85,5.82-9.71,8.73-14.56,2.4-4.01,4.8-8.01,7.21-12.02,1.16-1.93,2.32-3.86,3.47-5.8.25-.42.51-.85.76-1.27.18-.31.36-.61.59-.9.9-1.17,2.46-1.61,3.86-1.21,1.34.38,2.37,1.64,2.5,3.02.09.94-.24,1.82-.5,2.71-.33,1.1-.66,2.19-.99,3.29-.85,2.84-1.75,5.67-2.56,8.53-.23,1.09-.37,2.21-.54,3.31-.23,1.49-.46,2.97-.69,4.46-.4,2.56-.79,5.13-1.19,7.69-.46,2.99-.92,5.98-1.39,8.98.03-.03.05-.06.08-.08,1.36-1.37,2.73-2.74,4.1-4.12.65-.65,1.39-1.12,2.3-1.35,1.74-.43,3.74.16,4.63,1.8.6,1.1.55,2.35.06,3.48-.03.08-.07.16-.11.24-2.59,5.94-5.18,11.89-7.77,17.83-.46,1.06-.88,2.16-1.43,3.17-.86,1.6-2.81,2.02-4.37,2.6-1.24.45-2.48.97-3.75,1.34-.75.22-1.54.29-2.32.4-1.46.2-2.92.39-4.38.58-1.36.18-2.71.36-4.06.54-.67.09-1.32.19-1.98.19-.42,0-.84-.04-1.27-.16ZM366.76,220.23c.55.85,1.11,1.7,1.66,2.56.17.26.33.52.49.78,1.23-.16,2.45-.35,3.68-.51,1.84-.25,3.7-.46,5.54-.74.1-.02.2-.04.3-.07,1.27-.45,2.53-.92,3.8-1.39.12-.04.24-.09.37-.13.51-1.15,1.01-2.31,1.51-3.47-.1.11-.21.23-.32.33-1.08.99-2.65,1.31-4.01.69-1.32-.6-2.17-2-2.1-3.45.02-.42.1-.84.16-1.26.09-.6.19-1.2.28-1.8.19-1.27.39-2.54.59-3.81.71-4.55,1.41-9.1,2.11-13.66.35-2.29.71-4.57,1.06-6.85-.98,1.63-1.96,3.27-2.94,4.9-2.39,3.99-4.78,7.97-7.17,11.96-1.15,1.92-2.3,3.84-3.45,5.75-.72,1.2-1.48,2.39-2.17,3.61-.48,1.13-1,2.24-1.48,3.37.69,1.07,1.39,2.13,2.08,3.2Z"/><path d="M391.96,375.74c-5.08-4.2.44-11.18,1.79-16.05,2.13-5.3,4.34-10.56,6.6-15.8,10.86-25.46,22.17-50.8,31.67-76.79-4.55,3.36-15.29,7.49-15.72-1.5,1.82-9.01,7.62-16.88,11.22-25.3,5.22-11,10.6-22.02,14.4-33.61-5.13,3.56-14.91,11.97-19.58,3.95-2.96-6.51,4.8-19.95,6.68-27.01,10.33-29.29,23.67-57.36,37.33-85.21,4.2-10.02,11.32-21.25,23.68-20.89,14.31,1.38,15.06,13.64,9.01,24.23-10.72,23.8-24.74,46.02-34.82,70.11,17.28-2,20.22,7.89,12.23,21.5-5.16,11.34-11.51,22.36-14.71,34.47,16.45-2.29,13.97,10.9,8.43,21.23-9.14,22.19-21.31,42.86-33.34,63.55-9.3,16.26-17.88,32.95-27.78,48.86-3.61,4.83-9.8,17.75-17.07,14.26ZM437.3,258.69c7.37,4.4-4.18,23.74-6.05,30.37-9.89,23.98-20.11,47.81-30.24,71.69,9.5-14.6,17.46-30.12,25.99-45.28,13.3-23.26,27.28-46.19,37.41-71.08,9.94-19.9-8.89-.62-9.84-15.45,1.46-12.5,8.81-23.66,13.74-35.07,1.62-3.47,3.34-6.89,4.81-10.42,2.44-4.8-2.69-4.72-6.03-4.68-13.71,3.02-11.66-5.95-7.26-14.98,3.82-8.12,7.85-16.14,11.94-24.13,5.31-10.29,11.01-20.39,16.01-30.85,2.68-6.48,7.17-12.58,7.89-19.66-2.65-8.6-14.22-3.28-17.59,2.28-19.03,36.87-36.89,75.23-49.33,115.04,6.15-1.87,10.16-8.6,16.45-9.6,9.27,1.74,2.69,13.71.94,19.28-6.31,16.13-14.46,31.44-21.86,47.08,4.23-1.48,8.27-6.97,13.03-4.54Z"/><path d="M452.82,322.39c-10.8-3.05-5.1-14.24-.39-20.27,15.53-24.4,36.38-44.71,53.52-67.83-5.02.05-11.17,1.42-15.34-2.04-2.56-2.31-3.08-6.22-1.34-9.17,5.32-7.8,12.61-14.14,19.07-21,19.04-19.45,39.31-37.99,59.93-55.64-6.99,1.35-23.28,9.19-28.37,2.44-1.25-2.14-.54-4.67.97-6.47,12.59-12.28,27.7-21.65,41.67-32.25-14.89,2.94-29.68,6.43-44.66,8.85-10.56,1.02-31.06,7.38-37.28-4.09-1.81-4.33.88-8.6,3.53-11.9,5.78-7.5,14.82-11.5,23.91-13.28,17.62-3.17,35.42-5.34,53.04-8.55,17.66-2.66,35.57-6.37,53.47-5.43,9.69.95,15.37,10.08,6.81,17.21-12.12,10.16-27,17.56-35.66,31.31,13.21-5.2,26.23-.6,14.89,14.13-21.27,27.9-50.59,48.25-76.28,71.78,6.97-.99,10.88,8.08,7.01,13.36-12.2,16.97-27.63,31.47-42.13,46.47,16.71-8.61,32.86-18.35,49.91-26.26,5.25-2.46,18.67-8.57,16.21,2.82-2.25,4.82-4.86,9.2-6.77,14.04,12.53-9.56,25.3-18.79,38.31-27.67,11.09-7.16,21.62-16.54,34.59-19.95,12.02,0,10.28,10.74,2.78,16.64-12.96,12.39-27.52,22.91-41.79,33.72-15.14,11.65-30.88,21.03-46.35,31.97-4.9,3.39-9.77,6.85-14.77,10.1-3.28,1.9-6.56,4.47-10.45,4.72-4.61.09-5.62-5.25-3.69-8.62,3.55-7.06,8.45-13.37,12.2-20.33-17.98,8.17-35.01,17.35-51.69,27.72-10.19,5.42-23.04,14.34-34.86,13.48ZM455.8,315.42c11.65-2.27,21.88-9.09,32.04-14.92,15.26-9.47,31.19-17.78,47.5-25.29,4.44-2.71,12.67-4.51,12.53,3.18-1.74,8.19-7.94,14.69-11.87,21.94,26.02-17.72,52.54-34.76,77.36-54.16,10.13-8.23,21.47-15.8,29.61-26.06-8.12,1.54-15.01,7.5-21.98,11.74-9.7,6.67-19.41,13.34-28.98,20.21-8,5.71-15.7,11.83-23.7,17.53-2.14,1.33-5.17,1.8-7.12-.14-4.15-5.44,3.04-15.57,5.23-21.05-22.65,9.93-43.82,22.97-65.76,34.36-3.56,2.86-9.71,1.11-7.92-4.17,1.71-3.76,4.87-6.63,7.6-9.67,12.09-12.41,24.45-24.58,35.81-37.68,1.84-2.95,11.27-10.95,9.06-13.96-2.94.46-5.72,1.68-8.41,2.93-1.66.88-3.42,2.06-5.38,1.56-7.3-3.34,1.62-10.44,4.72-13.67,8.12-7.86,16.83-15.07,25.55-22.24,13.41-11.49,26.21-22.6,38.66-34.95,6.32-6.61,13.22-13.28,17.34-21.52-4.66-.45-9.14,1.6-13.53,2.87-3.41,1.54-8.98.64-8.4-4.11,1.92-6.59,7.03-11.94,11.35-17.13,7.63-8.14,17.35-13.89,26.15-20.65,1.88-1.56,4.29-2.93,5.22-5.29-4.53-5.31-28.66-.54-36.03-.02-18.21,2.64-36.3,6.05-54.52,8.71-9.91,1.61-20.3,2.2-29.48,6.6-4.17,2.11-7.74,5.31-10.29,9.23-4.45,6.34,9.97,4.62,13.18,4.53,17.83-1.89,35.35-5.94,52.9-9.54,5.07-.44,14.93-4.84,18.84-1.18,3.44,3.93-.85,8.41-4.11,10.74-13.08,10.13-27.06,19.1-39.58,29.95,9.09-1.29,17.65-6.02,26.8-6.46,10.46,3.61-2.38,13.28-6.41,17.02-6.91,6.17-14.03,12.12-20.99,18.24-9.23,8.16-17.84,16.97-26.62,25.59-9.04,9.3-19.2,17.92-26.81,28.43.04.06.09.12.14.17,0,0,.01.02.02.02,5.07,1.26,10.6-1.15,15.47.71,6.49,4.16.42,11.51-2.87,15.74-5.55,7.08-11.53,13.8-17.39,20.62-2.7,3.29-45.54,53.52-34.95,51.26Z"/><path d="M641.55,273.77c-6.6-5.26,3.59-20.48,5.98-26.7,7.86-16.27,17.5-31.58,25.86-47.59-9.05,4.41-13.43-3.52-10.61-11.64,4.41-15.2,13.6-28.4,20.45-42.53,3.61-7.97-8.97-2.39-11.95-.47-13.04,7.93-22.02,20.84-29.58,33.8,2.43-1.13,4.77-2.91,7.57-2.81,4.04.3,4.75,5.14,2.76,8-5.2,8.63-12.55,15.72-19.47,22.95-8.14,8.03-23.7,23.58-34.64,26.03-6.46.58-9.81-6.95-6.73-12.12,5.07-10.23,12.09-19.37,18.29-28.93-14.57-.29-4.31-17.12.57-23.16,5.5-7.61,11.19-15.08,16.82-22.6,13.35-17.86,26.93-35.7,40.69-53.23,11.08-14.03,21.84-28.31,33.96-41.46,5.99-7,14.57-5.16,14.84,4.7-1.1,21.92-9.51,42.76-15.89,63.55,4.72-2.56,8.75-6.63,13.99-8.09,8.17-1.39,8.7,9.09,5.92,14.39-5.44,13.25-14,24.91-21.03,37.32,3.55-2.22,6.84-5.9,11.3-5.82,4.55.37,5.56,5.75,4.74,9.46-3.34,14.99-11.97,28.08-19.42,41.3-5.35,9.39-44.06,74.75-54.41,65.64ZM647.43,264.84c14.65-15.45,26.33-33.57,37.37-51.71,8.57-15.4,19.26-30.23,23.56-47.55-4.8,2.46-18.3,16.68-20.88,6.13-.01-3.8,2.94-6.81,4.54-10.08,5.64-9.72,11.71-19.18,17.25-28.95,2.18-4.4,5.02-8.84,5.54-13.8-4.99,2.83-9.45,6.65-14.75,8.92-5,2.19-9.13-1.84-7.42-6.95.72-2.69,1.66-5.34,2.52-7.99,4.05-12.41,8.1-24.44,11-37.04,1.36-6.99,3.84-14.28,2.76-21.42-10.83,9.98-19.36,22.41-28.7,33.8.01-.02.03-.03.04-.05.03-.04.06-.08.24-.31-1.89,2.41-3.49,4.45-5.32,6.78.02-.03.05-.06.09-.12.03-.04.06-.08.09-.12-.48.63-.97,1.24-1.46,1.86.02-.02.04-.05.06-.07,0,0,0-.01.01-.02-16.03,20.4-31.65,41.1-47.21,61.86-5.94,8.74-13.96,16.6-17.63,26.62,2.79-.89,6.95-.75,6.95,3.08,1.85,1.01,2.35,3.41,1.22,5.14-6.52,10.93-15.55,20.81-20.17,32.7,4.05-.43,8.4-5,11.97-7.23,2.58-1.98,5.12-4.01,7.55-6.16,8.78-7.93,17.08-16.46,24.7-25.51-5.77,3.4-11.15-1.9-7.88-7.73,6.77-12.82,14.94-24.64,25.83-34.24,7.07-5.64,16.26-12.34,25.77-10.04,3.59.96,6.39,4.26,6.11,8.07-.39,5.04-3.52,9.29-5.68,13.72-5.89,12.04-14.48,23.59-16.38,37.1,4.09-1.72,12.27-5.45,13.17,1.57-.39,5.73-4.43,10.54-6.81,15.61-9.77,17.8-20.63,35.18-28.04,54.15Z"/><path d="M664.7,128.02c-.63-.01-1.27-.19-1.84-.56-.16-.1-.32-.22-.47-.36-.68-.63-1.11-1.52-1.15-2.44,0-.17,0-.34.01-.51.05-.61.25-1.21.63-1.73.03-.04.06-.09.1-.13.02-.03.05-.07.07-.1.22-.31.44-.61.65-.92.48-.67.95-1.34,1.43-2.01,1.75-2.45,3.49-4.9,5.24-7.36,5.55-7.79,11.1-15.59,16.65-23.38,1.23-1.73,2.47-3.46,3.7-5.19.36-.51.72-1.02,1.09-1.53.15-.21.29-.42.45-.62.63-.86,1.42-1.5,2.5-1.72.78-.15,1.61-.02,2.31.35.71.37,1.18.94,1.56,1.62.53.95.34,2.03.23,3.04-.05.48-.1.96-.16,1.44-.12,1.13-.24,2.26-.37,3.39-.08.71-.14,1.42-.32,2.11-.2.78-.41,1.56-.62,2.34-.47,1.79-.93,3.58-1.31,4.9-.72,2.45-1.54,4.87-2.31,7.3-.45,1.4-1,2.75-1.57,4.11-.44,1.06-.95,2.13-1.31,3.22-.64,3.06-1.17,6.14-1.75,9.18-.02.13-.05.26-.07.4-.35,1.75-1.79,3.03-3.59,3.09-1.08.03-2.18.02-3.26.11-1.34.19-2.68.51-4.01.75-1.49.28-2.98.55-4.47.83-.81.15-1.62.32-2.45.34-.8.02-1.61.02-2.41.02-.96.01-1.92.03-2.89.03-.1,0-.19,0-.29,0ZM682.01,106.46c-3.35,4.69-6.69,9.38-10.03,14.08.63-.12,1.25-.25,1.88-.36,1.41-.26,2.83-.53,4.24-.79,1.07-.2,2.12-.43,3.21-.47.08,0,.16,0,.24,0,.15-.79.3-1.59.45-2.38.23-1.22.47-2.45.7-3.67.15-.78.29-1.54.58-2.28.17-.44.35-.87.53-1.31.48-1.14.95-2.29,1.42-3.43.43-1.04.76-2.11,1.1-3.18.44-1.38.88-2.75,1.32-4.13-1.88,2.65-3.77,5.29-5.65,7.94Z"/><path d="M688.39,247.73c-4.94-4.42,2.8-13.92,4.72-18.72,14.03-26.74,32.48-51.18,45.11-78.61-3.98,1.79-8.4,4.69-12.9,3.56-4.92-1.74-3.71-7.57-1.08-10.83,8.01-12.71,17.9-24.37,24.2-38.09-5.27,2.09-10.42,5.32-16.21,5.51-4.11.13-6.29-4.37-4.46-7.83,6.75-11.95,14.86-23.15,21.3-35.32-6.54,2.75-13.36,6.31-20.6,6.15-2.84-.24-5.42-2.58-5.32-5.52.68-6.27,8.26-10.95,13.04-14.33,17.57-11.1,36.53-20,56.18-26.73,6.7-3.43,9.28,5.52,1.85,6.91-10.04,3.38-19.98,7.49-29.44,12.13-11.29,5.94-23.47,11.21-32.77,20.12,7.31-1.66,13.88-5.38,20.75-8.18,2.82-1.08,6.28.83,6.14,4.02-.36,3.82-2.62,6.94-4.36,10.24-5.79,10.38-12.16,20.4-18.6,30.38,5.65-1.33,14.59-9.18,19.42-3.46,5.89,7.54-19.8,38.4-24.51,46.85,4.76-1.3,11.67-8.84,15.41-2.34,3.09,6.05-12.04,29.32-15.54,36.08-10.72,17.68-21.93,35.09-31.71,53.32,7.43-9.97,14.35-20.74,21.33-30.91,14.92-22.05,33.06-42.3,44.89-66.21-2.89-1.42-6.3.07-9.07-1.4-9.1-7.17,11.05-23.21,17.05-26.91,11.38-9.58,21.19-3.74,12.82,9.93,1.66-.92,3.91-.98,5.29.46,4.42,4.01-6.99,16.26-9.27,20.55,2.69-1.53,6.33.53,5.9,3.72-.6,3.12-3.11,5.54-4.78,8.15-3.63,4.97-7.3,9.9-10.88,14.91-6.01,8.33-11.79,16.84-17.1,25.64,16.29-19.63,35.2-37.66,47.89-59.9-3.3,1.04-7.28.65-7.42-3.62.27-3.27,1.98-6.06,3.22-9.02,3.23-7.1,7.43-13.74,10.46-20.93-4.16-1.13-8.52.65-12.1,2.71-4.06,2.26-7.54-3.85-3.52-6.2,3.82-2.24,8.12-3.87,12.59-3.98,10.67-.27,12.61,6.98,7.33,15.16-3.15,6.23-6.61,12.31-9.43,18.71,3.11-.04,5.93,2.5,6.33,5.56.6,4.83-5.98,11.86-8.33,16.26-13.09,19.26-30,35.49-44.69,53.49-4.08,4.52-7.75,9.81-13.06,12.95-2.54,1.46-6.02-.09-6.24-3.13-.08-4.51,3.32-8.22,5.21-12.1,9.46-16.93,20.69-32.77,32.25-48.32-3.9.02-5.4-4.53-3.64-7.58,2.52-4.68,5.94-8.87,8.78-13.32-3.17.69-5.9-2.65-5.06-5.74,1.01-4.14,4.22-7.31,5.72-11.27-7.33,4.7-15.08,9.72-19.62,17.36,18.89,1.28,7.41,16.06,1.72,25.25-8.98,14.4-19.25,27.9-29.38,41.5-6.69,9.1-12.77,18.45-19.12,27.75-4.65,5.75-18.38,31.08-26.73,25.15Z"/><path d="M793.25,100.73c-3.27-1.54-2.59-5.5.39-6.96,4.35-3.88,8.77-7.71,13.23-11.46,6.05-4.86,11.02-10.82,15.36-17.22,7.1-8.93,9.68-19.35,4.16-29.83-5.47-7.28-16-7.78-24.03-4.98-2.62.86-5.02,2.22-7.33,3.7-2.59,1.64-6.1-1.12-5.21-4.02,1.78-3.94,10.12-6.49,14.16-7.52,8.93-2.18,18.82-.49,25.76,5.77,7.47,7.88,8.44,20.88,4.5,30.69-5.28,10.19-12.31,19.79-21.02,27.32-4.7,4.08-9.51,8.03-14.11,12.22-1.54,1.47-3.6,3.28-5.86,2.29Z"/><path d="M759.8,88.45c-.83-2.87.21-5.83.93-8.61,1.04-3.95,2.15-7.88,3.28-11.8,1.51-3.92,3.67-16.32,6.68-18.11,5.75-3.06,12.08-4.85,18.34-6.53,5.67-1.03,14.18-4.79,18.15,1.22,3.33,8.44-8.76,11.72-13.01,17,4.23-.93,9.1-3.77,13.3-1.56,4.71,3.57-.4,8.9-4.02,10.93-6.76,4.06-39.32,30.05-43.65,17.46ZM766.89,84.47c9.62-3.49,18.02-9.48,26.44-15.17-9.57,3.85-12.02-4.74-5.81-10.95,3.3-3.87,7.51-6.77,11.58-9.76-8.5,1.41-16.23,3.56-23.91,7.04-3.08,9.52-5.79,19.17-8.3,28.85Z"/><path d="M779.7,201.68c-8.8-2.85-1.44-12.35,2.57-16.33,5.29-6.19,10.72-12.27,15.9-18.55,11.75-14.46,22.95-29.38,33.75-44.57-3.73,2.41-10.6,3.8-11.99-1.86-1.46-8.47,23.29-38.19,29.17-47.2-5.67,3.74-17.16,5.75-15.64-4.51,3.77-13.61,10.78-26.2,16.35-39.16,2.59-3.72,4.49-17.06,10.92-12.43,27.25-10.14,69.67-21.33,98.16-15.42,18.02,3.71,32.47,20.16,29.89,39.06-1.34,8.59-5.2,16.53-9.16,24.18-4.29,7.95-8.54,16.02-14.3,23.02-16.8,19.42-38.54,33.61-59.33,48.27-20.27,14.86-42.83,25.87-65.13,37.27-11.11,5.76-22.04,11.85-33.03,17.83-8.92,4.23-17.84,11.11-28.13,10.41ZM840.27,111.18c9.63,4.09-8.22,21.64-11.11,27.05-14.08,19.51-29.39,38.06-45.21,56.18,13.09-4.02,24.6-12.13,36.76-18.3,19.03-10.53,38.79-19.69,57.7-30.42,26.4-16.83,52.92-34.3,75.65-55.96,11.08-11.1,18.3-25.36,24.58-39.48,7.75-15.76.74-34-15.93-39.96-26.83-9.48-77.25,4.34-103.27,15.12-6.28,14.52-13.71,28.64-18.82,43.62,6.65-1.3,13.46-9.29,19.84-8.63,3.34,1,3.37,5.01,1.49,7.4-11.74,15.94-23.67,31.5-33.95,48.41,4.01-1.62,7.63-6,12.25-5.04Z"/><path d="M840.86,151.21c-9.56-2.77-.07-12.95,3.25-17.38,7.55-10.13,16.35-19.32,23.35-29.84-18.19-2.12-3.7-16.41,2.54-23.46,7.34-8.37,14.98-16.58,20.97-26-4.04,1.76-11.13,2.84-12.04-3.03-.2-6.01,8.27-13.8,11.6-18.98,5.61-6.16,14.26-8.68,22.24-9.99,10.96-1.51,23.01-1.37,32.86,4.24,7.44,4.37,10.37,14.39,6.06,21.95-8.2,13.26-24.27,18.78-34.65,30.08,6.57-2.1,16.62-.31,12.17,8.65-7.36,9.16-17.49,15.95-26.18,23.85-11.3,9.69-48.73,39.83-62.18,39.9ZM870.76,97.09c13.82,3.02-5.95,21.27-9.54,26.77-4.97,6.09-9.93,12.19-14.62,18.5,28.04-14.8,52.04-36.12,75.5-57.2-3.49.27-6.93,1.9-10.45,1.12-5.47-1.39-4.26-7.4-1.24-10.68,8.96-10.61,22.05-16.55,31.91-26.14,5.53-4.8,5.9-13.55-1.17-17.07-8.72-4.24-18.89-4.08-28.29-2.68-14.25,2.33-17.32,7.36-25.14,18.37,6.65-3.35,14.88-1.02,10.75,7.57-8.39,15.37-22.19,26.82-32.36,40.89,1.52.41,3.1.37,4.65.54Z"/><path d="M844.92,192.4c5.49-2.13,14.51-1.08,9.28,6.76-10.54,8.66-22.12,16.4-33.68,23.71-60.35,33.14-120.37,66.72-178.38,103.7-7.61,4.13-81.7,55.17-71.17,25.85,5.09-9.53,12.07-17.99,16.61-27.83-35.15,23.77-68.74,49.87-103.51,74.22-8.54,6.06-17.04,12.16-25.44,18.41-5.53,3.88-11.06,8.66-17.91,9.82-6.46.67-8.58-6.67-5.55-11.43,3.23-8.33,7.36-16.26,10.91-24.45-30.46,21.22-98.68,75.4-134.04,74.83-14.36-.72-15.9-14.04-9.92-24.65,1.3-2.78,5.63-2.53,6.57.4.69,2.97-1.92,5.55-2.36,8.44-3.63,16.43,22.96,5.7,30.26,2.67,23.43-10.35,44.62-25.09,65.92-39.16,12.72-8.85,25.24-17.98,37.77-27.11,3.95-3.26,12.97-9.86,14.79-1.34-1.85,12.16-10.19,22.94-13.82,34.37,14.84-7.53,27.24-19.36,41.22-28.42,22.01-16.23,44.64-31.61,66.51-48.03,12.02-8.81,23.75-18.15,36.65-25.66,4.77-2.99,10.28.24,9.47,6-2.63,11.28-11.35,20.24-16.79,30.3,21.38-8.01,40.44-21.33,59.86-33.16,28.69-18.5,58.21-35.67,87.69-52.88,36.98-23.11,77.58-40.29,112.92-65.92-25.7,9.4-49.45,22.49-73.95,34.46-29.45,14.78-58.85,29.73-87.41,46.19-19.6,11.14-39.13,22.38-58.35,34.16-4.74,3.69-13.97,4.51-11.44-4.15,3.33-8.41,10.06-15.41,12.34-24.16-13.03.71-26.76,11-38.37,16.81-19.61,11.29-37.78,24.85-56.05,38.15-10.54,7.78-20.32,15.22-30.39,23.1-2.21,1.75-4.84,4.3-7.85,2.99-7.98-5.32,7.76-21.91,8.81-28.89-7.37,1.5-13.83,5.61-20.44,8.99-10.19,5.45-20.43,10.82-30.6,16.3-36.19,19.9-71.03,42.15-105.59,64.75-.15.1-.3.19-.45.27-.19-2.58.52-5.99,1.62-9.56h0c2.09-1.36,4.19-2.72,6.29-4.06,34.48-22.39,69.35-44.33,105.72-63.53,14.32-6.71,27.52-17,43.16-20.3,14.83-.37,3.81,17,.07,23.46,30.95-23.41,61.75-47.57,96.25-65.62,8.58-3.6,29.67-18.15,34.82-4.42.65,8.4-6.44,15.62-9.79,22.73,44.43-27.05,89.91-52.39,136.48-75.58,30.1-14.43,59.27-31.58,91.28-41.52Z"/><path d="M855.88,19.96c-1.19-5.09,5.04-4.84,8.34-5.74,5.18-1.24,10.3-2.69,15.45-4.04,3.09-.64,7.07-3.04,8.66,1.17.91,3.58-2.36,4.72-5.2,5.29-2.86.74-5.71,1.55-8.57,2.3-4.22,1.1-8.43,2.24-12.72,3.04-2.39.72-4.98.8-5.96-2.02Z"/><path d="M175.52,476.59c-2.7-.12-4.26-3.49-2.64-5.62,15.34-17.53,32.93-32.93,49.58-49.18,5.26-3.8,15.07-18.95,21.89-12.51,2.81,4.08-.9,9.05-.05,13.45,9.99-3.21,17.7-11.78,25.97-18.04,8.88-6.99,16.95-15.26,26.67-21.06,2.3-1.17,5.67-1.03,7.05,1.43,3.08,7.48-9.53,19.24-13.57,25.39-15.35,19.22-33.91,35.49-52.03,52.01-14.54,14.93-27.49,12.41-18.83-10.07-9.19,3.81-17.69,8.99-25.32,14.64-4.26,1.93-11.37,12.6-15.66,8.23-.73.9-1.9,1.42-3.06,1.33ZM223.83,464.62c11.33-7.19,20.35-17.64,30.45-26.41,11.27-10.44,22.16-21.55,31.67-33.54,2.54-3.19,5.02-6.44,7.33-9.8-12.96,10.23-24.93,21.8-38.71,30.94-8.92,7.18-20.27,4.63-17.04-8.5-13.93,13.17-27.79,26.41-41.52,39.78,6.83-3.58,29.55-21.51,30.89-5.41-.45,4.42-2.81,8.47-3.06,12.94Z"/><path d="M97.94,324.51c.37,1.15.3,2.81-.07,4.8h-3.79s-.55,0-.55,0h-2.72s-.54,0-.54,0h-.01c2.45-1.76,5-3.39,7.68-4.8Z" fill="#f6b139"/><path d="M103.61,173.6c3.46,16.85-7.11,39.3-11.33,55.99-7.41,22.61-13.43,45.63-19.65,68.58h-.11s-.38.04-.38.04l-.37.03-.37.03-.37.04-.36.04-.36.05-.35.05-.34.05-.34.06-.35.06-.34.07-.35.07-.34.08-.34.08-.35.08-.36.09-.37.1-.39.1-.39.1-.39.1-.39.11-.39.11-.4.12-.4.12-.4.12-.38.12-.37.12-.36.12-.36.12-.34.12-.32.11-.29.11-.29.11-.28.11-.27.11-.27.11-.26.11-.26.11-.26.11-.25.11-.25.11-.25.11-.24.11-.24.11-.24.11-.23.11-.23.11-.23.11-.22.11-.21.1-.21.11-.2.1-.2.11-.19.1-.19.1-.19.1-.19.1-.19.11-.19.11-.19.11-.19.12-.2.12-.2.12-.21.12-.21.13-.22.13-.22.13-.23.14-.23.14-.24.14-.25.15-.25.15-.26.16-.26.16-.27.16-.27.17-.26.16-.26.17-.27.17-.28.17-.28.18-.28.18-.28.18-.04.03c6.5-23.92,14.25-47.53,22.06-71.01,1.39-5.63,5.39-11.27,4.48-17.15-1.52-3.83-6.07-2.46-8.55-.44-9.31,5.79-18.4,11.95-27.98,17.3-3.05,1.47-36.7,21.63-30.97,9.87,16.89-22.67,39.43-40.72,61.41-58.26,6.85-5.14,13.76-10.35,21.42-14.24.97-.25,1.94-.68,2.64-1.36,1.31-.58,2.66-1.08,4.04-1.48h0c2.54.06,5.29-2.28,6.24,3Z" fill="#f6b139"/><path d="M314.69,140.59c16.86-5.01,25.59,4.19,20.02,20.77-6.71,25.32-17.74,50.35-26.19,75.32-1.03,2.61-2.12,5.19-3.28,7.74l-1.89.8-2.82,1.18-2.75,1.14-2.67,1.09-2.52,1.02-2.32.95-2.21.93-2.13.93-2.08.96-2.06,1.02-2.01,1.07-1.94,1.12-1.92,1.19-1.91,1.27-1.91,1.35-1.96,1.45-1.95,1.52-1.95,1.58-1.98,1.66-2.01,1.73-1.37,1.19c6.09-12.31,12.03-24.7,17.81-37.15,3.66-9.63,20.45-39.2,6.04-44.67-7.12-2.1-21.82,8.62-29.56,11.42-10.82,4.35-27.47,14.22-38.8,13.39,5.19-8.46,14.21-14.06,21.54-20.61,13.09-10.6,26.75-20.51,40.55-30.15,11.56-7.82,22.8-16.77,36.22-21.18Z" fill="#f6b139"/><path d="M638.5,85.07c-.94,2.37-3.34,3.73-5.22,5.29-8.8,6.75-18.52,12.51-26.15,20.65-4.32,5.19-9.43,10.54-11.35,17.13-.58,4.75,4.99,5.65,8.4,4.11,4.39-1.27,8.87-3.32,13.53-2.87-4.12,8.24-11.02,14.91-17.34,21.52-12.45,12.35-25.25,23.46-38.66,34.95-5.49,4.51-10.97,9.04-16.3,13.73l-3.09.97-3.96,1.24-3.83,1.18-3.72,1.11-3.64,1.03-3.61.97-3.62.91-3.51.84-3.36.76-1.44.31c3.55-3.47,7.14-6.9,10.57-10.43,8.79-8.62,17.4-17.43,26.62-25.59,6.96-6.12,14.08-12.06,20.99-18.24,4.04-3.73,16.88-13.41,6.42-17.01-9.15.43-17.71,5.16-26.8,6.46,12.53-10.85,26.5-19.82,39.59-29.95,3.25-2.33,7.55-6.82,4.1-10.74-3.91-3.66-13.77.74-18.84,1.18-17.55,3.6-35.06,7.64-52.89,9.54-3.21.09-17.63,1.81-13.18-4.53,2.55-3.92,6.13-7.12,10.29-9.23,9.18-4.4,19.57-4.99,29.48-6.6,18.21-2.66,36.3-6.07,54.52-8.71,7.37-.52,31.5-5.29,36.03.02Z" fill="#f6b139"/><path d="M708.9,54.4c1.09,7.14-1.4,14.43-2.76,21.42-2.9,12.6-6.95,24.63-11,37.04-.56,1.74-1.16,3.47-1.71,5.22l-2.22,1.96-3.15,2.78c.02-.12.05-.23.07-.35.58-3.03,1.1-6.12,1.75-9.18.36-1.1.87-2.16,1.32-3.22.56-1.36,1.12-2.7,1.57-4.11.78-2.43,1.6-4.85,2.31-7.3.39-1.32.84-3.12,1.31-4.9.21-.78.42-1.55.62-2.34.18-.69.24-1.4.32-2.11.12-1.13.24-2.26.37-3.39.05-.48.1-.96.16-1.44.11-1.02.3-2.1-.23-3.04-.38-.68-.85-1.25-1.56-1.62-.7-.37-1.54-.5-2.31-.35-1.08.21-1.87.85-2.5,1.72-.15.21-.3.42-.45.62-.36.51-.73,1.02-1.09,1.53-1.23,1.73-2.47,3.46-3.7,5.19-5.55,7.79-11.1,15.59-16.65,23.38-1.75,2.45-3.49,4.9-5.24,7.36-.48.67-.96,1.34-1.43,2.01-.22.31-.43.61-.65.92-.03.03-.05.07-.07.1-.03.05-.07.09-.1.13-.38.52-.58,1.12-.63,1.73-.02.17-.02.34-.01.5.05.93.47,1.82,1.15,2.44.15.14.3.26.47.36.57.37,1.2.55,1.84.56.09,0,.19,0,.29,0,.96,0,1.92-.02,2.89-.03.8,0,1.61,0,2.41-.02.83-.02,1.64-.19,2.45-.34,1.49-.28,2.98-.55,4.47-.83,1.33-.25,2.67-.56,4.01-.75,1.08-.09,2.17-.08,3.26-.11.02,0,.04,0,.06,0l-2.88,2.55-3.17,2.83-3.29,2.94-1.61,1.42c-5.25,2.01-10.13,5.68-14.29,8.99-3.02,2.66-5.83,5.49-8.46,8.47l-1.06.67-3.75,2.19-3.72,2.05-3.65,1.93-3.59,1.86-3.62,1.85-3.6,1.84-3.54,1.81-3.58,1.83-3.63,1.85-.23.12c3.27-4.42,6.85-8.66,9.89-13.13,15.54-20.73,31.13-41.4,47.14-61.77.45-.57.9-1.13,1.34-1.71.04-.05.08-.1.12-.16,1.66-2.11,3.14-4.01,4.84-6.18.02-.02.03-.04.05-.07,0,0,.01-.01.01-.02,9.32-11.36,17.84-23.76,28.64-33.72Z" fill="#f6b139"/><path d="M809.38,97.52c-.43,1.02-.88,2.02-1.35,3.02l-2.56-.55-2.72-.68-2.33-.67c2.85-1.23,5.96-1.93,8.96-1.11Z" fill="#f6b139"/><path d="M826.39,35.25c5.52,10.49,2.95,20.91-4.15,29.83-4.34,6.4-9.31,12.36-15.36,17.22-4.47,3.75-8.88,7.58-13.23,11.46-.88.43-1.57,1.09-2,1.84h-.01s-2.82-1.1-2.82-1.1l-2.87-1.14-2.85-1.14-2.8-1.11-2.82-1.07-2.73-.96c11.03-5.1,24.61-15.62,28.71-18.08,3.62-2.03,8.74-7.36,4.02-10.93-4.2-2.22-9.07.63-13.3,1.56,4.25-5.29,16.34-8.56,13.01-17-3.97-6.01-12.48-2.25-18.15-1.22-6.27,1.68-12.59,3.47-18.34,6.53-3.01,1.79-5.16,14.18-6.68,18.11-1.13,3.92-2.24,7.85-3.28,11.8-.49,1.9-1.13,3.87-1.22,5.85l-1.56-.16-2.63-.18-2.62-.1h-2.51s-2.34.11-2.34.11l-1.06.09c2.67-4.37,5.28-8.78,7.77-13.26,1.74-3.29,3.99-6.42,4.35-10.24.14-3.19-3.32-5.1-6.14-4.02-6.87,2.81-13.44,6.53-20.75,8.18,9.31-8.91,21.49-14.18,32.78-20.12,8.98-4.4,18.4-8.33,27.92-11.61.76.15,1.57.04,2.31-.43.37-.24.74-.47,1.12-.7.32-.16.61-.33.87-.52,1.7-.99,3.47-1.86,5.34-2.48,8.02-2.81,18.56-2.3,24.03,4.98Z" fill="#f6b139"/><path d="M978.43,23.54l-.16.05-2.36.79-2.5.87-2.59.94-2.63.98-2.69,1.03-2.74,1.07-2.79,1.11-2.82,1.13-2.76,1.13-2.41,1.01c-1.37-2.81-3.54-5.25-6.33-6.89-9.85-5.61-21.9-5.75-32.86-4.24-7.98,1.31-16.63,3.83-22.24,9.99-3.33,5.19-11.8,12.97-11.6,18.98.91,5.87,8,4.79,12.04,3.04-5.99,9.42-13.63,17.63-20.97,26-1.92,2.17-4.63,5.03-6.92,8.01h0s-1.9,1.01-1.9,1.01l-2.99,1.51-3.13,1.5-3.28,1.49-3.31,1.4-3.23,1.23-3.15,1.08-2.48.75c7.21-10.39,14.83-20.46,22.37-30.7,1.88-2.39,1.85-6.4-1.49-7.4-6.39-.67-13.2,7.33-19.84,8.63,5.11-14.99,12.55-29.1,18.82-43.62,26.02-10.78,76.44-24.6,103.27-15.12,7.14,2.55,12.51,7.35,15.71,13.25Z" fill="#f6b139"/><path d="M416.17,114.62c.55,7.95-2.02,16-3.76,23.7-2.26,8.34-4.76,17.5-7.08,25.97-1.77,6.04-3.86,11.99-5.9,17.95-.86,3.6-3.51,7.28-2.63,11.04,4.6,7.97,11.94-3.58,15.53-7.12-2.88,13.15-7.26,25.88-11.97,38.52l-1.76.17-2.57.28-2.57.3-2.59.31-2.64.32-.62.07c.3-.26.56-.57.76-.94.55-1.02.97-2.11,1.43-3.17,2.59-5.94,5.18-11.89,7.77-17.83.03-.08.07-.16.11-.24.49-1.13.54-2.38-.06-3.48-.9-1.63-2.89-2.22-4.63-1.8-.91.23-1.65.7-2.3,1.35-1.36,1.37-2.73,2.74-4.1,4.12-.03.03-.05.06-.08.08.46-2.99.93-5.98,1.39-8.98.39-2.56.79-5.13,1.19-7.69.23-1.49.46-2.97.69-4.46.17-1.1.32-2.22.54-3.31.8-2.86,1.71-5.69,2.56-8.53.33-1.1.66-2.19.99-3.29.26-.89.59-1.76.5-2.71-.13-1.38-1.16-2.64-2.5-3.02-1.4-.4-2.96.04-3.86,1.21-.22.29-.4.59-.59.9-.26.42-.51.85-.76,1.27-1.16,1.93-2.32,3.86-3.47,5.8-2.4,4.01-4.8,8.01-7.2,12.02-2.91,4.86-5.82,9.71-8.73,14.56-1.44,2.4-2.87,4.79-4.31,7.19-.97,1.63-2.01,3.24-2.94,4.9-.11.16-.2.34-.29.53-.38.89-.76,1.78-1.14,2.67-.24.55-.48,1.1-.71,1.65-.33.77-.65,1.52-.68,2.38-.04,1.28.67,2.26,1.33,3.27.32.5.65.99.97,1.49,1.29,1.98,2.57,3.95,3.86,5.92l-1.09.05-2.53.14-2.56.16-2.5.2-2.4.25-2.35.3-2.31.36-.76.14c1.69-3.22,3.3-6.47,4.77-9.79,1.81-3.68,1.88-10.33-3.69-9.98-2.58.37-4.52,2.38-6.94,3.22,9.62-15.85,21.84-30.27,33.27-44.9,14.05-17.79,27.54-36.04,41.94-53.54Z" fill="#65cfe9"/><path d="M478.08,91.43c3.38-5.56,14.94-10.88,17.6-2.28-.73,7.09-5.22,13.19-7.89,19.66-4.99,10.46-10.69,20.55-16,30.85-4.09,7.99-8.11,16.01-11.94,24.13-4.4,9.04-6.45,18.01,7.26,14.99,3.34-.04,8.46-.12,6.03,4.68-1.47,3.53-3.2,6.95-4.81,10.42-3.71,8.58-8.78,17.01-11.69,25.98l-2.9.53-3.02.54-3.07.53-2.99.49-.92.14c.83-1.97,1.64-3.96,2.42-5.95,1.75-5.57,8.32-17.54-.94-19.28-6.29,1-10.29,7.73-16.45,9.61,12.44-39.81,30.3-78.17,49.33-115.04Z" fill="#65cfe9"/><path d="M96.94,94.17c-.04-1.99,1.56-3.54,3.49-3.64,9.28-.49,18.56-.96,27.84-1.44,4.79-.25,9.58-.5,14.36-.75,2.2-.11,4.4-.23,6.6-.34.99-.05,2-.16,3-.16,1.94,0,3.6,1.52,3.64,3.49.04,1.91-1.55,3.64-3.49,3.64-1,0-2.01.1-3,.16-2.2.11-4.4.23-6.6.34-4.79.25-9.57.5-14.36.75-9.28.48-18.56.95-27.84,1.44-.06,0-.11,0-.17,0-1.87,0-3.43-1.65-3.48-3.5Z"/><path d="M127.01,143.68c-.3-5.43-.61-10.86-.92-16.28-.48-8.31-.94-16.61-1.41-24.92-.17-3.09-.35-6.17-.53-9.26,0,0,0,0,0,0,0-.04,0-.08,0-.12,0-.14,0-.28,0-.42,0-.42.11-.82.27-1.18.5-1.21,1.61-2.11,3.01-2.21,1.91-.14,3.71,1.35,3.83,3.29,0,.04,0,.08,0,.12,0,0,0,0,0,0,0,.02,0,.04,0,.05.53,9.09,1.03,18.19,1.55,27.28.36,6.37.72,12.74,1.08,19.11.09,1.49.23,2.99.23,4.48,0,1.76-1.6,3.23-3.29,3.36-.08,0-.17,0-.25,0-1.79,0-3.51-1.44-3.57-3.3Z"/><path d="M156.58,142.75c-.65-.55-1.25-1.49-1.25-2.37v-.07c-.11-.82-.16-1.65-.23-2.47-.09-.99-.19-1.98-.28-2.96-.25-2.75-.51-5.49-.76-8.23-.81-8.79-1.63-17.58-2.44-26.37-.24-2.63-.49-5.25-.73-7.88,0-.06-.01-.12-.02-.19,0-.01,0-.02,0-.04-.05-.49-.09-.97-.13-1.46-.18-1.93,1.25-3.71,3.2-3.9,1.92-.19,3.73,1.26,3.9,3.2,0,.03,0,.06,0,.1.04.44.09.87.12,1.31.85,9,1.68,18.01,2.5,27.02.53,5.81,1.07,11.61,1.61,17.41.07.75.14,1.49.21,2.24.05.53.06,1.07.15,1.59.31,1.92-1.35,3.72-3.2,3.9-.11.01-.23.02-.34.02-.84,0-1.67-.3-2.31-.84Z"/><path d="M185.08,138.22c-.06-.49-.13-.98-.13-1.46-.45-4.8-.9-9.61-1.35-14.41-1.01-10.75-2.01-21.5-3.02-32.25-.1-1.04-.2-2.08-.29-3.12-.08-.93.38-1.93,1.01-2.58.65-.66,1.54-1.05,2.46-1.08.95-.03,1.9.34,2.58,1.01.69.67.99,1.51,1.04,2,.93,9.83,1.83,19.67,2.76,29.5.55,5.92,1.11,11.85,1.66,17.77.08.87.18,1.74.25,2.61.01.1.02.2.02.3.03.35.07.71.1,1.06.01.12.03.25.03.37h0s0,0,0,0h0s0,0,0,0h0c0,1.94-1.5,3.61-3.47,3.66-.03,0-.06,0-.09,0-1.84,0-3.53-1.52-3.57-3.39Z"/><path d="M155.83,114.82c-.64-.67-1-1.58-.99-2.5,0-.95.41-1.88,1.1-2.54.7-.67,1.56-.94,2.5-.99,8.42-.47,16.84-.9,25.27-1.35.11,0,.22-.01.33-.02.11,0,.23-.02.34-.02,0,0,0,0,0,0,0,0,0,0,0,0,0,0,0,0,0,0,0,0,0,0,0,0,0,0,0,0,0,0,1.94,0,3.55,1.67,3.54,3.6-.02,1.82-1.44,3.32-3.2,3.51-.05,0-.09,0-.14,0,.03,0,.06,0,.09,0,.02,0,.03,0,.04,0,.03,0,.05,0,.08,0-.03,0-.05,0-.08,0-.12.01-.25.02-.37.02-8.07.46-16.15.87-24.23,1.3-.29.02-.58.03-.87.05-.06,0-.12,0-.19.01-.22,0-.45.02-.67.03-.04,0-.09,0-.13,0-.89,0-1.81-.48-2.41-1.1Z"/><path d="M205.86,139.41c-1.86-.04-3.32-1.51-3.47-3.17-.74-6.67-1.42-13.35-2.14-20.03-1.07-10.09-2.14-20.18-3.22-30.27,0,0,0-.01,0-.02-.02-.12-.03-.24-.04-.36,0-.09-.02-.18-.03-.28,0-.03,0-.06,0-.1-.2-1.93,1.2-3.72,3.15-3.94,1.97-.22,3.68,1.23,3.94,3.15.03.24.05.49.08.73.01.11.02.21.03.32.99,9.83,2.1,19.65,3.15,29.47.73,6.84,1.47,13.68,2.19,20.53.02.16.02.31.02.47,0,1.92-1.68,3.5-3.57,3.5-.02,0-.04,0-.07,0Z"/><path d="M200.06,88.97c-2.35-.69-3.24-3.97-1.55-5.75,5.59-3.24,18.82-1.13,25.69-1.49,1.94.05,3.47,1.86,3.37,3.76-.11,1.98-1.81,3.41-3.76,3.37-4.56-.11-9.13-.27-13.7-.22-2.86.05-5.71.26-8.55.48.44-.05.9-.16,1.28-.38-.84.43-1.86.52-2.78.24Z"/><path d="M204.94,113.89c-4.66.56-5.33-6.78-.65-7.1,4.63.08,9.25-.35,13.83-1.04,1.93-.27,3.69,1.44,3.83,3.29.4,6.11-13.4,4.34-17.57,4.87.16,0,.31,0,.45,0,0,0,.1-.02.1-.02Z"/><path d="M209.67,139.77c-5.08.51-9.79-4.22-4.22-7.43,3.09-.26,6.28.8,9.45-.01,5.97-.88,11.82-2.51,17.68-3.9,1.89-.45,3.83.9,4.22,2.76.41,1.94-.88,3.77-2.76,4.22-8.03,1.82-16.06,4.45-24.37,4.36Z"/><path d="M282.96,284.55l1.24-.57c-1.16,2.11-2.3,4.23-3.42,6.36-18.1,33.03-35.78,67.74-61.33,95.97.61-2.8,1.94-5.54,1.92-8.43-1.83-6.77-8.29-2.19-10.32,1.84-10.06,13.96-20.53,28.3-31.49,41.82-10.95,13.28-63.9,79.37-80.02,69.36,1.57-9.87,7.86-18.67,11.47-27.97,3.94-9.47,8.72-19.7,7.47-30.18-3.34-12.12-12.11-2.99-16.91,2.55-7.2,7.54-14.52,14.98-22.14,22.09-12.19,10.26-36.15,33.86-51.52,35.57-3.29-2.06,4.24-20.94,5.08-25.32,7.93-26.63,17.64-52.67,27.33-78.7,2.69-8.68,6.64-17.65,5.97-26.89-1.54-8.02-10.17-5.48-14.51-1.35-5.54,4.02-10.82,8.42-16.58,12.13,1.33-10,3.04-19.92,5.06-29.77l.17-.1.32-.19.31-.18.3-.17.29-.17.28-.16.27-.16.26-.15.25-.15.25-.15.25-.14.24-.14.25-.14.25-.14.25-.14.26-.15.26-.15.28-.16.29-.17.3-.18.31-.18.31-.18.3-.18.31-.19.31-.19.3-.19.3-.19.29-.18.28-.18.28-.18.28-.18.28-.17.27-.17.26-.17.26-.16.27-.17.27-.16.26-.16.26-.16.25-.15.25-.15.24-.14.23-.14.23-.14.22-.13.22-.13.21-.13.21-.12.2-.12.2-.12.2-.12.19-.11.19-.11.19-.11.19-.1.19-.1.19-.1.19-.1.2-.11.2-.1.21-.11.21-.1.22-.11.23-.11.23-.11.23-.11.24-.11.24-.11.24-.11.25-.11.25-.11.25-.11.26-.11.26-.11.26-.11.27-.11.27-.11.28-.11.29-.11.29-.11.32-.11.34-.12.36-.12.36-.12.37-.12.38-.12.4-.12.4-.12.4-.12.39-.11h.01c-.28,2.14-.34,4.29-.02,6.45.79,6.16,8.27,6.96,12.3,3.32,4.58-3.79,9.08-7.76,13.92-11.23h.55s.54,0,.54,0h3.28s.55,0,.55,0h2.69c-1.51,8.25-8.12,22.07-9.85,27.88-5.4,13.94-10.83,27.88-15.57,42.06-3.74,12.47-8.85,25.16-8.17,38.39.37,9.32,7.3,11.5,13.33,4.64,11.91-12.32,21.93-26.33,33.59-38.89,7.56-7.46,21.76-27.27,31.26-29.49,1.53,4.71-.89,9.98-1.64,14.71-2.47,10.08-5.55,19.99-8.24,30.01-1,5.08-4.29,11.41-1.07,16.18,4.93,4.57,10.27-1.79,13.37-5.5,18.53-22.22,32.03-48.09,47.92-72.17,4.48-6.72,8.45-13.8,12.56-20.78l.99-.16,1.27-.24,1.26-.27,1.27-.32,1.28-.37,1.27-.42,1.27-.48,1.27-.53,1.28-.6,1.31-.68,1.32-.74,1.1-.65c1.3,3.88,3.69,6.14,8.38,3.1,2.98-4.14,5.03-8.86,7.05-13.6l1.44-1,1.69-1.19,1.79-1.28,1.88-1.39,2-1.53,2.08-1.66,2.1-1.73,2.11-1.79,2.12-1.85,2.12-1.88,2.14-1.91,2.14-1.89,2.07-1.81,2.01-1.73,1.98-1.66,1.95-1.58,1.95-1.52,1.96-1.45,1.91-1.35,1.91-1.27,1.92-1.19,1.94-1.12,2.01-1.07,2.06-1.02Z" fill="#cf9530"/><path d="M620.99,231.83c6.97-4.24,13.86-10.19,21.98-11.74-8.13,10.26-19.47,17.83-29.61,26.06-24.82,19.41-51.34,36.45-77.36,54.16,3.93-7.24,10.14-13.74,11.87-21.94.14-7.69-8.09-5.89-12.53-3.18-16.31,7.51-32.23,15.82-47.49,25.29-10.16,5.83-20.39,12.65-32.04,14.92-10.6,2.26,32.25-47.97,34.95-51.26,5.85-6.82,11.84-13.54,17.39-20.62.79-1.01,1.74-2.21,2.63-3.5l1.42-.31,3.36-.76,3.51-.84,3.62-.91,3.61-.97,3.64-1.03,3.67-1.09c-10.65,12-22.07,23.28-33.26,34.77-2.73,3.04-5.89,5.91-7.6,9.67-1.79,5.28,4.37,7.03,7.92,4.17,21.94-11.39,43.11-24.42,65.76-34.36-2.19,5.48-9.38,15.6-5.23,21.05,1.95,1.94,4.98,1.47,7.12.14,7.99-5.7,15.7-11.82,23.7-17.53,9.57-6.87,19.28-13.54,28.98-20.21Z" fill="#cf9530"/><path d="M706.82,136.85l.07-.06c-4.87,8.33-10.03,16.49-14.88,24.84-1.6,3.27-4.56,6.28-4.54,10.08,2.59,10.55,16.08-3.67,20.88-6.13-4.31,17.31-14.99,32.14-23.56,47.55-11.04,18.14-22.72,36.25-37.37,51.71,7.41-18.97,18.28-36.35,28.04-54.15,2.38-5.07,6.42-9.88,6.81-15.61-.9-7.01-9.08-3.29-13.17-1.57,1.9-13.51,10.49-25.06,16.38-37.1.29-.59.59-1.17.9-1.75l.71-.63,3.24-2.86,3.3-2.91,3.34-2.95,3.33-2.92,3.29-2.85,3.21-2.71Z" fill="#cf9530"/><path d="M634.19,193l3.02-1.56c-6.45,7.28-13.35,14.2-20.56,20.72-2.43,2.15-4.98,4.18-7.55,6.16-3.58,2.23-7.92,6.8-11.98,7.23,2.7-6.96,6.91-13.23,11.25-19.42l.27-.13,3.86-1.93,3.72-1.89,3.63-1.85,3.58-1.83,3.54-1.81,3.6-1.84,3.62-1.85Z" fill="#cf9530"/><path d="M756.18,134.53c2.76,1.47,6.17-.02,9.06,1.4-11.83,23.91-29.97,44.16-44.89,66.21-6.98,10.16-13.89,20.94-21.33,30.91,9.78-18.23,20.99-35.64,31.71-53.32,3.5-6.76,18.63-30.03,15.54-36.08-3.74-6.5-10.64,1.04-15.41,2.34,2.83-5.07,13.23-18.23,19.81-29.57h1.14s2.62.09,2.62.09l2.63.18,2.66.27,1.72.24c-5.96,6-10.56,13.17-5.26,17.34Z" fill="#cf9530"/><path d="M795.84,128.59c.75,3.21,4.29,3.44,7.27,2.5-12.69,22.24-31.59,40.27-47.89,59.9,5.31-8.8,11.09-17.3,17.1-25.64,3.57-5.01,7.25-9.94,10.88-14.92,1.68-2.6,4.18-5.03,4.78-8.15.42-3.19-3.22-5.25-5.91-3.72,1.29-2.44,5.52-7.43,8.13-12.03l.54.21,2.8,1.04,2.29.81Z" fill="#cf9530"/><path d="M975.03,55.53l1.44-.48c-5.79,12.51-12.58,24.83-22.4,34.67-22.74,21.66-49.25,39.13-75.66,55.96-18.91,10.73-38.67,19.88-57.7,30.41-12.15,6.17-23.66,14.28-36.76,18.3,15.82-18.12,31.12-36.66,45.21-56.18.87-1.63,3.1-4.36,5.52-7.49l.54-.12,2.93-.78,3.05-.92,3.15-1.08,3.23-1.23,3.31-1.4h.02c-2.33,2.83-4.62,5.69-6.82,8.63-3.33,4.43-12.81,14.61-3.25,17.38,13.45-.07,50.88-30.22,62.18-39.9,8.69-7.9,18.82-14.69,26.18-23.85,2.86-5.75-.26-8.55-4.6-9.26l1.4-.85,2.68-1.55,2.6-1.45,2.53-1.36,2.45-1.27,2.4-1.21,2.41-1.18,2.41-1.14,2.4-1.11,2.44-1.09,2.53-1.08,2.63-1.1,2.76-1.13,2.82-1.13,2.79-1.11,2.74-1.07,2.69-1.03,2.63-.98,2.59-.94,2.5-.87Z" fill="#cf9530"/><path d="M764.82,236.31c24.5-11.96,48.25-25.06,73.95-34.46-35.34,25.63-75.94,42.82-112.92,65.92-29.47,17.21-58.99,34.38-87.69,52.88-19.41,11.83-38.48,25.15-59.86,33.16,5.44-10.06,14.17-19.02,16.79-30.3.81-5.76-4.7-8.99-9.47-6-12.9,7.51-24.63,16.85-36.65,25.66-21.87,16.42-44.5,31.79-66.51,48.03-13.97,9.05-26.38,20.89-41.22,28.42,3.63-11.43,11.97-22.21,13.82-34.37-1.81-8.52-10.84-1.92-14.79,1.34-12.53,9.13-25.04,18.27-37.77,27.11-21.3,14.07-42.49,28.81-65.92,39.16-7.3,3.03-33.9,13.76-30.26-2.67.31-2.04,1.7-3.92,2.25-5.89.44-.35.8-.81,1.04-1.35,2.51-5.47,5.16-10.88,7.86-16.26,7.93-15.43,15.68-31,23.68-46.4,10.85-21.77,24.21-42.42,33.07-65.11,2.1-4.99,4.13-15.84-4.18-15.39-4.59,1.07-8.32,4.24-12.31,6.6,5.48-16.17,11.68-32.08,17.85-47.99l1.26-.1,2.63-.23,2.61-.26,2.6-.28,2.64-.31.97-.12c-.17.49-.34.97-.5,1.46-2.14,5.75-4.32,11.48-6.46,17.23-1.26,3.84-5.95,12.01,1.23,12.37,1.92-.16,3.18-1.8,4.38-3.13,4.48-4.91,8.89-9.91,13.84-14.35.45,11.24-4.45,21.84-8.35,32.15-13.63,33.6-31.6,66.17-44.84,100.09-1.01,3.2-4.77,11.11-6.98,18.34h0c-.06.2-.12.4-.18.6-.05.17-.1.34-.15.51-.02.06-.03.11-.05.16-.05.17-.09.34-.14.5-.05.2-.1.39-.16.58-.05.19-.1.38-.14.56-.05.2-.1.39-.14.59-.08.35-.16.69-.22,1.03-.16.79-.28,1.56-.36,2.29-.02.14-.03.28-.04.41-.01.13-.02.25-.03.37,0,.1-.01.19-.02.28,0,.05,0,.09,0,.14,0,.09,0,.17,0,.26-.01.45,0,.87.02,1.28.15-.08.3-.16.45-.27,2.48-1.62,4.95-3.24,7.44-4.85,32.12-20.92,64.55-41.42,98.15-59.89,10.18-5.48,20.41-10.85,30.6-16.3,6.61-3.39,13.08-7.5,20.44-8.99-1.05,6.98-16.79,23.57-8.81,28.89,3.02,1.32,5.65-1.24,7.85-2.99,10.08-7.87,19.86-15.32,30.39-23.1,18.27-13.3,36.44-26.86,56.05-38.15,11.61-5.81,25.34-16.1,38.37-16.81-2.28,8.75-9.01,15.75-12.34,24.16-2.53,8.66,6.7,7.84,11.44,4.15,19.22-11.78,38.75-23.02,58.35-34.16,28.56-16.46,57.96-31.41,87.41-46.19Z" fill="#56b1c7"/><path d="M353.75,259.7l1.87-.15c-1.32,2.89-2.62,5.79-3.94,8.68-5.29,11.97-10.71,23.89-16.69,35.54.6-3.93,1.73-10.74-4.05-10.86-3.85-.16-5.79,3.73-7.72,6.44-3.28,4.84-6.55,9.68-9.82,14.52-13.66,20.28-27.59,40.46-43.42,59.12,5.8-13.4,12.92-26.18,20.13-38.88,12.65-22.43,24.61-45.23,36.82-67.9l.93-.35,2.56-.92,2.46-.83,2.38-.76,2.31-.68,2.26-.61,2.28-.55,2.29-.49,2.29-.42,2.31-.36,2.35-.3,2.4-.25Z" fill="#56b1c7"/><path d="M293.29,394.86c-2.32,3.36-4.79,6.61-7.33,9.8-9.51,11.99-20.4,23.11-31.67,33.54-10.11,8.77-19.12,19.22-30.45,26.41.25-4.48,2.61-8.52,3.06-12.94-1.34-16.1-24.05,1.83-30.89,5.41,13.73-13.37,27.59-26.61,41.52-39.78-3.23,13.13,8.12,15.67,17.04,8.5,13.79-9.14,25.76-20.71,38.72-30.94Z" fill="#56b1c7"/><path d="M461.62,249.89l.52-.1c-9.89,22.82-22.81,44.11-35.14,65.68-8.54,15.16-16.5,30.68-26,45.28,10.13-23.87,20.36-47.71,30.25-71.69,1.87-6.63,13.41-25.97,6.04-30.37-4.76-2.43-8.8,3.06-13.03,4.54,1.33-2.81,2.69-5.62,4.05-8.41l2.26-.13,2.48-.19,2.54-.25,2.61-.32,2.72-.38,2.84-.44,2.99-.49,3.07-.53,3.02-.54,2.97-.55,2.92-.55,2.89-.55Z" fill="#56b1c7"/><path d="M69.66,308.83h.07c-.61,2.2-1.22,4.4-1.84,6.6-1.14,5.04-3.15,10.15-3.83,15.33h-.01s-.39.12-.39.12l-.4.12-.4.12-.4.12-.38.12-.37.12-.36.12-.36.12-.34.12-.32.11-.29.11-.29.11-.28.11-.27.11-.27.11-.26.11-.26.11-.26.11-.25.11-.25.11-.25.11-.24.11-.24.11-.24.11-.23.11-.23.11-.23.11-.22.11-.21.1-.21.11-.2.1-.2.11-.19.1-.19.1-.19.1-.19.1-.19.11-.19.11-.19.11-.2.12-.2.12-.2.12-.21.12-.21.13-.22.13-.22.13-.23.14-.23.14-.24.14-.25.15-.25.15-.26.16-.26.16-.27.16-.27.17-.26.16-.26.17-.27.17-.28.17-.28.18-.28.18-.28.18-.29.18-.3.19-.3.19-.31.19-.31.19-.3.18-.31.18-.31.18-.3.18-.29.17-.28.16-.26.15-.26.15-.25.14-.25.14-.25.14-.24.14-.25.14-.25.15-.25.15-.26.15-.27.16-.28.16-.29.17-.3.17-.31.18-.32.19-.17.1c1.64-8.03,3.49-16.01,5.49-23.96l.29-.18.3-.18.31-.19.31-.19.3-.19.3-.19.29-.18.28-.18.28-.18.28-.18.28-.17.27-.17.26-.17.26-.16.27-.17.27-.16.26-.16.26-.16.25-.15.25-.15.24-.14.23-.14.23-.14.22-.13.22-.13.21-.13.21-.12.2-.12.2-.12.2-.12.19-.11.19-.11.19-.11.19-.1.19-.1.19-.1.19-.1.2-.11.2-.1.21-.11.21-.1.22-.11.23-.11.23-.11.23-.11.24-.11.24-.11.24-.11.25-.11.25-.11.25-.11.26-.11.26-.11.26-.11.27-.11.27-.11.28-.11.29-.11.29-.11.32-.11.34-.12.36-.12.36-.12.37-.12.38-.12.4-.12.4-.12.4-.12.39-.11.39-.11.39-.1.39-.1.39-.1.37-.1.36-.09.35-.08.34-.08.34-.08.35-.07.34-.07.35-.06.34-.06.34-.05.35-.05.36-.05Z" fill="#ffdda2"/><path d="M296.76,258l2.28-.95c-4.74,9.06-9.91,17.92-14.84,26.93l-1.24.57-2.06,1.02-2.01,1.07-1.94,1.12-1.92,1.19-1.91,1.27-1.91,1.35-1.96,1.45-1.95,1.52-1.95,1.58-1.98,1.66-2.01,1.73-2.07,1.81-2.14,1.89-2.14,1.91-2.12,1.88-2.12,1.85-2.11,1.79-2.1,1.73-2.08,1.66-2,1.53-1.88,1.39-1.79,1.28-1.69,1.19-1.44,1c1.41-3.3,2.82-6.6,4.52-9.71,3.86-8.01,7.9-15.94,11.94-23.86l.6-.52,2.12-1.88,2.14-1.91,2.14-1.89,2.07-1.81,2.01-1.73,1.98-1.65,1.95-1.58,1.95-1.52,1.96-1.45,1.91-1.35,1.91-1.27,1.92-1.19,1.94-1.12,2.01-1.07,2.06-1.02,2.08-.96,2.13-.93,2.21-.93,2.32-.95,2.52-1.02,2.67-1.09Z" fill="#ffdda2"/><path d="M220.27,330.89l-1.1.65-1.32.74-1.31.68-1.28.6-1.27.53-1.27.48-1.27.42-1.28.37-1.27.32-1.26.27-1.27.24-.99.16c3.98-6.75,8.09-13.41,12.95-19.53.43,3.11.48,9.65,1.96,14.08Z" fill="#ffdda2"/><path d="M545.22,217.26c2.21,3.02-7.22,11.01-9.06,13.96-.85.98-1.7,1.94-2.55,2.91l-3.67,1.09-3.64,1.03-3.61.97-3.62.91-3.51.84-3.36.76-1.42.31c2.84-4.08,5.16-9.08.23-12.24-4.86-1.87-10.39.55-15.47-.71,0,0-.01-.01-.02-.02-.05-.06-.09-.11-.14-.17,1.3-1.8,2.68-3.54,4.11-5.24l2.78-.55,3.23-.65,3.25-.68,3.3-.71,3.36-.76,3.51-.84,3.62-.91,3.61-.97,3.64-1.03.4-.12c-1.95,2.74-2.63,5.56,1.23,7.33,1.96.5,3.71-.68,5.38-1.56,2.69-1.25,5.46-2.47,8.41-2.93Z" fill="#ffdda2"/><path d="M637.64,170.47l.89-.47c-1.78,2.91-3.46,5.88-5.06,8.92-3.27,5.83,2.11,11.13,7.88,7.73-1.36,1.61-2.74,3.21-4.14,4.79l-3.02,1.56-3.62,1.85-3.6,1.84-3.54,1.81-3.58,1.83-3.63,1.85-3.72,1.89-3.86,1.93-.27.13c3.08-4.39,6.21-8.74,8.92-13.28,1.13-1.72.63-4.13-1.22-5.13,0-3.21-2.93-3.83-5.52-3.42l1.81-.91,3.72-1.89,3.63-1.85,3.58-1.83,3.54-1.81,3.6-1.84,3.62-1.85,3.59-1.86Z" fill="#ffdda2"/><path d="M714.81,118.88c-.52,4.96-3.36,9.4-5.54,13.79-.78,1.38-1.57,2.75-2.37,4.11l-.07.06-3.21,2.71-3.29,2.85-3.33,2.92-3.34,2.95-3.3,2.91-3.24,2.86-.71.63c2.05-3.81,4.45-7.6,4.78-11.97.27-3.68-2.33-6.89-5.75-7.97l1.55-1.37,3.24-2.86,3.3-2.91.46-.41c1.45,1.27,3.66,1.66,6.08.61,5.3-2.27,9.77-6.09,14.75-8.92Z" fill="#ffdda2"/><path d="M782.07,102.7l.64.26c-2.7.28-6.01,1.76-9.47,4.67-2.51,1.55-7.5,5.25-11.79,9.57l-1.72-.24-2.66-.27-2.63-.18-2.62-.1h-1.14c4.38-7.53,7.06-14.26,4.71-17.27-4.83-5.72-13.78,2.13-19.42,3.45,1.23-1.91,2.47-3.83,3.69-5.74l.75-.16,2.07-.36,2.14-.28,2.22-.2,2.34-.11h2.51s2.62.09,2.62.09l2.63.18,2.66.27,2.7.38,2.75.5,2.84.66,2.88.79,2.85.9,2.84,1,2.82,1.07,2.8,1.11Z" fill="#ffdda2"/><path d="M801.73,109.78l1.37.35c-1.46,2.74-2.9,5.49-4.18,8.32-1.24,2.95-2.95,5.74-3.22,9.02.01.41.06.79.14,1.13l-2.29-.81-2.8-1.04-.54-.21c1.99-3.51,3.05-6.79,1.13-8.52-1.38-1.45-3.63-1.38-5.29-.46,3.45-5.63,3.81-9.93,2.26-12.37l2.31.89,2.8,1.04,2.79.98,2.77.9,2.76.8Z" fill="#ffdda2"/><path d="M859.32,100.44c1.11,1.73,3.61,3.02,8.14,3.54-4.97,7.47-10.84,14.27-16.53,21.2h-.02s-3.31,1.4-3.31,1.4l-3.23,1.23-3.15,1.08-3.05.92-2.93.78-.54.12c5.63-7.27,12.32-16.7,5.59-19.56-4.62-.96-8.24,3.42-12.25,5.04,1.12-1.85,2.26-3.67,3.42-5.49l.81-.16,2.84-.64,2.93-.78,3.05-.92,3.15-1.08,3.23-1.23,3.31-1.4,3.28-1.49,3.13-1.5,2.15-1.09Z" fill="#ffdda2"/><path d="M981.49,32.77c.84,5.68-.03,11.74-2.85,17.47-.71,1.6-1.44,3.2-2.18,4.8l-1.44.48-2.5.87-2.59.94-2.63.98-2.69,1.03-2.74,1.07-2.79,1.11-2.82,1.13-2.76,1.13-2.63,1.1-2.53,1.08-2.44,1.09-2.4,1.11-2.41,1.14-2.41,1.18-2.4,1.21-2.45,1.27-2.53,1.36-2.6,1.45-2.68,1.55-1.4.85c-2.42-.4-5.22-.15-7.57.61,10.38-11.3,26.45-16.82,34.65-30.08,1.02-1.79,1.64-3.72,1.88-5.68l2.56-1.05,2.82-1.13,2.79-1.11,2.74-1.07,2.69-1.03,2.63-.98,2.59-.94,2.5-.87,2.36-.79,2.24-.71,2-.59Z" fill="#ffdda2"/><path d="M366.24,238.28l2.22-.12c-2.45,1.69-4.55,3.83-5.88,6.55-2.41,4.91-4.7,9.87-6.96,14.85l-1.87.15-2.4.25-2.35.3-2.31.36-2.29.42-2.29.49-2.28.55-2.26.61-2.31.68-2.38.76-2.46.83-2.56.92-.93.35c2.49-4.63,5-9.25,7.52-13.86,1.93-3.75,3.97-7.45,6.03-11.15l1.49-.36,2.29-.49,2.29-.42,2.31-.36,2.35-.3,2.4-.25,2.5-.2,2.56-.16,2.53-.14,2.51-.13,2.51-.12Z" fill="#a9eeff"/><path d="M395.01,235.61l1.27-.14c-2.73,7.2-5.46,14.39-7.97,21.63l-.97.12-2.64.31-2.6.28-2.61.26-2.63.23-1.26.1c.62-1.6,1.24-3.2,1.86-4.8.85-3.14,4.94-11.48,4.88-16.49l2.22-.24,2.64-.31,2.64-.32,2.59-.31,2.57-.3Z" fill="#a9eeff"/><path d="M454.75,230.48c2.15,11.88,19.22-5.24,9.66,13.91-.74,1.81-1.49,3.61-2.27,5.4l-.52.1-2.89.55-2.92.55-2.97.55-3.02.54-3.07.53-2.99.49-2.84.44-2.72.38-2.61.32-2.54.25-2.48.19-2.26.13c3.52-7.21,7.1-14.4,10.48-21.67l1.99-.27,2.84-.44,2.99-.49,3.07-.53,3.02-.54,2.04-.38Z" fill="#a9eeff"/><path d="M72.52,298.18h.11c-.96,3.54-1.93,7.1-2.91,10.64h-.07s-.36.05-.36.05l-.35.05-.34.05-.34.06-.35.06-.34.07-.35.07-.34.08-.34.08-.35.08-.36.09-.37.1-.39.1-.39.1-.39.1-.39.11-.39.11-.4.12-.4.12-.4.12-.38.12-.37.12-.36.12-.36.12-.34.12-.32.11-.29.11-.29.11-.28.11-.27.11-.27.11-.26.11-.26.11-.26.11-.25.11-.25.11-.25.11-.24.11-.24.11-.24.11-.23.11-.23.11-.23.11-.22.11-.21.1-.21.11-.2.1-.2.11-.19.1-.19.1-.19.1-.19.1-.19.11-.19.11-.19.11-.2.12-.2.12-.2.12-.21.12-.21.13-.22.13-.22.13-.23.14-.23.14-.24.14-.25.15-.25.15-.26.16-.26.16-.27.16-.27.17-.26.16-.26.17-.27.17-.28.17-.28.18-.28.18-.28.18-.29.18-.3.19-.3.19-.31.19-.31.19-.3.18-.29.18c.99-3.92,2.01-7.83,3.08-11.74l.04-.03.28-.18.28-.18.28-.18.28-.17.27-.17.26-.17.26-.16.27-.17.27-.16.26-.16.26-.16.25-.15.25-.15.24-.14.23-.14.23-.14.22-.13.22-.13.21-.13.21-.12.2-.12.2-.12.19-.12.19-.11.19-.11.19-.11.19-.1.19-.1.19-.1.19-.1.2-.11.2-.1.21-.11.21-.1.22-.11.23-.11.23-.11.23-.11.24-.11.24-.11.24-.11.25-.11.25-.11.25-.11.26-.11.26-.11.26-.11.27-.11.27-.11.28-.11.29-.11.29-.11.32-.11.34-.12.36-.12.36-.12.37-.12.38-.12.4-.12.4-.12.4-.12.39-.11.39-.11.39-.1.39-.1.39-.1.37-.1.36-.09.35-.08.34-.08.34-.08.35-.07.34-.07.35-.06.34-.06.34-.05.35-.05.36-.05.36-.04.37-.04.37-.03.37-.03.38-.03Z" fill="#fff"/><path d="M303.35,245.21l1.89-.8c-1.93,4.28-4.02,8.49-6.2,12.64l-2.28.95-2.67,1.09-2.52,1.02-2.32.95-2.21.93-2.13.93-2.08.96-2.06,1.02-2.01,1.07-1.94,1.12-1.92,1.19-1.91,1.27-1.91,1.35-1.96,1.45-1.95,1.52-1.95,1.58-1.98,1.65-2.01,1.73-2.07,1.81-2.14,1.89-2.14,1.91-2.12,1.88-.6.52c2.56-5.01,5.11-10.02,7.62-15.05.37-.75.74-1.49,1.11-2.24l1.37-1.19,2.01-1.73,1.98-1.66,1.95-1.58,1.95-1.52,1.96-1.45,1.91-1.35,1.91-1.27,1.92-1.19,1.94-1.12,2.01-1.07,2.06-1.02,2.08-.96,2.13-.93,2.21-.93,2.32-.95,2.52-1.02,2.67-1.09,2.75-1.14,2.82-1.18Z" fill="#fff"/><path d="M398.6,224.85l1.76-.17c-1.34,3.6-2.71,7.19-4.07,10.79l-1.27.14-2.57.3-2.59.31-2.64.32-2.64.31-2.22.24c-.02-1.63-.47-2.91-1.62-3.54-1.75-.97-3.38-.45-4.42.76-.02,0-.04.01-.06.02-2.68.95-5.4,2.18-7.79,3.83l-2.22.12-2.51.12-2.51.13-2.53.14-2.56.16-2.5.2-2.4.25-2.35.3-2.31.36-2.29.42-2.29.49-1.49.36c2.14-3.86,4.29-7.71,6.33-11.61l.76-.14,2.31-.36,2.35-.3,2.4-.25,2.5-.2,2.56-.16,2.53-.14,1.09-.05c.06.09.11.17.17.26.68,1.04,1.48,2.08,2.75,2.43.43.12.85.16,1.28.16.65,0,1.31-.11,1.98-.19,1.35-.18,2.71-.36,4.06-.54,1.46-.19,2.92-.39,4.38-.58.77-.1,1.57-.18,2.32-.4,1.27-.37,2.51-.88,3.75-1.34,1.2-.44,2.63-.79,3.61-1.65l.62-.07,2.64-.32,2.59-.31,2.57-.3,2.57-.28Z" fill="#fff"/><path d="M453.72,220.38l2.9-.53c-.96,2.96-1.69,5.99-2.05,9.09.03.56.1,1.07.18,1.54l-2.04.38-3.02.54-3.07.53-2.99.49-2.84.44-1.99.27c1.7-3.65,3.35-7.33,4.92-11.04l.92-.14,2.99-.49,3.07-.53,3.02-.54Z" fill="#fff"/><path d="M542.31,200.55l3.09-.97c-3.15,2.77-6.24,5.6-9.25,8.51-1.46,1.52-4.21,3.9-5.95,6.34l-.4.12-3.64,1.03-3.61.97-3.62.91-3.51.84-3.36.76-3.3.71-3.25.68-3.23.65-2.78.55c3.77-4.47,7.92-8.64,12.13-12.76l1.44-.31,3.36-.76,3.51-.84,3.62-.91,3.61-.97,3.64-1.03,3.72-1.11,3.83-1.18,3.96-1.24Z" fill="#fff"/><path d="M649.77,153.82l1.06-.67c-4.61,5.22-8.66,10.88-12.3,16.84h0s-.89.47-.89.47l-3.59,1.86-3.62,1.85-3.6,1.84-3.54,1.81-3.58,1.83-3.63,1.85-3.72,1.89-1.81.91c-.5.08-.98.19-1.43.34,1.79-4.89,4.63-9.27,7.75-13.49l.23-.12,3.63-1.85,3.58-1.83,3.54-1.81,3.6-1.84,3.62-1.85,3.59-1.86,3.65-1.93,3.72-2.05,3.75-2.19Z" fill="#fff"/><path d="M693.97,127.2l-.46.41-3.3,2.91-3.24,2.86-1.55,1.37c-.12-.04-.23-.07-.35-.1-3.93-.95-7.79-.36-11.48,1.05l1.61-1.42,3.29-2.94,3.17-2.83,2.88-2.55c1.77-.08,3.19-1.36,3.53-3.08,0-.01,0-.03,0-.04h0s3.15-2.78,3.15-2.78l2.22-1.96c-.29.92-.56,1.85-.81,2.78-.88,2.64-.21,4.99,1.34,6.34Z" fill="#fff"/><path d="M805.46,99.99l2.56.55c-1.53,3.25-3.24,6.41-4.93,9.59l-1.37-.35-2.76-.8-2.77-.9-2.79-.98-2.8-1.04-2.31-.89c-1.08-1.69-3.07-2.49-5.6-2.23l-.64-.26-2.8-1.11-2.82-1.07-2.84-1-2.85-.9-2.88-.79-2.84-.66-2.75-.5-2.7-.38-2.66-.27-2.63-.18-2.62-.1h-2.51s-2.34.11-2.34.11l-2.22.2-2.14.28-2.07.36-.75.16c2.41-3.77,4.8-7.56,7.14-11.38l1.06-.09,2.34-.11h2.51s2.62.09,2.62.09l2.63.18,1.56.16c-.05.92.03,1.85.29,2.76,1.71,4.96,7.78,3.94,14.94.63l2.73.96,2.82,1.07,2.8,1.11,2.85,1.14,2.87,1.14,2.82,1.09h.01c-1.03,1.77-.69,4.05,1.61,5.13,1.01.44,1.97.33,2.87-.06.37-.07.76-.21,1.15-.43,1-.57,2.05-1.13,3.15-1.6l2.33.67,2.72.68Z" fill="#fff"/><path d="M861.18,89.54l1.9-1.01c-3.3,4.28-5.74,8.82-3.76,11.91l-2.15,1.09-3.13,1.5-3.28,1.49-3.31,1.4-3.23,1.23-3.15,1.08-3.05.92-2.93.78-2.84.64-.81.16c2.64-4.14,5.37-8.2,8.16-12.22l2.48-.75,3.15-1.08,3.23-1.23,3.31-1.4,3.28-1.49,3.13-1.5,2.99-1.51Z" fill="#fff"/><path d="M981.49,32.77l-2,.59-2.24.71-2.36.79-2.5.87-2.59.94-2.63.98-2.69,1.03-2.74,1.07-2.79,1.11-2.82,1.13-2.56,1.05c.4-3.21-.19-6.49-1.61-9.38l2.41-1.01,2.76-1.13,2.82-1.13,2.79-1.11,2.74-1.07,2.69-1.03,2.63-.98,2.59-.94,2.5-.87,2.36-.79.16-.05c1.55,2.86,2.59,5.99,3.07,9.23Z" fill="#fff"/><path d="M75.31,197.91c-.84-.13-1.59-.53-2.26-1.05-1.63-1.26-1.8-3.6-1.03-5.37.82-1.89,2.51-3.26,4.13-4.45,1.56-1.15,3.18-2.22,4.79-3.31,1.85-1.26,3.69-2.53,5.52-3.81,1.12-.78,2.26-1.56,3.33-2.41-.12.09-.24.19-.36.29-.04.04-.09.09-.13.13.69-.69,1.66-1.1,2.65-1.07.62.02,1.19.2,1.68.49.82-.45,1.81-.59,2.76-.31.76.23,1.62.48,2.21,1.02.58.53,1,1.16,1.18,1.93.2.88.08,1.97-.47,2.72l-.17.23c-2.22,3-4.82,5.65-7.82,7.89-2.04,1.52-4.25,2.82-6.52,3.98-1.28.66-2.6,1.26-3.92,1.83-1.23.53-2.46,1.01-3.78,1.25-.36.05-.71.09-1.06.09-.24,0-.48-.02-.73-.06Z" fill="#fff"/><path d="M291.96,166.84c-1.92-1.61-1.66-4.51-.29-6.39-.62-3.97,14.29-11.47,17.85-13.53,3.18-1.46,6.99-2.76,10.46-1.64,5.81,1.88,4.02,8.44-.36,10.91-5.36,3.33-22.2,15.31-27.66,10.64Z" fill="#fff"/><path d="M476.48,110.21c-3.59-1.81-1.09-5.85.01-8.37,1.93-3.31,1.99-8.91,6.14-10.2,1.91-.34,3.8.91,4.17,2.84.21,1.1-.14,2.22-.85,3.03-.79,1.74-1.42,3.55-2.15,5.31-1.52,3.07-2.58,9.46-7.32,7.4Z" fill="#fff"/><path d="M402.46,143.95c-5.33-1.83-.43-11.73,4.22-9.33,2.77,1.42,2.11,4.62.46,6.67-.36,2.05-2.75,3.4-4.69,2.66Z" fill="#fff"/><path d="M520.22,108.51c-2.47-.4-3.67-3.53-2.22-5.54,2.19-2.43,6.15-1.79,9.09-2.79,3.95-.08,11.23-4.33,12.83,1.23.36,1.91-.93,3.8-2.84,4.17-5.63.78-11.21,2.61-16.86,2.93Z" fill="#fff"/><path d="M699.89,70.7c-3.4-3.15,1.3-8.4,4.8-5.27,3.4,3.15-1.3,8.4-4.8,5.27Z" fill="#fff"/><path d="M742.55,59c-.21-3.38,4.56-6,6.89-3.11,3.77,5.07-5.99,9.78-6.89,3.11Z" fill="#fff"/><path d="M817.89,44.96c-2.14-4.13-6.31-6.49-10.96-5.85.14-.02.28-.04.43-.05.14-.04.29-.07.43-.11h0s.02-.01.03-.02c-6.57,1.28-7.42-9.57,4.45-6.6,5.12.72,9.03,4.51,11.63,8.77,2.52,3.85-3.51,7.77-6,3.86Z" fill="#fff"/><path d="M859.53,44.33c-3.8-2.25-.47-6.38.7-9.23,1.6-2.67,2.02-7.13,5.56-7.88,1.91-.36,3.77,1.13,4.05,3-.22,3.36-2.87,6.27-3.93,9.49-.99,2.72-2.92,6.47-6.37,4.62ZM867.06,34.22c.36-.07.7-.22,1.02-.39,0,0,0,0,0,0,.25-.16.49-.34.7-.55-.47.44-1.05.77-1.71.94Z" fill="#fff"/><path d="M867.25,32.36c-3.87-.38-4.25-6.15-.46-7.01,3.91-.67,12.14-5.96,14.07-.44.53,1.87-.59,3.87-2.46,4.4-3.75.79-7.4,2.57-11.15,3.05Z" fill="#fff"/><path d="M320.33,450.04c-5.51-2.27-3.71-8.9-1.43-12.95,2.23-3.74,2.99-9.43,7.15-11.47,3.5-1.05,6.11,3.62,3.4,6.04-2.13,3.87-3.75,7.55-5.44,11.56,13.6-4.58,25.53-13.09,37.68-20.53,3.93-2.39,7.62,3.81,3.62,6.15-10.84,6.02-33.11,23.29-44.99,21.21Z" fill="#fff"/><path d="M459.41,397.42c-4.5-2.03-.91-6.83.43-9.85,1.14-2.71,3.02-6.86,6.63-4.94,4.12,2.58-.11,6.97-1.23,10.11-.96,2.5-2.58,5.98-5.83,4.68Z" fill="#fff"/><path d="M581.01,309.47c.32-3.99,5.32-5.1,7.95-7.41,4.58-3.09,9.23-6.09,14.26-8.4,4.21-1.87,7.06,4.75,2.8,6.55-3.4,1.6-6.64,3.51-9.79,5.57-3.02,1.99-6.07,3.95-9.05,6.01-1.96,2.38-6.25.8-6.18-2.32ZM587.59,311.27c.22-.31.35-.68.46-1.04,0,0,0,0,0,0,.03-.15.05-.3.08-.46,0-.04,0-.08,0-.12-.05.58-.24,1.13-.54,1.61Z" fill="#fff"/><path d="M33.98,480.78c-2.23-.22-3.75-2.62-3.01-4.75,1.47-8.45,3.6-16.84,7.23-24.64,0,0,0,0,.01,0,2.05-3.87,8.17-.86,6.38,3.12-1.18,2.66-2.25,5.38-3.15,8.15-1.51,4.81-2.59,9.72-3.46,14.63-.14,2.02-1.91,3.76-3.99,3.48Z" fill="#fff"/><path d="M110.11,480.53c-5.82-2.96,2.08-11.78,3.25-16.09,2.13-3.14,3.15-9.15,7.74-9.18,7.89,2.14-1.86,10.86-2.65,15.01-2.38,3.34-2.74,11.74-8.33,10.27ZM117.76,460.8c-.33-.49-.53-1.06-.59-1.65.02.36.14.72.26,1.07h0c.1.2.19.4.33.59Z" fill="#fff"/></svg>