<?xml version="1.0" encoding="UTF-8"?><svg id="a" xmlns="http://www.w3.org/2000/svg" viewBox="0 0 500 500"><path d="M157.43,296.23c-1.76-.06-2.79-2.46-1.67-3.87,2.3-5.28,4.89-10.4,7.8-15.32,9.58-15.86,20.73-30.53,31.97-45.07,11.75-13.95,21.47-30.58,35.46-42.09,4.83-2.81,9.99-4.95,15.15-7.03,3.45-.96,5.91-3.75,5.36-7.71.53-10.12,8.64-17.21,13.96-24.81,7.5-9.57,15.06-19.09,22.49-28.72,18.7-24.7,36.83-49.91,56.38-73.88,3.82-4.15,6.71-9.64,11.52-12.59,12.31-4.87,20.75,10.98,27.21,19.81,4.2,6.28,8.05,12.82,12.39,18.99,3.66,5.12,9.6,8.11,12.6,13.72,2.5,6.31-1.91,13.99-8.36,14.28-12.7,1.5-23.28-7.77-30.81-17.89-.09-2.24-.18-4.47-.26-6.7,0-.43,0-.85-.02-1.25,7.06,10.32,16.33,21.86,29.29,21.34,4.03.36,7.35-3.47,6.3-7.71-2.8-4.66-7.79-7.37-11.07-11.67-4.54-5.76-8.13-12.27-12.22-18.38-5.52-7.38-11.18-19.6-20.7-20.95-4.57.34-6.69,5.51-9.64,8.52-5.74,7.01-11.35,14.14-16.92,21.31-15.42,19.46-29.73,39.89-44.96,59.53-7.47,9.69-15.13,19.2-22.64,28.85-4.76,6.42-10.98,12.83-10.33,21.73-1.62,10.92-20.86,9.99-28.12,20.22-20.76,25.56-41.69,51.21-59.47,79.27-2.22,3.56-4.17,7.29-6,11.01-1.58,2.14-1.66,6.32-4.37,6.99-.1.03-.21.05-.32.06Z"/><path d="M374.1,372.07c-4.42.66-2.87-15.56-3.06-18.69.48-17.01,3.19-33.79,3.32-50.82.38-14.06-3.53-27.79-4.58-41.66-.33-5.17,1.06-10.15,2.29-15.03,1.67-7.46,3.26-14.98,4.17-22.62,1.67-21.13-3.93-42.21-4.57-63.36-.98-27.47-1.97-55.07-3.06-82.52,0-2.87-.27-5.21-.14-7.82.44-1.65,2.59-2.14,3.71-.81,1.15,1.62.48,4.06.71,5.9.27,16.12,1.46,32.17,1.91,48.28.54,17.65.64,35.1,2.48,52.66,3.51,29.06,6.34,44.71-1.44,73.52-2.1,6.48-2.02,13.53-.72,20.25,1.76,11.48,3.95,23,3.61,34.61-.31,18.78-3.5,37.31-3.45,56.12.09,3.18.29,6.37.78,9.53.18,1.13-.64,2.17-1.64,2.41-.1.03-.21.04-.32.05Z"/><path d="M451.6,404.31c1.51,3.34,2.67,6.99,2.93,10.66.14,1.95.05,3.88-.32,5.78-.37,1.92-1.1,3.78-2.06,5.44-2.01,3.46-4.98,6.01-8.29,7.99-2.78,1.63-5.79,2.83-8.86,3.73-1,.3-2.01.57-3.03.82-2.37.58-4.78,1.04-7.19,1.36-6.63.91-13.33,1.19-20.03,1.07-13.41-.25-26.83-1.88-40.12-4.2-13.68-2.4-27.27-5.47-40.76-9.07-13.24-3.53-26.38-7.55-39.42-11.94-13.4-4.5-26.68-9.45-39.84-14.73-12.86-5.17-25.6-10.71-38.2-16.6-.73-.34-1.46-.68-2.18-1.02-.44-.21-.87-.41-1.31-.62-.06-.03-.11-.05-.17-.08-.02,0-.04-.02-.05-.02-.14-.06-.27-.13-.41-.19-.02,0-.04-.02-.07-.03-.47-.22-.94-.44-1.4-.67-1.61-.77-3.22-1.55-4.83-2.33-3.23-1.56-6.44-3.17-9.64-4.78-11.39-5.75-22.62-11.85-33.69-18.3-4.72-2.75-9.41-5.58-14.05-8.5-1.18-.74-2.36-1.48-3.53-2.23-.28-.18-.56-.36-.83-.54-.18-.11-.38-.22-.56-.35-.18-.11-.35-.23-.46-.3-11.66-7.52-23.04-15.55-33.84-24.43-5.19-4.27-10.25-8.76-15.03-13.54-4.4-4.4-8.61-9.08-12.3-14.16-3.95-5.45-7.55-11.52-9.03-18.24-.78-3.56-.84-7.25.11-10.73.59-2.18,1.62-4.18,2.93-5.94,2.86-3.83,7-6.39,11.26-8.17,5.18-2.16,10.7-3.34,16.25-4.04.73-.1,1.46-.18,1.9-.22,5.76-.61,11.56-.76,17.36-.65,6.55.13,13.12.62,19.65,1.34,13.18,1.44,26.29,3.81,39.29,6.69,1.51.34,3.03.67,4.54,1.03.35.08.7.16,1.06.25.22.05.45.11.67.16,1.17.28,1.94,1.57,1.7,2.78-.24,1.24-1.41,1.99-2.58,1.72-.62-.14-1.23-.29-1.85-.43-.06-.01-.11-.03-.17-.05-7.22-1.68-14.48-3.16-21.59-4.43-12.5-2.21-25.1-3.84-37.68-4.34-6.57-.23-13.14-.16-19.37.49-.13.01-.25.03-.33.04-3.62.39-7.21.98-10.66,1.84-.05.01-.09.03-.14.04h-.04c-2.01.54-3.99,1.17-5.92,1.95-1.43.6-2.83,1.27-4.18,2.05-.93.56-1.83,1.17-2.7,1.84-.59.48-1.16.98-1.69,1.52-.49.52-.95,1.06-1.38,1.63-.34.47-.65.96-.95,1.46-.26.47-.49.96-.7,1.46-.21.54-.39,1.1-.55,1.66-.14.6-.26,1.2-.35,1.81-.07.66-.11,1.33-.13,2,.01.82.07,1.63.16,2.44.13.91.3,1.8.52,2.69.33,1.26.74,2.49,1.2,3.7.67,1.67,1.44,3.28,2.28,4.83,1.29,2.32,2.72,4.54,4.25,6.69,2.6,3.58,5.44,6.94,8.42,10.17,5.2,5.57,10.82,10.7,16.49,15.49,10.76,8.99,22.12,17.12,33.78,24.71.44.29.95.56,1.38.89.2.12.39.26.48.32.05.03.09.06.14.09.03.01.05.03.08.05,11.95,7.66,24.2,14.79,36.63,21.51,5.05,2.73,10.13,5.38,15.25,7.97,3.13,1.58,6.28,3.15,9.43,4.69,1.64.8,3.28,1.59,4.93,2.38.46.22.97.41,1.43.68.16.08.33.15.49.24l.09.04c12.51,5.94,25.17,11.51,37.95,16.74,13.15,5.37,26.42,10.38,39.81,14.98,4.06,1.39,8.12,2.74,12.16,4.05,12.98,4.17,26.06,7.97,39.24,11.26,10.15,2.54,20.36,4.75,30.34,6.53,12.53,2.2,25.13,3.83,37.65,4.31,6.45.22,12.9.12,19.31-.52,3.55-.39,7.05-.96,10.52-1.79,2.34-.61,4.63-1.34,6.88-2.25,1.22-.53,2.41-1.12,3.57-1.77.08-.05.16-.09.24-.14.87-.52,1.7-1.1,2.51-1.73.59-.49,1.15-1,1.7-1.53.52-.56,1.01-1.13,1.48-1.74.34-.49.66-1,.97-1.52.23-.43.44-.87.64-1.32.22-.56.41-1.13.58-1.71.15-.62.27-1.24.36-1.88.07-.62.1-1.24.11-1.87-.01-.77-.05-1.53-.13-2.3-.14-1-.33-1.98-.56-2.96-.36-1.29-.78-2.54-1.25-3.78-.69-1.64-1.45-3.24-2.29-4.81-1.28-2.25-2.65-4.43-4.14-6.53-2.61-3.61-5.49-6.99-8.49-10.24-5.12-5.45-10.6-10.49-16.11-15.16-.07-.06-.14-.12-.21-.17-10.39-8.7-21.35-16.6-32.6-23.97-.93-.61-1.86-1.21-2.73-1.77-3.26-2.09-6.54-4.15-9.84-6.17.14-1.67.28-3.34.42-5.01,9.71,5.89,19.25,12.11,28.54,18.76,11.4,8.15,22.47,16.99,32.46,27.05,4.72,4.76,9.19,9.85,13.03,15.42,2,2.91,3.8,6,5.27,9.24Z"/><path d="M230.98,189.88c1.23-.72,2.48-1.39,3.74-2.02-.68,2.06-1.28,4.16-1.88,6.25-2.05,1.3-3.87,2.84-5.25,4.79-.34.42-.68.85-1.03,1.27.53-2.03,1.09-4.06,1.68-6.07.22-.58.48-1.48.78-2.55.64-.56,1.3-1.12,1.96-1.67Z"/><path d="M194.06,241.13c-1.98,2.62-3.95,5.24-5.89,7.89-4.88,2.67-9.23,5.81-12.6,9.11.01-.01.02-.03.03-.04.02-.02.05-.05.07-.07,0,0,0,0,0-.02-.02.03-.05.06-.07.09-.04.04-.08.09-.12.13-.25.24-.55.4-.86.48-1.05.26-2.31-.33-2.65-1.52-.47-1.14.59-2.61,2.17-4.09.73.16,1.47.33,2.21.5.35.08.7.16,1.06.25.22.05.45.11.67.16.24.06.47.16.67.3,2.21-3.07,4.45-6.1,6.72-9.12,2.78-1.54,5.66-2.89,8.62-4.04Z"/><path d="M376.57,167.8c.17,2.17.36,4.33.58,6.5-1.26,1.47-2.58,2.89-3.94,4.27-.24-1.99-.46-3.98-.66-5.97,1.41-1.55,2.75-3.15,4.02-4.8Z"/><path d="M378.87,231.41c.16.49.33.97.49,1.46-.45,2.87-1.02,5.84-1.73,8.96-.9-3.02-1.85-6.02-2.86-8.99.56-3.09,1.06-6.19,1.43-9.32,1.02,2.57,1.9,5.2,2.66,7.9Z"/><path d="M388.8,371.57c.94,1.2,1.65,2.63,1.66,4.2.02,1.67-.95,3.11-2.31,3.85-.63.34-1.28.59-1.97.75-.02,0-.05.01-.07.02-2.03.48-4.17.5-6.26.42-3.44-.12-6.88-.59-10.29-1.14-3.02-.49-6.03-1.08-8.76-1.66-7.88-1.67-15.7-3.7-23.47-5.9-8.07-2.27-16.09-4.74-24.08-7.32-7.89-2.56-15.74-5.23-23.56-8.02-8.42-2.99-16.8-6.12-25.15-9.34-8.47-3.27-16.89-6.68-25.27-10.21-7.6-3.2-15.17-6.51-22.68-9.97-7.9-3.64-15.74-7.42-23.46-11.49-1.46-.77-2.92-1.55-4.37-2.34-.01,0-.02-.01-.03-.02-.07-.04-.15-.08-.22-.12-.05-.03-.09-.05-.14-.08-.9-.51-1.82-1-2.72-1.51-1.21-.68-2.41-1.37-3.61-2.07-1.46-.86-2.92-1.74-4.35-2.64-1.04-.65-1.47-2.05-.89-3.16.55-1.07,1.92-1.5,2.96-.85,1.41.89,2.84,1.75,4.28,2.6,2.23,1.32,4.51,2.54,6.76,3.83.01,0,.02.02.04.02,2.7,1.47,5.42,2.9,7.9,4.17,7.35,3.76,14.8,7.3,22.29,10.71,7.89,3.59,15.83,7.03,23.82,10.34,8.33,3.45,16.69,6.79,25.1,10,6.86,2.62,13.75,5.17,20.64,7.62.02,0,.03.01.05.02l.04.02c.16.06.33.12.37.13.06.02.13.05.19.07h.03c8.1,2.88,16.23,5.65,24.4,8.28,7.96,2.57,15.97,5,24.01,7.25,7.2,2.01,14.44,3.88,21.67,5.42,5.44,1.15,10.93,2.18,16.46,2.63,1.67.12,3.34.18,5,.1.64-.05,1.27-.12,1.9-.23.27-.06.54-.12.81-.21.14-.05.28-.11.42-.17.04-.03.09-.05.13-.08,0-.02-.01-.05-.02-.07-.02-.05-.04-.11-.07-.16-.07-.13-.14-.27-.22-.39-.19-.28-.4-.55-.61-.81-.55-.63-1.13-1.21-1.69-1.73-.02-.02-.04-.03-.06-.05l-.03-.02c-1.75-1.57-3.64-2.97-5.32-4.14-2.32-1.6-4.69-3.1-7.1-4.54-.06-1.76-.04-3.57,0-5.19.11.04.22.09.33.15.21.12.43.24.63.37.07.04.14.08.21.12,1.15.68,2.29,1.38,3.42,2.08,3.27,2.04,6.5,4.2,9.49,6.7,1.35,1.13,2.65,2.36,3.76,3.77Z"/><path d="M305.23,195.9c-.49,3.28-.79,6.58-.92,9.91-15.65,23.03-38.91,40.2-65.79,45.17-.26.05-.52.11-.79.16-1.22-1.45-2.53-2.8-3.93-4.02,11.53-1.75,22.66-5.83,32.85-11.59,15.95-9.26,29-23.31,38.57-39.63Z"/><path d="M330.02,290.22c-1.8-.29-3.6-.54-5.42-.73-14.34-26.3-26.12-56.17-24.68-85.3,1.87-2.69,3.64-5.45,5.31-8.29-3.45,23.2,2.35,48.01,12.4,69.35,3.85,8.47,7.93,16.83,12.4,24.97Z"/><path d="M239.21,246.13c14.09,14.78,18.1,41.41,20.14,61,.04.98.07,1.97.09,2.95-1.51,1.34-2.96,2.75-4.36,4.23.05-2.56.03-5.12-.12-7.69-2.11-18.77-6.05-46.39-21.15-59.49,1.81-.27,3.62-.6,5.41-.99Z"/><path d="M327.29,285.12c.9,1.71,1.81,3.42,2.74,5.1-13.06-2.12-26.65-1.65-39.26,1.72-13.11,4.92-25.83,11.95-35.68,22.36.04-2.08.03-4.17-.05-6.26,1.63-1.58,2.89-2.75,3.42-3.22,10.52-8.49,22.88-15.25,35.84-18.62,10.8-1.8,22.06-2.59,33-1.09Z"/><path d="M327.3,222.03c-2.27-3.95,7.85-4.57,12.34-16.9,1.53-2.42.86-6.36,3.18-8.05,3.65-.89,3.2,2.99,2.38,5.38-1.96,7.21-5.92,14-11.75,18.3-1.74,1.12-4.38,3.98-6.14,1.27Z"/><path d="M351.95,230.47c-4.7-5.98-7.38-13.39-8.57-20.93-.03-2.93-2.49-9.91.77-11.11,2.61-.58,2.93,2.19,2.84,4.2.4,6.49,1.72,13.06,4.53,18.95,1.07,2.16,2.37,4.19,3.83,6.09,1.79,2.35-1.61,5.21-3.39,2.8Z"/><path d="M338.78,242.54c-3.06-.19-2.14-4.29-2.91-6.46-.7-3.12-2.07-6.28-3.68-8.83-.91-1.38-1.87-2.74-3.16-3.75-.72-.41-1.21-1.19-1.24-2.06-.13-2.04,2.45-3.17,3.77-1.62,3.93,1.66,13.57,22.11,7.23,22.72Z"/><path d="M337.95,244.47c-4.51-3.78,12.69-16.54,16.12-17.05,2.68-.46,3.51,4.01.88,4.54-4.7,2.21-8.89,5.92-12.35,9.92-1.14,1.48-2.5,4.2-4.65,2.59Z"/><path d="M299.84,211.96c.7,24.82,10.25,49.9,22.13,72.6-9.24-.67-18.62.13-27.68,1.64-12.72,3.3-24.86,9.88-35.25,18.14-1.95-17.55-5.66-39.74-16.46-54.2,22.74-5.31,42.67-19.37,57.26-38.17Z" fill="#ffe9b1"/><path d="M343.23,208.03c.08.57.14,1.08.14,1.51,1.09,6.9,3.43,13.7,7.43,19.39-3.03,1.82-7.23,5-10.15,8.09-.98-5.31-4.81-12.97-7.6-16,.13-.1.27-.19.39-.27,4.3-3.17,7.58-7.68,9.79-12.73Z" fill="#ffe9b1"/><path d="M109.76,339.2c-6.97-5.8-14.47-10.9-21.64-16.43-2.83-1.96.7-5.08,2.79-2.46,7.04,5.27,14.23,10.32,21.02,15.92,1.92,1.39-.26,4.41-2.17,2.97Z"/><path d="M81.13,356.91c-.82-.58-.98-1.77-.4-2.57,3.5-5.46,7.16-10.8,10.82-16.16,2.18-2.86,3.97-6.28,6.72-8.6,1.97-.85,3.52,1.92,1.83,3.21-4.01,4.93-7.4,10.33-11.03,15.55-1.83,2.7-3.61,5.43-5.37,8.17-.54.84-1.8.97-2.57.4Z"/><path d="M97.61,369.63c-.82-.6-.98-1.75-.4-2.57,1.75-2.46,3.54-4.89,5.29-7.36,1.94-2.75,3.88-5.51,5.79-8.28,2.31-2.65,5.8-10.5,8.84-11.24,1.65-.05,2.55,2,1.42,3.15-4.42,5.08-7.63,11.29-11.77,16.68-2.18,3.09-4.41,6.14-6.6,9.23-.58.82-1.77.98-2.57.4Z"/><path d="M109.09,379.05c-.83-.61-.97-1.74-.4-2.57,3.79-5.59,8.23-10.68,12.31-16.05,2.97-3.92,5.75-7.96,8.32-11.99.47-1.15,2.11-1.43,2.95-.57,1.41,1.38-.23,3.04-.99,4.3-2.99,4.6-6.2,9.07-9.6,13.38-3.41,4.31-6.93,8.55-10.01,13.1-.56.83-1.78.98-2.57.4Z"/><path d="M119.33,363.54c-2.91-1.75-5.89-3.42-8.97-4.87-1.51-.31-3.14-1.32-2.14-3.04-.11.12-.16.28-.21.43.37-1.63,2.28-1.67,3.47-.91,3.3,1.52,6.49,3.28,9.6,5.16,2.09,1.14.31,4.4-1.76,3.23Z"/><path d="M119.52,383.91c-.81-.59-.99-1.76-.4-2.57,3.53-4.88,7.29-9.57,11.12-14.22,2.47-2.96,4.85-5.99,7.46-8.82,1.08-1.21,2.79-3.31,4.35-1.51,1.65,2.32-3.2,4.97-4.25,6.96-4.12,4.91-8.22,9.86-12.13,14.95-1.74,1.5-3.39,6.84-6.15,5.2Z"/><path d="M150.43,366.2c-3.5-1.99-7.22-3.74-10.57-5.92-.89-1.04-.18-2.8,1.17-2.96,1.81.07,3.28,1.51,4.89,2.23,1.79,1.54,8.42,2.98,7,5.91-.48.88-1.63,1.21-2.5.74Z"/><path d="M141.36,378.84c-1.85-1.81-14.27-7.01-9.54-9.76.89-.42,1.98-.16,2.47.74,1.6,1.25,3.48,2.32,5.15,3.42,1.4.88,2.72,1.72,4.08,2.62,1.94,1.38-.25,4.38-2.17,2.97Z"/><path d="M136.82,394.47c-4.19-2.79-8.57-5.16-12.96-7.59-1.66-1.05-5.7-2.14-3.27-4.63,2.27-1.33,5.49,2.08,7.7,2.88,2.93,1.59,5.82,3.22,8.62,5.03.7.44,1.39.89,2.08,1.34,1.95,1.35-.25,4.41-2.17,2.97Z"/><path d="M179.2,417.48c-3.54-1.05.14-11.01-.39-14.19-2.98,2.65-5.56,6.03-9.2,7.79-5.53,1.03-2.92-6.06-2.12-8.93,2.24-8.33,4.32-16.74,7.34-24.83.42-2.4,3.92-2.95,4.05-.16-3.75,9.39-6.03,19.4-8.7,29.18,2.62-2.11,4.8-4.72,7.42-6.83,7.84-3.13,3.99,9.78,3.85,13.66,8.14-6.83,14.8-15.13,21.47-23.34,1.53-1.81,4.35.6,2.79,2.4-3.2,3.94-6.33,7.94-9.76,11.68-4.02,3.57-11.35,14.38-16.75,13.57Z"/><path d="M247.57,442.45c-5.8-1.48-11.25-3.59-16.97-5.22-1.95-.42-5.18-1.5-4.11-4.09.63-1.15,2.03-1.57,3.07-2.22,9.08-4.81,18.02-10.12,27.07-14.93-4.31-1.47-8.61-2.97-12.93-4.43-1.29-.43-2.58-.87-3.86-1.31-.53-.06-1.03-.34-1.35-.83-.53-.83-.29-2.02.56-2.54-.13.09-.26.2-.37.32,1.09-1.19,2.67-.31,3.92.11,1.6.54,3.19,1.08,4.79,1.62,3.14,1.07,6.28,2.16,9.42,3.24,1.57.72,3.68.75,4.8,2.17,2.09,3.66-6.61,6.3-8.9,7.96-6.93,3.8-13.74,7.83-20.74,11.5,4.96,1.4,9.79,3.22,14.75,4.61-.03,0-.06-.02-.07-.02,0,0-.02,0-.02,0,1.4.34,3.54.71,3.15,2.65-.2.96-1.23,1.66-2.18,1.41Z"/><path d="M253.28,444.51c-.72-.65-.84-1.88-.14-2.6,3.74-3.85,7.18-7.96,10.61-12.09,2.29-2.75,4.57-5.51,6.84-8.28.78-.82,1.45-2.1,2.7-2.17,1,0,1.88.72,1.92,1.76.03.6-.27,1.2-.75,1.57-.99,1.06-1.87,2.22-2.8,3.33-3.3,4-6.6,8.02-9.97,11.97-1.88,2.19-3.81,4.32-5.82,6.38-.7.72-1.84.83-2.6.14Z"/><path d="M274.2,451.98c-2.87-.4-1.21-4.83-1.43-6.83.71-8.02.24-16.05-.32-24.06.1-1.51,1.99-2.33,3.13-1.29,1,.86.38,2.22.64,3.34.4,4.39.62,8.8.61,13.2-.08,4.66-.41,9.3-.65,13.95-.05,1-1.01,1.76-1.99,1.68ZM274.42,423.01c.08,0,.16-.02.23-.02h0s.05-.01.08-.02c-.28.06-.58.05-.86-.03.18.07.36.07.55.07Z"/><path d="M274.14,438.69c-2.85-.85-5.71-1.67-8.55-2.54-1.13-.37-2.71-.64-2.93-2.04-.16-.91.41-1.82,1.29-2.09.96-.33,1.76.42,2.67.59,2.91.9,5.83,1.73,8.75,2.6,2.26.81,1.04,4.23-1.23,3.47Z"/><path d="M282.09,455.99c-.91-.36-1.44-1.46-1.04-2.38,2.59-6.06,5.06-12.18,7.7-18.22,1.23-2.16,2.64-7.38,5.01-8.12,1.67-.31,2.8,1.93,1.59,3.09-4,7.13-6.64,14.96-9.95,22.43-.62,1.43-1.23,3.95-3.3,3.2Z"/><path d="M292.07,445.06c-1.07-.3-2.47-.32-3.12-1.36-.84-1.31.52-3.17,2.03-2.71,2.55.82,5.29.99,7.92.45,2.38-.46,5.17-1.63,5.52-4.33-.16-2.64-6.44-4.67-8.69-5.59-1.17-.47-2.09-.3-2.98-1.02-1.38-1.27.06-3.67,1.83-3.07,4.68,1.27,11,3.33,13.33,7.9,1.6,8.44-9.38,11.25-15.85,9.74Z"/><path d="M298,461.34c-2.41-6.49-6.13-12.46-10.32-17.93-.89-2.28,2.33-3.62,3.47-1.5,1.75,2.11,13.6,19.4,9.26,20.41-.9.38-2.04-.04-2.41-.98Z"/><path d="M309.75,464.82c-.91-.35-1.45-1.47-1.04-2.38,1.7-3.87,3.01-7.88,4.23-11.67,1.03-3.26,1.91-6.56,2.82-9.85.82-2.22,2-10.97,5.64-7.18.78,1.58-.88,3.05-1.1,4.63-1.02,3.45-1.9,6.94-2.91,10.39-.99,3.42-2.12,6.8-3.31,10.15-1.01,1.83-1.45,6.8-4.33,5.92Z"/><path d="M311.58,465.74c-1-.07-1.73-1.07-1.62-2.04.27-2.05,2.51-1.52,3.99-1.64,8.24-1.41,21.99-5.55,20.9-16.08-1.81-5.52-8.48-7.13-13.25-9.29-1.81-.43-3.73-2.11-1.9-3.81.6-.49,1.53-.51,2.15-.07,1.33.6,2.71,1.08,4.06,1.64,3.3,1.37,6.59,2.98,9.3,5.35,4.75,4.02,4.16,11.36.45,15.88-5.02,6.02-16.32,10.25-24.08,10.05Z"/><path d="M212.55,401.33c.16-.49.24-1.08.31-1.69-3.24,3.22-6.31,6.61-9.33,10.03.16.1.3.23.41.38,2.27,1.05,4.5,2.16,6.8,3.15.07.02.13.05.2.07.11-1.02.23-2.04.34-3.06.34-2.98.78-5.94,1.26-8.9ZM215.69,394.77c1.02.28,1.79,1.47,1.25,2.57-1.07,6.18-1.95,12.36-2.57,18.59-.38,3.37-.78,6.73-1.19,10.1-.45,1.81.27,5.33-2.43,5.31-.97-.08-1.8-.99-1.68-1.99.5-4.09.98-8.18,1.45-12.27-2.92-1.19-5.75-2.58-8.59-3.94-.37-.13-.67-.35-.89-.63-.28.32-.56.65-.84.97-2.4,2.77-4.76,5.57-7.13,8.36-.65.76-1.87.8-2.6.14-.76-.68-.79-1.83-.14-2.6,4.11-4.82,8.18-9.66,12.41-14.37,3.59-3.64,6.8-7.98,10.95-10.97.86-.29,1.59.09,2.01.7Z" fill="#ea7765"/><path d="M229.98,401.67c1.68-1.17,3.77,1.24,2.39,2.75-2.93,6.58-4.41,13.75-7.12,20.44-.93,2.55-1.92,5.07-2.93,7.59-.37.94-1.41,1.46-2.35,1.12-.91-.32-1.49-1.42-1.12-2.35,2.49-6.2,4.77-12.48,6.8-18.84,1.35-3.54,1.77-7.83,4.34-10.71Z" fill="#ea7765"/><path d="M354.95,231.96c2.18-.44,1.98-3.59.31-4.39-1.43-1.87-2.7-3.87-3.75-5.99-2.81-5.9-4.13-12.46-4.53-18.95.07-1.52-.09-3.48-1.31-4.09-.24-1.16-1.04-1.91-2.86-1.46-2.32,1.7-1.65,5.63-3.18,8.06-4.49,12.33-14.61,12.95-12.34,16.9.36.55.74.87,1.16,1.02.17.18.36.33.57.45,1.28,1,2.25,2.37,3.16,3.75,1.62,2.55,2.99,5.7,3.68,8.83.61,1.72.16,4.64,1.46,5.89-.28,1.02-.12,1.88.62,2.5,2.15,1.61,3.51-1.11,4.65-2.59,3.47-4,7.66-7.71,12.35-9.92ZM386.05,375.41s.02.05.02.07c-.04.02-.08.05-.13.08-.14.06-.27.12-.41.17-.27.08-.54.15-.81.21-.63.11-1.26.18-1.9.23-1.66.09-3.33.03-5-.1-5.52-.45-11.01-1.48-16.46-2.63-7.23-1.55-14.47-3.41-21.67-5.42-8.04-2.25-16.04-4.68-24.01-7.25-8.17-2.63-16.3-5.4-24.4-8.27h-.03c-.06-.03-.13-.06-.19-.08-.04-.02-.21-.07-.37-.13l-.05-.02s-.03-.01-.05-.02c-6.89-2.46-13.77-5-20.64-7.62-8.4-3.21-16.77-6.55-25.1-10-7.99-3.31-15.93-6.75-23.82-10.34-3.21-1.46-6.4-2.94-9.59-4.45l1.79-6.47.14-.12.15-.12.15-.13.17-.13.17-.13.18-.14.19-.14.2-.14.21-.14.23-.15.23-.15.25-.15.25-.15.25-.14.26-.13.26-.12.26-.11.26-.1.25-.09.24-.08.23-.06.23-.05.22-.05.22-.04.21-.03.21-.02.21-.02h.21s.21-.02.21-.02h.21s.21,0,.21,0h.21s.2,0,.2,0h.2s.21.01.21.01h.21s.21.02.21.02h.21s.22.03.22.03l.23.02.23.02.23.02.24.02.24.02.24.02.25.02.26.02.26.02.26.02.26.02.26.02.27.02.27.02.27.02h.26s.25.02.25.02h.25s.24.01.24.01h.23s.23,0,.23,0h.22s.2-.02.2-.02h.19s.18-.03.18-.03l.17-.02.16-.03.15-.03.14-.04.14-.04.13-.05.12-.05.11-.05.1-.05.09-.05.09-.06.08-.06.08-.06.07-.06.07-.06.07-.06.07-.06.07-.07.07-.07.07-.07.07-.08.07-.08.07-.08.07-.09.08-.09.08-.09.08-.1.08-.1.09-.11.09-.11.09-.11.1-.12.1-.13.1-.13.11-.14.11-.14.12-.15.12-.16.12-.16.13-.17.13-.17.14-.18.14-.18.15-.18.15-.18.15-.18.15-.18.16-.18.16-.18.16-.17.16-.17.16-.15.15-.14.15-.14.15-.13.15-.12.15-.12.15-.11.15-.11.16-.11.16-.11.17-.11.17-.1.17-.1.17-.1.18-.1.18-.1.18-.09.18-.09.18-.08.19-.08.19-.08.19-.08.19-.08.19-.07.19-.07.19-.07.19-.06.19-.06.2-.06.2-.05.19-.05.2-.05.2-.05.2-.04.21-.04.2-.03.2-.02h.2s.19-.02.19-.02h.19s.19,0,.19,0h.19s.18.02.18.02l.18.02.17.02.17.03.17.03.17.03.17.03.17.03.18.04.18.04.19.04.19.04.19.04.19.04.2.04.21.04.22.04.22.04.22.03.22.03.23.03.23.02.24.02.24.02h.25s.26.02.26.02h.27s.28.01.28.01h.29s.3,0,.3,0h.31s.32-.02.32-.02h.34s.35-.04.35-.04l.37-.03.38-.03.37-.04.38-.05.4-.06.41-.07.42-.07.41-.08.41-.09.42-.09.42-.09.42-.1.42-.1.41-.11.35-.1c.19,1.58.37,3.12.54,4.61.03.48.05.95.07,1.43,0,.03,0,.06,0,.1,0,.23.02.46.02.69.01.31.02.63.02.94.01.47.02.94.02,1.41,0,.25,0,.51,0,.76,0,.79,0,1.58-.02,2.37.46-.49.93-.97,1.41-1.44.13-.13.26-.26.39-.39.05-.05.11-.11.16-.16.14-.13.27-.26.41-.39.29-.28.58-.56.88-.83.37-.34.74-.68,1.12-1.02h0c9.11-8.14,20.07-13.91,31.33-18.14,11.04-2.95,22.84-3.68,34.37-2.39.13.01.26.03.39.05.22.02.44.05.66.08.28.03.56.07.84.11.17.02.34.05.51.07.83.11,1.66.24,2.5.37h0c-.23-.42-.46-.85-.69-1.27s-.46-.85-.69-1.27c-.21-.39-.41-.77-.62-1.16-.04-.08-.08-.16-.12-.23-.2-.39-.41-.78-.61-1.17-3.42-6.52-6.61-13.16-9.66-19.86-2.01-4.27-3.85-8.67-5.48-13.18l.05-.02.19-.07.19-.07.19-.07.18-.07.17-.08.17-.08.17-.08.17-.09.16-.09.16-.09.15-.09.14-.09.13-.09.12-.09.11-.09.1-.09.1-.09.09-.08.08-.08.07-.08.07-.08.06-.07.06-.07.06-.08.05-.07.05-.07.05-.07.05-.07.05-.07.05-.07.04-.07.04-.07.04-.07.04-.07.05-.07.04-.08.05-.08.05-.08.05-.08.05-.08.04-.08.05-.08.05-.08.04-.08.05-.08.05-.07.04-.07.04-.07.05-.07.04-.07.04-.07.05-.07.05-.07.05-.07.05-.07.05-.07.05-.07.05-.07.06-.08.06-.08.06-.08.06-.08.06-.08.07-.09.07-.08.07-.09.08-.09.08-.09.08-.1.09-.1.09-.1.1-.11.1-.11.11-.11.11-.12.12-.12.12-.12.13-.13.13-.13.14-.14.14-.14.15-.14.15-.15.16-.15.16-.15.17-.15.17-.16.17-.16.17-.16.18-.16.18-.16.18-.17.19-.17.19-.17.19-.17.19-.17.19-.17.19-.17.19-.17.19-.17.18-.16.18-.16.18-.15.18-.15.17-.15.17-.14.16-.13.16-.13.15-.12.14-.12.13-.11.12-.11.11-.1.09-.1.08-.1.07-.09.06-.09.05-.09.04-.08.03-.09.02-.09v-.08s.02-.09.02-.09v-.09s-.01-.09-.01-.09l-.02-.09-.02-.1-.03-.1-.03-.11-.04-.11-.04-.12-.05-.12-.05-.13-.06-.14-.06-.15-.06-.16-.07-.17-.07-.17-.08-.18-.08-.2-.09-.21-.1-.22-.1-.23-.11-.25-.12-.27-.12-.28-.13-.3-.14-.32-.15-.34-.15-.36-.16-.38-.16-.4-.17-.43-.16-.45-.16-.46-.15-.48-.14-.49-.12-.51-.11-.52-.09-.51-.07-.5-.05-.5-.04-.5-.02-.49v-.48s-.02-.47-.02-.47v-.46s0-.45,0-.45v-.45s.02-.44.02-.44l.02-.44.02-.42.02-.4.02-.39.02-.38.02-.37.02-.37.02-.35.02-.34.02-.34.02-.33.02-.32.02-.32v-.31s.03-.3.03-.3v-.3s.03-.3.03-.3v-.31s.02-.31.02-.31v-.32s.02-.32.02-.32v-.32s.02-.33.02-.33v-.34s.02-.34.02-.34v-.34s.02-.33.02-.33v-.34s.02-.34.02-.34v-.34s.02-.34.02-.34v-.34s.02-.33.02-.33v-.33s.03-.33.03-.33l.02-.34.02-.33.02-.33.02-.33.03-.33.03-.33.04-.34.04-.34.05-.34.05-.33.06-.33.06-.34.07-.33.08-.33.08-.32.09-.31.09-.3.1-.29.1-.28.11-.27.11-.25.12-.23.12-.22.12-.21.13-.2.13-.19.14-.19.14-.18.15-.19.16-.19.17-.19.17-.2.18-.19.18-.19.19-.2.2-.2.2-.2.2-.2.21-.2.21-.2.21-.2.2-.2.2-.2.2-.2.19-.19.18-.19.17-.19.16-.19.15-.19.14-.18.12-.18.1-.17.09-.17.07-.17.06-.16.05-.16.03-.15.02-.15v-.15s.01-.14.01-.14v-.14s-.02-.14-.02-.14l-.02-.13-.03-.13-.03-.13-.04-.12-.04-.12-.04-.12-.04-.11-.04-.11-.04-.11-.04-.11-.04-.12-.05-.12-.05-.12-.05-.12-.05-.12-.05-.13-.05-.13-.05-.14-.06-.15-.06-.15-.06-.16-.06-.17-.06-.18-.07-.19-.07-.2-.07-.21-.08-.22-.08-.23-.09-.24-.09-.26-.09-.26-.09-.27-.09-.28-.09-.29-.1-.3-.1-.31-.1-.32-.09-.31-.09-.33-.09-.34-.08-.34-.08-.36-.07-.36-.06-.37-.06-.38-.05-.39-.04-.39-.03-.4v-.39s-.02-.39-.02-.39v-.38s.03-.37.03-.37l.03-.36.03-.34.04-.32.05-.3.06-.28.06-.27.07-.26.08-.26.08-.26.09-.25.1-.26.11-.27.12-.29.13-.31.15-.32.16-.34.18-.35.19-.38.21-.4.23-.42.24-.44.26-.45.28-.47.29-.49.31-.51.33-.54.34-.55.34-.55.35-.57.36-.58.36-.58.36-.59.35-.59.34-.58.33-.57.33-.57.33-.57.33-.57.32-.57.31-.55.3-.54.3-.54.3-.54.3-.54.29-.53.28-.51.28-.5.28-.49.28-.49.28-.48.28-.46.27-.44.27-.43.27-.41.27-.4.27-.39.27-.37.26-.35.26-.34.26-.33.26-.32.26-.32.25-.31.25-.29.25-.28.24-.28.24-.27.24-.27.23-.26.23-.24.23-.24.23-.23.23-.23.23-.24.23-.24.23-.23.24-.23.24-.24.25-.25.26-.26.26-.27.26-.26.27-.27.27-.27.27-.28.27-.28.27-.28.26-.28.25-.28.25-.28.24-.28.24-.28.24-.28.23-.28.23-.29.23-.29.23-.31.23-.32.23-.32.22-.32.22-.33.22-.34.22-.35.21-.37.21-.37.19-.37.18-.38.17-.38.16-.39.15-.39.14-.38.12-.37.1-.36.09-.35.07-.34.06-.35.05-.33.03-.31.02-.31v-.3s.01-.3.01-.3v-.31s0-.31,0-.31v-.31s-.03-.32-.03-.32l-.02-.33-.02-.35-.02-.36-.02-.38-.03-.39-.03-.41-.03-.42-.03-.43-.03-.45-.03-.45-.03-.43-.03-.43-.03-.43-.03-.42-.03-.42-.03-.42-.03-.41-.03-.41-.03-.41-.03-.42-.02-.42-.02-.42-.02-.42v-.42s-.03-.42-.03-.42v-.43s-.01-.44-.01-.44v-.87s.01-.45.01-.45v-.46s.03-.48.03-.48l.02-.51.02-.52.02-.54.02-.56.02-.59.03-.61.03-.64.03-.66.03-.66.03-.67.04-.67.04-.68.05-.68.05-.65.05-.61.06-.59.06-.56.07-.54.07-.52.07-.51.08-.5.08-.5.09-.52.1-.54.1-.57.11-.59.12-.62.13-.65.14-.69.15-.74.16-.78.17-.8.17-.81.18-.83.19-.85.2-.85.21-.85.21-.83.21-.8.21-.77.21-.74.21-.72.21-.71.21-.68.2-.65.2-.64.2-.63.2-.63.21-.63.21-.63.21-.62.22-.62.23-.64.23-.65.24-.66.25-.67.25-.67.25-.68.26-.69.26-.71.27-.73.27-.73.27-.72.27-.71.28-.72.28-.72.28-.7.28-.68.27-.65.27-.63.27-.61.27-.59.26-.57.26-.55.26-.53.26-.53.26-.52.26-.52.27-.51.27-.5.27-.48.27-.47.27-.46.27-.44.27-.42.26-.39.24-.34.23-.31.23-.27.21-.23.2-.19.18-.14.17-.1.15-.06h.07c.02,1.45.11,2.88.16,4.45h0c0,.2.01.41.01.62,0,.21,0,.42,0,.64.33,8.35.65,16.72.97,25.1h0c.16,4.2.31,8.39.47,12.58h0c.46,12.5.91,24.99,1.36,37.46h0c.09,2.46.17,4.92.26,7.37.13,4.24.45,8.47.89,12.7.05.5.1.99.15,1.49.03.24.06.49.08.73.03.31.06.61.1.92.07.66.15,1.32.23,1.98.03.28.06.56.1.85h0c.01.12.03.23.04.35h0c.71,5.98,1.53,11.95,2.17,17.93v.03c.31,2.84.57,5.68.77,8.53v.05c.14,1.97.24,3.94.3,5.91v.02c.12,3.95.06,7.9-.25,11.86-.06.48-.11.95-.18,1.43-.15,1.17-.32,2.35-.5,3.52h0c-.01.09-.03.17-.04.26-.05.3-.1.6-.14.91-.08.51-.17,1.01-.25,1.51-.11.66-.23,1.31-.35,1.97h0c-.79,4.37-1.73,8.7-2.7,13.02-.46,1.83-.95,3.67-1.35,5.53h0c-.63,2.88-1.07,5.79-.97,8.77h0c0,.24.02.48.03.73.72,9.44,2.75,18.8,3.86,28.25.52,4.45.84,8.92.72,13.42,0,.58-.01,1.16-.02,1.74h0c-.18,9.9-1.17,19.71-2.04,29.54-.06.69-.12,1.37-.18,2.06-.05.53-.09,1.06-.13,1.59-.04.45-.08.91-.11,1.36h0c-.39,4.83-.71,9.67-.85,14.53.05.87-.03,2.74-.08,4.99-.01.63-.03,1.29-.03,1.97-.05,5.57.33,12.16,3.17,11.73.11,0,.21-.02.32-.05,1-.24,1.82-1.28,1.64-2.41-.16-1.03-.28-2.07-.39-3.1.8.52,1.6,1.06,2.39,1.6,1.68,1.17,3.56,2.56,5.32,4.14l.03.02s.04.03.06.05c.56.52,1.14,1.1,1.69,1.73.22.26.42.53.61.81.08.13.15.26.22.39.02.06.05.11.06.17Z" fill="#aec5ca"/><path d="M450.24,416.71c-.01.63-.05,1.24-.11,1.87-.1.64-.21,1.26-.36,1.88-.17.58-.36,1.14-.58,1.71-.2.45-.41.88-.64,1.32-.31.52-.63,1.03-.97,1.52-.47.61-.96,1.18-1.48,1.74-.55.53-1.12,1.04-1.71,1.53-.8.62-1.64,1.2-2.51,1.72-.08.05-.16.09-.24.14-1.16.65-2.35,1.23-3.57,1.77-2.25.91-4.54,1.63-6.88,2.25-3.47.82-6.98,1.4-10.52,1.79-6.41.63-12.85.74-19.31.51-9.69-.37-19.43-1.43-29.14-2.91-2.84-.43-5.68-.9-8.52-1.4-9.99-1.78-20.19-3.99-30.34-6.53-2.35-.59-4.7-1.19-7.04-1.81h-.02c-7.82-2.07-15.61-4.31-23.36-6.68h0c-2.95-.91-5.88-1.83-8.82-2.77-3.36-1.09-6.74-2.21-10.12-3.36h0c-.68-.23-1.35-.46-2.03-.69-10.02-3.44-19.97-7.11-29.85-10.99l-.05-.09-.08-.14-.08-.14-.08-.14-.08-.14-.08-.14-.08-.15-.07-.14-.07-.14-.07-.14-.07-.15-.07-.15-.07-.15-.07-.15-.07-.15-.07-.15-.07-.14-.07-.15-.06-.14-.06-.14-.06-.13-.05-.13-.05-.12-.05-.12-.05-.12-.05-.12-.04-.12-.05-.12-.04-.12-.04-.11-.04-.12-.04-.12-.04-.11-.04-.11-.04-.11-.04-.1-.03-.1-.03-.1-.03-.09-.03-.09-.03-.09-.04-.08-.04-.08-.04-.08-.04-.08-.04-.08-.05-.08-.05-.08-.05-.08-.05-.08-.06-.08-.06-.08-.06-.08-.07-.09-.07-.09-.08-.09-.08-.09-.09-.1-.09-.1-.1-.1-.11-.11-.11-.11-.12-.11-.13-.12-.14-.12-.15-.13-.15-.13-.17-.14-.18-.15-.19-.15-.2-.16-.21-.16-.22-.17-.24-.17-.25-.17-.26-.17-.27-.17-.28-.16-.29-.16-.3-.17-.31-.16-.32-.17-.32-.17-.33-.16-.34-.17-.34-.17-.35-.17-.36-.17-.36-.17-.36-.17-.36-.17-.35-.17-.35-.18-.35-.18-.35-.18-.33-.18-.33-.18-.32-.18-.31-.18-.3-.18-.29-.18-.28-.17-.27-.17-.26-.17-.25-.17-.24-.17-.23-.16-.22-.15-.21-.15-.2-.15-.2-.15-.2-.15-.2-.15-.19-.15-.2-.15-.2-.15-.2-.15-.21-.15-.21-.16-.21-.15-.22-.15-.22-.15-.23-.16-.23-.16-.23-.15-.24-.15-.24-.15-.25-.15-.25-.15-.25-.15-.25-.15-.24-.15-.24-.15-.24-.15-.23-.14-.23-.15-.23-.15-.22-.15-.22-.15-.21-.15-.2-.16-.19-.16-.18-.15-.17-.15-.16-.15-.16-.15-.15-.15-.14-.15-.14-.15-.12-.14-.12-.14-.11-.14-.11-.13-.1-.13-.1-.13-.09-.12-.08-.12-.07-.11-.07-.11-.06-.11-.06-.11-.05-.1-.04-.1-.04-.1-.04-.1-.03-.11-.03-.1-.02-.1-.02-.1-.02-.11-.02-.11-.02-.11v-.11s-.03-.1-.03-.1v-.11s-.02-.11-.02-.11v-.11s-.02-.11-.02-.11v-.11s-.01-.1-.01-.1v-.1s-.01-.1-.01-.1v-.1s0-.1,0-.1v-.09s0-.09,0-.09v-.09s0-.09,0-.09v-.09s0-.09,0-.09v-.09s0-.09,0-.09v-.1s0-.1,0-.1v-.1s0-.1,0-.1v-.21s0-.11,0-.11v-.11s0-.11,0-.11v-.11s0-.12,0-.12v-.12s0-.12,0-.12v-.12s.01-.13.01-.13v-.13s.01-.13.01-.13v-.13s.02-.14.02-.14v-.14s.02-.15.02-.15v-.15s.02-.16.02-.16v-.16s.02-.17.02-.17v-.17s.03-.18.03-.18l.02-.19v-.2s.03-.2.03-.2l.02-.2.02-.2.02-.21.02-.2.02-.2.02-.2.02-.2.02-.19.02-.19.02-.2.02-.2.02-.19.02-.2.02-.2.02-.21.02-.21.02-.22.02-.22.02-.23.02-.23.02-.24.02-.25.02-.24.02-.25.02-.25.02-.25.02-.25.02-.26.02-.26.02-.25.02-.26.02-.26.02-.26.02-.26v-.26s.03-.26.03-.26v-.27s.02-.27.02-.27v-.27s0-.28,0-.28v-.58s-.01-.3-.01-.3v-.3s-.03-.31-.03-.31l-.02-.32-.03-.32-.04-.32-.04-.32-.05-.33-.06-.34-.06-.34-.07-.34-.07-.33-.08-.33-.08-.33-.09-.33-.09-.34-.1-.33-.11-.33-.11-.33-.12-.34-.13-.34-.14-.35-.14-.35-.15-.35-.16-.35-.17-.36-.17-.36-.18-.37-.19-.36-.19-.35-.2-.35-.2-.35-.2-.35-.2-.35-.21-.33-.2-.33-.2-.32-.2-.31-.2-.3-.2-.29-.2-.28-.2-.27-.2-.25-.19-.24-.19-.23-.19-.22-.19-.21-.18-.19-.18-.18-.18-.18-.18-.17-.18-.17-.17-.16-.17-.15-.17-.15-.17-.15-.17-.15-.17-.16-.16-.16-.15-.16-.15-.16-.16-.17-.16-.17-.16-.18-.16-.18-.16-.19-.15-.2-.16-.21-.16-.22-.16-.23-.15-.23-.15-.23-.15-.24-.15-.24-.15-.26-.15-.27-.14-.27-.14-.27-.14-.28-.13-.28-.14-.29-.13-.29-.13-.3-.13-.3-.12-.3-.12-.29-.12-.3-.12-.3-.12-.3-.11-.3-.11-.29-.11-.3-.11-.3-.11-.3-.11-.3-.11-.29-.11-.29-.1-.29-.1-.29-.1-.28-.1-.28-.09-.27-.09-.26-.09-.25-.08-.25-.08-.25-.07-.24-.07-.23-.06-.23-.06-.23-.06-.23-.06-.23-.05-.22-.05-.22-.04-.23-.05-.23-.04-.24-.04-.24-.04-.25-.04-.26-.04-.27-.04-.28-.04-.29-.04-.3-.04-.32-.03-.33-.04-.35-.03-.36-.03-.34c1.73.81,3.46,1.62,5.2,2.42,7.5,3.46,15.07,6.77,22.68,9.97,8.37,3.53,16.8,6.94,25.27,10.21,8.35,3.22,16.73,6.35,25.15,9.34,7.82,2.79,15.67,5.47,23.55,8.02,7.99,2.59,16.01,5.05,24.08,7.32,7.78,2.19,15.59,4.22,23.48,5.9,2.72.58,5.74,1.17,8.76,1.66,3.41.55,6.85,1.02,10.29,1.14,2.09.07,4.23.06,6.26-.42.03,0,.05-.01.08-.02.68-.17,1.34-.41,1.97-.75,1.35-.74,2.32-2.18,2.31-3.85-.01-1.57-.73-3-1.66-4.2-1.11-1.41-2.41-2.63-3.76-3.76-2.98-2.5-6.22-4.65-9.49-6.7-.08-.05-.16-.1-.25-.15-.01-.29-.02-.58-.03-.87-.02-6.24.32-12.44.79-18.64,1.89,1.18,3.77,2.37,5.65,3.58.87.56,1.8,1.16,2.73,1.77,11.25,7.36,22.21,15.27,32.6,23.97.07.06.14.12.21.17,5.5,4.67,10.99,9.71,16.11,15.16,3,3.25,5.88,6.63,8.49,10.23,1.49,2.1,2.87,4.27,4.14,6.53.84,1.57,1.6,3.17,2.28,4.81.47,1.25.89,2.5,1.25,3.78.23.99.42,1.97.56,2.96.08.77.12,1.53.13,2.3Z" fill="#aec5ca"/><path d="M391.39,96.66l.15.06c-5.8-1.59-10.76-5.57-15.06-10.33l.15.12.17.13.17.12.16.12.16.12.16.12.16.12.16.12.15.11.16.12.16.12.17.12.17.12.17.12.17.12.17.13.18.13.18.13.18.13.18.12.18.12.18.12.17.12.17.12.17.11.17.11.16.11.15.1.15.1.14.1.14.09.13.09.12.09.12.09.12.09.12.09.12.09.13.09.13.1.13.1.14.11.14.11.15.11.16.12.16.12.17.13.17.13.18.13.19.14.19.14.19.14.19.14.19.13.19.13.19.13.18.12.17.11.17.11.16.11.16.11.16.11.15.11.15.11.15.11.16.12.17.13.18.13.18.14.18.14.19.15.2.15.21.16.22.16.22.16.22.15.22.15.22.14.22.13.22.12.21.11.19.1.19.09.18.09.18.08.17.08.17.07.16.07.16.07Z" fill="#d0e4e9"/><path d="M404.19,89.75c.32,1.28.23,2.53-.15,3.64h0s-.09-.13-.09-.13l-.1-.13-.1-.13-.1-.12-.11-.12-.11-.11-.11-.11-.11-.1-.11-.09-.1-.08-.1-.07-.09-.06-.09-.06-.08-.05-.08-.05-.07-.04-.07-.04-.07-.04-.07-.04-.07-.04-.07-.04-.07-.04-.07-.04-.08-.04-.08-.04-.08-.04-.08-.05-.09-.05-.09-.05-.1-.05-.1-.06-.11-.06-.11-.06-.11-.06-.12-.07-.12-.07-.13-.07-.13-.08-.13-.08-.14-.08-.14-.09-.15-.09-.16-.1-.17-.11-.17-.11-.18-.11-.18-.12-.19-.12-.2-.13-.21-.14-.21-.14-.21-.14-.21-.14-.21-.14-.21-.13-.2-.13-.2-.12-.18-.11-.18-.1-.17-.1-.17-.09-.16-.08-.16-.08-.15-.07-.14-.07-.14-.07-.14-.07-.14-.06-.14-.07-.13-.06-.14-.07-.14-.07-.14-.07-.15-.08-.15-.08-.14-.08-.15-.09-.14-.09-.14-.1-.14-.1-.14-.11-.14-.11-.13-.11-.14-.11-.14-.12-.14-.13-.15-.13-.15-.14-.15-.14-.16-.16-.17-.17-.18-.17-.18-.18-.19-.19-.19-.2-.2-.21-.2-.21-.21-.22-.21-.22-.2-.22-.2-.23-.19-.23-.19-.23-.18-.23-.18-.23-.16-.22-.16-.22-.15-.21-.15-.21-.14-.21-.14-.21-.14-.21-.14-.21-.15-.22-.15-.23-.16-.24-.17-.25-.18-.26-.19-.27-.2-.28-.22-.29-.23-.3-.23-.3-.23-.29-.23-.29-.24-.29-.24-.29-.24-.29-.23-.29-.21-.27-.2-.27-.19-.26-.17-.25-.16-.23-.14-.22-.12-.2-.11-.2-.11-.19-.1-.18-.09-.18-.09-.18-.08-.17-.08-.17-.08-.17-.08-.18-.08-.18-.08-.18-.08-.19-.08-.19-.09-.2-.09-.2-.09-.21-.09-.21-.09-.21-.1-.22-.1-.23-.11-.23-.11-.24-.12-.24-.12-.24-.13-.24-.13-.24-.14-.24-.14-.24-.14-.23-.14-.22-.14-.21-.15-.21-.15-.2-.15-.19-.15-.18-.15-.17-.16-.17-.16-.16-.17-.15-.17-.15-.17-.14-.17-.13-.17-.12-.18-.11-.18-.1-.18-.1-.18-.08-.18-.07-.18-.06-.18-.04-.18-.03h-.18s-.17,0-.17,0l-.17.02-.16.04-.16.06-.15.07-.14.09-.14.1-.13.12-.12.13-.12.14-.12.15-.12.16-.12.17-.12.18-.12.18-.12.2-.12.2-.12.21-.12.22-.11.22-.11.22-.1.23-.1.23-.1.24-.09.25-.09.25-.09.27-.09.28-.09.3-.09.32-.08.34-.08.34-.08.36-.08.37-.02.12c.04-1.32.04-2.67-.68-3.69-1.12-1.34-3.27-.84-3.71.81-.03.72-.04,1.41-.03,2.1h-.07s-.15.06-.15.06l-.17.1-.18.14-.2.19-.21.23-.23.27-.23.31-.24.34-.26.39-.27.42-.27.44-.27.46-.27.47-.27.48-.27.5-.27.51-.26.52-.26.52-.26.53-.26.53-.26.55-.26.57-.27.59-.27.61-.27.63-.27.65-.28.68-.28.7-.28.72-.28.72-.27.71-.27.72-.27.73-.27.73-.26.71-.26.69-.25.68-.25.67-.25.67-.24.66-.23.65-.23.64-.22.62-.21.62-.21.63-.21.63-.2.63-.2.63-.2.64-.2.65-.21.68-.21.71-.21.72-.21.74-.21.77-.21.8-.21.83-.21.85-.2.85-.19.85-.18.83-.17.81-.17.8-.16.78-.15.74-.14.69-.13.65-.12.62-.11.59-.1.57-.1.54-.09.52-.08.5-.08.5-.07.51-.07.52-.07.54-.06.56-.06.59-.05.61-.05.65-.05.68-.04.68-.04.67-.03.67-.03.66-.03.66-.03.64-.03.61-.02.59-.02.56-.02.54-.02.52-.02.51v.48s-.03.46-.03.46v.45s-.01.43-.01.43v.87s.01.43.01.43v.42s.03.42.03.42l.02.42.02.42.02.42.03.42.03.41.03.41.03.41.03.42.03.42.03.42.03.43.03.43.03.43.03.45.03.45.03.43.03.42.03.41.03.39.02.38.02.36.02.35.02.33v.32s.03.31.03.31v.31s0,.31,0,.31v.3s-.01.3-.01.3l-.02.31-.03.31-.05.33-.06.35-.07.34-.09.35-.1.36-.12.37-.14.38-.15.39-.16.39-.17.38-.18.38-.19.37-.21.37-.21.37-.22.35-.22.34-.22.33-.22.32-.23.32-.23.32-.23.31-.23.29-.23.29-.23.28-.24.28-.24.28-.24.28-.25.28-.25.28-.26.28-.27.28-.27.28-.27.28-.27.27-.27.27-.26.26-.26.27-.26.26-.25.25-.24.24-.24.23-.23.23-.23.24-.23.24-.23.23-.23.23-.23.24-.23.24-.23.26-.24.27-.24.27-.24.28-.25.28-.25.29-.25.31-.26.32-.26.32-.26.33-.26.34-.26.35-.27.37-.27.39-.27.4-.27.41-.27.43-.27.44-.28.46-.28.48-.28.49-.28.49-.28.5-.28.51-.29.53-.3.54-.3.54-.3.54-.3.54-.31.55-.32.57-.33.57-.33.57-.33.57-.33.57-.34.58-.35.59-.36.59-.36.58-.36.58-.35.57-.34.55-.34.55-.33.54-.31.51-.29.49-.28.47-.26.45-.24.44-.23.42-.21.4-.19.38-.18.35-.16.34-.15.32-.13.31-.12.29-.11.27-.1.26-.09.25-.08.26-.08.26-.07.26-.06.27-.06.28-.05.3-.04.32-.03.34-.03.36-.02.37v.38s0,.39,0,.39v.39s.04.4.04.4l.04.39.05.39.06.38.06.37.07.36.08.36.08.34.09.34.09.33.09.31.1.32.1.31.1.3.09.29.09.28.09.27.09.26.09.26.09.24.08.23.08.22.07.21.07.2.07.19.06.18.06.17.06.16.06.15.06.15.05.14.05.13.05.13.05.12.05.12.05.12.05.12.04.12.04.11.04.11.04.11.04.11.04.12.04.12.04.12.03.13.03.13.02.13v.14s.02.14.02.14v.14s-.01.15-.01.15l-.02.15-.03.15-.05.16-.06.16-.07.17-.09.17-.1.17-.12.18-.14.18-.15.19-.16.19-.17.19-.18.19-.19.19-.2.2-.2.2-.2.2-.21.2-.21.2-.21.2-.2.2-.2.2-.2.2-.19.2-.18.19-.18.19-.17.2-.17.19-.16.19-.15.19-.14.18-.14.19-.13.19-.13.2-.12.21-.12.22-.12.23-.11.25-.11.27-.1.28-.1.29-.09.3-.09.31-.08.32-.08.33-.07.33-.06.34-.06.33-.05.33-.05.34-.04.34-.04.34-.03.33-.03.33-.02.33-.02.33-.02.33-.02.34v.33s-.03.33-.03.33v.33s-.02.34-.02.34v.34s-.02.34-.02.34v.34s-.02.34-.02.34v.33s-.02.34-.02.34v.34s-.02.34-.02.34v.33s-.02.32-.02.32v.32s-.02.32-.02.32v.31s-.02.31-.02.31v.3s-.03.3-.03.3v.3s-.03.31-.03.31l-.02.32-.02.32-.02.33-.02.34-.02.34-.02.35-.02.37-.02.37-.02.38-.02.39-.02.4-.02.42-.02.44v.44s-.02.45-.02.45v.45s0,.46,0,.46v.47s.02.48.02.48l.02.49.04.5.05.5.07.5.09.51.11.52.12.51.14.49.15.48.16.46.16.45.17.43.16.4.16.38.15.36.15.34.14.32.13.3.12.28.12.27.11.25.1.23.1.22.09.21.08.2.08.18.07.17.07.17.06.16.06.15.06.14.05.13.05.12.04.12.04.11.03.11.03.1.02.1.02.09v.09s.01.09.01.09v.09s-.02.08-.02.08l-.02.09-.03.09-.04.08-.05.09-.06.09-.07.09-.08.1-.09.1-.11.1-.12.11-.13.11-.14.12-.15.12-.16.13-.16.13-.17.14-.17.15-.18.15-.18.15-.18.16-.18.16-.19.17-.19.17-.19.17-.19.17-.19.17-.19.17-.19.17-.19.17-.18.17-.18.16-.18.16-.17.16-.17.16-.17.16-.17.15-.16.15-.16.15-.15.15-.15.14-.14.14-.14.14-.13.13-.13.13-.12.12-.12.12-.11.12-.11.11-.1.11-.1.11-.09.1-.09.1-.08.1-.08.09-.08.09-.07.09-.07.08-.07.09-.06.08-.06.08-.06.08-.06.08-.06.08-.05.07-.05.07-.05.07-.05.07-.05.07-.05.07-.05.07-.04.07-.04.07-.05.07-.04.07-.04.07-.05.07-.05.08-.04.08-.05.08-.05.08-.04.08-.05.08-.05.08-.05.08-.05.08-.04.08-.05.07-.04.07-.04.07-.04.07-.04.07-.05.07-.05.07-.05.07-.05.07-.05.07-.05.07-.06.08-.06.07-.06.07-.07.08-.07.08-.08.08-.09.08-.1.09-.1.09-.11.09-.12.09-.13.09-.14.09-.15.09-.16.09-.16.09-.17.09-.17.08-.17.08-.17.08-.18.07-.19.07-.19.07-.19.07-.05.02c-5.37-14.84-8.46-30.74-7.84-46.25t0,0c.02-.42.04-.83.06-1.25s.05-.83.07-1.25c.02-.35.05-.71.08-1.07.01-.17.02-.33.04-.5,0-.02,0-.03,0-.05.02-.29.05-.58.08-.87.03-.36.07-.71.11-1.07,0-.1.02-.2.03-.3.03-.33.07-.66.11-.99,0-.06.01-.11.02-.16.05-.4.1-.79.15-1.19.05-.41.11-.82.17-1.23-.21.35-.42.71-.63,1.06-.21.35-.42.7-.64,1.05-.19.31-.38.61-.57.92-.24.39-.49.78-.74,1.17-.22.34-.45.69-.67,1.03,0,.01-.01.02-.02.04-.22.33-.44.66-.66.99-.23.34-.46.68-.69,1.02-.23.34-.46.68-.7,1.01-8.89,12.77-20.09,23.69-33.27,31.34-9.89,5.59-20.67,9.6-31.83,11.43-.34.06-.68.11-1.02.16.17.15.35.31.52.46s.34.32.51.48.34.32.51.48c0,0,.02.02.03.03.32.32.64.65.95.98.48.51.95,1.04,1.41,1.59h0c10.85,12.92,14.65,34.29,16.68,50.86l-.35.1-.41.11-.42.1-.42.1-.42.09-.42.09-.41.09-.41.08-.42.07-.41.07-.4.06-.38.05-.37.04-.38.03-.37.03-.35.02h-.34s-.32.03-.32.03h-.31s-.3,0-.3,0h-.29s-.28,0-.28,0h-.27s-.26-.02-.26-.02h-.25s-.24-.03-.24-.03l-.24-.02-.23-.02-.23-.03-.22-.03-.22-.03-.22-.04-.22-.04-.21-.04-.2-.04-.19-.04-.19-.04-.19-.04-.19-.04-.18-.04-.18-.04-.17-.03-.17-.03-.17-.03-.17-.03-.17-.03-.17-.02-.18-.02h-.18s-.19-.02-.19-.02h-.19s-.19,0-.19,0h-.19s-.2.02-.2.02l-.2.02-.2.03-.21.04-.2.04-.2.05-.2.05-.19.05-.2.05-.2.06-.19.06-.19.06-.19.07-.19.07-.19.07-.19.08-.19.08-.19.08-.19.08-.18.08-.18.09-.18.09-.18.1-.18.1-.17.1-.17.1-.17.1-.17.11-.16.11-.16.11-.15.11-.15.11-.15.12-.15.12-.15.13-.15.14-.15.14-.16.15-.16.17-.16.17-.16.18-.16.18-.15.18-.15.18-.15.18-.15.18-.14.18-.14.18-.13.17-.13.17-.12.16-.12.16-.12.15-.11.14-.11.14-.1.13-.1.13-.1.12-.09.11-.09.11-.09.11-.08.1-.08.1-.08.09-.08.09-.07.09-.07.08-.07.08-.07.08-.07.07-.07.07-.07.07-.07.06-.07.06-.07.06-.07.06-.08.06-.08.06-.09.06-.09.05-.1.05-.11.05-.12.05-.13.05-.14.04-.14.04-.15.03-.16.03-.17.02-.18.02h-.19s-.2.03-.2.03h-.22s-.23,0-.23,0h-.23s-.24,0-.24,0h-.25s-.25-.02-.25-.02h-.26s-.27-.03-.27-.03l-.27-.02-.27-.02-.26-.02-.26-.02-.26-.02-.26-.02-.26-.02-.25-.02-.24-.02-.24-.02-.24-.02-.23-.02-.23-.02-.23-.02h-.22s-.21-.03-.21-.03h-.21s-.21-.02-.21-.02h-.21s-.2-.01-.2-.01h-.2s-.21,0-.21,0h-.21s-.21,0-.21,0h-.21s-.21.02-.21.02l-.21.02-.21.02-.21.03-.22.04-.22.05-.23.05-.23.06-.24.08-.25.09-.26.1-.26.11-.26.12-.26.13-.25.14-.25.15-.25.15-.23.15-.23.15-.21.14-.2.14-.19.14-.18.14-.17.13-.17.13-.15.13-.15.12-.14.12-1.79,6.47c-4.26-2.02-8.5-4.1-12.71-6.25-2.47-1.27-5.2-2.7-7.9-4.17-.01,0-.02-.02-.04-.02-2.25-1.29-4.52-2.51-6.76-3.83-1.43-.85-2.87-1.71-4.28-2.6-1.04-.65-2.4-.22-2.96.85-.57,1.11-.14,2.5.9,3.16,1.43.91,2.89,1.79,4.35,2.64,1.2.7,2.4,1.4,3.61,2.08.91.51,1.82,1,2.72,1.51.05.03.09.06.14.08.07.04.15.08.22.12.01,0,.02.01.03.02,1.45.79,2.91,1.57,4.37,2.34,6.02,3.17,12.12,6.17,18.26,9.07l.03.34.03.36.04.35.03.33.04.32.04.3.04.29.04.28.04.27.04.26.04.25.04.24.04.24.05.23.04.23.05.22.05.22.06.23.06.23.06.23.06.23.07.23.07.24.08.25.08.25.09.25.09.26.09.27.1.28.1.28.1.29.1.29.11.29.11.29.11.3.11.3.11.3.11.3.11.29.11.3.12.3.12.3.12.3.12.29.12.3.13.3.13.3.13.29.14.29.13.28.14.28.14.27.14.27.15.27.15.26.15.24.15.24.15.23.15.23.16.23.16.22.16.21.15.2.16.19.16.18.16.18.16.17.16.17.15.16.15.16.16.16.17.16.17.15.17.15.17.15.17.15.17.16.18.17.18.17.18.18.18.18.18.19.19.21.19.22.19.23.19.24.2.25.2.27.2.28.2.29.2.3.2.31.2.32.2.33.21.33.2.35.2.35.2.35.2.35.19.35.19.36.18.37.17.36.17.36.16.35.15.35.14.35.14.35.13.34.12.34.11.33.11.33.1.33.09.34.09.33.08.33.08.33.07.33.07.34.06.34.06.34.05.33.04.32.04.32.03.32.02.32.02.31v.3s.02.3.02.3v.29s0,.29,0,.29v.56s-.01.27-.01.27v.27s-.02.26-.02.26v.26s-.03.26-.03.26l-.02.26-.02.26-.02.26-.02.25-.02.26-.02.26-.02.25-.02.25-.02.25-.02.25-.02.24-.02.25-.02.24-.02.23-.02.23-.02.22-.02.22-.02.21-.02.21-.02.2-.02.2-.02.19-.02.2-.02.2-.02.19-.02.19-.02.2-.02.2-.02.2-.02.2-.02.21-.02.2-.02.2-.02.2v.2s-.03.19-.03.19v.18s-.03.17-.03.17v.17s-.02.16-.02.16v.16s-.02.15-.02.15v.15s-.02.14-.02.14v.14s-.02.13-.02.13v.13s-.01.13-.01.13v.13s-.01.12-.01.12v.12s0,.12,0,.12v.12s0,.11,0,.11v.11s0,.11,0,.11v.11s0,.11,0,.11v.3s0,.1,0,.1v.1s0,.09,0,.09v.09s0,.09,0,.09v.09s0,.09,0,.09v.09s0,.09,0,.09v.09s0,.1,0,.1v.1s.01.1.01.1v.1s.01.1.01.1v.11s.02.11.02.11v.11s.02.11.02.11v.11s.03.1.03.1v.11s.03.11.03.11l.02.11.02.11.02.1.02.1.03.1.03.11.04.1.04.1.04.1.05.1.06.11.06.11.07.11.07.11.08.12.09.12.1.13.1.13.11.13.11.14.12.14.12.14.14.15.14.15.15.15.16.15.16.15.17.15.18.15.19.16.2.16.21.15.22.15.22.15.23.15.23.15.23.14.24.15.24.15.24.15.25.15.25.15.25.15.25.15.24.15.24.15.23.15.23.16.23.16.22.15.22.15.21.15.21.16.21.15.2.15.2.15.2.15.19.15.2.15.2.15.2.15.2.15.21.15.22.15.23.16.24.17.25.17.26.17.27.17.28.17.29.18.3.18.31.18.32.18.33.18.33.18.35.18.35.18.35.18.35.17.36.17.36.17.36.17.36.17.35.17.34.17.34.17.33.16.32.17.32.17.31.16.3.17.29.16.28.16.27.17.26.17.25.17.24.17.22.17.21.16.2.16.19.15.18.15.17.14.15.13.15.13.14.12.13.12.12.11.11.11.11.11.1.1.09.1.09.1.08.09.08.09.07.09.07.09.06.08.06.08.06.08.05.08.05.08.05.08.05.08.04.08.04.08.04.08.04.08.04.08.03.09.03.09.03.09.03.1.03.1.04.1.04.11.04.11.04.11.04.12.04.12.04.11.04.12.05.12.04.12.05.12.05.12.05.12.05.12.05.13.06.13.06.14.06.14.07.15.07.14.07.15.07.15.07.15.07.15.07.15.07.15.07.14.07.14.07.14.08.15.08.14.08.14.08.14.08.14.08.14.05.09c-3.33-1.31-6.65-2.63-9.96-3.99-12.78-5.22-25.43-10.8-37.95-16.74l-.09-.04c-.16-.09-.32-.16-.49-.24-.45-.27-.97-.46-1.42-.68-1.65-.79-3.29-1.59-4.93-2.39-3.15-1.54-6.3-3.1-9.43-4.69-5.12-2.59-10.2-5.24-15.25-7.97-12.43-6.71-24.68-13.84-36.63-21.51-.03-.02-.06-.04-.08-.05-.05-.03-.1-.06-.14-.09-.09-.06-.28-.2-.48-.31-.43-.34-.94-.6-1.38-.9-11.66-7.59-23.02-15.71-33.78-24.71-5.67-4.79-11.28-9.91-16.49-15.48-2.98-3.23-5.81-6.59-8.42-10.17-1.53-2.16-2.96-4.37-4.25-6.69-.84-1.56-1.61-3.16-2.28-4.83-.46-1.21-.86-2.44-1.2-3.7-.21-.9-.38-1.79-.51-2.69-.09-.81-.14-1.62-.16-2.44.01-.67.06-1.34.13-2,.09-.61.21-1.21.35-1.81.16-.57.34-1.12.55-1.66.21-.5.44-.98.7-1.46.29-.5.61-.99.95-1.46.43-.57.89-1.11,1.38-1.63.54-.54,1.11-1.04,1.7-1.52.86-.67,1.76-1.28,2.7-1.84,1.35-.78,2.74-1.45,4.18-2.05,1.93-.77,3.91-1.41,5.92-1.94h.04s.09-.03.14-.05c3.45-.86,7.04-1.45,10.66-1.84.08,0,.21-.02.33-.04,6.23-.64,12.8-.72,19.37-.49,12.58.49,25.18,2.13,37.68,4.34,6.08,1.09,12.26,2.33,18.43,3.71.39,1.11,1.6,1.65,2.62,1.4.32-.08.62-.23.86-.48.03-.03.06-.07.1-.1,0,0,0,0,0,0,0,0,0,0,0,0,.12.03.24.05.36.08-4.32,6.13-8.47,12.39-12.37,18.84-2.91,4.92-5.5,10.04-7.8,15.32-1.12,1.41-.09,3.81,1.67,3.87.11-.01.22-.03.32-.06,2.7-.66,2.79-4.84,4.37-6.99,1.83-3.72,3.78-7.45,6-11.01,6.33-9.99,13.06-19.67,20.04-29.16.11-.15.23-.3.34-.45.37-.51.75-1.02,1.13-1.52,1.47-1.98,2.94-3.95,4.43-5.91,10.87-14.35,22.23-28.3,33.54-42.22.08-.12.17-.24.26-.35,0,0,.01-.01.02-.02.07-.1.14-.19.22-.28.04-.04.07-.09.11-.13.06-.08.13-.17.2-.25.01-.01.03-.03.04-.05.05-.06.11-.13.16-.19.03-.04.06-.07.09-.11.06-.07.13-.14.2-.21.06-.07.12-.13.19-.2.08-.08.16-.17.25-.25.1-.1.2-.2.3-.3.11-.11.23-.22.36-.33.11-.09.21-.19.32-.28.1-.08.19-.16.28-.24.14-.11.27-.22.41-.33.09-.07.19-.15.28-.22.02-.02.05-.04.07-.05.12-.09.24-.18.36-.27.27-.19.54-.38.82-.56.1-.06.21-.13.31-.2,8.7-5.51,21.55-6.59,22.86-15.43-.65-8.91,5.57-15.31,10.33-21.73,7.51-9.65,15.17-19.17,22.63-28.85,15.23-19.64,29.54-40.06,44.96-59.53,5.57-7.16,11.18-14.3,16.92-21.31,2.95-3.01,5.06-8.18,9.64-8.53,9.52,1.36,15.18,13.57,20.7,20.95,4.08,6.11,7.68,12.62,12.22,18.38,3.29,4.3,8.27,7.01,11.07,11.67Z" fill="#d0e4e9"/><path d="M404.03,93.37h0c-.88,2.55-3.34,4.34-6.15,4.09-2.22.09-4.32-.17-6.33-.73h0s-.15-.07-.15-.07l-.16-.07-.16-.07-.17-.07-.17-.08-.18-.08-.18-.09-.19-.09-.19-.1-.21-.11-.22-.12-.22-.13-.22-.14-.22-.15-.22-.15-.22-.16-.22-.16-.21-.16-.2-.15-.19-.15-.18-.14-.18-.14-.18-.13-.17-.13-.16-.12-.15-.11-.15-.11-.15-.11-.16-.11-.16-.11-.16-.11-.17-.11-.17-.11-.18-.12-.19-.13-.19-.13-.19-.13-.19-.14-.19-.14-.19-.14-.19-.14-.18-.13-.17-.13-.17-.13-.16-.12-.16-.12-.15-.11-.14-.11-.14-.11-.13-.1-.13-.1-.13-.09-.12-.09-.12-.09-.12-.09-.12-.09-.12-.09-.13-.09-.14-.09-.14-.1-.15-.1-.15-.1-.16-.11-.17-.11-.17-.11-.17-.12-.17-.12-.18-.12-.18-.12-.18-.12-.18-.13-.18-.13-.18-.13-.17-.13-.17-.12-.17-.12-.17-.12-.17-.12-.16-.12-.16-.12-.15-.11-.16-.12-.16-.12-.16-.12-.16-.12-.16-.12-.17-.12-.17-.13-.15-.12c-1.13-1.25-2.21-2.56-3.25-3.89l-.02-.08-.09-.41-.06-.26c-.07-2.37-.13-4.74-.17-7.11-.09-.68-.05-1.44-.03-2.21l.02-.12.08-.37.08-.36.08-.34.08-.34.09-.32.09-.3.09-.28.09-.27.09-.25.09-.25.1-.24.1-.23.1-.23.11-.22.11-.22.12-.22.12-.21.12-.2.12-.2.12-.18.12-.18.12-.17.12-.16.12-.15.12-.14.12-.13.13-.12.14-.1.14-.09.15-.07.16-.06.16-.04.17-.02h.17s.18,0,.18,0l.18.03.18.04.18.06.18.07.18.08.18.1.18.1.18.11.17.12.17.13.17.14.17.15.17.15.16.16.16.17.15.17.15.18.15.19.15.2.15.21.14.21.14.22.14.23.14.24.14.24.13.24.13.24.12.24.12.24.11.24.11.23.1.23.1.22.09.21.09.21.09.21.09.2.09.2.08.19.08.19.08.18.08.18.08.18.08.17.08.17.08.17.09.18.09.18.1.18.11.19.11.2.12.2.14.22.16.23.17.25.19.26.2.27.21.27.23.29.24.29.24.29.24.29.23.29.23.29.23.3.23.3.22.29.2.28.19.27.18.26.17.25.16.24.15.23.15.22.14.21.14.21.14.21.14.21.15.21.15.21.16.22.16.22.18.23.18.23.19.23.19.23.2.23.2.22.21.22.21.22.2.21.2.21.19.2.19.19.18.18.18.17.17.17.16.16.15.14.15.14.15.13.14.13.14.12.14.11.13.11.14.11.14.11.14.1.14.1.14.09.15.09.14.08.15.08.15.08.14.07.14.07.14.07.13.06.14.07.14.06.14.07.14.07.14.07.15.07.16.08.16.08.17.09.17.1.18.1.18.11.2.12.2.13.21.13.21.14.21.14.21.14.21.14.21.14.2.13.19.12.18.12.18.11.17.11.17.11.16.1.15.09.14.09.14.08.13.08.13.08.13.07.12.07.12.07.11.06.11.06.11.06.1.06.1.05.09.05.09.05.08.05.08.04.08.04.08.04.07.04.07.04.07.04.07.04.07.04.07.04.07.04.07.04.08.05.08.05.09.06.09.06.1.07.1.08.11.09.11.1.11.11.11.11.11.12.1.12.1.13.1.13.09.12Z" fill="#aec5ca"/><path d="M177.44,231.97c-2.99-.9-.6-4.36.19-6.14,4.88-9.48,15.29-14.1,21.8-22.13,4.49-5.92,6.62-13.3,11.67-18.85.63-.78,1.84-.85,2.59-.22,1.85,1.76-.8,3.58-1.73,5.05-7.61,12.38-7.95,17.25-20.74,26.49-3.75,3.26-7.63,6.55-10.1,10.93-1.28,1.54-1.09,5.14-3.68,4.88Z"/><path d="M391.49,191.82c-1.97-2.87-2.36-6.86-3.38-10.22-2.15-7.72-1.37-15.59.24-23.32,1.74-10.2-1.57-19.98-4.57-29.54-.23-2.03-.39-4.97,1.61-6.14,1.04-.44,2.18.3,2.44,1.33-1.11,3.63.24,6.82,1.49,10.28,4.02,10.69,3.65,22.16,1.24,33.16-.63,6.18.64,11.91,2.26,17.73.48,1.6,1.02,3.17,1.48,4.77.43,1.53-1.51,2.86-2.8,1.94Z"/><path d="M397.52,296.6c-2.84-.37-1.32-4.47-2.01-6.26-3.9-12.72,2.13-20.29-1.75-32.08-.09-1,.69-1.9,1.68-1.99,2.59.06,2.39,3.69,3.01,5.54,1.22,6.29-.52,12.52-.84,18.78-.36,3.24,4.6,15.69-.1,16.01Z"/><path d="M399.87,244.61c-3.79-1.45-4.39-7.53-.72-9.43.75-3.95,7.04-1.6,7.98,1.28,2,4.31-2.62,10.14-7.26,8.15ZM401.78,241.33c2.47-.21,3.04-4.48.15-4.49-.02.74-.48,1.44-1.2,1.7,0,0-.01,0-.02,0-.77.96-.26,2.74,1.07,2.79Z"/><path d="M407.04,300.13c-.79-.61-.96-1.79-.33-2.58,1.53-1.46,2.61-4.45,4.81-4.8,1.7-.05,2.5,2.31,1.12,3.29-1.67,1.36-2.94,5.66-5.59,4.09Z"/><path d="M414.27,306.68c-1.48-.44-4.06-.8-3.52-2.94.56-1.99,2.81-1.22,4.13-.68,2.27.43,1.66,3.98-.62,3.62Z"/><path d="M399.76,307.64c-4.43-.18-.41-6.49,2.18-4.17,1.54,1.56-.69,3.96-2.35,4.18,0,0,.17-.01.17-.01Z"/><path d="M403.98,311.31c-.24-.84.33-1.69.41-2.49.12-1.29.69-2.85,2.27-2.62,1.67.23,1.78,2.02,1.33,3.33-.22,1.15-.44,2.74-1.75,3.07-.95.24-1.99-.3-2.26-1.28Z"/><path d="M279.01,86.46c.06-2.25-1.88-6.92,1.51-7.32,3,.16,1.38,4.87,2.16,6.96.26,2.36-3.43,2.73-3.66.36Z"/><path d="M286.89,85.13c-2.3-.15-1.74-2.9-1.79-4.51-.21-1.51.86-3.41,2.56-2.8,1.02.28,1.54,1.51,1.14,2.46-.2,1.73.72,4.8-1.91,4.85Z"/><path d="M293.29,84.97c-.67-.74-.63-1.92.11-2.6,1.48-1.05,2.86-3.29,4.89-2.87,1.93.63,1.44,3.13-.24,3.73-1.37.97-3.02,3.47-4.76,1.74Z"/><path d="M268.54,99.72c-1.13-1.29-.1-3.08,1.5-3.15,1.28-.69,3.13-1.77,4.07-.03,1.39,2.33-4.18,4.9-5.58,3.18Z"/><path d="M280.28,99.3c.11-1.57.82-4.23,2.91-3.61,2.3.62,1.04,5.22-1,5.27-.96,0-1.82-.66-1.91-1.66Z"/><path d="M292.13,100.95c-1.01-.2-1.71-1.19-1.48-2.21-.4-1.31-.17-3.02,1.47-3.18,2.86-.24,3.16,5.92,0,5.39Z"/><path d="M306.89,73.8c-5.92-2.63,5.78-13.7,8-16.58,1.91-1.36,3.36-6.45,6.08-5.04.82.53,1.12,1.72.55,2.54-3.69,5.96-10.32,10.22-12.59,16.98.2,1.13-.89,2.29-2.04,2.1Z"/><path d="M247.98,146.07c-2.01-2.71,3.63-4.93,4.96-6.93-1.1-3.05-.34-6.58,2.18-8.69,1.37-1.26,3.57-4.44,5.25-1.86,1.03,3.34-4.91,4.35-4.23,7.9.64,3.01,1.19,3.97-1.55,6.15-1.94,1.19-4.15,5.41-6.62,3.42Z"/><path d="M45.46,264.2c-.25-3.46.35-6.94,1.65-10.16.93-2.37,5.38-11.1,7.69-5.79.08.77-.34,1.45-.97,1.79-2.1,2.25-3.45,5.21-4.22,8.18-1.23,2.32.93,6.77-2.14,7.63-.97.1-1.95-.65-2.01-1.65Z"/><path d="M436.4,448.43c-1-1.39.43-3.36,2.06-2.83,2.27-.17,4.39-1.2,6.3-2.37,2.61-.84,7.04-7.05,9.28-4.81.66.73.64,1.94-.11,2.6-4.1,3.14-12.3,10.59-17.52,7.42Z"/></svg>