<?xml version="1.0" encoding="UTF-8"?><svg id="a" xmlns="http://www.w3.org/2000/svg" viewBox="0 0 52.52 65.54"><path d="M25.46,38.41c-.06,0-.11,0-.17-.02-3.16-.74-5.53-3.9-5.28-7.03.25-3.13,3.08-5.9,6.32-6.17,1.69-.15,3.3.38,4.3,1.41.38.39.71.88,1.01,1.52.77,1.61.9,3.2.36,4.48-.73,1.72-2.71,2.8-4.61,2.5-1.91-.3-3.44-1.93-3.56-3.8-.07-1.07.33-2.07,1.06-2.69.9-.76,2.24-.83,3.12-.16.51.39.81,1.02.79,1.69-.02.62-.31,1.17-.79,1.5-.43.29-1.02.33-1.48.11-.37-.18-.61-.52-.64-.91-.03-.41.28-.77.69-.8.26-.02.5.1.65.29.06-.08.07-.17.07-.22,0-.18-.07-.36-.19-.45-.31-.24-.89-.18-1.25.12-.37.31-.57.86-.53,1.44.08,1.17,1.09,2.23,2.3,2.42,1.19.19,2.54-.53,3-1.61.5-1.18,0-2.54-.33-3.25-.23-.49-.47-.84-.73-1.12-.69-.71-1.85-1.06-3.1-.96-2.54.21-4.76,2.36-4.95,4.79-.19,2.42,1.66,4.87,4.13,5.45.4.09.65.5.56.9-.08.34-.39.58-.73.58ZM27.37,30.73h0s0,0,0,0Z" fill="#202020"/><path d="M27.63,24.03s-.03,0-.05,0c-.41-.03-.73-.38-.7-.8L28.29.7c.03-.41.38-.72.79-.7.41.03.73.38.7.8l-1.4,22.53c-.02.4-.35.7-.75.7Z" fill="#202020"/><path d="M33.71,28.09c-.27,0-.53-.15-.66-.4-.19-.37-.05-.82.32-1.01l18.29-9.6.7,1.33-18.29,9.6c-.11.06-.23.09-.35.09Z" fill="#202020"/><path d="M.75,41.37c-.29,0-.57-.17-.69-.46-.16-.38.02-.82.4-.98l17.88-7.45c.38-.16.82.02.98.4s-.02.82-.4.98L1.04,41.31c-.09.04-.19.06-.29.06Z" fill="#202020"/><path d="M5.78,31.74c-.39,0-.72-.31-.75-.7-.03-.41.29-.77.7-.8l10.03-.62.09,1.5-10.03.62s-.03,0-.05,0Z" fill="#202020"/><path d="M19.7,26.95c-.22,0-.44-.1-.59-.28L5.63,9.81c-.26-.32-.21-.8.12-1.05.32-.26.8-.2,1.05.12l13.48,16.86c.26.32.21.8-.12,1.05-.14.11-.3.16-.47.16Z" fill="#202020"/><path d="M22.07,22.83c-.3,0-.59-.18-.7-.48l-3.88-10.17c-.15-.39.05-.82.43-.97.39-.15.82.05.97.43l3.88,10.17c.15.39-.05.82-.43.97-.09.03-.18.05-.27.05Z" fill="#202020"/><path d="M32.92,21.59c-.13,0-.25-.03-.37-.1-.36-.2-.49-.66-.28-1.02l2.88-5.08c.21-.36.66-.49,1.02-.28.36.2.49.66.28,1.02l-2.88,5.08c-.14.24-.39.38-.65.38Z" fill="#202020"/><path d="M16.01,65.54c-.07,0-.13,0-.2-.03-.4-.11-.63-.52-.52-.92l6.61-24.1c.11-.4.52-.63.92-.53.4.11.63.52.52.92l-6.61,24.1c-.09.33-.39.55-.72.55Z" fill="#202020"/><path d="M12.73,48.73c-.15,0-.3-.05-.44-.14-.34-.24-.41-.71-.17-1.05l6.75-9.41c.24-.34.71-.41,1.05-.17.34.24.41.71.17,1.05l-6.75,9.41c-.15.2-.38.31-.61.31Z" fill="#202020"/><path d="M30.07,52.61c-.35,0-.66-.25-.73-.6l-2.07-10.47c-.08-.41.18-.8.59-.88.41-.08.8.18.88.59l2.07,10.47c.08.41-.18.8-.59.88-.05,0-.1.01-.15.01Z" fill="#202020"/><path d="M47.14,57.95c-.23,0-.46-.11-.61-.31l-14.88-20.62c-.24-.34-.17-.8.17-1.05.33-.24.8-.17,1.05.17l14.88,20.62c.24.34.17.8-.17,1.05-.13.1-.29.14-.44.14Z" fill="#202020"/><path d="M43.01,41.15c-.14,0-.28-.04-.4-.12l-8.24-5.28c-.35-.22-.45-.69-.23-1.04.22-.35.69-.45,1.04-.23l8.24,5.28c.35.22.45.69.23,1.04-.14.22-.38.35-.63.35Z" fill="#202020"/><path d="M33.94,32.45c-.35,0-.66-.25-.73-.6-.08-.41.18-.8.59-.88l17.83-3.59c.41-.08.8.18.88.59.08.41-.18.8-.59.88l-17.83,3.59s-.1.01-.15.01Z" fill="#202020"/></svg>